<svg width="24" height="24" viewBox="0 0 24 24" fill="none" xmlns="http://www.w3.org/2000/svg">
<path d="M6.84772 4.28257V19.6735C6.84772 20.0136 6.71259 20.3398 6.47206 20.5804C6.23153 20.8209 5.90531 20.956 5.56515 20.956H4.28257C3.94241 20.956 3.61619 20.8209 3.37566 20.5804C3.13513 20.3398 3 20.0136 3 19.6735V4.28257C3 3.94241 3.13513 3.61619 3.37566 3.37566C3.61619 3.13513 3.94241 3 4.28257 3H5.56515C5.90531 3 6.23153 3.13513 6.47206 3.37566C6.71259 3.61619 6.84772 3.94241 6.84772 4.28257ZM20.956 18.9103L16.9736 4.0453C16.885 3.71715 16.6698 3.43761 16.3752 3.26806C16.0806 3.09852 15.7307 3.05285 15.4025 3.14108L14.1648 3.47455C13.8367 3.56317 13.5571 3.77842 13.3876 4.07302C13.218 4.36761 13.1724 4.71746 13.2606 5.0457L17.243 19.9107C17.3163 20.183 17.4772 20.4235 17.701 20.595C17.9247 20.7666 18.1987 20.8597 18.4807 20.8598C18.5934 20.8603 18.7056 20.8452 18.8141 20.8149L20.0518 20.4815C20.38 20.3929 20.6595 20.1776 20.8291 19.883C20.9986 19.5884 21.0443 19.2386 20.956 18.9103ZM10.6954 3H9.41287C9.07271 3 8.74648 3.13513 8.50595 3.37566C8.26542 3.61619 8.13029 3.94241 8.13029 4.28257V19.6735C8.13029 20.0136 8.26542 20.3398 8.50595 20.5804C8.74648 20.8209 9.07271 20.956 9.41287 20.956H10.6954C11.0356 20.956 11.3618 20.8209 11.6024 20.5804C11.8429 20.3398 11.978 20.0136 11.978 19.6735V4.28257C11.978 3.94241 11.8429 3.61619 11.6024 3.37566C11.3618 3.13513 11.0356 3 10.6954 3Z" fill="#4A90EB"/>
</svg>
