<svg width="24" height="24" viewBox="0 0 24 24" fill="none" xmlns="http://www.w3.org/2000/svg">
<path fill-rule="evenodd" clip-rule="evenodd" d="M11.9999 6.54608C12.3934 5.73503 13.0073 5.05111 13.7712 4.57253C14.5352 4.09396 15.4184 3.84005 16.3199 3.83984C18.9695 3.83984 21.1199 5.99024 21.1199 8.63984C21.1199 11.4411 19.6952 14.0101 17.9663 16.075C15.4261 19.1096 12.2504 21.0498 12.2504 21.0498C12.1748 21.0954 12.0882 21.1195 11.9999 21.1195C11.9116 21.1195 11.8249 21.0954 11.7493 21.0498C11.7493 21.0498 8.57364 19.1096 6.03348 16.075C4.30452 14.0101 2.87988 11.4411 2.87988 8.63984C2.87988 5.99024 5.03028 3.83984 7.67988 3.83984C8.58136 3.84005 9.46459 4.09396 10.2285 4.57253C10.9925 5.05111 11.6064 5.73503 11.9999 6.54608ZM16.3199 7.19984C16.7018 7.19984 17.0681 7.35156 17.3381 7.62161C17.6082 7.89166 17.7599 8.25793 17.7599 8.63984C17.7599 8.76715 17.8105 8.88924 17.9005 8.97926C17.9905 9.06927 18.1126 9.11984 18.2399 9.11984C18.3672 9.11984 18.4893 9.06927 18.5793 8.97926C18.6693 8.88924 18.7199 8.76715 18.7199 8.63984C18.7199 8.00332 18.467 7.39287 18.0169 6.94279C17.5669 6.4927 16.9564 6.23984 16.3199 6.23984C16.1926 6.23984 16.0705 6.29042 15.9805 6.38043C15.8905 6.47045 15.8399 6.59254 15.8399 6.71984C15.8399 6.84715 15.8905 6.96924 15.9805 7.05926C16.0705 7.14927 16.1926 7.19984 16.3199 7.19984Z" fill="#4A90EB"/>
</svg>
