<svg width="24" height="24" viewBox="0 0 24 24" fill="none" xmlns="http://www.w3.org/2000/svg">
<path d="M21.1386 14.1917L19.3003 12.7542C19.3236 12.5325 19.3436 12.2734 19.3436 11.9992C19.3436 11.725 19.3244 11.4659 19.3003 11.2442L21.1403 9.80586C21.482 9.53586 21.5753 9.05668 21.3578 8.65754L19.4461 5.35C19.2419 4.97668 18.7944 4.785 18.3403 4.9525L16.1711 5.82332C15.7553 5.52332 15.3194 5.27 14.8686 5.0675L14.5386 2.76668C14.4844 2.33 14.1044 2 13.6553 2H9.82198C9.3728 2 8.99366 2.33 8.9403 2.76L8.60948 5.06918C8.1728 5.26586 7.74366 5.51586 7.30948 5.825L5.13448 4.95168C4.72694 4.79418 4.23944 4.97082 4.03694 5.3425L2.1228 8.65418C1.89698 9.03586 1.9903 9.53168 2.33948 9.80836L4.1778 11.2459C4.14862 11.5267 4.13448 11.7709 4.13448 12C4.13448 12.2292 4.14866 12.4734 4.1778 12.755L2.3378 14.1934C1.99612 14.4642 1.90362 14.9434 2.12112 15.3417L4.0328 18.6492C4.23698 19.0217 4.6803 19.215 5.13862 19.0467L7.3078 18.1759C7.7228 18.475 8.15862 18.7284 8.60948 18.9317L8.93948 21.2317C8.99362 21.67 9.3728 22 9.8228 22H13.6561C14.1053 22 14.4853 21.67 14.5386 21.24L14.8694 18.9317C15.3061 18.7342 15.7344 18.485 16.1694 18.175L18.3444 19.0483C18.4485 19.0891 18.5593 19.11 18.6711 19.11C18.9944 19.11 19.2919 18.9333 19.4419 18.6583L21.3619 15.3333C21.5753 14.9433 21.4819 14.4642 21.1386 14.1917ZM11.7386 15.3333C9.9003 15.3333 8.4053 13.8383 8.4053 12C8.4053 10.1617 9.9003 8.66668 11.7386 8.66668C13.5769 8.66668 15.0719 10.1617 15.0719 12C15.0719 13.8383 13.5769 15.3333 11.7386 15.3333Z" fill="#4A90EB"/>
</svg>
