<svg width="18" height="18" viewBox="0 0 18 18" fill="none" xmlns="http://www.w3.org/2000/svg">
<path d="M3.98033 9.91262C7.17173 10.145 9.05165 12.2843 9.41399 16.6327C9.60209 12.6857 11.3317 10.361 14.8478 9.9128C11.6564 9.68024 9.77651 7.54094 9.41399 3.1925C9.22607 7.13954 7.49627 9.46424 3.98033 9.91262ZM14.8478 4.3976C14.9161 3.2384 15.5444 2.55566 16.8215 2.42408C15.6623 2.35568 14.9794 1.72748 14.8478 0.450195C14.7794 1.6094 14.1512 2.29232 12.874 2.42408C14.0332 2.4923 14.7161 3.1205 14.8478 4.3976ZM1.17773 4.7108C2.33693 4.7792 3.01985 5.4074 3.15143 6.6845C3.21983 5.5253 3.84803 4.84238 5.12531 4.7108C3.96611 4.6424 3.28319 4.0142 3.15143 2.7371C3.08303 3.8963 2.45483 4.57922 1.17773 4.7108ZM3.15143 13.6028C3.08321 14.762 2.45483 15.4447 1.17773 15.5765C2.33693 15.6447 3.01985 16.2731 3.15161 17.5502C3.21983 16.391 3.84821 15.7081 5.12531 15.5765C3.96611 15.5081 3.28319 14.8799 3.15161 13.6026L3.15143 13.6028Z" fill="#DD6702"/>
</svg>
