<svg width="24" height="24" viewBox="0 0 24 24" fill="none" xmlns="http://www.w3.org/2000/svg">
<path fill-rule="evenodd" clip-rule="evenodd" d="M18.9255 13.2933C19.8976 11.6095 16.8572 8.03326 12.1343 5.3064C7.41007 2.57958 2.79353 1.73429 1.82144 3.41808C1.28153 4.35066 0.742988 5.2846 0.204441 6.21854C-0.767653 7.90238 2.27275 11.4772 6.99696 14.2041C11.7198 16.9309 16.3377 17.7776 17.3098 16.0937C17.8484 15.1598 18.3869 14.2272 18.9255 13.2933Z" fill="#FE9923"/>
<path fill-rule="evenodd" clip-rule="evenodd" d="M18.9251 13.2934C19.6668 12.0105 18.0757 9.62721 15.1866 7.35986C14.4054 7.72389 13.6078 8.13836 12.8075 8.60055C9.99886 10.2217 7.71511 12.1073 6.33398 13.8101C6.55288 13.9448 6.77378 14.0762 6.99661 14.2042C9.60891 15.7121 12.1885 16.6447 14.1368 16.8928C15.0094 16.4974 15.9037 16.0393 16.8022 15.5212C17.2392 15.2682 17.6701 15.0049 18.0948 14.7318L18.9251 13.2934Z" fill="#CE7C1D"/>
<path fill-rule="evenodd" clip-rule="evenodd" d="M12.1345 5.30644C7.41025 2.57958 2.79372 1.73429 1.82163 3.41808C0.849534 5.10052 3.88994 8.67675 8.61414 11.4036C13.337 14.1304 17.9549 14.9771 18.9257 13.2933C19.8978 11.6095 16.8573 8.03325 12.1345 5.30644Z" fill="#FECD3D"/>
<path fill-rule="evenodd" clip-rule="evenodd" d="M8.69824 11.4528C13.3925 14.1401 17.9599 14.9664 18.9252 13.2934C19.6669 12.0105 18.0758 9.62721 15.1867 7.35986C14.4055 7.72389 13.6079 8.13836 12.8076 8.60055C11.256 9.49497 9.86529 10.4712 8.69824 11.4528Z" fill="#CEA732"/>
<path fill-rule="evenodd" clip-rule="evenodd" d="M11.3113 6.73134C7.55368 4.56211 4.08788 3.53002 3.56977 4.42716C3.05302 5.3243 5.67896 7.8098 9.43655 9.97898C13.1941 12.1482 16.6599 13.1803 17.178 12.2832C17.6961 11.3874 15.0688 8.90189 11.3113 6.73134Z" fill="#FEA832"/>
<path fill-rule="evenodd" clip-rule="evenodd" d="M10.1045 10.3536C13.5962 12.2638 16.6911 13.1268 17.1779 12.2829C17.5828 11.5807 16.0613 9.90507 13.5785 8.16943C13.3197 8.30941 13.0629 8.45304 12.8081 8.60026C11.8388 9.15929 10.9335 9.74964 10.1045 10.3536Z" fill="#CE8829"/>
<path d="M15.3859 15.7746L14.7083 16.9471C14.4206 16.9294 14.1138 16.8953 13.7934 16.8435L14.6551 15.3506L15.3859 15.7746ZM5.34434 13.1719C5.57764 13.3294 5.81355 13.483 6.05196 13.6327L6.83459 12.2774L6.1038 11.8575L5.34434 13.1719ZM0.764648 8.89616C0.924164 9.13752 1.10688 9.38563 1.31276 9.63787L2.17446 8.1463L1.44232 7.72363L0.764648 8.89616ZM2.90932 11.2862C3.12278 11.4765 3.34005 11.6624 3.56102 11.8439L4.3818 10.4232L3.65102 10.0033L2.90932 11.2862ZM7.96212 14.737C8.21209 14.8678 8.4639 14.9951 8.71746 15.1188L9.47688 13.8044L8.7461 13.3804L7.96212 14.737ZM10.7585 15.9996C11.0259 16.1003 11.2955 16.1953 11.567 16.2845L12.3087 15.0002L11.5779 14.5802L10.7585 15.9996Z" fill="#C85929"/>
<path d="M2.28677 14.0211V14.8746H3.14027V15.5482H2.28677V16.4017H1.61327V15.5482H0.759766V14.8746H1.61327V14.0211H2.28677ZM17.3266 3.84326V4.6954H18.1801V5.36895H17.3266V6.2224H16.6531V5.36895H15.7996V4.6954H16.6531V3.84326H17.3266Z" fill="#FEA832"/>
<path fill-rule="evenodd" clip-rule="evenodd" d="M5.07354 17.7815C4.1014 16.0977 7.14321 12.5229 11.8661 9.796C16.5889 7.06783 21.2068 6.22249 22.1789 7.90633C22.7174 8.84011 23.2564 9.77359 23.7959 10.7068C24.7681 12.3906 21.7263 15.9655 17.0034 18.6937C12.2792 21.4205 7.66268 22.2658 6.69054 20.582C6.15199 19.6494 5.61209 18.7155 5.07354 17.7815Z" fill="#FE9923"/>
<path fill-rule="evenodd" clip-rule="evenodd" d="M11.8661 9.796C16.5889 7.06783 21.2068 6.22249 22.1789 7.90633C23.1511 9.59013 20.1093 13.165 15.3864 15.8919C10.6622 18.62 6.04568 19.4654 5.07354 17.7815C4.1014 16.0977 7.14317 12.5229 11.8661 9.796Z" fill="#FECD3D"/>
<path fill-rule="evenodd" clip-rule="evenodd" d="M12.6875 11.2209C16.445 9.05031 19.9122 8.01958 20.4289 8.91531C20.947 9.81245 18.3211 12.298 14.5621 14.4671C10.8046 16.6377 7.33879 17.6684 6.82204 16.7727C6.30393 15.8756 8.92987 13.3901 12.6875 11.2209Z" fill="#FEA832"/>
<path d="M12.4223 19.0685L13.2417 20.4878C12.9741 20.5894 12.7041 20.6844 12.4319 20.7727L11.6901 19.4884L12.4223 19.0685ZM14.5233 18.2927L15.2814 19.6071C15.5355 19.4844 15.7873 19.3571 16.0367 19.2253L15.2541 17.8701L14.5233 18.2927ZM8.61426 20.2628L9.29048 21.4354C9.57955 21.4191 9.88495 21.3836 10.2067 21.3318L9.34499 19.8402L8.61426 20.2628ZM22.5565 12.2119L21.8257 12.6346L22.686 14.1261C22.8919 13.874 23.076 13.6272 23.2341 13.3858L22.5565 12.2119ZM17.1656 16.7657L17.9482 18.1223C18.1863 17.9717 18.4222 17.8177 18.6558 17.6601L17.8964 16.3458L17.1656 16.7657ZM19.6184 14.9114L20.4392 16.3335C20.6655 16.1467 20.8823 15.9613 21.0895 15.7745L20.3492 14.4915L19.6184 14.9114Z" fill="#C85929"/>
</svg>
