<svg width="20" height="20" viewBox="0 0 20 20" fill="none" xmlns="http://www.w3.org/2000/svg">
<g clip-path="url(#clip0_695_17380)">
<path d="M10 20C15.5228 20 20 15.5228 20 10C20 4.47715 15.5228 0 10 0C4.47715 0 0 4.47715 0 10C0 15.5228 4.47715 20 10 20Z" fill="#F44336"/>
<path d="M13.6186 15.2734C13.4009 15.2741 13.1852 15.2315 12.9841 15.1482C12.7829 15.065 12.6003 14.9426 12.4467 14.7882L10.0014 12.3437L7.55611 14.7894C7.24531 15.1002 6.82377 15.2748 6.38423 15.2748C5.9447 15.2748 5.52316 15.1002 5.21236 14.7894C4.90156 14.4786 4.72695 14.0571 4.72695 13.6175C4.72695 13.178 4.90156 12.7565 5.21236 12.4457L7.65767 9.99996L5.21197 7.55464C4.90117 7.24384 4.72656 6.82231 4.72656 6.38277C4.72656 5.94323 4.90117 5.5217 5.21197 5.21089C5.52277 4.90009 5.94431 4.72549 6.38384 4.72549C6.82338 4.72549 7.24492 4.90009 7.55572 5.21089L10.0014 7.65621L12.4467 5.2105C12.6006 5.05661 12.7833 4.93454 12.9844 4.85125C13.1855 4.76796 13.401 4.7251 13.6186 4.7251C13.8362 4.7251 14.0518 4.76796 14.2528 4.85125C14.4539 4.93454 14.6366 5.05661 14.7905 5.2105C14.9444 5.3644 15.0665 5.54709 15.1497 5.74816C15.233 5.94924 15.2759 6.16474 15.2759 6.38238C15.2759 6.60002 15.233 6.81552 15.1497 7.01659C15.0665 7.21766 14.9444 7.40036 14.7905 7.55425L12.3452 9.99996L14.7909 12.4453C15.0226 12.677 15.1804 12.9722 15.2443 13.2936C15.3083 13.615 15.2754 13.9482 15.15 14.2509C15.0245 14.5537 14.8121 14.8124 14.5396 14.9944C14.2671 15.1764 13.9467 15.2735 13.619 15.2734H13.6186Z" fill="white"/>
</g>
<defs>
<clipPath id="clip0_695_17380">
<rect width="20" height="20" fill="white"/>
</clipPath>
</defs>
</svg>
