<svg width="22" height="22" viewBox="0 0 22 22" fill="none" xmlns="http://www.w3.org/2000/svg">
<path d="M1.83301 7.05988C1.83301 5.69208 2.94183 4.58325 4.30964 4.58325C5.02032 4.58325 5.65126 4.12849 5.876 3.45428L5.95801 3.20825C5.99668 3.09223 6.01602 3.03422 6.03671 2.98275C6.30089 2.32561 6.91995 1.87942 7.6269 1.8366C7.68227 1.83325 7.74342 1.83325 7.86572 1.83325H14.1336C14.2559 1.83325 14.3171 1.83325 14.3724 1.8366C15.0794 1.87942 15.6985 2.32561 15.9626 2.98275C15.9833 3.03422 16.0027 3.09223 16.0413 3.20825L16.1234 3.45428C16.3481 4.12849 16.979 4.58325 17.6897 4.58325C19.0575 4.58325 20.1663 5.69208 20.1663 7.05988V14.8499C20.1663 16.3901 20.1663 17.1601 19.8666 17.7484C19.603 18.2658 19.1823 18.6865 18.6648 18.9502C18.0766 19.2499 17.3065 19.2499 15.7663 19.2499H6.23301C4.69286 19.2499 3.92279 19.2499 3.33453 18.9502C2.81709 18.6865 2.39639 18.2658 2.13274 17.7484C1.83301 17.1601 1.83301 16.3901 1.83301 14.8499V7.05988Z" stroke="#1F2937" stroke-width="1.5" stroke-linecap="round" stroke-linejoin="round"/>
<path d="M10.9997 15.1249C13.2778 15.1249 15.1247 13.2781 15.1247 10.9999C15.1247 8.72174 13.2778 6.87492 10.9997 6.87492C8.7215 6.87492 6.87467 8.72174 6.87467 10.9999C6.87467 13.2781 8.7215 15.1249 10.9997 15.1249Z" stroke="#1F2937" stroke-width="1.5" stroke-linecap="round" stroke-linejoin="round"/>
</svg>
