<svg width="18" height="18" viewBox="0 0 18 18" fill="none" xmlns="http://www.w3.org/2000/svg">
<g clip-path="url(#clip0_421_886)">
<path d="M8.47691 6.25703L5.03044 5.05054C5.03044 6.1521 5.02112 6.14429 5.05576 6.24824C5.07974 6.32333 5.12029 6.39208 5.17439 6.44941C5.2285 6.50675 5.29479 6.5512 5.36837 6.57949C9.12362 8.02398 8.8596 7.9386 8.99981 7.9386C9.13881 7.9386 8.87153 8.02556 12.6309 6.57949C12.7305 6.54134 12.8162 6.47384 12.8766 6.38593C12.937 6.29803 12.9693 6.19385 12.9692 6.08719V5.10821L9.5002 6.26477C9.16767 6.37568 8.80772 6.37296 8.47691 6.25703Z" fill="white"/>
<path d="M3.40064 3.34059C3.52758 3.4247 3.10297 3.25813 8.82652 5.26128C8.93674 5.30013 9.05677 5.30112 9.16762 5.26409L14.0337 3.64195V6.61687C14.0337 6.76245 14.0928 6.89467 14.1884 6.98996C14.5189 7.32051 15.0886 7.08519 15.0886 6.61687C15.0886 3.02035 15.0877 2.93901 15.0876 2.93947C15.1034 2.71452 14.9617 2.48775 14.7278 2.40979C9.09669 0.532882 9.12595 0.529541 9.00094 0.529541C8.87121 0.529541 8.90891 0.530631 3.53145 2.41225C3.13029 2.55262 3.05068 3.09033 3.40064 3.34059ZM3.17383 11.6436H4.2372V12.7067H3.17383V11.6436Z" fill="white"/>
<path d="M17.4725 2.91016H16.1426V6.61685C16.1426 7.48963 15.4326 8.19925 14.5602 8.19925C13.9986 8.19925 13.5046 7.90527 13.2236 7.46325C13.0783 7.54565 13.3196 7.44514 9.56826 8.88812C9.2025 9.02888 8.79751 9.02888 8.43174 8.88812L4.98984 7.56418C4.6913 7.4494 4.43457 7.24681 4.25352 6.98314C4.07246 6.71947 3.9756 6.40711 3.9757 6.08727V4.68174L3.18204 4.40359C2.54802 4.18206 2.12218 3.5818 2.12218 2.91016H0.527467C0.236305 2.91016 0 3.14646 0 3.43762V14.8249C0 15.1161 0.236305 15.3524 0.527467 15.3524H5.29532V16.4154H3.70458C3.41342 16.4154 3.17711 16.6517 3.17711 16.9429C3.17711 17.2344 3.41342 17.4704 3.70458 17.4704H14.2954C14.5866 17.4704 14.8229 17.2344 14.8229 16.9429C14.8229 16.6517 14.5866 16.4154 14.2954 16.4154H12.7047V15.3524H17.4725C17.7637 15.3524 18 15.1161 18 14.8249V3.43762C18 3.14646 17.7637 2.91016 17.4725 2.91016ZM5.2912 13.2341C5.2912 13.5256 5.0549 13.7616 4.76373 13.7616H2.64543C2.35426 13.7616 2.11796 13.5256 2.11796 13.2341V11.1161C2.11796 10.8246 2.35426 10.5887 2.64543 10.5887H4.76373C5.0549 10.5887 5.2912 10.8246 5.2912 11.1161V13.2341ZM15.3546 13.7616H6.88169C6.59053 13.7616 6.35422 13.5256 6.35422 13.2341C6.35422 12.9429 6.59053 12.7066 6.88169 12.7066H15.3546C15.6457 12.7066 15.882 12.9429 15.882 13.2341C15.882 13.5256 15.6457 13.7616 15.3546 13.7616ZM15.3546 11.6436H6.88169C6.59053 11.6436 6.35422 11.4073 6.35422 11.1161C6.35422 10.8246 6.59053 10.5887 6.88169 10.5887H15.3546C15.6457 10.5887 15.882 10.8246 15.882 11.1161C15.882 11.4073 15.6457 11.6436 15.3546 11.6436Z" fill="white"/>
</g>
<defs>
<clipPath id="clip0_421_886">
<rect width="18" height="18" fill="white"/>
</clipPath>
</defs>
</svg>
