<svg width="32" height="32" viewBox="0 0 32 32" fill="none" xmlns="http://www.w3.org/2000/svg">
<rect x="0.5" y="0.499756" width="31" height="31" rx="7.5" fill="#FEE2E2"/>
<rect x="0.5" y="0.499756" width="31" height="31" rx="7.5" stroke="#EF4444"/>
<g clip-path="url(#clip0_600_3583)">
<path d="M10.0286 11.8716C10.0286 11.9966 10.4473 19.1185 10.6598 22.4966C10.7192 23.431 11.3379 23.9966 12.2848 23.9966H19.6473C20.7254 23.9966 21.2942 23.4435 21.3598 22.3716C21.5348 19.4841 21.9598 12.4435 21.9911 11.8685L10.0286 11.8716ZM18.5129 18.981C18.9161 19.3841 18.9161 20.0373 18.5129 20.4404C18.1098 20.8435 17.4567 20.8435 17.0536 20.4404L16.0098 19.3966L14.9661 20.4404C14.5629 20.8435 13.9098 20.8435 13.5067 20.4404C13.1036 20.0373 13.1036 19.3841 13.5067 18.981L14.5504 17.9373L13.5067 16.8904C13.1036 16.4873 13.1036 15.8341 13.5067 15.431C13.9098 15.0279 14.5629 15.0279 14.9661 15.431L16.0098 16.4748L17.0536 15.431C17.4567 15.0279 18.1098 15.0279 18.5129 15.431C18.9161 15.8341 18.9161 16.4873 18.5129 16.8904L17.4692 17.9373L18.5129 18.981ZM21.9786 9.02788C21.1317 9.02163 20.2879 9.01538 19.4442 9.03101C19.3942 8.44976 18.9067 7.99976 18.3223 7.99976H13.6786C13.0942 7.99976 12.6067 8.44976 12.5598 9.03101C11.6911 9.01538 10.8192 9.02163 9.95044 9.02788C9.49419 9.03413 9.16294 9.28726 9.05356 9.68726C8.86294 10.3841 9.28481 10.9591 10.0067 10.9623C12.0098 10.9685 14.0098 10.9654 16.0098 10.9654H21.9723C22.6192 10.9654 22.9911 10.6029 22.9942 9.99976C22.9973 9.39663 22.6223 9.03101 21.9786 9.02788Z" fill="#EF4444"/>
</g>
<defs>
<clipPath id="clip0_600_3583">
<rect width="16" height="16" fill="white" transform="translate(8 7.99976)"/>
</clipPath>
</defs>
</svg>
