<svg width="22" height="24" viewBox="0 0 22 24" fill="none" xmlns="http://www.w3.org/2000/svg">
<path d="M2.04187 5.80781C2.04187 5.99531 2.66999 16.6781 2.98874 21.7453C3.0778 23.1469 4.00593 23.9953 5.42624 23.9953H16.47C18.0872 23.9953 18.9403 23.1656 19.0387 21.5578C19.3012 17.2266 19.9387 6.66563 19.9856 5.80313L2.04187 5.80781ZM14.7684 16.4719C15.3731 17.0766 15.3731 18.0562 14.7684 18.6609C14.1637 19.2656 13.1841 19.2656 12.5794 18.6609L11.0137 17.0953L9.44812 18.6609C8.84343 19.2656 7.86374 19.2656 7.25905 18.6609C6.65437 18.0562 6.65437 17.0766 7.25905 16.4719L8.82468 14.9062L7.25905 13.3359C6.65437 12.7312 6.65437 11.7516 7.25905 11.1469C7.86374 10.5422 8.84343 10.5422 9.44812 11.1469L11.0137 12.7125L12.5794 11.1469C13.1841 10.5422 14.1637 10.5422 14.7684 11.1469C15.3731 11.7516 15.3731 12.7312 14.7684 13.3359L13.2028 14.9062L14.7684 16.4719ZM19.9669 1.54219C18.6966 1.53281 17.4309 1.52344 16.1653 1.54688C16.0903 0.675 15.3591 0 14.4825 0H7.51687C6.6403 0 5.90905 0.675 5.83874 1.54688C4.53562 1.52344 3.2278 1.53281 1.92468 1.54219C1.2403 1.55156 0.743428 1.93125 0.579366 2.53125C0.293428 3.57656 0.926241 4.43906 2.00905 4.44375C5.01374 4.45312 8.01374 4.44844 11.0137 4.44844H19.9575C20.9278 4.44844 21.4856 3.90469 21.4903 3C21.495 2.09531 20.9325 1.54688 19.9669 1.54219Z" fill="white"/>
</svg>
