<svg width="24" height="24" viewBox="0 0 24 24" fill="none" xmlns="http://www.w3.org/2000/svg">
<path d="M20 8.60043L11.62 16.9804C11.33 17.2704 10.95 17.4504 10.54 17.4904L7.61 17.7604H7.5C7.17 17.7604 6.85 17.6304 6.62 17.3904C6.36 17.1304 6.23 16.7604 6.26 16.3904L6.53 13.4604C6.57 13.0504 6.75 12.6704 7.04 12.3804L15.4 4.00043L20 8.60043ZM21.94 2.77043L21.23 2.06043C20.7132 1.54637 20.0139 1.25781 19.285 1.25781C18.5561 1.25781 17.8568 1.54637 17.34 2.06043L16.46 2.94043L21.06 7.54042L21.94 6.66042C22.1962 6.40644 22.3995 6.10424 22.5382 5.77127C22.677 5.4383 22.7484 5.08115 22.7484 4.72042C22.7484 4.3597 22.677 4.00255 22.5382 3.66958C22.3995 3.33661 22.1962 3.03441 21.94 2.78043V2.77043ZM20.75 19.0104V13.2004C20.75 12.7904 20.41 12.4504 20 12.4504C19.59 12.4504 19.25 12.7904 19.25 13.2004V19.0104C19.25 20.2504 18.24 21.2604 17 21.2604H5C3.76 21.2604 2.75 20.2504 2.75 19.0104V7.00042C2.75 5.76043 3.76 4.75043 5 4.75043H10.81C11.22 4.75043 11.56 4.41043 11.56 4.00043C11.56 3.59043 11.22 3.25043 10.81 3.25043H5C2.93 3.25043 1.25 4.93043 1.25 7.00042V19.0004C1.25 21.0704 2.93 22.7504 5 22.7504H17C19.07 22.7504 20.75 21.0704 20.75 19.0004V19.0104Z" fill="white"/>
</svg>
