<svg width="32" height="32" viewBox="0 0 32 32" fill="none" xmlns="http://www.w3.org/2000/svg">
<rect x="0.5" y="0.499756" width="31" height="31" rx="7.5" fill="#EDF5FF"/>
<rect x="0.5" y="0.499756" width="31" height="31" rx="7.5" stroke="#4A90EB"/>
<g clip-path="url(#clip0_600_3588)">
<path d="M21.333 13.7335L15.7463 19.3201C15.553 19.5135 15.2997 19.6335 15.0263 19.6601L13.073 19.8401H12.9997C12.7797 19.8401 12.5663 19.7535 12.413 19.5935C12.2397 19.4201 12.153 19.1735 12.173 18.9268L12.353 16.9735C12.3797 16.7001 12.4997 16.4468 12.693 16.2535L18.2663 10.6668L21.333 13.7335ZM22.6263 9.84679L22.153 9.37345C21.8085 9.03075 21.3423 8.83838 20.8563 8.83838C20.3704 8.83838 19.9042 9.03075 19.5597 9.37345L18.973 9.96012L22.0397 13.0268L22.6263 12.4401C22.7971 12.2708 22.9327 12.0693 23.0252 11.8474C23.1177 11.6254 23.1653 11.3873 23.1653 11.1468C23.1653 10.9063 23.1177 10.6682 23.0252 10.4462C22.9327 10.2242 22.7971 10.0228 22.6263 9.85345V9.84679ZM21.833 20.6735V16.8001C21.833 16.5268 21.6063 16.3001 21.333 16.3001C21.0597 16.3001 20.833 16.5268 20.833 16.8001V20.6735C20.833 21.5001 20.1597 22.1735 19.333 22.1735H11.333C10.5063 22.1735 9.83301 21.5001 9.83301 20.6735V12.6668C9.83301 11.8401 10.5063 11.1668 11.333 11.1668H15.2063C15.4797 11.1668 15.7063 10.9401 15.7063 10.6668C15.7063 10.3935 15.4797 10.1668 15.2063 10.1668H11.333C9.95301 10.1668 8.83301 11.2868 8.83301 12.6668V20.6668C8.83301 22.0468 9.95301 23.1668 11.333 23.1668H19.333C20.713 23.1668 21.833 22.0468 21.833 20.6668V20.6735Z" fill="#4A90EB"/>
</g>
<defs>
<clipPath id="clip0_600_3588">
<rect width="16" height="16" fill="white" transform="translate(8 7.99976)"/>
</clipPath>
</defs>
</svg>
