<svg width="18" height="18" viewBox="0 0 18 18" fill="none" xmlns="http://www.w3.org/2000/svg">
<g clip-path="url(#clip0_394_11451)">
<path d="M13.8955 6.17578C13.9215 6.87473 14.9245 6.8742 14.9502 6.17578V4.00158L13.8955 4.38707V6.17578ZM3.3967 3.00518L8.81741 4.98782C8.93434 5.03059 9.06264 5.03062 9.17959 4.98789L14.6039 3.00525C15.0627 2.83808 15.0625 2.18172 14.6039 2.01466L9.18141 0.0320891C9.06449 -0.0106964 8.93619 -0.0106964 8.81927 0.0320891L3.39677 2.01466C2.93805 2.18179 2.93823 2.83812 3.3967 3.00518ZM5.36661 11.5041C5.36661 10.5178 4.56417 9.71531 3.57786 9.71531C1.20808 9.80524 1.20875 13.2032 3.57789 13.2928C4.56417 13.2928 5.36661 12.4904 5.36661 11.5041ZM16.2116 11.5041C16.2116 10.5178 15.4092 9.71531 14.4229 9.71531C12.0531 9.80524 12.0538 13.2032 14.4229 13.2928C15.4092 13.2928 16.2116 12.4904 16.2116 11.5041ZM7.21161 11.5041C7.21161 12.4904 8.01405 13.2928 9.00036 13.2928C11.3701 13.2029 11.3695 9.80489 9.00032 9.71531C8.01405 9.71531 7.21161 10.5178 7.21161 11.5041ZM14.4229 13.2928C13.7166 13.2928 13.0575 13.4986 12.5023 13.8532C13.2041 14.6644 13.6289 15.7189 13.6289 16.8703V18H17.473C17.7642 18 18.0004 17.7639 18.0004 17.4726V16.8703C18.0004 14.8977 16.3955 13.2928 14.4229 13.2928Z" fill="white"/>
<path d="M8.97001 13.2927C6.98284 13.2927 5.36614 14.8975 5.36614 16.8702V17.9999H12.5739V16.8702C12.5739 14.8975 10.9572 13.2927 8.97001 13.2927ZM3.5775 13.2927C1.60485 13.2927 0 14.8975 0 16.8702V17.4725C0 17.7638 0.236109 17.9999 0.527344 17.9999H4.31146V16.8702C4.31146 15.7073 4.74479 14.6432 5.45917 13.8288C4.91217 13.4892 4.26737 13.2927 3.5775 13.2927ZM12.3516 6.83741V4.95117L9.5413 5.97833C9.19311 6.10648 8.80228 6.10648 8.45438 5.97802L5.64845 4.95177V6.83797C5.64845 6.94605 5.68166 7.05152 5.74358 7.14011C5.80551 7.22869 5.89316 7.2961 5.99467 7.33322L8.81708 8.36548C8.93401 8.40822 9.06229 8.40823 9.17923 8.36551L12.0052 7.33273C12.1068 7.29561 12.1944 7.22819 12.2564 7.1396C12.3183 7.051 12.3515 6.94551 12.3516 6.83741Z" fill="white"/>
</g>
<defs>
<clipPath id="clip0_394_11451">
<rect width="18" height="18" fill="white"/>
</clipPath>
</defs>
</svg>
