<svg width="25" height="24" viewBox="0 0 25 24" fill="none" xmlns="http://www.w3.org/2000/svg">
<path fill-rule="evenodd" clip-rule="evenodd" d="M13.0919 4.21675C12.9966 4.21675 12.9023 4.23551 12.8143 4.27196C12.7263 4.30842 12.6463 4.36185 12.579 4.4292C12.5116 4.49656 12.4582 4.57653 12.4217 4.66453C12.3853 4.75254 12.3665 4.84686 12.3665 4.94212V12.5C12.3665 12.836 12.0942 13.1084 11.7582 13.1084C11.4222 13.1084 11.1498 12.836 11.1498 12.5V6.72044C11.1498 6.52806 11.0734 6.34356 10.9373 6.20753C10.8013 6.0715 10.6168 5.99507 10.4244 5.99507C10.232 5.99507 10.0475 6.0715 9.9115 6.20753C9.77546 6.34356 9.69904 6.52806 9.69904 6.72044L9.69904 13.3892C9.69904 13.6352 9.55082 13.8571 9.32348 13.9512C9.09615 14.0454 8.83448 13.9933 8.66048 13.8193L7.35366 12.5125C7.18782 12.347 6.9712 12.2413 6.73862 12.2128C6.50592 12.1842 6.27035 12.2342 6.06932 12.3548C5.9073 12.4519 5.78938 12.6086 5.74097 12.7912C5.69256 12.9738 5.71731 13.1681 5.80994 13.3327C7.48735 16.3144 8.44775 17.9875 8.71128 18.3921C8.76857 18.4803 8.82649 18.5689 8.88424 18.6568C9.31473 19.3103 9.90074 19.8467 10.5897 20.2179C11.2784 20.5889 12.0483 20.7831 12.8306 20.7833C12.8311 20.7833 12.8316 20.7833 12.8322 20.7833H14.4256C15.6792 20.7833 16.8814 20.2853 17.7679 19.3989C18.6543 18.5125 19.1522 17.3102 19.1522 16.0567V8.49877C19.1522 8.30639 19.0758 8.12189 18.9398 7.98586C18.8038 7.84982 18.6193 7.7734 18.4269 7.7734C18.2345 7.7734 18.05 7.84982 17.914 7.98586C17.7785 8.1213 17.7022 8.30479 17.7015 8.49626C17.7015 8.4971 17.7015 8.49793 17.7015 8.49877V12.5C17.7015 12.836 17.4291 13.1084 17.0931 13.1084C16.7571 13.1084 16.4848 12.836 16.4848 12.5V8.49877C16.4848 8.4974 16.4848 8.49603 16.4848 8.49466L16.4848 6.72044C16.4848 6.52806 16.4083 6.34356 16.2723 6.20753C16.1363 6.0715 15.9518 5.99507 15.7594 5.99507C15.567 5.99507 15.3825 6.0715 15.2465 6.20753C15.1216 6.33243 15.0469 6.49821 15.0355 6.6734C15.0366 6.65674 15.0366 6.68537 15.0364 6.77652C15.0363 6.80629 15.0362 6.84271 15.0362 6.88641L15.0343 9.70146L15.0342 9.72802L15.0342 9.73086L15.034 9.73923C15.034 9.73926 15.034 9.73919 15.034 9.73923L15.034 12.5C15.034 12.836 14.7616 13.1084 14.4256 13.1084C14.0896 13.1084 13.8173 12.836 13.8173 12.5V4.94212C13.8173 4.84686 13.7985 4.75254 13.7621 4.66453C13.7256 4.57653 13.6722 4.49656 13.6048 4.4292C13.5375 4.36185 13.4575 4.30842 13.3695 4.27196C13.2815 4.23551 13.1872 4.21675 13.0919 4.21675ZM15.0342 9.71933C15.0342 9.72076 15.0342 9.7206 15.0342 9.71933V9.71933ZM15.0339 4.91893C15.0309 4.67178 14.9808 4.42739 14.8862 4.1989C14.7886 3.96327 14.6455 3.74918 14.4652 3.56883C14.2848 3.38849 14.0707 3.24544 13.8351 3.14783C13.5995 3.05023 13.3469 3 13.0919 3C12.8369 3 12.5843 3.05023 12.3487 3.14783C12.1131 3.24544 11.899 3.38849 11.7186 3.56883C11.5383 3.74918 11.3952 3.96327 11.2976 4.1989C11.203 4.42739 11.1529 4.67178 11.1499 4.91893C10.9215 4.82693 10.6755 4.77833 10.4244 4.77833C9.90933 4.77833 9.41534 4.98294 9.05113 5.34716C8.68691 5.71138 8.48229 6.20536 8.48229 6.72044L8.48229 11.9204L8.21378 11.6519C7.85601 11.2945 7.38884 11.0667 6.88693 11.0051C6.38509 10.9435 5.87705 11.0512 5.44348 11.3113M15.0339 4.91893C15.2623 4.82693 15.5083 4.77833 15.7594 4.77833C16.2745 4.77833 16.7685 4.98294 17.1327 5.34716C17.4914 5.70591 17.6953 6.19055 17.7014 6.69725C17.9298 6.60526 18.1758 6.55665 18.4269 6.55665C18.942 6.55665 19.4359 6.76127 19.8002 7.12548C20.1644 7.4897 20.369 7.98369 20.369 8.49877V16.0567C20.369 17.6329 19.7428 19.1446 18.6282 20.2592C17.5136 21.3738 16.0019 22 14.4256 22H12.8324C12.8323 22 12.8324 22 12.8324 22H12.6473C12.6177 22 12.5887 21.9979 12.5602 21.9938C11.6701 21.9532 10.7992 21.7128 10.0126 21.2891C9.14608 20.8223 8.40904 20.1475 7.86769 19.3255C7.8088 19.2359 7.74977 19.1455 7.69134 19.0556C7.39954 18.6074 6.41281 16.8859 4.7495 13.9293C4.50149 13.4885 4.43524 12.9683 4.56484 12.4794C4.69443 11.9906 5.00977 11.5714 5.44348 11.3113" fill="#EFF0FA"/>
</svg>
