<svg width="24" height="24" viewBox="0 0 24 24" fill="none" xmlns="http://www.w3.org/2000/svg">
<path d="M9.5 17.5C9.36739 17.5 9.24021 17.5527 9.14645 17.6464C9.05268 17.7402 9 17.8674 9 18C9 18.1326 9.05268 18.2598 9.14645 18.3536C9.24021 18.4473 9.36739 18.5 9.5 18.5H14.5C14.6326 18.5 14.7598 18.4473 14.8536 18.3536C14.9473 18.2598 15 18.1326 15 18C15 17.8674 14.9473 17.7402 14.8536 17.6464C14.7598 17.5527 14.6326 17.5 14.5 17.5H9.5Z" fill="#B7B7B7"/>
<path d="M12 1.64697C12.8265 1.64697 13.6287 1.92581 14.2773 2.43799L20.7773 7.56982C21.213 7.91381 21.5656 8.35157 21.8076 8.85107C22.0496 9.35055 22.1748 9.8986 22.1748 10.4536V18.4995C22.1748 19.4741 21.7877 20.409 21.0986 21.0981C20.4094 21.7873 19.4747 22.1753 18.5 22.1753H5.5C4.52533 22.1753 3.59056 21.7873 2.90137 21.0981C2.21229 20.409 1.8252 19.4741 1.8252 18.4995V10.4536C1.82522 9.8986 1.95037 9.35055 2.19238 8.85107C2.43442 8.35157 2.78704 7.91381 3.22266 7.56982L9.72266 2.43799C10.3713 1.92581 11.1735 1.64697 12 1.64697ZM12 2.99756C11.4772 2.99756 10.9699 3.17366 10.5596 3.49756L4.05859 8.62939C3.78316 8.84706 3.56023 9.12398 3.40723 9.43994C3.25425 9.75589 3.17477 10.1026 3.1748 10.4536V18.4995C3.1748 19.1161 3.42042 19.708 3.85645 20.144C4.29244 20.5799 4.88351 20.8247 5.5 20.8247H18.5C19.1165 20.8247 19.7076 20.5799 20.1436 20.144C20.5796 19.708 20.8252 19.1161 20.8252 18.4995V10.4536C20.8251 10.1025 20.7449 9.75588 20.5918 9.43994C20.4386 9.12403 20.216 8.84693 19.9404 8.62939L13.4404 3.49756C13.0301 3.17366 12.5228 2.99756 12 2.99756Z" fill="#B7B7B7" stroke="#B7B7B7" stroke-width="0.35"/>
</svg>
