<svg width="20" height="19" viewBox="0 0 20 19" fill="none" xmlns="http://www.w3.org/2000/svg">
<path fill-rule="evenodd" clip-rule="evenodd" d="M9.99988 3.54608C10.3934 2.73503 11.0073 2.05111 11.7712 1.57253C12.5352 1.09396 13.4184 0.840047 14.3199 0.839844C16.9695 0.839844 19.1199 2.99024 19.1199 5.63984C19.1199 8.44112 17.6952 11.0101 15.9663 13.075C13.4261 16.1096 10.2504 18.0498 10.2504 18.0498C10.1748 18.0954 10.0882 18.1195 9.99988 18.1195C9.91157 18.1195 9.82493 18.0954 9.74932 18.0498C9.74932 18.0498 6.57364 16.1096 4.03348 13.075C2.30452 11.0101 0.879883 8.44112 0.879883 5.63984C0.879883 2.99024 3.03028 0.839844 5.67988 0.839844C6.58136 0.840047 7.46459 1.09396 8.22855 1.57253C8.99251 2.05111 9.60635 2.73503 9.99988 3.54608ZM14.3199 4.19984C14.7018 4.19984 15.0681 4.35156 15.3381 4.62161C15.6082 4.89166 15.7599 5.25793 15.7599 5.63984C15.7599 5.76715 15.8105 5.88924 15.9005 5.97926C15.9905 6.06927 16.1126 6.11984 16.2399 6.11984C16.3672 6.11984 16.4893 6.06927 16.5793 5.97926C16.6693 5.88924 16.7199 5.76715 16.7199 5.63984C16.7199 5.00332 16.467 4.39287 16.0169 3.94279C15.5669 3.4927 14.9564 3.23984 14.3199 3.23984C14.1926 3.23984 14.0705 3.29042 13.9805 3.38043C13.8905 3.47045 13.8399 3.59254 13.8399 3.71984C13.8399 3.84715 13.8905 3.96924 13.9805 4.05926C14.0705 4.14927 14.1926 4.19984 14.3199 4.19984Z" fill="#4A90EB"/>
</svg>
