<svg width="22" height="20" viewBox="0 0 22 20" fill="none" xmlns="http://www.w3.org/2000/svg">
<path fill-rule="evenodd" clip-rule="evenodd" d="M10.0665 3.08637C10.3697 3.23207 10.5625 3.53865 10.5625 3.87501V16.125C10.5625 16.4613 10.3697 16.7679 10.0665 16.9136C9.76337 17.0593 9.40353 17.0184 9.14088 16.8083L5.00556 13.5H1.8125C1.32925 13.5 0.9375 13.1082 0.9375 12.625V7.375C0.9375 6.89175 1.32925 6.5 1.8125 6.5H5.00556L9.14088 3.19175C9.40353 2.98163 9.76337 2.94066 10.0665 3.08637ZM8.81249 5.69555L5.8591 8.05826C5.70395 8.18238 5.51118 8.25 5.31249 8.25H2.6875V11.75H5.31249C5.51118 11.75 5.70395 11.8176 5.8591 11.9417L8.81249 14.3044V5.69555Z" fill="#4A90EB"/>
<path d="M20.8062 6.7563C21.1479 7.09801 21.1479 7.65203 20.8062 7.99373L18.7999 10L20.8062 12.0063C21.1479 12.348 21.1479 12.902 20.8062 13.2437C20.4645 13.5854 19.9105 13.5854 19.5688 13.2437L17.5625 11.2374L15.5562 13.2437C15.2145 13.5854 14.6605 13.5854 14.3188 13.2437C13.9771 12.902 13.9771 12.348 14.3188 12.0063L16.3251 10L14.3188 7.99373C13.9771 7.65203 13.9771 7.09801 14.3188 6.7563C14.6605 6.41459 15.2145 6.41459 15.5562 6.7563L17.5625 8.76258L19.5688 6.7563C19.9105 6.41459 20.4645 6.41459 20.8062 6.7563Z" fill="#4A90EB"/>
</svg>
