<svg width="43" height="31" viewBox="0 0 43 31" fill="none" xmlns="http://www.w3.org/2000/svg">
<path d="M9.3505 3.42595C10.0961 2.68015 10.0959 1.47115 9.3501 0.725568C8.60429 -0.0200101 7.39529 -0.0198276 6.64971 0.725976C2.71205 4.66482 0.5 10.0063 0.5 15.5759C0.5 21.1454 2.71205 26.4869 6.64971 30.4257C7.39529 31.1715 8.60429 31.1717 9.3501 30.4261C10.0959 29.6806 10.0961 28.4716 9.3505 27.7258C6.12878 24.5031 4.31892 20.1327 4.31892 15.5759C4.31892 11.019 6.12878 6.64865 9.3505 3.42595Z" fill="#EFF0FA"/>
<path d="M36.3503 0.725976C35.6047 -0.0198276 34.3957 -0.0200101 33.6499 0.725568C32.9041 1.47115 32.9039 2.68015 33.6495 3.42595C36.8712 6.64865 38.6811 11.019 38.6811 15.5759C38.6811 20.1327 36.8712 24.5031 33.6495 27.7258C32.9039 28.4716 32.9041 29.6806 33.6499 30.4261C34.3957 31.1717 35.6047 31.1715 36.3503 30.4257C40.2879 26.4869 42.5 21.1454 42.5 15.5759C42.5 10.0063 40.2879 4.66482 36.3503 0.725976Z" fill="#EFF0FA"/>
<path d="M14.7533 8.81159C15.4994 8.06631 15.5001 6.85731 14.7548 6.1112C14.0096 5.3651 12.8005 5.36443 12.0544 6.1097C10.8117 7.35107 9.82582 8.82521 9.15317 10.4478C8.48053 12.0705 8.1343 13.8098 8.1343 15.5663C8.1343 17.3228 8.48053 19.0621 9.15317 20.6848C9.82582 22.3074 10.8117 23.7816 12.0544 25.0229C12.8005 25.7682 14.0096 25.7675 14.7548 25.0214C15.5001 24.2753 15.4994 23.0663 14.7533 22.321C13.8657 21.4343 13.1615 20.3814 12.681 19.2224C12.2005 18.0633 11.9532 16.821 11.9532 15.5663C11.9532 14.3116 12.2005 13.0693 12.681 11.9103C13.1615 10.7512 13.8657 9.69828 14.7533 8.81159Z" fill="#EFF0FA"/>
<path d="M30.9456 6.1288C30.1995 5.38352 28.9904 5.38419 28.2452 6.1303C27.4999 6.87641 27.5006 8.08541 28.2467 8.83069C29.1343 9.71737 29.8386 10.7703 30.319 11.9294C30.7995 13.0884 31.0468 14.3307 31.0468 15.5854C31.0468 16.8401 30.7995 18.0824 30.319 19.2415C29.8386 20.4005 29.1343 21.4534 28.2467 22.3401C27.5006 23.0854 27.4999 24.2944 28.2452 25.0405C28.9904 25.7866 30.1995 25.7873 30.9456 25.042C32.1883 23.8007 33.1742 22.3265 33.8468 20.7039C34.5195 19.0812 34.8657 17.3419 34.8657 15.5854C34.8657 13.8289 34.5195 12.0896 33.8468 10.4669C33.1742 8.8443 32.1883 7.37016 30.9456 6.1288Z" fill="#EFF0FA"/>
<path fill-rule="evenodd" clip-rule="evenodd" d="M21.5 9.84754C18.3363 9.84754 15.7716 12.4122 15.7716 15.5759C15.7716 18.7396 18.3363 21.3043 21.5 21.3043C24.6637 21.3043 27.2283 18.7396 27.2283 15.5759C27.2283 12.4122 24.6637 9.84754 21.5 9.84754ZM19.5905 15.5759C19.5905 14.5214 20.4454 13.6665 21.5 13.6665C22.5545 13.6665 23.4094 14.5214 23.4094 15.5759C23.4094 16.6305 22.5545 17.4854 21.5 17.4854C20.4454 17.4854 19.5905 16.6305 19.5905 15.5759Z" fill="#EFF0FA"/>
</svg>
