<svg width="16" height="16" viewBox="0 0 16 16" fill="none" xmlns="http://www.w3.org/2000/svg">
<path fill-rule="evenodd" clip-rule="evenodd" d="M1.49457 1.49603C1.71128 1.27932 2.06135 1.27932 2.27806 1.49603L6.67882 5.89679C6.6962 5.9105 6.71296 5.92539 6.729 5.94143L9.57404 8.78647C9.58992 8.80235 9.60464 8.81895 9.61819 8.83616L11.0464 10.2643C11.0882 10.288 11.1275 10.3177 11.1632 10.3535C11.1995 10.3897 11.2299 10.4297 11.2543 10.4722L14.5028 13.7208C14.7195 13.9375 14.7195 14.2876 14.5028 14.5043C14.2861 14.721 13.936 14.721 13.7193 14.5043L10.7377 11.5226C10.1961 11.9475 9.56262 12.2427 8.88499 12.3817C8.77617 12.404 8.66682 12.4222 8.55716 12.4363V13.5541H10.2242C10.5298 13.5541 10.7798 13.8041 10.7798 14.1097C10.7798 14.4153 10.5298 14.6654 10.2242 14.6654H8.01073C8.00765 14.6654 8.00457 14.6655 8.00149 14.6655C7.9984 14.6655 7.99532 14.6654 7.99225 14.6654H5.77878C5.47316 14.6654 5.22311 14.4209 5.22311 14.1097C5.22311 13.8041 5.47316 13.5541 5.77878 13.5541H7.44582V12.4393C7.05337 12.391 6.66655 12.2901 6.29557 12.1372C5.47873 11.7982 4.77858 11.2259 4.28959 10.4868C3.80616 9.74777 3.55055 8.88093 3.55611 7.99741V6.88607C3.55611 6.58045 3.80616 6.3304 4.11178 6.3304C4.4174 6.3304 4.66745 6.58045 4.66745 6.88607V8.00297C4.66189 8.66977 4.85638 9.31991 5.22312 9.87002C5.58986 10.4201 6.11775 10.8536 6.72899 11.1092C7.08401 11.2563 7.45745 11.339 7.83446 11.3572C7.88723 11.3405 7.94335 11.3314 8.00149 11.3314C8.05896 11.3314 8.11447 11.3403 8.16673 11.3567C8.3345 11.348 8.50212 11.3266 8.66828 11.2925C9.13142 11.1975 9.56636 11.0067 9.94699 10.732L9.12917 9.91413C8.91583 10.0393 8.68167 10.1282 8.43491 10.1756C8.29043 10.209 8.14596 10.2201 8.00149 10.2201C7.71254 10.2201 7.42359 10.1645 7.15131 10.0478C6.74567 9.88114 6.40115 9.59775 6.15666 9.23101C5.90661 8.86982 5.7788 8.44195 5.7788 8.00297V6.56376L1.49457 2.27953C1.27785 2.06281 1.27785 1.71274 1.49457 1.49603ZM8.28583 9.07079L6.89576 7.68072L6.89014 7.67513V7.99742C6.89014 8.21968 6.95682 8.43084 7.07907 8.61421C7.20132 8.79758 7.37358 8.9365 7.57918 9.02541C7.77922 9.10876 8.00149 9.13098 8.2182 9.08653C8.23918 9.08128 8.26017 9.07604 8.28583 9.07079Z" fill="white"/>
<path d="M9.6685 7.075C9.36288 7.075 9.11283 6.82495 9.11283 6.51933V3.55205C9.11283 3.27421 9.01281 3.01304 8.82388 2.80745C8.64051 2.60185 8.3849 2.47404 8.11262 2.44626C7.84034 2.41848 7.56251 2.49071 7.34024 2.65741C7.11797 2.81856 6.96794 3.06305 6.91237 3.32978C6.85125 3.62984 6.55674 3.82432 6.25668 3.7632C5.95661 3.70208 5.76213 3.41313 5.82325 3.11307C5.93439 2.57406 6.24001 2.09619 6.68455 1.76834C7.12908 1.44049 7.6792 1.29046 8.22931 1.34603C8.77943 1.4016 9.28509 1.65721 9.65739 2.0684C10.0186 2.47404 10.2242 3.00193 10.2242 3.5576V6.52489C10.2242 6.83051 9.97412 7.075 9.6685 7.075Z" fill="white"/>
<path d="M12.4468 6.88607C12.4468 6.58045 12.1968 6.3304 11.8912 6.3304C11.5856 6.3304 11.3355 6.58045 11.3355 6.88607V7.99741C11.3355 8.19745 11.3188 8.39194 11.2799 8.58642C11.2244 8.88648 11.43 9.17543 11.73 9.231C12.0301 9.28657 12.319 9.08097 12.3746 8.78091C12.4246 8.51974 12.4468 8.25857 12.4468 7.99741V6.88607Z" fill="white"/>
</svg>
