<svg width="40" height="40" viewBox="0 0 40 40" fill="none" xmlns="http://www.w3.org/2000/svg">
<path d="M8 0.5H32C36.1421 0.5 39.5 3.85786 39.5 8V32C39.5 36.1421 36.1421 39.5 32 39.5H8C3.85786 39.5 0.5 36.1421 0.5 32V8C0.5 3.85786 3.85786 0.5 8 0.5Z" fill="#4A90EB"/>
<path d="M8 0.5H32C36.1421 0.5 39.5 3.85786 39.5 8V32C39.5 36.1421 36.1421 39.5 32 39.5H8C3.85786 39.5 0.5 36.1421 0.5 32V8C0.5 3.85786 3.85786 0.5 8 0.5Z" stroke="#4A90EB"/>
<path d="M11.2324 11.2319C11.5416 10.9227 12.0424 10.9227 12.3516 11.2319L15.5107 14.391C15.5132 14.3935 15.5161 14.3954 15.5186 14.3979L19.9775 18.8578L29.7686 28.6479C30.0777 28.957 30.0777 29.4588 29.7686 29.768C29.4594 30.0772 28.9576 30.0772 28.6484 29.768L24.2676 25.3871C24.1496 25.6645 23.98 25.9199 23.7627 26.1371C23.3174 26.5824 22.7137 26.8333 22.084 26.8334H13.375C12.7452 26.8333 12.1416 26.5824 11.6963 26.1371C11.251 25.6918 11.0001 25.0882 11 24.4584V16.5414C11 15.9115 11.2509 15.3071 11.6963 14.8617C12.0688 14.4893 12.5526 14.2551 13.0693 14.1879L11.2324 12.351C10.9233 12.0418 10.9233 11.541 11.2324 11.2319ZM13.375 15.7494C13.1652 15.7495 12.9638 15.8335 12.8154 15.9819C12.6671 16.1303 12.584 16.3316 12.584 16.5414V24.4584C12.5841 24.6683 12.6671 24.8696 12.8154 25.018C12.9638 25.1664 13.1652 25.2493 13.375 25.2494H22.084C22.2938 25.2494 22.4952 25.1664 22.6436 25.018C22.7919 24.8696 22.8749 24.6683 22.875 24.4584V23.9946L14.6309 15.7494H13.375ZM22.084 14.1664C22.7136 14.1665 23.3174 14.4166 23.7627 14.8617C24.2081 15.3071 24.459 15.9115 24.459 16.5414V18.8578L24.541 18.9399L28.7451 15.8998C28.9859 15.7258 29.3037 15.7013 29.5684 15.8364C29.8332 15.9716 30 16.244 30 16.5414V24.4584C29.9998 24.8954 29.6459 25.2493 29.209 25.2494C28.7719 25.2494 28.4172 24.8955 28.417 24.4584V18.0912L24.9229 20.6186C24.6078 20.8464 24.1733 20.8115 23.8984 20.5366L23.1074 19.7455C22.9591 19.5972 22.8751 19.3958 22.875 19.186V16.5414C22.875 16.3316 22.7919 16.1303 22.6436 15.9819C22.4952 15.8335 22.2938 15.7495 22.084 15.7494H19.4395C19.0024 15.7494 18.6477 15.3955 18.6475 14.9584C18.6475 14.5212 19.0023 14.1665 19.4395 14.1664H22.084Z" fill="#EFF0FA"/>
</svg>
