<svg width="19" height="20" viewBox="0 0 19 20" fill="none" xmlns="http://www.w3.org/2000/svg">
<path d="M4.47606 0.624716C3.32349 0.625969 2.21861 1.08495 1.40439 1.90071C0.590179 2.71648 0.133305 3.82223 0.134245 4.9748L0.125977 10.9867C0.125434 12.0829 0.54091 13.1385 1.28849 13.9402C2.03607 14.742 3.06005 15.2301 4.15362 15.3061V19.0621C4.15379 19.1239 4.17225 19.1842 4.20665 19.2355C4.24106 19.2868 4.28987 19.3268 4.34696 19.3504C4.40404 19.374 4.46683 19.3802 4.52743 19.3682C4.58802 19.3562 4.64371 19.3265 4.68748 19.283L8.62418 15.338H14.5357C15.1064 15.3377 15.6715 15.2249 16.1986 15.0061C16.7257 14.7872 17.2045 14.4666 17.6077 14.0626C18.0108 13.6586 18.3303 13.1791 18.548 12.6515C18.7657 12.124 18.8773 11.5586 18.8763 10.9879V4.97598C18.8787 4.40555 18.7684 3.84026 18.5518 3.31253C18.3352 2.7848 18.0166 2.30501 17.6143 1.90066C17.2119 1.49631 16.7337 1.17536 16.207 0.956202C15.6803 0.737046 15.1156 0.623997 14.5452 0.623535L4.47606 0.624716ZM6.37413 7.04413C6.8891 7.04413 7.31194 7.46816 7.31194 7.98195C7.31194 8.49574 6.8891 8.91976 6.37413 8.91976C5.85916 8.91976 5.4375 8.49574 5.4375 7.98195C5.4375 7.46816 5.86034 7.04413 6.37413 7.04413ZM9.49939 7.04413C10.0132 7.04413 10.436 7.46816 10.436 7.98195C10.4348 8.23008 10.3357 8.46772 10.1604 8.6433C9.98504 8.81887 9.74753 8.91821 9.49939 8.91976C9.25105 8.91852 9.01323 8.81931 8.83763 8.64371C8.66202 8.4681 8.56282 8.23029 8.56158 7.98195C8.56158 7.46816 8.98442 7.04413 9.49939 7.04413ZM12.6246 7.04413C13.1384 7.04413 13.5625 7.46816 13.5625 7.98195C13.5612 8.23029 13.462 8.4681 13.2864 8.64371C13.1108 8.81931 12.873 8.91852 12.6246 8.91976C12.3763 8.91852 12.1385 8.81931 11.9629 8.64371C11.7873 8.4681 11.6881 8.23029 11.6868 7.98195C11.6868 7.46816 12.1109 7.04413 12.6246 7.04413Z" fill="white"/>
</svg>
