<svg width="10" height="13" viewBox="0 0 10 13" fill="none" xmlns="http://www.w3.org/2000/svg">
<path d="M4.96667 9.1665V11.9998M1 9.1665H8.93333V8.16917C8.93322 7.95832 8.87429 7.75169 8.76317 7.5725C8.65206 7.39331 8.49315 7.24866 8.30433 7.15484L7.29567 6.64484C7.10685 6.55101 6.94794 6.40637 6.83683 6.22718C6.72571 6.04799 6.66678 5.84135 6.66667 5.6305V2.93317H7.23333C7.53391 2.93317 7.82218 2.81377 8.03472 2.60122C8.24726 2.38868 8.36667 2.10042 8.36667 1.79984C8.36667 1.49926 8.24726 1.21099 8.03472 0.998449C7.82218 0.785908 7.53391 0.666504 7.23333 0.666504H2.7C2.39942 0.666504 2.11115 0.785908 1.89861 0.998449C1.68607 1.21099 1.56667 1.49926 1.56667 1.79984C1.56667 2.10042 1.68607 2.38868 1.89861 2.60122C2.11115 2.81377 2.39942 2.93317 2.7 2.93317H3.26667V5.6305C3.26655 5.84135 3.20763 6.04799 3.09651 6.22718C2.98539 6.40637 2.82649 6.55101 2.63767 6.64484L1.629 7.15484C1.44018 7.24866 1.28128 7.39331 1.17016 7.5725C1.05904 7.75169 1.00011 7.95832 1 8.16917V9.1665Z" stroke="white" stroke-width="1.25" stroke-linecap="round" stroke-linejoin="round"/>
</svg>
