<svg width="18" height="18" viewBox="0 0 18 18" fill="none" xmlns="http://www.w3.org/2000/svg">
<path fill-rule="evenodd" clip-rule="evenodd" d="M14.1748 10.7163H10.2322C10.5575 9.74003 10.7304 8.91836 10.7589 8.21777C10.8262 6.56497 10.0458 5.91082 9.3793 5.65273C9.35143 5.64178 9.32242 5.634 9.29282 5.62953C8.77641 5.54793 8.59254 5.7909 8.47072 6.06547L8.45473 6.10147C8.43688 6.14091 8.42522 6.18286 8.42017 6.22585C8.25536 7.6358 7.65329 8.95879 6.69843 10.0092V17.8859C6.80494 17.925 6.91374 17.9574 7.02422 17.9832C7.05413 17.9902 7.08472 17.994 7.11545 17.9944C7.4455 17.998 7.8389 17.9997 8.29262 17.9997C8.74522 17.9997 9.2577 17.9979 9.82642 17.9944H13.5406C13.7578 17.9945 13.9711 17.9368 14.1586 17.8274C14.3462 17.7179 14.5013 17.5606 14.6082 17.3715C14.715 17.1825 14.7697 16.9684 14.7666 16.7512C14.7635 16.5341 14.7028 16.3217 14.5907 16.1357C14.8386 15.9479 15.0058 15.6728 15.0582 15.3663C15.1107 15.0597 15.0445 14.7447 14.8732 14.4852C15.1137 14.2812 15.2663 13.9922 15.2991 13.6785C15.3319 13.3648 15.2424 13.0506 15.0493 12.8012C15.2187 12.629 15.3334 12.4105 15.379 12.1733C15.4246 11.9361 15.3991 11.6906 15.3056 11.4679C15.2122 11.2451 15.055 11.0549 14.8538 10.9212C14.6526 10.7875 14.4164 10.7163 14.1748 10.7164V10.7163ZM5.87415 3.645C5.84919 3.56806 5.80265 3.49992 5.74008 3.44867C5.6775 3.39742 5.60153 3.36522 5.52118 3.35591L4.36947 3.2234L3.88782 2.1697C3.85435 2.096 3.80037 2.0335 3.73232 1.98967C3.66427 1.94584 3.58504 1.92253 3.50409 1.92253C3.42315 1.92253 3.34392 1.94584 3.27587 1.98967C3.20782 2.0335 3.15384 2.096 3.12036 2.1697L2.63872 3.2234L1.48704 3.35591C1.40669 3.36513 1.33069 3.39725 1.26808 3.44845C1.20548 3.49965 1.15891 3.56777 1.13392 3.64468C1.10893 3.7216 1.10658 3.80408 1.12715 3.8823C1.14771 3.96052 1.19032 4.03117 1.24991 4.08586L2.10357 4.86984L1.87376 6.00598C1.85788 6.0852 1.86507 6.16731 1.89445 6.24257C1.92384 6.31782 1.9742 6.38307 2.03955 6.43057C2.10491 6.47807 2.18252 6.50582 2.26317 6.51054C2.34382 6.51525 2.42414 6.49674 2.49458 6.45718L3.50399 5.88726L4.51361 6.45718C4.58403 6.49692 4.66439 6.51559 4.74512 6.51096C4.82585 6.50632 4.90355 6.47859 4.96896 6.43105C5.03438 6.38351 5.08475 6.31818 5.11409 6.24282C5.14342 6.16747 5.15048 6.08527 5.13443 6.00602L4.90461 4.86987L5.75828 4.08589C5.81781 4.03123 5.86037 3.96062 5.88091 3.88246C5.90145 3.8043 5.89909 3.72189 5.87412 3.64503L5.87415 3.645ZM16.8652 3.645C16.8902 3.72185 16.8925 3.80426 16.872 3.88242C16.8515 3.96058 16.8089 4.03119 16.7494 4.08586L15.8957 4.86984L16.1255 6.00598C16.1416 6.08523 16.1345 6.16742 16.1052 6.24277C16.0758 6.31812 16.0254 6.38345 15.96 6.43099C15.8946 6.47852 15.8169 6.50626 15.7362 6.5109C15.6555 6.51554 15.5751 6.49688 15.5047 6.45714L14.4953 5.88723L13.4858 6.45714C13.4154 6.49689 13.335 6.51555 13.2543 6.51092C13.1736 6.50629 13.0959 6.47855 13.0305 6.43102C12.9651 6.38348 12.9147 6.31814 12.8854 6.24279C12.856 6.16743 12.849 6.08524 12.865 6.00598L13.0948 4.86984L12.2412 4.08586C12.1816 4.03117 12.139 3.96052 12.1184 3.8823C12.0978 3.80408 12.1002 3.7216 12.1252 3.64468C12.1502 3.56777 12.1967 3.49965 12.2593 3.44845C12.3219 3.39725 12.3979 3.36513 12.4783 3.35591L13.6296 3.2234L14.1115 2.1697C14.1449 2.09601 14.1989 2.03351 14.267 1.98968C14.335 1.94585 14.4142 1.92254 14.4952 1.92254C14.5761 1.92254 14.6553 1.94585 14.7233 1.98968C14.7914 2.03351 14.8454 2.09601 14.8788 2.1697L15.3607 3.2234L16.5121 3.35591C16.5924 3.36521 16.6684 3.3974 16.731 3.44865C16.7936 3.4999 16.8401 3.56805 16.8651 3.645H16.8652ZM11.8394 2.06363C11.8143 1.98661 11.7678 1.91835 11.7053 1.86692C11.6427 1.81549 11.5667 1.78303 11.4863 1.77338L10.0036 1.60421L9.38328 0.245703C9.34943 0.172418 9.29531 0.110357 9.22731 0.0668585C9.15932 0.0233601 9.08028 0.000244141 8.99956 0.000244141C8.91884 0.000244141 8.83981 0.0233601 8.77181 0.0668585C8.70381 0.110357 8.64969 0.172418 8.61585 0.245703L7.99541 1.60411L6.5128 1.77328C6.43251 1.7827 6.3566 1.81495 6.29409 1.86622C6.23158 1.91748 6.18508 1.9856 6.16012 2.06249C6.13516 2.13939 6.13278 2.22183 6.15326 2.30003C6.17374 2.37824 6.21622 2.44893 6.27567 2.50372L7.37487 3.51348L7.07892 4.97598C7.06292 5.05521 7.07002 5.13738 7.09938 5.2127C7.12873 5.28802 7.17911 5.35332 7.24451 5.40083C7.30992 5.44833 7.3876 5.47605 7.4683 5.48068C7.54901 5.4853 7.62934 5.46665 7.69975 5.42693L8.99954 4.69374L10.2993 5.427C10.3697 5.46671 10.4501 5.48536 10.5308 5.48072C10.6115 5.47609 10.6891 5.44837 10.7545 5.40087C10.8199 5.35336 10.8703 5.28807 10.8997 5.21275C10.929 5.13744 10.9361 5.05528 10.9201 4.97605L10.6243 3.51355L11.7234 2.50372C11.7829 2.44919 11.8255 2.3787 11.8461 2.30066C11.8667 2.22261 11.8644 2.1403 11.8395 2.06353L11.8394 2.06363ZM5.85468 10.7926C5.78038 10.6745 5.67735 10.5771 5.55522 10.5096C5.43309 10.4421 5.29584 10.4067 5.1563 10.4066H2.24438C2.02548 10.4068 1.81559 10.4938 1.66078 10.6486C1.50598 10.8033 1.41889 11.0132 1.41863 11.2321V17.1738C1.41881 17.3928 1.50586 17.6027 1.66066 17.7576C1.81547 17.9125 2.02539 17.9997 2.24438 18H5.1563C5.29581 17.9999 5.43302 17.9645 5.55515 17.897C5.67727 17.8296 5.78032 17.7323 5.85468 17.6143V10.7926ZM2.48565 11.9562C2.48565 11.8444 2.5301 11.7371 2.60922 11.6579C2.68833 11.5788 2.79564 11.5344 2.90753 11.5344H3.21715C3.32904 11.5344 3.43634 11.5788 3.51546 11.6579C3.59458 11.7371 3.63902 11.8444 3.63902 11.9562C3.63902 12.0681 3.59458 12.1754 3.51546 12.2546C3.43634 12.3337 3.32904 12.3781 3.21715 12.3781H2.90756C2.85216 12.3781 2.7973 12.3672 2.74611 12.346C2.69492 12.3248 2.64841 12.2937 2.60923 12.2546C2.57005 12.2154 2.53897 12.1689 2.51777 12.1177C2.49657 12.0665 2.48565 12.0117 2.48565 11.9562Z" fill="white"/>
</svg>
