<svg width="25" height="24" viewBox="0 0 25 24" fill="none" xmlns="http://www.w3.org/2000/svg">
<path d="M11.2588 1.8584C12.2361 1.71515 13.2294 1.71412 14.207 1.85547C15.0881 1.98329 15.7281 2.7249 15.7266 3.61523C15.7255 4.27436 16.0797 4.88873 16.6494 5.21777C17.2193 5.54679 17.9287 5.54642 18.499 5.21582C19.2694 4.76923 20.232 4.95277 20.7832 5.65234C21.3944 6.4283 21.8903 7.28903 22.2549 8.20703C22.583 9.03278 22.2612 9.95691 21.4912 10.4004C20.9203 10.7292 20.5655 11.3425 20.5654 12C20.5654 12.6577 20.9201 13.2719 21.4912 13.6006C22.2633 14.0449 22.5848 14.9707 22.2539 15.7979C21.8873 16.713 21.3924 17.5716 20.7832 18.3467H20.7822C20.2312 19.0464 19.2687 19.2306 18.498 18.7842C17.9278 18.4541 17.2189 18.4534 16.6494 18.7822C16.08 19.111 15.7259 19.7251 15.7266 20.3838C15.7275 21.2725 15.0883 22.013 14.209 22.1416C13.8392 22.1956 13.4675 22.2297 13.0957 22.2432L12.7236 22.25C12.2342 22.25 11.7451 22.2146 11.2607 22.1445C10.3795 22.0168 9.73869 21.2752 9.74023 20.3848C9.74122 19.7257 9.388 19.1112 8.81836 18.7822C8.24847 18.4532 7.5392 18.4545 6.96875 18.7852C6.19829 19.2318 5.23581 19.047 4.68457 18.3477C4.07345 17.5718 3.57749 16.7118 3.21289 15.7939L3.15918 15.6377C2.92667 14.854 3.25446 14.0155 3.97656 13.5996C4.54739 13.2708 4.90234 12.6575 4.90234 12C4.90233 11.3422 4.5468 10.7281 3.97559 10.3994C3.20385 9.955 2.88213 9.02916 3.21289 8.20215C3.57943 7.28706 4.07541 6.42931 4.68457 5.6543V5.65332C5.2355 4.95341 6.19789 4.7695 6.96875 5.21582C7.53901 5.54616 8.24864 5.54661 8.81836 5.21777C9.38764 4.88894 9.74093 4.27488 9.74023 3.61621C9.7392 2.72745 10.3794 1.98699 11.2588 1.8584ZM14.042 2.98926C13.174 2.86387 12.2925 2.86405 11.4248 2.99121V2.99219C11.1114 3.038 10.8854 3.29857 10.8857 3.61523C10.8868 4.68267 10.3144 5.67664 9.39062 6.20996C8.46637 6.74354 7.31853 6.74226 6.39453 6.20703C6.11969 6.04795 5.78113 6.11286 5.58496 6.3623C5.31444 6.70641 5.06845 7.06917 4.84961 7.44824C4.63073 7.82732 4.43911 8.22158 4.27637 8.62793C4.15851 8.92258 4.27183 9.2488 4.54688 9.40723C5.47243 9.93983 6.04781 10.9329 6.04785 12C6.04785 13.0668 5.47296 14.06 4.54785 14.5928C4.27367 14.7508 4.16051 15.076 4.27734 15.3701C4.60109 16.1853 5.04128 16.9496 5.58398 17.6387C5.7803 17.8878 6.11896 17.9528 6.39355 17.7939L6.57031 17.6992C6.98718 17.4936 7.44162 17.3907 7.89551 17.3906C8.41201 17.3906 8.92916 17.5237 9.39062 17.79C10.3152 18.3238 10.8876 19.3193 10.8857 20.3877C10.8854 20.7048 11.1111 20.9652 11.4248 21.0107C12.293 21.1362 13.175 21.1359 14.043 21.0088C14.3563 20.963 14.5814 20.7015 14.5811 20.3848C14.5801 19.3174 15.1534 18.3233 16.0771 17.79C17.0012 17.2567 18.1484 17.258 19.0723 17.793C19.347 17.9522 19.6864 17.8873 19.8828 17.6377C20.1532 17.2937 20.3985 16.9307 20.6172 16.5518L20.7764 16.2646C20.9302 15.9748 21.0684 15.6768 21.1904 15.3721C21.3083 15.0773 21.1952 14.7511 20.9199 14.5928C19.9946 14.0601 19.4199 13.067 19.4199 12C19.42 10.9333 19.994 9.94006 20.9189 9.40723C21.1591 9.26893 21.2766 9.00279 21.2236 8.74121L21.1904 8.62988C20.8666 7.81458 20.4256 7.05049 19.8828 6.36133C19.6863 6.11222 19.3478 6.04685 19.0732 6.20605C18.1491 6.74176 17.0017 6.74366 16.0771 6.20996C15.1527 5.6762 14.5793 4.68154 14.5811 3.61328L14.5713 3.49707C14.5243 3.23375 14.3169 3.02908 14.042 2.98926ZM9.38574 10.0674C10.4518 8.22103 12.8207 7.5865 14.667 8.65234C16.5131 9.71839 17.1479 12.0872 16.082 13.9336C15.5659 14.8274 14.7314 15.4672 13.7344 15.7344C13.4063 15.8226 13.0682 15.8679 12.7285 15.8682H12.7275C12.057 15.8681 11.3957 15.6921 10.8008 15.3486C9.90684 14.8326 9.2662 13.998 8.99902 13.001C8.73193 12.004 8.86971 10.9613 9.38574 10.0674ZM12.7393 9.28027C11.7972 9.28027 10.881 9.76854 10.3779 10.6396C9.62802 11.9386 10.0742 13.6064 11.373 14.3564C12.0028 14.72 12.736 14.8162 13.4385 14.6279C14.1407 14.4396 14.7263 13.99 15.0898 13.3604C15.8398 12.0613 15.3928 10.3936 14.0938 9.64355C13.6666 9.39699 13.1999 9.28035 12.7393 9.28027Z" fill="#B7B7B7" stroke="#B7B7B7" stroke-width="0.5"/>
</svg>
