<svg width="18" height="19" viewBox="0 0 18 19" fill="none" xmlns="http://www.w3.org/2000/svg">
<path d="M7.11286 2C5.54587 2 3.97895 2.59612 2.78659 3.78848C0.401867 6.1732 0.401867 10.0563 2.78659 12.441C3.97895 13.6334 5.54197 14.2298 7.12104 14.2298C8.70011 14.2298 10.2631 13.6334 11.4555 12.441C13.8241 10.0563 13.8239 6.1732 11.4391 3.78848C10.2468 2.59612 8.67985 2 7.11286 2ZM7.10499 2.95073C8.42626 2.95073 9.74746 3.44998 10.7465 4.4651C12.7606 6.47922 12.7605 9.75028 10.7625 11.7644C8.74839 13.7785 5.47733 13.7785 3.46321 11.7644C1.44908 9.75028 1.44908 6.47922 3.46321 4.4651C4.46221 3.46609 5.78373 2.95073 7.10499 2.95073ZM7.10499 3.91751C5.9932 3.91751 4.94573 4.35243 4.15619 5.15808C3.39888 5.91539 2.98001 6.89835 2.93167 7.9618C2.91555 8.23572 3.12509 8.44513 3.39901 8.46124H3.41506C3.67286 8.46124 3.88233 8.25171 3.89845 7.9939C3.93067 7.17214 4.26886 6.41477 4.83281 5.8347C5.4451 5.22241 6.251 4.88429 7.10499 4.88429C7.37891 4.88429 7.58838 4.67482 7.58838 4.4009C7.58838 4.12698 7.37891 3.91751 7.10499 3.91751ZM4.31732 9.99198C4.18912 9.99198 4.06617 10.0429 3.97551 10.1336C3.88486 10.2242 3.83393 10.3472 3.83393 10.4754C3.83393 10.6036 3.88486 10.7265 3.97551 10.8172C4.06617 10.9078 4.18912 10.9588 4.31732 10.9588C4.44552 10.9588 4.56848 10.9078 4.65913 10.8172C4.74978 10.7265 4.80071 10.6036 4.80071 10.4754C4.80071 10.3472 4.74978 10.2242 4.65913 10.1336C4.56848 10.0429 4.44552 9.99198 4.31732 9.99198ZM12.1101 12.6506C11.9872 12.6506 11.8664 12.699 11.7778 12.7957C11.5844 12.9891 11.5844 13.2951 11.7778 13.4723L12.1806 13.8751C12.0839 14.0685 12.0355 14.278 12.0355 14.5036C12.0355 14.8903 12.1805 15.261 12.4544 15.5349L14.517 17.5651C14.807 17.8551 15.1773 18 15.5479 18C15.9185 18 16.2892 17.855 16.5792 17.5811C17.1432 17.0172 17.1432 16.0989 16.5792 15.5349L14.517 13.4723C14.243 13.1984 13.8724 13.0534 13.4857 13.0534C13.2601 13.0534 13.0506 13.1018 12.8572 13.1985L12.4544 12.7957C12.3577 12.699 12.2329 12.6506 12.1101 12.6506ZM13.4857 14.0042C13.6146 14.0042 13.7434 14.0526 13.824 14.1493L15.8702 16.1955C16.0636 16.3888 16.0636 16.6948 15.8702 16.8721C15.6768 17.0654 15.3708 17.0654 15.1936 16.8721L13.1474 14.8419C13.0507 14.7452 13.0023 14.6165 13.0023 14.4876C13.0023 14.3587 13.0507 14.2298 13.1474 14.1493C13.244 14.0526 13.3568 14.0042 13.4857 14.0042Z" fill="#6B7280"/>
</svg>
