<svg width="14" height="14" viewBox="0 0 14 14" fill="none" xmlns="http://www.w3.org/2000/svg">
<g clip-path="url(#clip0_217_2524)">
<path d="M13.0761 5.45655C13.0259 5.30207 12.9339 5.16449 12.8104 5.05902C12.6869 4.95355 12.5366 4.8843 12.3761 4.85893L9.2318 4.37636L7.82261 1.38649C7.75394 1.2343 7.64284 1.10515 7.50262 1.01451C7.3624 0.923879 7.19901 0.875608 7.03205 0.875488C6.69168 0.875488 6.38849 1.07149 6.24149 1.38561L4.83186 4.3768L1.68755 4.85936C1.52716 4.88488 1.37693 4.95418 1.25341 5.05963C1.1299 5.16508 1.0379 5.30258 0.98755 5.45699C0.933085 5.61646 0.923751 5.78789 0.960577 5.95233C0.997404 6.11678 1.07896 6.26785 1.19624 6.38886L3.48436 8.74349L2.94361 12.0737C2.88674 12.4246 3.02849 12.7667 3.31418 12.9676C3.44621 13.0607 3.60189 13.1147 3.76327 13.1233C3.92465 13.1319 4.08518 13.0948 4.22636 13.0161L7.02461 11.4551L9.83818 13.0161C9.97914 13.0952 10.1397 13.1327 10.3011 13.1241C10.4625 13.1155 10.6182 13.0612 10.7499 12.9676C10.89 12.869 10.9991 12.7328 11.0647 12.5746C11.1304 12.4164 11.1497 12.2429 11.1205 12.0742L10.5797 8.74393L12.8679 6.3893C12.9851 6.26829 13.0667 6.11722 13.1035 5.95277C13.1404 5.78832 13.131 5.6169 13.0766 5.45743L13.0761 5.45655Z" fill="#F98D07"/>
</g>
<defs>
<clipPath id="clip0_217_2524">
<rect width="14" height="14" fill="white"/>
</clipPath>
</defs>
</svg>
