<svg width="24" height="24" viewBox="0 0 24 24" fill="none" xmlns="http://www.w3.org/2000/svg">
<path d="M19.2283 4.2723C18.8655 3.90931 18.277 3.90922 17.914 4.27211C17.551 4.63499 17.5509 5.22344 17.9138 5.58643C19.4819 7.15497 20.3628 9.28208 20.3628 11.5C20.3628 13.7179 19.4819 15.845 17.9138 17.4136C17.5509 17.7766 17.551 18.365 17.914 18.7279C18.277 19.0908 18.8655 19.0907 19.2283 18.7277C21.1449 16.8106 22.2215 14.2108 22.2215 11.5C22.2215 8.78921 21.1449 6.18941 19.2283 4.2723Z" fill="#4A90EB"/>
<path d="M15.9477 7.55297C15.5848 7.18998 14.9964 7.18989 14.6334 7.55278C14.2704 7.91566 14.2703 8.50411 14.6332 8.8671C15.3301 9.56423 15.7216 10.5096 15.7216 11.4954C15.7216 12.4811 15.3301 13.4265 14.6332 14.1236C14.2703 14.4866 14.2704 15.075 14.6334 15.4379C14.9964 15.8008 15.5848 15.8007 15.9477 15.4377C16.9931 14.392 17.5803 12.974 17.5803 11.4954C17.5803 10.0167 16.9931 8.59867 15.9477 7.55297Z" fill="#4A90EB"/>
<path fill-rule="evenodd" clip-rule="evenodd" d="M12.0004 4.99438C12.0004 4.63713 11.7956 4.3115 11.4736 4.15674C11.1516 4.00198 10.7694 4.04549 10.4905 4.26867L6.09818 7.78249H2.70671C2.19344 7.78249 1.77734 8.19858 1.77734 8.71185V14.2881C1.77734 14.8013 2.19344 15.2174 2.70671 15.2174H6.09818L10.4905 18.7312C10.7694 18.9544 11.1516 18.9979 11.4736 18.8432C11.7956 18.6884 12.0004 18.3628 12.0004 18.0055V4.99438ZM7.00476 9.43757L10.1417 6.92805V16.0719L7.00476 13.5623C6.83997 13.4305 6.63522 13.3587 6.42418 13.3587H3.63608V9.64122H6.42418C6.63522 9.64122 6.83997 9.5694 7.00476 9.43757Z" fill="#4A90EB"/>
</svg>
