<svg width="24" height="24" viewBox="0 0 24 24" fill="none" xmlns="http://www.w3.org/2000/svg">
<rect width="24" height="24" rx="12" fill="#4A90EB"/>
<path d="M12.0005 15.5146C11.6993 15.5146 11.4551 15.7589 11.4551 16.0601C11.4551 16.3613 11.6993 16.6056 12.0005 16.6056H12.006C12.3072 16.6056 12.5514 16.3613 12.5514 16.0601C12.5514 15.7589 12.3072 15.5146 12.006 15.5146H12.0005Z" fill="white"/>
<path d="M10.4722 14.5408C10.88 14.141 11.4284 13.9171 11.9995 13.9171C12.5706 13.9171 13.1189 14.141 13.5267 14.5408C13.7419 14.7516 14.0872 14.7482 14.2981 14.5331C14.509 14.3179 14.5055 13.9726 14.2904 13.7617C13.6786 13.1621 12.8561 12.8262 11.9995 12.8262C11.1428 12.8262 10.3203 13.1621 9.70856 13.7617C9.49343 13.9726 9.48997 14.3179 9.70084 14.5331C9.91172 14.7482 10.2571 14.7516 10.4722 14.5408Z" fill="white"/>
<path d="M8.56399 12.6319C9.48164 11.7324 10.7154 11.2286 12.0004 11.2286C13.2853 11.2286 14.5191 11.7324 15.4367 12.6319C15.6518 12.8428 15.9972 12.8393 16.2081 12.6242C16.4189 12.4091 16.4155 12.0637 16.2003 11.8528C15.0788 10.7535 13.5709 10.1377 12.0004 10.1377C10.4298 10.1377 8.92193 10.7535 7.80036 11.8528C7.58522 12.0637 7.58177 12.4091 7.79264 12.6242C8.00351 12.8393 8.34886 12.8428 8.56399 12.6319Z" fill="white"/>
<path d="M12 8.4244C10.1216 8.4244 8.30915 9.11671 6.9091 10.369C6.68456 10.5698 6.33973 10.5506 6.1389 10.326C5.93807 10.1015 5.95729 9.75667 6.18182 9.55584C7.78189 8.1247 9.85329 7.3335 12 7.3335C14.1467 7.3335 16.2181 8.1247 17.8182 9.55584C18.0427 9.75667 18.0619 10.1015 17.8611 10.326C17.6603 10.5506 17.3154 10.5698 17.0909 10.369C15.6908 9.11671 13.8784 8.4244 12 8.4244Z" fill="white"/>
</svg>
