<svg width="25" height="24" viewBox="0 0 25 24" fill="none" xmlns="http://www.w3.org/2000/svg">
<path d="M16.8203 3.66504C19.5663 3.66527 21.7948 5.89363 21.7949 8.63965C21.7949 11.4998 20.3417 14.1081 18.6006 16.1875C17.32 17.7173 15.8811 18.9698 14.7637 19.8389C14.2047 20.2736 13.7248 20.6127 13.3848 20.8438C13.2148 20.9593 13.0793 21.0477 12.9863 21.1074C12.9399 21.1372 12.9043 21.1605 12.8799 21.1758C12.8677 21.1834 12.8579 21.1894 12.8516 21.1934C12.8487 21.1951 12.8463 21.1963 12.8447 21.1973L12.8428 21.1982L12.8418 21.1992H12.8408C12.738 21.2613 12.6202 21.2949 12.5 21.2949C12.3798 21.2949 12.2621 21.2613 12.1592 21.1992H12.1582L12.1572 21.1982L12.1553 21.1973C12.1537 21.1963 12.1513 21.1951 12.1484 21.1934C12.1421 21.1894 12.1323 21.1834 12.1201 21.1758C12.0957 21.1605 12.0601 21.1373 12.0137 21.1074C11.9207 21.0477 11.7853 20.9593 11.6152 20.8438C11.2752 20.6127 10.7954 20.2737 10.2363 19.8389C9.11887 18.9698 7.68001 17.7173 6.39941 16.1875C4.65835 14.1081 3.20508 11.4998 3.20508 8.63965C3.20518 5.89355 5.43359 3.66514 8.17969 3.66504C9.1139 3.66525 10.0296 3.92793 10.8213 4.42383C11.5177 4.8601 12.0938 5.46148 12.5 6.17188C12.9062 5.46153 13.4823 4.86008 14.1787 4.42383C14.9704 3.928 15.8862 3.66525 16.8203 3.66504ZM16.8203 4.97461C14.7973 4.97461 13.1554 6.61671 13.1553 8.63965V8.66016C13.1532 8.83387 13.0813 8.99973 12.957 9.12109C12.8328 9.24226 12.6657 9.30965 12.4922 9.30762C12.3186 9.30553 12.1526 9.2345 12.0312 9.11035C11.9099 8.98606 11.8427 8.81822 11.8447 8.64453V8.63965C11.8446 6.61671 10.2027 4.97461 8.17969 4.97461C6.15681 4.97471 4.51475 6.61677 4.51465 8.63965C4.51465 11.1542 5.8253 13.4616 7.40332 15.3467C9.32872 17.6455 11.6395 19.2863 12.5 19.8584C13.3606 19.2862 15.6714 17.6454 17.5967 15.3467C19.1747 13.4616 20.4854 11.1542 20.4854 8.63965C20.4852 6.61685 18.8431 4.97484 16.8203 4.97461ZM16.8203 6.06445C17.5031 6.06457 18.1578 6.33653 18.6406 6.81934C19.1234 7.30218 19.3945 7.95684 19.3945 8.63965C19.3945 8.81324 19.3258 8.97973 19.2031 9.10254C19.0804 9.22529 18.9138 9.29483 18.7402 9.29492C18.5665 9.29492 18.3992 9.22538 18.2764 9.10254C18.1538 8.97974 18.085 8.81317 18.085 8.63965C18.0849 8.30428 17.952 7.98229 17.7148 7.74512C17.4777 7.50798 17.1557 7.37511 16.8203 7.375C16.6466 7.375 16.4793 7.30545 16.3564 7.18262C16.2338 7.05981 16.165 6.89329 16.165 6.71973C16.1651 6.54615 16.2338 6.37962 16.3564 6.25684C16.4793 6.134 16.6466 6.06445 16.8203 6.06445Z" fill="#B7B7B7" stroke="#B7B7B7" stroke-width="0.35"/>
</svg>
