<svg width="22" height="22" viewBox="0 0 22 22" fill="none" xmlns="http://www.w3.org/2000/svg">
<path fill-rule="evenodd" clip-rule="evenodd" d="M15.6646 0.0658006C15.4505 0.142109 15.1998 0.372204 15.0989 0.585024C14.9963 0.801168 15.0063 1.22442 15.1191 1.44562C15.2402 1.68311 15.5037 1.89575 15.7553 1.95913C15.877 1.98975 16.476 2.01007 17.2586 2.01007H18.5596L15.6277 4.9477C13.6673 6.91191 12.6633 7.95064 12.5976 8.08242C12.2869 8.70613 12.6971 9.44136 13.3835 9.49098C13.9114 9.52918 13.7497 9.66645 17.0043 6.41782L19.9881 3.43961V4.77636C19.9881 6.33318 20.0069 6.43608 20.3464 6.73495C20.7617 7.10062 21.3265 7.07754 21.7025 6.67947C21.8104 6.56524 21.9216 6.38955 21.9495 6.28908C21.9832 6.16774 22.0001 5.21763 22 3.46133L21.9998 0.816289L21.8899 0.582215C21.7606 0.306944 21.6746 0.222724 21.3914 0.094264C21.1883 0.00208561 21.0972 -0.000863705 18.5138 0.000119406C16.365 0.000962073 15.8106 0.0137425 15.6646 0.0658006ZM0.658408 0.152268C0.434637 0.22352 0.130315 0.540269 0.0602494 0.774905C-0.0153395 1.02789 -0.0220325 6.10913 0.0528544 6.37887C0.112764 6.59464 0.367613 6.88822 0.584224 6.99102C0.805936 7.09626 1.22736 7.08788 1.45095 6.9738C1.68838 6.85264 1.90097 6.58912 1.96434 6.33744C1.99495 6.21577 2.01526 5.61673 2.01526 4.83417V3.53323L4.97564 6.48805C8.20481 9.71115 8.04539 9.576 8.57306 9.5378C9.23913 9.48963 9.64947 8.78956 9.38479 8.15302C9.33466 8.03242 8.41107 7.07651 6.37846 5.04133L3.44453 2.1037H4.74517C5.52751 2.1037 6.12641 2.08338 6.24806 2.05276C6.6773 1.94467 6.97652 1.55414 6.97652 1.10209C6.97652 0.786047 6.93234 0.665171 6.73436 0.439617C6.41857 0.0798919 6.53474 0.092251 3.513 0.0964644C1.67823 0.0990392 0.769756 0.116782 0.658408 0.152268ZM8.00622 12.687C7.84497 12.7596 7.11801 13.4589 4.90543 15.67L2.01526 18.5581L2.01498 17.2244C2.01484 16.3938 1.99519 15.82 1.96294 15.7034C1.88398 15.4182 1.53716 15.096 1.24136 15.0332C0.766854 14.9323 0.354368 15.1346 0.113466 15.5864C0.0316989 15.7397 0.025193 15.9165 0.012509 18.3437C-0.00321721 21.3481 -0.00293632 21.3513 0.324085 21.6787C0.45832 21.8131 0.612259 21.9155 0.728147 21.9477C0.854846 21.9827 1.77235 21.9996 3.56617 21.9997L6.21698 22L6.46729 21.8692C7.16364 21.5053 7.19257 20.5364 6.51892 20.1404L6.29786 20.0104L4.87342 19.9961L3.44897 19.9818L6.35753 17.0702C8.37733 15.0483 9.28819 14.1053 9.33822 13.9845C9.68588 13.1453 8.83329 12.3149 8.00622 12.687ZM13.128 12.7257C12.7885 12.8799 12.5447 13.2774 12.5473 13.6724C12.5497 14.0541 12.6216 14.1352 15.5992 17.117L18.46 19.9818L17.036 19.9961C15.484 20.0116 15.4828 20.0118 15.197 20.2976C14.9867 20.508 14.914 20.6865 14.9118 20.9971C14.9091 21.3889 15.089 21.6845 15.4425 21.8692L15.6928 22H18.3704C21.3565 22 21.3408 22.0015 21.6594 21.6829C22.0108 21.3314 21.9985 21.4451 21.9994 18.5123C21.9999 16.791 21.983 15.8287 21.9501 15.7102C21.9225 15.6109 21.8147 15.4372 21.7104 15.3241C21.3422 14.9245 20.7764 14.8918 20.3625 15.2462C20.0211 15.5385 20.0145 15.5718 19.9881 17.1484L19.9647 18.5467L17.0591 15.666C15.0363 13.6606 14.0995 12.7628 13.976 12.7112C13.7398 12.6125 13.3629 12.6189 13.128 12.7257Z" fill="white"/>
</svg>
