<svg width="140" height="140" viewBox="0 0 140 140" fill="none" xmlns="http://www.w3.org/2000/svg">
<rect width="140" height="140" rx="70" fill="white" fill-opacity="0.2"/>
<path opacity="0.7" fill-rule="evenodd" clip-rule="evenodd" d="M51.9981 46C51.9981 41.2261 53.8947 36.6477 57.2707 33.2721C60.6467 29.8964 65.2256 28 70 28C74.7744 28 79.3533 29.8964 82.7293 33.2721C86.1053 36.6477 88.0019 41.2261 88.0019 46C88.0019 50.7739 86.1053 55.3522 82.7293 58.7279C79.3533 62.1035 74.7744 64 70 64C65.2256 64 60.6467 62.1035 57.2707 58.7279C53.8947 55.3522 51.9981 50.7739 51.9981 46ZM37.0005 102.42C37.1354 93.7578 40.6714 85.4962 46.8454 79.4183C53.0193 73.3404 61.3359 69.9338 70 69.9338C78.6641 69.9338 86.9807 73.3404 93.1546 79.4183C99.3286 85.4962 102.865 93.7578 103 102.42C103.01 103.003 102.85 103.577 102.54 104.07C102.229 104.564 101.781 104.957 101.251 105.2C91.447 109.695 80.7858 112.015 70 112C58.8548 112 48.2657 109.568 38.7487 105.2C38.2186 104.957 37.7709 104.564 37.4604 104.07C37.1499 103.577 36.9901 103.003 37.0005 102.42Z" fill="white"/>
</svg>
