<?xml version="1.0" encoding="UTF-8"?>
<svg version="1.1" xmlns="http://www.w3.org/2000/svg" width="62" height="70">
<path d="M0 0 C5.62170399 0.22945731 8.39632556 1.65060682 12.6171875 5.33203125 C14.17329906 7.20903587 14.59708512 8.61866973 15 11 C15.66 11 16.32 11 17 11 C17.20625 10.278125 17.4125 9.55625 17.625 8.8125 C19.36336233 5.25675888 21.60892821 2.96728093 25 1 C28.875 0.1875 28.875 0.1875 32 0 C32.2475 0.5775 32.495 1.155 32.75 1.75 C33.89275944 4.06284771 33.89275944 4.06284771 35.78125 5.7265625 C38.4553727 8.46659667 40.59334337 11.4778268 42.75 14.625 C43.36681641 15.50285156 43.36681641 15.50285156 43.99609375 16.3984375 C47 20.74961067 47 20.74961067 47 23 C44.36 22.67 41.72 22.34 39 22 C41.64 22.99 44.28 23.98 47 25 C47 25.66 47 26.32 47 27 C46.410979 26.98952637 45.82195801 26.97905273 45.21508789 26.96826172 C42.49760354 26.92620446 39.78018804 26.9005182 37.0625 26.875 C36.13630859 26.85824219 35.21011719 26.84148438 34.25585938 26.82421875 C28.18127038 26.78159006 22.88164921 27.46775498 17 29 C16.42892635 25.736722 16.54851682 23.68870315 18.3828125 20.890625 C24.15128166 14.04837153 24.15128166 14.04837153 29 13 C30.32 13 31.64 13 33 13 C32.505 12.05125 32.01 11.1025 31.5 10.125 C30 7 30 7 30 5 C24.94319624 7.11680158 22.12362889 9.4880916 19 14 C18.09357281 16.33886394 17.54169155 18.5377657 17 21 C16.34 21 15.68 21 15 21 C14.4121875 19.205625 14.4121875 19.205625 13.8125 17.375 C11.83417513 12.13661864 9.38292329 8.16498472 4.1875 5.625 C3.465625 5.41875 2.74375 5.2125 2 5 C1.690625 5.94875 1.38125 6.8975 1.0625 7.875 C0 11 0 11 -1 13 C-0.01 13.020625 0.98 13.04125 2 13.0625 C7.19228881 13.80425554 10.71324423 17.08148338 14 21 C15.56321839 25.87356322 15.56321839 25.87356322 14 29 C12.906875 28.67257813 11.81375 28.34515625 10.6875 28.0078125 C5.45122869 26.69874467 0.36757298 26.77875386 -5 26.875 C-5.96550781 26.88402344 -6.93101563 26.89304687 -7.92578125 26.90234375 C-10.28412099 26.92569365 -12.64192286 26.95843953 -15 27 C-15 26.34 -15 25.68 -15 25 C-11.04 23.515 -11.04 23.515 -7 22 C-10.96 22.495 -10.96 22.495 -15 23 C-13.48491885 18.61943929 -11.14699232 15.01329578 -8.5 11.25 C-8.09652344 10.66089844 -7.69304688 10.07179688 -7.27734375 9.46484375 C-4.2567791 5.12838955 -4.2567791 5.12838955 -2 4 C-0.86649466 1.98330173 -0.86649466 1.98330173 0 0 Z " fill="#CECECE" transform="translate(15,31)"/>
<path d="M0 0 C1.57587891 0.68255859 1.57587891 0.68255859 3.18359375 1.37890625 C3.96863281 1.72824219 4.75367188 2.07757813 5.5625 2.4375 C6.0575 8.3775 6.0575 8.3775 6.5625 14.4375 C5.5725 14.7675 4.5825 15.0975 3.5625 15.4375 C3.5625 12.1375 3.5625 8.8375 3.5625 5.4375 C-0.25163002 6.6053266 -0.25163002 6.6053266 -2.75 9.5625 C-2.976875 10.18125 -3.20375 10.8 -3.4375 11.4375 C-4.118125 10.2309375 -4.118125 10.2309375 -4.8125 9 C-6.18475665 6.34893428 -6.18475665 6.34893428 -8.4375 5.4375 C-11.3532691 5.02047878 -11.3532691 5.02047878 -14.4375 5.4375 C-16.72965045 7.22941032 -16.72965045 7.22941032 -18.4375 9.4375 C-19.0975 10.0975 -19.7575 10.7575 -20.4375 11.4375 C-20.458125 10.839375 -20.47875 10.24125 -20.5 9.625 C-21.34206616 7.00435398 -21.34206616 7.00435398 -25 5.6875 C-26.134375 5.275 -27.26875 4.8625 -28.4375 4.4375 C-28.4375 3.7775 -28.4375 3.1175 -28.4375 2.4375 C-26.09081612 1.39553611 -23.73774695 0.37933447 -21.375 -0.625 C-20.71822266 -0.91955078 -20.06144531 -1.21410156 -19.38476562 -1.51757812 C-12.25839519 -4.50152634 -6.97674327 -3.05722458 0 0 Z " fill="#E1E1E1" transform="translate(42.4375,14.5625)"/>
<path d="M0 0 C0.66 0 1.32 0 2 0 C0.8905928 3.48670834 -0.26337666 6.77484237 -2 10 C0.97 10.495 0.97 10.495 4 11 C4 11.66 4 12.32 4 13 C5.76949612 13.50471197 7.54065223 14.00360685 9.3125 14.5 C10.29863281 14.7784375 11.28476562 15.056875 12.30078125 15.34375 C15.02287203 16.11812196 15.02287203 16.11812196 18 16 C19.125 21.75 19.125 21.75 18 24 C16.906875 23.67257813 15.81375 23.34515625 14.6875 23.0078125 C9.45122869 21.69874467 4.36757298 21.77875386 -1 21.875 C-1.96550781 21.88402344 -2.93101563 21.89304687 -3.92578125 21.90234375 C-6.28412099 21.92569365 -8.64192286 21.95843953 -11 22 C-11 21.34 -11 20.68 -11 20 C-7.04 18.515 -7.04 18.515 -3 17 C-6.96 17.495 -6.96 17.495 -11 18 C-9.4785114 13.60918236 -7.14060361 9.97124031 -4.5 6.1875 C-3.89478516 5.2912793 -3.89478516 5.2912793 -3.27734375 4.37695312 C-2.23960218 2.87856389 -1.12524203 1.43384386 0 0 Z " fill="#C8C8C8" transform="translate(11,36)"/>
<path d="M0 0 C0.66 0 1.32 0 2 0 C3.23681641 1.43701172 3.23681641 1.43701172 4.6015625 3.4296875 C5.09140625 4.14253906 5.58125 4.85539062 6.0859375 5.58984375 C6.59382813 6.34394531 7.10171875 7.09804688 7.625 7.875 C8.140625 8.62136719 8.65625 9.36773437 9.1875 10.13671875 C13 15.734437 13 15.734437 13 18 C10.36 17.67 7.72 17.34 5 17 C7.64 17.99 10.28 18.98 13 20 C13 20.66 13 21.32 13 22 C12.410979 21.98952637 11.82195801 21.97905273 11.21508789 21.96826172 C8.49760354 21.92620446 5.78018804 21.9005182 3.0625 21.875 C2.13630859 21.85824219 1.21011719 21.84148438 0.25585938 21.82421875 C-5.81872962 21.78159006 -11.11835079 22.46775498 -17 24 C-17.125 21.125 -17.125 21.125 -17 18 C-16.34 17.34 -15.68 16.68 -15 16 C-13.0625 16.375 -13.0625 16.375 -11 17 C-7.88012332 17.34807292 -7.88012332 17.34807292 -5.9375 15 C-5.298125 14.34 -4.65875 13.68 -4 13 C-3.34 13 -2.68 13 -2 13 C-2 12.34 -2 11.68 -2 11 C0.31 11 2.62 11 5 11 C4.67 10.67 4.34 10.34 4 10 C3.28870395 8.70024216 2.60489781 7.38533509 1.9375 6.0625 C1.57527344 5.35222656 1.21304688 4.64195313 0.83984375 3.91015625 C0 2 0 2 0 0 Z " fill="#C6C6C6" transform="translate(49,36)"/>
<path d="M0 0 C2.5625 2.0625 2.5625 2.0625 4 5 C3.94021398 8.46758942 3.60965977 10.88826749 1.9375 13.9375 C-1.27905997 15.70141999 -4.49385409 15.73924763 -8 15 C-10.5625 12.9375 -10.5625 12.9375 -12 10 C-11.94021398 6.53241058 -11.60965977 4.11173251 -9.9375 1.0625 C-6.72094003 -0.70141999 -3.50614591 -0.73924763 0 0 Z " fill="#EAEAEA" transform="translate(35,21)"/>
<path d="M0 0 C0.99 0 1.98 0 3 0 C3.67154933 1.28913487 4.33708859 2.58140204 5 3.875 C5.37125 4.59429687 5.7425 5.31359375 6.125 6.0546875 C7 8 7 8 7 10 C7.66 10.33 8.32 10.66 9 11 C5.7 11.33 2.4 11.66 -1 12 C-1 12.66 -1 13.32 -1 14 C-2.696886 16.23274474 -3.77049478 16.93688606 -6.5 17.6875 C-9 18 -9 18 -12 18 C-11.75536626 14.69744449 -10.74684329 13.74081575 -8.375 11.3125 C-5.11994346 8.73689701 -2.14350932 8.24861056 2 8 C1.67 7.4225 1.34 6.845 1 6.25 C0 4 0 4 0 0 Z " fill="#E1E1E1" transform="translate(46,36)"/>
<path d="M0 0 C0.66 0 1.32 0 2 0 C3.23681641 1.43701172 3.23681641 1.43701172 4.6015625 3.4296875 C5.09140625 4.14253906 5.58125 4.85539062 6.0859375 5.58984375 C6.59382813 6.34394531 7.10171875 7.09804688 7.625 7.875 C8.140625 8.62136719 8.65625 9.36773437 9.1875 10.13671875 C13 15.734437 13 15.734437 13 18 C12.33613281 17.84660156 11.67226563 17.69320312 10.98828125 17.53515625 C7.39844078 16.89226979 3.82204581 16.64966009 0.1875 16.4375 C-0.50537109 16.39431641 -1.19824219 16.35113281 -1.91210938 16.30664062 C-3.60788686 16.20138547 -5.30392052 16.10027137 -7 16 C-5.625 14.5 -5.625 14.5 -4 13 C-3.34 13 -2.68 13 -2 13 C-2 12.34 -2 11.68 -2 11 C0.31 11 2.62 11 5 11 C4.67 10.67 4.34 10.34 4 10 C3.28870395 8.70024216 2.60489781 7.38533509 1.9375 6.0625 C1.57527344 5.35222656 1.21304688 4.64195313 0.83984375 3.91015625 C0 2 0 2 0 0 Z " fill="#CCCCCC" transform="translate(49,36)"/>
<path d="M0 0 C1.32 0 2.64 0 4 0 C2.125 5.75 2.125 5.75 1 8 C2.5159375 8.061875 2.5159375 8.061875 4.0625 8.125 C8.85902082 8.76127317 11.67514558 11.69535746 15 15 C14.67 15.99 14.34 16.98 14 18 C13.44570313 17.71125 12.89140625 17.4225 12.3203125 17.125 C11.59585937 16.75375 10.87140625 16.3825 10.125 16 C9.40570313 15.62875 8.68640625 15.2575 7.9453125 14.875 C6.05151023 13.86326254 6.05151023 13.86326254 4 14 C4 13.34 4 12.68 4 12 C1.03 11.67 -1.94 11.34 -5 11 C-3.35 7.37 -1.7 3.74 0 0 Z " fill="#DADADA" transform="translate(13,36)"/>
<path d="M0 0 C0.33 0.66 0.66 1.32 1 2 C-7.91 2 -16.82 2 -26 2 C-26 1.34 -26 0.68 -26 0 C-16.81246572 -3.93751469 -9.26531628 -3.93730789 0 0 Z " fill="#ECECEC" transform="translate(26,56)"/>
<path d="M0 0 C0.66 0 1.32 0 2 0 C0.78172689 4.02967261 -0.47546355 7.60158555 -3 11 C-5.1875 11.8125 -5.1875 11.8125 -7 12 C-5.50328459 7.50985376 -3.16631659 3.52151236 0 0 Z " fill="#A5A5A5" transform="translate(11,36)"/>
<path d="M0 0 C3 0 3 0 5 1 C5 1.99 5 2.98 5 4 C3.04783565 5.95216435 1.46800047 6.84826645 -1 8 C-1.125 2.25 -1.125 2.25 0 0 Z " fill="#838383" transform="translate(33,52)"/>
<path d="M0 0 C1.32 0 2.64 0 4 0 C6 2 6 2 6.125 5.125 C6.08375 6.07375 6.0425 7.0225 6 8 C3.46414701 6.98565881 2.21863205 6.34981128 0.75 4 C0 2 0 2 0 0 Z " fill="#7F7F7F" transform="translate(24,52)"/>
<path d="M0 0 C1.16144531 0.20367187 2.32289062 0.40734375 3.51953125 0.6171875 C4.39996094 0.78476562 5.28039062 0.95234375 6.1875 1.125 C6.1875 1.455 6.1875 1.785 6.1875 2.125 C0.2475 2.455 -5.6925 2.785 -11.8125 3.125 C-11.8125 2.465 -11.8125 1.805 -11.8125 1.125 C-7.51476021 -1.06029142 -4.69136533 -0.85297551 0 0 Z " fill="#9F9F9F" transform="translate(11.8125,54.875)"/>
<path d="M0 0 C0.66 0 1.32 0 2 0 C3.2890625 1.4609375 3.2890625 1.4609375 4.625 3.375 C5.29402344 4.31472656 5.29402344 4.31472656 5.9765625 5.2734375 C7 7 7 7 7 9 C6.01 9.33 5.02 9.66 4 10 C3.32845067 8.71086513 2.66291141 7.41859796 2 6.125 C1.62875 5.40570313 1.2575 4.68640625 0.875 3.9453125 C0 2 0 2 0 0 Z " fill="#A0A0A0" transform="translate(49,36)"/>
<path d="M0 0 C0.66 0.33 1.32 0.66 2 1 C1.34 1.66 0.68 2.32 0 3 C0 3.99 0 4.98 0 6 C-1.65 6.66 -3.3 7.32 -5 8 C-4.45773019 4.20411134 -2.79872437 2.52788007 0 0 Z " fill="#C8C8C8" transform="translate(39,46)"/>
</svg>
