<svg width="125" height="84" viewBox="0 0 125 84" fill="none" xmlns="http://www.w3.org/2000/svg">
<path d="M15.3879 70.2419C15.7451 70.2416 107.921 70.3444 107.921 70.3444C107.143 66.4944 106.482 62.4999 104.446 59.0826C102.407 55.6596 98.8259 53.4181 96.9274 49.9133C95.0199 46.3918 96.7783 43.8129 99.2283 41.2504C102.184 38.1588 104.733 34.5191 105.779 30.3509C107.493 23.5258 104.416 16.5121 97.1224 15.4166C89.2978 14.2413 81.1321 18.0481 73.3106 18.4714C69.5069 18.6774 65.4284 18.4541 61.9451 16.7536C58.7426 15.1903 56.1876 12.4979 52.7958 11.2896C46.3699 9.00025 36.0958 10.2629 32.1828 16.5474C29.4429 20.9476 29.4669 26.1228 29.8773 31.1149C30.2036 35.0868 33.5411 39.7657 32.4199 43.6916C31.5446 46.7566 27.3324 48.8458 24.8301 50.8304C22.2438 52.8819 19.5171 55.4292 17.8969 58.3479C15.9224 61.9058 15.1813 66.2092 15.3879 70.2419Z" fill="#D5E4F7"/>
<path d="M87.2746 41.8265C87.2746 41.8265 87.1793 41.5865 87.653 39.4705C87.653 39.4705 89.7185 36.4438 89.0393 34.2835C88.8865 33.9847 88.6998 33.6953 88.4985 33.4187C88.1863 32.99 87.7845 32.4847 87.2245 32.2743C87.1096 32.2312 86.9775 32.1968 86.8541 32.2315C86.7205 32.269 86.6318 32.382 86.6002 32.4993C86.5582 32.6547 86.5788 32.8295 86.6498 32.9768C86.9433 33.5863 87.1371 34.2628 87.126 34.923C87.122 35.1945 87.0793 35.4683 86.97 35.7235C86.884 35.924 86.7698 36.1745 86.5755 36.3158C86.3503 36.4795 86.1013 36.2372 85.9721 36.0903C85.7423 35.8288 85.519 35.5602 85.3488 35.2665C85.2535 35.1018 85.2231 34.8972 85.0711 34.7593C84.8986 34.6032 84.5523 34.6383 84.4018 34.8012C84.1958 35.024 84.478 35.4785 84.5653 35.7218C84.713 36.1333 84.8498 36.5477 84.9738 36.9648C85.3643 38.2793 85.8585 39.6667 85.1813 40.9712C85.9251 41.3295 86.4916 41.5312 87.2746 41.8265Z" fill="#F1CBA9"/>
<path d="M60.7148 44.3342V48.9589H65.3992L65.2725 44.3342H60.7148Z" fill="#FFB98A"/>
<path opacity="0.2" d="M65.2837 44.8623L65.3112 45.6571C63.9427 46.2668 62.9599 46.1796 62.9599 46.1796C61.5822 46.1688 60.7129 45.5746 60.7129 45.5746L60.7211 45.1018L65.2837 44.8623Z" fill="#777777"/>
<path d="M56.523 39.2622C57.1866 39.2622 57.7246 38.7242 57.7246 38.0606C57.7246 37.3969 57.1866 36.8589 56.523 36.8589C55.8593 36.8589 55.3213 37.3969 55.3213 38.0606C55.3213 38.7242 55.8593 39.2622 56.523 39.2622Z" fill="#FFCDAB"/>
<path d="M56.6981 38.8853C57.1366 38.8853 57.492 38.5299 57.492 38.0914C57.492 37.653 57.1366 37.2976 56.6981 37.2976C56.2597 37.2976 55.9043 37.653 55.9043 38.0914C55.9043 38.5299 56.2597 38.8853 56.6981 38.8853Z" fill="#FFDFCA"/>
<path d="M69.4341 39.2622C70.0978 39.2622 70.6358 38.7242 70.6358 38.0606C70.6358 37.3969 70.0978 36.8589 69.4341 36.8589C68.7704 36.8589 68.2324 37.3969 68.2324 38.0606C68.2324 38.7242 68.7704 39.2622 69.4341 39.2622Z" fill="#FFCDAB"/>
<path d="M69.2587 38.8853C69.6971 38.8853 70.0525 38.5299 70.0525 38.0914C70.0525 37.653 69.6971 37.2976 69.2587 37.2976C68.8203 37.2976 68.4648 37.653 68.4648 38.0914C68.4648 38.5299 68.8203 38.8853 69.2587 38.8853Z" fill="#FFDFCA"/>
<path d="M69.3118 36.8311C69.4696 38.0191 69.2064 39.9993 69.2064 39.9993C68.4862 42.9673 65.7302 45.8264 62.6996 45.6459C59.9037 45.4794 57.7262 42.8423 56.8037 40.1689C56.8037 40.1689 56.4177 37.6796 56.6282 36.7744V32.0786H69.3116V36.8311H69.3118Z" fill="#FFCDAB"/>
<path d="M57.0362 39.2976C57.0362 39.2976 57.4028 39.1472 57.3463 38.4797C57.3463 38.4797 57.1395 36.9686 57.2453 36.6301C57.2453 36.6301 57.746 33.4361 58.2253 33.0271C58.2253 33.0271 58.3663 32.5899 58.8177 32.9142C58.8177 32.9142 60.1997 34.4936 61.356 34.7052C61.356 34.7052 63.993 35.368 65.5302 35.2129C65.5302 35.2129 63.7675 33.8591 63.6547 33.5489C63.6547 33.5489 63.603 33.3655 63.7815 33.483C63.7815 33.483 65.1775 34.4372 67.8945 34.5407C67.8945 34.5407 66.1705 33.6367 65.8863 32.5712C65.885 32.5666 65.8838 32.5619 65.8827 32.557C65.8827 32.557 65.8757 32.4537 65.9813 32.5217C65.9813 32.5217 68.2235 33.2715 68.9757 35.7722C68.9757 35.7722 69.3047 37.5302 69.0415 38.0756C68.7783 38.6207 69.0415 38.1132 69.0415 38.1132L69.0273 38.9957C69.0273 38.9957 69.0767 39.2426 69.32 39.2391C69.32 39.2391 69.5492 39.2426 69.602 38.9994C69.602 38.9994 70.0285 33.7042 69.7842 32.9897C69.7842 32.9897 69.333 29.7181 64.6512 28.7404C64.6512 28.7404 61.4265 27.9084 59.255 29.6711C59.255 29.6711 58.6157 29.4265 58.5968 28.806C58.5968 28.806 58.5217 28.7121 58.5075 28.8766L58.6098 29.8577C58.6098 29.8577 58.6415 29.9317 58.4935 29.8931C58.4935 29.8931 58.1657 29.5299 57.517 29.6885C57.517 29.6885 57.182 29.7414 57.0375 29.8472C57.0375 29.8472 57.88 29.7872 58.141 30.168C58.141 30.168 58.282 30.2774 58.1057 30.2986C58.1057 30.2986 56.7543 30.0752 56.397 31.4761C56.397 31.4761 56.2278 33.8169 56.5098 36.0169L56.726 38.9782C56.726 38.9779 56.8388 39.2882 57.0362 39.2976Z" fill="#211D1E"/>
<path d="M58.1954 31.0736C58.196 31.1139 58.2027 31.1553 58.2162 31.1966C58.2522 31.3061 58.3225 31.4006 58.3935 31.4914C58.9725 32.2323 59.6115 32.9536 60.3787 33.5046C60.9605 33.9226 61.6057 34.2541 62.2902 34.4674C62.7404 34.6078 63.2109 34.6981 63.6819 34.6764C63.6369 34.6764 63.529 34.5703 63.4902 34.5434C63.4147 34.4911 63.3392 34.4386 63.2637 34.3863C63.121 34.2873 62.9804 34.1841 62.8347 34.0894C62.5677 33.9159 62.306 33.7323 62.0475 33.5456C61.5157 33.1614 60.999 32.7541 60.5212 32.3038C60.4449 32.2319 60.3695 32.1589 60.2954 32.0848C59.987 31.7766 59.6979 31.4491 59.4304 31.1049C59.3119 30.9524 59.2265 30.7856 59.0452 30.7051C58.8689 30.6268 58.6405 30.6099 58.4607 30.6851C58.2969 30.7538 58.1929 30.9058 58.1954 31.0736Z" fill="#302C2D"/>
<path d="M38.9958 42.9525C38.9958 42.9525 38.7787 42.8277 38.3207 40.4827C38.3207 40.4827 36.3235 37.1285 36.9802 34.734C37.1278 34.4029 37.3083 34.0822 37.5032 33.7755C37.805 33.3005 38.1935 32.7404 38.735 32.5074C38.846 32.4595 38.9738 32.4214 39.0933 32.4599C39.2225 32.5015 39.3083 32.6265 39.339 32.7567C39.3797 32.9289 39.3597 33.1225 39.291 33.2859C39.0072 33.9612 38.8197 34.711 38.8303 35.4427C38.8342 35.7437 38.8755 36.047 38.9813 36.3299C39.0643 36.552 39.1748 36.8295 39.3627 36.9862C39.5803 37.1677 39.8213 36.899 39.946 36.7362C40.1682 36.4464 40.3842 36.1487 40.5487 35.8232C40.6408 35.6407 40.6702 35.4137 40.8172 35.261C40.984 35.0879 41.3188 35.1269 41.4645 35.3074C41.6637 35.5544 41.3908 36.058 41.3063 36.3277C41.1635 36.7839 41.0312 37.243 40.9115 37.7052C40.534 39.162 40.056 40.6994 40.711 42.1452C39.9913 42.5429 39.7528 42.6252 38.9958 42.9525Z" fill="#F1CBA9"/>
<path d="M68.9742 47.5624C69.1603 47.6096 69.3445 47.6649 69.5263 47.7284C70.3152 48.0039 71.0493 48.4141 71.8472 48.6697C73.0273 49.0479 74.2755 49.2771 75.5167 49.1439C78.0548 48.8717 80.0705 46.9067 81.3595 45.1166C82.4968 43.5372 84.4423 41.7032 85.5957 40.1569L87.7103 40.3661C87.807 40.7369 87.6527 41.1074 87.592 41.4707C87.4125 42.5457 87.1085 43.6287 86.6395 44.6454C86.1538 45.6982 85.4642 46.6321 84.7062 47.5486C84.6725 47.5892 84.6387 47.6299 84.605 47.6704C83.0678 49.5157 81.1642 51.2419 79.127 52.6711C77.4112 53.8749 75.184 55.1254 72.915 55.1534C72.3102 55.1607 71.0748 54.8316 70.7703 55.5109C70.7065 55.6534 70.7005 55.8099 70.6965 55.9629C70.5788 60.4102 70.9008 63.9894 71.007 68.4356C71.008 68.4766 71.009 68.5177 71.01 68.5587C61.401 70.6607 54.8757 68.5477 54.8757 68.5477C54.9333 66.1256 55.0687 64.5989 55.1263 62.1769C55.1568 60.8419 55.191 59.4382 55.2222 58.0769C55.2407 57.2661 55.8107 55.3502 54.4785 55.2182C54.0678 55.1776 53.6518 55.1882 53.2397 55.1667C51.1727 55.0591 49.2153 54.2621 47.5448 53.1944C45.3297 51.7789 43.291 49.9114 41.6393 48.0019C40.0578 46.1736 39.0842 43.6752 38.4097 41.4386C38.4097 41.4386 38.1112 40.7124 38.2017 40.3651L40.428 39.8894C41.5813 41.4359 43.4662 43.5374 44.6035 45.1167C45.8925 46.9069 47.9082 48.8719 50.4463 49.1441C51.8478 49.2944 53.1912 48.9709 54.5172 48.5667C55.1795 48.3649 55.7912 48.0336 56.4325 47.7776C57.121 47.5027 57.7862 47.4164 58.5217 47.3864C59.1435 47.3609 59.853 47.3056 60.455 47.4991C60.455 47.4991 61.565 48.8404 62.8707 48.9012C63.654 48.9377 64.4958 47.9661 65.2442 47.4991C65.8928 47.4317 66.5453 47.3871 67.197 47.3671C67.7967 47.3487 68.3945 47.4156 68.9742 47.5624Z" fill="#071B40"/>
<path d="M63.0747 24.2017L51.3887 28.8705L63.338 32.4442L74.816 28.746L63.0747 24.2017Z" fill="#071B40"/>
<path d="M69.73 28.6765H56.2168V32.0728H69.73V28.6765Z" fill="#0D42AA"/>
<path d="M72.872 22.8687H72.6514V31.5206H72.872V22.8687Z" fill="#DC9626"/>
<path d="M72.7616 31.4387C72.4197 31.4387 72.1426 31.7159 72.1426 32.0577V33.6329H73.3806V32.0577C73.3806 31.7159 73.1034 31.4387 72.7616 31.4387Z" fill="#DC9626"/>
<path d="M60.2767 46.1841L62.87 48.9013L61.0978 50.6734L58.5557 48.1314L60.2767 46.1841Z" fill="white"/>
<path d="M65.4636 46.1841L62.8701 48.9013L64.6425 50.6734L67.1844 48.1314L65.4636 46.1841Z" fill="white"/>
<path d="M68.3433 47.4357C67.9647 47.3789 67.5862 47.3394 67.2017 47.3512C66.9813 47.3581 66.7467 47.3744 66.5262 47.3867L67.1845 48.1312L64.6423 50.6734L62.8702 48.9012L61.098 50.6734L58.5558 48.1312L59.2373 47.3601C58.9932 47.3636 58.7378 47.3614 58.5078 47.3707C58.1495 47.3854 57.8152 47.4256 57.4795 47.4822L62.9627 53.5804L68.3433 47.4357Z" fill="#EAEAEA"/>
<path d="M69.5412 47.7335C69.3593 47.67 69.16 47.6094 68.9738 47.5622C68.7657 47.5095 68.5555 47.4674 68.3433 47.4355L62.9629 53.5927L57.4857 47.4859C57.1323 47.5455 56.7785 47.639 56.4255 47.78C55.9752 47.9599 55.5457 48.1742 55.0967 48.3574V55.5335C55.2783 55.7544 55.3455 56.072 55.3568 56.4175H70.6872C70.6902 56.2702 70.6923 56.1244 70.6963 55.975C70.7003 55.822 70.7063 55.6655 70.7702 55.523C70.8445 55.3572 70.9748 55.2522 71.1375 55.187L71.1458 48.4067C70.6088 48.1817 70.0913 47.9257 69.5412 47.7335Z" fill="#0D42AA"/>
<path d="M53.7748 53.8027C53.7967 54.4752 53.6325 55.2397 53.622 55.6957C53.5868 57.2374 53.548 58.8269 53.5135 60.3389C53.4482 63.0819 53.2948 64.8107 53.2295 67.5537C53.2295 67.5537 54.2475 67.8831 56.0828 68.1759V53.8027H53.7748Z" fill="#0A2249"/>
<path d="M56.083 53.8027V68.1759C57.2067 68.3552 58.6368 68.5204 60.3283 68.5884V53.8027H56.083Z" fill="#071B40"/>
<path d="M60.3281 53.8027V68.5884C61.6018 68.6396 63.0233 68.6351 64.5733 68.5394V53.8027H60.3281Z" fill="#0A2249"/>
<path d="M64.5732 68.5394C65.8984 68.4577 67.3176 68.3089 68.8186 68.0714V53.8027H64.5732V68.5394Z" fill="#071B40"/>
<path d="M71.5012 67.5662C71.5 67.5197 71.499 67.4732 71.4979 67.4267C71.3817 62.5606 71.0385 58.6086 71.1359 53.8027H68.8184V68.0714C69.6864 67.9341 70.581 67.7676 71.5012 67.5662Z" fill="#0A2249"/>
<path d="M109.612 70.2417H15.3882C14.4134 70.2417 13.623 71.032 13.623 72.0069C13.623 72.9817 14.4134 73.772 15.3882 73.772H109.612C110.587 73.772 111.377 72.9817 111.377 72.0069C111.377 71.032 110.587 70.2417 109.612 70.2417Z" fill="#5C8CE0"/>
<path d="M110.67 70.5969C110.692 70.7088 110.704 70.8241 110.704 70.9424C110.704 71.9173 109.914 72.7076 108.939 72.7076H14.7156C14.3179 72.7076 13.9522 72.5746 13.6572 72.3526C13.8179 73.1619 14.5316 73.7723 15.3881 73.7723H109.612C110.587 73.7723 111.377 72.9819 111.377 72.0071C111.377 71.4299 111.098 70.9189 110.67 70.5969Z" fill="#A0CFF9"/>
<path d="M75.2622 51.3159H49.7375C48.5708 51.3159 47.625 52.2616 47.625 53.4283L48.4932 70.2418H76.5065L77.3747 53.4283C77.3747 52.2618 76.4288 51.3159 75.2622 51.3159Z" fill="#EFEFEF"/>
<path d="M48.4492 69.3867H76.5505L76.5065 70.2419H48.4934L48.4492 69.3867Z" fill="#071B40"/>
<path d="M62.4999 60.345C63.3789 60.345 64.0915 59.6323 64.0915 58.7533C64.0915 57.8742 63.3789 57.1616 62.4999 57.1616C61.6208 57.1616 60.9082 57.8742 60.9082 58.7533C60.9082 59.6323 61.6208 60.345 62.4999 60.345Z" fill="#071B40"/>
<path d="M96.7498 65.7563H81.7725V66.0167H96.7498V65.7563Z" fill="white"/>
<path d="M96.7985 66.0168H81.7725V66.2772H96.7985V66.0168Z" fill="white"/>
<path d="M96.8461 66.2771H81.7725V66.5374H96.8461V66.2771Z" fill="#F0E2D5"/>
<path d="M96.7985 66.5376H81.7725V66.7979H96.7985V66.5376Z" fill="white"/>
<path d="M96.7498 66.7981H81.7725V67.0584H96.7498V66.7981Z" fill="white"/>
<path d="M96.8461 67.0583H81.7725V67.3187H96.8461V67.0583Z" fill="#F0E2D5"/>
<path d="M96.8461 67.3186H81.7725V67.5789H96.8461V67.3186Z" fill="#F0E2D5"/>
<path d="M96.7498 67.5791H81.7725V67.8394H96.7498V67.5791Z" fill="white"/>
<path d="M96.7985 67.8396H81.7725V68.0999H96.7985V67.8396Z" fill="white"/>
<path d="M96.7985 68.0999H81.7725V68.3602H96.7985V68.0999Z" fill="#F0E2D5"/>
<path d="M96.7498 68.3604H81.7725V68.6207H96.7498V68.3604Z" fill="white"/>
<path d="M96.7498 68.6206H81.7725V68.8809H96.7498V68.6206Z" fill="white"/>
<path d="M96.6943 68.8811H81.7725V69.1414H96.6943V68.8811Z" fill="#F0E2D5"/>
<path d="M96.6943 69.1416H81.7725V69.4019H96.6943V69.1416Z" fill="white"/>
<path d="M96.7498 69.4019H81.7725V69.6622H96.7498V69.4019Z" fill="white"/>
<path d="M96.7498 69.6621H81.7725V69.9224H96.7498V69.6621Z" fill="#F0E2D5"/>
<path opacity="0.29" d="M82.2441 65.8477C82.2441 65.8477 85.7959 69.466 94.4099 69.7162H82.8259C82.8259 69.7162 82.5077 69.7328 82.2441 69.6248C81.9806 69.5168 82.2441 65.8477 82.2441 65.8477Z" fill="#CCCCCC"/>
<path d="M82.2438 65.8476C82.2438 65.8476 83.4373 67.5536 82.2438 69.6248C82.2438 69.6248 79.6836 69.4883 81.1555 66.2644C81.1555 66.2644 81.9783 65.3276 82.2438 65.8476Z" fill="#071B40"/>
<path d="M97.2403 70.242H82.8258C81.4895 70.242 80.4023 69.1548 80.4023 67.8185V67.6545C80.4023 66.3181 81.4895 65.231 82.8258 65.231H97.2403C97.3855 65.231 97.5032 65.3486 97.5032 65.4938C97.5032 65.639 97.3855 65.7566 97.2403 65.7566H82.8258C81.7793 65.7566 80.9278 66.608 80.9278 67.6546V67.8186C80.9278 68.8651 81.7793 69.7166 82.8258 69.7166H97.2403C97.3855 69.7166 97.5032 69.8343 97.5032 69.9795C97.5032 70.1243 97.3855 70.242 97.2403 70.242Z" fill="#D6409A"/>
<path d="M92.4387 61.4441H79.5391V61.6684H92.4387V61.4441Z" fill="white"/>
<path d="M92.4806 61.6685H79.5391V61.8928H92.4806V61.6685Z" fill="white"/>
<path d="M92.5216 61.8926H79.5391V62.1169H92.5216V61.8926Z" fill="#F0E2D5"/>
<path d="M92.4806 62.1169H79.5391V62.3413H92.4806V62.1169Z" fill="white"/>
<path d="M92.4387 62.3413H79.5391V62.5655H92.4387V62.3413Z" fill="white"/>
<path d="M92.5216 62.5654H79.5391V62.7898H92.5216V62.5654Z" fill="#F0E2D5"/>
<path d="M92.5216 62.7896H79.5391V63.0139H92.5216V62.7896Z" fill="white"/>
<path d="M92.4387 63.0139H79.5391V63.2382H92.4387V63.0139Z" fill="white"/>
<path d="M92.4806 63.2383H79.5391V63.4626H92.4806V63.2383Z" fill="#F0E2D5"/>
<path d="M92.4806 63.4624H79.5391V63.6867H92.4806V63.4624Z" fill="#F0E2D5"/>
<path d="M92.4387 63.6868H79.5391V63.9111H92.4387V63.6868Z" fill="white"/>
<path d="M92.4387 63.9111H79.5391V64.1355H92.4387V63.9111Z" fill="white"/>
<path d="M92.3909 64.1353H79.5391V64.3594H92.3909V64.1353Z" fill="#F0E2D5"/>
<path d="M92.3909 64.3594H79.5391V64.5837H92.3909V64.3594Z" fill="white"/>
<path d="M92.4387 64.5837H79.5391V64.8081H92.4387V64.5837Z" fill="white"/>
<path d="M92.4387 64.8081H79.5391V65.0324H92.4387V64.8081Z" fill="#F0E2D5"/>
<path opacity="0.28" d="M79.9824 61.1958C79.9824 61.1958 83.3856 64.6626 91.6391 64.9025H80.5397C80.5397 64.9025 80.2349 64.9185 79.9822 64.815C79.7299 64.7113 79.9824 61.1958 79.9824 61.1958Z" fill="#CCCCCC"/>
<path d="M79.9455 61.5226C79.9455 61.5226 80.9735 62.9919 79.9455 64.7757C79.9455 64.7757 77.7405 64.6582 79.0082 61.8816C79.0082 61.8816 79.7169 61.0747 79.9455 61.5226Z" fill="#071B40"/>
<path d="M92.8615 65.3072H80.4467C79.2957 65.3072 78.3594 64.3709 78.3594 63.2199V63.0785C78.3594 61.9275 79.2957 60.9912 80.4467 60.9912H92.8615C92.9865 60.9912 93.0879 61.0925 93.0879 61.2175C93.0879 61.3425 92.9865 61.4439 92.8615 61.4439H80.4467C79.5454 61.4439 78.812 62.1772 78.812 63.0785V63.2199C78.812 64.1212 79.5454 64.8545 80.4467 64.8545H92.8615C92.9865 64.8545 93.0879 64.9559 93.0879 65.0809C93.0879 65.2059 92.9865 65.3072 92.8615 65.3072Z" fill="#FFCA60"/>
<path d="M80.2341 53.0364H93.1338V52.812H80.2341V53.0364Z" fill="white"/>
<path d="M80.1923 53.2607H93.1338V53.0364H80.1923V53.2607Z" fill="white"/>
<path d="M80.1513 53.4851H93.1338V53.2608H80.1513V53.4851Z" fill="#F0E2D5"/>
<path d="M80.1923 53.7092H93.1338V53.4849H80.1923V53.7092Z" fill="white"/>
<path d="M80.2341 53.9336H93.1338V53.7093H80.2341V53.9336Z" fill="white"/>
<path d="M80.1513 54.1577H93.1338V53.9334H80.1513V54.1577Z" fill="#F0E2D5"/>
<path d="M80.1513 54.3821H93.1338V54.1577H80.1513V54.3821Z" fill="white"/>
<path d="M80.2341 54.6064H93.1338V54.3821H80.2341V54.6064Z" fill="white"/>
<path d="M80.1923 54.8306H93.1338V54.6062H80.1923V54.8306Z" fill="#F0E2D5"/>
<path d="M80.1923 55.0549H93.1338V54.8306H80.1923V55.0549Z" fill="#F0E2D5"/>
<path d="M80.2341 55.2791H93.1338V55.0549H80.2341V55.2791Z" fill="white"/>
<path d="M80.2341 55.5034H93.1338V55.2791H80.2341V55.5034Z" fill="white"/>
<path d="M80.282 55.7275H93.1338V55.5032H80.282V55.7275Z" fill="#F0E2D5"/>
<path d="M80.282 55.9519H93.1338V55.7276H80.282V55.9519Z" fill="white"/>
<path d="M80.2341 56.1763H93.1338V55.9519H80.2341V56.1763Z" fill="white"/>
<path d="M80.2341 56.4004H93.1338V56.1762H80.2341V56.4004Z" fill="#F0E2D5"/>
<path opacity="0.28" d="M92.6899 52.564C92.6899 52.564 89.2867 56.031 81.0332 56.2706H92.1325C92.1325 56.2706 92.4374 56.2866 92.6899 56.1831C92.9425 56.0796 92.6899 52.564 92.6899 52.564Z" fill="#CCCCCC"/>
<path d="M92.7274 52.8907C92.7274 52.8907 91.6994 54.3601 92.7274 56.1439C92.7274 56.1439 94.9324 56.0264 93.6647 53.2497C93.6647 53.2497 92.9562 52.4429 92.7274 52.8907Z" fill="#071B40"/>
<path d="M79.8113 56.6752H92.2261C93.3771 56.6752 94.3135 55.7389 94.3135 54.5879V54.4467C94.3135 53.2957 93.3771 52.3594 92.2261 52.3594H79.8113C79.6863 52.3594 79.585 52.4607 79.585 52.5857C79.585 52.7107 79.6863 52.812 79.8113 52.812H92.2261C93.1275 52.812 93.8608 53.5454 93.8608 54.4467V54.5879C93.8608 55.4892 93.1275 56.2225 92.2261 56.2225H79.8113C79.6863 56.2225 79.585 56.3239 79.585 56.4489C79.585 56.5739 79.6863 56.6752 79.8113 56.6752Z" fill="#D6409A"/>
<path d="M96.0374 57.1282H83.1377V57.3525H96.0374V57.1282Z" fill="white"/>
<path d="M96.0792 57.3523H83.1377V57.5766H96.0792V57.3523Z" fill="white"/>
<path d="M96.1202 57.5767H83.1377V57.8008H96.1202V57.5767Z" fill="#F0E2D5"/>
<path d="M96.0792 57.801H83.1377V58.0254H96.0792V57.801Z" fill="white"/>
<path d="M96.0374 58.0251H83.1377V58.2495H96.0374V58.0251Z" fill="#F0E2D5"/>
<path d="M96.1202 58.2495H83.1377V58.4738H96.1202V58.2495Z" fill="white"/>
<path d="M96.1202 58.4736H83.1377V58.698H96.1202V58.4736Z" fill="#F0E2D5"/>
<path d="M96.0374 58.698H83.1377V58.9223H96.0374V58.698Z" fill="white"/>
<path d="M96.0792 58.9224H83.1377V59.1467H96.0792V58.9224Z" fill="#F0E2D5"/>
<path d="M96.0792 59.1465H83.1377V59.3708H96.0792V59.1465Z" fill="white"/>
<path d="M96.0374 59.3708H83.1377V59.5952H96.0374V59.3708Z" fill="#F0E2D5"/>
<path d="M96.0374 59.595H83.1377V59.8193H96.0374V59.595Z" fill="white"/>
<path d="M95.9895 59.8193H83.1377V60.0437H95.9895V59.8193Z" fill="#F0E2D5"/>
<path d="M95.9895 60.0437H83.1377V60.2679H95.9895V60.0437Z" fill="#F0E2D5"/>
<path d="M96.0374 60.2678H83.1377V60.4922H96.0374V60.2678Z" fill="white"/>
<path d="M96.0374 60.4922H83.1377V60.7164H96.0374V60.4922Z" fill="#F0E2D5"/>
<path opacity="0.28" d="M83.4117 57.0684C83.4117 57.0684 86.6572 60.3747 94.5284 60.6032H83.9434C83.9434 60.6032 83.6526 60.6184 83.4117 60.5197C83.1709 60.421 83.4117 57.0684 83.4117 57.0684Z" fill="#CCCCCC"/>
<path d="M83.5432 57.2069C83.5432 57.2069 84.5712 58.6762 83.5432 60.4601C83.5432 60.4601 81.3382 60.3426 82.6058 57.5659C82.6058 57.5659 83.3143 56.7591 83.5432 57.2069Z" fill="#FFCA60"/>
<path d="M96.4592 60.9914H84.0444C82.8934 60.9914 81.957 60.055 81.957 58.904V58.7629C81.957 57.6119 82.8934 56.6755 84.0444 56.6755H96.4592C96.5842 56.6755 96.6855 56.7769 96.6855 56.9019C96.6855 57.0269 96.5842 57.1282 96.4592 57.1282H84.0444C83.143 57.1282 82.4097 57.8615 82.4097 58.7629V58.904C82.4097 59.8054 83.143 60.5387 84.0444 60.5387H96.4592C96.5842 60.5387 96.6855 60.64 96.6855 60.765C96.6855 60.89 96.5842 60.9914 96.4592 60.9914Z" fill="#5C8CE0"/>
<path d="M29.9864 68.7724L25.3711 55.4923L34.8811 46.8564L35.3563 47.3798L26.1923 55.7016L30.6543 68.5404L29.9864 68.7724Z" fill="#0D42AA"/>
<path d="M43.5256 47.6239C41.4873 45.3624 38.2036 44.9994 36.1916 46.8131C34.1794 48.6267 34.2008 51.9302 36.2391 54.1916L43.5256 47.6239Z" fill="#2A6BBF"/>
<path d="M42.9615 48.1331L43.5255 47.6248C41.4872 45.3633 38.2035 45.0005 36.1915 46.814C36.0948 46.9011 36.0043 46.9926 35.917 47.0865C37.9428 45.549 41.0175 45.9773 42.9615 48.1331Z" fill="#8EB4FB"/>
<path d="M37.4605 45.9904C36.84 45.3019 35.8403 45.1914 35.2277 45.7435C34.6152 46.2957 34.6215 47.3014 35.2422 47.9899L37.4605 45.9904Z" fill="#2A6BBF"/>
<path d="M37.3545 46.0874L37.4609 45.9916C36.8404 45.3031 35.8407 45.1926 35.228 45.7448C35.208 45.7628 35.1905 45.7826 35.1719 45.8014C35.7875 45.2974 36.75 45.4176 37.3545 46.0874Z" fill="#8EB4FB"/>
<path d="M39.3076 51.4074C39.7265 51.8721 40.4011 51.9466 40.8145 51.5741C41.2278 51.2014 41.2234 50.5228 40.8046 50.0581L39.3076 51.4074Z" fill="#FAAA4B"/>
<path d="M34.5893 70.2419H25.7242C25.4008 70.2419 25.1387 69.9797 25.1387 69.6564V69.0794C25.1387 68.7561 25.4008 68.4939 25.7242 68.4939H34.5893C34.9127 68.4939 35.1748 68.7561 35.1748 69.0794V69.6564C35.1748 69.9799 34.9127 70.2419 34.5893 70.2419Z" fill="#2A6BBF"/>
<path d="M34.7331 68.4978C34.7377 68.5258 34.7417 68.5543 34.7417 68.5836V69.2983C34.7417 69.5836 34.5104 69.815 34.2251 69.815H25.2222C25.1952 69.815 25.1694 69.811 25.1436 69.807C25.1847 70.0513 25.3957 70.2378 25.6516 70.2378H34.6544C34.9397 70.2378 35.1711 70.0065 35.1711 69.7211V69.0065C35.1712 68.7481 34.9809 68.536 34.7331 68.4978Z" fill="#8EB4FB"/>
<path d="M41.0134 55.931L40.3506 56.0127L41.1919 62.835L41.8548 62.7532L41.0134 55.931Z" fill="#2F54A4"/>
<path d="M41.8523 62.7539L41.1895 62.8356L41.6048 63.4756L41.8523 62.7539Z" fill="#33334F"/>
<path d="M41.0124 55.9319L40.252 56.0256L40.2959 56.3823L41.0564 56.2885L41.0124 55.9319Z" fill="#071B40"/>
<path d="M40.2521 56.0254L40.0605 56.0491L40.3404 58.3181L40.5319 58.2945L40.2521 56.0254Z" fill="#071B40"/>
<path d="M40.5036 56.3568L40.3916 56.3706L41.1883 62.8362L41.3003 62.8224L40.5036 56.3568Z" fill="#446FBC"/>
<path d="M40.894 55.6257L40.3672 55.6907L40.4061 56.0061L40.9329 55.9411L40.894 55.6257Z" fill="#2F54A4"/>
<path d="M41.7005 62.6975L41.04 62.5986L41.2687 63.3265L41.7005 62.6975Z" fill="#33334F"/>
<path d="M42.2152 56.3252L41.6289 62.813L42.294 62.8731L42.8803 56.3853L42.2152 56.3252Z" fill="#EF9737"/>
<path d="M42.8849 56.3826L42.6602 56.3623L42.0739 62.8501L42.2986 62.8704L42.8849 56.3826Z" fill="#FAAA4B"/>
<path d="M42.3292 56.3346L42.2168 56.3245L41.6305 62.8122L41.7429 62.8224L42.3292 56.3346Z" fill="#FAAA4B"/>
<path d="M42.6309 55.4965C42.4469 55.4798 42.2844 55.6155 42.2677 55.7995L42.2617 55.8653L42.9279 55.9255L42.9339 55.8597C42.9506 55.6757 42.8149 55.5132 42.6309 55.4965Z" fill="#D6409A"/>
<path d="M42.9286 55.9187L42.2617 55.8584L42.2198 56.3223L42.8867 56.3826L42.9286 55.9187Z" fill="#FFDD9F"/>
<path d="M43.4767 56.5208L42.7939 62.9995L43.4581 63.0695L44.1408 56.5908L43.4767 56.5208Z" fill="#EF9737"/>
<path d="M44.1414 56.592L43.917 56.5684L43.2343 63.047L43.4587 63.0707L44.1414 56.592Z" fill="#FAAA4B"/>
<path d="M43.5888 56.5353L43.4766 56.5234L42.7932 63.0021L42.9054 63.0139L43.5888 56.5353Z" fill="#FAAA4B"/>
<path d="M43.9001 55.6986C43.7164 55.6793 43.5517 55.8125 43.5324 55.9961L43.5254 56.062L44.1906 56.1321L44.1976 56.0663C44.2169 55.8826 44.0837 55.718 43.9001 55.6986Z" fill="#D6409A"/>
<path d="M44.1933 56.1276L43.5273 56.0574L43.4785 56.5206L44.1445 56.5908L44.1933 56.1276Z" fill="#FFDD9F"/>
<path d="M44.4209 70.2419H39.1467L38.6914 60.6042H44.8762L44.4209 70.2419Z" fill="#D6409A"/>
<path d="M38.6914 60.6042L39.1467 70.2419H40.0519L39.5966 60.6042H38.6914Z" fill="#FF6299"/>
<path d="M76.9549 36.1643H95.5322V24.1571H76.9549V36.1643Z" fill="white"/>
<path d="M77.9383 35.2524H94.5479V25.0689H77.9383V35.2524Z" stroke="#2C478A" stroke-width="0.166667" stroke-miterlimit="10"/>
<path d="M79.1206 32.2683H93.5518V31.397H79.1206V32.2683Z" fill="#FFCA60"/>
<path d="M79.8857 30.8958H92.6016V28.6128H79.8857V30.8958Z" fill="#FFCA60"/>
<path d="M84.9678 26.8974C84.9678 27.5402 85.4889 28.0614 86.1318 28.0614C86.7746 28.0614 87.2958 27.5402 87.2958 26.8974C87.2958 26.2546 86.7746 25.7334 86.1318 25.7334C85.4889 25.7332 84.9678 26.2544 84.9678 26.8974Z" fill="#FFCA60"/>
<path d="M92.667 33.5549H88.501" stroke="#2C478A" stroke-width="0.166667" stroke-miterlimit="10"/>
<path d="M84.1924 33.5549H80.0264" stroke="#2C478A" stroke-width="0.166667" stroke-miterlimit="10"/>
<path d="M79.6925 26.6405L78.7642 28.0616L78.6844 27.7711L78.4082 27.829L79.3365 26.408L79.6925 26.6405Z" fill="#D6409A"/>
<path d="M79.0389 26.4341L80.0274 27.8139L79.7277 27.7832L79.6819 28.0616L78.6934 26.6817L79.0389 26.4341Z" fill="#D6409A"/>
<path d="M79.0961 25.6374C79.0721 25.733 78.9524 25.7652 78.8837 25.6942C78.7927 25.6002 78.6366 25.6904 78.6726 25.8162C78.6997 25.911 78.6121 25.9987 78.5172 25.9715C78.3914 25.9355 78.3012 26.0917 78.3952 26.1827C78.4661 26.2512 78.4341 26.371 78.3384 26.395C78.2114 26.4269 78.2114 26.6072 78.3384 26.6389C78.4341 26.6629 78.4662 26.7825 78.3952 26.8512C78.3012 26.9422 78.3914 27.0984 78.5172 27.0624C78.6121 27.0352 78.6997 27.123 78.6726 27.2177C78.6366 27.3435 78.7927 27.4337 78.8837 27.3397C78.9522 27.2689 79.0721 27.3009 79.0961 27.3965C79.1279 27.5234 79.3082 27.5234 79.3399 27.3965C79.3639 27.3009 79.4836 27.2687 79.5522 27.3397C79.6432 27.4337 79.7994 27.3435 79.7634 27.2177C79.7362 27.1229 79.8239 27.0352 79.9187 27.0624C80.0446 27.0984 80.1347 26.9422 80.0407 26.8512C79.9699 26.7827 80.0019 26.6629 80.0976 26.6389C80.2244 26.607 80.2244 26.4267 80.0976 26.395C80.0019 26.371 79.9697 26.2514 80.0407 26.1827C80.1347 26.0917 80.0446 25.9355 79.9187 25.9715C79.8239 25.9987 79.7362 25.911 79.7634 25.8162C79.7994 25.6904 79.6432 25.6002 79.5522 25.6942C79.4837 25.765 79.3639 25.733 79.3399 25.6374C79.3082 25.5105 79.1277 25.5105 79.0961 25.6374Z" fill="white" stroke="#E2A32A" stroke-width="0.125" stroke-miterlimit="10"/>
<path d="M78.5342 26.5169C78.5342 26.8948 78.8405 27.2011 79.2183 27.2011C79.5962 27.2011 79.9025 26.8948 79.9025 26.5169C79.9025 26.1391 79.5962 25.8328 79.2183 25.8328C78.8405 25.8328 78.5342 26.1391 78.5342 26.5169Z" fill="white" stroke="#E2A32A" stroke-width="0.125" stroke-miterlimit="10"/>
<path d="M79.206 26.262L79.1163 26.4436L78.916 26.4728L79.061 26.6141L79.0268 26.8138L79.206 26.7196L79.3853 26.8138L79.3512 26.6141L79.4962 26.4728L79.2957 26.4436L79.206 26.262Z" fill="#DC9626"/>
<path d="M85.1494 37.5304C85.1224 37.4436 85.0954 37.3567 85.0687 37.2704C84.924 36.8002 84.7665 36.3339 84.5984 35.8711C84.4989 35.5974 84.1949 35.0917 84.3882 34.8284C84.5297 34.6359 84.8725 34.5802 85.0522 34.7507C85.2107 34.9011 85.2772 35.1371 85.3805 35.3206C85.565 35.6479 85.8461 35.9221 86.0882 36.2101C86.1746 36.3127 86.2401 36.4752 86.3834 36.5167C85.9197 36.7891 85.5045 37.1317 85.1494 37.5304Z" fill="#F1CBA9"/>
<path d="M38.2293 31.9435L37.0459 30.76L35.8624 31.9435L37.0459 33.1269L38.2293 31.9435Z" fill="#D6409A"/>
<path d="M48.3504 42.848L47.167 41.6646L45.9835 42.848L47.167 44.0315L48.3504 42.848Z" fill="#D6409A"/>
<path d="M24.4305 34.7342L23.2471 33.5508L22.0636 34.7342L23.2471 35.9177L24.4305 34.7342Z" fill="#D6409A"/>
<path d="M29.9639 42.3325L28.3828 41.7837L27.834 43.3648L29.4151 43.9136L29.9639 42.3325Z" fill="#D6409A"/>
<path d="M25.3608 65.0271L23.4307 64.3572L22.7607 66.2874L24.6909 66.9573L25.3608 65.0271Z" fill="#D6409A"/>
<path d="M32.4309 35.2555L33.0361 36.3508L34.1313 35.7456L33.526 34.6503L32.4309 35.2555Z" fill="#DC9626"/>
<path d="M25.2674 28.4562L23.3965 29.8716L24.8118 31.7425L26.6828 30.3272L25.2674 28.4562Z" fill="#DC9626"/>
<path d="M37.4908 40.7227L37.8613 41.3931L38.5317 41.0226L38.1612 40.3521L37.4908 40.7227Z" fill="white"/>
<path d="M33.9049 25.1135L34.2754 25.7839L34.9459 25.4134L34.5754 24.7429L33.9049 25.1135Z" fill="white"/>
<path d="M29.2623 53.2048L29.6328 53.8752L30.3033 53.5047L29.9328 52.8342L29.2623 53.2048Z" fill="#DC9626"/>
<path d="M33.901 56.7844L34.2715 57.4548L34.9419 57.0843L34.5714 56.4139L33.901 56.7844Z" fill="white"/>
<path d="M19.3502 65.2727L19.7207 65.9431L20.3911 65.5726L20.0206 64.9022L19.3502 65.2727Z" fill="white"/>
<path d="M95.3202 41.7265L96.9814 41.9297L97.1846 40.2684L95.5233 40.0652L95.3202 41.7265Z" fill="#D6409A"/>
<path d="M80.9208 24.8723L82.582 25.0757L82.7854 23.4144L81.1241 23.2111L80.9208 24.8723Z" fill="#D6409A"/>
<path d="M87.6395 16.6298L89.3008 16.833L89.504 15.1717L87.8427 14.9685L87.6395 16.6298Z" fill="#D6409A"/>
<path d="M102.869 30.3496L104.53 30.5527L104.733 28.8915L103.072 28.6883L102.869 30.3496Z" fill="white"/>
<path d="M73.7273 12.7552L75.2861 12.146L74.6769 10.5871L73.1181 11.1964L73.7273 12.7552Z" fill="#D6409A"/>
<path d="M40.8416 21.3403L42.5029 21.5435L42.7061 19.8822L41.0448 19.679L40.8416 21.3403Z" fill="white"/>
<path d="M95.4281 28.4519L97.0117 27.9102L96.47 26.3265L94.8863 26.8683L95.4281 28.4519Z" fill="#D6409A"/>
<path d="M95.4271 51.9207L97.0107 51.3789L96.469 49.7953L94.8853 50.337L95.4271 51.9207Z" fill="#D6409A"/>
<path d="M97.8515 35.5387L96.7002 35.0488L96.2103 36.2003L97.3616 36.6901L97.8515 35.5387Z" fill="#DC9626"/>
<path d="M106.766 35.6746L107.087 34.4653L105.877 34.1442L105.556 35.3535L106.766 35.6746Z" fill="#DC9626"/>
<path d="M90.4978 34.3534L89.793 34.0535L89.4931 34.7583L90.198 35.0582L90.4978 34.3534Z" fill="white"/>
<path d="M97.5359 57.8455L96.8311 57.5457L96.5312 58.2505L97.236 58.5504L97.5359 57.8455Z" fill="white"/>
<path d="M100.167 54.7152L99.4619 54.4153L99.162 55.1202L99.8669 55.42L100.167 54.7152Z" fill="white"/>
<path d="M89.2918 19.4456L88.5869 19.1458L88.287 19.8506L88.9919 20.1505L89.2918 19.4456Z" fill="#DC9626"/>
<path d="M43.2107 30.0924L42.5059 29.7925L42.206 30.4974L42.9108 30.7972L43.2107 30.0924Z" fill="#DC9626"/>
<path d="M43.7146 25.826L43.0098 25.5261L42.7099 26.231L43.4147 26.5309L43.7146 25.826Z" fill="#D6409A"/>
<path d="M72.1494 18.262L72.4502 17.1289L71.3171 16.8281L71.0163 17.9611L72.1494 18.262Z" fill="#DC9626"/>
<path d="M83.4314 19.4881L82.7266 19.1882L82.4267 19.8931L83.1315 20.193L83.4314 19.4881Z" fill="white"/>
<path d="M89.0779 26.8072L88.373 26.5073L88.0732 27.2122L88.778 27.5121L89.0779 26.8072Z" fill="#D6409A"/>
<path d="M55.6717 14.6272L55.0625 13.0684L53.5036 13.6776L54.1129 15.2364L55.6717 14.6272Z" fill="#D6409A"/>
<path d="M62.6499 11.9102L62.21 13.0815L63.3812 13.5215L63.8211 12.3501L62.6499 11.9102Z" fill="#DC9626"/>
<path d="M61.782 19.3081L61.5127 20.0251L62.2297 20.2945L62.4991 19.5774L61.782 19.3081Z" fill="white"/>
<path d="M46.9402 21.1526L46.6709 21.8696L47.388 22.139L47.6573 21.4219L46.9402 21.1526Z" fill="#DC9626"/>
<path d="M54.3045 21.0498L54.0352 21.7668L54.7522 22.0362L55.0215 21.3191L54.3045 21.0498Z" fill="#D6409A"/>
<path d="M106.025 67.856L104.781 66.7358L103.661 67.9794L104.905 69.0996L106.025 67.856Z" fill="#DC9626"/>
<path d="M98.7711 62.1675L98.0391 63.6726L99.5442 64.4047L100.276 62.8995L98.7711 62.1675Z" fill="white"/>
<path d="M44.5863 69.4973L45.3965 68.5979L44.4971 67.7877L43.6869 68.6871L44.5863 69.4973Z" fill="#DC9626"/>
<path d="M45.6162 61.2222L46.1289 60.6531L45.5598 60.1404L45.0471 60.7095L45.6162 61.2222Z" fill="white"/>
<path d="M73.5264 45.659L74.0391 45.0898L73.4699 44.5772L72.9572 45.1463L73.5264 45.659Z" fill="#D6409A"/>
<path d="M80.8199 42.0323L81.998 40.7244L80.6902 39.5463L79.5121 40.8542L80.8199 42.0323Z" fill="white"/>
<path d="M88.6996 49.4202L89.3359 49.8467L89.7624 49.2104L89.1261 48.7839L88.6996 49.4202Z" fill="#DC9626"/>
<path d="M85.1943 68.6258L85.707 68.0566L85.1379 67.544L84.6252 68.1131L85.1943 68.6258Z" fill="#DC9626"/>
<path d="M30.8275 22.4041L29.2705 25.1007H32.3845L30.8275 22.4041Z" fill="#D6409A"/>
<path d="M51.8911 35.4631L50.2725 36.5276L52.0036 37.3973L51.8911 35.4631Z" fill="#DC9626"/>
<path d="M74.2363 39.4668L74.6688 41.3551L76.088 40.0365L74.2363 39.4668Z" fill="#DC9626"/>
<path d="M99.4114 20.7703L97.8633 21.9349L99.6459 22.6934L99.4114 20.7703Z" fill="#DC9626"/>
<path d="M65.4652 20.7703L63.917 21.9349L65.6997 22.6934L65.4652 20.7703Z" fill="#DC9626"/>
<path d="M37.1151 15.5635L36.7119 17.4585L38.5546 16.8601L37.1151 15.5635Z" fill="#DC9626"/>
<path d="M19.8643 56.1786L22.9919 56.8439L22.0044 53.8027L19.8643 56.1786Z" fill="#DC9626"/>
<path d="M46.4154 13.4165L45.4258 13.9878L46.4154 14.5592V13.4165Z" fill="#DC9626"/>
</svg>
