<svg width="20" height="20" viewBox="0 0 20 20" fill="none" xmlns="http://www.w3.org/2000/svg">
<path d="M14.8872 5.10226H5.11305C3.83906 5.10226 2.80669 6.13484 2.80669 7.40861V13.953C2.80669 15.2268 3.83906 16.2594 5.11305 16.2594H6.8731V18.6593C6.8731 18.6744 6.89016 18.6832 6.90247 18.6744L10.5057 16.2857L11.4094 16.2689H13.9448L14.8872 16.2594C16.1609 16.2594 17.1935 15.2268 17.1935 13.953V7.40861C17.1935 6.13484 16.1609 5.10226 14.8872 5.10226ZM6.5382 8.56924C6.5382 7.93181 7.05492 7.41488 7.69256 7.41488C8.32999 7.41488 8.84671 7.93181 8.84671 8.56924C8.84671 9.20689 8.32999 9.72361 7.69256 9.72361C7.05492 9.72361 6.5382 9.20689 6.5382 8.56924ZM9.94688 14.3376C8.48352 14.3376 7.27474 13.3122 7.0899 11.984H12.8041C12.619 13.3122 11.4105 14.3376 9.94688 14.3376ZM12.3221 9.72361C11.6847 9.72361 11.1678 9.20689 11.1678 8.56924C11.1678 7.93181 11.6847 7.41488 12.3221 7.41488C12.9598 7.41488 13.4765 7.93181 13.4765 8.56924C13.4765 9.20689 12.9598 9.72361 12.3221 9.72361ZM17.6701 12.8069V8.6757H18.2419C18.6606 8.6757 19 9.01514 19 9.43383V12.049C19 12.4677 18.6606 12.8071 18.2419 12.8071H17.6701V12.8069ZM1 12.049V9.43383C1 9.01514 1.33944 8.6757 1.75813 8.6757H2.32992V12.8071H1.75813C1.33944 12.8069 1 12.4674 1 12.049ZM11.0684 2.12133C11.0684 2.62726 10.7318 3.05588 10.2708 3.19515V4.16447H9.62298V3.19515C9.16197 3.05588 8.82534 2.62726 8.82534 2.12133C8.82534 1.50312 9.32846 1 9.94688 1C10.5653 1 11.0684 1.50312 11.0684 2.12133Z" fill="#4A90EB"/>
</svg>
