<svg width="24" height="24" viewBox="0 0 24 24" fill="none" xmlns="http://www.w3.org/2000/svg">
<path d="M14.0389 0.182617H5.22168C4.36855 0.187305 3.67949 0.876367 3.6748 1.72949V22.2701C3.6748 23.1232 4.36855 23.8123 5.21699 23.8123H20.7045C21.5576 23.8123 22.2467 23.1186 22.2514 22.2701L22.2092 7.01231L14.0389 0.182617Z" fill="white"/>
<path d="M20.7047 24H5.22188C4.26563 24 3.49219 23.2266 3.49219 22.2703V1.72969C3.49219 0.773438 4.26563 0 5.22188 0H14.1094L22.3969 6.92813L22.4391 22.2703C22.4344 23.2266 21.6609 24 20.7047 24ZM5.22188 0.370313C4.47188 0.370313 3.8625 0.979688 3.8625 1.72969V22.2703C3.8625 23.0203 4.47188 23.6297 5.22188 23.6297H20.7094C21.4594 23.6297 22.0688 23.0203 22.0688 22.2703L22.0266 7.10156L13.9734 0.370313H5.22188Z" fill="#4A90EB"/>
<path d="M14.0391 0.182617L14.0156 6.85293C14.0156 6.85293 14.0391 7.01231 14.1797 7.01231H22.2094L14.0391 0.182617Z" fill="#4A90EB"/>
<path d="M2.20293 11.5732H17.7654C18.117 11.5732 18.4029 11.8592 18.4029 12.2107V19.1482C18.4029 19.4998 18.117 19.7857 17.7654 19.7857H2.20293C1.85137 19.7857 1.56543 19.4998 1.56543 19.1482V12.2107C1.56543 11.8545 1.85137 11.5732 2.20293 11.5732Z" fill="#4A90EB"/>
<path d="M4.26582 16.8137H3.11738L2.95801 17.3527H1.92676L3.15488 14.0855H4.25645L5.48457 17.3527H4.4252L4.26582 16.8137ZM4.05488 16.1059L3.69395 14.934L3.3377 16.1059H4.05488ZM7.77676 14.0855H8.78457V16.0309C8.78457 16.2184 8.75644 16.4012 8.69551 16.5793C8.63926 16.748 8.54082 16.9027 8.41426 17.0293C8.30176 17.1465 8.16113 17.2402 8.01113 17.3012C7.78144 17.3809 7.54238 17.4137 7.30332 17.409C7.12988 17.409 6.95645 17.3949 6.78301 17.3762C6.61895 17.3621 6.45957 17.3152 6.30957 17.2449C6.17832 17.1746 6.06113 17.0809 5.9627 16.9637C5.86426 16.8559 5.79395 16.7293 5.74707 16.5887C5.69082 16.4105 5.65801 16.223 5.65332 16.0355V14.0902H6.66113V16.0777C6.66113 16.2559 6.7127 16.3965 6.81113 16.4949C6.90957 16.5934 7.04551 16.6449 7.22363 16.6449C7.39707 16.6449 7.53301 16.5934 7.63145 16.4949C7.72988 16.3965 7.78145 16.2559 7.78145 16.073L7.77676 14.0855ZM9.46426 14.0855H10.9643C11.2596 14.0855 11.4986 14.1277 11.6814 14.2074C11.8596 14.2824 12.0143 14.4043 12.1314 14.5543C12.2533 14.709 12.3424 14.8871 12.3893 15.0793C12.4455 15.2855 12.4689 15.4965 12.4689 15.7121C12.4689 16.059 12.4268 16.3309 12.3471 16.523C12.2721 16.7059 12.1596 16.8699 12.0143 17.0059C11.8877 17.1277 11.7283 17.2168 11.5596 17.2637C11.3627 17.3199 11.1611 17.348 10.9596 17.3527H9.45957L9.46426 14.0855ZM10.4768 14.8262V16.6121H10.7252C10.9361 16.6121 11.0861 16.5887 11.1752 16.5418C11.2736 16.4855 11.3439 16.4012 11.3861 16.298C11.4377 16.1809 11.4611 15.9934 11.4611 15.7309C11.4611 15.384 11.4049 15.1496 11.2924 15.0184C11.1799 14.8918 10.9924 14.8262 10.7299 14.8262H10.4768ZM13.0408 14.0855H14.0533V17.3527H13.0408V14.0855ZM14.6533 15.7215C14.6533 15.1871 14.8033 14.7746 15.0986 14.4746C15.3939 14.1746 15.8111 14.0293 16.3408 14.0293C16.8846 14.0293 17.3018 14.1746 17.5971 14.4652C17.8924 14.7559 18.0377 15.1684 18.0377 15.6934C18.0377 16.073 17.9721 16.3871 17.8455 16.6309C17.7189 16.8699 17.5268 17.0715 17.2877 17.2027C17.0439 17.3387 16.7439 17.409 16.3783 17.409C16.008 17.409 15.7033 17.348 15.4643 17.2309C15.2158 17.109 15.0143 16.9168 14.8783 16.673C14.7283 16.4199 14.6533 16.1059 14.6533 15.7215ZM15.6611 15.7262C15.6611 16.0543 15.7221 16.2934 15.8439 16.4387C15.9705 16.584 16.1533 16.6637 16.3455 16.6543C16.5611 16.6543 16.7299 16.584 16.8518 16.4434C16.9689 16.3027 17.0299 16.0496 17.0299 15.684C17.0299 15.3746 16.9689 15.1496 16.8424 15.009C16.7158 14.8684 16.5471 14.798 16.3361 14.798C16.1486 14.7887 15.9658 14.8684 15.8439 15.0137C15.7221 15.1543 15.6611 15.3934 15.6611 15.7262Z" fill="white"/>
</svg>
