<svg width="94" height="95" viewBox="0 0 94 95" fill="none" xmlns="http://www.w3.org/2000/svg">
<path d="M63.6333 2.06609C56.7626 0.604422 49.6193 -0.0961401 42.6349 0.350415C36.4445 0.746221 29.4275 1.82651 24.4459 5.69611C22.0719 7.54019 19.2408 10.8538 18.4643 13.7771C18.4642 13.7774 14.3768 29.1641 6.20207 32.4613C-1.97271 35.7585 -7.64968 92.0309 54.3425 86.5355C54.3425 86.5355 90.7534 85.0955 92.9457 43.6176C93.4753 33.5978 93.1794 22.5826 86.8349 14.2044C81.973 7.78411 75.1611 4.92943 67.3335 2.93197C66.1107 2.61997 64.8765 2.33058 63.6333 2.06609Z" fill="#F4F7FA"/>
<mask id="mask0_167_4824" style="mask-type:luminance" maskUnits="userSpaceOnUse" x="60" y="33" width="33" height="34">
<path d="M92.8941 33.0139H60.7188V66.4624H92.8941V33.0139Z" fill="white"/>
</mask>
<g mask="url(#mask0_167_4824)">
<mask id="mask1_167_4824" style="mask-type:luminance" maskUnits="userSpaceOnUse" x="53" y="51" width="40" height="30">
<path d="M53.6123 75.1666L58.3608 80.0419C58.3608 80.0419 61.7556 78.5238 62.3569 75.61C63.5837 69.6649 68.7049 71.1544 70.9432 71.4573C74.3188 71.9142 77.4927 70.8447 75.6825 67.1019C73.8724 63.3591 81.0168 61.9335 86.3619 63.457C91.5924 64.9479 97.2609 56.5102 86.2362 52.2439C79.6523 49.6961 75.4785 55.1648 72.7142 57.4253C69.9499 59.6859 66.0474 56.101 64.1977 60.4304C62.6176 64.1285 62.729 68.1223 59.336 68.2964C55.9429 68.4704 53.7311 70.3007 53.6123 75.1666Z" fill="white"/>
</mask>
<g mask="url(#mask1_167_4824)">
<path d="M53.6123 75.1666L58.3608 80.0419C58.3608 80.0419 61.7556 78.5238 62.3569 75.61C63.5837 69.6649 68.7049 71.1544 70.9432 71.4573C74.3188 71.9142 77.0867 70.8684 76.0964 67.3299C74.976 63.3262 81.0168 61.9335 86.3619 63.457C91.5924 64.9479 97.2609 56.5102 86.2362 52.2439C79.6523 49.6961 75.4785 55.1648 72.7142 57.4253C69.9499 59.6859 66.0474 56.101 64.1977 60.4304C62.6176 64.1285 62.729 68.1223 59.336 68.2964C55.9429 68.4704 53.7311 70.3007 53.6123 75.1666Z" fill="url(#paint0_linear_167_4824)"/>
</g>
<mask id="mask2_167_4824" style="mask-type:luminance" maskUnits="userSpaceOnUse" x="53" y="51" width="40" height="30">
<path d="M53.6123 75.1666L58.3608 80.0419C58.3608 80.0419 61.7556 78.5238 62.3569 75.61C63.5837 69.6649 68.7049 71.1544 70.9432 71.4573C74.3188 71.9142 77.4927 70.8447 75.6825 67.1019C73.8724 63.3591 81.0168 61.9335 86.3619 63.457C91.5924 64.9479 97.2609 56.5102 86.2362 52.2439C79.6523 49.6961 75.4785 55.1648 72.7142 57.4253C69.9499 59.6859 66.0474 56.101 64.1977 60.4304C62.6176 64.1285 62.729 68.1223 59.336 68.2964C55.9429 68.4704 53.7311 70.3007 53.6123 75.1666Z" fill="white"/>
</mask>
<g mask="url(#mask2_167_4824)">
<g opacity="0.5">
<path d="M55.2148 77.7174L55.332 77.8006C55.3835 77.728 60.5666 70.4815 67.8709 64.8472C74.6001 59.6563 84.559 54.8114 93.789 61.2083L93.8709 61.0902C89.7621 58.2426 85.1701 57.3475 80.2223 58.4295C76.2699 59.2939 72.084 61.4154 67.7808 64.7351C60.4602 70.3828 55.2665 77.6447 55.2148 77.7174Z" fill="#BEB8F2"/>
<path d="M78.1748 58.9708L78.2871 59.0606C81.2742 55.3265 87.3643 51.9184 87.4255 51.8844L87.3557 51.7588C87.2943 51.793 81.1795 55.2149 78.1748 58.9708Z" fill="#BEB8F2"/>
<path d="M81.4912 58.3402C87.0244 59.7024 89.1415 63.9483 89.1622 63.991L89.2914 63.9283C89.2704 63.8849 87.1266 59.5796 81.5256 58.2007L81.4912 58.3402Z" fill="#BEB8F2"/>
<path d="M63.2964 68.7909C69.2698 65.2154 76.8879 70.656 76.9577 70.7152L77.0575 70.6121C76.9945 70.5475 69.249 65.0604 63.2227 68.6676L63.2964 68.7909Z" fill="#BEB8F2"/>
<path d="M65.3213 66.7564L65.4405 66.8367C67.925 63.1541 66.7771 57.6864 66.7652 57.6316L66.6248 57.662C66.6365 57.7163 67.7712 63.1252 65.3213 66.7564Z" fill="#BEB8F2"/>
</g>
</g>
<path d="M72.0445 68.1946C73.3576 69.5866 73.0851 71.4222 72.6798 72.7196C72.503 72.7701 72.4142 72.8442 72.2477 72.9345C70.7449 73.7486 69.9304 73.7757 68.3224 74.3443C67.9763 74.4667 66.8512 74.517 66.3902 74.508L65.531 74.4776C65.531 74.4776 62.9239 70.9277 64.7683 69.2304C66.6127 67.5332 64.5644 63.8476 63.7199 61.7614C63.2013 60.4803 63.3745 59.7282 63.2596 59.2269C62.0424 53.9201 60.0181 52.8344 60.6824 50.8656C61.4157 48.6921 64.0925 49.3932 65.0152 47.0711C66.057 44.4489 63.3432 41.7944 64.8836 39.5332C65.1477 39.1456 65.4296 38.7544 65.9566 38.4172C67.2575 37.5846 68.6554 38.0759 69.3286 36.609C70.6817 33.6606 73.803 31.8663 76.5738 33.737C79.3084 35.5832 78.37 41.0423 73.5464 46.5672C70.564 50.8874 70.7992 51.8655 71.8364 54.1176C72.5629 55.6951 75.5775 59.4907 73.696 61.8687C71.8145 64.2467 70.5433 66.6033 72.0445 68.1946Z" fill="url(#paint1_linear_167_4824)"/>
<mask id="mask3_167_4824" style="mask-type:luminance" maskUnits="userSpaceOnUse" x="63" y="32" width="16" height="43">
<path d="M72.0422 74.3379L65.7073 74.5839C65.7073 74.5839 62.9242 70.9277 64.7686 69.2304C66.613 67.5331 64.5647 63.8475 63.7202 61.7613C61.4288 56.1008 68.3798 54.7308 66.0659 47.2296C65.4505 45.2345 63.5543 41.6309 64.8839 39.5332C66.3987 37.1434 68.4632 38.4955 69.3289 36.609C70.682 33.6606 73.8033 31.8662 76.5741 33.737C79.3087 35.5832 78.3703 41.0423 73.5467 46.5672C70.5643 50.8874 70.7996 51.8655 71.8367 54.1176C72.5632 55.695 75.5778 59.4907 73.6963 61.8687C71.8148 64.2466 70.5437 66.6033 72.0448 68.1945C74.3289 70.6159 72.0422 74.3379 72.0422 74.3379Z" fill="white"/>
</mask>
<g mask="url(#mask3_167_4824)">
<g opacity="0.5">
<path d="M69.1966 74.1664L69.0725 74.186C68.9574 73.5017 68.8504 72.8102 68.7546 72.1306C68.0455 67.0985 67.8696 62.18 68.2319 57.5113C68.539 53.5554 69.2357 49.7231 70.3028 46.1211C71.161 43.2243 72.2624 40.4599 73.5762 37.9048C74.4999 36.1086 75.5182 34.4335 76.603 32.9263C76.792 32.6636 77.001 32.4045 77.2031 32.1539C77.4724 31.8201 77.7508 31.4749 77.9841 31.1184L78.0912 31.1778C77.8547 31.5391 77.5744 31.8867 77.3033 32.2228C77.1022 32.4721 76.8943 32.7299 76.7072 32.9899C75.6258 34.4925 74.6105 36.1625 73.6894 37.9537C72.3788 40.5025 71.2802 43.2602 70.4239 46.1503C69.359 49.745 68.6636 53.5696 68.3572 57.5179C67.9956 62.1786 68.1712 67.0894 68.8792 72.1136C68.9748 72.7924 69.0816 73.4829 69.1966 74.1664Z" fill="#FCFDFE"/>
<path d="M69.3199 50.5792L69.1959 50.5624C70.0566 45.6133 65.6443 38.1474 65.5996 38.0726L65.7097 38.0149C65.7546 38.0901 70.1876 45.5905 69.3199 50.5792Z" fill="#FCFDFE"/>
<path d="M68.2173 64.6006L68.0918 64.5973C68.2535 61.1766 73.8108 57.0177 73.8669 56.9761L73.9445 57.0667C73.8888 57.108 68.3764 61.2333 68.2173 64.6006Z" fill="#FCFDFE"/>
<path d="M68.3064 66.5463L68.1819 66.5636C67.8602 64.3546 66.1463 61.5199 63.3558 58.5819C63.2154 58.4341 63.2154 58.4341 63.2119 58.4123L63.3362 58.3935L63.2741 58.4029L63.3281 58.3728C63.3361 58.3836 63.3891 58.4394 63.4506 58.5041C66.257 61.459 67.9816 64.315 68.3064 66.5463Z" fill="#FCFDFE"/>
<path d="M72.942 39.47L72.8193 39.4468C73.4629 36.7175 73.4591 33.7216 73.4578 32.7372C73.4575 32.4989 73.4577 32.415 73.4632 32.3857L73.587 32.4042C73.583 32.4266 73.5832 32.5628 73.5835 32.7353C73.5847 33.7229 73.5885 36.7282 72.942 39.47Z" fill="#FCFDFE"/>
<path d="M71.1904 43.7741L71.0811 43.7183C72.4677 41.4255 77.8994 39.9684 78.1299 39.9075L78.1625 40.0195C78.1066 40.0343 72.5512 41.5242 71.1904 43.7741Z" fill="#FCFDFE"/>
</g>
</g>
<path d="M70.3575 78.0744C69.9396 78.0646 68.6533 81.9341 67.1721 79.333C66.8021 78.6831 66.2178 76.3633 63.1507 76.5703C62.5553 76.6105 61.9599 76.6506 61.3645 76.6908C60.7166 75.4109 60.343 74.0846 62.0902 73.3884C64.8037 72.3073 64.3247 67.6417 63.3618 66.0729C62.1701 64.1311 59.4934 59.5561 63.6603 57.8224C67.1292 56.3791 69.6816 56.1172 69.4204 51.7229C69.1591 47.3285 71.3655 44.343 75.5938 44.1707C80.0433 43.9894 83.0141 38.0669 86.8511 39.5506C93.5369 42.1359 88.9543 52.3509 81.6126 55.9292C74.271 59.5076 78.9764 61.6629 79.6031 65.2165C79.6426 65.5497 79.6781 66.0693 79.6036 66.6905C79.1449 70.5152 75.3098 71.5618 72.8351 74.91C69.4602 79.4762 71.0615 78.0908 70.3575 78.0744Z" fill="url(#paint2_linear_167_4824)"/>
<mask id="mask4_167_4824" style="mask-type:luminance" maskUnits="userSpaceOnUse" x="60" y="39" width="31" height="39">
<path d="M71.4491 76.7861L61.8155 77.7055C61.114 76.472 60.1386 74.1661 62.0903 73.3885C64.8038 72.3073 64.3248 67.6418 63.3619 66.0729C62.1701 64.1311 59.4934 59.5562 63.6604 57.8224C67.1293 56.3791 69.6817 56.1172 69.4204 51.7229C69.1592 47.3285 71.3656 44.343 75.5939 44.1707C80.0434 43.9894 83.0141 38.0668 86.8512 39.5506C93.537 42.1359 88.9544 52.3508 81.6127 55.9292C74.271 59.5075 78.9765 61.6628 79.6032 65.2165C80.4587 70.068 73.3452 69.7449 71.7237 71.8524C70.4524 73.5045 70.9646 75.551 71.4491 76.7861Z" fill="white"/>
</mask>
<g mask="url(#mask4_167_4824)">
<g opacity="0.5">
<path d="M66.7578 75.789L66.5488 75.7705C67.9562 61.3565 76.7715 47.6698 89.5546 40.0515L89.6669 40.219C76.9376 47.8052 68.1593 61.4348 66.7578 75.789Z" fill="#FCFDFE"/>
<path d="M68.2383 67.9936L68.0296 68.0144C67.3862 62.3563 61.7522 58.4572 61.6953 58.4185L61.818 58.2581C61.8756 58.2972 67.5846 62.2463 68.2383 67.9936Z" fill="#FCFDFE"/>
<path d="M67.0927 73.1442L66.8984 73.069C69.2103 67.733 80.1727 65.9181 80.2832 65.9004L80.3186 66.0956C80.2093 66.1132 69.3606 67.9097 67.0927 73.1442Z" fill="#FCFDFE"/>
<path d="M74.2554 54.9989L74.055 54.9396C75.4991 50.5737 71.8814 44.4373 71.8447 44.3759L72.0274 44.2788C72.0646 44.341 75.7262 50.5523 74.2554 54.9989Z" fill="#FCFDFE"/>
<path d="M80.1558 47.6912L80.0273 47.5343C84.3993 44.3528 91.8195 45.1304 91.894 45.1387L91.87 45.3354C91.7964 45.3271 84.4595 44.5592 80.1558 47.6912Z" fill="#FCFDFE"/>
</g>
</g>
</g>
<path d="M75.5405 89.032L56.5137 88.2959V48.7751L75.5405 48.3125V89.032Z" fill="url(#paint3_linear_167_4824)"/>
<path d="M89.348 88.1507L75.541 89.032V48.3125L89.348 48.9905V88.1507Z" fill="url(#paint4_linear_167_4824)"/>
<path opacity="0.3" d="M74.5124 88.9939L56.4365 88.2959V48.9084C57.5939 49.2943 60.2245 50.7504 60.2245 55.4124C60.2245 57.0839 60.6232 58.82 62.1657 59.6935C63.8721 60.6599 66.0262 60.6909 67.8433 61.3499C71.8934 62.8185 72.8485 67.7509 71.0295 71.28C70.2623 72.7685 69.0906 73.9688 68.4574 75.5579C67.9119 76.9265 67.7288 78.3899 68.0295 79.8394C68.587 82.5261 70.4659 84.7595 72.2965 86.705C73.0275 87.4818 73.7616 88.2364 74.5124 88.9939Z" fill="url(#paint5_linear_167_4824)"/>
<path d="M43.0099 63.5461V90.9708L41.4631 90.8774L24.6074 89.8472V63.0388L43.0099 63.5461Z" fill="url(#paint6_linear_167_4824)"/>
<path d="M59.0749 89.6594L43.0068 90.971V63.5456L59.0749 63.2239V89.6594Z" fill="url(#paint7_linear_167_4824)"/>
<path d="M24.6377 63.0389L42.1092 62.313L59.0754 63.2239L42.8159 63.8011L24.6377 63.0389Z" fill="url(#paint8_linear_167_4824)"/>
<path opacity="0.3" d="M41.4615 90.8775L24.6074 89.8473V63.3484C25.7648 63.7343 28.3528 65.1904 28.3528 69.8524C28.3528 75.6162 33.3962 73.1893 36.2477 75.6768C39.0993 78.1644 39.3382 81.2514 37.2147 85.0166C35.4103 88.2165 39.5164 88.9154 41.4615 90.8775Z" fill="url(#paint9_linear_167_4824)"/>
<path d="M8.9541 56.8067C8.9541 56.8067 55.5832 61.3922 69.7884 23.7992L74.0621 29.0447L69.3985 8.02563L57.8933 21.4627L63.7286 21.2657C63.7286 21.2657 56.5734 47.542 8.9541 56.8067Z" fill="#D8DEE8"/>
<path d="M11.7453 60.8721L11.0005 61.9208C11.0005 61.9208 10.8472 62.5845 11.301 62.3611L12.6459 60.9709L11.7453 60.8721Z" fill="url(#paint10_linear_167_4824)"/>
<path d="M28.4629 40.1051C27.4668 43.3339 25.4859 48.2407 21.3942 53.2601C18.365 56.9759 15.1441 59.5696 12.6406 61.2847C12.4685 61.3232 12.1767 61.3665 11.8271 61.3082C11.5672 61.2649 11.3647 61.1804 11.2295 61.111C11.459 60.1982 11.9012 58.855 12.8238 57.4267C14.512 54.8131 15.8373 54.9669 17.5094 52.6694C18.7338 50.9872 19.2239 49.159 20.204 45.5028C20.9608 42.6795 21.0101 41.998 21.8249 41.2188C23.4723 39.6432 26.3441 39.7699 28.4629 40.1051Z" fill="url(#paint11_linear_167_4824)"/>
<g opacity="0.2">
<path d="M13.3534 58.064C13.9435 57.304 14.9491 56.5324 16.9327 55.0104C18.9827 53.4374 18.8868 53.7357 19.3022 53.2612C21.1617 51.1368 20.4102 48.7282 21.0353 45.8989C21.3841 44.3204 22.2847 42.2803 24.6397 40.0632C23.6017 40.188 22.5926 40.5182 21.8249 41.2189C20.8823 42.0792 20.8834 42.9686 20.204 45.5029C19.2239 49.1592 18.7338 50.9873 17.5094 52.6695C15.8373 54.967 14.5121 54.8132 12.8238 57.4268C11.9012 58.855 11.459 60.1983 11.2295 61.1111C11.3648 61.1805 11.5672 61.265 11.8271 61.3083C12.0331 61.3427 12.2182 61.3414 12.3714 61.3269C12.3822 59.452 13.054 58.4495 13.3534 58.064Z" fill="url(#paint12_linear_167_4824)"/>
</g>
<path d="M10.5431 61.7755L10.4192 64.1263C10.4115 64.2712 10.5753 64.3494 10.6704 64.247C10.7641 64.1461 10.8455 64.0019 10.8411 63.8074C10.8311 63.3573 11.4886 62.4121 11.3974 61.9459C11.3676 61.7936 11.0506 61.6419 10.9651 61.5715C10.7972 61.4332 10.5549 61.5501 10.5431 61.7755Z" fill="url(#paint13_linear_167_4824)"/>
<path d="M39.9004 47.502L41.0192 48.681C41.0192 48.681 41.3547 48.6784 41.5321 48.2383L40.6954 46.7991L39.9004 47.502Z" fill="url(#paint14_linear_167_4824)"/>
<path d="M41.4376 49.3829L43.2705 47.7213C43.3835 47.6189 43.3086 47.4324 43.1562 47.4346C43.006 47.4368 42.8339 47.4809 42.6941 47.6299C42.3705 47.9744 41.1418 48.1672 40.872 48.5872C40.7839 48.7244 40.9285 49.0859 40.9458 49.2054C40.9798 49.4402 41.2619 49.5422 41.4376 49.3829Z" fill="url(#paint15_linear_167_4824)"/>
<path d="M41.1318 47.3593C41.127 47.3614 41.0222 47.4137 40.1805 48.1722C40.0517 48.1665 39.9106 48.1263 39.7588 48.0576C38.3144 47.4087 35.9592 44.1657 35.2898 42.3571C34.5489 40.3584 32.6489 42.3756 26.3272 44.2059C21.5455 45.5913 20.519 42.771 20.3039 41.3147C20.234 40.846 19.9795 40.2115 19.9795 40.2115C19.9795 40.2115 22.5728 39.4305 25.5853 38.6263C28.7117 37.7917 31.736 37.931 35.3102 38.1799C38.8839 38.4279 41.1318 47.3593 41.1318 47.3593Z" fill="url(#paint16_linear_167_4824)"/>
<path opacity="0.3" d="M35.2897 42.3572C34.5487 40.3585 32.6488 42.3757 26.327 44.206C21.5453 45.5914 20.5188 42.7711 20.3037 41.3147C20.7409 41.3775 21.3942 41.63 22.3614 42.1965C23.5616 42.8992 24.9029 43.362 26.2817 43.5414C27.5539 43.7062 28.9772 42.8483 29.4858 42.5813C31.3196 41.6193 31.5925 39.5505 33.0256 39.5389C34.4416 39.528 35.6643 41.2937 36.6461 42.7397C37.6807 44.2615 37.5914 44.7361 38.3762 46.1099C38.7927 46.841 39.2647 47.487 39.7586 48.0577C38.3142 47.4088 35.959 44.1658 35.2897 42.3572Z" fill="url(#paint17_linear_167_4824)"/>
<path d="M35.298 18.7879C35.3505 18.6855 35.3724 18.2619 35.2538 18.041C35.1352 17.82 34.9086 17.499 35.0456 17.2646C35.1825 17.0303 35.0944 16.3206 35.5434 16.3685C35.9925 16.4165 36.6697 17.0231 36.3199 17.5583C35.9702 18.0935 35.9727 18.646 36.0089 18.7929C36.045 18.9398 35.298 18.7879 35.298 18.7879Z" fill="url(#paint18_linear_167_4824)"/>
<path d="M36.3446 18.746C36.3743 19.9895 36.2657 21.0868 36.0451 22.0559C35.3001 25.3381 33.2798 27.1454 31.0673 28.153C27.8578 29.6158 24.242 29.395 23.516 29.5474C23.4017 29.5723 23.3389 29.5832 23.3389 29.5832C23.3389 29.5832 23.7826 27.2624 23.9896 25.2652C24.5952 25.1753 25.1553 25.0415 25.6749 24.8766C25.6959 24.8701 25.7168 24.8626 25.7378 24.856C25.9886 24.7739 26.2272 24.6847 26.4577 24.5875C28.7629 23.6248 30.8569 24.8084 32.9946 22.5198C34.2878 21.1361 34.8977 18.5576 34.8977 18.5576L35.3124 18.6121L36.3446 18.746Z" fill="url(#paint19_linear_167_4824)"/>
<path opacity="0.3" d="M36.0448 22.0559C35.2998 25.3381 33.2795 27.1455 31.067 28.153C30.3366 28.1665 29.6411 28.1887 29.0593 28.6023C27.7544 29.5306 25.5481 27.9979 25.5481 27.9979C25.5481 27.9979 25.5408 26.468 25.5342 25.2325C25.7981 25.2341 26.0533 25.2246 26.3029 25.2036C28.7953 24.9957 30.3917 27.0536 33.1569 25.3386C34.4557 24.5343 35.5971 22.7959 36.0448 22.0559Z" fill="url(#paint20_linear_167_4824)"/>
<path d="M25.65 21.8931C25.9364 21.4472 26.0346 21.46 26.1184 21.2179C26.3095 20.666 26.0376 19.9128 25.7461 19.8731C25.5583 19.8476 25.5128 20.1391 25.0673 20.5554C24.5214 21.0653 24.2322 20.9617 23.895 21.4183C23.8161 21.525 23.4613 22.0058 23.6087 22.4064C23.7969 22.9178 24.7265 23.0903 25.1565 22.7543C25.3604 22.5949 25.2971 22.4423 25.65 21.8931Z" fill="url(#paint21_linear_167_4824)"/>
<path d="M24.8961 22.3289C24.8961 22.3289 24.9727 23.2393 24.7797 23.9536C24.6053 24.5991 23.3198 25.1575 23.0668 25.3294C22.8139 25.5012 23.6436 25.8 24.435 25.7772C25.2263 25.7544 27.4342 25.2875 27.7979 24.9392C28.1616 24.5908 27.4392 24.7073 26.855 24.5749C26.2709 24.4426 25.807 23.3939 25.8412 22.8863C25.8754 22.3785 24.8961 22.3289 24.8961 22.3289Z" fill="url(#paint22_linear_167_4824)"/>
<path d="M25.0832 23.0214C25.0832 23.0214 25.6543 23.3447 26.2269 22.9751C26.7395 22.6442 26.153 21.4078 25.6722 21.3439C25.5118 21.3226 25.2652 21.414 25.1094 21.5685C25.0174 21.6598 25.0058 21.7257 24.8525 21.872C24.7112 22.0068 24.6542 22.0145 24.6278 22.0843C24.5946 22.1715 24.6206 22.3257 24.9191 22.6164C24.7604 22.5702 24.6165 22.5986 24.5529 22.6874C24.5428 22.7016 24.5201 22.7468 24.5205 22.7959C24.5221 22.9736 24.7434 23.0783 25.0832 23.0214Z" fill="url(#paint23_linear_167_4824)"/>
<path d="M51.7558 12.9397L51.613 21.9456C51.5976 22.9159 51.0011 23.8048 49.9627 24.5223C49.7138 24.694 49.4514 24.8569 49.1559 25.0078C47.5444 25.8346 45.2903 26.3293 42.7976 26.2897C40.3049 26.2502 38.074 25.6843 36.4895 24.8069C34.9903 23.9778 34.0916 22.8713 34.1106 21.668L34.2535 12.6621L51.7558 12.9397Z" fill="url(#paint24_linear_167_4824)"/>
<path opacity="0.3" d="M49.9839 24.5227C49.7351 24.6944 49.462 24.8571 49.1665 25.0081C47.555 25.8348 45.2956 26.3294 42.8029 26.2899C40.3102 26.2503 38.0766 25.6844 36.4921 24.807C34.9929 23.9779 34.0916 22.8713 34.1106 21.668L34.1846 17.0078C35.3571 17.5708 37.1287 18.6651 37.4248 20.3926C37.8881 23.0959 41.5729 24.0675 45.2656 23.5173C46.8922 23.2744 48.5791 23.7229 49.9839 24.5227Z" fill="url(#paint25_linear_167_4824)"/>
<path d="M56.3807 13.8724L43.311 7.15796L30.035 13.4545L29.5151 13.4462L29.5117 13.6599L43.0948 20.6433L56.8926 14.0942L56.896 13.8806L56.3807 13.8724Z" fill="url(#paint26_linear_167_4824)"/>
<path d="M43.3161 6.84985L29.5078 13.3988L43.1015 20.3825L56.9098 13.8335L43.3161 6.84985Z" fill="url(#paint27_linear_167_4824)"/>
<path d="M56.6942 23.2265C56.5937 23.2249 56.5344 23.1425 56.536 23.042L56.6767 14.1727C56.6799 13.972 56.5097 13.767 56.309 13.7638L43.2097 13.556C43.1092 13.5545 43.0287 13.4926 43.0303 13.3921C43.0319 13.2916 43.1143 13.2323 43.2148 13.2339L56.3141 13.4417C56.7154 13.4481 57.0052 13.7765 56.9988 14.1778L56.8581 23.0471C56.8566 23.1476 56.7947 23.2281 56.6942 23.2265Z" fill="url(#paint28_linear_167_4824)"/>
<path d="M57.1539 21.6215L57.0092 21.3437C56.9517 21.2383 56.8446 21.1728 56.7245 21.1729C56.6044 21.1729 56.4957 21.2385 56.4382 21.344L56.2874 21.6283C56.25 21.697 56.2339 21.7739 56.2326 21.8521L56.1943 24.2649C56.1935 24.3168 56.3997 24.362 56.6761 24.3664C56.9524 24.3708 57.1599 24.3321 57.1607 24.2803L57.1991 21.8606C57.2004 21.7771 57.194 21.6948 57.1539 21.6215Z" fill="url(#paint29_linear_167_4824)"/>
<path d="M40.3672 26.6216C40.3672 26.6216 40.8549 26.6062 40.8037 25.6724C40.7635 24.9404 40.8785 24.708 41.0346 24.8538C41.1907 24.9995 41.17 25.4178 41.17 25.4178C41.17 25.4178 41.8462 24.9561 42.1756 24.2912C42.505 23.6263 42.6064 24.2269 42.6238 24.5789C42.6413 24.9309 42.1068 25.9607 41.8484 26.1357C41.5901 26.3106 41.1491 27.1567 41.1491 27.1567L40.3672 26.6216Z" fill="url(#paint30_linear_167_4824)"/>
<path d="M41.5974 27.178C41.5974 27.178 41.2767 28.8755 40.1714 30.362L40.1705 30.3632C40.1132 30.4413 40.0525 30.5191 39.9896 30.5962C39.9531 30.6412 39.9158 30.6874 39.877 30.7317C39.0163 31.7275 37.9251 32.432 36.6417 32.7261C34.898 33.1258 33.2728 32.8349 31.6319 32.1662C31.2273 32.0019 30.831 31.7952 30.4357 31.6087C30.2841 31.5368 29.9512 31.2657 29.7819 31.2829C29.5257 31.3085 30.0121 32.603 30.0522 32.7334C30.5014 34.2182 30.546 35.8354 30.4125 37.3711C30.3002 38.6709 29.8413 40.0227 28.7979 40.8794C28.1691 41.3957 27.2554 41.6043 26.456 41.6353C26.456 41.6353 25.9358 41.7149 25.1737 41.7499C24.7319 41.7705 24.2078 41.7752 23.6555 41.7419C22.7996 41.6908 21.877 41.5448 21.0884 41.2172C20.0777 40.7971 19.2871 40.0761 19.1429 38.8671C19.1053 38.5484 19.076 38.1927 19.0587 37.8078C18.965 35.868 19.1407 33.1879 19.7649 30.7547C19.8296 30.5022 19.8991 30.2519 19.9738 30.0058C20.6674 27.7215 21.7957 25.7617 23.5175 25.0155C23.7012 24.9345 23.8922 24.868 24.0898 24.8172C28.6395 23.6406 30.7932 24.9826 32.2181 27.1648C33.6428 29.3459 37.8499 30.9493 40.3499 25.9545L41.5974 27.178Z" fill="url(#paint31_linear_167_4824)"/>
<path opacity="0.3" d="M40.1714 30.3633C40.114 30.4414 40.0533 30.5192 39.9905 30.5963C39.9539 30.6413 39.9166 30.6875 39.8779 30.7318C39.0171 31.7277 37.9259 32.4321 36.6426 32.7262C34.8988 33.1259 33.2736 32.835 31.6327 32.1663C31.2281 32.002 30.8318 31.7954 30.4365 31.6088C30.2849 31.5369 29.952 31.2658 29.7827 31.283C29.5266 31.3086 30.013 32.6031 30.053 32.7335C30.5022 34.2183 30.5468 35.8355 30.4133 37.3712C30.3011 38.671 29.8422 40.0228 28.7988 40.8795C28.17 41.3958 27.2562 41.6044 26.4569 41.6354C26.4569 41.6354 25.9367 41.715 25.1745 41.75C24.7327 41.7706 24.2086 41.7753 23.6563 41.742C22.7072 41.6069 21.8122 41.4348 21.0892 41.2173C20.0785 40.7972 19.2879 40.0762 19.1438 38.8672C19.1061 38.5485 19.0768 38.1928 19.0596 37.8079C19.2617 37.1853 19.8337 36.6221 21.1569 36.4008C24.5942 35.8263 24.8561 36.4633 24.8523 34.1974C24.8496 31.9312 25.0719 30.427 27.1134 30.4989C29.1553 30.5717 28.8536 27.9313 30.7529 28.8514C32.6522 29.7714 36.1838 34.4525 40.1714 30.3633Z" fill="url(#paint32_linear_167_4824)"/>
<path d="M62.0989 94.1754L49.0307 93.8112C47.5402 93.7431 46.3535 91.8767 46.3535 89.6493V89.6248C46.3535 87.3974 47.5402 85.561 49.0307 85.5306L63.0133 85.0576L62.0989 94.1754Z" fill="url(#paint33_linear_167_4824)"/>
<path d="M85.2261 93.0811L63.5232 93.937C61.4929 94.017 59.8262 92.5333 59.8262 90.6221V89.3255C59.8262 87.4142 61.4929 85.8455 63.5232 85.8219L85.2261 85.5698V93.0811Z" fill="#F4F7FA"/>
<path d="M85.4365 93.4732L62.4817 94.4124C60.7075 94.485 59.248 92.5131 59.248 90.016V89.9886C59.248 87.4914 60.7075 85.445 62.4817 85.4268L85.4365 85.1921C85.5819 85.1907 85.6996 85.3685 85.6996 85.5894C85.6996 85.8103 85.5819 85.9908 85.4365 85.9928L62.4817 86.2955C61.0532 86.3144 59.8807 87.9639 59.8807 89.9725V89.9998C59.8807 92.0084 61.0532 93.598 62.4817 93.5438L85.4365 92.6726C85.5819 92.6671 85.6996 92.8417 85.6996 93.0625C85.6996 93.2833 85.5819 93.4672 85.4365 93.4732Z" fill="url(#paint34_linear_167_4824)"/>
<path d="M61.3144 85.2079L48.8743 85.4881C47.731 85.5139 46.8193 84.6087 46.8193 83.4667V82.692C46.8193 81.55 47.731 80.5674 48.8743 80.496L61.3144 79.7195V85.2079Z" fill="#D8DEE8"/>
<path d="M59.5643 85.4566L49.0306 85.7512C47.5402 85.7816 46.3535 84.5989 46.3535 83.1154V83.0991C46.3535 81.6156 47.5402 80.3323 49.0306 80.2363L59.5643 79.4126C59.749 79.4009 61.8919 79.5394 61.8919 79.7018C61.8919 79.8641 59.8904 79.9871 59.7069 79.998L49.0306 80.7695C47.8265 80.8419 46.8637 81.8767 46.8637 83.0774V83.0938C46.8637 84.2945 47.8264 85.2476 49.0306 85.218L59.5643 84.8722C59.7478 84.8674 61.8919 85.0325 61.8919 85.1949C61.8919 85.3572 59.7489 85.4524 59.5643 85.4566Z" fill="url(#paint35_linear_167_4824)"/>
<path d="M85.2261 84.9275L59.8262 85.1621V79.689L85.2261 79.925V84.9275Z" fill="#F4F7FA"/>
<path d="M85.4364 80.2102L59.5647 79.9969C59.3899 79.9955 59.248 79.8634 59.248 79.7018C59.248 79.5403 59.3899 79.4108 59.5647 79.4126L85.4364 79.677C85.5818 79.6785 85.6996 79.7989 85.6996 79.946C85.6996 80.0931 85.5818 80.2114 85.4364 80.2102Z" fill="url(#paint36_linear_167_4824)"/>
<path d="M85.4364 85.1922L59.5647 85.4566C59.3899 85.4584 59.248 85.3289 59.248 85.1674C59.248 85.0059 59.3899 84.8738 59.5647 84.8723L85.4364 84.6589C85.5818 84.6577 85.6996 84.776 85.6996 84.9231C85.6996 85.0702 85.5818 85.1907 85.4364 85.1922Z" fill="url(#paint37_linear_167_4824)"/>
<path opacity="0.5" d="M58.5963 93.1624L55.8186 93.0037C55.1473 91.0901 55.1981 89.2448 55.8186 86.9998L58.5963 87.0082C58.0394 89.3001 58.1241 91.3272 58.5963 93.1624Z" fill="white"/>
<path d="M52.8388 85.7081L52.7505 82.2434L49.5618 85.7536C49.5618 85.7536 47.8388 86.6823 48.1348 88.313L50.1059 87.5288L51.8568 88.1355C51.8568 88.1355 51.9007 86.4228 52.8388 85.7081Z" fill="#D8DEE8"/>
<path d="M49.2028 82.4602L52.7499 82.2434C52.7499 82.2434 51.0817 83.5109 51.8563 88.1355C51.8563 88.1355 50.3398 87.6538 49.6802 86.8291L48.1342 88.313C48.1342 88.313 47.1903 84.2013 49.2028 82.4602Z" fill="url(#paint38_linear_167_4824)"/>
<path d="M17.895 77.754V92.7849L16.6822 92.7084L0.302734 91.6843V76.8052L17.895 77.754Z" fill="url(#paint39_linear_167_4824)"/>
<path d="M36.853 91.4951L17.9189 92.7843V77.7536L36.853 76.9102V91.4951Z" fill="url(#paint40_linear_167_4824)"/>
<path d="M0.322266 76.8051L17.9721 76.1531L36.8527 76.9103L17.9186 77.7537L0.322266 76.8051Z" fill="url(#paint41_linear_167_4824)"/>
<path opacity="0.3" d="M16.694 92.7084L0.302734 91.6842V77.3245C2.07718 77.8317 4.28651 79.3011 5.17716 83.422C6.60539 90.0364 15.0218 87.8886 16.694 92.7084Z" fill="url(#paint42_linear_167_4824)"/>
<defs>
<linearGradient id="paint0_linear_167_4824" x1="90.3915" y1="56.1587" x2="53.3531" y2="73.3182" gradientUnits="userSpaceOnUse">
<stop stop-color="#FFC444"/>
<stop offset="0.9964" stop-color="#F36F56"/>
</linearGradient>
<linearGradient id="paint1_linear_167_4824" x1="71.1025" y1="32.1574" x2="63.9922" y2="81.5141" gradientUnits="userSpaceOnUse">
<stop stop-color="#FFC444"/>
<stop offset="0.9964" stop-color="#F36F56"/>
</linearGradient>
<linearGradient id="paint2_linear_167_4824" x1="81.1461" y1="41.8522" x2="63.671" y2="78.5715" gradientUnits="userSpaceOnUse">
<stop stop-color="#FF9085"/>
<stop offset="1" stop-color="#FB6FBB"/>
</linearGradient>
<linearGradient id="paint3_linear_167_4824" x1="122.835" y1="45.9832" x2="67.5658" y2="69.2762" gradientUnits="userSpaceOnUse">
<stop offset="0.0036" stop-color="#E38DDD"/>
<stop offset="1" stop-color="#9571F6"/>
</linearGradient>
<linearGradient id="paint4_linear_167_4824" x1="79.7934" y1="64.5888" x2="99.2999" y2="97.9027" gradientUnits="userSpaceOnUse">
<stop offset="0.0036" stop-color="#E38DDD"/>
<stop offset="1" stop-color="#9571F6"/>
</linearGradient>
<linearGradient id="paint5_linear_167_4824" x1="56.4365" y1="68.9512" x2="74.5124" y2="68.9512" gradientUnits="userSpaceOnUse">
<stop offset="0.0036" stop-color="#E38DDD"/>
<stop offset="1" stop-color="#9571F6"/>
</linearGradient>
<linearGradient id="paint6_linear_167_4824" x1="100.13" y1="48.7936" x2="51.9521" y2="69.2871" gradientUnits="userSpaceOnUse">
<stop offset="0.0036" stop-color="#E38DDD"/>
<stop offset="1" stop-color="#9571F6"/>
</linearGradient>
<linearGradient id="paint7_linear_167_4824" x1="49.6151" y1="74.7189" x2="64.0741" y2="99.4125" gradientUnits="userSpaceOnUse">
<stop offset="0.0036" stop-color="#E38DDD"/>
<stop offset="1" stop-color="#9571F6"/>
</linearGradient>
<linearGradient id="paint8_linear_167_4824" x1="34.8677" y1="51.4731" x2="43.4423" y2="65.7768" gradientUnits="userSpaceOnUse">
<stop offset="0.0036" stop-color="#E38DDD"/>
<stop offset="1" stop-color="#9571F6"/>
</linearGradient>
<linearGradient id="paint9_linear_167_4824" x1="24.6074" y1="77.1129" x2="41.4615" y2="77.1129" gradientUnits="userSpaceOnUse">
<stop offset="0.0036" stop-color="#E38DDD"/>
<stop offset="1" stop-color="#9571F6"/>
</linearGradient>
<linearGradient id="paint10_linear_167_4824" x1="10.9037" y1="61.7234" x2="12.7186" y2="61.4454" gradientUnits="userSpaceOnUse">
<stop offset="0.0036" stop-color="#F36F56"/>
<stop offset="1" stop-color="#FFC444"/>
</linearGradient>
<linearGradient id="paint11_linear_167_4824" x1="23.2847" y1="44.7229" x2="13.5607" y2="61.5714" gradientUnits="userSpaceOnUse">
<stop stop-color="#AB316D"/>
<stop offset="1" stop-color="#792D3D"/>
</linearGradient>
<linearGradient id="paint12_linear_167_4824" x1="22.0654" y1="44.5943" x2="12.5808" y2="61.0278" gradientUnits="userSpaceOnUse">
<stop stop-color="#AB316D"/>
<stop offset="1" stop-color="#792D3D"/>
</linearGradient>
<linearGradient id="paint13_linear_167_4824" x1="24.674" y1="69.7596" x2="13.3246" y2="64.1914" gradientUnits="userSpaceOnUse">
<stop stop-color="#444B8C"/>
<stop offset="0.9964" stop-color="#26264F"/>
</linearGradient>
<linearGradient id="paint14_linear_167_4824" x1="40.4434" y1="48.3033" x2="41.2091" y2="47.1361" gradientUnits="userSpaceOnUse">
<stop offset="0.0036" stop-color="#F36F56"/>
<stop offset="1" stop-color="#FFC444"/>
</linearGradient>
<linearGradient id="paint15_linear_167_4824" x1="36.6557" y1="32.9844" x2="41.1118" y2="45.5189" gradientUnits="userSpaceOnUse">
<stop stop-color="#444B8C"/>
<stop offset="0.9964" stop-color="#26264F"/>
</linearGradient>
<linearGradient id="paint16_linear_167_4824" x1="33.691" y1="37.3941" x2="26.8408" y2="51.358" gradientUnits="userSpaceOnUse">
<stop stop-color="#AB316D"/>
<stop offset="1" stop-color="#792D3D"/>
</linearGradient>
<linearGradient id="paint17_linear_167_4824" x1="58.112" y1="45.2567" x2="23.1766" y2="42.907" gradientUnits="userSpaceOnUse">
<stop stop-color="#AB316D"/>
<stop offset="1" stop-color="#792D3D"/>
</linearGradient>
<linearGradient id="paint18_linear_167_4824" x1="36.2907" y1="18.2026" x2="37.4645" y2="19.1696" gradientUnits="userSpaceOnUse">
<stop offset="0.0036" stop-color="#F36F56"/>
<stop offset="1" stop-color="#FFC444"/>
</linearGradient>
<linearGradient id="paint19_linear_167_4824" x1="27.1701" y1="16.1398" x2="37.497" y2="47.1587" gradientUnits="userSpaceOnUse">
<stop offset="0.0036" stop-color="#F36F56"/>
<stop offset="1" stop-color="#FFC444"/>
</linearGradient>
<linearGradient id="paint20_linear_167_4824" x1="29.4839" y1="21.0844" x2="35.3465" y2="38.6941" gradientUnits="userSpaceOnUse">
<stop offset="0.0036" stop-color="#F36F56"/>
<stop offset="1" stop-color="#FFC444"/>
</linearGradient>
<linearGradient id="paint21_linear_167_4824" x1="24.7723" y1="22.3299" x2="25.2252" y2="18.883" gradientUnits="userSpaceOnUse">
<stop stop-color="#444B8C"/>
<stop offset="0.9964" stop-color="#26264F"/>
</linearGradient>
<linearGradient id="paint22_linear_167_4824" x1="25.6634" y1="19.1822" x2="25.1673" y2="33.4731" gradientUnits="userSpaceOnUse">
<stop offset="0.0036" stop-color="#F36F56"/>
<stop offset="1" stop-color="#FFC444"/>
</linearGradient>
<linearGradient id="paint23_linear_167_4824" x1="23.0382" y1="20.5151" x2="26.1836" y2="22.9143" gradientUnits="userSpaceOnUse">
<stop offset="0.0036" stop-color="#F36F56"/>
<stop offset="1" stop-color="#FFC444"/>
</linearGradient>
<linearGradient id="paint24_linear_167_4824" x1="36.8802" y1="133.899" x2="43.1646" y2="12.8626" gradientUnits="userSpaceOnUse">
<stop stop-color="#AA80F9"/>
<stop offset="0.9964" stop-color="#6165D7"/>
</linearGradient>
<linearGradient id="paint25_linear_167_4824" x1="41.7995" y1="26.2491" x2="42.2576" y2="17.4269" gradientUnits="userSpaceOnUse">
<stop stop-color="#AA80F9"/>
<stop offset="0.9964" stop-color="#6165D7"/>
</linearGradient>
<linearGradient id="paint26_linear_167_4824" x1="44.6561" y1="4.10612" x2="42.6207" y2="17.6512" gradientUnits="userSpaceOnUse">
<stop stop-color="#AA80F9"/>
<stop offset="0.9964" stop-color="#6165D7"/>
</linearGradient>
<linearGradient id="paint27_linear_167_4824" x1="44.4745" y1="0.253097" x2="41.6178" y2="30.4139" gradientUnits="userSpaceOnUse">
<stop stop-color="#AA80F9"/>
<stop offset="0.9964" stop-color="#6165D7"/>
</linearGradient>
<linearGradient id="paint28_linear_167_4824" x1="58.0522" y1="4.62981" x2="41.6524" y2="32.1328" gradientUnits="userSpaceOnUse">
<stop stop-color="#FFC444"/>
<stop offset="0.9964" stop-color="#F36F56"/>
</linearGradient>
<linearGradient id="paint29_linear_167_4824" x1="55.8938" y1="29.5757" x2="57.0956" y2="19.8124" gradientUnits="userSpaceOnUse">
<stop stop-color="#FFC444"/>
<stop offset="0.9964" stop-color="#F36F56"/>
</linearGradient>
<linearGradient id="paint30_linear_167_4824" x1="40.9157" y1="26.7417" x2="39.9044" y2="29.0655" gradientUnits="userSpaceOnUse">
<stop offset="0.0036" stop-color="#F36F56"/>
<stop offset="1" stop-color="#FFC444"/>
</linearGradient>
<linearGradient id="paint31_linear_167_4824" x1="25.2637" y1="17.7805" x2="40.1887" y2="62.6108" gradientUnits="userSpaceOnUse">
<stop offset="0.0036" stop-color="#F36F56"/>
<stop offset="1" stop-color="#FFC444"/>
</linearGradient>
<linearGradient id="paint32_linear_167_4824" x1="21.011" y1="29.0193" x2="36.7681" y2="40.219" gradientUnits="userSpaceOnUse">
<stop offset="0.0036" stop-color="#F36F56"/>
<stop offset="1" stop-color="#FFC444"/>
</linearGradient>
<linearGradient id="paint33_linear_167_4824" x1="56.8695" y1="82.5587" x2="51.0212" y2="102.258" gradientUnits="userSpaceOnUse">
<stop stop-color="#40447E"/>
<stop offset="0.9964" stop-color="#3C3B6B"/>
</linearGradient>
<linearGradient id="paint34_linear_167_4824" x1="59.2481" y1="89.8032" x2="85.6996" y2="89.8032" gradientUnits="userSpaceOnUse">
<stop stop-color="#40447E"/>
<stop offset="0.9964" stop-color="#3C3B6B"/>
</linearGradient>
<linearGradient id="paint35_linear_167_4824" x1="45.8353" y1="82.4895" x2="63.0977" y2="82.6782" gradientUnits="userSpaceOnUse">
<stop stop-color="#FFC444"/>
<stop offset="0.9964" stop-color="#F36F56"/>
</linearGradient>
<linearGradient id="paint36_linear_167_4824" x1="-109.754" y1="62.8997" x2="-156.107" y2="58.592" gradientUnits="userSpaceOnUse">
<stop stop-color="#FFC444"/>
<stop offset="0.9964" stop-color="#F36F56"/>
</linearGradient>
<linearGradient id="paint37_linear_167_4824" x1="-110.235" y1="68.0759" x2="-156.588" y2="63.7682" gradientUnits="userSpaceOnUse">
<stop stop-color="#FFC444"/>
<stop offset="0.9964" stop-color="#F36F56"/>
</linearGradient>
<linearGradient id="paint38_linear_167_4824" x1="51.1868" y1="86.3807" x2="49.4786" y2="83.8518" gradientUnits="userSpaceOnUse">
<stop stop-color="#AA80F9"/>
<stop offset="0.9964" stop-color="#6165D7"/>
</linearGradient>
<linearGradient id="paint39_linear_167_4824" x1="83.6284" y1="53.0921" x2="42.1442" y2="70.7384" gradientUnits="userSpaceOnUse">
<stop offset="0.0036" stop-color="#E38DDD"/>
<stop offset="1" stop-color="#9571F6"/>
</linearGradient>
<linearGradient id="paint40_linear_167_4824" x1="27.1125" y1="84.3911" x2="37.2186" y2="101.651" gradientUnits="userSpaceOnUse">
<stop offset="0.0036" stop-color="#E38DDD"/>
<stop offset="1" stop-color="#9571F6"/>
</linearGradient>
<linearGradient id="paint41_linear_167_4824" x1="13.1213" y1="67.7391" x2="22.1794" y2="82.8496" gradientUnits="userSpaceOnUse">
<stop offset="0.0036" stop-color="#E38DDD"/>
<stop offset="1" stop-color="#9571F6"/>
</linearGradient>
<linearGradient id="paint42_linear_167_4824" x1="0.302738" y1="85.0164" x2="16.6939" y2="85.0164" gradientUnits="userSpaceOnUse">
<stop offset="0.0036" stop-color="#E38DDD"/>
<stop offset="1" stop-color="#9571F6"/>
</linearGradient>
</defs>
</svg>
