<svg width="24" height="24" viewBox="0 0 24 24" fill="none" xmlns="http://www.w3.org/2000/svg">
<path d="M12.001 1.31494C13.1293 1.31496 14.0459 2.2315 14.0459 3.35986C14.0459 4.27746 13.4374 5.04462 12.6055 5.3042V6.59521H16.7861C18.9813 6.59532 20.7655 8.37959 20.7656 10.5747V12.355H23.166V18.3647H20.7656V22.6851H3.23633V18.3647H0.835938V12.355H3.23633V10.5747C3.23646 8.37957 5.02067 6.59528 7.21582 6.59521H11.3955V5.3042C10.5657 5.04435 9.95605 4.27723 9.95605 3.35986C9.9561 2.23149 10.8726 1.31494 12.001 1.31494ZM7.21582 7.80518C5.68936 7.80524 4.44642 9.04826 4.44629 10.5747V21.4751H7.07617V17.6353H16.9258V21.4751H19.5557V10.5747C19.5555 9.04829 18.3126 7.80528 16.7861 7.80518H7.21582ZM14.0459 21.4751H15.7158V18.8452H14.0459V21.4751ZM11.166 21.4751H12.8359V18.8452H11.166V21.4751ZM8.28613 21.4751H9.95605V18.8452H8.28613V21.4751ZM20.7656 17.1548H21.9561V13.5649H20.7656V17.1548ZM2.0459 17.1548H3.23633V13.5649H2.0459V17.1548ZM8.88086 10.4351C10.1405 10.4351 11.166 11.4606 11.166 12.7202C11.1659 13.9798 10.1404 15.0054 8.88086 15.0054C7.62133 15.0053 6.59585 13.9797 6.5957 12.7202C6.5957 11.4606 7.62123 10.4351 8.88086 10.4351ZM15.1211 10.4351C16.3807 10.4351 17.4062 11.4606 17.4062 12.7202C17.4061 13.9797 16.3806 15.0053 15.1211 15.0054C13.8615 15.0054 12.8361 13.9798 12.8359 12.7202C12.8359 11.4606 13.8614 10.4351 15.1211 10.4351ZM8.88086 11.645C8.28806 11.6451 7.80566 12.1274 7.80566 12.7202C7.80581 13.3129 8.28815 13.7954 8.88086 13.7954C9.47361 13.7954 9.95591 13.3129 9.95605 12.7202C9.95605 12.1274 9.4737 11.645 8.88086 11.645ZM15.1211 11.645C14.5283 11.645 14.0459 12.1274 14.0459 12.7202C14.046 13.3129 14.5283 13.7954 15.1211 13.7954C15.7138 13.7953 16.1961 13.3129 16.1963 12.7202C16.1963 12.1274 15.7139 11.6451 15.1211 11.645ZM12.001 2.5249C11.5413 2.5249 11.1661 2.90018 11.166 3.35986C11.166 3.81958 11.5413 4.19482 12.001 4.19482C12.4607 4.1948 12.8359 3.81956 12.8359 3.35986C12.8359 2.9002 12.4606 2.52492 12.001 2.5249Z" fill="#4A90EB" stroke="#4A90EB" stroke-width="0.25"/>
</svg>
