<svg width="20" height="20" viewBox="0 0 20 20" fill="none" xmlns="http://www.w3.org/2000/svg">
<g clip-path="url(#clip0_231_2608)">
<path d="M16.3517 5.30855C15.8127 2.22652 13.1408 0 10.0002 0C6.85954 0 4.18762 2.22652 3.64864 5.30855C3.28536 7.44137 3.98844 9.59766 5.53536 11.0859C6.49192 12.0021 7.07047 13.3011 7.07047 14.6484V15.2344L8.24235 16.4453H11.758L12.9298 15.2344V14.6484C12.9298 13.3026 13.5073 12.003 14.465 11.0859C16.0119 9.59766 16.715 7.44137 16.3517 5.30855Z" fill="#FED843"/>
<path d="M12.9297 15.2344V14.6484C12.9297 13.3026 13.5072 12.003 14.4648 11.0859C16.0117 9.59766 16.7148 7.44137 16.3516 5.30855C15.8125 2.22652 13.1406 0 10 0V16.4453H11.7578L12.9297 15.2344Z" fill="#FABE2C"/>
<path d="M0.61668 2.57844L1.44512 1.75L3.17008 3.47492L2.34164 4.30336L0.61668 2.57844ZM0 5.85949H2.38281V7.03137H0V5.85949ZM0.629648 10.2978L2.35285 8.57453L3.18129 9.40297L1.45809 11.1262L0.629648 10.2978Z" fill="#FED843"/>
<path d="M10 15.2344H7.07031V17.0703C7.07031 18.6875 8.38281 20 10 20C11.6172 20 12.9297 18.6875 12.9297 17.0703V15.2344H10Z" fill="#EDF5FF"/>
<path d="M12.9297 17.0703V15.2344H10V20C11.6172 20 12.9297 18.6875 12.9297 17.0703Z" fill="#D5E8FE"/>
<path d="M16.8271 3.47639L18.5521 1.75146L19.3806 2.57998L17.6557 4.3049L16.8271 3.47639ZM17.6174 5.85928H20.0002V7.03115H17.6174V5.85928ZM16.8145 9.40447L17.643 8.57596L19.3667 10.2996L18.5382 11.1281L16.8145 9.40447Z" fill="#FABE2C"/>
<path d="M11.7578 5.27344C11.7578 5.83008 11.4898 6.35938 11.0414 6.68945C10.7563 6.89961 10.5859 7.23594 10.5859 7.58945V8.20312H9.41406V7.58945C9.41406 7.02305 9.62734 6.47773 10 6.06133C10.1045 5.94461 10.2207 5.83897 10.3469 5.74609C10.4988 5.63398 10.5859 5.46172 10.5859 5.27344C10.5859 4.95039 10.323 4.6875 10 4.6875C9.67695 4.6875 9.41406 4.95039 9.41406 5.27344V5.85938H8.24219V5.27344C8.24219 4.3043 9.03086 3.51562 10 3.51562C10.9691 3.51562 11.7578 4.3043 11.7578 5.27344ZM9.41406 9.375H10.5859V10.5469H9.41406V9.375Z" fill="#47568C"/>
<path d="M10 9.375H10.5859V10.5469H10V9.375ZM11.7578 5.27344C11.7578 5.83008 11.4898 6.35938 11.0414 6.68945C10.7563 6.89961 10.5859 7.23594 10.5859 7.58945V8.20312H10V6.06133C10.1045 5.94461 10.2207 5.83897 10.3469 5.74609C10.4988 5.63398 10.5859 5.46172 10.5859 5.27344C10.5859 4.95039 10.323 4.6875 10 4.6875V3.51562C10.9691 3.51562 11.7578 4.3043 11.7578 5.27344Z" fill="#29376D"/>
</g>
<defs>
<clipPath id="clip0_231_2608">
<rect width="20" height="20" fill="white"/>
</clipPath>
</defs>
</svg>
