<svg width="25" height="24" viewBox="0 0 25 24" fill="none" xmlns="http://www.w3.org/2000/svg">
<path d="M17.2502 3.56V2C17.2502 1.59 16.9102 1.25 16.5002 1.25C16.0902 1.25 15.7502 1.59 15.7502 2V3.5H9.25023V2C9.25023 1.59 8.91023 1.25 8.50023 1.25C8.09023 1.25 7.75023 1.59 7.75023 2V3.56C5.05023 3.81 3.74023 5.42 3.54023 7.81C3.52023 8.1 3.76023 8.34 4.04023 8.34H20.9602C21.2502 8.34 21.4902 8.09 21.4602 7.81C21.2602 5.42 19.9502 3.81 17.2502 3.56Z" fill="#22C55E"/>
<path d="M20.5 9.83984H4.5C3.95 9.83984 3.5 10.2898 3.5 10.8398V16.9998C3.5 19.9998 5 21.9998 8.5 21.9998H16.5C20 21.9998 21.5 19.9998 21.5 16.9998V10.8398C21.5 10.2898 21.05 9.83984 20.5 9.83984ZM9.71 18.2098C9.61 18.2998 9.5 18.3698 9.38 18.4198C9.26 18.4698 9.13 18.4998 9 18.4998C8.87 18.4998 8.74 18.4698 8.62 18.4198C8.5 18.3698 8.39 18.2998 8.29 18.2098C8.11 18.0198 8 17.7598 8 17.4998C8 17.2398 8.11 16.9798 8.29 16.7898C8.39 16.6998 8.5 16.6298 8.62 16.5798C8.86 16.4798 9.14 16.4798 9.38 16.5798C9.5 16.6298 9.61 16.6998 9.71 16.7898C9.89 16.9798 10 17.2398 10 17.4998C10 17.7598 9.89 18.0198 9.71 18.2098ZM9.92 14.3798C9.87 14.4998 9.8 14.6098 9.71 14.7098C9.61 14.7998 9.5 14.8698 9.38 14.9198C9.26 14.9698 9.13 14.9998 9 14.9998C8.87 14.9998 8.74 14.9698 8.62 14.9198C8.5 14.8698 8.39 14.7998 8.29 14.7098C8.2 14.6098 8.13 14.4998 8.08 14.3798C8.03 14.2598 8 14.1298 8 13.9998C8 13.8698 8.03 13.7398 8.08 13.6198C8.13 13.4998 8.2 13.3898 8.29 13.2898C8.39 13.1998 8.5 13.1298 8.62 13.0798C8.86 12.9798 9.14 12.9798 9.38 13.0798C9.5 13.1298 9.61 13.1998 9.71 13.2898C9.8 13.3898 9.87 13.4998 9.92 13.6198C9.97 13.7398 10 13.8698 10 13.9998C10 14.1298 9.97 14.2598 9.92 14.3798ZM13.21 14.7098C13.11 14.7998 13 14.8698 12.88 14.9198C12.76 14.9698 12.63 14.9998 12.5 14.9998C12.37 14.9998 12.24 14.9698 12.12 14.9198C12 14.8698 11.89 14.7998 11.79 14.7098C11.61 14.5198 11.5 14.2598 11.5 13.9998C11.5 13.7398 11.61 13.4798 11.79 13.2898C11.89 13.1998 12 13.1298 12.12 13.0798C12.36 12.9698 12.64 12.9698 12.88 13.0798C13 13.1298 13.11 13.1998 13.21 13.2898C13.39 13.4798 13.5 13.7398 13.5 13.9998C13.5 14.2598 13.39 14.5198 13.21 14.7098Z" fill="#22C55E"/>
</svg>
