<svg width="24" height="24" viewBox="0 0 24 24" fill="none" xmlns="http://www.w3.org/2000/svg">
<g clip-path="url(#clip0_1197_232)">
<path d="M14.8594 7.78125H7.82812C7.43948 7.78125 7.125 7.46677 7.125 7.07812V4.26562C7.125 3.87698 7.43948 3.5625 7.82812 3.5625H14.8594C15.248 3.5625 15.5625 3.87698 15.5625 4.26562V7.07812C15.5625 7.46677 15.248 7.78125 14.8594 7.78125Z" fill="#FFD580"/>
<path d="M19.5753 0.95598C19.3007 0.68134 18.8557 0.68134 18.581 0.95598L17.6719 1.86512L16.7627 0.95598C16.4881 0.68134 16.0431 0.68134 15.7685 0.95598C15.4938 1.23062 15.4938 1.67561 15.7685 1.95025L17.1747 3.3565C17.3121 3.49384 17.492 3.56251 17.6718 3.56251C17.8517 3.56251 18.0317 3.49384 18.169 3.3565L19.5752 1.95025C19.85 1.67556 19.85 1.23062 19.5753 0.95598Z" fill="#F98D07"/>
<path d="M18.169 3.3565L19.5753 1.95025C19.8499 1.67561 19.8499 1.23062 19.5753 0.95598C19.3006 0.68134 18.8557 0.68134 18.581 0.95598L17.6719 1.86512V3.56251C17.8518 3.56251 18.0317 3.49384 18.169 3.3565Z" fill="#F59E08"/>
<path d="M20.4844 7.78125H14.8594C14.4707 7.78125 14.1562 7.46677 14.1562 7.07812V2.85938C14.1562 2.47073 14.4707 2.15625 14.8594 2.15625H20.4844C20.873 2.15625 21.1875 2.47073 21.1875 2.85938V7.07812C21.1875 7.46677 20.873 7.78125 20.4844 7.78125Z" fill="#8AE68A"/>
<path d="M20.4844 2.15625H17.6719V7.78125H20.4844C20.873 7.78125 21.1875 7.46677 21.1875 7.07812V2.85938C21.1875 2.47073 20.873 2.15625 20.4844 2.15625Z" fill="#60BF80"/>
<path d="M4.22152 6.37506L3.07233 2.15649H0.703125C0.314484 2.15649 0 1.84201 0 1.45337C0 1.06473 0.314484 0.750244 0.703125 0.750244H3.60928C3.76358 0.750263 3.91358 0.801028 4.03618 0.894714C4.15878 0.988401 4.24716 1.11981 4.2877 1.26868L5.82028 6.89368L4.22152 6.37506ZM19.078 19.0315H7.82803C7.44075 19.0315 7.12491 18.7163 7.12491 18.3284C7.12491 17.9651 7.39683 17.6644 7.75664 17.6287C8.14252 17.5902 8.42545 17.2455 8.38561 16.8589C8.34853 16.4731 8.00245 16.2046 7.61658 16.2293C6.53442 16.3371 5.7187 17.2393 5.7187 18.3283C5.7187 19.4915 6.66492 20.4377 7.82808 20.4377H19.0781C19.4667 20.4377 19.7812 20.1232 19.7812 19.7346C19.7812 19.3459 19.4667 19.0315 19.078 19.0315Z" fill="#B74606"/>
<path d="M19.0781 19.0312H14.8594V20.4375H19.0781C19.4668 20.4375 19.7812 20.123 19.7812 19.7344C19.7812 19.3457 19.4668 19.0312 19.0781 19.0312Z" fill="#B74606"/>
<path d="M7.82806 17.6113C7.51358 17.6113 7.23341 17.4018 7.14964 17.0935L4.2207 6.375H23.2968C23.5028 6.375 23.6992 6.46566 23.8338 6.62358C23.8997 6.70151 23.9478 6.79285 23.9749 6.89127C24.0019 6.98969 24.0072 7.09282 23.9903 7.19348L22.5841 15.631C22.5588 15.7836 22.4838 15.9236 22.3708 16.0292C22.2579 16.1349 22.1132 16.2003 21.9592 16.2153C5.85519 17.8087 7.99691 17.6113 7.82806 17.6113Z" fill="#F98D07"/>
<path d="M23.2969 6.375H14.8594V16.919C16.7058 16.7355 19.0271 16.5054 21.9593 16.2153C22.1132 16.2003 22.2579 16.1349 22.3709 16.0292C22.4839 15.9236 22.5588 15.7836 22.5841 15.631L23.9904 7.19348C24.0072 7.09282 24.002 6.98969 23.9749 6.89127C23.9479 6.79285 23.8997 6.7015 23.8338 6.62358C23.7676 6.54576 23.6854 6.48323 23.5927 6.44032C23.4999 6.3974 23.399 6.37511 23.2969 6.375Z" fill="#F59E08"/>
<path d="M19.0781 23.25C17.915 23.25 16.9688 22.3038 16.9688 21.1406C16.9688 19.9775 17.915 19.0312 19.0781 19.0312C20.2413 19.0312 21.1875 19.9775 21.1875 21.1406C21.1875 22.3038 20.2413 23.25 19.0781 23.25Z" fill="#B74606"/>
<path d="M19.0781 21.8438C19.4665 21.8438 19.7812 21.529 19.7812 21.1406C19.7812 20.7523 19.4665 20.4375 19.0781 20.4375C18.6898 20.4375 18.375 20.7523 18.375 21.1406C18.375 21.529 18.6898 21.8438 19.0781 21.8438Z" fill="#D9E5FF"/>
<path d="M9.23438 23.25C8.07122 23.25 7.125 22.3038 7.125 21.1406C7.125 19.9775 8.07122 19.0312 9.23438 19.0312C10.3975 19.0312 11.3438 19.9775 11.3438 21.1406C11.3438 22.3038 10.3975 23.25 9.23438 23.25Z" fill="#B74606"/>
<path d="M9.23438 21.8438C9.6227 21.8438 9.9375 21.529 9.9375 21.1406C9.9375 20.7523 9.6227 20.4375 9.23438 20.4375C8.84605 20.4375 8.53125 20.7523 8.53125 21.1406C8.53125 21.529 8.84605 21.8438 9.23438 21.8438Z" fill="#ECF2FF"/>
<path d="M19.0781 13.4062C18.6895 13.4062 18.375 13.0918 18.375 12.7031V9.89062C18.375 9.50198 18.6895 9.1875 19.0781 9.1875C19.4668 9.1875 19.7812 9.50198 19.7812 9.89062V12.7031C19.7812 13.0918 19.4668 13.4062 19.0781 13.4062Z" fill="#D9E5FF"/>
<path d="M10.6406 13.4062C10.252 13.4062 9.9375 13.0918 9.9375 12.7031V9.89062C9.9375 9.50198 10.252 9.1875 10.6406 9.1875C11.0293 9.1875 11.3437 9.50198 11.3437 9.89062V12.7031C11.3437 13.0918 11.0293 13.4062 10.6406 13.4062ZM14.8594 13.4062C14.4707 13.4062 14.1562 13.0918 14.1562 12.7031V9.89062C14.1562 9.50198 14.4707 9.1875 14.8594 9.1875C15.248 9.1875 15.5625 9.50198 15.5625 9.89062V12.7031C15.5625 13.0918 15.248 13.4062 14.8594 13.4062Z" fill="#ECF2FF"/>
<path d="M15.5625 12.7031V9.89062C15.5625 9.50198 15.248 9.1875 14.8594 9.1875V13.4062C15.248 13.4062 15.5625 13.0918 15.5625 12.7031Z" fill="#D9E5FF"/>
</g>
<defs>
<clipPath id="clip0_1197_232">
<rect width="24" height="24" fill="white"/>
</clipPath>
</defs>
</svg>
