<svg width="20" height="20" viewBox="0 0 20 20" fill="none" xmlns="http://www.w3.org/2000/svg">
<path d="M10.0003 0.856445C7.47914 0.856445 5.42885 2.90787 5.42885 5.42787V8.2873H4.85742C3.75456 8.2873 2.85742 9.18445 2.85742 10.2873V17.1444C2.85742 18.2473 3.75456 19.1444 4.85742 19.1444H15.1431C16.246 19.1444 17.1431 18.2473 17.1431 17.1444V10.2873C17.1431 9.18445 16.246 8.2873 15.1431 8.2873H14.5717V5.42787C14.5717 2.90787 12.5203 0.856445 10.0003 0.856445ZM7.14314 5.42787C7.14314 3.85302 8.42485 2.57073 10.0003 2.57073C11.5757 2.57073 12.8574 3.85302 12.8574 5.42787V8.2873H7.14314V5.42787ZM6.85742 14.5787C6.38314 14.5787 6.00028 14.1959 6.00028 13.7216C6.00028 13.2473 6.38314 12.8644 6.85742 12.8644C7.33171 12.8644 7.71456 13.2473 7.71456 13.7216C7.71456 14.1959 7.33171 14.5787 6.85742 14.5787ZM10.0003 14.5787C9.52599 14.5787 9.14314 14.1959 9.14314 13.7216C9.14314 13.2473 9.52599 12.8644 10.0003 12.8644C10.4746 12.8644 10.8574 13.2473 10.8574 13.7216C10.8574 14.1959 10.4746 14.5787 10.0003 14.5787ZM13.1431 14.5787C12.6689 14.5787 12.286 14.1959 12.286 13.7216C12.286 13.2473 12.6689 12.8644 13.1431 12.8644C13.6174 12.8644 14.0003 13.2473 14.0003 13.7216C14.0003 14.1959 13.6174 14.5787 13.1431 14.5787Z" fill="#4A90EB"/>
</svg>
