<svg width="36" height="33" viewBox="0 0 36 33" fill="none" xmlns="http://www.w3.org/2000/svg">
<path d="M3.375 0C2.47989 0 1.62145 0.359667 0.988514 0.999877C0.355579 1.64009 0 2.5084 0 3.41379L0 7.96552C0 8.26731 0.118526 8.55675 0.329505 8.77015C0.540483 8.98356 0.826631 9.10345 1.125 9.10345H7.3125V0H3.375Z" fill="#4A90EB"/>
<path d="M26.4375 0H3.375C4.27011 0 5.12855 0.359667 5.76149 0.999877C6.39442 1.64009 6.75 2.5084 6.75 3.41379V29.5862C6.75 30.4916 7.10558 31.3599 7.73851 32.0001C8.37145 32.6403 9.22989 33 10.125 33H29.8125V3.41379C29.8125 2.5084 29.4569 1.64009 28.824 0.999877C28.191 0.359667 27.3326 0 26.4375 0Z" fill="#DBEDFF"/>
<path d="M36 3.9542C36.001 4.46997 35.8262 4.97031 35.505 5.37093L27.7707 15.032C26.8248 16.2063 25.5566 17.0714 24.1257 17.5183L23.6194 20.5737C23.6009 20.6922 23.5458 20.8018 23.4619 20.8866C23.378 20.9715 23.2697 21.0272 23.1525 21.0459L16.4025 22.1839C16.3728 22.1886 16.3427 22.1905 16.3125 22.1895C16.2308 22.1902 16.1499 22.1727 16.0756 22.1383C16.0013 22.104 15.9352 22.0536 15.8822 21.9907C15.8291 21.9278 15.7903 21.854 15.7685 21.7743C15.7466 21.6946 15.7422 21.6111 15.7557 21.5295L16.8807 14.702C16.8991 14.5834 16.9543 14.4739 17.0382 14.389C17.122 14.3042 17.2304 14.2484 17.3475 14.2297L20.3682 13.7177C20.81 12.2703 21.6653 10.9875 22.8263 10.0308L32.3775 2.20748C32.7039 1.94041 33.0983 1.77222 33.5151 1.72235C33.932 1.67249 34.3543 1.74299 34.7332 1.92569C35.1121 2.1084 35.4322 2.39586 35.6563 2.75483C35.8805 3.11379 35.9997 3.52961 36 3.9542Z" fill="#285CCD"/>
<path d="M16.8807 14.7021L15.7557 21.5297C15.7422 21.6112 15.7466 21.6948 15.7685 21.7744C15.7903 21.8541 15.8291 21.9279 15.8822 21.9908C15.9352 22.0537 16.0013 22.1041 16.0756 22.1384C16.1499 22.1728 16.2308 22.1903 16.3125 22.1897C16.3427 22.1906 16.3728 22.1887 16.4025 22.184L23.1525 21.046C23.2697 21.0274 23.378 20.9716 23.4619 20.8867C23.5458 20.8019 23.6009 20.6923 23.6194 20.5738L24.1257 17.5185L20.3682 13.7178L17.3475 14.2298C17.2304 14.2485 17.122 14.3043 17.0382 14.3891C16.9543 14.474 16.8991 14.5836 16.8807 14.7021Z" fill="#99CAF7"/>
<path d="M32.0625 25.0344H14.625C14.3266 25.0344 14.0405 25.1543 13.8295 25.3677C13.6185 25.5811 13.5 25.8706 13.5 26.1724V29.5861C13.4993 30.4913 13.1435 31.3592 12.5107 31.9993C11.8779 32.6393 11.0199 32.9992 10.125 32.9999H29.8125C30.7076 32.9999 31.566 32.6403 32.199 32.0001C32.8319 31.3599 33.1875 30.4915 33.1875 29.5861V26.1724C33.1875 25.8706 33.069 25.5811 32.858 25.3677C32.647 25.1543 32.3609 25.0344 32.0625 25.0344Z" fill="#4A90EB"/>
<path d="M20.0852 17.8046C20.033 17.7518 19.971 17.7099 19.9028 17.6813C19.8345 17.6527 19.7614 17.6379 19.6875 17.6379C19.6137 17.6379 19.5405 17.6527 19.4723 17.6813C19.404 17.7099 19.342 17.7518 19.2898 17.8046L15.7854 21.3494L15.7557 21.5296C15.7422 21.6112 15.7466 21.6947 15.7685 21.7744C15.7903 21.8541 15.8291 21.9279 15.8822 21.9908C15.9352 22.0537 16.0013 22.1041 16.0756 22.1384C16.1499 22.1728 16.2308 22.1903 16.3125 22.1896C16.3427 22.1906 16.3728 22.1887 16.4025 22.184L16.5808 22.1539L20.0852 18.6091C20.1375 18.5563 20.1789 18.4936 20.2072 18.4246C20.2355 18.3556 20.25 18.2816 20.25 18.2069C20.25 18.1322 20.2355 18.0582 20.2072 17.9892C20.1789 17.9202 20.1375 17.8574 20.0852 17.8046Z" fill="#4A90EB"/>
<path d="M24.2266 8.88315L28.9049 13.6152L33.9314 7.33614L30.3842 3.83984L24.2266 8.88315Z" fill="#99CAF7"/>
<path d="M13.5 21.0518H10.6875C10.5383 21.0518 10.3952 21.1117 10.2898 21.2184C10.1843 21.3251 10.125 21.4698 10.125 21.6207C10.125 21.7716 10.1843 21.9163 10.2898 22.023C10.3952 22.1297 10.5383 22.1897 10.6875 22.1897H13.5C13.6492 22.1897 13.7923 22.1297 13.8977 22.023C14.0032 21.9163 14.0625 21.7716 14.0625 21.6207C14.0625 21.4698 14.0032 21.3251 13.8977 21.2184C13.7923 21.1117 13.6492 21.0518 13.5 21.0518Z" fill="#4A90EB"/>
<path d="M13.5 17.6379H10.6875C10.5383 17.6379 10.3952 17.6979 10.2898 17.8046C10.1843 17.9113 10.125 18.056 10.125 18.2069C10.125 18.3578 10.1843 18.5025 10.2898 18.6092C10.3952 18.7159 10.5383 18.7759 10.6875 18.7759H13.5C13.6492 18.7759 13.7923 18.7159 13.8977 18.6092C14.0032 18.5025 14.0625 18.3578 14.0625 18.2069C14.0625 18.056 14.0032 17.9113 13.8977 17.8046C13.7923 17.6979 13.6492 17.6379 13.5 17.6379Z" fill="#4A90EB"/>
<path d="M13.5 14.2241H10.6875C10.5383 14.2241 10.3952 14.2841 10.2898 14.3908C10.1843 14.4975 10.125 14.6422 10.125 14.7931C10.125 14.944 10.1843 15.0887 10.2898 15.1954C10.3952 15.3021 10.5383 15.3621 10.6875 15.3621H13.5C13.6492 15.3621 13.7923 15.3021 13.8977 15.1954C14.0032 15.0887 14.0625 14.944 14.0625 14.7931C14.0625 14.6422 14.0032 14.4975 13.8977 14.3908C13.7923 14.2841 13.6492 14.2241 13.5 14.2241Z" fill="#4A90EB"/>
<path d="M18.5625 10.8103H10.6875C10.5383 10.8103 10.3952 10.8702 10.2898 10.9769C10.1843 11.0837 10.125 11.2284 10.125 11.3793C10.125 11.5302 10.1843 11.6749 10.2898 11.7816C10.3952 11.8883 10.5383 11.9482 10.6875 11.9482H18.5625C18.7117 11.9482 18.8548 11.8883 18.9602 11.7816C19.0657 11.6749 19.125 11.5302 19.125 11.3793C19.125 11.2284 19.0657 11.0837 18.9602 10.9769C18.8548 10.8702 18.7117 10.8103 18.5625 10.8103Z" fill="#4A90EB"/>
<path d="M23.0625 2.84473H10.6875C10.3768 2.84473 10.125 3.09946 10.125 3.41369V7.96542C10.125 8.27965 10.3768 8.53438 10.6875 8.53438H23.0625C23.3732 8.53438 23.625 8.27965 23.625 7.96542V3.41369C23.625 3.09946 23.3732 2.84473 23.0625 2.84473Z" fill="#4A90EB"/>
</svg>
