<svg width="25" height="24" viewBox="0 0 25 24" fill="none" xmlns="http://www.w3.org/2000/svg">
<path d="M15.8904 5.20979L17.3004 8.02979C17.4904 8.41979 18.0004 8.78979 18.4304 8.86979L20.9804 9.28979C22.6104 9.55979 22.9904 10.7398 21.8204 11.9198L19.8304 13.9098C19.5004 14.2398 19.3104 14.8898 19.4204 15.3598L19.9904 17.8198C20.4404 19.7598 19.4004 20.5198 17.6904 19.4998L15.3004 18.0798C14.8704 17.8198 14.1504 17.8198 13.7204 18.0798L11.3304 19.4998C9.62043 20.5098 8.58043 19.7598 9.03043 17.8198L9.60043 15.3598C9.69043 14.8798 9.50043 14.2298 9.17043 13.8998L7.18043 11.9098C6.01043 10.7398 6.39043 9.55979 8.02043 9.27979L10.5704 8.85979C11.0004 8.78979 11.5104 8.40979 11.7004 8.01979L13.1104 5.19979C13.8804 3.67979 15.1204 3.67979 15.8904 5.20979Z" fill="#EF4444"/>
<path d="M8.5 5.75H2.5C2.09 5.75 1.75 5.41 1.75 5C1.75 4.59 2.09 4.25 2.5 4.25H8.5C8.91 4.25 9.25 4.59 9.25 5C9.25 5.41 8.91 5.75 8.5 5.75Z" fill="#EF4444"/>
<path d="M5.5 19.75H2.5C2.09 19.75 1.75 19.41 1.75 19C1.75 18.59 2.09 18.25 2.5 18.25H5.5C5.91 18.25 6.25 18.59 6.25 19C6.25 19.41 5.91 19.75 5.5 19.75Z" fill="#EF4444"/>
<path d="M3.5 12.75H2.5C2.09 12.75 1.75 12.41 1.75 12C1.75 11.59 2.09 11.25 2.5 11.25H3.5C3.91 11.25 4.25 11.59 4.25 12C4.25 12.41 3.91 12.75 3.5 12.75Z" fill="#EF4444"/>
</svg>
