<svg width="20" height="20" viewBox="0 0 20 20" fill="none" xmlns="http://www.w3.org/2000/svg">
<path d="M18.9915 10.7276C19.0202 11.4657 18.7756 12.186 18.3114 12.7304C17.8472 13.2747 17.2013 13.5987 16.5154 13.6313C16.4753 13.6333 16.4353 13.6343 16.3953 13.6343C16.213 13.6342 16.0313 13.613 15.8533 13.571C15.325 14.4486 14.6324 15.198 13.8196 15.771C13.0068 16.3441 12.0918 16.7284 11.1331 16.8992C11.0197 17.2576 10.7935 17.5622 10.4935 17.7602C10.1936 17.9582 9.83879 18.0372 9.49045 17.9836C9.1421 17.93 8.82211 17.7471 8.58578 17.4666C8.34946 17.186 8.21167 16.8254 8.19621 16.4471C8.18076 16.0689 8.28862 15.6967 8.50115 15.3949C8.71368 15.0931 9.01752 14.8807 9.36015 14.7944C9.70278 14.7081 10.0627 14.7533 10.3776 14.9222C10.6925 15.0912 10.9427 15.3732 11.0849 15.7195C12.4346 15.4509 13.6539 14.6812 14.5303 13.5446C15.4068 12.4079 15.8847 10.9764 15.8809 9.49942C15.8809 6.01017 13.2427 3.17148 10 3.17148C6.75727 3.17148 4.11913 6.01017 4.11913 9.49942C4.11896 10.5784 4.37522 11.6394 4.86356 12.5817C4.88011 12.6128 4.89254 12.6463 4.90047 12.6811C4.94764 12.8222 4.9426 12.9773 4.88639 13.1145C4.83018 13.2517 4.7271 13.3604 4.5985 13.4181C4.28359 13.5607 3.94536 13.6341 3.6037 13.634C3.56349 13.634 3.5232 13.633 3.48282 13.631C2.79718 13.5981 2.15167 13.2739 1.68784 12.7295C1.224 12.1852 0.979703 11.4652 1.0085 10.7273C1.02008 10.4331 1.01362 10.1706 1.0073 9.9167C1.00142 9.67768 0.995291 9.4305 1.00538 9.17258C1.03549 8.45214 1.3235 7.77218 1.80909 7.27512C2.29468 6.77805 2.94017 6.50245 3.61038 6.50602C4.68661 3.85644 7.14539 2 10 2C12.8546 2 15.3134 3.85644 16.3897 6.50606C17.0599 6.50195 17.7056 6.77731 18.1913 7.27439C18.677 7.77146 18.9649 8.45162 18.9946 9.17215C19.0047 9.43046 18.9986 9.6776 18.9927 9.91662C18.9864 10.1705 18.9799 10.4332 18.9915 10.7276ZM14.5655 9.49942C14.5653 10.252 14.4043 10.9945 14.0952 11.6696C13.7861 12.3448 13.337 12.9345 12.7825 13.3933C12.2281 13.8521 11.5831 14.1677 10.8974 14.3159C10.2116 14.4641 9.50338 14.4408 8.82731 14.2478L6.97937 15.3961C6.88613 15.4541 6.77901 15.481 6.67157 15.4734C6.56413 15.4658 6.46118 15.4241 6.37576 15.3536C6.29034 15.2831 6.22627 15.1869 6.19166 15.0772C6.15706 14.9675 6.15346 14.8492 6.18134 14.7373L6.65362 12.8415C5.87149 11.9318 5.43631 10.7387 5.43466 9.49942C5.43466 6.78987 7.48257 4.58569 10 4.58569C12.5174 4.58569 14.5655 6.78987 14.5655 9.49942ZM8.73074 9.49942C8.73074 9.34407 8.67339 9.19509 8.5713 9.08524C8.46922 8.97539 8.33076 8.91368 8.18639 8.91368H8.18548C8.07786 8.9139 7.97271 8.94843 7.88333 9.01293C7.79394 9.07742 7.72433 9.16897 7.68328 9.27602C7.64224 9.38307 7.6316 9.50081 7.65272 9.61436C7.67384 9.72791 7.72577 9.83218 7.80194 9.91399C7.87811 9.99579 7.9751 10.0515 8.08067 10.074C8.18624 10.0965 8.29564 10.0848 8.39505 10.0405C8.49445 9.9961 8.57941 9.92103 8.63918 9.82473C8.69895 9.72843 8.73085 9.61522 8.73085 9.49942H8.73074ZM10.5445 9.49942C10.5444 9.48025 10.5435 9.46109 10.5416 9.44202C10.5398 9.42288 10.5372 9.40385 10.5336 9.38501C10.5304 9.36624 10.526 9.34772 10.5205 9.32956C10.5155 9.3112 10.5093 9.29324 10.5028 9.27528C10.4962 9.25731 10.4883 9.24052 10.4799 9.22373C10.4716 9.20685 10.4625 9.19042 10.4527 9.17453C10.4428 9.15847 10.4321 9.14296 10.4207 9.12806C10.4095 9.11313 10.3975 9.09892 10.3848 9.0855C10.3725 9.07183 10.3591 9.05894 10.3453 9.04645C10.3314 9.03473 10.3169 9.02302 10.302 9.01248C10.2873 9.00189 10.272 8.99211 10.2564 8.98319C10.2407 8.97421 10.2244 8.96601 10.2081 8.95859C10.1917 8.95122 10.175 8.94484 10.158 8.93945C10.1241 8.92772 10.089 8.92013 10.0535 8.9168C10.0002 8.91128 9.9464 8.91404 9.89382 8.925C9.87631 8.92885 9.859 8.93367 9.84196 8.93945C9.82494 8.94482 9.80822 8.95121 9.79187 8.95859C9.77554 8.96601 9.75921 8.97421 9.74361 8.98319C9.728 8.99217 9.71276 9.00193 9.69785 9.01248C9.66806 9.03375 9.64035 9.05821 9.61514 9.0855C9.6024 9.09893 9.5904 9.11314 9.57918 9.12806C9.56794 9.14297 9.55741 9.15847 9.54764 9.17453C9.53767 9.19041 9.52846 9.20683 9.52006 9.22373C9.51169 9.24046 9.50416 9.25767 9.49752 9.27528C9.49063 9.29303 9.48458 9.31115 9.47938 9.32956C9.47433 9.34752 9.46998 9.36626 9.46635 9.38501C9.46276 9.40385 9.46009 9.42288 9.45833 9.44202C9.45655 9.46115 9.45579 9.48029 9.45579 9.49942C9.45579 9.51855 9.45655 9.53808 9.45833 9.55721C9.46011 9.57622 9.46279 9.59512 9.46635 9.61383C9.46998 9.63258 9.47433 9.65132 9.47938 9.66968C9.48458 9.68796 9.49063 9.70594 9.49752 9.72356C9.50416 9.7413 9.51168 9.75864 9.52006 9.7755C9.52837 9.79229 9.53784 9.80869 9.54764 9.8247C9.55742 9.84063 9.56794 9.85601 9.57918 9.87078C9.59049 9.88574 9.60249 9.90008 9.61514 9.91373C9.62784 9.92701 9.64091 9.94029 9.65506 9.95239C9.66871 9.96459 9.68299 9.97593 9.69785 9.98637C9.71276 9.99691 9.72797 10.0071 9.74361 10.016C9.77513 10.0337 9.80804 10.0484 9.84196 10.0598C9.85898 10.0652 9.8764 10.0699 9.89382 10.0738C9.9288 10.0815 9.96443 10.0853 10.0001 10.0852C10.1443 10.0847 10.2826 10.0231 10.3848 9.91373C10.4099 9.88633 10.4326 9.85653 10.4527 9.8247C10.4625 9.80869 10.4716 9.79229 10.4799 9.7755C10.4883 9.75871 10.4959 9.74114 10.5028 9.72356C10.5097 9.70599 10.5155 9.68764 10.5205 9.66968C10.5259 9.65137 10.5303 9.63272 10.5336 9.61383C10.5372 9.59512 10.5398 9.57622 10.5416 9.55721C10.5434 9.53799 10.5444 9.51867 10.5444 9.49934L10.5445 9.49942ZM12.359 9.49942C12.359 9.34407 12.3016 9.19509 12.1995 9.08524C12.0975 8.97539 11.959 8.91368 11.8146 8.91368H11.8136C11.706 8.9139 11.6008 8.94845 11.5114 9.01295C11.4221 9.07744 11.3525 9.169 11.3114 9.27605C11.2704 9.3831 11.2597 9.50084 11.2809 9.61439C11.302 9.72793 11.3539 9.8322 11.4301 9.914C11.5063 9.9958 11.6033 10.0515 11.7088 10.074C11.8144 10.0965 11.9238 10.0848 12.0232 10.0405C12.1226 9.9961 12.2076 9.92102 12.2673 9.82472C12.3271 9.72842 12.359 9.61522 12.359 9.49942Z" fill="#4A90EB"/>
</svg>
