<svg width="22" height="22" viewBox="0 0 22 22" fill="none" xmlns="http://www.w3.org/2000/svg">
<g clip-path="url(#clip0_463_8907)">
<path d="M15.9145 18.3991C16.1397 17.9096 16.5406 17.5508 17.0254 17.3817V15.5547C17.0254 14.4885 17.8928 13.6211 18.959 13.6211H20.0664C20.286 13.621 20.504 13.6585 20.7109 13.732V1.93359C20.7109 0.86741 19.8435 0 18.7773 0H5.88672C4.82054 0 3.95312 0.86741 3.95312 1.93359V2.87891H15.0391C16.4606 2.87891 17.6172 4.03545 17.6172 5.45703V11.4727C17.6172 12.8942 16.4606 14.0508 15.0391 14.0508H3.95312V20.0664C3.95312 21.1326 4.82054 22 5.88672 22H17.5184L16.2031 20.4654C15.7058 19.8852 15.5952 19.0934 15.9145 18.3991Z" fill="#DC2626"/>
<path d="M21.3547 18.5625H20.7114V15.5547C20.7114 15.1987 20.4228 14.9102 20.0669 14.9102H18.9595C18.6035 14.9102 18.3149 15.1987 18.3149 15.5547V18.5625H17.6717C17.121 18.5625 16.8239 19.2084 17.1823 19.6265L19.0238 21.7749C19.281 22.075 19.7453 22.075 20.0025 21.7749L21.844 19.6265C22.2024 19.2084 21.9053 18.5625 21.3547 18.5625ZM8.25097 6.74609H7.46447C7.46537 7.27121 7.46679 8.12977 7.46679 8.46007C7.46679 8.8538 7.46929 9.67514 7.47092 10.1815C7.75004 10.1799 8.09495 10.1774 8.27907 10.1742C9.15675 10.1588 9.55649 9.27734 9.55649 8.46484C9.55649 7.63396 9.21356 6.74609 8.25097 6.74609ZM4.07892 6.74609H3.31348C3.31429 7.03055 3.3152 7.37769 3.3152 7.52898C3.3152 7.70739 3.31674 8.04182 3.31812 8.3148C3.58302 8.31338 3.90434 8.31192 4.07892 8.31192C4.51617 8.31192 4.88557 7.95339 4.88557 7.52903C4.88557 7.10467 4.51617 6.74609 4.07892 6.74609Z" fill="#DC2626"/>
<path d="M16.3281 11.4727V5.45703C16.3281 4.74508 15.751 4.16797 15.0391 4.16797H1.28906C0.577113 4.16797 0 4.74508 0 5.45703V11.4727C0 12.1846 0.577113 12.7617 1.28906 12.7617H15.0391C15.751 12.7617 16.3281 12.1846 16.3281 11.4727ZM4.07846 9.17125C3.90311 9.17125 3.57745 9.17275 3.31173 9.17417V10.6133C3.31173 10.8506 3.11936 11.043 2.88204 11.043C2.64473 11.043 2.45236 10.8506 2.45236 10.6133V6.31778C2.45219 6.26124 2.46317 6.20523 2.48469 6.15294C2.50621 6.10066 2.53783 6.05314 2.57775 6.0131C2.61767 5.97306 2.66509 5.94129 2.71731 5.91961C2.76952 5.89793 2.8255 5.88677 2.88204 5.88676H4.07846C4.99709 5.88676 5.74449 6.6235 5.74449 7.52903C5.74449 8.43455 4.99714 9.17125 4.07846 9.17125ZM9.86799 10.2328C9.4808 10.7381 8.92173 11.0224 8.29366 11.0334C7.94767 11.0395 7.08065 11.0428 7.04391 11.043H7.04228C6.92859 11.043 6.81953 10.9979 6.73899 10.9177C6.65845 10.8374 6.613 10.7285 6.61259 10.6148C6.61255 10.5992 6.607 9.05081 6.607 8.46007C6.607 7.97014 6.60391 6.31722 6.60391 6.31718C6.6038 6.26069 6.61484 6.20473 6.63638 6.15251C6.65792 6.10029 6.68955 6.05283 6.72946 6.01285C6.76937 5.97286 6.81677 5.94114 6.86895 5.9195C6.92113 5.89786 6.97706 5.88672 7.03356 5.88672H8.25051C9.54542 5.88672 10.4154 6.92278 10.4154 8.46484C10.4154 9.14418 10.221 9.77204 9.86799 10.2328ZM13.446 6.74609H12.1342V7.99446H13.3077C13.545 7.99446 13.7374 8.18684 13.7374 8.42415C13.7374 8.66147 13.545 8.85384 13.3077 8.85384H12.1342V10.6133C12.1342 10.8506 11.9418 11.043 11.7045 11.043C11.4672 11.043 11.2748 10.8506 11.2748 10.6133V6.31641C11.2748 6.20245 11.3201 6.09316 11.4007 6.01258C11.4812 5.932 11.5905 5.88673 11.7045 5.88672H13.446C13.6834 5.88672 13.8757 6.07909 13.8757 6.31641C13.8757 6.55372 13.6834 6.74609 13.446 6.74609Z" fill="#DC2626"/>
</g>
<defs>
<clipPath id="clip0_463_8907">
<rect width="22" height="22" fill="white"/>
</clipPath>
</defs>
</svg>
