<svg width="37" height="25" viewBox="0 0 37 25" fill="none" xmlns="http://www.w3.org/2000/svg">
<path d="M34.1656 24.7342H2.83436C1.54763 24.7342 0.5 23.6865 0.5 22.3928V2.60682C0.5 1.32009 1.54763 0.272461 2.83436 0.272461H34.1586C35.4523 0.272461 36.4999 1.32009 36.4999 2.60682V22.3928C36.5 23.6865 35.4524 24.7342 34.1656 24.7342Z" fill="#505278"/>
<path d="M34.1657 0.272461H18.5V24.7342H34.1656C35.4594 24.7342 36.5 23.6865 36.5 22.3998V2.60682C36.5 1.32009 35.4524 0.272461 34.1657 0.272461Z" fill="#424566"/>
<path d="M19.2805 0.27265C19.0414 7.49374 13.093 13.2875 5.81562 13.2875C3.93123 13.2875 2.13125 12.9007 0.5 12.1906V9.04765C2.06797 9.95467 3.88205 10.468 5.81562 10.468C11.5391 10.468 16.2219 5.9328 16.4609 0.265625H19.2804V0.27265H19.2805Z" fill="#575982"/>
<path d="M18.5008 0.272461V4.35762C18.9579 3.07089 19.2321 1.69981 19.2813 0.272461H18.5008ZM36.5009 14.574V17.4287C34.8134 17.1053 33.168 16.9646 31.5368 17.1264C28.5907 17.4217 25.8555 18.7999 22.9235 21.4647C22.4515 21.8948 21.9827 22.3284 21.5172 22.7655C20.8141 23.4194 20.1109 24.0803 19.3727 24.7272H14.8164C16.5039 23.6022 18.0156 22.1889 19.5976 20.7123C20.0687 20.2764 20.5469 19.8194 21.032 19.3834C24.4351 16.2967 27.6836 14.6865 31.2554 14.328C33.0204 14.1522 34.8063 14.2928 36.5009 14.574Z" fill="#505278"/>
<path d="M14.8164 24.7343H18.5008V21.7319C17.2985 22.8358 16.1102 23.8695 14.8164 24.7343Z" fill="#575982"/>
<path d="M8.03751 12.1764H4.58515C4.05779 12.1764 3.62891 11.7475 3.62891 11.2201V8.92793C3.62891 8.40057 4.05779 7.97168 4.58515 7.97168H8.03751C8.56487 7.97168 8.99376 8.40057 8.99376 8.92793V11.2201C8.98673 11.7545 8.56481 12.1764 8.03751 12.1764Z" fill="#424566"/>
<path d="M8.03789 12.1203H4.57851C4.08633 12.1203 3.68555 11.7195 3.68555 11.2273V8.92812C3.68555 8.43594 4.08633 8.03516 4.57851 8.03516H8.03789C8.53007 8.03516 8.93085 8.43594 8.93085 8.92812V11.2273C8.93085 11.7195 8.53007 12.1203 8.03789 12.1203Z" fill="#FEBD55"/>
<path d="M8.93085 10.1514V10.0107H7.10272V9.392L7.57382 8.9209H8.93085C8.93085 8.87167 8.92383 8.82249 8.91681 8.78028H7.53869C7.51762 8.78028 7.50351 8.78731 7.48946 8.80136L6.99729 9.29353H6.37848V8.04199H6.23786V9.29353H5.62614L5.13397 8.80136C5.12065 8.78859 5.10316 8.7811 5.08473 8.78028H3.6996C3.69257 8.82249 3.68555 8.87167 3.68555 8.9209H5.05663L5.52071 9.38498V10.0107H3.68555V10.1514H5.52071V10.7771L5.05663 11.2412H3.68555C3.68555 11.2904 3.69257 11.3396 3.6996 11.3818H5.08473C5.10581 11.3818 5.11992 11.3748 5.13397 11.3608L5.62614 10.8686H6.23786V12.1201H6.37848V10.8686H6.99723L7.4894 11.3608C7.50345 11.3748 7.5175 11.3818 7.53864 11.3818H8.91675C8.92377 11.3396 8.9308 11.2904 8.9308 11.2412H7.57376L7.10266 10.7701V10.1514H8.93085ZM6.9621 10.7279H5.66133V9.42713H6.9621V10.7279Z" fill="#B5613C"/>
<path d="M32.7317 12.078C32.7 12.0786 32.6686 12.0713 32.6404 12.057C32.5349 12.0077 32.4927 11.8812 32.549 11.7757C33.0904 10.6999 33.0904 9.46946 32.549 8.39367C32.4997 8.28817 32.5419 8.16166 32.6404 8.11243C32.7458 8.06319 32.8724 8.1054 32.9216 8.20381C33.5263 9.39915 33.5263 10.7702 32.9216 11.9655C32.8794 12.0359 32.8091 12.078 32.7317 12.078ZM32.0075 11.6772C32.577 10.6647 32.577 9.49756 32.0075 8.48505C31.9512 8.38664 31.8247 8.34443 31.7192 8.40772C31.6208 8.46398 31.5786 8.59055 31.6419 8.69599C32.1411 9.58192 32.1411 10.5944 31.6419 11.4733C31.5856 11.5718 31.6208 11.7053 31.7192 11.7616C31.7511 11.7806 31.7876 11.7904 31.8247 11.7897C31.895 11.7827 31.9653 11.7405 32.0075 11.6772ZM31.1075 11.389C31.663 10.5804 31.663 9.5749 31.1075 8.75927C31.0442 8.66086 30.9106 8.63973 30.8122 8.70301C30.7138 8.7663 30.6927 8.89989 30.756 8.9983C31.206 9.65926 31.206 10.4889 30.756 11.1499C30.6927 11.2483 30.7137 11.3749 30.8122 11.4452C30.8474 11.4733 30.8896 11.4803 30.9318 11.4803C31.002 11.4874 31.0653 11.4523 31.1075 11.389ZM30.1583 11.1218C30.4677 10.8405 30.6364 10.4679 30.6364 10.0812C30.6364 9.6945 30.4677 9.32181 30.1583 9.04057C30.0739 8.96324 29.9403 8.96324 29.863 9.05462C29.7857 9.13898 29.7857 9.27258 29.877 9.34992C30.095 9.55382 30.2145 9.81399 30.2145 10.0812C30.2145 10.3484 30.095 10.6085 29.877 10.8124C29.7927 10.8898 29.7857 11.0234 29.863 11.1077C29.9052 11.1499 29.9614 11.178 30.0177 11.178C30.0668 11.178 30.1161 11.157 30.1583 11.1218Z" fill="#CAD4FF"/>
<path d="M18.2121 21.1904H3.89648C3.77693 21.1904 3.68555 21.099 3.68555 20.9795C3.68555 20.8599 3.77693 20.7686 3.89648 20.7686H18.2121C18.3316 20.7686 18.423 20.8599 18.423 20.9795C18.423 21.099 18.3246 21.1904 18.2121 21.1904Z" fill="#E6EAFF"/>
<path d="M33.1594 21.1904H30.4453C30.3258 21.1904 30.2344 21.099 30.2344 20.9795C30.2344 20.8599 30.3258 20.7686 30.4453 20.7686H33.1594C33.2789 20.7686 33.3703 20.8599 33.3703 20.9795C33.3703 21.099 33.2719 21.1904 33.1594 21.1904ZM29.2922 20.9795C29.2922 20.8599 29.2008 20.7686 29.0813 20.7686H26.3672C26.2476 20.7686 26.1562 20.8599 26.1562 20.9795C26.1562 21.099 26.2476 21.1904 26.3672 21.1904H29.0813C29.2008 21.1904 29.2922 21.092 29.2922 20.9795Z" fill="#CAD4FF"/>
<path d="M3.89534 5.06795C3.7758 5.06795 3.68441 4.97656 3.68441 4.85701V4.02734C3.68441 3.90779 3.7758 3.81641 3.89534 3.81641C4.01489 3.81641 4.10627 3.90779 4.10627 4.02734V4.84999C4.10627 4.96954 4.01489 5.06795 3.89534 5.06795ZM5.25238 4.85701V4.02734C5.25238 3.90779 5.16099 3.81641 5.04144 3.81641C4.9219 3.81641 4.83051 3.90779 4.83051 4.02734V4.84999C4.83051 4.96954 4.9219 5.06092 5.04144 5.06092C5.16093 5.06795 5.25238 4.96953 5.25238 4.85701ZM6.4055 4.85701V4.02734C6.4055 3.90779 6.31412 3.81641 6.19457 3.81641C6.07503 3.81641 5.98364 3.90779 5.98364 4.02734V4.84999C5.98364 4.96954 6.07503 5.06092 6.19457 5.06092C6.30703 5.06795 6.4055 4.96953 6.4055 4.85701ZM7.55161 4.85701V4.02734C7.55161 3.90779 7.46022 3.81641 7.34068 3.81641C7.22113 3.81641 7.12974 3.90779 7.12974 4.02734V4.84999C7.12974 4.96954 7.22113 5.06092 7.34068 5.06092C7.46016 5.06795 7.55161 4.96953 7.55161 4.85701ZM4.33125 17.6117H4.29607C3.94452 17.6117 3.65625 17.3235 3.65625 16.9719V15.9735C3.65625 15.6219 3.94452 15.3336 4.29607 15.3336H4.33125C4.68281 15.3336 4.97107 15.6219 4.97107 15.9735V16.9719C4.97137 17.056 4.95502 17.1394 4.92298 17.2171C4.89093 17.2949 4.84381 17.3655 4.78434 17.425C4.72487 17.4845 4.65421 17.5316 4.57645 17.5636C4.49869 17.5957 4.41536 17.612 4.33125 17.6117ZM4.29613 15.7554C4.23841 15.7557 4.18313 15.7788 4.14232 15.8196C4.1015 15.8604 4.07845 15.9157 4.07817 15.9734V16.9719C4.07845 17.0296 4.1015 17.0849 4.14232 17.1257C4.18313 17.1665 4.23841 17.1895 4.29613 17.1898H4.33131C4.38903 17.1895 4.44431 17.1665 4.48512 17.1257C4.52594 17.0849 4.54899 17.0296 4.54927 16.9719V15.9734C4.54899 15.9157 4.52594 15.8604 4.48512 15.8196C4.44431 15.7788 4.38903 15.7557 4.33131 15.7554H4.29613ZM6.03984 17.6117H6.00466C5.65311 17.6117 5.36484 17.3235 5.36484 16.9719V15.9735C5.36484 15.6219 5.65311 15.3336 6.00466 15.3336H6.03984C6.39139 15.3336 6.67966 15.6219 6.67966 15.9735V16.9719C6.67996 17.056 6.66361 17.1394 6.63156 17.2171C6.59951 17.2949 6.5524 17.3655 6.49292 17.425C6.43345 17.4845 6.3628 17.5316 6.28504 17.5636C6.20728 17.5957 6.12395 17.612 6.03984 17.6117ZM6.00472 15.7554C5.947 15.7557 5.89172 15.7788 5.85091 15.8196C5.81009 15.8604 5.78704 15.9157 5.78676 15.9734V16.9719C5.78704 17.0296 5.81009 17.0849 5.85091 17.1257C5.89172 17.1665 5.947 17.1895 6.00472 17.1898H6.0399C6.09762 17.1895 6.1529 17.1665 6.19371 17.1257C6.23453 17.0849 6.25758 17.0296 6.25786 16.9719V15.9734C6.25758 15.9157 6.23453 15.8604 6.19371 15.8196C6.1529 15.7788 6.09762 15.7557 6.0399 15.7554H6.00472ZM7.74849 17.6117H7.7133C7.36175 17.6117 7.07348 17.3235 7.07348 16.9719V15.9735C7.07348 15.6219 7.36175 15.3336 7.7133 15.3336H7.74849C8.10004 15.3336 8.38831 15.6219 8.38831 15.9735V16.9719C8.38831 17.3234 8.10004 17.6117 7.74849 17.6117ZM7.7133 15.7554C7.65558 15.7557 7.60031 15.7788 7.55949 15.8196C7.51868 15.8604 7.49563 15.9157 7.49535 15.9734V16.9719C7.49563 17.0296 7.51868 17.0849 7.55949 17.1257C7.60031 17.1665 7.65558 17.1895 7.7133 17.1898H7.74849C7.80621 17.1895 7.86148 17.1665 7.9023 17.1257C7.94311 17.0849 7.96617 17.0296 7.96645 16.9719V15.9734C7.96617 15.9157 7.94311 15.8604 7.9023 15.8196C7.86148 15.7788 7.80621 15.7557 7.74849 15.7554H7.7133ZM9.45708 17.6117H9.42189C9.07034 17.6117 8.78207 17.3235 8.78207 16.9719V15.9735C8.78207 15.6219 9.07034 15.3336 9.42189 15.3336H9.45708C9.80863 15.3336 10.0969 15.6219 10.0969 15.9735V16.9719C10.0969 17.3234 9.80863 17.6117 9.45708 17.6117ZM9.42189 15.7554C9.36417 15.7557 9.3089 15.7788 9.26808 15.8196C9.22727 15.8604 9.20421 15.9157 9.20393 15.9734V16.9719C9.20421 17.0296 9.22727 17.0849 9.26808 17.1257C9.3089 17.1665 9.36417 17.1895 9.42189 17.1898H9.45708C9.5148 17.1895 9.57007 17.1665 9.61089 17.1257C9.6517 17.0849 9.67475 17.0296 9.67503 16.9719V15.9734C9.67475 15.9157 9.6517 15.8604 9.61089 15.8196C9.57007 15.7788 9.5148 15.7557 9.45708 15.7554H9.42189ZM12.0797 17.6117H12.0445C11.693 17.6117 11.4047 17.3235 11.4047 16.9719V15.9735C11.4047 15.6219 11.693 15.3336 12.0445 15.3336H12.0797C12.4313 15.3336 12.7195 15.6219 12.7195 15.9735V16.9719C12.7196 17.3234 12.4313 17.6117 12.0797 17.6117ZM12.0446 15.7554C11.9869 15.7557 11.9316 15.7788 11.8908 15.8196C11.8499 15.8604 11.8269 15.9157 11.8266 15.9734V16.9719C11.8269 17.0296 11.8499 17.0849 11.8908 17.1257C11.9316 17.1665 11.9869 17.1895 12.0446 17.1898H12.0798C12.1375 17.1895 12.1928 17.1665 12.2336 17.1257C12.2744 17.0849 12.2974 17.0296 12.2977 16.9719V15.9734C12.2974 15.9157 12.2744 15.8604 12.2336 15.8196C12.1928 15.7788 12.1375 15.7557 12.0798 15.7554H12.0446ZM13.7883 17.6117H13.7531C13.4016 17.6117 13.1133 17.3235 13.1133 16.9719V15.9735C13.1133 15.6219 13.4016 15.3336 13.7531 15.3336H13.7883C14.1398 15.3336 14.4281 15.6219 14.4281 15.9735V16.9719C14.4282 17.3234 14.1398 17.6117 13.7883 17.6117ZM13.7532 15.7554C13.6954 15.7557 13.6402 15.7788 13.5994 15.8196C13.5585 15.8604 13.5355 15.9157 13.5352 15.9734V16.9719C13.5355 17.0296 13.5585 17.0849 13.5994 17.1257C13.6402 17.1665 13.6954 17.1895 13.7532 17.1898H13.7883C13.8461 17.1895 13.9013 17.1665 13.9422 17.1257C13.983 17.0849 14.006 17.0296 14.0063 16.9719V15.9734C14.006 15.9157 13.983 15.8604 13.9422 15.8196C13.9013 15.7788 13.8461 15.7557 13.7883 15.7554H13.7532ZM15.4969 17.6117H15.4617C15.1101 17.6117 14.8219 17.3235 14.8219 16.9719V15.9735C14.8219 15.6219 15.1101 15.3336 15.4617 15.3336H15.4969C15.8484 15.3336 16.1367 15.6219 16.1367 15.9735V16.9719C16.1368 17.3234 15.8485 17.6117 15.4969 17.6117ZM15.4618 15.7554C15.404 15.7557 15.3488 15.7788 15.3079 15.8196C15.2671 15.8604 15.2441 15.9157 15.2438 15.9734V16.9719C15.2441 17.0296 15.2671 17.0849 15.3079 17.1257C15.3488 17.1665 15.404 17.1895 15.4618 17.1898H15.4969C15.5547 17.1895 15.6099 17.1665 15.6507 17.1257C15.6916 17.0849 15.7146 17.0296 15.7149 16.9719V15.9734C15.7146 15.9157 15.6916 15.8604 15.6507 15.8196C15.6099 15.7788 15.5547 15.7557 15.4969 15.7554H15.4618ZM17.2055 17.6117H17.1703C16.8187 17.6117 16.5305 17.3235 16.5305 16.9719V15.9735C16.5305 15.6219 16.8187 15.3336 17.1703 15.3336H17.2055C17.557 15.3336 17.8453 15.6219 17.8453 15.9735V16.9719C17.8453 17.3234 17.5571 17.6117 17.2055 17.6117ZM17.1703 15.7554C17.1126 15.7557 17.0573 15.7788 17.0165 15.8196C16.9757 15.8604 16.9527 15.9157 16.9524 15.9734V16.9719C16.9527 17.0296 16.9757 17.0849 17.0165 17.1257C17.0573 17.1665 17.1126 17.1895 17.1703 17.1898H17.2055C17.2632 17.1895 17.3185 17.1665 17.3593 17.1257C17.4001 17.0849 17.4232 17.0296 17.4235 16.9719V15.9734C17.4232 15.9157 17.4001 15.8604 17.3593 15.8196C17.3185 15.7788 17.2632 15.7557 17.2055 15.7554H17.1703Z" fill="#E6EAFF"/>
<path d="M19.8293 17.6116H19.7941C19.4426 17.6116 19.1543 17.3233 19.1543 16.9718V15.9733C19.1543 15.6218 19.4426 15.3335 19.7941 15.3335H19.8293C20.1809 15.3335 20.4691 15.6218 20.4691 15.9733V16.9718C20.4691 17.3233 20.1809 17.6116 19.8293 17.6116ZM19.7941 15.7553C19.7364 15.7556 19.6811 15.7786 19.6403 15.8194C19.5995 15.8603 19.5764 15.9155 19.5762 15.9733V16.9717C19.5764 17.0294 19.5995 17.0847 19.6403 17.1255C19.6811 17.1663 19.7364 17.1894 19.7941 17.1897H19.8293C19.887 17.1894 19.9423 17.1663 19.9831 17.1255C20.0239 17.0847 20.047 17.0294 20.0473 16.9717V15.9733C20.047 15.9155 20.0239 15.8603 19.9831 15.8194C19.9423 15.7786 19.887 15.7556 19.8293 15.7553H19.7941ZM21.5379 17.6116H21.5028C21.1512 17.6116 20.8629 17.3233 20.8629 16.9718V15.9733C20.8629 15.6218 21.1512 15.3335 21.5028 15.3335H21.5379C21.8894 15.3335 22.1777 15.6218 22.1777 15.9733V16.9718C22.1777 17.3233 21.8894 17.6116 21.5379 17.6116ZM21.5028 15.7553C21.445 15.7556 21.3898 15.7786 21.349 15.8194C21.3081 15.8603 21.2851 15.9155 21.2848 15.9733V16.9717C21.2851 17.0294 21.3081 17.0847 21.349 17.1255C21.3898 17.1663 21.445 17.1894 21.5028 17.1897H21.5379C21.5956 17.1894 21.6509 17.1663 21.6917 17.1255C21.7325 17.0847 21.7556 17.0294 21.7558 16.9717V15.9733C21.7556 15.9155 21.7325 15.8603 21.6917 15.8194C21.6509 15.7786 21.5956 15.7556 21.5379 15.7553H21.5028ZM23.2465 17.6116H23.2113C22.8597 17.6116 22.5715 17.3233 22.5715 16.9718V15.9733C22.5715 15.6218 22.8597 15.3335 23.2113 15.3335H23.2465C23.598 15.3335 23.8863 15.6218 23.8863 15.9733V16.9718C23.8864 17.3233 23.598 17.6116 23.2465 17.6116ZM23.2114 15.7553C23.1536 15.7556 23.0984 15.7786 23.0575 15.8194C23.0167 15.8603 22.9937 15.9155 22.9934 15.9733V16.9717C22.9937 17.0294 23.0167 17.0847 23.0575 17.1255C23.0984 17.1663 23.1536 17.1894 23.2114 17.1897H23.2465C23.3043 17.1894 23.3595 17.1663 23.4003 17.1255C23.4412 17.0847 23.4642 17.0294 23.4645 16.9717V15.9733C23.4642 15.9155 23.4412 15.8603 23.4003 15.8194C23.3595 15.7786 23.3043 15.7556 23.2465 15.7553H23.2114ZM24.9551 17.6116H24.9199C24.5683 17.6116 24.2801 17.3233 24.2801 16.9718V15.9733C24.2801 15.6218 24.5683 15.3335 24.9199 15.3335H24.9551C25.3066 15.3335 25.5949 15.6218 25.5949 15.9733V16.9718C25.5949 17.3233 25.3066 17.6116 24.9551 17.6116ZM24.9199 15.7553C24.8622 15.7556 24.8069 15.7786 24.7661 15.8194C24.7253 15.8603 24.7023 15.9155 24.702 15.9733V16.9717C24.7023 17.0294 24.7253 17.0847 24.7661 17.1255C24.8069 17.1663 24.8622 17.1894 24.9199 17.1897H24.9551C25.0128 17.1894 25.0681 17.1663 25.1089 17.1255C25.1497 17.0847 25.1728 17.0294 25.1731 16.9717V15.9733C25.1728 15.9155 25.1497 15.8603 25.1089 15.8194C25.0681 15.7786 25.0128 15.7556 24.9551 15.7553H24.9199ZM27.5777 17.6116H27.5426C27.191 17.6116 26.9027 17.3233 26.9027 16.9718V15.9733C26.9027 15.6218 27.191 15.3335 27.5426 15.3335H27.5777C27.9293 15.3335 28.2176 15.6218 28.2176 15.9733V16.9718C28.2176 17.3233 27.9293 17.6116 27.5777 17.6116ZM27.5426 15.7553C27.4848 15.7556 27.4296 15.7786 27.3888 15.8194C27.3479 15.8603 27.3249 15.9155 27.3246 15.9733V16.9717C27.3249 17.0294 27.3479 17.0847 27.3888 17.1255C27.4296 17.1663 27.4848 17.1894 27.5426 17.1897H27.5777C27.6355 17.1894 27.6907 17.1663 27.7316 17.1255C27.7724 17.0847 27.7954 17.0294 27.7957 16.9717V15.9733C27.7954 15.9155 27.7724 15.8603 27.7316 15.8194C27.6907 15.7786 27.6355 15.7556 27.5777 15.7553H27.5426ZM29.2863 17.6116H29.2512C28.8997 17.6116 28.6114 17.3233 28.6114 16.9718V15.9733C28.6114 15.6218 28.8997 15.3335 29.2512 15.3335H29.2863C29.6379 15.3335 29.9262 15.6218 29.9262 15.9733V16.9718C29.9262 17.3233 29.6379 17.6116 29.2863 17.6116ZM29.2512 15.7553C29.1934 15.7556 29.1382 15.7786 29.0973 15.8194C29.0565 15.8603 29.0335 15.9155 29.0332 15.9733V16.9717C29.0335 17.0294 29.0565 17.0847 29.0973 17.1255C29.1382 17.1663 29.1934 17.1894 29.2512 17.1897H29.2863C29.344 17.1894 29.3993 17.1663 29.4401 17.1255C29.4809 17.0847 29.504 17.0294 29.5042 16.9717V15.9733C29.504 15.9155 29.4809 15.8603 29.4401 15.8194C29.3993 15.7786 29.344 15.7556 29.2863 15.7553H29.2512ZM30.9949 17.6116H30.9597C30.6082 17.6116 30.3199 17.3233 30.3199 16.9718V15.9733C30.3199 15.6218 30.6082 15.3335 30.9597 15.3335H30.9949C31.3465 15.3335 31.6347 15.6218 31.6347 15.9733V16.9718C31.6347 17.3233 31.3465 17.6116 30.9949 17.6116ZM30.9598 15.7553C30.9021 15.7556 30.8468 15.7786 30.806 15.8194C30.7652 15.8603 30.7421 15.9155 30.7418 15.9733V16.9717C30.7421 17.0294 30.7652 17.0847 30.806 17.1255C30.8468 17.1663 30.9021 17.1894 30.9598 17.1897H30.995C31.0527 17.1894 31.108 17.1663 31.1488 17.1255C31.1896 17.0847 31.2127 17.0294 31.2129 16.9717V15.9733C31.2127 15.9155 31.1896 15.8603 31.1488 15.8194C31.108 15.7786 31.0527 15.7556 30.995 15.7553H30.9598ZM32.7035 17.6116H32.6683C32.3168 17.6116 32.0285 17.3233 32.0285 16.9718V15.9733C32.0285 15.6218 32.3168 15.3335 32.6683 15.3335H32.7035C33.0551 15.3335 33.3433 15.6218 33.3433 15.9733V16.9718C33.3434 17.3233 33.0551 17.6116 32.7035 17.6116ZM32.6684 15.7553C32.6107 15.7556 32.5554 15.7786 32.5146 15.8194C32.4738 15.8603 32.4507 15.9155 32.4504 15.9733V16.9717C32.4507 17.0294 32.4738 17.0847 32.5146 17.1255C32.5554 17.1663 32.6107 17.1894 32.6684 17.1897H32.7036C32.7613 17.1894 32.8166 17.1663 32.8574 17.1255C32.8982 17.0847 32.9212 17.0294 32.9215 16.9717V15.9733C32.9212 15.9155 32.8982 15.8603 32.8574 15.8194C32.8166 15.7786 32.7613 15.7556 32.7036 15.7553H32.6684Z" fill="#CAD4FF"/>
</svg>
