<svg width="72" height="72" viewBox="0 0 72 72" fill="none" xmlns="http://www.w3.org/2000/svg">
<rect width="72" height="72" rx="36" fill="url(#paint0_linear_734_9560)"/>
<path d="M30 26C30 22.6 32.6 20 36 20C39.4 20 42 22.6 42 26V30H46V26C46 20.4 41.6 16 36 16C30.4 16 26 20.4 26 26V30H30V26ZM39 41C39 39.4 37.6 38 36 38C34.4 38 33 39.4 33 41C33 41.8 33.4 42.6 34 43.2V46C34 47.2 34.8 48 36 48C37.2 48 38 47.2 38 46V43.2C38.6 42.6 39 41.8 39 41Z" fill="#97BEF2"/>
<path d="M46 30H26C22.6 30 20 32.6 20 36V50C20 53.4 22.6 56 26 56H46C49.4 56 52 53.4 52 50V36C52 32.6 49.4 30 46 30ZM38 43.2V46C38 47.2 37.2 48 36 48C34.8 48 34 47.2 34 46V43.2C33.4 42.6 33 41.8 33 41C33 39.4 34.4 38 36 38C37.6 38 39 39.4 39 41C39 41.8 38.6 42.6 38 43.2Z" fill="#4A90EB"/>
<defs>
<linearGradient id="paint0_linear_734_9560" x1="36" y1="0" x2="36" y2="72" gradientUnits="userSpaceOnUse">
<stop stop-color="#454957"/>
<stop offset="1" stop-color="#454957" stop-opacity="0.5"/>
</linearGradient>
</defs>
</svg>
