<svg width="152" height="150" viewBox="0 0 152 150" fill="none" xmlns="http://www.w3.org/2000/svg">
<path d="M78.4242 140.425C115.582 140.425 145.704 110.303 145.704 73.1454C145.704 35.9879 115.582 5.86572 78.4242 5.86572C41.2667 5.86572 11.1445 35.9879 11.1445 73.1454C11.1445 110.303 41.2667 140.425 78.4242 140.425Z" fill="#1C1E25"/>
<path d="M137.009 106.305C137.242 106.353 137.418 106.559 137.418 106.807C137.418 107.054 137.242 107.261 137.009 107.309L136.905 107.319H130.153C124.293 111.842 122.808 116.767 122.76 120.547C122.736 122.463 123.081 124.099 123.433 125.256C123.608 125.833 123.784 126.29 123.915 126.6C123.981 126.754 124.035 126.872 124.072 126.95C124.08 126.967 124.087 126.982 124.094 126.995L128.372 131.273L128.437 131.354C128.569 131.552 128.547 131.823 128.372 131.998C128.197 132.173 127.927 132.195 127.728 132.063L127.647 131.998L123.369 127.72L123.32 127.695C123.241 127.657 123.121 127.602 122.964 127.534C122.649 127.399 122.185 127.217 121.599 127.035C120.424 126.671 118.764 126.31 116.825 126.317C112.97 126.333 107.954 127.808 103.405 133.78C103.392 133.797 103.376 133.812 103.361 133.827V139.834C103.361 140.03 103.202 140.189 103.006 140.189C102.81 140.189 102.651 140.03 102.651 139.834V133.845C102.459 133.667 102.427 133.371 102.589 133.159C102.609 133.132 102.631 133.106 102.651 133.079V128.653C102.499 128.514 102.44 128.29 102.52 128.087L102.651 127.771V121.036C102.5 120.897 102.44 120.675 102.52 120.473L102.651 120.147V106.807C102.651 106.741 102.669 106.68 102.7 106.628C102.702 106.622 102.705 106.616 102.707 106.61C102.786 106.419 102.973 106.294 103.181 106.294H136.905L137.009 106.305ZM115.412 121.043C114.424 120.993 113.071 121.026 111.606 121.351C108.785 121.976 105.539 123.681 103.652 128.036L103.474 128.466C103.447 128.532 103.408 128.589 103.361 128.637V132.193C107.911 126.753 112.887 125.308 116.821 125.292C118.739 125.284 120.396 125.617 121.623 125.974L116.842 121.192C116.775 121.181 116.687 121.166 116.579 121.151C116.305 121.113 115.905 121.068 115.412 121.043ZM110.978 116.032C110.371 115.97 109.538 115.954 108.632 116.137C106.903 116.485 104.862 117.559 103.595 120.55L103.475 120.846C103.448 120.913 103.409 120.971 103.361 121.02V126.309C105.454 122.552 108.615 120.963 111.385 120.35C112.962 120 114.41 119.966 115.463 120.019C115.537 120.022 115.61 120.027 115.681 120.031L111.815 116.166C111.781 116.158 111.74 116.148 111.692 116.139C111.526 116.105 111.281 116.063 110.978 116.032ZM123.89 107.47C119.566 109.435 117.93 112.622 117.365 115.354C117.072 116.775 117.067 118.078 117.137 119.026C117.172 119.5 117.226 119.883 117.27 120.146C117.271 120.156 117.273 120.166 117.274 120.176L117.422 120.323C117.447 120.344 117.47 120.367 117.491 120.393L122.369 125.271C122.026 124.061 121.71 122.427 121.734 120.534C121.783 116.686 123.228 111.821 128.521 107.319H124.232L123.89 107.47ZM117.246 107.319C114.049 108.576 112.911 110.638 112.54 112.363C112.351 113.243 112.359 114.051 112.416 114.639C112.444 114.932 112.484 115.168 112.517 115.329C112.525 115.373 112.534 115.41 112.541 115.442L116.109 119.011C116.041 118.003 116.053 116.639 116.361 115.147C116.91 112.494 118.395 109.454 121.968 107.319H117.246ZM103.361 118.757C104.773 116.446 106.713 115.478 108.43 115.132C109.248 114.967 110.009 114.946 110.628 114.979L103.361 107.712V118.757ZM111.363 114.265C111.338 113.666 111.369 112.936 111.538 112.148C111.887 110.524 112.82 108.698 114.978 107.319H104.418L111.363 114.265Z" fill="url(#paint0_linear_695_19976)"/>
<path fill-rule="evenodd" clip-rule="evenodd" d="M78.5294 13.3687C78.1933 13.23 77.8331 13.159 77.4695 13.1596L77.4665 13.1596C76.7324 13.1602 76.0285 13.4521 75.5093 13.9713C74.9905 14.4901 74.6986 15.1935 74.6977 15.9272V19.411H67.8125L67.8125 15.9225C67.8147 13.3644 68.8319 10.9116 70.6408 9.10272C72.4493 7.29417 74.9015 6.27701 77.4592 6.27443L77.4606 6.27442C78.7284 6.27262 79.9841 6.52062 81.156 7.00427C82.3289 7.4883 83.3948 8.19884 84.2927 9.09525C85.1907 9.99165 85.903 11.0563 86.3891 12.2283C86.8752 13.4003 87.1253 14.6567 87.1253 15.9255V19.2821H80.2402V15.9255C80.2402 15.5618 80.1685 15.2018 80.0292 14.8659C79.8899 14.53 79.6857 14.2249 79.4284 13.968C79.171 13.7111 78.8656 13.5075 78.5294 13.3687ZM77.4606 6.27442L77.4592 6.27443L77.4606 6.27442Z" fill="#99CAF7"/>
<path d="M77.889 131.92C92.159 131.92 103.727 120.352 103.727 106.082C103.727 91.8123 92.159 80.2441 77.889 80.2441C63.6189 80.2441 52.0508 91.8123 52.0508 106.082C52.0508 120.352 63.6189 131.92 77.889 131.92Z" fill="url(#paint1_linear_695_19976)"/>
<path d="M118.656 77.5965V57.7734C118.656 46.9609 114.361 36.5913 106.716 28.9457C99.0699 21.3001 88.7003 17.0049 77.8878 17.0049C67.0753 17.0049 56.7056 21.3001 49.0601 28.9457C41.4145 36.5913 37.1192 46.9609 37.1192 57.7734V77.5965C37.1197 82.1507 35.8313 86.612 33.4031 90.4649C30.9749 94.3177 27.506 97.4047 23.3972 99.3691C22.4529 99.8188 21.6557 100.528 21.0985 101.413C20.5414 102.298 20.2471 103.323 20.25 104.369V104.477C20.2493 104.854 20.3231 105.229 20.4672 105.578C20.6113 105.927 20.8228 106.244 21.0897 106.512C21.3566 106.779 21.6736 106.991 22.0225 107.136C22.3715 107.281 22.7455 107.355 23.1233 107.355H132.647C133.025 107.355 133.399 107.281 133.748 107.136C134.097 106.991 134.414 106.779 134.681 106.512C134.947 106.244 135.159 105.927 135.303 105.578C135.447 105.229 135.521 104.854 135.52 104.477V104.369C135.521 103.327 135.226 102.305 134.67 101.423C134.114 100.541 133.319 99.8345 132.378 99.3852C128.267 97.4196 124.797 94.3301 122.368 90.4742C119.94 86.6182 118.653 82.1534 118.656 77.5965Z" fill="url(#paint2_linear_695_19976)"/>
<path d="M61.8025 61.3491C61.8153 61.35 61.8279 61.3522 61.8406 61.3539C61.858 61.3564 61.8752 61.3597 61.8923 61.3637C61.9058 61.3668 61.9191 61.3704 61.9324 61.3745C61.951 61.3802 61.969 61.3874 61.9871 61.395C61.9965 61.3989 62.0062 61.4022 62.0154 61.4067C62.0353 61.4163 62.0542 61.4279 62.073 61.4399C62.0813 61.4452 62.0903 61.4497 62.0984 61.4555C62.1249 61.4743 62.1501 61.4955 62.1736 61.519L76.8289 76.1762L76.8318 76.1782C76.89 76.2187 76.9392 76.2691 76.9783 76.3256L95.9285 95.2788L96.0037 95.3705C96.1537 95.5979 96.1284 95.9067 95.9285 96.1069C95.7281 96.3071 95.4186 96.3325 95.1912 96.1821L95.0994 96.1069L85.8718 86.8774L85.3201 86.7543C78.0559 85.2293 72.3522 87.124 68.4246 89.4409C66.394 90.6387 64.8385 91.9503 63.7917 92.9604C63.2688 93.4651 62.8736 93.8935 62.6111 94.1938C62.4977 94.3235 62.409 94.4297 62.3455 94.5073V95.8705C62.3452 96.194 62.083 96.4565 61.7595 96.4565C61.4361 96.4564 61.1738 96.1939 61.1736 95.8705V94.5073C61.11 94.4297 61.0214 94.3235 60.908 94.1938C60.6454 93.8935 60.2503 93.465 59.7273 92.9604C58.6805 91.9503 57.1244 90.6386 55.0935 89.4409C51.067 87.0662 45.1745 85.1359 37.6462 86.8764L28.3279 96.1987L28.2361 96.2739C28.0088 96.4238 27.6999 96.3986 27.4998 96.1987C27.2709 95.9698 27.2709 95.5984 27.4998 95.3696L36.9109 85.9555C36.9206 85.9444 36.9316 85.9346 36.9421 85.9243L46.5554 76.309C46.5923 76.2596 46.6351 76.2135 46.6873 76.1772L51.8142 71.0502C51.8222 71.0414 51.831 71.0332 51.8396 71.0248L61.3474 61.517C61.3713 61.4933 61.3976 61.472 61.4255 61.4526L61.4373 61.4438L61.4666 61.4262C61.4822 61.4171 61.4987 61.4095 61.5154 61.4018C61.5201 61.3996 61.5243 61.396 61.5291 61.394C61.5309 61.3932 61.533 61.3928 61.5349 61.392C61.5506 61.3856 61.5668 61.3805 61.5828 61.3754C61.6065 61.3679 61.6306 61.3623 61.655 61.3579C61.7041 61.3489 61.7535 61.3454 61.8025 61.3491ZM79.322 80.7446C72.5075 79.9673 68.2822 81.7353 65.7576 83.6704C64.4474 84.6747 63.5785 85.7367 63.0398 86.5424C62.7707 86.945 62.5842 87.2834 62.4666 87.517C62.4113 87.6268 62.3717 87.7136 62.3455 87.7729V92.7524C62.5323 92.5577 62.7428 92.3438 62.9783 92.1166C64.0762 91.0571 65.7045 89.6858 67.8298 88.4321C71.7399 86.1256 77.3337 84.2213 84.3826 85.3881L79.7986 80.8032L79.322 80.7446ZM57.7615 83.6704C55.1781 81.6903 50.8143 79.8854 43.7175 80.8032L39.1345 85.3871C46.1845 84.2213 51.779 86.1259 55.6892 88.4321C57.8151 89.6859 59.4437 91.0571 60.5417 92.1166C60.7768 92.3435 60.987 92.557 61.1736 92.7514V87.7729C61.1473 87.7135 61.1077 87.6268 61.0525 87.517C60.9348 87.2832 60.7476 86.9452 60.4783 86.5424C59.9395 85.7367 59.0717 84.6747 57.7615 83.6704ZM75.8523 77.0268C71.6151 75.3539 68.2746 76.3602 65.9558 77.8061C64.7503 78.5578 63.8188 79.4315 63.1882 80.1186C62.8736 80.4614 62.6352 80.7556 62.4773 80.9623C62.4239 81.0323 62.3803 81.0927 62.3455 81.1411V85.4916C62.9464 84.6661 63.8204 83.6782 65.0447 82.7397C67.699 80.7052 71.9438 78.9433 78.4812 79.4848L76.1423 77.1459L75.8523 77.0268ZM57.5642 77.8061C55.1919 76.3268 51.75 75.3087 47.3728 77.1479L45.0349 79.4848C51.5742 78.9424 55.8196 80.7049 58.4744 82.7397C59.6983 83.6779 60.5726 84.6653 61.1736 85.4907V81.1401C61.1386 81.0919 61.0948 81.0318 61.0417 80.9623C60.8839 80.7556 60.6462 80.4612 60.3318 80.1186C59.7013 79.4315 58.7696 78.5578 57.5642 77.8061ZM70.7488 71.8637C67.8557 70.6962 65.7767 71.317 64.406 72.2036C63.6853 72.6698 63.1464 73.2196 62.7878 73.6547C62.6093 73.8714 62.4765 74.0584 62.3904 74.1879C62.3734 74.2135 62.3588 74.2373 62.3455 74.2582V79.3041C63.0268 78.5647 64.031 77.6255 65.3357 76.812C67.5327 75.442 70.5753 74.4365 74.3113 75.3159L70.9402 71.9438L70.7488 71.8637ZM59.1101 72.2036C57.7092 71.2982 55.5703 70.6697 52.5818 71.9389L49.2039 75.3168C52.942 74.4356 55.9865 75.4414 58.1843 76.812C59.4883 77.6251 60.4923 78.5639 61.1736 79.3032V74.2592C61.16 74.238 61.145 74.2139 61.1277 74.1879C61.0414 74.0584 60.9089 73.8724 60.7302 73.6557C60.3712 73.2205 59.8319 72.67 59.1101 72.2036ZM54.3357 70.185C56.6311 69.7702 58.4377 70.3731 59.7468 71.2192C60.3243 71.5924 60.7988 72.0088 61.1736 72.395V63.3471L54.3357 70.185ZM62.3455 72.395C62.7196 72.009 63.1926 71.5922 63.7693 71.2192C65.0784 70.3724 66.8861 69.7694 69.1833 70.186L62.3455 63.3471V72.395Z" fill="url(#paint3_linear_695_19976)"/>
<path fill-rule="evenodd" clip-rule="evenodd" d="M100.145 60.9783V0H100.832V60.9783H100.145Z" fill="#4A90EB"/>
<path d="M105.891 57.1736C106.024 56.9682 106.288 56.8777 106.524 56.9705C106.761 57.0634 106.894 57.3093 106.852 57.5506L106.822 57.6531L106.119 59.4471C106.063 59.5903 105.946 59.7014 105.801 59.7518L103.509 60.5438C103.585 60.8492 103.638 61.1695 103.669 61.5008L105.596 61.0623L105.672 61.0496C105.851 61.0332 106.031 61.1009 106.155 61.2352L107.814 63.0233L107.887 63.118C108.028 63.3507 107.991 63.6588 107.784 63.8514C107.577 64.0439 107.267 64.0575 107.045 63.8992L106.956 63.8201L105.525 62.2801L103.676 62.702C103.651 62.9964 103.609 63.2824 103.549 63.5574L104.908 63.2479L104.99 63.2352C105.184 63.2194 105.375 63.3001 105.498 63.4549L106.867 65.1844L106.931 65.285C107.053 65.5281 106.993 65.8318 106.771 66.0076C106.55 66.1833 106.24 66.173 106.031 65.9979L105.948 65.9119L104.808 64.4725L103.099 64.8621C102.95 65.1642 102.777 65.4391 102.584 65.6815C102.698 65.9595 102.761 66.2652 102.761 66.5858C102.761 67.8757 101.744 68.9216 100.489 68.9217C99.2347 68.9217 98.217 67.8758 98.2168 66.5858C98.2168 66.2654 98.2791 65.9594 98.3926 65.6815C98.1987 65.4379 98.0253 65.1611 97.876 64.8572L96.1865 64.4725L95.0459 65.9119L94.9639 65.9979C94.7552 66.1732 94.4446 66.1834 94.2227 66.0076C93.9693 65.8066 93.9271 65.4379 94.1279 65.1844L95.4971 63.4549L95.5537 63.3934C95.6945 63.2603 95.8945 63.204 96.0869 63.2479L97.4268 63.5535C97.3668 63.2782 97.3249 62.9918 97.3008 62.6971L95.4678 62.2791L94.0391 63.8201C93.8189 64.0573 93.4481 64.0715 93.2109 63.8514C92.9738 63.6312 92.9596 63.2605 93.1797 63.0233L94.8398 61.2352L94.8955 61.1815C95.0345 61.0666 95.2208 61.0216 95.3994 61.0623L97.3076 61.4969C97.3388 61.1653 97.3924 60.8445 97.4687 60.5389L95.1934 59.7518C95.0844 59.714 94.9919 59.6417 94.9287 59.5477L94.876 59.4471L94.1719 57.6531L94.1435 57.5506C94.1015 57.3092 94.2328 57.0635 94.4697 56.9705C94.7065 56.8778 94.9703 56.9683 95.1035 57.1736L95.1523 57.2684L95.7666 58.8348L97.8164 59.5438C98.3923 58.2879 99.3745 57.4608 100.489 57.4608C101.605 57.4609 102.588 58.2903 103.163 59.5486L105.227 58.8358L105.842 57.2684L105.891 57.1736Z" fill="#99CAF7"/>
<path d="M151.092 52.1714C151.122 52.1164 151.141 52.0556 151.146 51.9929C151.151 51.9303 151.143 51.8672 151.122 51.8078C151.102 51.7485 151.069 51.6942 151.025 51.6486C150.982 51.6029 150.93 51.567 150.871 51.543C149.174 50.8663 143.17 48.8577 139.888 52.9072C137.693 55.5686 134.59 57.323 131.177 57.8321C131.091 57.8436 131.011 57.8808 130.947 57.9388C130.882 57.9968 130.837 58.0729 130.817 58.1571C130.796 58.2413 130.802 58.3297 130.833 58.4107C130.864 58.4916 130.918 58.5614 130.989 58.6108C133.889 60.6678 143.471 65.9095 151.092 52.1714Z" fill="#99CAF7"/>
<path d="M23.9061 80.571C23.9303 80.5268 23.9449 80.4779 23.949 80.4276C23.9532 80.3773 23.9466 80.3267 23.9299 80.2791C23.9132 80.2315 23.8867 80.188 23.852 80.1513C23.8174 80.1146 23.7754 80.0856 23.7289 80.0662C22.3701 79.5291 17.5419 77.9179 14.9049 81.1403C13.1453 83.2755 10.6588 84.6851 7.92304 85.0985C7.85435 85.1077 7.79005 85.1375 7.73858 85.1839C7.6871 85.2303 7.65086 85.2911 7.6346 85.3585C7.61833 85.4259 7.62282 85.4966 7.64746 85.5614C7.6721 85.6261 7.71574 85.682 7.77266 85.7215C10.0874 87.3971 17.7835 91.6077 23.9061 80.571Z" fill="#99CAF7"/>
<path d="M137.881 74.4789C137.861 74.4421 137.848 74.4013 137.845 74.3592C137.841 74.3172 137.847 74.2749 137.861 74.2353C137.875 74.1956 137.898 74.1594 137.927 74.1292C137.957 74.0989 137.992 74.0753 138.032 74.06C139.17 73.6035 143.203 72.2554 145.405 74.973C146.881 76.7607 148.967 77.9392 151.259 78.2813C151.32 78.2869 151.378 78.3115 151.424 78.3517C151.47 78.3919 151.502 78.4456 151.516 78.5051C151.529 78.5646 151.524 78.627 151.5 78.6832C151.476 78.7395 151.435 78.7868 151.383 78.8184C149.439 80.2094 142.999 83.7271 137.881 74.4789Z" fill="#99CAF7"/>
<path d="M0.059962 57.0493C0.0268142 56.9879 0.00689842 56.9202 0.0014982 56.8507C-0.00390202 56.7811 0.00533317 56.7112 0.0286085 56.6454C0.0518839 56.5796 0.0886831 56.5194 0.136634 56.4687C0.184585 56.4181 0.242625 56.378 0.307012 56.3511C2.18674 55.6046 8.84097 53.3811 12.4769 57.8602C14.9124 60.8134 18.3572 62.7578 22.1441 63.3168C22.2387 63.3308 22.3271 63.3729 22.3976 63.4376C22.4681 63.5023 22.5176 63.5867 22.5395 63.6799C22.5615 63.7731 22.555 63.8707 22.5209 63.9601C22.4868 64.0495 22.4266 64.1267 22.3481 64.1815C19.1204 66.4587 8.50261 72.2697 0.059962 57.0493Z" fill="#99CAF7"/>
<path d="M22.952 40.7765C22.6372 39.5418 23.777 38.4293 25.0037 38.7741L27.5784 39.4976C28.8051 39.8423 29.1986 41.3857 28.2867 42.2757L26.3728 44.1436C25.4609 45.0336 23.9275 44.6027 23.6127 43.368L22.952 40.7765Z" fill="#69ADF1"/>
<path d="M133.486 19.1432C133.975 17.1163 136.858 17.1163 137.347 19.1432L137.397 19.35C137.572 20.0743 138.138 20.6399 138.862 20.8147L139.069 20.8646C141.096 21.3539 141.096 24.237 139.069 24.7263L138.862 24.7762C138.138 24.951 137.572 25.5166 137.397 26.2409L137.347 26.4477C136.858 28.4746 133.975 28.4746 133.486 26.4477L133.436 26.2409C133.261 25.5166 132.695 24.951 131.971 24.7762L131.764 24.7263C129.737 24.237 129.737 21.3539 131.764 20.8646L131.971 20.8147C132.695 20.6399 133.261 20.0743 133.436 19.35L133.486 19.1432Z" fill="#69ADF1"/>
<path d="M50.1927 134.697C50.682 132.67 53.5651 132.67 54.0544 134.697L54.1043 134.904C54.2792 135.628 54.8447 136.194 55.5691 136.368L55.7758 136.418C57.8028 136.908 57.8028 139.791 55.7758 140.28L55.5691 140.33C54.8447 140.505 54.2792 141.07 54.1043 141.795L54.0544 142.001C53.5651 144.028 50.682 144.028 50.1927 142.001L50.1428 141.795C49.968 141.07 49.4024 140.505 48.6781 140.33L48.4713 140.28C46.4444 139.791 46.4444 136.908 48.4713 136.418L48.6781 136.368C49.4024 136.194 49.968 135.628 50.1428 134.904L50.1927 134.697Z" fill="#69ADF1"/>
<path d="M32.7266 123.247C33.9176 123.247 34.8828 124.213 34.8828 125.404C34.8827 126.595 33.9175 127.56 32.7266 127.561C31.5355 127.561 30.5695 126.595 30.5693 125.404C30.5693 124.213 31.5354 123.247 32.7266 123.247Z" stroke="#69ADF1" stroke-width="2.48287"/>
<circle cx="36.8318" cy="20.4084" r="2.15675" stroke="#A5CBF6" stroke-width="2.48287"/>
<circle cx="143" cy="120.125" r="2.15675" stroke="#A5CBF6" stroke-width="2.48287"/>
<defs>
<linearGradient id="paint0_linear_695_19976" x1="95.1562" y1="111.871" x2="151.724" y2="118.375" gradientUnits="userSpaceOnUse">
<stop offset="0.0844027" stop-color="#8CBAF3"/>
<stop offset="1" stop-color="#E8F1FB"/>
</linearGradient>
<linearGradient id="paint1_linear_695_19976" x1="121.419" y1="149.281" x2="13.5594" y2="3.79206" gradientUnits="userSpaceOnUse">
<stop stop-color="#285CCD"/>
<stop offset="0.70369" stop-color="#1B2A50"/>
</linearGradient>
<linearGradient id="paint2_linear_695_19976" x1="93.8493" y1="100.009" x2="68.9497" y2="26.8049" gradientUnits="userSpaceOnUse">
<stop stop-color="#1B2A50"/>
<stop offset="1" stop-color="#285CCD"/>
</linearGradient>
<linearGradient id="paint3_linear_695_19976" x1="134.698" y1="141.727" x2="65.8809" y2="48.737" gradientUnits="userSpaceOnUse">
<stop stop-color="#ACCFF7"/>
<stop offset="1" stop-color="#DAEBFF"/>
</linearGradient>
</defs>
</svg>
