<svg width="200" height="200" viewBox="0 0 200 200" fill="none" xmlns="http://www.w3.org/2000/svg">
<g clip-path="url(#clip0_734_8332)">
<path d="M74.9823 11.9126C78.1737 12.145 80.0536 14.2843 80.4159 18.6327C80.604 14.6857 82.3337 12.361 85.8498 11.9128C82.6584 11.6802 80.7785 9.54094 80.4159 5.1925C80.228 9.13954 78.4982 11.4642 74.9823 11.9126ZM85.8498 6.3976C85.918 5.2384 86.5464 4.55566 87.8235 4.42408C86.6643 4.35568 85.9814 3.72748 85.8498 2.4502C85.7814 3.6094 85.1532 4.29232 83.8759 4.42408C85.0351 4.4923 85.718 5.1205 85.8498 6.3976ZM72.1797 6.7108C73.3389 6.7792 74.0218 7.4074 74.1534 8.6845C74.2218 7.5253 74.85 6.84238 76.1273 6.7108C74.9681 6.6424 74.2851 6.0142 74.1534 4.7371C74.085 5.8963 73.4568 6.57922 72.1797 6.7108ZM74.1534 15.6028C74.0852 16.762 73.4568 17.4447 72.1797 17.5765C73.3389 17.6447 74.0218 18.2731 74.1536 19.5502C74.2218 18.391 74.8502 17.7081 76.1273 17.5765C74.9681 17.5081 74.2851 16.8799 74.1536 15.6026L74.1534 15.6028Z" fill="#F98D07"/>
<g clip-path="url(#clip1_734_8332)">
<path d="M189.094 81.7102C191.576 81.891 193.038 83.5549 193.32 86.937C193.466 83.8671 194.812 82.059 197.546 81.7104C195.064 81.5295 193.602 79.8656 193.32 76.4835C193.174 79.5534 191.828 81.3615 189.094 81.7102ZM197.546 77.4208C197.599 76.5192 198.088 75.9882 199.081 75.8858C198.18 75.8326 197.649 75.344 197.546 74.3506C197.493 75.2522 197.005 75.7833 196.011 75.8858C196.913 75.9389 197.444 76.4275 197.546 77.4208ZM186.914 77.6644C187.816 77.7176 188.347 78.2062 188.449 79.1995C188.502 78.2979 188.991 77.7667 189.984 77.6644C189.083 77.6112 188.552 77.1226 188.449 76.1293C188.396 77.0309 187.907 77.562 186.914 77.6644ZM188.449 84.5804C188.396 85.482 187.907 86.013 186.914 86.1155C187.816 86.1685 188.347 86.6573 188.449 87.6506C188.502 86.749 188.991 86.2178 189.984 86.1155C189.083 86.0623 188.552 85.5737 188.449 84.5802L188.449 84.5804Z" fill="#EF4444"/>
</g>
<path d="M145.982 46.9126C149.174 47.145 151.054 49.2843 151.416 53.6327C151.604 49.6857 153.334 47.361 156.85 46.9128C153.658 46.6802 151.778 44.5409 151.416 40.1925C151.228 44.1395 149.498 46.4642 145.982 46.9126ZM156.85 41.3976C156.918 40.2384 157.546 39.5557 158.823 39.4241C157.664 39.3557 156.981 38.7275 156.85 37.4502C156.781 38.6094 156.153 39.2923 154.876 39.4241C156.035 39.4923 156.718 40.1205 156.85 41.3976ZM143.18 41.7108C144.339 41.7792 145.022 42.4074 145.153 43.6845C145.222 42.5253 145.85 41.8424 147.127 41.7108C145.968 41.6424 145.285 41.0142 145.153 39.7371C145.085 40.8963 144.457 41.5792 143.18 41.7108ZM145.153 50.6028C145.085 51.762 144.457 52.4447 143.18 52.5765C144.339 52.6447 145.022 53.2731 145.154 54.5502C145.222 53.391 145.85 52.7081 147.127 52.5765C145.968 52.5081 145.285 51.8799 145.154 50.6026L145.153 50.6028Z" fill="#4A90EB"/>
<path d="M107.112 156.768C107.112 156.768 8.3649 154.387 13.3885 77.0272C19.0569 -10.272 102.199 6.35681 129.409 35.4564C156.62 64.556 167.579 35.0784 185.719 64.556C201.99 90.9972 197.056 165.46 107.112 156.768Z" fill="#3B83F6"/>
<path d="M190.599 182.347C190.599 184.05 188.147 185.634 183.264 187.102C178.372 188.573 171.831 189.856 163.634 190.958C155.437 192.06 145.867 192.93 134.944 193.568C124.012 194.206 112.363 194.525 99.9988 194.525C87.3404 194.525 75.5444 194.206 64.6216 193.568C53.6888 192.93 44.1288 192.06 35.9316 190.958C27.7344 189.857 21.2632 188.573 16.5172 187.102C11.7712 185.634 9.39844 184.05 9.39844 182.347C9.39844 180.686 11.7712 179.1 16.5172 177.592C21.2628 176.084 27.7344 174.779 35.9316 173.677C44.1288 172.576 53.6888 171.698 64.6216 171.039C75.5444 170.382 87.3404 170.053 99.9988 170.053C112.363 170.053 124.012 170.382 134.944 171.039C145.867 171.698 155.437 172.576 163.634 173.677C171.831 174.779 178.372 176.084 183.264 177.592C188.147 179.1 190.599 180.686 190.599 182.347Z" fill="#172554"/>
<path d="M74.3594 112.235L79.187 103.116H121.204L126.568 112.235H74.3594Z" fill="#4A90EB"/>
<path d="M23.2266 135.478L27.5174 125.585L74.9578 125.347L75.1962 138.458L23.2266 135.478Z" fill="#4A90EB"/>
<path d="M176.991 148.017L172.581 137.861L125.141 137.623L124.902 150.735L176.991 148.017Z" fill="#4A90EB"/>
<path d="M125.473 148.018L126.57 112.235H74.3618L74.9254 135.479H23.2266L24.7742 182.789L176.487 183.223L176.99 148.018H125.473Z" fill="#285CCD"/>
<path d="M161.481 166.918C161.481 168.621 161.151 170.205 160.495 171.673C159.837 173.144 158.958 174.428 157.857 175.53C156.755 176.631 155.469 177.501 154 178.139C152.531 178.777 150.965 179.096 149.303 179.096C147.601 179.096 146.016 178.777 144.548 178.139C143.078 177.501 141.793 176.632 140.691 175.53C139.59 174.428 138.72 173.144 138.082 171.673C137.444 170.205 137.125 168.621 137.125 166.918C137.125 165.258 137.444 163.671 138.082 162.163C138.72 160.655 139.589 159.35 140.691 158.248C141.793 157.147 143.078 156.269 144.548 155.61C146.016 154.954 147.601 154.624 149.303 154.624C150.965 154.624 152.531 154.954 154 155.61C155.469 156.269 156.755 157.147 157.857 158.248C158.958 159.35 159.837 160.655 160.495 162.163C161.151 163.67 161.481 165.257 161.481 166.918Z" fill="#4A90EB"/>
<path d="M161.481 164.172C161.481 165.875 161.151 167.459 160.495 168.928C159.837 170.398 158.958 171.682 157.857 172.784C156.755 173.886 155.469 174.756 154 175.394C152.531 176.032 150.965 176.351 149.303 176.351C147.601 176.351 146.016 176.032 144.548 175.394C143.078 174.756 141.793 173.886 140.691 172.784C139.59 171.683 138.72 170.398 138.082 168.928C137.444 167.46 137.125 165.875 137.125 164.172C137.125 162.512 137.444 160.925 138.082 159.417C138.72 157.91 139.589 156.605 140.691 155.503C141.793 154.401 143.078 153.524 144.548 152.865C146.016 152.209 147.601 151.879 149.303 151.879C150.965 151.879 152.531 152.209 154 152.865C155.469 153.524 156.755 154.402 157.857 155.503C158.958 156.605 159.837 157.91 160.495 159.417C161.151 160.925 161.481 162.512 161.481 164.172Z" fill="white"/>
<path d="M157.055 167.895C157.055 168.934 156.887 169.836 156.551 170.602C156.223 171.359 155.762 171.992 155.168 172.5C154.574 173 153.863 173.375 153.035 173.625C152.215 173.867 151.312 173.988 150.328 173.988C149.883 173.988 149.426 173.945 148.957 173.859C148.488 173.773 148.023 173.656 147.562 173.508C147.102 173.359 146.652 173.184 146.215 172.98C145.785 172.777 145.383 172.559 145.008 172.324L145.453 167.613C145.75 167.816 146.082 168.012 146.449 168.199C146.816 168.379 147.195 168.543 147.586 168.691C147.984 168.832 148.383 168.945 148.781 169.031C149.188 169.117 149.578 169.16 149.953 169.16C150.172 169.16 150.395 169.145 150.621 169.113C150.855 169.074 151.066 169.008 151.254 168.914C151.441 168.82 151.594 168.688 151.711 168.516C151.836 168.344 151.898 168.121 151.898 167.848C151.898 167.676 151.82 167.516 151.664 167.367C151.508 167.219 151.32 167.094 151.102 166.992C150.883 166.883 150.656 166.801 150.422 166.746C150.188 166.684 149.992 166.652 149.836 166.652C149.727 166.652 149.594 166.66 149.438 166.676C149.289 166.684 149.137 166.699 148.98 166.723C148.824 166.746 148.672 166.781 148.523 166.828C148.383 166.867 148.273 166.918 148.195 166.98L148.266 163.629C148.398 163.645 148.523 163.656 148.641 163.664C148.758 163.672 148.883 163.676 149.016 163.676C149.289 163.676 149.586 163.652 149.906 163.605C150.227 163.551 150.523 163.461 150.797 163.336C151.07 163.203 151.297 163.023 151.477 162.797C151.664 162.57 151.758 162.277 151.758 161.918C151.758 161.66 151.688 161.453 151.547 161.297C151.406 161.133 151.23 161.008 151.02 160.922C150.816 160.836 150.594 160.777 150.352 160.746C150.109 160.715 149.891 160.699 149.695 160.699C149.062 160.699 148.438 160.809 147.82 161.027C147.211 161.246 146.672 161.566 146.203 161.988L145.219 157.723C145.938 157.137 146.754 156.691 147.668 156.387C148.59 156.074 149.516 155.918 150.445 155.918C151.297 155.918 152.109 156.043 152.883 156.293C153.664 156.535 154.352 156.898 154.945 157.383C155.539 157.859 156.012 158.449 156.363 159.152C156.715 159.855 156.891 160.668 156.891 161.59C156.891 161.855 156.852 162.125 156.773 162.398C156.695 162.672 156.59 162.938 156.457 163.195C156.324 163.453 156.168 163.695 155.988 163.922C155.809 164.141 155.617 164.332 155.414 164.496C155.742 164.645 156.012 164.844 156.223 165.094C156.434 165.344 156.602 165.621 156.727 165.926C156.852 166.23 156.938 166.555 156.984 166.898C157.031 167.234 157.055 167.566 157.055 167.895Z" fill="#4A90EB"/>
<path d="M61.8634 155.527C61.8634 157.23 61.5338 158.814 60.8778 160.283C60.2202 161.753 59.341 163.037 58.2394 164.139C57.1374 165.241 55.8514 166.111 54.383 166.749C52.9134 167.387 51.3478 167.705 49.6858 167.705C47.9846 167.705 46.399 167.387 44.9306 166.749C43.461 166.111 42.1762 165.241 41.0742 164.139C39.9722 163.037 39.1026 161.753 38.4646 160.283C37.8266 158.815 37.5078 157.23 37.5078 155.527C37.5078 153.867 37.8266 152.28 38.4646 150.772C39.1026 149.265 39.9722 147.96 41.0742 146.858C42.1762 145.756 43.461 144.878 44.9306 144.219C46.3986 143.563 47.9842 143.233 49.6858 143.233C51.3478 143.233 52.9134 143.563 54.383 144.219C55.851 144.878 57.1374 145.756 58.2394 146.858C59.341 147.959 60.2202 149.264 60.8778 150.772C61.5338 152.28 61.8634 153.867 61.8634 155.527Z" fill="#4A90EB"/>
<path d="M61.8634 152.782C61.8634 154.485 61.5338 156.069 60.8778 157.537C60.2202 159.008 59.341 160.291 58.2394 161.393C57.1374 162.495 55.8514 163.365 54.383 164.003C52.9134 164.641 51.3478 164.96 49.6858 164.96C47.9846 164.96 46.399 164.641 44.9306 164.003C43.461 163.365 42.1762 162.495 41.0742 161.393C39.9722 160.292 39.1026 159.008 38.4646 157.537C37.8266 156.069 37.5078 154.485 37.5078 152.782C37.5078 151.121 37.8266 149.535 38.4646 148.027C39.1026 146.519 39.9722 145.214 41.0742 144.113C42.1762 143.011 43.461 142.133 44.9306 141.474C46.3986 140.818 47.9842 140.488 49.6858 140.488C51.3478 140.488 52.9134 140.818 54.383 141.474C55.851 142.133 57.1374 143.011 58.2394 144.113C59.341 145.214 60.2202 146.519 60.8778 148.027C61.5338 149.534 61.8634 151.121 61.8634 152.782Z" fill="white"/>
<path d="M56.6094 151.562C56.6094 152.187 56.4961 152.784 56.2695 153.354C56.043 153.917 55.7422 154.448 55.3672 154.948C55 155.44 54.5781 155.897 54.1016 156.319C53.6328 156.733 53.1562 157.108 52.6719 157.444H56.375L56.0938 162.319L45.125 161.944V157.679C45.5391 157.538 45.9727 157.37 46.4258 157.175C46.8867 156.972 47.3359 156.741 47.7734 156.483C48.2188 156.226 48.6367 155.937 49.0273 155.616C49.4258 155.296 49.7734 154.948 50.0703 154.573C50.375 154.19 50.6133 153.776 50.7852 153.331C50.9648 152.886 51.0547 152.405 51.0547 151.89C51.0547 151.593 51 151.331 50.8906 151.104C50.7891 150.878 50.6445 150.69 50.457 150.542C50.2695 150.386 50.0508 150.272 49.8008 150.202C49.5586 150.124 49.2969 150.085 49.0156 150.085C48.7812 150.085 48.543 150.112 48.3008 150.167C48.0586 150.214 47.8203 150.284 47.5859 150.378C47.3516 150.472 47.1289 150.589 46.918 150.729C46.7148 150.862 46.5312 151.015 46.3672 151.187L45.3359 146.593C45.625 146.304 45.957 146.062 46.332 145.866C46.707 145.671 47.1016 145.515 47.5156 145.397C47.9297 145.272 48.3516 145.183 48.7812 145.128C49.2109 145.073 49.6328 145.046 50.0469 145.046C50.9688 145.046 51.8281 145.214 52.625 145.55C53.4219 145.878 54.1133 146.335 54.6992 146.921C55.293 147.499 55.7578 148.187 56.0938 148.983C56.4375 149.78 56.6094 150.64 56.6094 151.562Z" fill="#4A90EB"/>
<path d="M113.41 131.739C113.41 133.442 113.081 135.026 112.425 136.495C111.767 137.965 110.888 139.249 109.786 140.351C108.685 141.453 107.398 142.323 105.93 142.961C104.46 143.599 102.895 143.917 101.233 143.917C99.5311 143.917 97.9459 143.599 96.4775 142.961C95.0079 142.323 93.7231 141.453 92.6211 140.351C91.5191 139.249 90.6495 137.965 90.0115 136.495C89.3735 135.027 89.0547 133.442 89.0547 131.739C89.0547 130.079 89.3735 128.492 90.0115 126.984C90.6495 125.477 91.5191 124.172 92.6211 123.07C93.7231 121.968 95.0079 121.09 96.4775 120.431C97.9455 119.775 99.5311 119.445 101.233 119.445C102.895 119.445 104.46 119.775 105.93 120.431C107.398 121.09 108.684 121.968 109.786 123.07C110.888 124.172 111.767 125.476 112.425 126.984C113.081 128.492 113.41 130.079 113.41 131.739Z" fill="#4A90EB"/>
<path d="M113.41 128.994C113.41 130.697 113.081 132.281 112.425 133.749C111.767 135.22 110.888 136.504 109.786 137.606C108.685 138.707 107.398 139.577 105.93 140.215C104.46 140.853 102.895 141.172 101.233 141.172C99.5311 141.172 97.9459 140.853 96.4775 140.215C95.0079 139.577 93.7231 138.708 92.6211 137.606C91.5191 136.504 90.6495 135.22 90.0115 133.749C89.3735 132.281 89.0547 130.697 89.0547 128.994C89.0547 127.333 89.3735 125.747 90.0115 124.239C90.6495 122.731 91.5191 121.427 92.6211 120.325C93.7231 119.223 95.0079 118.345 96.4775 117.686C97.9455 117.03 99.5311 116.7 101.233 116.7C102.895 116.7 104.46 117.03 105.93 117.686C107.398 118.345 108.684 119.223 109.786 120.325C110.888 121.426 111.767 122.731 112.425 124.239C113.081 125.747 113.41 127.334 113.41 128.994Z" fill="white"/>
<path d="M105.586 121.749L104.906 138.413L99.7969 138.179L100.078 127.093L98.2031 128.382L96.4453 124.374L100.266 121.515L105.586 121.749Z" fill="#4A90EB"/>
<path d="M141.794 111.68C141.794 111.68 135.981 128.599 134.68 139.792L143.443 143.61C143.443 143.61 149.256 129.728 151.338 118.621C153.421 107.515 141.794 111.68 141.794 111.68Z" fill="#FFB199"/>
<path opacity="0.5" d="M144.651 129.486C145.871 129.756 147.098 129.972 148.329 130.152C149.512 126.418 150.637 122.362 151.338 118.621C153.421 107.515 141.794 111.68 141.794 111.68C141.794 111.68 139.406 118.632 137.348 126.571C139.508 127.98 141.909 128.878 144.651 129.486Z" fill="#FF8255"/>
<path d="M134.246 140.313L135.808 131.637C135.808 131.637 140.927 132.765 146.741 135.454L143.27 144.565L134.246 140.313Z" fill="white"/>
<mask id="mask0_734_8332" style="mask-type:luminance" maskUnits="userSpaceOnUse" x="134" y="131" width="13" height="14">
<path d="M134.246 140.313L135.808 131.637C135.808 131.637 140.927 132.765 146.741 135.454L143.27 144.565L134.246 140.313Z" fill="white"/>
</mask>
<g mask="url(#mask0_734_8332)">
<path d="M133.98 133.003C133.98 133.003 141.582 134.285 147.002 137.646" stroke="#22689E" stroke-width="0.8677" stroke-miterlimit="10"/>
<path d="M133.895 134.131C133.895 134.131 141.496 135.414 146.916 138.774" stroke="#22689E" stroke-width="0.8677" stroke-miterlimit="10"/>
</g>
<path d="M137.804 141.354L138.672 139.879L134.16 137.797L133.642 139.969C132.22 140.74 129.15 142.695 129.821 144.912C130.689 147.775 142.055 146.3 144.224 143.957L144.485 141.788L137.804 141.354Z" fill="#003154"/>
<path d="M129.823 143.91C129.809 143.862 129.798 143.814 129.787 143.767C129.702 144.137 129.702 144.52 129.82 144.912C130.688 147.775 142.054 146.3 144.223 143.958L144.31 143.234C141.425 145.463 130.678 146.732 129.823 143.91Z" fill="white"/>
<path d="M133.406 139.995C133.406 139.995 135.46 140.429 136.703 141.933" stroke="white" stroke-width="1.7353" stroke-miterlimit="10" stroke-linecap="round"/>
<path d="M132.164 140.719C132.164 140.719 134.218 141.153 135.461 142.656" stroke="white" stroke-width="1.7353" stroke-miterlimit="10" stroke-linecap="round"/>
<path d="M160.693 111.68C160.693 111.68 166.506 128.599 167.807 139.792L159.044 143.61C159.044 143.61 153.23 129.728 151.148 118.621C149.066 107.515 160.693 111.68 160.693 111.68Z" fill="#FFB199"/>
<path opacity="0.5" d="M157.835 129.487C156.615 129.757 155.389 129.973 154.158 130.153C152.975 126.419 151.849 122.363 151.148 118.622C149.066 107.516 160.693 111.681 160.693 111.681C160.693 111.681 163.081 118.633 165.139 126.572C162.979 127.981 160.578 128.879 157.835 129.487Z" fill="#FF8255"/>
<path d="M168.24 140.313L166.678 131.637C166.678 131.637 161.559 132.765 155.746 135.454L159.216 144.565L168.24 140.313Z" fill="white"/>
<mask id="mask1_734_8332" style="mask-type:luminance" maskUnits="userSpaceOnUse" x="155" y="131" width="14" height="14">
<path d="M168.24 140.313L166.678 131.637C166.678 131.637 161.559 132.765 155.746 135.454L159.216 144.565L168.24 140.313Z" fill="white"/>
</mask>
<g mask="url(#mask1_734_8332)">
<path d="M168.506 133.003C168.506 133.003 160.904 134.285 155.484 137.646" stroke="#22689E" stroke-width="0.8677" stroke-miterlimit="10"/>
<path d="M168.592 134.131C168.592 134.131 160.99 135.414 155.57 138.774" stroke="#22689E" stroke-width="0.8677" stroke-miterlimit="10"/>
</g>
<path d="M164.685 141.354L163.817 139.879L168.329 137.797L168.846 139.969C170.268 140.74 173.339 142.695 172.668 144.912C171.8 147.775 160.434 146.3 158.264 143.957L158.004 141.788L164.685 141.354Z" fill="#003154"/>
<path d="M172.663 143.91C172.677 143.862 172.688 143.814 172.699 143.767C172.784 144.137 172.784 144.52 172.666 144.912C171.798 147.775 160.432 146.3 158.263 143.958L158.176 143.234C161.061 145.463 171.808 146.732 172.663 143.91Z" fill="white"/>
<path d="M169.078 139.995C169.078 139.995 167.025 140.429 165.781 141.933" stroke="white" stroke-width="1.7353" stroke-miterlimit="10" stroke-linecap="round"/>
<path d="M170.321 140.719C170.321 140.719 168.267 141.153 167.023 142.656" stroke="white" stroke-width="1.7353" stroke-miterlimit="10" stroke-linecap="round"/>
<path d="M161.619 112.808L152.637 112.742V112.722L151.21 112.732L149.783 112.722V112.742L140.801 112.808L137.023 124.782C137.023 124.782 141.976 127.992 149.615 128.86L150.538 125.042H151.881L152.804 128.86C160.443 127.992 165.395 124.782 165.395 124.782L161.619 112.808Z" fill="#FF5757"/>
<mask id="mask2_734_8332" style="mask-type:luminance" maskUnits="userSpaceOnUse" x="137" y="112" width="29" height="17">
<path d="M161.619 112.808L152.637 112.742V112.722L151.21 112.732L149.783 112.722V112.742L140.801 112.808L137.023 124.782C137.023 124.782 141.976 127.992 149.615 128.86L150.538 125.042H151.881L152.804 128.86C160.443 127.992 165.395 124.782 165.395 124.782L161.619 112.808Z" fill="white"/>
</mask>
<g mask="url(#mask2_734_8332)">
<path d="M141.622 113.329L137.891 126.083" stroke="white" stroke-width="0.8677" stroke-miterlimit="10"/>
<path d="M142.403 113.416L138.672 126.17" stroke="white" stroke-width="0.8677" stroke-miterlimit="10"/>
</g>
<mask id="mask3_734_8332" style="mask-type:luminance" maskUnits="userSpaceOnUse" x="137" y="112" width="29" height="17">
<path d="M161.619 112.808L152.637 112.742V112.722L151.21 112.732L149.783 112.722V112.742L140.801 112.808L137.023 124.782C137.023 124.782 141.976 127.992 149.615 128.86L150.538 125.042H151.881L152.804 128.86C160.443 127.992 165.395 124.782 165.395 124.782L161.619 112.808Z" fill="white"/>
</mask>
<g mask="url(#mask3_734_8332)">
<path d="M160.195 113.731L163.993 126.466" stroke="white" stroke-width="0.8677" stroke-miterlimit="10"/>
<path d="M160.898 113.38L164.696 126.115" stroke="white" stroke-width="0.8677" stroke-miterlimit="10"/>
</g>
<path opacity="0.2" d="M140.211 114.686C141.487 115.303 142.802 115.822 144.166 116.221C147.361 117.155 150.628 117.732 153.966 117.742C156.985 117.751 159.962 117.413 162.873 116.774L161.621 112.808L152.639 112.742V112.722L151.212 112.732L149.785 112.722V112.742L140.803 112.808L140.211 114.686Z" fill="#003154"/>
<path d="M171.534 100.574C170.493 95.715 155.338 95.715 155.338 95.715V92.707L151.617 93.6862L147.897 92.707V95.715C147.897 95.715 132.742 95.715 131.701 100.574C130.659 105.433 139.23 115.033 141.276 113.329C143.879 111.159 139.367 104.131 139.367 104.131L151.688 103.524L163.749 104.131C163.749 104.131 159.41 110.292 161.84 113.155C163.563 115.186 172.575 105.433 171.534 100.574Z" fill="#FFB199"/>
<path opacity="0.5" d="M147.408 102.355C146.168 100.273 145.219 97.9794 143.988 95.8906C142.99 95.9682 141.876 96.0802 140.734 96.2418C141.248 98.8338 141.74 101.429 142.384 103.983L148.237 103.694C147.955 103.251 147.676 102.806 147.408 102.355Z" fill="#FF8255"/>
<path opacity="0.5" d="M161.945 96.1662C160.869 96.0274 159.831 95.9314 158.908 95.865C158.919 98.5426 158.905 101.22 158.645 103.874L161.092 103.997C161.713 101.426 162.103 98.8178 161.945 96.1662Z" fill="#FF8255"/>
<path opacity="0.5" d="M155.339 95.3454V92.707L151.619 93.6862L147.898 92.707V95.4882C150.368 95.5674 152.929 95.7286 155.339 95.3454Z" fill="#FF8255"/>
<path d="M161.927 113.502L159.758 95.8016L157.676 95.7148C157.886 100.052 153.586 100.488 151.911 100.629C150.039 100.488 145.232 100.052 145.442 95.7148L143.359 95.8016L140.93 113.589C140.93 113.589 145.355 115.584 151.775 115.758C158.283 115.758 161.927 113.502 161.927 113.502Z" fill="#003154"/>
<path d="M162.709 109.337C162.709 109.337 162.275 106.214 160.54 106.3C158.805 106.387 155.768 110.292 160.54 107.862C160.54 107.862 153.946 112.114 160.714 109.771C160.714 109.771 155.768 113.588 161.061 111.419C161.061 111.419 161.668 114.803 163.23 112.981C164.792 111.159 162.709 109.337 162.709 109.337Z" fill="#FFB199"/>
<path d="M140.453 109.424C140.453 109.424 140.887 106.3 142.622 106.387C144.357 106.474 147.394 110.378 142.622 107.949C142.622 107.949 149.217 112.201 142.449 109.858C142.449 109.858 147.394 113.675 142.101 111.506C142.101 111.506 141.494 114.89 139.932 113.068C138.371 111.246 140.453 109.424 140.453 109.424Z" fill="#FFB199"/>
<path d="M144.754 95.5996L148.883 107.236L150.921 106.271L147.114 95.5996H144.754Z" fill="#FF5757"/>
<path d="M145.57 95.5996L149.535 106.928L150.12 106.651L146.252 95.5996H145.57Z" fill="white"/>
<path d="M158.159 95.5996L154.03 107.236L151.992 106.271L155.8 95.5996H158.159Z" fill="#FF5757"/>
<path d="M157.347 95.5996L153.382 106.928L152.797 106.651L156.665 95.5996H157.347Z" fill="white"/>
<path d="M152.111 113.181C154.346 112.804 155.852 110.688 155.475 108.454C155.099 106.22 152.983 104.714 150.749 105.09C148.514 105.466 147.008 107.583 147.385 109.817C147.761 112.051 149.877 113.557 152.111 113.181Z" fill="#FF8255"/>
<path d="M151.43 111.955C153.007 111.955 154.285 110.677 154.285 109.1C154.285 107.523 153.007 106.244 151.43 106.244C149.853 106.244 148.574 107.523 148.574 109.1C148.574 110.677 149.853 111.955 151.43 111.955Z" fill="#EF683F"/>
<path d="M163.567 71.4492C163.567 71.4492 160.746 64.3096 169.752 62.96L169.142 66.1348L171.251 64.8976C171.251 64.8976 171.66 74.2972 163.567 71.4492Z" fill="#22689E"/>
<path d="M160.522 71.9895C160.377 73.3307 161.345 74.5359 162.687 74.6819C164.028 74.8279 165.233 73.8587 165.379 72.5175C165.525 71.1763 164.556 69.9711 163.215 69.8251C161.873 69.6791 160.668 70.6483 160.522 71.9895Z" fill="#FF5757"/>
<path d="M163.292 73.6424C163.292 73.6424 160.712 63.472 147.909 64.8444C136.558 66.0612 137.853 78.8008 137.853 78.8008C137.853 78.8008 139.518 72.532 142.805 71.108C142.805 71.108 135.626 77.8216 140.483 84.0008C145.339 90.1804 163.292 73.6424 163.292 73.6424Z" fill="#22689E"/>
<path d="M151.585 71.0563C151.585 71.0563 165.605 73.2691 163.563 85.3599C161.522 97.4511 147.035 96.2583 141.576 90.2679C135.843 83.9767 139.915 70.3731 151.585 71.0563Z" fill="#FFB199"/>
<path d="M163.609 83.049C163.609 83.049 164.78 80.8314 167.651 82.915C170.521 84.9986 165.862 92.6354 162.907 89.3158C159.952 85.9962 163.609 83.049 163.609 83.049Z" fill="#FFB199"/>
<path d="M165.728 82.3225C165.728 82.3225 163.146 82.3489 162.375 87.1793C162.375 87.1793 160.456 85.6193 161.79 82.3857C161.79 82.3857 157.035 79.2273 160.935 74.4301C164.835 69.6329 170.451 76.5385 167.649 82.9149C167.649 82.9149 166.618 82.0509 165.728 82.3225Z" fill="#22689E"/>
<path d="M145.063 79.575C144.737 80.5326 144.135 81.1938 143.72 81.0522C143.305 80.9106 143.234 80.0194 143.56 79.0618C143.887 78.1042 144.488 77.4426 144.904 77.5846C145.319 77.7266 145.391 78.6174 145.063 79.575Z" fill="#003154"/>
<path d="M155.223 82.154C154.897 83.1116 154.295 83.7728 153.88 83.6312C153.465 83.4896 153.394 82.5984 153.721 81.6408C154.047 80.6832 154.649 80.022 155.064 80.1636C155.479 80.3052 155.55 81.1964 155.223 82.154Z" fill="#003154"/>
<path d="M143.203 83.375L154.212 85.9078C154.212 85.9078 147.219 91.5514 143.203 83.375Z" fill="white"/>
<path d="M40.4039 98.5238C40.4039 98.5238 34.5907 115.443 33.2891 126.636L42.0523 130.454C42.0523 130.454 47.8655 116.571 49.9479 105.465C52.0303 94.359 40.4039 98.5238 40.4039 98.5238Z" fill="#A53434"/>
<path d="M43.2602 116.329C44.4802 116.599 45.707 116.816 46.9382 116.996C48.1214 113.262 49.2466 109.206 49.9478 105.465C52.0302 94.359 40.4034 98.5238 40.4034 98.5238C40.4034 98.5238 38.015 105.476 35.957 113.415C38.1174 114.824 40.5182 115.722 43.2602 116.329Z" fill="#8E2424"/>
<path d="M32.8555 127.156L34.4171 118.479C34.4171 118.479 39.5363 119.607 45.3495 122.297L41.8787 131.407L32.8555 127.156Z" fill="white"/>
<mask id="mask4_734_8332" style="mask-type:luminance" maskUnits="userSpaceOnUse" x="32" y="118" width="14" height="14">
<path d="M32.8555 127.156L34.4171 118.479C34.4171 118.479 39.5363 119.607 45.3495 122.297L41.8787 131.407L32.8555 127.156Z" fill="white"/>
</mask>
<g mask="url(#mask4_734_8332)">
<path d="M32.5898 119.846C32.5898 119.846 40.191 121.129 45.611 124.489" stroke="#22689E" stroke-width="0.8677" stroke-miterlimit="10"/>
<path d="M32.5039 120.974C32.5039 120.974 40.1051 122.256 45.5251 125.616" stroke="#22689E" stroke-width="0.8677" stroke-miterlimit="10"/>
</g>
<path d="M36.4135 128.197L37.2811 126.722L32.7691 124.64L32.2519 126.812C30.8299 127.582 27.7591 129.538 28.4307 131.754C29.2983 134.618 40.6647 133.143 42.8339 130.8L43.0943 128.631L36.4135 128.197Z" fill="#FF5757"/>
<path d="M28.4322 130.753C28.4178 130.705 28.4074 130.657 28.3962 130.61C28.311 130.98 28.311 131.363 28.4294 131.755C29.297 134.618 40.6634 133.143 42.8326 130.8L42.9194 130.077C40.0342 132.306 29.2874 133.575 28.4322 130.753Z" fill="white"/>
<path d="M32.0156 126.838C32.0156 126.838 34.0692 127.272 35.3128 128.776" stroke="white" stroke-width="1.7353" stroke-miterlimit="10" stroke-linecap="round"/>
<path d="M30.7734 127.561C30.7734 127.561 32.827 127.995 34.0706 129.499" stroke="white" stroke-width="1.7353" stroke-miterlimit="10" stroke-linecap="round"/>
<path d="M59.3016 98.5238C59.3016 98.5238 65.1148 115.443 66.4164 126.636L57.6532 130.454C57.6532 130.454 51.84 116.571 49.7576 105.465C47.6748 94.359 59.3016 98.5238 59.3016 98.5238Z" fill="#A53434"/>
<path d="M56.4451 116.329C55.2251 116.599 53.9983 116.816 52.7671 116.996C51.5839 113.262 50.4587 109.206 49.7575 105.465C47.6751 94.359 59.3019 98.5238 59.3019 98.5238C59.3019 98.5238 61.6903 105.476 63.7483 113.415C61.5883 114.824 59.1875 115.722 56.4451 116.329Z" fill="#8E2424"/>
<path d="M66.8499 127.156L65.2879 118.479C65.2879 118.479 60.1687 119.607 54.3555 122.297L57.8263 131.407L66.8499 127.156Z" fill="white"/>
<mask id="mask5_734_8332" style="mask-type:luminance" maskUnits="userSpaceOnUse" x="54" y="118" width="13" height="14">
<path d="M66.8499 127.156L65.2879 118.479C65.2879 118.479 60.1687 119.607 54.3555 122.297L57.8263 131.407L66.8499 127.156Z" fill="white"/>
</mask>
<g mask="url(#mask5_734_8332)">
<path d="M67.1149 119.846C67.1149 119.846 59.5138 121.129 54.0938 124.489" stroke="#22689E" stroke-width="0.8677" stroke-miterlimit="10"/>
<path d="M67.2009 120.974C67.2009 120.974 59.5997 122.256 54.1797 125.616" stroke="#22689E" stroke-width="0.8677" stroke-miterlimit="10"/>
</g>
<path d="M63.2941 128.197L62.4265 126.722L66.9385 124.64L67.4557 126.812C68.8777 127.582 71.9485 129.538 71.2769 131.754C70.4093 134.618 59.0429 133.143 56.8737 130.8L56.6133 128.631L63.2941 128.197Z" fill="#FF5757"/>
<path d="M71.2724 130.753C71.2868 130.705 71.2976 130.657 71.3084 130.61C71.3936 130.98 71.3936 131.363 71.2752 131.755C70.4076 134.618 59.0412 133.143 56.872 130.8L56.7852 130.077C59.6704 132.306 70.4172 133.575 71.2724 130.753Z" fill="white"/>
<path d="M67.6878 126.838C67.6878 126.838 65.6342 127.272 64.3906 128.776" stroke="white" stroke-width="1.7353" stroke-miterlimit="10" stroke-linecap="round"/>
<path d="M68.93 127.561C68.93 127.561 66.8764 127.995 65.6328 129.499" stroke="white" stroke-width="1.7353" stroke-miterlimit="10" stroke-linecap="round"/>
<path d="M60.2284 99.6522L51.2464 99.5862V99.5654L49.8192 99.5758L48.392 99.5654V99.5862L39.41 99.6522L35.6328 111.626C35.6328 111.626 40.5852 114.836 48.224 115.704L49.1472 111.886H50.4904L51.4136 115.704C59.0524 114.836 64.0052 111.626 64.0052 111.626L60.2284 99.6522Z" fill="white"/>
<mask id="mask6_734_8332" style="mask-type:luminance" maskUnits="userSpaceOnUse" x="35" y="99" width="30" height="17">
<path d="M60.2284 99.6522L51.2464 99.5862V99.5654L49.8192 99.5758L48.392 99.5654V99.5862L39.41 99.6522L35.6328 111.626C35.6328 111.626 40.5852 114.836 48.224 115.704L49.1472 111.886H50.4904L51.4136 115.704C59.0524 114.836 64.0052 111.626 64.0052 111.626L60.2284 99.6522Z" fill="white"/>
</mask>
<g mask="url(#mask6_734_8332)">
<path d="M40.2312 100.173L36.5 112.928" stroke="#FF5757" stroke-width="0.8677" stroke-miterlimit="10"/>
<path d="M41.012 100.26L37.2812 113.015" stroke="#FF5757" stroke-width="0.8677" stroke-miterlimit="10"/>
</g>
<mask id="mask7_734_8332" style="mask-type:luminance" maskUnits="userSpaceOnUse" x="35" y="99" width="30" height="17">
<path d="M60.2284 99.6522L51.2464 99.5862V99.5654L49.8192 99.5758L48.392 99.5654V99.5862L39.41 99.6522L35.6328 111.626C35.6328 111.626 40.5852 114.836 48.224 115.704L49.1472 111.886H50.4904L51.4136 115.704C59.0524 114.836 64.0052 111.626 64.0052 111.626L60.2284 99.6522Z" fill="white"/>
</mask>
<g mask="url(#mask7_734_8332)">
<path d="M58.8047 100.575L62.6027 113.31" stroke="#FF5757" stroke-width="0.8677" stroke-miterlimit="10"/>
<path d="M59.5078 100.224L63.3058 112.958" stroke="#FF5757" stroke-width="0.8677" stroke-miterlimit="10"/>
</g>
<path opacity="0.3" d="M38.8203 101.53C40.0959 102.147 41.4115 102.666 42.7751 103.065C45.9707 103.999 49.2375 104.576 52.5751 104.586C55.5947 104.595 58.5715 104.257 61.4815 103.618L60.2303 99.6522L51.2483 99.5862V99.5654L49.8211 99.5758L48.3939 99.5654V99.5862L39.4119 99.6522L38.8203 101.53Z" fill="#003154"/>
<path d="M56.3003 90.181C56.3003 90.181 65.0499 92.9006 68.2423 91.9546C71.4347 91.0086 71.9075 81.3134 71.9075 81.3134C71.9075 81.3134 74.4851 81.9994 74.0123 79.3982C74.0123 79.3982 76.0223 79.5166 74.3671 77.743C74.3671 77.743 76.0027 77.089 74.0123 75.9694C72.1207 74.9054 69.7791 73.2734 68.1239 76.2294C66.5739 78.9974 64.5767 83.7966 64.5767 83.7966C64.5767 83.7966 54.8815 80.8406 53.9355 84.8606C52.9899 88.8806 56.3003 90.181 56.3003 90.181Z" fill="#A53434"/>
<path d="M64.0234 84.9633C64.0234 84.9633 69.6598 71.6181 71.4334 71.7361C73.207 71.8545 70.7242 77.1749 70.7242 77.1749L64.0234 84.9633Z" fill="#A53434"/>
<path d="M73.1922 75.7452C72.7214 75.5852 72.2374 75.4556 71.7494 75.4092C71.507 75.3892 71.259 75.3892 71.0366 75.4532C70.813 75.512 70.6294 75.6488 70.5642 75.8544L70.5434 75.9328L70.5382 75.9524L70.537 75.9572C70.5406 75.9364 70.5378 75.9548 70.5382 75.9516L70.5374 75.9632L70.5338 76.0096C70.5394 76.044 70.5446 76.0824 70.5698 76.1284C70.613 76.2156 70.6902 76.2988 70.777 76.3728C70.9526 76.5216 71.1638 76.6424 71.3794 76.7512C71.8138 76.964 72.2726 77.1528 72.7346 77.3016L72.607 77.6164C72.1942 77.4264 71.7506 77.2632 71.311 77.1736C71.0918 77.13 70.8682 77.1072 70.6694 77.134C70.4682 77.1608 70.3238 77.2412 70.265 77.3992C70.247 77.4332 70.239 77.4912 70.2306 77.5216C70.223 77.5828 70.2182 77.6404 70.221 77.6768C70.2238 77.7668 70.2442 77.8628 70.2834 77.9484C70.3602 78.1228 70.5146 78.2708 70.6938 78.3888C71.0562 78.6236 71.5134 78.7604 71.9514 78.8344L71.8938 79.1512C71.487 79.0656 71.037 79.0168 70.6402 79.1144C70.4434 79.1636 70.2634 79.2584 70.1518 79.4112C70.095 79.4864 70.0574 79.5772 70.0346 79.6732C70.027 79.7032 70.0242 79.7124 70.0214 79.7428C70.0194 79.7684 70.0114 79.8031 70.015 79.8211C70.0142 79.8623 70.0198 79.9072 70.0298 79.9544C70.077 80.1364 70.2202 80.296 70.3918 80.4196C70.5638 80.5444 70.7626 80.6416 70.967 80.7216C71.3782 80.8804 71.8134 80.9856 72.253 81.0612C71.807 81.0344 71.3614 80.9636 70.9286 80.8308C70.7126 80.764 70.4986 80.68 70.299 80.5572C70.1018 80.438 69.909 80.2604 69.8314 80.0084C69.815 79.9464 69.8026 79.8815 69.8018 79.8107C69.7986 79.7727 69.8042 79.7524 69.805 79.7224C69.8054 79.6972 69.8118 79.6511 69.8182 79.6271C69.8406 79.5059 69.8846 79.3828 69.9574 79.276C70.1018 79.0572 70.3378 78.9248 70.5678 78.8564C70.8006 78.7864 71.0378 78.7656 71.271 78.7656C71.5058 78.768 71.7322 78.7868 71.9678 78.8372L71.9102 79.154C71.6594 79.1184 71.4266 79.0628 71.1902 78.9876C70.9562 78.9112 70.7242 78.8155 70.5074 78.6771C70.2934 78.5399 70.083 78.356 69.9618 78.0972C69.9014 77.9684 69.8674 77.8304 69.8614 77.6844C69.8578 77.6024 69.8638 77.5424 69.8698 77.486C69.8842 77.4008 69.8934 77.3404 69.9242 77.2664C69.9754 77.1248 70.0798 76.9892 70.211 76.9056C70.3414 76.8204 70.4842 76.7796 70.6194 76.76C70.891 76.7296 71.1434 76.7648 71.3858 76.8164C71.8706 76.9252 72.317 77.0996 72.7586 77.3116L72.631 77.6264C72.1502 77.4564 71.6826 77.272 71.2374 77.0176C71.0162 76.8896 70.7982 76.75 70.603 76.5656C70.507 76.4724 70.4134 76.3667 70.3526 76.2271C70.3218 76.1615 70.3038 76.0748 70.3074 75.9856L70.3138 75.9392L70.3154 75.9276L70.3182 75.9104L70.3202 75.904L70.3278 75.8788L70.3602 75.778C70.4602 75.5016 70.7358 75.3212 70.995 75.2756C71.2582 75.2224 71.517 75.2448 71.767 75.2836C72.265 75.3684 72.7406 75.534 73.1922 75.7452Z" fill="#8E2424"/>
<path d="M53.9437 79.5518L50.2229 80.531L46.5025 79.5518V82.5598C46.5025 82.5598 31.3473 82.5598 30.3061 87.4186C29.2649 92.2774 37.8357 101.878 39.8817 100.173C42.4845 98.0042 37.9729 90.9762 37.9729 90.9762L50.2937 90.369L62.3541 90.9762C62.3541 90.9762 63.4961 87.5614 64.9949 83.8618C60.2401 82.5606 53.9437 82.5598 53.9437 82.5598V79.5518Z" fill="#A53434"/>
<path d="M53.9451 82.1902V79.5518L50.2243 80.531L46.5039 79.5518V82.333C48.9743 82.4118 51.5347 82.573 53.9451 82.1902Z" fill="#8E2424"/>
<path d="M60.5328 100.346L58.3636 82.6454L56.2812 82.5586C56.4912 86.8954 52.1916 87.3318 50.5164 87.473C48.6444 87.3318 43.8376 86.8954 44.0472 82.5586L41.9648 82.6454L39.5352 100.433C39.5352 100.433 43.9604 102.428 50.3812 102.602C56.8888 102.602 60.5328 100.346 60.5328 100.346Z" fill="#22689E"/>
<path d="M39.0585 96.2681C39.0585 96.2681 39.4925 93.1445 41.2277 93.2313C42.9629 93.3181 45.9997 97.2225 41.2277 94.7929C41.2277 94.7929 47.8217 99.0445 41.0541 96.7017C41.0541 96.7017 45.9997 100.519 40.7069 98.3501C40.7069 98.3501 40.0997 101.734 38.5377 99.9117C36.9761 98.0901 39.0585 96.2681 39.0585 96.2681Z" fill="#A53434"/>
<path d="M43.3594 82.4434L47.4886 94.0798L49.5262 93.1146L45.719 82.4434H43.3594Z" fill="#FF5757"/>
<path d="M44.1719 82.4434L48.1367 93.7718L48.7215 93.4946L44.8535 82.4434H44.1719Z" fill="white"/>
<path d="M56.7645 82.4434L52.6357 94.0798L50.5977 93.1146L54.4053 82.4434H56.7645Z" fill="#FF5757"/>
<path d="M55.9484 82.4434L51.9832 93.7718L51.3984 93.4946L55.2664 82.4434H55.9484Z" fill="white"/>
<path d="M50.036 100.087C52.3017 100.087 54.1384 98.2499 54.1384 95.9842C54.1384 93.7185 52.3017 91.8818 50.036 91.8818C47.7703 91.8818 45.9336 93.7185 45.9336 95.9842C45.9336 98.2499 47.7703 100.087 50.036 100.087Z" fill="#B1D2E5"/>
<path d="M47.1797 95.9435C47.1797 97.5207 48.4581 98.7991 50.0353 98.7991C51.6125 98.7991 52.8909 97.5207 52.8909 95.9435C52.8909 94.3663 51.6125 93.0879 50.0353 93.0879C48.4581 93.0879 47.1797 94.3663 47.1797 95.9435Z" fill="#86A8BF"/>
<path d="M67.4286 62.7918C67.4286 62.7918 75.239 58.8866 71.9638 54.9814C69.3598 51.8766 66.9962 53.6282 66.1362 54.477C66.9778 53.521 68.9706 51.0282 67.5546 50.3202C65.791 49.4386 64.1534 53.4694 64.1534 53.4694C64.1534 53.4694 65.791 47.9266 63.9014 47.9266C62.0118 47.9266 60.3742 51.4538 60.3742 51.4538C60.3742 51.4538 63.1458 44.2734 57.8546 43.2654C52.5638 42.2578 51.8078 48.6822 51.8078 48.6822C51.8078 48.6822 50.7998 43.3914 48.9106 44.525C47.021 45.6586 47.777 49.8158 47.777 49.8158C47.777 49.8158 45.5094 41.3754 40.5966 43.769C35.6838 46.1626 38.959 51.5794 38.959 51.5794C38.959 51.5794 34.9278 46.6666 33.2902 48.9338C31.6526 51.2014 37.1954 54.8546 37.1954 54.8546C37.1954 54.8546 31.2746 51.9574 29.133 58.2558C28.159 61.1206 29.3754 62.967 30.9898 64.131C29.6246 65.0138 28.347 66.521 29.007 68.9638C30.2666 73.625 41.3522 71.2314 41.3522 71.2314L40.8442 70.6986C46.623 69.3706 58.6694 67.1642 62.2638 70.8534C67.0506 75.7662 72.2158 70.0974 71.4598 67.3262C70.7038 64.555 68.3106 65.1846 68.3106 65.1846C68.3106 65.1846 72.9714 63.169 71.8378 62.1614C70.7038 61.1542 67.4286 62.7918 67.4286 62.7918Z" fill="#003154"/>
<path d="M38.6554 66.7097C38.6554 66.7097 37.4986 64.3961 34.4906 66.4785C31.4826 68.5609 36.1102 76.5433 39.2338 73.1885C42.3574 69.8333 38.6554 66.7097 38.6554 66.7097Z" fill="#8E2424"/>
<path d="M36.0612 63.9258C36.0612 63.9258 34.5496 70.6022 38.4548 71.4842C42.36 72.3662 39.2108 64.0518 39.2108 64.0518L36.0612 63.9258Z" fill="#003154"/>
<path d="M62.452 67.0433C62.452 67.0433 63.326 64.6085 66.56 66.3193C69.7936 68.0301 66.1464 76.5053 62.6468 73.5449C59.1468 70.5841 62.452 67.0433 62.452 67.0433Z" fill="#8E2424"/>
<path d="M65.4394 63.9258C65.4394 63.9258 66.951 70.6022 63.0458 71.4842C59.1406 72.3658 62.2898 64.0518 62.2898 64.0518L65.4394 63.9258Z" fill="#003154"/>
<path d="M49.1105 57.4541C49.1105 57.4541 64.6129 57.6761 64.2657 70.3193C63.9185 82.9625 48.0693 83.8501 41.2437 78.5265C34.0749 72.9353 36.3845 58.4525 49.1105 57.4541Z" fill="#A53434"/>
<path d="M37.1949 70.7278C37.1949 70.7278 37.5589 58.7722 51.0521 58.6346C63.3973 58.5086 64.2793 70.8538 64.2793 70.8538C64.2793 70.8538 65.6649 54.4774 51.3041 54.2254C34.8041 53.9358 37.1949 70.7278 37.1949 70.7278Z" fill="#FFA94D"/>
<path d="M42.4022 66.6449C42.4022 66.6449 42.447 66.7921 42.525 67.0489C42.5686 67.1733 42.6166 67.3177 42.6842 67.4825C42.747 67.6473 42.8346 67.8253 42.931 68.0105C43.0282 68.1961 43.1518 68.3845 43.2898 68.5673C43.4278 68.7505 43.587 68.9277 43.7686 69.0773C43.9466 69.2317 44.1458 69.3593 44.3558 69.4433C44.5658 69.5277 44.7834 69.5773 45.005 69.5781C44.9366 69.5805 44.9882 69.5785 44.9738 69.5789L44.9774 69.5785L44.9842 69.5781L44.9982 69.5773L45.0262 69.5757L45.0822 69.5725L45.1942 69.5661C45.273 69.5625 45.2922 69.5453 45.3446 69.5393C45.431 69.5201 45.5558 69.4893 45.6542 69.4429C45.8638 69.3581 46.0638 69.2313 46.241 69.0765C46.4222 68.9269 46.5814 68.7497 46.7194 68.5665C46.8578 68.3837 46.981 68.1953 47.0786 68.0101C47.175 67.8249 47.2626 67.6469 47.3254 67.4821C47.3934 67.3185 47.4418 67.1697 47.4854 67.0453C47.5638 66.7901 47.6086 66.6445 47.6086 66.6445C47.6086 66.6445 47.6174 66.6821 47.6346 66.7525C47.6466 66.8229 47.6794 66.9285 47.6918 67.0637C47.7038 67.1989 47.7282 67.3673 47.7162 67.5593C47.7162 67.7529 47.6954 67.9733 47.6418 68.2097C47.5946 68.4481 47.5174 68.7049 47.395 68.9641C47.2738 69.2233 47.1134 69.4893 46.893 69.7305C46.679 69.9749 46.4078 70.2021 46.0806 70.3585C46.0018 70.4029 45.917 70.4365 45.8294 70.4669C45.743 70.4993 45.6594 70.5317 45.553 70.5501C45.459 70.5685 45.3342 70.5969 45.2638 70.6005L45.0058 70.6185C44.6286 70.6129 44.2538 70.5205 43.9314 70.3573C43.6046 70.1997 43.333 69.9741 43.1194 69.7289C42.899 69.4877 42.7386 69.2217 42.6178 68.9625C42.495 68.7037 42.4182 68.4465 42.371 68.2085C42.317 67.9725 42.297 67.7517 42.2962 67.5585C42.2842 67.3677 42.3082 67.1949 42.3202 67.0597C42.3326 66.9249 42.3654 66.8233 42.3774 66.7521C42.393 66.6825 42.4022 66.6449 42.4022 66.6449Z" fill="#001433"/>
<path d="M54.4331 66.6444C54.4331 66.6444 54.4779 66.7916 54.5559 67.0484C54.5995 67.1728 54.6475 67.3172 54.7151 67.482C54.7779 67.6468 54.8655 67.8248 54.9619 68.01C55.0591 68.1956 55.1827 68.384 55.3207 68.5668C55.4587 68.75 55.6179 68.9272 55.7995 69.0768C55.9775 69.2312 56.1767 69.3588 56.3867 69.4428C56.4895 69.4908 56.5995 69.5176 56.7071 69.5412C56.7619 69.5484 56.8151 69.5676 56.8707 69.568L56.9535 69.572L56.9947 69.5744L57.0155 69.5756L57.0259 69.5764L57.0311 69.5768L57.0339 69.5772C57.0191 69.5776 57.0703 69.576 57.0015 69.5784L57.2251 69.5652C57.3039 69.5616 57.3231 69.5444 57.3755 69.5384C57.4619 69.5192 57.5867 69.4884 57.6851 69.442C57.8947 69.3572 58.0947 69.2304 58.2719 69.0756C58.4531 68.926 58.6123 68.7488 58.7503 68.5656C58.8887 68.3828 59.0119 68.1944 59.1095 68.0092C59.2059 67.824 59.2935 67.646 59.3563 67.4812C59.4243 67.3176 59.4727 67.1688 59.5163 67.0444C59.5947 66.7892 59.6395 66.6436 59.6395 66.6436C59.6395 66.6436 59.6483 66.6812 59.6655 66.7516C59.6775 66.822 59.7103 66.9276 59.7227 67.0628C59.7347 67.198 59.7591 67.3664 59.7471 67.5584C59.7471 67.752 59.7267 67.9724 59.6727 68.2088C59.6255 68.4472 59.5483 68.704 59.4259 68.9632C59.3047 69.2224 59.1443 69.4884 58.9239 69.7296C58.7099 69.974 58.4387 70.2012 58.1115 70.3576C58.0327 70.402 57.9479 70.4356 57.8603 70.466C57.7739 70.4984 57.6903 70.5308 57.5839 70.5492C57.4899 70.5676 57.3651 70.596 57.2947 70.5996L57.0715 70.6164L57.0323 70.6172L57.0279 70.6168L57.0191 70.6164L57.0015 70.6152L56.9663 70.6128L56.8959 70.608L56.7551 70.5968C56.6615 70.5904 56.5707 70.5632 56.4791 70.546C56.3863 70.5304 56.2999 70.4968 56.2135 70.4648C56.1263 70.4344 56.0411 70.4004 55.9627 70.3564C55.6359 70.1988 55.3643 69.9732 55.1507 69.728C54.9303 69.4868 54.7699 69.2208 54.6491 68.9616C54.5263 68.7028 54.4499 68.4456 54.4023 68.2076C54.3483 67.9716 54.3283 67.7508 54.3275 67.5576C54.3155 67.3668 54.3395 67.194 54.3515 67.0588C54.3639 66.924 54.3967 66.8224 54.4087 66.7512C54.4239 66.682 54.4331 66.6444 54.4331 66.6444Z" fill="#001433"/>
<path d="M45.7617 73.1212L55.8397 72.6172C55.8397 72.6172 52.9421 79.924 45.7617 73.1212Z" fill="white"/>
<path d="M91.2437 75.7093C91.2437 75.7093 85.4305 92.6289 84.1289 103.822L92.8925 107.639C92.8925 107.639 98.7057 93.7569 100.788 82.6505C102.87 71.5445 91.2437 75.7093 91.2437 75.7093Z" fill="#FF8255"/>
<path d="M94.1001 93.5149C95.3201 93.7853 96.5469 94.0017 97.7781 94.1817C98.9613 90.4473 100.086 86.3917 100.788 82.6505C102.87 71.5445 91.2433 75.7093 91.2433 75.7093C91.2433 75.7093 88.8545 82.6613 86.7969 90.6005C88.9573 92.0097 91.3581 92.9077 94.1001 93.5149Z" fill="#EF683F"/>
<path d="M83.6953 104.342L85.2569 95.665C85.2569 95.665 90.3761 96.793 96.1893 99.4826L92.7185 108.593L83.6953 104.342Z" fill="white"/>
<mask id="mask8_734_8332" style="mask-type:luminance" maskUnits="userSpaceOnUse" x="83" y="95" width="14" height="14">
<path d="M83.6953 104.342L85.2569 95.665C85.2569 95.665 90.3761 96.793 96.1893 99.4826L92.7185 108.593L83.6953 104.342Z" fill="white"/>
</mask>
<g mask="url(#mask8_734_8332)">
<path d="M83.4297 97.0312C83.4297 97.0312 91.0309 98.314 96.4509 101.674" stroke="#C13333" stroke-width="0.8677" stroke-miterlimit="10"/>
<path d="M83.3438 98.1592C83.3438 98.1592 90.9449 99.442 96.3649 102.802" stroke="#C13333" stroke-width="0.8677" stroke-miterlimit="10"/>
</g>
<path d="M87.2533 105.383L88.1209 103.908L83.6089 101.825L83.0917 103.997C81.6697 104.768 78.5989 106.724 79.2705 108.94C80.1381 111.803 91.5045 110.329 93.6737 107.986L93.9341 105.817L87.2533 105.383Z" fill="#003154"/>
<path d="M79.2759 107.939C79.2615 107.891 79.2507 107.843 79.2399 107.795C79.1547 108.166 79.1547 108.549 79.2731 108.941C80.1407 111.804 91.5071 110.329 93.6763 107.986L93.7631 107.263C90.8779 109.491 80.1311 110.761 79.2759 107.939Z" fill="#22689E"/>
<path d="M82.8555 104.024C82.8555 104.024 84.9091 104.458 86.1527 105.962" stroke="white" stroke-width="1.7353" stroke-miterlimit="10" stroke-linecap="round"/>
<path d="M81.6133 104.747C81.6133 104.747 83.6669 105.181 84.9105 106.685" stroke="white" stroke-width="1.7353" stroke-miterlimit="10" stroke-linecap="round"/>
<path d="M110.142 75.7093C110.142 75.7093 115.955 92.6289 117.257 103.822L108.493 107.639C108.493 107.639 102.679 93.7569 100.597 82.6505C98.515 71.5445 110.142 75.7093 110.142 75.7093Z" fill="#FF8255"/>
<path d="M107.285 93.5149C106.065 93.7853 104.838 94.0017 103.607 94.1817C102.424 90.4473 101.299 86.3917 100.597 82.6505C98.515 71.5445 110.142 75.7093 110.142 75.7093C110.142 75.7093 112.53 82.6613 114.588 90.6005C112.428 92.0097 110.027 92.9077 107.285 93.5149Z" fill="#EF683F"/>
<path d="M117.689 104.342L116.128 95.665C116.128 95.665 111.009 96.793 105.195 99.4826L108.666 108.593L117.689 104.342Z" fill="white"/>
<mask id="mask9_734_8332" style="mask-type:luminance" maskUnits="userSpaceOnUse" x="105" y="95" width="13" height="14">
<path d="M117.689 104.342L116.128 95.665C116.128 95.665 111.009 96.793 105.195 99.4826L108.666 108.593L117.689 104.342Z" fill="white"/>
</mask>
<g mask="url(#mask9_734_8332)">
<path d="M117.955 97.0312C117.955 97.0312 110.354 98.314 104.934 101.674" stroke="#C13333" stroke-width="0.8677" stroke-miterlimit="10"/>
<path d="M118.041 98.1592C118.041 98.1592 110.44 99.442 105.02 102.802" stroke="#C13333" stroke-width="0.8677" stroke-miterlimit="10"/>
</g>
<path d="M114.134 105.383L113.266 103.908L117.778 101.825L118.296 103.997C119.718 104.768 122.788 106.724 122.117 108.94C121.249 111.803 109.883 110.328 107.714 107.986L107.453 105.816L114.134 105.383Z" fill="#003154"/>
<path d="M122.112 107.939C122.127 107.891 122.137 107.843 122.148 107.795C122.233 108.166 122.233 108.549 122.115 108.94C121.247 111.803 109.881 110.329 107.712 107.986L107.625 107.263C110.51 109.491 121.257 110.76 122.112 107.939Z" fill="#22689E"/>
<path d="M118.532 104.023C118.532 104.023 116.478 104.457 115.234 105.961" stroke="white" stroke-width="1.7353" stroke-miterlimit="10" stroke-linecap="round"/>
<path d="M119.774 104.747C119.774 104.747 117.72 105.181 116.477 106.685" stroke="white" stroke-width="1.7353" stroke-miterlimit="10" stroke-linecap="round"/>
<path d="M111.069 76.8378L102.087 76.7718V76.751L100.659 76.7614L99.2323 76.751V76.7718L90.2503 76.8378L86.4727 88.8114C86.4727 88.8114 91.4255 92.0218 99.0643 92.8894L99.9875 89.0718H101.331L102.254 92.8894C109.893 92.0218 114.845 88.8114 114.845 88.8114L111.069 76.8378Z" fill="#22689E"/>
<mask id="mask10_734_8332" style="mask-type:luminance" maskUnits="userSpaceOnUse" x="86" y="76" width="29" height="17">
<path d="M111.069 76.8378L102.087 76.7718V76.751L100.659 76.7614L99.2323 76.751V76.7718L90.2503 76.8378L86.4727 88.8114C86.4727 88.8114 91.4255 92.0218 99.0643 92.8894L99.9875 89.0718H101.331L102.254 92.8894C109.893 92.0218 114.845 88.8114 114.845 88.8114L111.069 76.8378Z" fill="white"/>
</mask>
<g mask="url(#mask10_734_8332)">
<path d="M91.071 77.3584L87.3398 90.1132" stroke="white" stroke-width="0.8677" stroke-miterlimit="10"/>
<path d="M91.8519 77.4453L88.1211 90.2001" stroke="white" stroke-width="0.8677" stroke-miterlimit="10"/>
</g>
<mask id="mask11_734_8332" style="mask-type:luminance" maskUnits="userSpaceOnUse" x="86" y="76" width="29" height="17">
<path d="M111.069 76.8378L102.087 76.7718V76.751L100.659 76.7614L99.2323 76.751V76.7718L90.2503 76.8378L86.4727 88.8114C86.4727 88.8114 91.4255 92.0218 99.0643 92.8894L99.9875 89.0718H101.331L102.254 92.8894C109.893 92.0218 114.845 88.8114 114.845 88.8114L111.069 76.8378Z" fill="white"/>
</mask>
<g mask="url(#mask11_734_8332)">
<path d="M109.645 77.7607L113.443 90.4959" stroke="white" stroke-width="0.8677" stroke-miterlimit="10"/>
<path d="M110.348 77.4092L114.146 90.144" stroke="white" stroke-width="0.8677" stroke-miterlimit="10"/>
</g>
<path opacity="0.6" d="M89.6562 78.7154C90.9318 79.3322 92.2474 79.8518 93.611 80.2502C96.8066 81.1842 100.073 81.7618 103.411 81.7718C106.431 81.7806 109.407 81.4426 112.318 80.8038L111.067 76.8378L102.085 76.7718V76.751L100.657 76.7614L99.2302 76.751V76.7718L90.2482 76.8378L89.6562 78.7154Z" fill="#003154"/>
<path d="M108.857 60.1871C108.864 60.1099 108.874 60.0243 108.886 59.9351C106.536 59.7447 104.786 59.7443 104.786 59.7443V56.7363L101.065 57.7155L97.3451 56.7363V59.7443C97.3451 59.7443 95.5823 59.7443 93.2183 59.9371C93.2147 59.9663 93.2127 59.9991 93.2091 60.0275C92.8355 62.6555 92.9567 65.3015 93.1363 67.9475L101.137 67.5531L107.892 67.8935C108.368 65.3495 108.612 62.7567 108.857 60.1871Z" fill="#FF8255"/>
<path d="M104.785 59.3747V56.7363L101.064 57.7155L97.3438 56.7363V59.5175C99.8138 59.5963 102.374 59.7575 104.785 59.3747Z" fill="#EF683F"/>
<path d="M88.6164 43.8953C88.6164 43.8953 87.4596 41.5817 84.4516 43.6641C81.4436 45.7465 86.0712 53.7289 89.1948 50.3741C92.3184 47.0189 88.6164 43.8953 88.6164 43.8953Z" fill="#EF683F"/>
<path d="M113.296 44.2289C113.296 44.2289 114.17 41.7941 117.404 43.5049C120.638 45.2157 116.99 53.6909 113.491 50.7305C109.991 47.7697 113.296 44.2289 113.296 44.2289Z" fill="#EF683F"/>
<path d="M86.4165 42.8541C86.4165 42.8541 86.3009 26.7733 105.852 26.8893C105.852 26.8893 104.464 29.7813 102.266 30.8225C102.266 30.8225 106.778 29.3185 108.628 27.0049C108.628 27.0049 110.248 30.0129 108.513 32.9049C108.513 32.9049 110.132 30.9381 110.132 28.2773C110.132 28.2773 119.272 36.4913 115.107 48.0601C110.943 59.6289 85.9537 53.6133 86.4165 42.8541Z" fill="#003154"/>
<path d="M99.9542 34.6406C99.9542 34.6406 115.457 34.8626 115.109 47.5058C114.762 60.149 98.913 61.0366 92.0874 55.713C84.9186 50.1218 87.2282 35.639 99.9542 34.6406Z" fill="#FF8255"/>
<path d="M87.6914 43.0858C87.6914 43.0858 92.6658 42.2758 93.9386 36.4914C93.9386 36.4914 101.458 45.7466 111.755 38.4582C119.901 32.6914 91.8562 33.2522 91.8562 33.2522L87.6914 43.0858Z" fill="#003154"/>
<path d="M98.2627 47.6961C98.2627 47.6961 101.927 50.0557 105.976 48.0313C109.552 46.2429 112.906 50.7141 110.112 54.2909C106.368 59.0833 94.8127 57.5185 93.2327 51.8317C92.1147 47.8077 94.5739 46.3545 98.2627 47.6961Z" fill="#FF5757"/>
<path d="M105.976 48.0311C101.927 50.0555 98.2627 47.6959 98.2627 47.6959C94.5739 46.3547 92.1147 47.8079 93.2327 51.8319C93.4543 52.6303 93.8783 53.3443 94.4443 53.9739C95.6443 51.8163 98.0147 50.8515 100.698 51.3899C103.749 52.0019 105.303 54.0491 105.601 56.8507C107.45 56.4495 109.078 55.6135 110.112 54.2911C112.906 50.7139 109.552 46.2427 105.976 48.0311Z" fill="#C13333"/>
<path d="M110.481 45.9199C110.481 45.9199 110.436 45.7727 110.358 45.5159C110.315 45.3915 110.267 45.2471 110.199 45.0823C110.136 44.9175 110.049 44.7395 109.952 44.5543C109.855 44.3687 109.732 44.1803 109.594 43.9975C109.456 43.8143 109.296 43.6371 109.115 43.4875C108.937 43.3331 108.738 43.2055 108.528 43.1215C108.424 43.0735 108.315 43.0467 108.207 43.0231C108.152 43.0159 108.099 42.9967 108.044 42.9963L107.961 42.9923L107.92 42.9899L107.899 42.9883L107.888 42.9875L107.883 42.9871H107.88C107.895 42.9863 107.844 42.9883 107.913 42.9859L107.689 42.9987C107.61 43.0023 107.591 43.0195 107.539 43.0255C107.452 43.0447 107.328 43.0755 107.229 43.1219C107.02 43.2067 106.82 43.3331 106.642 43.4883C106.461 43.6379 106.302 43.8151 106.164 43.9983C106.026 44.1811 105.902 44.3695 105.805 44.5547C105.708 44.7399 105.621 44.9179 105.558 45.0827C105.49 45.2463 105.442 45.3951 105.398 45.5195C105.32 45.7747 105.275 45.9203 105.275 45.9203C105.275 45.9203 105.266 45.8827 105.249 45.8123C105.237 45.7415 105.204 45.6363 105.192 45.5011C105.18 45.3659 105.155 45.1975 105.167 45.0055C105.167 44.8119 105.188 44.5915 105.242 44.3551C105.289 44.1167 105.366 43.8599 105.488 43.6007C105.61 43.3415 105.77 43.0755 105.99 42.8343C106.204 42.5899 106.476 42.3627 106.803 42.2063C106.882 42.1619 106.966 42.1283 107.054 42.0975C107.14 42.0651 107.224 42.0327 107.33 42.0143C107.424 41.9959 107.549 41.9675 107.62 41.9639L107.843 41.9471L107.882 41.9463L107.886 41.9467L107.895 41.9471L107.913 41.9483L107.948 41.9507L108.018 41.9555L108.159 41.9667C108.253 41.9731 108.344 41.9999 108.435 42.0175C108.528 42.0331 108.614 42.0667 108.701 42.0987C108.788 42.1291 108.873 42.1631 108.952 42.2071C109.278 42.3647 109.55 42.5907 109.764 42.8355C109.984 43.0767 110.144 43.3427 110.265 43.6019C110.388 43.8607 110.464 44.1179 110.512 44.3559C110.566 44.5919 110.586 44.8127 110.587 45.0059C110.599 45.1967 110.575 45.3695 110.563 45.5047C110.55 45.6395 110.518 45.7411 110.506 45.8123C110.49 45.8823 110.481 45.9199 110.481 45.9199Z" fill="#001433"/>
<path d="M98.4496 45.9197C98.4496 45.9197 98.4048 45.7725 98.3268 45.5157C98.2832 45.3913 98.2352 45.2469 98.1676 45.0821C98.1048 44.9173 98.0172 44.7393 97.9208 44.5541C97.8236 44.3685 97.7 44.1801 97.562 43.9973C97.424 43.8141 97.2648 43.6369 97.0832 43.4873C96.9052 43.3329 96.706 43.2053 96.496 43.1213C96.286 43.0369 96.0684 42.9877 95.8468 42.9865C95.9152 42.9841 95.8636 42.9861 95.878 42.9857L95.8744 42.9861L95.8676 42.9865L95.8536 42.9873L95.8256 42.9889L95.7696 42.9921L95.658 42.9985C95.5792 43.0021 95.56 43.0193 95.5076 43.0253C95.4212 43.0445 95.2964 43.0753 95.198 43.1217C94.9884 43.2065 94.7884 43.3329 94.6112 43.4881C94.43 43.6377 94.2708 43.8149 94.1328 43.9981C93.9944 44.1809 93.8712 44.3693 93.7736 44.5545C93.6772 44.7397 93.5896 44.9177 93.5268 45.0821C93.4588 45.2457 93.4104 45.3945 93.3668 45.5189C93.2884 45.7741 93.2436 45.9197 93.2436 45.9197C93.2436 45.9197 93.2344 45.8821 93.2176 45.8117C93.2056 45.7409 93.1728 45.6357 93.1604 45.5005C93.1484 45.3653 93.124 45.1969 93.136 45.0049C93.136 44.8113 93.1564 44.5909 93.2104 44.3545C93.2576 44.1161 93.3348 43.8593 93.4572 43.6001C93.5784 43.3409 93.7388 43.0749 93.9592 42.8337C94.1732 42.5893 94.4444 42.3621 94.7716 42.2057C94.8504 42.1613 94.9352 42.1277 95.0228 42.0969C95.1092 42.0645 95.1928 42.0321 95.2992 42.0137C95.3932 41.9953 95.518 41.9669 95.5884 41.9633L95.8464 41.9453C96.2236 41.9513 96.5984 42.0433 96.9208 42.2065C97.2476 42.3641 97.5192 42.5901 97.7328 42.8349C97.9532 43.0761 98.1136 43.3421 98.2344 43.6013C98.3572 43.8601 98.4336 44.1173 98.4812 44.3553C98.5352 44.5913 98.5552 44.8121 98.556 45.0053C98.568 45.1961 98.544 45.3689 98.532 45.5041C98.5196 45.6389 98.4868 45.7405 98.4748 45.8117C98.4584 45.8821 98.4496 45.9197 98.4496 45.9197Z" fill="#001433"/>
<path d="M97.2354 59.9973C97.2354 59.9973 82.3514 63.1865 80.8578 48.6537C80.8578 48.6537 83.5686 47.8901 83.191 45.3957C82.9382 43.7265 81.357 42.6969 80.601 42.8885C80.7422 41.7525 80.6098 40.4057 78.8442 41.4825C78.8442 41.4825 77.6914 39.7133 76.5022 41.3345C76.5022 41.3345 75.3042 39.6009 73.7894 42.1217C72.7562 43.8413 67.345 72.2065 100.616 68.5917L97.2354 59.9973Z" fill="#FF8255"/>
<path d="M97.2366 59.9974C97.2366 59.9974 93.9798 60.695 90.3602 59.9502C89.4934 62.7202 88.2958 65.3686 87.1406 68.0334C90.7138 68.9106 95.1382 69.187 100.617 68.5914L97.2366 59.9974Z" fill="#EF683F"/>
<path d="M73.7955 42.7472C73.7323 43.2692 73.6947 43.7972 73.7427 44.3144C73.7707 44.5696 73.8191 44.8304 73.9387 45.038C74.0539 45.2532 74.2787 45.3284 74.5039 45.2508C74.7099 45.1824 74.8823 44.9884 75.0055 44.7764C75.1319 44.562 75.2251 44.3228 75.3023 44.0788C75.4535 43.5904 75.5595 43.0756 75.6175 42.5672L75.9187 42.6228C75.7779 43.2128 75.6755 43.8292 75.6711 44.4292C75.6723 44.7264 75.6995 45.0296 75.8011 45.2756C75.8531 45.3968 75.9275 45.4928 76.0227 45.546C76.0651 45.572 76.1375 45.5888 76.1719 45.5952C76.2079 45.5956 76.2559 45.6012 76.2823 45.5972C76.3071 45.59 76.3267 45.5936 76.3563 45.5832C76.5899 45.5216 76.8027 45.2988 76.9699 45.0604C77.1411 44.8192 77.2807 44.5472 77.4067 44.27C77.6515 43.712 77.8591 43.1256 78.0199 42.534L78.2419 42.6052C77.9763 43.2392 77.7571 43.9028 77.6131 44.576C77.5475 44.9128 77.4979 45.2596 77.5459 45.5972C77.5707 45.7644 77.6267 45.93 77.7395 46.0556C77.7955 46.1188 77.8683 46.164 77.9471 46.1984C78.0283 46.228 78.1135 46.242 78.2011 46.2484C78.1135 46.2492 78.0263 46.2424 77.9399 46.2188C77.8559 46.1904 77.7743 46.1492 77.7087 46.0864C77.5743 45.962 77.5063 45.7844 77.4687 45.6112C77.3963 45.2592 77.4259 44.9004 77.4715 44.5516C77.5719 43.8508 77.7823 43.1788 78.0255 42.5156L78.2475 42.5868C78.1055 43.2024 77.9327 43.8064 77.6787 44.3896C77.5515 44.6804 77.4103 44.968 77.2247 45.2376C77.1315 45.372 77.0303 45.504 76.9031 45.6208C76.7775 45.7368 76.6259 45.8436 76.4395 45.8956C76.3955 45.9108 76.3355 45.9152 76.2839 45.922C76.2335 45.9264 76.2031 45.9216 76.1615 45.9216C76.0411 45.9092 75.9619 45.8844 75.8667 45.8368C75.6859 45.7404 75.5647 45.5736 75.4927 45.4116C75.3495 45.0812 75.3363 44.7476 75.3371 44.426C75.3523 43.78 75.4655 43.1608 75.6215 42.5432L75.9227 42.5988C75.8507 43.1344 75.7463 43.6564 75.5651 44.1672C75.4727 44.4208 75.3631 44.6716 75.2119 44.9048C75.0611 45.1332 74.8611 45.364 74.5567 45.4528C74.4155 45.4908 74.2555 45.4944 74.1075 45.4336C73.9591 45.3728 73.8499 45.2496 73.7843 45.1224C73.6523 44.8632 73.6315 44.5872 73.6183 44.3212C73.6071 43.7876 73.6783 43.2608 73.7955 42.7472Z" fill="#D34220"/>
<path d="M82.5031 43.9081C82.5031 43.9081 80.8747 41.6545 78.4343 43.7117C76.7579 45.1249 78.5051 45.3857 79.6899 45.1245C79.6899 45.1245 77.0463 45.7569 78.5119 47.6701" fill="#FF8255"/>
<path d="M82.5047 43.9085C82.3939 43.7821 82.2643 43.6749 82.1359 43.5709C82.0059 43.4681 81.8699 43.3729 81.7247 43.2969C81.5831 43.2145 81.4311 43.1529 81.2787 43.1017C81.1271 43.0449 80.9699 43.0145 80.8123 42.9897C80.6539 42.9825 80.4947 42.9585 80.3375 42.9877C80.2591 42.9985 80.1803 43.0029 80.1027 43.0185L79.8739 43.0825C79.7191 43.1141 79.5807 43.2045 79.4323 43.2573C79.2891 43.3261 79.1559 43.4189 79.0175 43.4973C78.8843 43.5869 78.7619 43.6945 78.6331 43.7905C78.5171 43.8733 78.3851 44.0093 78.2707 44.1165L78.1219 44.2865C78.0763 44.3449 78.0419 44.4081 77.9999 44.4673C77.9439 44.5901 77.9151 44.7013 77.9543 44.7665C77.9863 44.8421 78.1195 44.9093 78.2519 44.9525C78.3895 44.9973 78.5463 45.0173 78.7027 45.0273C79.0167 45.0481 79.3427 45.0261 79.6559 44.9649L79.7295 45.2845C79.2047 45.4213 78.6339 45.6545 78.3215 46.0989L78.2259 46.2749C78.2087 46.3389 78.1871 46.4021 78.1663 46.4669C78.1575 46.5333 78.1567 46.6017 78.1503 46.6705C78.1395 46.7397 78.1671 46.8077 78.1735 46.8773C78.1823 46.9473 78.1955 47.0173 78.2263 47.0829L78.3031 47.2849C78.3675 47.4141 78.4427 47.5401 78.5135 47.6701L78.3771 47.4961C78.3335 47.4365 78.2807 47.3817 78.2443 47.3165L78.1399 47.1169C78.0999 47.0517 78.0771 46.9797 78.0579 46.9049C78.0415 46.8305 78.0043 46.7585 78.0059 46.6797C78.0027 46.6017 77.9951 46.5225 77.9971 46.4433L78.0439 46.2077C78.0727 46.1337 78.1091 46.0621 78.1427 45.9889C78.2251 45.8529 78.3243 45.7277 78.4395 45.6209C78.4935 45.5629 78.5587 45.5213 78.6187 45.4709C78.6783 45.4193 78.7459 45.3837 78.8099 45.3397C79.0743 45.1781 79.3475 45.0497 79.6531 44.9649L79.7267 45.2845C79.3851 45.3633 79.0375 45.4033 78.6827 45.3889C78.5051 45.3793 78.3263 45.3601 78.1435 45.3045C77.9683 45.2421 77.7595 45.1757 77.6255 44.9461C77.5975 44.8917 77.5819 44.8265 77.5651 44.7657C77.5507 44.7045 77.5643 44.6469 77.5671 44.5873C77.5779 44.4685 77.6315 44.3825 77.6711 44.2877C77.7239 44.2093 77.7735 44.1261 77.8319 44.0537L78.0175 43.8485C78.1487 43.7289 78.2507 43.6221 78.4059 43.5081C78.5475 43.4069 78.6835 43.2993 78.8311 43.2069C78.9863 43.1249 79.1339 43.0309 79.2951 42.9605C79.4623 42.9033 79.6191 42.8189 79.7971 42.7941L80.0571 42.7417C80.1447 42.7305 80.2343 42.7309 80.3223 42.7257C80.4983 42.7073 80.6759 42.7445 80.8487 42.7661C81.0207 42.8053 81.1891 42.8517 81.3483 42.9245C81.5063 42.9969 81.6579 43.0825 81.7955 43.1849C81.9371 43.2817 82.0651 43.3961 82.1851 43.5161C82.3059 43.6349 82.4131 43.7677 82.5047 43.9085Z" fill="#D34220"/>
<path d="M105.064 59.9973C105.064 59.9973 119.948 63.1865 121.442 48.6537C121.442 48.6537 118.731 47.8901 119.109 45.3957C119.362 43.7265 120.943 42.6969 121.699 42.8885C121.558 41.7525 121.69 40.4057 123.456 41.4825C123.456 41.4825 124.608 39.7133 125.798 41.3345C125.798 41.3345 126.996 39.6009 128.51 42.1217C129.544 43.8413 134.955 72.2065 101.684 68.5917L105.064 59.9973Z" fill="#FF8255"/>
<path d="M105.064 59.9971C105.064 59.9971 108.321 60.6948 111.94 59.95C112.807 62.72 114.005 65.3683 115.16 68.0331C111.587 68.9103 107.162 69.1868 101.684 68.5912L105.064 59.9971Z" fill="#EF683F"/>
<path d="M128.503 42.748C128.62 43.2616 128.691 43.7884 128.68 44.3232C128.667 44.5892 128.646 44.8648 128.514 45.1244C128.448 45.2516 128.339 45.3748 128.191 45.4356C128.043 45.4968 127.883 45.4928 127.742 45.4548C127.437 45.366 127.237 45.1352 127.086 44.9068C126.935 44.6736 126.826 44.4228 126.733 44.1692C126.552 43.6588 126.448 43.1364 126.376 42.6008L126.677 42.5452C126.833 43.1628 126.946 43.782 126.961 44.428C126.962 44.7496 126.949 45.0832 126.806 45.4136C126.734 45.5756 126.612 45.7424 126.432 45.8388C126.336 45.8864 126.257 45.9112 126.137 45.9236C126.095 45.9236 126.065 45.928 126.014 45.924C125.963 45.9168 125.903 45.9128 125.859 45.8976C125.672 45.8456 125.521 45.7388 125.395 45.6228C125.268 45.506 125.167 45.374 125.074 45.2396C124.888 44.97 124.747 44.6824 124.62 44.3916C124.366 43.8088 124.192 43.2044 124.051 42.5888L124.273 42.5176C124.516 43.1808 124.726 43.8528 124.827 44.5536C124.872 44.9024 124.902 45.2612 124.83 45.6132C124.792 45.7864 124.724 45.9636 124.59 46.0884C124.524 46.1512 124.442 46.1924 124.358 46.2208C124.272 46.2444 124.185 46.2508 124.097 46.2504C124.185 46.244 124.27 46.23 124.351 46.2004C124.43 46.166 124.503 46.1208 124.559 46.0576C124.672 45.932 124.728 45.7664 124.752 45.5992C124.8 45.2616 124.751 44.9148 124.685 44.578C124.542 43.9044 124.322 43.2412 124.056 42.6072L124.278 42.536C124.439 43.1276 124.647 43.714 124.892 44.272C125.018 44.5492 125.157 44.8212 125.328 45.0624C125.496 45.3008 125.708 45.5236 125.942 45.5852C125.972 45.5956 125.991 45.592 126.016 45.5992C126.043 45.6032 126.09 45.5976 126.126 45.5972C126.16 45.5912 126.233 45.574 126.276 45.548C126.371 45.4948 126.445 45.3988 126.497 45.2776C126.598 45.0316 126.626 44.7284 126.627 44.4312C126.622 43.8312 126.52 43.2152 126.379 42.6248L126.68 42.5692C126.738 43.0776 126.844 43.5924 126.996 44.0808C127.072 44.3248 127.166 44.564 127.292 44.7784C127.416 44.9904 127.588 45.184 127.794 45.2528C128.019 45.3304 128.244 45.2552 128.359 45.04C128.479 44.8324 128.527 44.5716 128.555 44.3164C128.604 43.798 128.566 43.27 128.503 42.748Z" fill="#D34220"/>
<path d="M119.793 43.9091C119.793 43.9091 121.421 41.6555 123.862 43.7127C125.538 45.1259 123.791 45.3867 122.606 45.1255C122.606 45.1255 125.25 45.7579 123.784 47.6711" fill="#FF8255"/>
<path d="M119.793 43.9089C119.885 43.7681 119.992 43.6353 120.113 43.5161C120.233 43.3961 120.361 43.2817 120.502 43.1849C120.64 43.0825 120.792 42.9969 120.949 42.9245C121.109 42.8521 121.277 42.8053 121.449 42.7661C121.622 42.7445 121.799 42.7073 121.975 42.7257C122.063 42.7313 122.153 42.7305 122.241 42.7417L122.501 42.7941C122.679 42.8189 122.835 42.9033 123.003 42.9605C123.164 43.0305 123.311 43.1249 123.467 43.2069C123.614 43.2993 123.75 43.4069 123.892 43.5085C124.047 43.6225 124.149 43.7297 124.28 43.8489L124.466 44.0541C124.524 44.1265 124.573 44.2097 124.627 44.2881C124.666 44.3829 124.719 44.4689 124.731 44.5877C124.733 44.6473 124.747 44.7049 124.733 44.7661C124.716 44.8269 124.7 44.8921 124.672 44.9465C124.538 45.1761 124.329 45.2425 124.154 45.3049C123.972 45.3605 123.793 45.3797 123.615 45.3893C123.26 45.4037 122.913 45.3633 122.571 45.2849L122.645 44.9653C122.951 45.0501 123.224 45.1785 123.488 45.3401C123.552 45.3841 123.62 45.4197 123.679 45.4713C123.739 45.5217 123.804 45.5633 123.859 45.6213C123.974 45.7277 124.073 45.8529 124.155 45.9893C124.189 46.0625 124.225 46.1341 124.254 46.2081L124.301 46.4437C124.303 46.5229 124.295 46.6021 124.292 46.6801C124.294 46.7589 124.256 46.8309 124.24 46.9053C124.221 46.9801 124.198 47.0521 124.158 47.1173L124.054 47.3169C124.017 47.3817 123.965 47.4369 123.921 47.4965L123.785 47.6705C123.855 47.5405 123.931 47.4145 123.995 47.2853L124.072 47.0829C124.103 47.0177 124.115 46.9477 124.125 46.8773C124.131 46.8077 124.159 46.7397 124.148 46.6705C124.142 46.6017 124.141 46.5333 124.132 46.4669C124.111 46.4021 124.089 46.3389 124.072 46.2749L123.977 46.0989C123.664 45.6541 123.093 45.4213 122.569 45.2845L122.642 44.9649C122.956 45.0261 123.281 45.0481 123.595 45.0273C123.751 45.0173 123.908 44.9973 124.046 44.9525C124.179 44.9093 124.312 44.8421 124.344 44.7665C124.383 44.7009 124.354 44.5901 124.298 44.4673C124.256 44.4077 124.222 44.3449 124.176 44.2865L124.027 44.1165C123.913 44.0093 123.781 43.8733 123.665 43.7905C123.536 43.6945 123.413 43.5869 123.281 43.4973C123.142 43.4189 123.009 43.3257 122.866 43.2573C122.717 43.2045 122.579 43.1141 122.424 43.0825L122.195 43.0185C122.118 43.0029 122.039 42.9985 121.961 42.9877C121.803 42.9585 121.645 42.9825 121.486 42.9897C121.328 43.0145 121.171 43.0453 121.019 43.1017C120.867 43.1529 120.715 43.2149 120.573 43.2969C120.428 43.3729 120.292 43.4681 120.162 43.5709C120.033 43.6753 119.904 43.7825 119.793 43.9089Z" fill="#D34220"/>
<path d="M112.652 77.9085L109.208 59.8309L107.126 59.7441C107.336 64.0809 103.036 64.5173 101.361 64.6585C99.4889 64.5173 94.6821 64.0809 94.8917 59.7441L92.8093 59.8309L89.3477 77.5305C89.3477 77.5305 94.8049 79.6137 101.226 79.7873C107.733 79.7873 112.652 77.9085 112.652 77.9085Z" fill="white"/>
<path d="M94.2031 59.6289L98.3323 71.2653L100.37 70.3001L96.5627 59.6289H94.2031Z" fill="#FF5757"/>
<path d="M95.0156 59.6289L98.9808 70.9573L99.5656 70.6801L95.6976 59.6289H95.0156Z" fill="white"/>
<path d="M107.608 59.6289L103.479 71.2653L101.441 70.3001L105.249 59.6289H107.608Z" fill="#FF5757"/>
<path d="M106.792 59.6289L102.827 70.9573L102.242 70.6801L106.11 59.6289H106.792Z" fill="white"/>
<path d="M101.539 77.2174C103.776 76.8533 105.293 74.7454 104.929 72.5091C104.565 70.2729 102.457 68.7552 100.221 69.1193C97.9847 69.4834 96.467 71.5914 96.8311 73.8276C97.1952 76.0639 99.3032 77.5815 101.539 77.2174Z" fill="#FFA94D"/>
<path d="M98.0234 73.129C98.0234 74.7062 99.3018 75.9846 100.879 75.9846C102.456 75.9846 103.735 74.7062 103.735 73.129C103.735 71.5518 102.456 70.2734 100.879 70.2734C99.3018 70.2734 98.0234 71.5518 98.0234 73.129Z" fill="#E2822B"/>
<path d="M176.982 15.9126C180.174 16.145 182.054 18.2843 182.416 22.6327C182.604 18.6857 184.334 16.361 187.85 15.9128C184.658 15.6802 182.778 13.5409 182.416 9.1925C182.228 13.1395 180.498 15.4642 176.982 15.9126ZM187.85 10.3976C187.918 9.2384 188.546 8.55566 189.823 8.42408C188.664 8.35568 187.981 7.72748 187.85 6.4502C187.781 7.6094 187.153 8.29232 185.876 8.42408C187.035 8.4923 187.718 9.1205 187.85 10.3976ZM174.18 10.7108C175.339 10.7792 176.022 11.4074 176.153 12.6845C176.222 11.5253 176.85 10.8424 178.127 10.7108C176.968 10.6424 176.285 10.0142 176.153 8.7371C176.085 9.8963 175.457 10.5792 174.18 10.7108ZM176.153 19.6028C176.085 20.762 175.457 21.4447 174.18 21.5765C175.339 21.6447 176.022 22.2731 176.154 23.5502C176.222 22.391 176.85 21.7081 178.127 21.5765C176.968 21.5081 176.285 20.8799 176.154 19.6026L176.153 19.6028Z" fill="#22C55E"/>
<path d="M1.98229 90.9126C5.17369 91.145 7.05361 93.2843 7.41595 97.6327C7.60405 93.6857 9.33367 91.361 12.8498 90.9128C9.65839 90.6802 7.77847 88.5409 7.41595 84.1925C7.22803 88.1395 5.49823 90.4642 1.98229 90.9126ZM12.8498 85.3976C12.918 84.2384 13.5464 83.5557 14.8235 83.4241C13.6643 83.3557 12.9814 82.7275 12.8498 81.4502C12.7814 82.6094 12.1532 83.2923 10.8759 83.4241C12.0351 83.4923 12.718 84.1205 12.8498 85.3976ZM-0.820312 85.7108C0.338888 85.7792 1.02181 86.4074 1.15339 87.6845C1.22179 86.5253 1.84999 85.8424 3.12727 85.7108C1.96807 85.6424 1.28515 85.0142 1.15339 83.7371C1.08499 84.8963 0.456787 85.5792 -0.820312 85.7108ZM1.15339 94.6028C1.08517 95.762 0.456787 96.4447 -0.820312 96.5765C0.338888 96.6447 1.02181 97.2731 1.15357 98.5502C1.22179 97.391 1.85017 96.7081 3.12727 96.5765C1.96807 96.5081 1.28515 95.8799 1.15357 94.6026L1.15339 94.6028Z" fill="#22C55E"/>
<g clip-path="url(#clip2_734_8332)">
<path d="M12.0939 43.7102C14.5761 43.891 16.0382 45.5549 16.32 48.937C16.4663 45.8671 17.8116 44.059 20.5464 43.7104C18.0642 43.5295 16.602 41.8656 16.32 38.4835C16.1739 41.5534 14.8285 43.3615 12.0939 43.7102ZM20.5464 39.4208C20.5994 38.5192 21.0882 37.9882 22.0815 37.8858C21.1799 37.8326 20.6487 37.344 20.5464 36.3506C20.4932 37.2522 20.0046 37.7833 19.0111 37.8858C19.9127 37.9389 20.4439 38.4275 20.5464 39.4208ZM9.91406 39.6644C10.8157 39.7176 11.3468 40.2062 11.4492 41.1995C11.5024 40.2979 11.991 39.7667 12.9844 39.6644C12.0828 39.6112 11.5516 39.1226 11.4492 38.1293C11.396 39.0309 10.9074 39.562 9.91406 39.6644ZM11.4492 46.5804C11.3961 47.482 10.9074 48.013 9.91406 48.1155C10.8157 48.1685 11.3468 48.6573 11.4493 49.6506C11.5024 48.749 11.9911 48.2178 12.9844 48.1155C12.0828 48.0623 11.5516 47.5737 11.4493 46.5802L11.4492 46.5804Z" fill="#EF4444"/>
</g>
</g>
<defs>
<clipPath id="clip0_734_8332">
<rect width="200" height="200" fill="white"/>
</clipPath>
<clipPath id="clip1_734_8332">
<rect width="14" height="14" fill="white" transform="translate(186 74)"/>
</clipPath>
<clipPath id="clip2_734_8332">
<rect width="14" height="14" fill="white" transform="translate(9 36)"/>
</clipPath>
</defs>
</svg>
