<svg width="20" height="20" viewBox="0 0 20 20" fill="none" xmlns="http://www.w3.org/2000/svg">
<path fill-rule="evenodd" clip-rule="evenodd" d="M15.7131 10.9174C15.2727 13.6752 12.8813 15.7857 10 15.7857C6.80693 15.7857 4.21429 13.1931 4.21429 10C4.21429 7.11871 6.32479 4.72729 9.08264 4.28693C9.38604 4.23858 9.69278 4.21429 10 4.21429C13.1931 4.21429 15.7857 6.80693 15.7857 10C15.7857 10.3124 15.7606 10.6184 15.7131 10.9174ZM7.44593 6.29521C6.84564 6.70883 6.35488 7.26215 6.01589 7.90753C5.67691 8.55291 5.49986 9.27101 5.5 10C5.5 12.4834 7.51664 14.5 10 14.5C10.7287 14.5003 11.4465 14.3234 12.0917 13.9847C12.7369 13.6459 13.29 13.1554 13.7035 12.5554C12.8287 12.9007 11.872 12.9828 10.9511 12.7915C10.0302 12.6002 9.18539 12.1439 8.52047 11.4787C7.85556 10.8135 7.3996 9.96845 7.20868 9.04751C7.01777 8.12657 7.10023 7.1699 7.44593 6.29521ZM9.35714 1.64286C9.35714 1.47236 9.42487 1.30885 9.54543 1.18829C9.66599 1.06773 9.8295 1 10 1C10.1705 1 10.334 1.06773 10.4546 1.18829C10.5751 1.30885 10.6429 1.47236 10.6429 1.64286V2.92857C10.6429 3.09907 10.5751 3.26258 10.4546 3.38314C10.334 3.5037 10.1705 3.57143 10 3.57143C9.8295 3.57143 9.66599 3.5037 9.54543 3.38314C9.42487 3.26258 9.35714 3.09907 9.35714 2.92857V1.64286ZM15.4546 3.63636C15.5143 3.57667 15.5852 3.52933 15.6632 3.49702C15.7412 3.46472 15.8247 3.4481 15.9091 3.4481C15.9936 3.4481 16.0771 3.46472 16.1551 3.49702C16.2331 3.52933 16.304 3.57667 16.3636 3.63636C16.4233 3.69604 16.4707 3.7669 16.503 3.84488C16.5353 3.92287 16.5519 4.00645 16.5519 4.09086C16.5519 4.17527 16.5353 4.25885 16.503 4.33683C16.4707 4.41481 16.4233 4.48567 16.3636 4.54536L15.4546 5.45436C15.3334 5.57146 15.171 5.63625 15.0025 5.63479C14.8339 5.63333 14.6727 5.56572 14.5535 5.44653C14.4343 5.32734 14.3667 5.1661 14.3652 4.99754C14.3637 4.82899 14.4285 4.6666 14.5456 4.54536L15.4546 3.63636ZM18.3571 9.35714C18.5276 9.35714 18.6912 9.42487 18.8117 9.54543C18.9323 9.66599 19 9.8295 19 10C19 10.1705 18.9323 10.334 18.8117 10.4546C18.6912 10.5751 18.5276 10.6429 18.3571 10.6429H17.0714C16.9009 10.6429 16.7374 10.5751 16.6169 10.4546C16.4963 10.334 16.4286 10.1705 16.4286 10C16.4286 9.8295 16.4963 9.66599 16.6169 9.54543C16.7374 9.42487 16.9009 9.35714 17.0714 9.35714H18.3571ZM16.3636 15.4546C16.4842 15.5752 16.5519 15.7387 16.5519 15.9091C16.5519 16.0796 16.4842 16.2431 16.3636 16.3636C16.2431 16.4842 16.0796 16.5519 15.9091 16.5519C15.7387 16.5519 15.5752 16.4842 15.4546 16.3636L14.5456 15.4546C14.4285 15.3334 14.3637 15.171 14.3652 15.0025C14.3667 14.8339 14.4343 14.6727 14.5535 14.5535C14.6727 14.4343 14.8339 14.3667 15.0025 14.3652C15.171 14.3637 15.3334 14.4285 15.4546 14.5456L16.3636 15.4546ZM10.6429 18.3571C10.6429 18.5276 10.5751 18.6912 10.4546 18.8117C10.334 18.9323 10.1705 19 10 19C9.8295 19 9.66599 18.9323 9.54543 18.8117C9.42487 18.6912 9.35714 18.5276 9.35714 18.3571V17.0714C9.35714 16.9009 9.42487 16.7374 9.54543 16.6169C9.66599 16.4963 9.8295 16.4286 10 16.4286C10.1705 16.4286 10.334 16.4963 10.4546 16.6169C10.5751 16.7374 10.6429 16.9009 10.6429 17.0714V18.3571ZM4.54536 16.3636C4.48567 16.4233 4.41481 16.4707 4.33683 16.503C4.25885 16.5353 4.17527 16.5519 4.09086 16.5519C4.00645 16.5519 3.92287 16.5353 3.84488 16.503C3.7669 16.4707 3.69604 16.4233 3.63636 16.3636C3.57667 16.304 3.52933 16.2331 3.49702 16.1551C3.46472 16.0771 3.4481 15.9936 3.4481 15.9091C3.4481 15.8247 3.46472 15.7412 3.49702 15.6632C3.52933 15.5852 3.57667 15.5143 3.63636 15.4546L4.54536 14.5456C4.6666 14.4285 4.82899 14.3637 4.99754 14.3652C5.1661 14.3667 5.32734 14.4343 5.44653 14.5535C5.56572 14.6727 5.63333 14.8339 5.63479 15.0025C5.63625 15.171 5.57146 15.3334 5.45436 15.4546L4.54536 16.3636ZM1.64286 10.6429C1.47236 10.6429 1.30885 10.5751 1.18829 10.4546C1.06773 10.334 1 10.1705 1 10C1 9.8295 1.06773 9.66599 1.18829 9.54543C1.30885 9.42487 1.47236 9.35714 1.64286 9.35714H2.92857C3.09907 9.35714 3.26258 9.42487 3.38314 9.54543C3.5037 9.66599 3.57143 9.8295 3.57143 10C3.57143 10.1705 3.5037 10.334 3.38314 10.4546C3.26258 10.5751 3.09907 10.6429 2.92857 10.6429H1.64286ZM3.63636 4.54536C3.57667 4.48567 3.52933 4.41481 3.49702 4.33683C3.46472 4.25885 3.4481 4.17527 3.4481 4.09086C3.4481 4.00645 3.46472 3.92287 3.49702 3.84488C3.52933 3.7669 3.57667 3.69604 3.63636 3.63636C3.69604 3.57667 3.7669 3.52933 3.84488 3.49702C3.92287 3.46472 4.00645 3.4481 4.09086 3.4481C4.17527 3.4481 4.25885 3.46472 4.33683 3.49702C4.41481 3.52933 4.48567 3.57667 4.54536 3.63636L5.45436 4.54536C5.57146 4.6666 5.63625 4.82899 5.63479 4.99754C5.63333 5.1661 5.56572 5.32734 5.44653 5.44653C5.32734 5.56572 5.1661 5.63333 4.99754 5.63479C4.82899 5.63625 4.6666 5.57146 4.54536 5.45436L3.63636 4.54536Z" fill="#4A90EB"/>
</svg>
