<svg width="136" height="147" viewBox="0 0 136 147" fill="none" xmlns="http://www.w3.org/2000/svg">
<g filter="url(#filter0_f_695_15865)">
<ellipse cx="67.7794" cy="114.336" rx="45.5215" ry="10.6646" fill="#123A62"/>
</g>
<path d="M68.3691 122.719C99.544 122.719 124.816 97.2462 124.816 65.8239C124.816 34.4015 99.544 8.92871 68.3691 8.92871C37.1942 8.92871 11.9219 34.4015 11.9219 65.8239C11.9219 97.2462 37.1942 122.719 68.3691 122.719Z" fill="#1B2A50"/>
<path d="M96.3603 16.3691H39.5212C37.4063 16.3691 35.378 17.216 33.8825 18.7233C32.387 20.2306 31.5469 22.275 31.5469 24.4067V89.6898H31.6443V112.615C31.6443 113.5 31.8693 114.37 32.2978 115.143C32.7264 115.916 33.3443 116.565 34.0925 117.028C34.8407 117.492 35.6942 117.754 36.5717 117.791C37.4491 117.827 38.3212 117.636 39.1047 117.236L65.3225 103.84C66.0368 103.479 66.8249 103.291 67.624 103.291C68.423 103.291 69.2111 103.479 69.9254 103.84L96.9495 117.335C97.7335 117.726 98.6037 117.909 99.4777 117.867C100.352 117.825 101.2 117.558 101.944 117.093C102.687 116.627 103.3 115.978 103.724 115.207C104.149 114.436 104.371 113.568 104.37 112.686L104.299 89.6898V24.3844C104.293 22.2627 103.455 20.2295 101.968 18.728C100.481 17.2265 98.4652 16.3786 96.3603 16.3691Z" fill="#274CA6"/>
<path d="M132.002 37.5124C132.003 39.2499 131.378 40.9288 130.243 42.236C129.107 43.5432 127.539 44.3895 125.83 44.6171C125.517 44.6573 125.203 44.6779 124.888 44.6789H101.237C100.724 44.6777 100.212 44.6351 99.7059 44.5515C97.5319 44.1734 95.5736 42.9982 94.2078 41.252C92.8419 39.5059 92.1652 37.3122 92.3078 35.0933C92.4503 32.8743 93.4022 30.787 94.9801 29.233C96.558 27.679 98.6504 26.7682 100.855 26.6759C101.997 24.1757 103.915 22.1177 106.319 20.8124C108.724 19.5071 111.484 19.0252 114.184 19.4395C116.884 19.8537 119.377 21.1417 121.287 23.109C123.197 25.0763 124.42 27.6164 124.773 30.346H124.88C125.815 30.3445 126.74 30.5287 127.604 30.8882C128.468 31.2476 129.254 31.7753 129.915 32.4409C130.576 33.1065 131.101 33.897 131.459 34.7673C131.817 35.6375 132.002 36.5703 132.002 37.5124Z" fill="url(#paint0_linear_695_15865)"/>
<path d="M11.7344 23.4761C11.7344 24.909 12.2991 26.2832 13.3044 27.2964C14.3096 28.3096 15.673 28.8789 17.0946 28.8789H34.8907C36.6442 28.8695 38.3247 28.1705 39.5743 26.9307C40.8239 25.6908 41.5439 24.0082 41.5808 22.2413C41.6177 20.4743 40.9687 18.7626 39.772 17.4709C38.5753 16.1791 36.9255 15.4093 35.1741 15.3255C34.3102 13.4501 32.8662 11.9078 31.0587 10.93C29.2512 9.95215 27.1778 9.59167 25.1498 9.90264C23.1217 10.2136 21.2485 11.1792 19.8112 12.6546C18.374 14.1299 17.4503 16.0354 17.1789 18.0848H17.0985C15.6782 18.0838 14.3155 18.651 13.3098 19.6618C12.304 20.6726 11.7374 22.0445 11.7344 23.4761Z" fill="url(#paint1_linear_695_15865)"/>
<g filter="url(#filter1_f_695_15865)">
<ellipse cx="70.2923" cy="76.9737" rx="25.6595" ry="5.5421" fill="#76A3D0"/>
</g>
<path fill-rule="evenodd" clip-rule="evenodd" d="M68.9997 46.4569C70.0491 44.2941 71.686 42.4703 73.7232 41.1941C75.7605 39.9179 78.1157 39.2408 80.5197 39.2402C87.5853 39.2402 93.3197 44.9746 93.3197 52.0402C93.3197 59.5103 89.5206 66.3609 84.9101 71.8674C78.1363 79.9596 69.6678 85.1334 69.6678 85.1334C69.4662 85.2551 69.2352 85.3194 68.9997 85.3194C68.7642 85.3194 68.5331 85.2551 68.3315 85.1334C68.3315 85.1334 59.863 79.9596 53.0893 71.8674C48.4787 66.3609 44.6797 59.5103 44.6797 52.0402C44.6797 44.9746 50.4141 39.2402 57.4797 39.2402C59.8836 39.2408 62.2389 39.9179 64.2761 41.1941C66.3133 42.4703 67.9503 44.2941 68.9997 46.4569ZM80.5197 48.2002C81.5381 48.2002 82.5148 48.6048 83.235 49.3249C83.9551 50.0451 84.3597 51.0218 84.3597 52.0402C84.3597 52.3797 84.4945 52.7053 84.7346 52.9453C84.9746 53.1854 85.3002 53.3202 85.6397 53.3202C85.9792 53.3202 86.3047 53.1854 86.5448 52.9453C86.7848 52.7053 86.9197 52.3797 86.9197 52.0402C86.9197 50.3428 86.2454 48.715 85.0452 47.5148C83.8449 46.3145 82.2171 45.6402 80.5197 45.6402C80.1802 45.6402 79.8546 45.7751 79.6146 46.0151C79.3745 46.2552 79.2397 46.5808 79.2397 46.9202C79.2397 47.2597 79.3745 47.5853 79.6146 47.8253C79.8546 48.0654 80.1802 48.2002 80.5197 48.2002Z" fill="#4A90EB"/>
<path d="M7.00001 92.5535C6.99916 94.2838 7.62244 95.9553 8.75372 97.2568C9.88501 98.5582 11.4471 99.4007 13.149 99.6273C13.4586 99.6707 13.7707 99.6926 14.0832 99.6929H37.6301C38.1432 99.6921 38.6554 99.6495 39.1616 99.5655C41.3386 99.2003 43.3034 98.0329 44.6747 96.29C46.046 94.547 46.7261 92.3528 46.583 90.133C46.4399 87.9132 45.4838 85.8262 43.9003 84.2768C42.3167 82.7274 40.2186 81.8261 38.013 81.7478C36.874 79.2598 34.9636 77.2122 32.5697 75.9136C30.1757 74.6151 27.4279 74.1359 24.7403 74.5483C22.0527 74.9606 19.5708 76.2422 17.6687 78.2C15.7665 80.1577 14.5471 82.6855 14.1943 85.4025H14.0832C13.1521 85.4025 12.2301 85.5875 11.3699 85.947C10.5098 86.3065 9.72846 86.8335 9.07057 87.4976C8.41268 88.1618 7.89118 88.9502 7.53589 89.8178C7.1806 90.6853 6.9985 91.6149 7.00001 92.5535Z" fill="url(#paint2_linear_695_15865)"/>
<path d="M113.421 54.51C113.108 53.2703 114.243 52.1532 115.465 52.4993L116.758 52.8656C117.98 53.2117 118.372 54.761 117.463 55.6545L116.502 56.6002C115.594 57.4938 114.067 57.0614 113.753 55.822L113.421 54.51Z" fill="#99CAF7"/>
<path d="M19.3352 54.51C19.0217 53.2703 20.1573 52.1532 21.3792 52.4993L22.6724 52.8656C23.8941 53.2117 24.2858 54.761 23.3775 55.6545L22.4162 56.6002C21.5078 57.4938 19.9807 57.0614 19.6671 55.822L19.3352 54.51Z" fill="#99CAF7"/>
<path d="M49.8982 6.92348C50.3158 5.1796 52.7968 5.1796 53.2144 6.92348C53.3634 7.54551 53.8489 8.03205 54.4704 8.18327C56.218 8.60849 56.218 11.0967 54.4704 11.522C53.8489 11.6732 53.3634 12.1597 53.2144 12.7818C52.7968 14.5256 50.3158 14.5256 49.8982 12.7818C49.7492 12.1597 49.2637 11.6732 48.6422 11.522C46.8946 11.0967 46.8946 8.60849 48.6422 8.18327C49.2637 8.03205 49.7492 7.54551 49.8982 6.92348Z" fill="#99CAF7"/>
<path d="M70.292 110.852C71.1717 110.852 71.9023 111.574 71.9023 112.484C71.9022 113.395 71.1716 114.116 70.292 114.116C69.4126 114.116 68.6828 113.395 68.6826 112.484C68.6826 111.574 69.4125 110.852 70.292 110.852Z" stroke="#99CAF7" stroke-width="2.48287"/>
<path d="M111.808 96.8288C112.226 95.0849 114.707 95.0849 115.125 96.8288C115.274 97.4508 115.759 97.9373 116.381 98.0885C118.128 98.5138 118.128 101.002 116.381 101.427C115.759 101.578 115.274 102.065 115.125 102.687C114.707 104.431 112.226 104.431 111.808 102.687C111.659 102.065 111.174 101.578 110.552 101.427C108.805 101.002 108.805 98.5138 110.552 98.0885C111.174 97.9373 111.659 97.4508 111.808 96.8288Z" fill="#99CAF7"/>
<path d="M116.315 78.0098C117.195 78.0098 117.926 78.7318 117.926 79.6426C117.926 80.5532 117.195 81.2744 116.315 81.2744C115.436 81.2742 114.706 80.553 114.706 79.6426C114.706 78.732 115.436 78.01 116.315 78.0098Z" stroke="#99CAF7" stroke-width="2.48287"/>
<defs>
<filter id="filter0_f_695_15865" x="0.484818" y="81.8979" width="134.589" height="64.8751" filterUnits="userSpaceOnUse" color-interpolation-filters="sRGB">
<feFlood flood-opacity="0" result="BackgroundImageFix"/>
<feBlend mode="normal" in="SourceGraphic" in2="BackgroundImageFix" result="shape"/>
<feGaussianBlur stdDeviation="10.8865" result="effect1_foregroundBlur_695_15865"/>
</filter>
<filter id="filter1_f_695_15865" x="23.9422" y="50.7411" width="92.7014" height="52.4651" filterUnits="userSpaceOnUse" color-interpolation-filters="sRGB">
<feFlood flood-opacity="0" result="BackgroundImageFix"/>
<feBlend mode="normal" in="SourceGraphic" in2="BackgroundImageFix" result="shape"/>
<feGaussianBlur stdDeviation="10.3453" result="effect1_foregroundBlur_695_15865"/>
</filter>
<linearGradient id="paint0_linear_695_15865" x1="124.465" y1="55.6264" x2="104.47" y2="19.4281" gradientUnits="userSpaceOnUse">
<stop stop-color="#274CA6"/>
<stop offset="1" stop-color="#4A90EB"/>
</linearGradient>
<linearGradient id="paint1_linear_695_15865" x1="35.918" y1="37.1098" x2="20.8822" y2="9.89832" gradientUnits="userSpaceOnUse">
<stop stop-color="#274CA6"/>
<stop offset="1" stop-color="#4A90EB"/>
</linearGradient>
<linearGradient id="paint2_linear_695_15865" x1="39.0865" y1="110.599" x2="19.177" y2="74.5206" gradientUnits="userSpaceOnUse">
<stop stop-color="#274CA6"/>
<stop offset="1" stop-color="#4A90EB"/>
</linearGradient>
</defs>
</svg>
