<svg width="206" height="177" viewBox="0 0 206 177" fill="none" xmlns="http://www.w3.org/2000/svg">
<path d="M49.1278 34.695C54.8758 35.8875 60.7278 36.223 66.4958 35.44C75.3863 34.2335 87.1463 30.866 95.3253 21.841C110.135 5.5 136.958 -10.9765 153.877 9.85C170.795 30.676 164.883 54.3505 180.641 59.648C196.399 64.9455 212.039 84.2755 200.402 109.588C186.465 139.905 159.32 120.047 174.608 157.411C182.425 176.517 131.549 179.233 106.409 165.741C83.3693 153.376 60.6573 185.934 39.0608 165.077C17.4643 144.219 50.4468 118.505 34.0378 104.497C17.6283 90.488 5.35378 81.8955 13.1743 56.936C19.0398 38.2165 40.2708 32.857 49.1278 34.695Z" fill="#37476D"/>
<path d="M192.693 175.279C191.233 172.81 187.6 163.561 203.416 149.249C203.925 148.788 204.742 149.076 204.845 149.755C205.562 154.489 206.594 169.01 193.83 175.604C193.425 175.813 192.925 175.672 192.693 175.279Z" fill="#E1ECFA"/>
<path d="M203.546 151.653C203.546 151.653 201.746 158.448 198.151 163.855C194.557 169.262 193.344 175.438 193.344 175.438" fill="#E1ECFA"/>
<path d="M193.618 175.011C194.408 172.319 195.629 162.678 177.194 152.911C176.601 152.597 175.895 153.066 175.961 153.734C176.42 158.395 178.932 172.409 192.618 175.592C193.052 175.693 193.492 175.44 193.618 175.011Z" fill="#E1ECFA"/>
<path d="M177.648 155.222C177.648 155.222 180.989 161.231 185.696 165.493C190.404 169.756 193.038 175.318 193.038 175.318" fill="#E1ECFA"/>
<path d="M15.9899 175.417C17.7634 172.418 22.1759 161.185 2.96591 143.802C2.34741 143.242 1.35491 143.591 1.23041 144.416C0.359914 150.166 -0.894086 167.802 14.6089 175.811C15.1014 176.066 15.7074 175.894 15.9899 175.417Z" fill="#E1ECFA"/>
<path d="M2.80859 146.722C2.80859 146.722 4.9951 154.975 9.3611 161.543C13.7266 168.11 15.2001 175.611 15.2001 175.611" fill="#E1ECFA"/>
<path d="M17.4055 175.326C16.615 172.634 15.394 162.993 33.829 153.226C34.4225 152.912 35.128 153.381 35.062 154.049C34.6035 158.71 32.0915 172.724 18.4055 175.907C17.971 176.008 17.5315 175.755 17.4055 175.326Z" fill="#E1ECFA"/>
<path d="M33.3744 155.536C33.3744 155.536 30.0339 161.546 25.3264 165.808C20.6189 170.07 17.9844 175.633 17.9844 175.633" fill="#E1ECFA"/>
<path d="M153.83 121.022L161.318 107.537L168.807 94.052C169.7 92.443 171.934 92.443 172.827 94.052L180.316 107.537L187.804 121.022C188.698 122.631 187.581 124.642 185.794 124.642H179.63L179.404 172.401L161.917 171.802V124.642H155.839C154.053 124.642 152.937 122.631 153.83 121.022Z" fill="#E1ECFA"/>
<path d="M40.3926 51.0099L47.8811 38.0389L55.3701 25.0679C56.2636 23.5204 58.4971 23.5204 59.3906 25.0679L66.8796 38.0389L74.3681 51.0099C75.2616 52.5574 74.1446 54.4914 72.3581 54.4914H66.2366L66.1716 161.421H48.5236V54.4914H42.4026C40.6161 54.4919 39.4991 52.5574 40.3926 51.0099Z" fill="#E1ECFA"/>
<path d="M79.0605 104.979L86.549 91.4935L94.038 78.0085C94.9315 76.3995 97.165 76.3995 98.0585 78.0085L105.548 91.4935L113.036 104.979C113.93 106.588 112.813 108.599 111.026 108.599H104.862L104.546 175.463C104.546 176.982 101.218 173.791 99.757 173.791L90.491 173.235C89.03 173.235 87.149 176.533 87.149 175.014V108.599H81.071C79.284 108.599 78.167 106.588 79.0605 104.979Z" fill="#E1ECFA"/>
<path d="M173.268 52.3292L173.645 40.0327L172.97 40.9707L172.499 52.3482L172.514 52.3597C171.101 52.8077 170.86 55.2607 170.821 56.1917C170.812 56.3922 170.959 56.5657 171.158 56.5882L172.312 56.7207C172.508 56.7432 172.689 56.6127 172.729 56.4197L172.866 55.7632L173.189 56.6137C173.24 56.7467 173.361 56.8407 173.502 56.8572L174.164 56.9332C174.383 56.9582 174.578 56.7957 174.588 56.5757C174.642 55.5122 174.645 52.6912 173.268 52.3292Z" fill="#F0C66C"/>
<path d="M140.229 11.6394L172.403 15.7574C172.903 15.8214 173.334 16.1384 173.545 16.5964L186.611 44.9839C187.097 46.0389 186.218 47.2114 185.069 47.0409L154.032 42.4399C153.564 42.3704 153.159 42.0789 152.944 41.6569L138.74 13.7529C138.208 12.7059 139.064 11.4904 140.229 11.6394Z" fill="#264256"/>
<path d="M141.5 89.8516H137.535V105.058H141.5V89.8516Z" fill="#F0C66C"/>
<path d="M149.789 116.931H129.241C128.631 116.931 128.137 116.437 128.137 115.827V105.497C128.137 104.887 128.631 104.392 129.241 104.392H149.789C150.399 104.392 150.893 104.887 150.893 105.497V115.827C150.894 116.437 150.399 116.931 149.789 116.931Z" fill="#E69724"/>
<path d="M179.308 48.8896C175.643 42.6446 168.711 44.8726 165.498 46.3621L166.541 39.2671C166.879 36.9706 165.117 34.9026 162.796 34.8716L118.549 34.2821C116.132 34.2501 114.21 36.3026 114.401 38.7121L114.998 46.2441C111.685 44.7621 105.019 42.8066 101.449 48.8896C96.8942 56.6501 108.104 78.5951 121.82 73.0436C123.19 74.5911 124.759 75.9601 126.495 77.1006C126.534 77.1256 126.567 77.1466 126.607 77.1696C126.963 77.3786 128.98 78.5516 130.156 79.0626C130.224 79.0921 130.281 79.1206 130.344 79.1581C133.888 81.2646 138.495 84.7271 137.697 88.1446L141.61 88.1226C141.61 88.1226 140.335 83.1676 147.97 80.0116C148.471 79.8481 149.502 79.4456 149.729 79.3566C149.76 79.3441 149.788 79.3326 149.819 79.3196C153.173 77.8856 156.13 75.6476 158.429 72.8231C172.375 79.1366 183.92 56.7456 179.308 48.8896ZM105.926 51.5926C108.333 47.4931 112.636 48.3206 115.243 49.3301L116.049 59.4931C116.353 63.3216 117.586 66.8811 119.516 69.9616C110.058 72.0096 102.719 57.0566 105.926 51.5926ZM160.516 69.7706C161.849 67.4281 162.784 64.8111 163.2 61.9886L165.033 49.5261C167.559 48.4471 172.27 47.2291 174.831 51.5926C178.12 57.1956 170.32 72.7756 160.516 69.7706Z" fill="#F0C66C"/>
<path d="M114.609 41.3442H166.015L165.738 44.7247H114.877L114.609 41.3442Z" fill="#E69724"/>
<path d="M143.555 91.558H135.477C135.205 91.558 134.984 91.3375 134.984 91.0655V88.637C134.984 88.365 135.205 88.1445 135.477 88.1445H143.555C143.827 88.1445 144.047 88.365 144.047 88.637V91.0655C144.047 91.338 143.827 91.558 143.555 91.558Z" fill="#E69724"/>
<path d="M150.224 21.6236L143.051 31.5956C142.433 32.4551 142.392 33.6016 142.955 34.4986C145.356 38.3251 152.597 48.1576 164.628 50.1386C165.594 50.2976 166.566 49.8766 167.138 49.0816L174.41 38.9716C174.975 38.1871 175.061 37.1571 174.631 36.2916C172.751 32.5051 166.555 22.5401 152.689 20.5601C151.736 20.4241 150.786 20.8421 150.224 21.6236Z" fill="#315782"/>
<path d="M75.1612 148.548L75.0747 151.344L71.4688 151.326L71.4827 148.529L75.1612 148.548Z" fill="#F3D6C1"/>
<path d="M71.4671 151.326L74.9941 151.343C75.0476 151.344 75.0986 151.349 75.1506 151.362C75.6541 151.482 78.5206 152.205 81.0446 153.601C81.6721 153.948 81.4151 154.908 80.6976 154.904L72.1456 154.862C71.7611 154.86 71.4511 154.547 71.4531 154.162L71.4671 151.326Z" fill="#2F526E"/>
<path d="M48.9615 154.348L48.8755 157.144L45.2695 157.126L45.2835 154.33L48.9615 154.348Z" fill="#F3D6C1"/>
<path d="M45.2684 157.126L48.7954 157.143C48.8489 157.144 48.8999 157.149 48.9519 157.162C49.4554 157.282 52.3219 158.005 54.8459 159.401C55.4734 159.748 55.2164 160.708 54.4989 160.704L45.9464 160.662C45.5619 160.66 45.2519 160.347 45.2539 159.962L45.2684 157.126Z" fill="#2F526E"/>
<path d="M55.2649 117L51.7844 135.214L44.8124 154.898C44.8124 154.898 44.4604 155.545 45.4284 155.849H49.2199C49.2199 155.849 49.7594 155.73 50.0074 155.263L57.8169 140.551L62.3379 125.755L72.7264 133.63L70.4124 149.043C70.4124 149.043 70.4389 149.483 71.0514 149.483C71.6639 149.483 75.2659 149.483 75.2659 149.483C75.2659 149.483 75.7139 149.353 75.8209 148.903L79.8769 131.911C79.8784 131.905 79.8809 131.898 79.8834 131.892C79.9044 131.834 79.9799 131.508 79.3654 130.757C78.6829 129.923 69.5339 118.74 69.5339 118.74L55.2649 117Z" fill="#F0C66C"/>
<path d="M81.0386 98.4443L83.7236 99.8733L91.8496 93.7388C91.8496 93.7388 91.0686 92.3508 91.2481 91.2303C91.4276 90.1098 91.7576 89.9048 91.9851 90.0898C92.2131 90.2748 92.1861 91.6198 92.6716 91.8758C93.1571 92.1318 93.3691 91.8543 93.9441 90.3343C94.5186 88.8148 94.7711 88.1153 95.2486 88.0983C95.7261 88.0813 95.6716 89.1533 95.6716 89.1533C95.6716 89.1533 96.0911 88.9408 96.4211 89.1468C96.7511 89.3533 96.6171 89.7798 96.6171 89.7798C96.6171 89.7798 96.8916 89.6758 97.2396 89.9568C97.5876 90.2378 97.3731 90.7248 97.3731 90.7248C97.3731 90.7248 97.9701 90.4803 97.9721 91.3588C97.9741 92.2373 97.5521 95.0828 93.9646 95.7663C93.9646 95.7663 85.4701 105.96 84.1276 105.948C82.7856 105.937 78.9141 104.617 78.9141 104.617L81.0386 98.4443Z" fill="#F3D6C1"/>
<path d="M56.3589 120.031H53.9974C53.8954 119.16 53.5674 117.802 52.5429 116.722C51.5309 115.656 50.1034 115.115 48.3014 115.115C45.2119 115.115 43.7244 116.78 43.0204 118.177C42.6864 118.84 42.5014 119.501 42.3974 120.031H39.9504C39.2204 120.031 38.6289 120.623 38.6289 121.352V131.397C38.6289 132.127 39.2209 132.719 39.9504 132.719H56.3589C57.0889 132.719 57.6804 132.127 57.6804 131.397V121.352C57.6804 120.623 57.0889 120.031 56.3589 120.031ZM48.3009 116.895C49.5899 116.895 50.5799 117.245 51.2424 117.938C51.8619 118.585 52.1059 119.426 52.2014 120.031H44.2034C44.5174 118.756 45.4624 116.895 48.3009 116.895Z" fill="#315780"/>
<path d="M54.6808 102.353L51.7028 102.972L49.3783 112.884C49.3783 112.884 50.8663 113.452 51.4448 114.428C52.0233 115.405 52.0218 116.278 51.7388 116.053C51.5658 115.915 51.3173 115.786 50.9698 115.623C50.4993 115.402 50.2503 115.1 49.9393 115.165C49.4023 115.279 48.8593 115.606 49.4693 116.661C50.0613 117.685 51.6088 117.768 51.2728 118.108C50.4178 118.972 49.5818 118.098 49.5818 118.098C49.5818 118.098 49.3663 118.581 48.9808 118.634C48.5953 118.686 48.3418 118.033 48.3418 118.033C48.3418 118.033 48.1128 118.457 47.6653 118.463C47.2183 118.47 47.0263 117.864 47.0263 117.864C47.0263 117.864 46.4343 118.585 45.8708 117.911C45.3073 117.237 44.1338 115.498 46.4548 112.678C46.4548 112.678 46.4668 99.4085 47.5058 98.559C48.5448 97.7095 52.3653 96.2485 52.3653 96.2485L54.6808 102.353Z" fill="#F3D6C1"/>
<path d="M54.8447 117.65C56.7927 118.419 64.2292 121.095 70.2892 119.746C70.5527 119.688 70.7387 119.452 70.7432 119.183C70.7747 117.277 70.9767 109.934 72.2437 107.505C73.1842 105.702 73.7357 104.533 74.0097 103.929C74.1367 103.648 74.4567 103.516 74.7457 103.622L79.1062 105.216C79.4122 105.328 79.7507 105.17 79.8612 104.864L81.9402 99.1031C82.0457 98.8106 81.9062 98.4876 81.6212 98.3641C80.0242 97.6716 74.9522 95.5701 70.9042 94.9631C66.0847 94.2401 64.3667 89.0961 51.3292 96.2916C51.0937 96.4216 50.9917 96.7111 51.0947 96.9591L53.3392 102.356C53.4612 102.65 53.7947 102.793 54.0917 102.68L57.8152 101.26C58.2647 101.089 58.7187 101.501 58.5917 101.965L54.4967 116.949C54.4177 117.239 54.5657 117.54 54.8447 117.65Z" fill="#315782"/>
<path d="M74.5865 81.5698C74.5865 81.5698 74.6905 82.7123 75.9115 85.1393C77.158 87.6173 76.7585 91.2898 74.8365 92.0093C73.34 92.5693 72.2685 92.2418 72.2685 92.2418L71.497 96.1583L66.7005 94.2788L67.2265 90.9533L66.2695 83.4463L74.5865 81.5698Z" fill="#F3D6C1"/>
<path d="M75.9173 79.2814C75.9568 78.9119 75.6048 78.6119 75.2498 78.7209C74.5133 78.9464 73.0818 79.1554 70.5003 78.8104C65.5693 78.1514 63.0298 82.4169 63.0668 85.5079C63.0983 88.1574 65.9333 89.6519 66.8273 90.7634C67.0203 91.0029 67.3843 91.0079 67.5998 90.7884C68.1093 90.2699 68.8208 89.4944 68.8443 89.1879C68.8813 88.7094 67.4828 88.6359 67.4093 87.2009C67.3358 85.7659 69.2493 85.5819 69.8013 86.6859C70.3533 87.7899 70.0958 83.9629 71.1263 83.5949C72.0743 83.2554 75.5793 82.4524 75.9173 79.2814Z" fill="#2F5482"/>
<path d="M66.8938 93.519C66.8938 93.519 65.7143 96.407 68.6553 97.499C71.5963 98.591 71.6863 95.097 71.6863 95.097L66.8938 93.519Z" fill="#F3D6C1"/>
<path d="M87.5391 154.099C87.5391 154.529 87.8606 154.877 88.2571 154.877H157.262C162.38 154.877 166.529 151.161 166.529 146.578V143.872C166.529 139.289 162.38 135.574 157.262 135.574H88.2571C87.8606 135.574 87.5391 135.922 87.5391 136.351V136.492C87.5391 136.919 87.8571 137.266 88.2516 137.269L89.1531 137.276L89.2041 153.322L88.2571 153.321C87.8606 153.321 87.5391 153.67 87.5391 154.099Z" fill="#315782"/>
<path d="M135.418 137.21L89.0898 137.276L89.1408 153.322H135.897C138.302 153.322 140.251 151.213 140.251 148.611V142.439C140.251 139.551 138.087 137.21 135.418 137.21Z" fill="#F9ECDC"/>
<path d="M152.005 146.036V144.414C152.005 143.934 151.617 143.546 151.137 143.546H144.477C143.998 143.546 143.609 143.934 143.609 144.414V146.036C143.609 146.515 143.998 146.904 144.477 146.904H151.137C151.617 146.904 152.005 146.515 152.005 146.036Z" fill="#E69724"/>
<path d="M137.664 139.712H89.2031" stroke="#F0C66C" stroke-miterlimit="10" stroke-linecap="round"/>
<path d="M134.169 142.131H89.2031" stroke="#F0C66C" stroke-miterlimit="10" stroke-linecap="round"/>
<path d="M137.664 146.511H89.2031" stroke="#F0C66C" stroke-miterlimit="10" stroke-linecap="round"/>
<path d="M138.424 151.058H89.2031" stroke="#F0C66C" stroke-miterlimit="10" stroke-linecap="round"/>
<path d="M185.756 174.749C185.756 175.211 185.242 175.585 184.607 175.585H74.1402C65.9467 175.585 59.3047 171.589 59.3047 166.659V163.749C59.3047 158.819 65.9467 154.822 74.1402 154.822H184.607C185.242 154.822 185.756 155.197 185.756 155.659V155.81C185.756 156.27 185.247 156.643 184.615 156.647L183.172 156.654L183.091 173.913L184.607 173.913C185.242 173.912 185.756 174.287 185.756 174.749Z" fill="#E69724"/>
<path d="M108.604 156.582L183.19 156.654L183.109 173.913H108.98C104.78 173.913 101.375 171.435 101.375 168.379V161.843C101.375 158.937 104.612 156.582 108.604 156.582Z" fill="#F9ECDC"/>
<path d="M90.4919 170.759H88.0654C87.3649 170.759 86.7969 170.191 86.7969 169.491V162.245C86.7969 161.544 87.3649 160.976 88.0654 160.976H90.4919C91.1924 160.976 91.7604 161.544 91.7604 162.245V169.491C91.7604 170.191 91.1924 170.759 90.4919 170.759Z" fill="#315780"/>
<path d="M82.8864 170.803H80.4599C79.7594 170.803 79.1914 170.235 79.1914 169.534V162.288C79.1914 161.588 79.7594 161.02 80.4599 161.02H82.8864C83.5869 161.02 84.1549 161.588 84.1549 162.288V169.534C84.1549 170.235 83.5869 170.803 82.8864 170.803Z" fill="#315780"/>
<path d="M109.691 159.273H183.09" stroke="#F0C66C" stroke-miterlimit="10" stroke-linecap="round"/>
<path d="M119.715 165.077H183.135" stroke="#F0C66C" stroke-miterlimit="10" stroke-linecap="round"/>
<path d="M103.781 167.251H183.09" stroke="#F0C66C" stroke-miterlimit="10" stroke-linecap="round"/>
<path d="M107.047 172.142H183.091" stroke="#F0C66C" stroke-miterlimit="10" stroke-linecap="round"/>
<path d="M171.52 134.986C171.52 135.404 171.208 135.744 170.824 135.744H103.957C98.9971 135.744 94.9766 132.123 94.9766 127.656V125.019C94.9766 120.553 98.9971 116.932 103.957 116.932H170.824C171.208 116.932 171.519 117.271 171.519 117.69V117.827C171.519 118.243 171.211 118.581 170.829 118.585L169.955 118.592L169.906 134.229H170.824C171.208 134.228 171.52 134.567 171.52 134.986Z" fill="#F0C66C"/>
<path d="M124.817 118.525L169.965 118.59L169.916 134.228H125.045C122.502 134.228 120.441 131.983 120.441 129.214V123.292C120.441 120.659 122.4 118.525 124.817 118.525Z" fill="#F9ECDC"/>
<path d="M113.353 131.371H112.886C112.185 131.371 111.617 130.803 111.617 130.102V123.776C111.617 123.075 112.185 122.507 112.886 122.507H113.353C114.054 122.507 114.622 123.075 114.622 123.776V130.102C114.621 130.803 114.054 131.371 113.353 131.371Z" fill="#E69724"/>
<path d="M108.752 131.41H108.284C107.584 131.41 107.016 130.842 107.016 130.142V123.815C107.016 123.115 107.584 122.547 108.284 122.547H108.752C109.452 122.547 110.02 123.115 110.02 123.815V130.142C110.02 130.842 109.452 131.41 108.752 131.41Z" fill="#E69724"/>
<path d="M125.477 120.964H169.906" stroke="#F0C66C" stroke-miterlimit="10" stroke-linecap="round"/>
<path d="M131.543 126.223H169.932" stroke="#F0C66C" stroke-miterlimit="10" stroke-linecap="round"/>
<path d="M121.898 128.192H169.905" stroke="#F0C66C" stroke-miterlimit="10" stroke-linecap="round"/>
<path d="M123.875 132.624H169.906" stroke="#F0C66C" stroke-miterlimit="10" stroke-linecap="round"/>
<path d="M31.1797 175.209C31.1797 175.545 31.4887 175.817 31.8702 175.817H98.2352C103.158 175.817 107.148 172.908 107.148 169.32V167.202C107.148 163.613 103.157 160.705 98.2352 160.705H31.8702C31.4887 160.705 31.1797 160.977 31.1797 161.313V161.423C31.1797 161.758 31.4857 162.03 31.8652 162.032L32.7322 162.037L32.7812 174.599H31.8707C31.4892 174.6 31.1797 174.872 31.1797 175.209Z" fill="#F0C66C"/>
<path d="M77.2334 161.985L32.7344 162.037L32.7834 174.599H77.6944C80.0039 174.599 81.8764 172.948 81.8764 170.912V166.079C81.8764 163.818 79.7974 161.985 77.2334 161.985Z" fill="#F9ECDC"/>
<path d="M79.3878 163.944H32.7812" stroke="#F0C66C" stroke-miterlimit="10" stroke-linecap="round"/>
<path d="M76.0268 165.838H32.7812" stroke="#F0C66C" stroke-miterlimit="10" stroke-linecap="round"/>
<path d="M79.3878 169.268H32.7812" stroke="#F0C66C" stroke-miterlimit="10" stroke-linecap="round"/>
<path d="M80.1187 172.828H32.7812" stroke="#F0C66C" stroke-miterlimit="10" stroke-linecap="round"/>
<path d="M5.17969 175.813H202.604" stroke="#315782" stroke-miterlimit="10" stroke-linecap="round"/>
</svg>
