<svg width="134" height="125" viewBox="0 0 134 125" fill="none" xmlns="http://www.w3.org/2000/svg">
<path d="M68.889 122.192C99.6855 122.192 124.651 98.0016 124.651 68.1616C124.651 38.3215 99.6855 14.1313 68.889 14.1313C38.0924 14.1313 13.127 38.3215 13.127 68.1616C13.127 98.0016 38.0924 122.192 68.889 122.192Z" fill="#DDECFC"/>
<path fill-rule="evenodd" clip-rule="evenodd" d="M67.7795 94.025C67.7795 91.7931 69.6467 89.9839 71.9501 89.9839H96.1481C99.4543 89.9839 102.615 90.9318 105.048 92.6651C107.481 94.3976 109.411 97.1219 109.411 100.503C109.411 103.884 107.481 106.609 105.05 108.343C102.616 110.077 99.4556 111.027 96.1481 111.027H38.6511C36.3477 111.027 34.4805 109.218 34.4805 106.986C34.4805 104.754 36.3477 102.945 38.6511 102.945H96.1481C97.8634 102.945 99.249 102.444 100.106 101.833C100.965 101.22 101.07 100.704 101.07 100.503C101.07 100.303 100.966 99.7885 100.108 99.1771C99.2506 98.5666 97.8647 98.066 96.1481 98.066L71.7064 97.2724C69.403 97.2724 67.7795 96.2568 67.7795 94.025Z" fill="#99CAF7"/>
<path fill-rule="evenodd" clip-rule="evenodd" d="M105.737 45.7644C106.286 43.7769 108.144 42.3945 110.268 42.3945H129.238C131.828 42.3945 133.928 44.4292 133.928 46.939C133.928 49.4488 131.828 51.4834 129.238 51.4834H113.868L108.396 71.3014C107.726 73.726 105.155 75.1656 102.653 74.5169C100.151 73.8682 98.6649 71.3769 99.3343 68.9523L105.737 45.7644Z" fill="#C3DEFA"/>
<path d="M101.685 28.7573H44.7838L40.2949 38.2641H97.1924L101.685 28.7573Z" fill="#69ADF1"/>
<path d="M73.0178 27.3208H35.8008L40.2938 38.2641H77.5067L73.0178 27.3208Z" fill="#99CAF7"/>
<path d="M102.445 27.3208H82.0008L77.5078 38.2641H97.9521L102.445 27.3208Z" fill="#99CAF7"/>
<path d="M97.9553 38.2642H60.7383V74.3253H97.9553V38.2642Z" fill="#69ADF1"/>
<path d="M77.5119 38.2642H40.2949V74.3253H77.5119V38.2642Z" fill="#C3DEFA"/>
<path d="M52.5414 125C58.1529 125 62.702 120.592 62.702 115.155C62.702 109.718 58.1529 105.31 52.5414 105.31C46.9299 105.31 42.3809 109.718 42.3809 115.155C42.3809 120.592 46.9299 125 52.5414 125Z" fill="#4A90EB"/>
<path d="M102.966 54.5811H32.9467C27.698 54.5811 23.8211 58.8947 25.008 63.4073L30.7125 89.9498C31.5709 93.2089 34.8605 95.521 38.6512 95.521L100.389 99.3919L110.921 63.4193C113.516 56.0551 108.227 54.5811 102.966 54.5811Z" fill="#69ADF1"/>
<path d="M52.2608 120.118C55.08 120.118 57.3654 117.904 57.3654 115.172C57.3654 112.44 55.08 110.226 52.2608 110.226C49.4416 110.226 47.1562 112.44 47.1562 115.172C47.1562 117.904 49.4416 120.118 52.2608 120.118Z" fill="url(#paint0_linear_385_2453)"/>
<mask id="mask0_385_2453" style="mask-type:alpha" maskUnits="userSpaceOnUse" x="24" y="54" width="88" height="46">
<path d="M32.9463 55.0811H102.966C107.979 55.0811 111.514 59.1543 110.44 63.2803L100.021 98.8672L38.6826 95.0215L38.667 95.0205H38.6514C35.1617 95.0205 32.1786 92.9618 31.2764 90.1016L31.1963 89.8223L25.4971 63.3027L25.4941 63.291L25.4912 63.2803L25.4033 62.8945C24.6304 58.9112 28.0971 55.0813 32.9463 55.0811Z" fill="#99CAF7" stroke="#99CAF7"/>
</mask>
<g mask="url(#mask0_385_2453)">
<rect width="5.8337" height="26.2407" rx="2.91685" transform="matrix(0.999968 0.00799833 -0.0126944 0.999919 73.3496 74.9648)" fill="#99CAF7"/>
<rect width="5.65255" height="102.719" rx="2.82627" transform="matrix(0.00682729 0.999977 -0.999997 0.00248975 124.115 56.1602)" fill="#4A90EB"/>
<rect width="5.8337" height="26.2407" rx="2.91685" transform="matrix(0.999968 0.00799833 -0.0126944 0.999919 89.8359 75.0332)" fill="#99CAF7"/>
<rect width="5.8337" height="26.2407" rx="2.91685" transform="matrix(0.999968 0.00799833 -0.0126944 0.999919 56.8613 74.897)" fill="#99CAF7"/>
<rect width="5.8337" height="26.2407" rx="2.91685" transform="matrix(0.999968 0.00799833 -0.0126944 0.999919 40.1973 74.897)" fill="#99CAF7"/>
</g>
<path d="M86.1924 0.185059C87.1085 -0.321329 88.4274 0.246167 89.1377 1.45264C89.1501 1.47366 89.16 1.49596 89.1719 1.51709C89.5134 1.29288 90.0252 1.21899 90.5459 1.35693C91.3532 1.57088 91.8757 2.21196 91.7129 2.78857C91.5501 3.36506 90.7642 3.65863 89.957 3.44482C89.8135 3.40678 89.679 3.35477 89.5557 3.29248C89.4829 3.84197 89.2154 4.30505 88.7646 4.5542C88.2525 4.83724 87.6154 4.78329 87.0283 4.47119C87.042 4.6709 87.0225 4.88422 86.9619 5.09912C86.7411 5.88136 86.0795 6.38768 85.4844 6.22998C84.8894 6.07229 84.586 5.31095 84.8066 4.52881C84.9785 3.92006 85.4172 3.47883 85.8838 3.38721C85.8625 3.35378 85.8396 3.3211 85.8193 3.28662C85.109 2.08016 85.2763 0.691444 86.1924 0.185059Z" fill="#99CAF7"/>
<path d="M46.7085 1.57488C47.7268 1.81768 48.3193 3.12549 48.0317 4.49567C48.0267 4.51954 48.019 4.54273 48.0135 4.56633C48.417 4.63066 48.845 4.92076 49.137 5.37346C49.5896 6.07538 49.5439 6.90112 49.0352 7.21767C48.5265 7.5341 47.748 7.22174 47.2954 6.52001C47.2149 6.39519 47.1505 6.26615 47.1013 6.13706C46.6774 6.49419 46.1678 6.65627 45.6668 6.53681C45.0977 6.40107 44.663 5.932 44.4394 5.30591C44.315 5.46275 44.1569 5.60728 43.9673 5.7253C43.2772 6.15473 42.4472 6.0833 42.1135 5.5659C41.78 5.04856 42.0685 4.2815 42.7585 3.85203C43.2955 3.51783 43.917 3.48722 44.3236 3.73379C44.3304 3.69476 44.3355 3.65519 44.3437 3.61603C44.6313 2.24587 45.6903 1.33209 46.7085 1.57488Z" fill="#99CAF7"/>
<path d="M8.48433 62.5277C8.93178 60.7316 11.4966 60.7316 11.9441 62.5277C12.1009 63.157 12.5976 63.6494 13.2292 63.7971C15.0098 64.2136 15.0098 66.7484 13.2292 67.1649C12.5976 67.3126 12.1009 67.8049 11.9441 68.4343C11.4966 70.2304 8.93178 70.2304 8.48433 68.4343C8.32753 67.8049 7.83082 67.3126 7.19924 67.1649C5.41861 66.7484 5.41861 64.2136 7.19924 63.7971C7.83082 63.6494 8.32753 63.157 8.48433 62.5277Z" fill="#99CAF7"/>
<path d="M116.41 96.4437C116.858 94.6476 119.422 94.6476 119.87 96.4437C120.027 97.0731 120.523 97.5654 121.155 97.7131C122.936 98.1296 122.936 100.664 121.155 101.081C120.523 101.229 120.027 101.721 119.87 102.35C119.422 104.146 116.858 104.146 116.41 102.35C116.253 101.721 115.757 101.229 115.125 101.081C113.344 100.664 113.344 98.1296 115.125 97.7131C115.757 97.5654 116.253 97.0731 116.41 96.4437Z" fill="#99CAF7"/>
<path fill-rule="evenodd" clip-rule="evenodd" d="M24.1263 35.3222C25.2967 35.3222 26.2454 34.403 26.2454 33.269C26.2454 32.135 25.2967 31.2157 24.1263 31.2157C22.956 31.2157 22.0073 32.135 22.0073 33.269C22.0073 34.403 22.956 35.3222 24.1263 35.3222ZM24.1263 36.8622C26.1744 36.8622 27.8347 35.2535 27.8347 33.269C27.8347 31.2845 26.1744 29.6758 24.1263 29.6758C22.0783 29.6758 20.418 31.2845 20.418 33.269C20.418 35.2535 22.0783 36.8622 24.1263 36.8622Z" fill="#99CAF7"/>
<path d="M15.9606 89.6173C15.6224 88.3323 16.8459 87.1753 18.1635 87.5341L19.3297 87.8516C20.6481 88.2106 21.0719 89.8177 20.0924 90.7439L19.2255 91.5638C18.246 92.49 16.5982 92.0405 16.2599 90.7547L15.9606 89.6173Z" fill="url(#paint1_linear_385_2453)"/>
<path d="M124.216 74.3466C125.543 74.0205 126.738 75.2097 126.365 76.4865L126.036 77.616C125.664 78.892 124.006 79.2984 123.051 78.3478L122.206 77.5067C121.251 76.5561 121.715 74.9611 123.041 74.6352L124.216 74.3466Z" fill="#99CAF7"/>
<path fill-rule="evenodd" clip-rule="evenodd" d="M111.876 30.915C112.816 30.915 113.578 30.1765 113.578 29.2655C113.578 28.3545 112.816 27.616 111.876 27.616C110.935 27.616 110.173 28.3545 110.173 29.2655C110.173 30.1765 110.935 30.915 111.876 30.915ZM111.876 32.1522C113.521 32.1522 114.855 30.8598 114.855 29.2655C114.855 27.6713 113.521 26.3789 111.876 26.3789C110.23 26.3789 108.896 27.6713 108.896 29.2655C108.896 30.8598 110.23 32.1522 111.876 32.1522Z" fill="#99CAF7"/>
<rect x="21.877" y="53.7002" width="91.8825" height="6.12368" rx="3.06184" fill="#99CAF7"/>
<path d="M45.2708 7.58643C44.434 10.8297 47.1446 17.6446 51.3286 18.1851C59.0704 19.1853 57.6485 10.4127 53.0301 12.0614C47.5336 14.0236 53.0341 22.4169 60.5654 24.3088" stroke="#4A90EB" stroke-linecap="round" stroke-linejoin="round" stroke-dasharray="4 4"/>
<path d="M89.275 6.76755C93.8762 15.4445 81.6855 24.7082 78.3107 26.4245" stroke="#4A90EB" stroke-linecap="round" stroke-linejoin="round" stroke-dasharray="4 4"/>
<path d="M84.8676 125C90.4791 125 95.0281 120.592 95.0281 115.155C95.0281 109.718 90.4791 105.31 84.8676 105.31C79.2561 105.31 74.707 109.718 74.707 115.155C74.707 120.592 79.2561 125 84.8676 125Z" fill="#4A90EB"/>
<path d="M84.8331 120.118C87.6523 120.118 89.9377 117.904 89.9377 115.172C89.9377 112.44 87.6523 110.226 84.8331 110.226C82.0139 110.226 79.7285 112.44 79.7285 115.172C79.7285 117.904 82.0139 120.118 84.8331 120.118Z" fill="url(#paint2_linear_385_2453)"/>
<defs>
<linearGradient id="paint0_linear_385_2453" x1="46.8497" y1="117.644" x2="61.5992" y2="117.885" gradientUnits="userSpaceOnUse">
<stop stop-color="white"/>
<stop offset="1" stop-color="#BCF3FF"/>
</linearGradient>
<linearGradient id="paint1_linear_385_2453" x1="13.5195" y1="90.9761" x2="19.5022" y2="85.0276" gradientUnits="userSpaceOnUse">
<stop stop-color="#90E3F5"/>
<stop offset="1" stop-color="#65C8DE"/>
</linearGradient>
<linearGradient id="paint2_linear_385_2453" x1="79.422" y1="117.644" x2="94.1715" y2="117.885" gradientUnits="userSpaceOnUse">
<stop stop-color="white"/>
<stop offset="1" stop-color="#BCF3FF"/>
</linearGradient>
</defs>
</svg>
