<svg width="134" height="125" viewBox="0 0 134 125" fill="none" xmlns="http://www.w3.org/2000/svg">
<path d="M68.887 122.192C99.6835 122.192 124.649 98.0016 124.649 68.1616C124.649 38.3215 99.6835 14.1313 68.887 14.1313C38.0905 14.1313 13.125 38.3215 13.125 68.1616C13.125 98.0016 38.0905 122.192 68.887 122.192Z" fill="#1B2A50"/>
<path fill-rule="evenodd" clip-rule="evenodd" d="M67.7795 94.025C67.7795 91.7931 69.6467 89.9839 71.9501 89.9839H96.1481C99.4543 89.9839 102.615 90.9318 105.048 92.6651C107.481 94.3976 109.411 97.1219 109.411 100.503C109.411 103.884 107.481 106.609 105.05 108.343C102.616 110.077 99.4556 111.027 96.1481 111.027H38.6511C36.3477 111.027 34.4805 109.218 34.4805 106.986C34.4805 104.754 36.3477 102.945 38.6511 102.945H96.1481C97.8634 102.945 99.249 102.444 100.106 101.833C100.965 101.22 101.07 100.704 101.07 100.503C101.07 100.303 100.966 99.7885 100.108 99.1771C99.2506 98.5666 97.8647 98.066 96.1481 98.066L71.7064 97.2724C69.403 97.2724 67.7795 96.2568 67.7795 94.025Z" fill="#99CAF7"/>
<path fill-rule="evenodd" clip-rule="evenodd" d="M105.739 45.7644C106.288 43.7769 108.146 42.3945 110.27 42.3945H129.24C131.83 42.3945 133.93 44.4292 133.93 46.939C133.93 49.4488 131.83 51.4834 129.24 51.4834H113.87L108.398 71.3014C107.728 73.726 105.157 75.1656 102.655 74.5169C100.153 73.8682 98.6668 71.3769 99.3363 68.9523L105.739 45.7644Z" fill="#C3DEFA"/>
<path d="M101.683 28.7573H44.7818L40.293 38.2641H97.1904L101.683 28.7573Z" fill="#69ADF1"/>
<path d="M73.0178 27.3208H35.8008L40.2938 38.2641H77.5067L73.0178 27.3208Z" fill="#99CAF7"/>
<path d="M102.445 27.3208H82.0008L77.5078 38.2641H97.9521L102.445 27.3208Z" fill="#3172DF"/>
<path d="M97.9553 38.2642H60.7383V74.3253H97.9553V38.2642Z" fill="#69ADF1"/>
<path d="M77.51 38.2642H40.293V74.3253H77.51V38.2642Z" fill="#3172DF"/>
<path d="M52.5434 125C58.1549 125 62.7039 120.592 62.7039 115.155C62.7039 109.718 58.1549 105.31 52.5434 105.31C46.9318 105.31 42.3828 109.718 42.3828 115.155C42.3828 120.592 46.9318 125 52.5434 125Z" fill="#4A90EB"/>
<path d="M102.966 54.5811H32.9467C27.698 54.5811 23.8211 58.8947 25.008 63.4073L30.7125 89.9498C31.5709 93.2089 34.8605 95.521 38.6512 95.521L100.389 99.3919L110.921 63.4193C113.516 56.0551 108.227 54.5811 102.966 54.5811Z" fill="#69ADF1"/>
<path d="M52.2608 120.118C55.08 120.118 57.3654 117.904 57.3654 115.172C57.3654 112.44 55.08 110.226 52.2608 110.226C49.4416 110.226 47.1562 112.44 47.1562 115.172C47.1562 117.904 49.4416 120.118 52.2608 120.118Z" fill="url(#paint0_linear_695_19733)"/>
<mask id="mask0_695_19733" style="mask-type:alpha" maskUnits="userSpaceOnUse" x="24" y="54" width="88" height="46">
<path d="M32.9463 55.0811H102.966C107.979 55.0811 111.514 59.1543 110.44 63.2803L100.021 98.8672L38.6826 95.0215L38.667 95.0205H38.6514C35.1617 95.0205 32.1786 92.9618 31.2764 90.1016L31.1963 89.8223L25.4971 63.3027L25.4941 63.291L25.4912 63.2803L25.4033 62.8945C24.6304 58.9112 28.0971 55.0813 32.9463 55.0811Z" fill="#3172DF" stroke="#3172DF"/>
</mask>
<g mask="url(#mask0_695_19733)">
<rect x="0.493637" y="0.503959" width="4.8337" height="25.2407" rx="2.41685" transform="matrix(0.999968 0.00799833 -0.0126944 0.999919 73.3541 74.9609)" fill="#99CAF7" stroke="#3172DF"/>
<rect x="-0.496585" y="0.501233" width="4.65255" height="101.719" rx="2.32627" transform="matrix(0.00682729 0.999977 -0.999997 0.00248975 124.121 57.1567)" fill="#4A90EB" stroke="#3172DF"/>
<rect x="0.493637" y="0.503959" width="4.8337" height="25.2407" rx="2.41685" transform="matrix(0.999968 0.00799833 -0.0126944 0.999919 89.8424 75.0293)" fill="#99CAF7" stroke="#3172DF"/>
<rect x="0.493637" y="0.503959" width="4.8337" height="25.2407" rx="2.41685" transform="matrix(0.999968 0.00799833 -0.0126944 0.999919 56.8658 74.8931)" fill="#99CAF7" stroke="#3172DF"/>
<rect x="0.493637" y="0.503959" width="4.8337" height="25.2407" rx="2.41685" transform="matrix(0.999968 0.00799833 -0.0126944 0.999919 40.2056 74.8931)" fill="#99CAF7" stroke="#3172DF"/>
</g>
<path d="M86.1921 0.185242C87.1083 -0.321146 88.4271 0.24635 89.1375 1.45282C89.1498 1.47385 89.1598 1.49614 89.1716 1.51727C89.5132 1.29306 90.0249 1.21917 90.5457 1.35712C91.353 1.57106 91.8754 2.21215 91.7126 2.78876C91.5498 3.36524 90.764 3.65881 89.9568 3.44501C89.8132 3.40696 89.6787 3.35495 89.5554 3.29266C89.4827 3.84215 89.2151 4.30523 88.7644 4.55438C88.2523 4.83742 87.6151 4.78347 87.0281 4.47137C87.0418 4.67108 87.0223 4.88441 86.9617 5.0993C86.7409 5.88154 86.0792 6.38786 85.4841 6.23016C84.8891 6.07248 84.5857 5.31114 84.8064 4.52899C84.9782 3.92024 85.4169 3.47901 85.8835 3.38739C85.8623 3.35397 85.8394 3.32128 85.8191 3.2868C85.1088 2.08034 85.276 0.691627 86.1921 0.185242Z" fill="#99CAF7"/>
<path d="M46.7106 1.5754C47.7287 1.81824 48.3206 3.12538 48.033 4.49552C48.0279 4.51956 48.0211 4.54309 48.0155 4.56684C48.419 4.63119 48.847 4.92119 49.139 5.37398C49.5915 6.07587 49.5459 6.90165 49.0372 7.21818C48.5285 7.53445 47.7492 7.22166 47.2967 6.51987C47.2163 6.39512 47.1531 6.26586 47.104 6.13685C46.68 6.4943 46.17 6.65683 45.6688 6.53733C45.0995 6.40157 44.6643 5.93212 44.4407 5.30577C44.3162 5.46264 44.1583 5.60713 43.9686 5.72515C43.2786 6.15452 42.4493 6.08357 42.1156 5.56641C41.7819 5.04901 42.0711 4.28126 42.7612 3.85182C43.2985 3.51757 43.9198 3.48781 44.3263 3.73496C44.3331 3.69575 44.3374 3.65589 44.3457 3.61654C44.6333 2.24637 45.6924 1.3326 46.7106 1.5754Z" fill="#99CAF7"/>
<path d="M8.48433 62.5277C8.93178 60.7316 11.4966 60.7316 11.9441 62.5277C12.1009 63.157 12.5976 63.6494 13.2292 63.7971C15.0098 64.2136 15.0098 66.7484 13.2292 67.1649C12.5976 67.3126 12.1009 67.8049 11.9441 68.4343C11.4966 70.2304 8.93178 70.2304 8.48433 68.4343C8.32753 67.8049 7.83082 67.3126 7.19924 67.1649C5.41861 66.7484 5.41861 64.2136 7.19924 63.7971C7.83082 63.6494 8.32753 63.157 8.48433 62.5277Z" fill="#99CAF7"/>
<path d="M116.41 96.4437C116.858 94.6476 119.422 94.6476 119.87 96.4437C120.027 97.0731 120.523 97.5654 121.155 97.7131C122.936 98.1296 122.936 100.664 121.155 101.081C120.523 101.229 120.027 101.721 119.87 102.35C119.422 104.146 116.858 104.146 116.41 102.35C116.253 101.721 115.757 101.229 115.125 101.081C113.344 100.664 113.344 98.1296 115.125 97.7131C115.757 97.5654 116.253 97.0731 116.41 96.4437Z" fill="#99CAF7"/>
<path fill-rule="evenodd" clip-rule="evenodd" d="M24.1263 35.3222C25.2967 35.3222 26.2454 34.403 26.2454 33.269C26.2454 32.135 25.2967 31.2157 24.1263 31.2157C22.956 31.2157 22.0073 32.135 22.0073 33.269C22.0073 34.403 22.956 35.3222 24.1263 35.3222ZM24.1263 36.8622C26.1744 36.8622 27.8347 35.2535 27.8347 33.269C27.8347 31.2845 26.1744 29.6758 24.1263 29.6758C22.0783 29.6758 20.418 31.2845 20.418 33.269C20.418 35.2535 22.0783 36.8622 24.1263 36.8622Z" fill="#99CAF7"/>
<path d="M15.9586 89.6173C15.6205 88.3323 16.8439 87.1753 18.1616 87.5341L19.3278 87.8516C20.6461 88.2106 21.0699 89.8177 20.0905 90.7439L19.2235 91.5638C18.2441 92.49 16.5962 92.0405 16.2579 90.7547L15.9586 89.6173Z" fill="url(#paint1_linear_695_19733)"/>
<path d="M124.216 74.3466C125.543 74.0205 126.738 75.2097 126.365 76.4865L126.036 77.616C125.664 78.892 124.006 79.2984 123.051 78.3478L122.206 77.5067C121.251 76.5561 121.715 74.9611 123.041 74.6352L124.216 74.3466Z" fill="#99CAF7"/>
<path fill-rule="evenodd" clip-rule="evenodd" d="M111.878 30.915C112.818 30.915 113.58 30.1765 113.58 29.2655C113.58 28.3545 112.818 27.616 111.878 27.616C110.937 27.616 110.175 28.3545 110.175 29.2655C110.175 30.1765 110.937 30.915 111.878 30.915ZM111.878 32.1522C113.523 32.1522 114.857 30.8598 114.857 29.2655C114.857 27.6713 113.523 26.3789 111.878 26.3789C110.232 26.3789 108.898 27.6713 108.898 29.2655C108.898 30.8598 110.232 32.1522 111.878 32.1522Z" fill="#99CAF7"/>
<rect x="21.875" y="53.7002" width="91.8825" height="6.12368" rx="3.06184" fill="#99CAF7"/>
<path d="M45.2688 7.58643C44.432 10.8297 47.1426 17.6446 51.3266 18.1851C59.0684 19.1853 57.6466 10.4127 53.0282 12.0614C47.5316 14.0236 53.0321 22.4169 60.5635 24.3088" stroke="#4A90EB" stroke-linecap="round" stroke-linejoin="round" stroke-dasharray="4 4"/>
<path d="M89.275 6.76755C93.8762 15.4445 81.6855 24.7082 78.3107 26.4245" stroke="#4A90EB" stroke-linecap="round" stroke-linejoin="round" stroke-dasharray="4 4"/>
<path d="M84.8676 125C90.4791 125 95.0281 120.592 95.0281 115.155C95.0281 109.718 90.4791 105.31 84.8676 105.31C79.2561 105.31 74.707 109.718 74.707 115.155C74.707 120.592 79.2561 125 84.8676 125Z" fill="#4A90EB"/>
<path d="M84.8351 120.118C87.6542 120.118 89.9396 117.904 89.9396 115.172C89.9396 112.44 87.6542 110.226 84.8351 110.226C82.0159 110.226 79.7305 112.44 79.7305 115.172C79.7305 117.904 82.0159 120.118 84.8351 120.118Z" fill="url(#paint2_linear_695_19733)"/>
<defs>
<linearGradient id="paint0_linear_695_19733" x1="46.8497" y1="117.644" x2="61.5992" y2="117.885" gradientUnits="userSpaceOnUse">
<stop stop-color="white"/>
<stop offset="1" stop-color="#BCF3FF"/>
</linearGradient>
<linearGradient id="paint1_linear_695_19733" x1="13.5175" y1="90.9761" x2="19.5003" y2="85.0276" gradientUnits="userSpaceOnUse">
<stop stop-color="#90E3F5"/>
<stop offset="1" stop-color="#65C8DE"/>
</linearGradient>
<linearGradient id="paint2_linear_695_19733" x1="79.4239" y1="117.644" x2="94.1735" y2="117.885" gradientUnits="userSpaceOnUse">
<stop stop-color="white"/>
<stop offset="1" stop-color="#BCF3FF"/>
</linearGradient>
</defs>
</svg>
