<svg width="136" height="147" viewBox="0 0 136 147" fill="none" xmlns="http://www.w3.org/2000/svg">
<g filter="url(#filter0_f_595_2314)">
<ellipse cx="67.7774" cy="114.336" rx="45.5215" ry="10.6646" fill="#B6CCE2"/>
</g>
<path d="M68.3681 122.719C99.543 122.719 124.815 97.2462 124.815 65.8239C124.815 34.4015 99.543 8.92871 68.3681 8.92871C37.1932 8.92871 11.9209 34.4015 11.9209 65.8239C11.9209 97.2462 37.1932 122.719 68.3681 122.719Z" fill="#EBF5FF"/>
<path d="M96.3583 16.3691H39.5192C37.4043 16.3691 35.376 17.216 33.8805 18.7233C32.3851 20.2306 31.5449 22.275 31.5449 24.4067V89.6898H31.6424V112.615C31.6423 113.5 31.8673 114.37 32.2959 115.143C32.7245 115.916 33.3423 116.565 34.0905 117.028C34.8387 117.492 35.6923 117.754 36.5697 117.791C37.4472 117.827 38.3193 117.636 39.1028 117.236L65.3205 103.84C66.0349 103.479 66.8229 103.291 67.622 103.291C68.4211 103.291 69.2092 103.479 69.9235 103.84L96.9475 117.335C97.7315 117.726 98.6018 117.909 99.4758 117.867C100.35 117.825 101.199 117.558 101.942 117.093C102.685 116.627 103.298 115.978 103.722 115.207C104.147 114.436 104.369 113.568 104.368 112.686L104.297 89.6898V24.3844C104.291 22.2627 103.453 20.2295 101.966 18.728C100.479 17.2265 98.4632 16.3786 96.3583 16.3691Z" fill="#C3DEFA"/>
<path d="M132 37.5124C132.001 39.2499 131.376 40.9288 130.241 42.236C129.105 43.5432 127.537 44.3895 125.828 44.6171C125.515 44.6573 125.201 44.6779 124.886 44.6789H101.235C100.722 44.6777 100.21 44.6351 99.7039 44.5515C97.53 44.1734 95.5716 42.9982 94.2058 41.252C92.84 39.5059 92.1632 37.3122 92.3058 35.0933C92.4484 32.8743 93.4002 30.787 94.9781 29.233C96.556 27.679 98.6484 26.7682 100.853 26.6759C101.995 24.1757 103.913 22.1177 106.317 20.8124C108.722 19.5071 111.482 19.0252 114.182 19.4395C116.882 19.8537 119.375 21.1417 121.285 23.109C123.195 25.0763 124.418 27.6164 124.771 30.346H124.878C125.813 30.3445 126.739 30.5287 127.602 30.8882C128.466 31.2476 129.252 31.7753 129.913 32.4409C130.574 33.1065 131.099 33.897 131.457 34.7673C131.815 35.6375 132 36.5703 132 37.5124Z" fill="url(#paint0_linear_595_2314)"/>
<path d="M11.7363 23.4761C11.7363 24.909 12.3011 26.2832 13.3063 27.2964C14.3116 28.3096 15.675 28.8789 17.0966 28.8789H34.8927C36.6461 28.8695 38.3266 28.1705 39.5762 26.9307C40.8259 25.6908 41.5458 24.0082 41.5828 22.2413C41.6197 20.4743 40.9707 18.7626 39.774 17.4709C38.5773 16.1791 36.9275 15.4093 35.176 15.3255C34.3122 13.4501 32.8681 11.9078 31.0607 10.93C29.2532 9.95215 27.1798 9.59167 25.1517 9.90264C23.1237 10.2136 21.2504 11.1792 19.8132 12.6546C18.3759 14.1299 17.4523 16.0354 17.1808 18.0848H17.1004C15.6801 18.0838 14.3175 18.651 13.3117 19.6618C12.306 20.6726 11.7394 22.0445 11.7363 23.4761Z" fill="url(#paint1_linear_595_2314)"/>
<g filter="url(#filter1_f_595_2314)">
<ellipse cx="70.2933" cy="76.9737" rx="25.6595" ry="5.5421" fill="#C3E1FF"/>
</g>
<path fill-rule="evenodd" clip-rule="evenodd" d="M68.9997 46.4569C70.0491 44.2941 71.686 42.4703 73.7232 41.1941C75.7605 39.9179 78.1157 39.2408 80.5197 39.2402C87.5853 39.2402 93.3197 44.9746 93.3197 52.0402C93.3197 59.5103 89.5206 66.3609 84.9101 71.8674C78.1363 79.9596 69.6678 85.1334 69.6678 85.1334C69.4662 85.2551 69.2352 85.3194 68.9997 85.3194C68.7642 85.3194 68.5331 85.2551 68.3315 85.1334C68.3315 85.1334 59.863 79.9596 53.0893 71.8674C48.4787 66.3609 44.6797 59.5103 44.6797 52.0402C44.6797 44.9746 50.4141 39.2402 57.4797 39.2402C59.8836 39.2408 62.2389 39.9179 64.2761 41.1941C66.3133 42.4703 67.9503 44.2941 68.9997 46.4569ZM80.5197 48.2002C81.5381 48.2002 82.5148 48.6048 83.235 49.3249C83.9551 50.0451 84.3597 51.0218 84.3597 52.0402C84.3597 52.3797 84.4945 52.7053 84.7346 52.9453C84.9746 53.1854 85.3002 53.3202 85.6397 53.3202C85.9792 53.3202 86.3047 53.1854 86.5448 52.9453C86.7848 52.7053 86.9197 52.3797 86.9197 52.0402C86.9197 50.3428 86.2454 48.715 85.0452 47.5148C83.8449 46.3145 82.2171 45.6402 80.5197 45.6402C80.1802 45.6402 79.8546 45.7751 79.6146 46.0151C79.3745 46.2552 79.2397 46.5808 79.2397 46.9202C79.2397 47.2597 79.3745 47.5853 79.6146 47.8253C79.8546 48.0654 80.1802 48.2002 80.5197 48.2002Z" fill="#69ADF1"/>
<path d="M7.00001 92.5535C6.99916 94.2838 7.62244 95.9553 8.75372 97.2568C9.88501 98.5582 11.4471 99.4007 13.149 99.6273C13.4586 99.6707 13.7707 99.6926 14.0832 99.6929H37.6301C38.1432 99.6921 38.6554 99.6495 39.1616 99.5655C41.3386 99.2003 43.3034 98.0329 44.6747 96.29C46.046 94.547 46.7261 92.3528 46.583 90.133C46.4399 87.9132 45.4838 85.8262 43.9003 84.2768C42.3167 82.7274 40.2186 81.8261 38.013 81.7478C36.874 79.2598 34.9636 77.2122 32.5697 75.9136C30.1757 74.6151 27.4279 74.1359 24.7403 74.5483C22.0527 74.9606 19.5708 76.2422 17.6687 78.2C15.7665 80.1577 14.5471 82.6855 14.1943 85.4025H14.0832C13.1521 85.4025 12.2301 85.5875 11.3699 85.947C10.5098 86.3065 9.72846 86.8335 9.07057 87.4976C8.41268 88.1618 7.89118 88.9502 7.53589 89.8178C7.1806 90.6853 6.9985 91.6149 7.00001 92.5535Z" fill="url(#paint2_linear_595_2314)"/>
<path d="M113.421 54.51C113.108 53.2703 114.243 52.1532 115.465 52.4993L116.758 52.8656C117.98 53.2117 118.372 54.761 117.463 55.6545L116.502 56.6002C115.594 57.4938 114.067 57.0614 113.753 55.822L113.421 54.51Z" fill="#99CAF7"/>
<path d="M19.3362 54.51C19.0226 53.2703 20.1582 52.1532 21.3801 52.4993L22.6733 52.8656C23.8951 53.2117 24.2868 54.761 23.3785 55.6545L22.4171 56.6002C21.5088 57.4938 19.9816 57.0614 19.6681 55.822L19.3362 54.51Z" fill="#99CAF7"/>
<path d="M49.9001 6.92348C50.3178 5.1796 52.7987 5.1796 53.2164 6.92348C53.3654 7.54551 53.8508 8.03205 54.4723 8.18327C56.22 8.60849 56.22 11.0967 54.4723 11.522C53.8508 11.6732 53.3654 12.1597 53.2164 12.7818C52.7987 14.5256 50.3178 14.5256 49.9001 12.7818C49.7511 12.1597 49.2657 11.6732 48.6442 11.522C46.8965 11.0967 46.8965 8.60849 48.6442 8.18327C49.2657 8.03205 49.7511 7.54551 49.9001 6.92348Z" fill="#99CAF7"/>
<path d="M70.293 110.852C71.1727 110.852 71.9033 111.574 71.9033 112.484C71.9031 113.395 71.1726 114.116 70.293 114.116C69.4136 114.116 68.6838 113.395 68.6836 112.484C68.6836 111.574 69.4134 110.852 70.293 110.852Z" stroke="#99CAF7" stroke-width="2.48287"/>
<path d="M111.808 96.8288C112.226 95.0849 114.707 95.0849 115.125 96.8288C115.274 97.4508 115.759 97.9373 116.381 98.0885C118.128 98.5138 118.128 101.002 116.381 101.427C115.759 101.578 115.274 102.065 115.125 102.687C114.707 104.431 112.226 104.431 111.808 102.687C111.659 102.065 111.174 101.578 110.552 101.427C108.805 101.002 108.805 98.5138 110.552 98.0885C111.174 97.9373 111.659 97.4508 111.808 96.8288Z" fill="#99CAF7"/>
<path d="M116.316 78.0098C117.196 78.0098 117.927 78.7318 117.927 79.6426C117.927 80.5532 117.196 81.2744 116.316 81.2744C115.437 81.2742 114.707 80.553 114.707 79.6426C114.707 78.732 115.437 78.01 116.316 78.0098Z" stroke="#99CAF7" stroke-width="2.48287"/>
<defs>
<filter id="filter0_f_595_2314" x="0.482864" y="81.8979" width="134.589" height="64.8751" filterUnits="userSpaceOnUse" color-interpolation-filters="sRGB">
<feFlood flood-opacity="0" result="BackgroundImageFix"/>
<feBlend mode="normal" in="SourceGraphic" in2="BackgroundImageFix" result="shape"/>
<feGaussianBlur stdDeviation="10.8865" result="effect1_foregroundBlur_595_2314"/>
</filter>
<filter id="filter1_f_595_2314" x="23.9432" y="50.7411" width="92.7005" height="52.4651" filterUnits="userSpaceOnUse" color-interpolation-filters="sRGB">
<feFlood flood-opacity="0" result="BackgroundImageFix"/>
<feBlend mode="normal" in="SourceGraphic" in2="BackgroundImageFix" result="shape"/>
<feGaussianBlur stdDeviation="10.3453" result="effect1_foregroundBlur_595_2314"/>
</filter>
<linearGradient id="paint0_linear_595_2314" x1="124.463" y1="55.6264" x2="104.468" y2="19.4281" gradientUnits="userSpaceOnUse">
<stop stop-color="#69ADF1"/>
<stop offset="1" stop-color="#F0F7FE"/>
</linearGradient>
<linearGradient id="paint1_linear_595_2314" x1="35.92" y1="37.1098" x2="20.8842" y2="9.89832" gradientUnits="userSpaceOnUse">
<stop stop-color="#69ADF1"/>
<stop offset="1" stop-color="#F0F7FE"/>
</linearGradient>
<linearGradient id="paint2_linear_595_2314" x1="39.0865" y1="110.599" x2="19.177" y2="74.5206" gradientUnits="userSpaceOnUse">
<stop stop-color="#69ADF1"/>
<stop offset="1" stop-color="#F0F7FE"/>
</linearGradient>
</defs>
</svg>
