<svg width="152" height="150" viewBox="0 0 152 150" fill="none" xmlns="http://www.w3.org/2000/svg">
<path d="M78.4242 140.425C115.582 140.425 145.704 110.303 145.704 73.1454C145.704 35.9879 115.582 5.86572 78.4242 5.86572C41.2667 5.86572 11.1445 35.9879 11.1445 73.1454C11.1445 110.303 41.2667 140.425 78.4242 140.425Z" fill="url(#paint0_linear_265_8834)"/>
<path d="M137.008 106.305C137.241 106.353 137.417 106.559 137.417 106.807C137.417 107.054 137.241 107.261 137.008 107.309L136.904 107.319H130.152C124.292 111.842 122.807 116.767 122.759 120.547C122.735 122.463 123.08 124.099 123.432 125.256C123.607 125.833 123.783 126.29 123.914 126.6C123.98 126.754 124.034 126.872 124.071 126.95C124.079 126.967 124.086 126.982 124.093 126.995L128.371 131.273L128.436 131.354C128.568 131.552 128.546 131.823 128.371 131.998C128.196 132.173 127.926 132.195 127.727 132.063L127.646 131.998L123.368 127.72L123.319 127.695C123.24 127.657 123.12 127.602 122.963 127.534C122.648 127.399 122.184 127.217 121.598 127.035C120.423 126.671 118.763 126.31 116.824 126.317C112.969 126.333 107.953 127.808 103.404 133.78C103.391 133.797 103.375 133.812 103.36 133.827V139.834C103.36 140.03 103.201 140.189 103.005 140.189C102.809 140.189 102.65 140.03 102.65 139.834V133.845C102.458 133.667 102.426 133.371 102.588 133.159C102.608 133.132 102.63 133.106 102.65 133.079V128.653C102.498 128.514 102.439 128.29 102.519 128.087L102.65 127.771V121.036C102.499 120.897 102.439 120.675 102.519 120.473L102.65 120.147V106.807C102.65 106.741 102.668 106.68 102.699 106.628C102.701 106.622 102.704 106.616 102.706 106.61C102.786 106.419 102.972 106.294 103.18 106.294H136.904L137.008 106.305ZM115.411 121.043C114.423 120.993 113.07 121.026 111.605 121.351C108.784 121.976 105.538 123.681 103.651 128.036L103.473 128.466C103.446 128.532 103.407 128.589 103.36 128.637V132.193C107.91 126.753 112.887 125.308 116.82 125.292C118.738 125.284 120.395 125.617 121.622 125.974L116.841 121.192C116.774 121.181 116.686 121.166 116.578 121.151C116.304 121.113 115.904 121.068 115.411 121.043ZM110.978 116.032C110.37 115.97 109.537 115.954 108.631 116.137C106.902 116.485 104.861 117.559 103.594 120.55L103.474 120.846C103.447 120.913 103.408 120.971 103.36 121.02V126.31C105.453 122.553 108.614 120.963 111.384 120.35C112.961 120 114.409 119.966 115.462 120.019C115.536 120.022 115.609 120.027 115.68 120.031L111.814 116.166C111.78 116.158 111.739 116.148 111.691 116.139C111.525 116.105 111.28 116.063 110.978 116.032ZM123.889 107.47C119.565 109.435 117.929 112.622 117.364 115.354C117.071 116.775 117.066 118.078 117.136 119.026C117.171 119.5 117.225 119.883 117.269 120.146C117.27 120.156 117.272 120.166 117.273 120.176L117.421 120.323C117.446 120.344 117.469 120.367 117.49 120.393L122.368 125.271C122.025 124.061 121.71 122.427 121.733 120.534C121.782 116.686 123.227 111.821 128.52 107.319H124.231L123.889 107.47ZM117.245 107.319C114.048 108.576 112.91 110.638 112.539 112.363C112.35 113.243 112.358 114.051 112.415 114.639C112.443 114.932 112.483 115.168 112.516 115.329C112.524 115.373 112.533 115.41 112.54 115.442L116.108 119.011C116.04 118.003 116.052 116.639 116.36 115.147C116.909 112.494 118.394 109.454 121.967 107.319H117.245ZM103.36 118.757C104.772 116.446 106.712 115.478 108.429 115.132C109.247 114.967 110.008 114.946 110.627 114.979L103.36 107.712V118.757ZM111.362 114.265C111.337 113.666 111.368 112.936 111.537 112.148C111.886 110.524 112.819 108.698 114.978 107.319H104.417L111.362 114.265Z" fill="url(#paint1_linear_265_8834)"/>
<path fill-rule="evenodd" clip-rule="evenodd" d="M78.5304 13.3687C78.1943 13.23 77.8341 13.159 77.4705 13.1596L77.4675 13.1596C76.7333 13.1602 76.0294 13.4521 75.5103 13.9713C74.9915 14.4901 74.6996 15.1935 74.6986 15.9272V19.411H67.8135L67.8135 15.9225C67.8157 13.3644 68.8329 10.9116 70.6418 9.10272C72.4503 7.29417 74.9025 6.27701 77.4601 6.27443L77.4615 6.27442C78.7293 6.27262 79.9851 6.52062 81.157 7.00427C82.3298 7.4883 83.3957 8.19884 84.2937 9.09525C85.1916 9.99165 85.904 11.0563 86.3901 12.2283C86.8761 13.4003 87.1263 14.6567 87.1263 15.9255V19.2821H80.2411V15.9255C80.2411 15.5618 80.1694 15.2018 80.0301 14.8659C79.8908 14.53 79.6867 14.2249 79.4293 13.968C79.172 13.7111 78.8665 13.5075 78.5304 13.3687ZM77.4615 6.27442L77.4601 6.27443L77.4615 6.27442Z" fill="#99CAF7"/>
<path d="M77.889 131.92C92.159 131.92 103.727 120.352 103.727 106.082C103.727 91.8123 92.159 80.2441 77.889 80.2441C63.6189 80.2441 52.0508 91.8123 52.0508 106.082C52.0508 120.352 63.6189 131.92 77.889 131.92Z" fill="url(#paint2_linear_265_8834)"/>
<path d="M118.657 77.5965V57.7734C118.657 46.9609 114.362 36.5913 106.716 28.9457C99.0709 21.3001 88.7013 17.0049 77.8888 17.0049C67.0763 17.0049 56.7066 21.3001 49.061 28.9457C41.4154 36.5913 37.1202 46.9609 37.1202 57.7734V77.5965C37.1207 82.1507 35.8323 86.612 33.4041 90.4649C30.9759 94.3177 27.5069 97.4047 23.3982 99.3691C22.4539 99.8188 21.6567 100.528 21.0995 101.413C20.5423 102.298 20.2481 103.323 20.251 104.369V104.477C20.2503 104.854 20.3241 105.229 20.4682 105.578C20.6123 105.927 20.8238 106.244 21.0907 106.512C21.3575 106.779 21.6745 106.991 22.0235 107.136C22.3724 107.281 22.7465 107.355 23.1243 107.355H132.648C133.026 107.355 133.4 107.281 133.749 107.136C134.098 106.991 134.415 106.779 134.681 106.512C134.948 106.244 135.16 105.927 135.304 105.578C135.448 105.229 135.522 104.854 135.521 104.477V104.369C135.522 103.327 135.227 102.305 134.671 101.423C134.115 100.541 133.32 99.8345 132.379 99.3852C128.268 97.4196 124.798 94.3301 122.369 90.4742C119.941 86.6182 118.654 82.1534 118.657 77.5965Z" fill="url(#paint3_linear_265_8834)"/>
<path d="M61.8024 61.3501C61.8152 61.351 61.8278 61.3532 61.8405 61.355C61.8572 61.3573 61.8738 61.36 61.8903 61.3638C61.9045 61.367 61.9183 61.3711 61.9323 61.3755C61.9482 61.3804 61.9637 61.3858 61.9792 61.3921C61.9913 61.397 62.0034 61.4019 62.0153 61.4077C62.0359 61.4177 62.0555 61.4294 62.0749 61.4419C62.0824 61.4467 62.09 61.4513 62.0973 61.4565C62.1238 61.4753 62.15 61.4956 62.1735 61.519L76.8288 76.1763L76.8317 76.1782C76.8892 76.2182 76.9375 76.2681 76.9762 76.3237L95.9284 95.2788L96.0036 95.3706C96.1534 95.5979 96.1281 95.9068 95.9284 96.1069C95.7281 96.3072 95.4185 96.3324 95.1911 96.1821L95.0993 96.1069L85.8717 86.8774L85.32 86.7544C78.056 85.2293 72.3521 87.1241 68.4245 89.4409C66.3941 90.6386 64.8384 91.9504 63.7917 92.9604C63.2688 93.465 62.8735 93.8936 62.611 94.1938C62.4977 94.3234 62.4089 94.4298 62.3454 94.5073V95.8706C62.3451 96.1939 62.0827 96.4563 61.7594 96.4565C61.436 96.4565 61.1737 96.194 61.1735 95.8706V94.5083C61.1099 94.4307 61.0207 94.3241 60.9069 94.1938C60.6444 93.8935 60.2491 93.465 59.7262 92.9604C58.6794 91.9504 57.1232 90.6386 55.0924 89.4409C51.0659 87.0663 45.1734 85.1359 37.6452 86.8765L28.3268 96.1987L28.235 96.2739C28.0077 96.4238 27.6988 96.3987 27.4987 96.1987C27.2699 95.9699 27.27 95.5985 27.4987 95.3696L36.9137 85.9517C36.9202 85.9444 36.9274 85.938 36.9342 85.9311L46.5544 76.3091C46.5901 76.2612 46.6322 76.2178 46.6823 76.1821L51.8132 71.0503C51.8209 71.0418 51.8293 71.0339 51.8376 71.0259L61.3464 61.5171C61.3693 61.4943 61.3949 61.4744 61.4216 61.4556L61.4362 61.4438C61.441 61.4407 61.4469 61.439 61.4518 61.436C61.4689 61.4255 61.4863 61.4156 61.5046 61.4067C61.5134 61.4025 61.5219 61.3978 61.5309 61.394C61.5321 61.3935 61.5336 61.3926 61.5348 61.3921C61.5472 61.387 61.5604 61.3846 61.5729 61.3804C61.5997 61.3714 61.6264 61.3639 61.654 61.3589C61.6729 61.3554 61.6916 61.3517 61.7106 61.3501C61.7191 61.3494 61.7275 61.3504 61.736 61.3501C61.7582 61.3492 61.7803 61.3484 61.8024 61.3501ZM57.7614 83.6704C55.1781 81.6904 50.8139 79.8856 43.7174 80.8032L39.1344 85.3872C46.184 84.2216 51.7781 86.1261 55.6882 88.4321C57.8139 89.6859 59.4426 91.0571 60.5407 92.1167C60.7761 92.3438 60.9868 92.5578 61.1735 92.7524V87.7729C61.1473 87.7136 61.1077 87.6268 61.0524 87.5171C60.9347 87.2833 60.7474 86.9451 60.4782 86.5425C59.9395 85.7368 59.0715 84.6747 57.7614 83.6704ZM79.3219 80.7446C72.5074 79.9673 68.2821 81.7354 65.7575 83.6704C64.4471 84.6748 63.5785 85.7367 63.0397 86.5425C62.7705 86.9451 62.5842 87.2833 62.4665 87.5171C62.4112 87.6268 62.3716 87.7136 62.3454 87.7729V92.7515C62.532 92.5569 62.7431 92.3436 62.9782 92.1167C64.0762 91.0572 65.7046 89.6858 67.8298 88.4321C71.7399 86.1257 77.3336 84.2211 84.3825 85.3882L79.7985 80.8032L79.3219 80.7446ZM57.5632 77.8061C55.191 76.3269 51.7496 75.3091 47.3727 77.1479L45.0348 79.4849C51.5738 78.9427 55.8196 80.705 58.4743 82.7397C59.6986 83.6782 60.5726 84.6662 61.1735 85.4917V81.1421C61.1383 81.0937 61.0943 81.0326 61.0407 80.9624C60.8828 80.7557 60.6451 80.4612 60.3307 80.1186C59.7002 79.4316 58.7686 78.5578 57.5632 77.8061ZM75.8522 77.0268C71.6152 75.3539 68.2746 76.3603 65.9557 77.8061C64.7504 78.5577 63.8187 79.4316 63.1882 80.1186C62.8737 80.4613 62.6351 80.7557 62.4772 80.9624C62.4239 81.0322 62.3801 81.0928 62.3454 81.1411V85.4907C62.9463 84.6653 63.8206 83.6779 65.0446 82.7397C67.699 80.7052 71.9434 78.9432 78.4811 79.4849L76.1423 77.146L75.8522 77.0268ZM59.11 72.2036C57.709 71.2982 55.5696 70.6704 52.5807 71.9399L49.2038 75.3169C52.9416 74.4359 55.9855 75.4416 58.1833 76.812C59.4878 77.6255 60.4922 78.5648 61.1735 79.3042V74.2593C61.1599 74.238 61.1449 74.214 61.1276 74.188C61.0414 74.0585 60.9087 73.8723 60.7301 73.6558C60.3711 73.2206 59.8316 72.67 59.11 72.2036ZM70.7487 71.8638C67.8557 70.6963 65.7766 71.317 64.4059 72.2036C63.685 72.6699 63.1463 73.2196 62.7878 73.6548C62.6091 73.8716 62.4765 74.0584 62.3903 74.188C62.3733 74.2136 62.3587 74.2374 62.3454 74.2583V79.3042C63.0267 78.5648 64.0311 77.6255 65.3356 76.812C67.5329 75.442 70.5757 74.436 74.3122 75.3159L70.9401 71.9438L70.7487 71.8638ZM54.3346 70.186C56.6302 69.7711 58.4376 70.3731 59.7467 71.2192C60.3245 71.5927 60.7987 72.0097 61.1735 72.396V63.3462L54.3346 70.186ZM62.3454 72.394C62.7195 72.0083 63.1928 71.5921 63.7692 71.2192C65.0784 70.3724 66.8858 69.7693 69.1833 70.186L62.3454 63.3472V72.394Z" fill="url(#paint4_linear_265_8834)"/>
<path fill-rule="evenodd" clip-rule="evenodd" d="M100.144 60.9783V0H100.831V60.9783H100.144Z" fill="#4A90EB"/>
<path d="M105.889 57.1741C106.022 56.9687 106.286 56.8782 106.522 56.971C106.759 57.0639 106.892 57.3098 106.85 57.5511L106.82 57.6536L106.117 59.4476C106.061 59.5906 105.944 59.702 105.799 59.7523L103.507 60.5443C103.583 60.8497 103.637 61.17 103.668 61.5013L105.594 61.0628L105.67 61.0501C105.849 61.0336 106.029 61.1014 106.153 61.2357L107.812 63.0238L107.885 63.1185C108.026 63.3512 107.989 63.6594 107.782 63.8519C107.575 64.0443 107.265 64.0579 107.043 63.8997L106.954 63.8206L105.523 62.2806L103.674 62.7015C103.649 62.9962 103.608 63.2827 103.548 63.5579L104.906 63.2484L104.988 63.2357C105.182 63.2198 105.373 63.3005 105.496 63.4554L106.865 65.1849L106.929 65.2855C107.051 65.5286 106.991 65.8323 106.769 66.0081C106.548 66.1838 106.238 66.1734 106.029 65.9984L105.946 65.9124L104.806 64.473L103.097 64.8626C102.948 65.1647 102.775 65.4396 102.582 65.682C102.695 65.9599 102.759 66.2649 102.759 66.5853C102.759 67.8755 101.742 68.9221 100.487 68.9222C99.2326 68.9222 98.2157 67.8755 98.2157 66.5853C98.2158 66.2648 98.277 65.959 98.3906 65.681C98.1969 65.4376 98.0231 65.1614 97.8739 64.8577L96.1845 64.473L95.0439 65.9124L94.9618 65.9984C94.7532 66.1737 94.4426 66.1839 94.2206 66.0081C93.9673 65.8071 93.9251 65.4385 94.1259 65.1849L95.495 63.4554L95.5517 63.3939C95.6925 63.2607 95.8924 63.2045 96.0849 63.2484L97.4247 63.554C97.3648 63.2787 97.3228 62.9923 97.2988 62.6976L95.4657 62.2796L94.037 63.8206C93.8169 64.0576 93.4461 64.0719 93.2089 63.8519C92.9718 63.6318 92.9578 63.261 93.1777 63.0238L94.8378 61.2357L94.8935 61.182C95.0325 61.0671 95.2188 61.0221 95.3974 61.0628L97.3056 61.4974C97.3368 61.1657 97.3913 60.8451 97.4677 60.5394L95.1913 59.7523C95.0824 59.7145 94.9899 59.6421 94.9267 59.5482L94.8739 59.4476L94.1698 57.6536L94.1415 57.5511C94.0995 57.3098 94.2308 57.064 94.4677 56.971C94.7045 56.8782 94.9682 56.9688 95.1015 57.1741L95.1503 57.2689L95.7646 58.8353L97.8134 59.5443C98.3893 58.288 99.3723 57.4613 100.487 57.4613C101.603 57.4614 102.587 58.2904 103.162 59.5491L105.225 58.8363L105.84 57.2689L105.889 57.1741Z" fill="#99CAF7"/>
<path d="M151.091 52.1714C151.121 52.1164 151.14 52.0556 151.145 51.9929C151.15 51.9303 151.142 51.8672 151.121 51.8078C151.101 51.7485 151.068 51.6942 151.024 51.6486C150.981 51.6029 150.929 51.567 150.87 51.543C149.173 50.8663 143.169 48.8577 139.887 52.9072C137.692 55.5686 134.589 57.323 131.176 57.8321C131.09 57.8436 131.01 57.8808 130.946 57.9388C130.881 57.9968 130.836 58.0729 130.816 58.1571C130.795 58.2413 130.801 58.3297 130.832 58.4107C130.863 58.4916 130.917 58.5614 130.988 58.6108C133.888 60.6678 143.47 65.9095 151.091 52.1714Z" fill="#99CAF7"/>
<path d="M23.9061 80.571C23.9303 80.5268 23.9449 80.4779 23.949 80.4276C23.9532 80.3773 23.9466 80.3267 23.9299 80.2791C23.9132 80.2315 23.8867 80.188 23.852 80.1513C23.8174 80.1146 23.7754 80.0856 23.7289 80.0662C22.3701 79.5291 17.5419 77.9179 14.9049 81.1403C13.1453 83.2755 10.6588 84.6851 7.92304 85.0985C7.85435 85.1077 7.79005 85.1375 7.73858 85.1839C7.6871 85.2303 7.65086 85.2911 7.6346 85.3585C7.61833 85.4259 7.62282 85.4966 7.64746 85.5614C7.6721 85.6261 7.71574 85.682 7.77266 85.7215C10.0874 87.3971 17.7835 91.6077 23.9061 80.571Z" fill="#99CAF7"/>
<path d="M137.88 74.4789C137.86 74.4421 137.847 74.4013 137.844 74.3592C137.84 74.3172 137.846 74.2749 137.86 74.2353C137.874 74.1956 137.897 74.1594 137.926 74.1292C137.956 74.0989 137.991 74.0753 138.031 74.06C139.169 73.6035 143.202 72.2554 145.404 74.973C146.88 76.7607 148.966 77.9392 151.258 78.2813C151.319 78.2869 151.377 78.3115 151.423 78.3517C151.469 78.3919 151.501 78.4456 151.515 78.5051C151.528 78.5646 151.523 78.627 151.499 78.6832C151.475 78.7395 151.434 78.7868 151.382 78.8184C149.438 80.2094 142.998 83.7271 137.88 74.4789Z" fill="#99CAF7"/>
<path d="M0.059962 57.0493C0.0268142 56.9879 0.00689842 56.9202 0.0014982 56.8507C-0.00390202 56.7811 0.00533317 56.7112 0.0286085 56.6454C0.0518839 56.5796 0.0886831 56.5194 0.136634 56.4687C0.184585 56.4181 0.242625 56.378 0.307012 56.3511C2.18674 55.6046 8.84097 53.3811 12.4769 57.8602C14.9124 60.8134 18.3572 62.7578 22.1441 63.3168C22.2387 63.3308 22.3271 63.3729 22.3976 63.4376C22.4681 63.5023 22.5176 63.5867 22.5395 63.6799C22.5615 63.7731 22.555 63.8707 22.5209 63.9601C22.4868 64.0495 22.4266 64.1267 22.3481 64.1815C19.1204 66.4587 8.50261 72.2697 0.059962 57.0493Z" fill="#99CAF7"/>
<path d="M22.953 40.7765C22.6382 39.5418 23.778 38.4293 25.0047 38.7741L27.5794 39.4976C28.8061 39.8423 29.1996 41.3857 28.2877 42.2757L26.3738 44.1436C25.4619 45.0336 23.9285 44.6027 23.6137 43.368L22.953 40.7765Z" fill="#69ADF1"/>
<path d="M133.486 19.1432C133.975 17.1163 136.858 17.1163 137.347 19.1432L137.397 19.35C137.572 20.0743 138.138 20.6399 138.862 20.8147L139.069 20.8646C141.096 21.3539 141.096 24.237 139.069 24.7263L138.862 24.7762C138.138 24.951 137.572 25.5166 137.397 26.2409L137.347 26.4477C136.858 28.4746 133.975 28.4746 133.486 26.4477L133.436 26.2409C133.261 25.5166 132.695 24.951 131.971 24.7762L131.764 24.7263C129.737 24.237 129.737 21.3539 131.764 20.8646L131.971 20.8147C132.695 20.6399 133.261 20.0743 133.436 19.35L133.486 19.1432Z" fill="#69ADF1"/>
<path d="M50.1927 134.697C50.682 132.67 53.5651 132.67 54.0544 134.697L54.1043 134.904C54.2792 135.628 54.8447 136.194 55.5691 136.368L55.7758 136.418C57.8028 136.908 57.8028 139.791 55.7758 140.28L55.5691 140.33C54.8447 140.505 54.2792 141.07 54.1043 141.795L54.0544 142.001C53.5651 144.028 50.682 144.028 50.1927 142.001L50.1428 141.795C49.968 141.07 49.4024 140.505 48.6781 140.33L48.4713 140.28C46.4444 139.791 46.4444 136.908 48.4713 136.418L48.6781 136.368C49.4024 136.194 49.968 135.628 50.1428 134.904L50.1927 134.697Z" fill="#69ADF1"/>
<path d="M32.7266 123.247C33.9176 123.247 34.8828 124.213 34.8828 125.404C34.8827 126.595 33.9175 127.56 32.7266 127.561C31.5355 127.561 30.5695 126.595 30.5693 125.404C30.5693 124.213 31.5354 123.247 32.7266 123.247Z" stroke="#69ADF1" stroke-width="2.48287"/>
<circle cx="36.8328" cy="20.4084" r="2.15675" stroke="#A5CBF6" stroke-width="2.48287"/>
<circle cx="143.001" cy="120.125" r="2.15675" stroke="#A5CBF6" stroke-width="2.48287"/>
<defs>
<linearGradient id="paint0_linear_265_8834" x1="77.9056" y1="-16.0422" x2="79.2838" y2="220.234" gradientUnits="userSpaceOnUse">
<stop stop-color="#DDECFC" stop-opacity="0.25"/>
<stop offset="1" stop-color="#69ADF1" stop-opacity="0.5"/>
</linearGradient>
<linearGradient id="paint1_linear_265_8834" x1="95.1552" y1="111.871" x2="151.723" y2="118.375" gradientUnits="userSpaceOnUse">
<stop offset="0.0844027" stop-color="#8CBAF3"/>
<stop offset="1" stop-color="#E8F1FB"/>
</linearGradient>
<linearGradient id="paint2_linear_265_8834" x1="121.419" y1="149.281" x2="13.5594" y2="3.79206" gradientUnits="userSpaceOnUse">
<stop stop-color="#99CAF7"/>
<stop offset="0.70369" stop-color="#285CCD"/>
</linearGradient>
<linearGradient id="paint3_linear_265_8834" x1="93.8503" y1="100.009" x2="68.9507" y2="26.8049" gradientUnits="userSpaceOnUse">
<stop stop-color="#69ADF1"/>
<stop offset="1" stop-color="#C3DEFA"/>
</linearGradient>
<linearGradient id="paint4_linear_265_8834" x1="134.698" y1="141.725" x2="65.8848" y2="48.7356" gradientUnits="userSpaceOnUse">
<stop stop-color="#ACCFF7"/>
<stop offset="1" stop-color="#DAEBFF"/>
</linearGradient>
</defs>
</svg>
