<svg width="20" height="20" viewBox="0 0 20 20" fill="none" xmlns="http://www.w3.org/2000/svg">
<path d="M14.2186 7.57812C13.3141 7.57812 12.5781 8.31406 12.5781 9.21863C12.5781 10.4193 13.8307 11.211 14.9116 10.7051L14.6234 10.4169C14.3945 10.1881 14.3945 9.81707 14.6234 9.58824C14.8521 9.35945 15.2232 9.35945 15.452 9.58824L15.727 9.8632C16.1895 8.7852 15.3937 7.57812 14.2186 7.57812Z" fill="#4A90EB"/>
<path d="M18.2421 2.75391H1.75781C0.788555 2.75391 0 3.54246 0 4.51172V13.926C0 14.8953 0.788555 15.6838 1.75781 15.6838H8.53516L9.53125 17.0119C9.7657 17.3245 10.2348 17.3239 10.4688 17.0119L11.4648 15.6838H18.2421C19.2114 15.6838 20 14.8953 20 13.926V4.51172C20 3.54246 19.2114 2.75391 18.2421 2.75391ZM5.18699 8.60734C5.51059 8.60734 5.77293 8.86969 5.77293 9.19328C5.77293 9.51687 5.51059 9.77922 5.18699 9.77922H4.12367V11.4452C4.12367 11.7688 3.86129 12.0312 3.53773 12.0312C3.21414 12.0312 2.9518 11.7688 2.9518 11.4452V7.025C2.9518 6.70141 3.21414 6.43906 3.53773 6.43906H5.32926C5.65285 6.43906 5.9152 6.70141 5.9152 7.025C5.9152 7.34859 5.65285 7.61094 5.32926 7.61094H4.12367V8.60734H5.18699ZM10.4609 11.9934C10.158 12.1078 9.82008 11.9548 9.70582 11.6521L9.43621 10.9378H7.55871L7.28598 11.6538C7.17059 11.9567 6.83164 12.1078 6.52988 11.9928C6.2275 11.8777 6.0757 11.5391 6.19086 11.2367L7.86289 6.84652C7.9584 6.59234 8.20805 6.40672 8.50324 6.40641C8.63957 6.40594 8.77292 6.4462 8.88621 6.52202C8.9995 6.59785 9.08756 6.70579 9.1391 6.83199C9.14477 6.84578 9.07051 6.64945 10.8023 11.2384C10.9165 11.5411 10.7636 11.8792 10.4609 11.9934ZM16.8767 11.8416C16.6479 12.0704 16.2769 12.0704 16.0481 11.8416L15.7698 11.5633C15.3248 11.8586 14.7917 12.0312 14.2188 12.0312C12.668 12.0312 11.4064 10.7696 11.4064 9.21883C11.4064 7.66809 12.668 6.40645 14.2188 6.40645C15.7695 6.40645 17.0312 7.66809 17.0312 9.21883C17.0312 9.77352 16.8691 10.2908 16.5907 10.727L16.8767 11.0129C17.1055 11.2418 17.1055 11.6128 16.8767 11.8416Z" fill="#4A90EB"/>
<path d="M8.00488 9.76629H8.99387L8.50164 8.46191L8.00488 9.76629Z" fill="#4A90EB"/>
</svg>
