<svg width="170" height="101" viewBox="0 0 170 101" fill="none" xmlns="http://www.w3.org/2000/svg">
<g clip-path="url(#clip0_1528_5908)">
<path d="M86.5 101C114.39 101 137 78.3904 137 50.5C137 22.6096 114.39 0 86.5 0C58.6096 0 36 22.6096 36 50.5C36 78.3904 58.6096 101 86.5 101Z" fill="#22C55E"/>
<path d="M136.459 57.9173C133.672 76.8548 120.374 92.3677 102.685 98.3567L57.626 53.2894L67.3906 43.5248L78.2698 54.4059L105.609 27.0669L136.459 57.9173Z" fill="url(#paint0_linear_1528_5908)"/>
<path d="M115.374 36.8296L88.0345 64.1706L86.4997 65.7053L78.2698 73.9333L68.5052 64.1706L57.626 53.2894L67.3906 43.5248L78.2698 54.4059L86.4997 46.176L105.609 27.0669L115.374 36.8296Z" fill="#FFF5F5"/>
</g>
<path d="M7 0L8.89064 5.10936L14 7L8.89064 8.89064L7 14L5.10936 8.89064L0 7L5.10936 5.10936L7 0Z" fill="#F79009"/>
<path d="M26.5 77L25.5547 79.5547L23 80.5L25.5547 81.4453L26.5 84L27.4453 81.4453L30 80.5L27.4453 79.5547L26.5 77Z" fill="#F79009"/>
<path d="M165.5 52L164.285 55.2846L161 56.5L164.285 57.7154L165.5 61L166.715 57.7154L170 56.5L166.715 55.2846L165.5 52Z" fill="#F79009"/>
<defs>
<linearGradient id="paint0_linear_1528_5908" x1="76.1768" y1="34.7386" x2="124.927" y2="83.4888" gradientUnits="userSpaceOnUse">
<stop stop-color="#16A34A"/>
<stop offset="1" stop-color="#22C55E"/>
</linearGradient>
<clipPath id="clip0_1528_5908">
<rect width="101" height="101" fill="white" transform="translate(36)"/>
</clipPath>
</defs>
</svg>
