<svg width="72" height="72" viewBox="0 0 72 72" fill="none" xmlns="http://www.w3.org/2000/svg">
<rect width="72" height="72" rx="36" fill="#DDECFC"/>
<path d="M54.8438 24H12.4688V52.5H54.8438V24Z" fill="#3B78C8"/>
<path d="M52.3783 52.4999L33.6564 30.478L14.9346 52.4999H52.3783Z" fill="#80ADE8"/>
<path d="M33.6562 33.375L50.625 52.5H16.6875L33.6562 33.375Z" fill="#3B78C8"/>
<path d="M33.6562 45.5625L12.4688 26.4375V24H54.8438V26.4375L33.6562 45.5625Z" fill="#80ADE8"/>
<path d="M33.6562 43.125L12.4688 24H54.8438L33.6562 43.125Z" fill="#C3DEFA"/>
<path d="M44.5312 26.0625C44.5312 30.7219 48.3094 34.5 52.9688 34.5C53.6156 34.5 54.2437 34.425 54.8438 34.2938V24H44.7844C44.6156 24.6562 44.5312 25.35 44.5312 26.0625Z" fill="#80ADE8"/>
<path d="M44.7844 24C44.6156 24.6562 44.5312 25.35 44.5312 26.0625C44.5312 28.1344 45.2812 30.0375 46.5281 31.5094L54.8438 24H44.7844Z" fill="#3B78C8"/>
<path d="M52.9688 32.625C56.5931 32.625 59.5312 29.6869 59.5312 26.0625C59.5312 22.4381 56.5931 19.5 52.9688 19.5C49.3444 19.5 46.4062 22.4381 46.4062 26.0625C46.4062 29.6869 49.3444 32.625 52.9688 32.625Z" fill="#FCC01E"/>
<path d="M56.2879 20.3999C56.8598 21.3749 57.1879 22.5093 57.1879 23.7187C57.1879 27.3468 54.2535 30.2812 50.6254 30.2812C49.416 30.2812 48.2816 29.953 47.3066 29.3812C48.4504 31.3218 50.5504 32.6249 52.9691 32.6249C56.5973 32.6249 59.5316 29.6905 59.5316 26.0624C59.5316 23.653 58.2285 21.5437 56.2879 20.3999Z" fill="#FCC01E"/>
<path d="M50.625 27C52.4372 27 53.9062 25.5309 53.9062 23.7188C53.9062 21.9066 52.4372 20.4375 50.625 20.4375C48.8128 20.4375 47.3438 21.9066 47.3438 23.7188C47.3438 25.5309 48.8128 27 50.625 27Z" fill="#FCC01E"/>
<path d="M52.9688 31.2187C50.1281 31.2187 47.8125 28.9031 47.8125 26.0625C47.8125 24.6656 48.3563 23.3625 49.3594 22.3875C50.3531 21.4125 51.6656 20.8875 53.0625 20.9062C54.4406 20.9344 55.7344 21.4969 56.6906 22.5094C57.6563 23.5219 58.1625 24.8437 58.1156 26.2312C58.0781 27.4406 57.6188 28.6031 56.8219 29.4937C56.4281 29.9344 55.8281 30.0844 55.275 29.8687C54.7219 29.6625 54.3656 29.1469 54.3656 28.5562V28.4062H52.9594C51.6656 28.4062 50.6156 27.3562 50.6156 26.0625C50.6156 24.7687 51.6656 23.7187 52.9594 23.7187C54.2531 23.7187 55.3031 24.7687 55.3031 26.0625V28.5562C55.3031 28.8562 55.5375 28.9687 55.6031 28.9969C55.6781 29.025 55.9219 29.0906 56.1188 28.875C56.7656 28.1437 57.1406 27.1969 57.1781 26.2031C57.2156 25.0687 56.7937 23.9906 56.0062 23.1562C55.2187 22.3312 54.1594 21.8625 53.0344 21.8437C51.8906 21.825 50.8125 22.2562 50.0062 23.0531C49.1906 23.85 48.7406 24.9187 48.7406 26.0625C48.7406 28.3875 50.6344 30.2812 52.9594 30.2812V31.2187H52.9688ZM52.9688 24.6562C52.1906 24.6562 51.5625 25.2844 51.5625 26.0625C51.5625 26.8406 52.1906 27.4687 52.9688 27.4687H54.375V26.0625C54.375 25.2844 53.7469 24.6562 52.9688 24.6562Z" fill="#3B78C8"/>
</svg>
