<svg width="35" height="36" viewBox="0 0 35 36" fill="none" xmlns="http://www.w3.org/2000/svg">
<path d="M34.8342 16.4771L32.5762 14.2271C32.5238 14.1748 32.4616 14.1334 32.3931 14.1051C32.3246 14.0768 32.2512 14.0623 32.1771 14.0623C32.1029 14.0623 32.0295 14.0768 31.961 14.1051C31.8926 14.1334 31.8303 14.1748 31.7779 14.2271L29.5199 16.4771C29.4674 16.5293 29.4258 16.5913 29.3975 16.6595C29.3691 16.7277 29.3545 16.8009 29.3545 16.8748V22.4998C29.3545 22.5737 29.3691 22.6468 29.3974 22.7151C29.4258 22.7833 29.4674 22.8453 29.5198 22.8976C29.5722 22.9498 29.6345 22.9912 29.703 23.0195C29.7715 23.0478 29.8449 23.0623 29.919 23.0623H34.4351C34.5093 23.0623 34.5827 23.0478 34.6512 23.0195C34.7197 22.9912 34.7819 22.9498 34.8344 22.8976C34.8868 22.8453 34.9284 22.7833 34.9567 22.7151C34.9851 22.6468 34.9997 22.5737 34.9997 22.4998V16.8748C34.9997 16.8009 34.9851 16.7277 34.9567 16.6595C34.9283 16.5913 34.8867 16.5293 34.8342 16.4771Z" fill="#FFC542"/>
<path d="M24.8389 9.56226H7.90338C7.82924 9.56224 7.75583 9.57677 7.68733 9.60504C7.61883 9.6333 7.55659 9.67473 7.50417 9.72697C7.45174 9.7792 7.41016 9.84122 7.3818 9.90948C7.35344 9.97773 7.33885 10.0509 7.33887 10.1248V18.5623C7.33884 18.6694 7.36949 18.7742 7.42721 18.8645C7.48492 18.9548 7.56731 19.0268 7.66468 19.0721L16.1324 23.0096C16.2072 23.0443 16.2886 23.0623 16.3711 23.0623C16.4536 23.0623 16.5351 23.0443 16.6098 23.0096L25.0776 19.0721C25.1749 19.0268 25.2573 18.9548 25.315 18.8645C25.3728 18.7742 25.4034 18.6694 25.4034 18.5623V10.1248C25.4034 10.0509 25.3888 9.97773 25.3605 9.90948C25.3321 9.84122 25.2905 9.7792 25.2381 9.72697C25.1857 9.67473 25.1234 9.6333 25.0549 9.60504C24.9864 9.57677 24.913 9.56224 24.8389 9.56226Z" fill="#285CCD"/>
<path d="M24.8389 9.56226H7.90338C7.82924 9.56224 7.75583 9.57677 7.68733 9.60504C7.61883 9.6333 7.55659 9.67473 7.50417 9.72697C7.45174 9.7792 7.41016 9.84122 7.3818 9.90948C7.35344 9.97773 7.33885 10.0509 7.33887 10.1248V15.5458L16.1324 19.6346C16.2072 19.6693 16.2886 19.6873 16.3711 19.6873C16.4536 19.6873 16.5351 19.6693 16.6098 19.6346L25.4034 15.5457V10.1248C25.4034 10.0509 25.3888 9.97773 25.3605 9.90948C25.3321 9.84122 25.2905 9.7792 25.2381 9.72697C25.1857 9.67473 25.1234 9.6333 25.0549 9.60504C24.9864 9.57677 24.913 9.56224 24.8389 9.56226Z" fill="#3172DF"/>
<path d="M32.415 7.36445L16.6086 0.0519093C16.5341 0.0177093 16.453 0 16.371 0C16.2889 0 16.2079 0.0177093 16.1334 0.0519093L0.326913 7.36445C0.229269 7.40961 0.146615 7.48164 0.0886947 7.57205C0.0307739 7.66247 0 7.7675 0 7.87477C0 7.98203 0.0307739 8.08706 0.0886947 8.17748C0.146615 8.26789 0.229269 8.33993 0.326913 8.38509L16.1334 15.6976C16.2078 15.732 16.2889 15.7498 16.371 15.7498C16.453 15.7498 16.5341 15.732 16.6086 15.6976L32.415 8.38509C32.5127 8.33993 32.5953 8.26789 32.6532 8.17748C32.7112 8.08706 32.7419 7.98203 32.7419 7.87477C32.7419 7.7675 32.7112 7.66247 32.6532 7.57205C32.5953 7.48164 32.5127 7.40961 32.415 7.36445Z" fill="#4A90EB"/>
<path d="M32.1776 12.9373C32.1035 12.9373 32.0301 12.9228 31.9616 12.8945C31.8931 12.8662 31.8308 12.8248 31.7784 12.7726C31.726 12.7203 31.6844 12.6583 31.656 12.5901C31.6277 12.5218 31.6131 12.4487 31.6131 12.3748V8.43726H16.3712C16.2214 8.43726 16.0779 8.378 15.972 8.27251C15.8661 8.16702 15.8066 8.02394 15.8066 7.87476C15.8066 7.72557 15.8661 7.5825 15.972 7.47701C16.0779 7.37152 16.2214 7.31226 16.3712 7.31226H32.1776C32.2517 7.31224 32.3252 7.32677 32.3937 7.35503C32.4622 7.3833 32.5244 7.42473 32.5768 7.47697C32.6292 7.5292 32.6708 7.59122 32.6992 7.65948C32.7276 7.72773 32.7421 7.80088 32.7421 7.87476V12.3748C32.7421 12.4487 32.7276 12.5218 32.6992 12.5901C32.6708 12.6583 32.6292 12.7203 32.5768 12.7726C32.5244 12.8248 32.4622 12.8662 32.3937 12.8945C32.3252 12.9228 32.2517 12.9373 32.1776 12.9373Z" fill="#FFC542"/>
<path d="M32.177 16.3123C33.4241 16.3123 34.4351 15.3049 34.4351 14.0623C34.4351 12.8196 33.4241 11.8123 32.177 11.8123C30.9299 11.8123 29.9189 12.8196 29.9189 14.0623C29.9189 15.3049 30.9299 16.3123 32.177 16.3123Z" fill="#F98D07"/>
<path d="M27.5329 33.73C26.7768 33.5246 25.9675 31.675 25.9675 29.2498C25.9675 26.8245 26.7768 24.975 27.5329 24.7695C27.6718 24.7318 27.791 24.6425 27.866 24.5201C27.9411 24.3976 27.9664 24.2512 27.9367 24.1108C27.907 23.9704 27.8246 23.8466 27.7064 23.7647C27.5881 23.6828 27.4429 23.6491 27.3005 23.6704L16.3707 25.3062L5.43735 23.6698L5.1606 23.6303C5.13403 23.6265 5.10723 23.6247 5.08039 23.6248C3.47119 23.6248 2.25781 26.0429 2.25781 29.2498C2.25781 32.4567 3.47119 34.8748 5.08039 34.8748C5.10723 34.8749 5.13403 34.8731 5.1606 34.8693L16.3707 33.1933L27.3005 34.8293C27.4429 34.8505 27.5881 34.8168 27.7063 34.7349C27.8246 34.653 27.907 34.5292 27.9367 34.3888C27.9664 34.2484 27.9411 34.102 27.866 33.9795C27.791 33.8571 27.6718 33.7678 27.5329 33.73Z" fill="#DBEDFF"/>
<path d="M18.6286 24.1873H14.1124C13.8131 24.1876 13.5261 24.3062 13.3145 24.5171C13.1028 24.728 12.9837 25.014 12.9834 25.3123V35.4373C12.9834 35.5292 13.006 35.6198 13.0493 35.701C13.0925 35.7822 13.1551 35.8516 13.2315 35.9031C13.3079 35.9547 13.3958 35.9868 13.4875 35.9967C13.5792 36.0065 13.672 35.9938 13.7577 35.9597L16.3705 34.9182L18.9833 35.9597C19.069 35.9938 19.1617 36.0065 19.2535 35.9967C19.3452 35.9868 19.4331 35.9547 19.5095 35.9031C19.5859 35.8516 19.6485 35.7822 19.6917 35.701C19.735 35.6198 19.7576 35.5292 19.7576 35.4373V25.3123C19.7572 25.014 19.6382 24.728 19.4265 24.5171C19.2149 24.3062 18.9279 24.1876 18.6286 24.1873Z" fill="#4A90EB"/>
<path d="M27.6614 23.6248C27.6346 23.6247 27.6078 23.6265 27.5812 23.6303L27.3045 23.6698C27.2814 23.6732 27.2586 23.678 27.2361 23.6841C25.8246 24.0681 24.8389 26.3565 24.8389 29.2498C24.8389 32.143 25.8246 34.4315 27.2361 34.8155C27.2586 34.8216 27.2814 34.8264 27.3045 34.8298L27.5812 34.8693C27.6078 34.8731 27.6346 34.8749 27.6614 34.8748C29.2707 34.8748 30.484 32.4567 30.484 29.2498C30.484 26.0429 29.2707 23.6248 27.6614 23.6248Z" fill="#B7CDED"/>
<path d="M26.5324 28.6873H24.8521C24.8437 28.872 24.8389 29.0594 24.8389 29.2498C24.8389 32.143 25.8246 34.4315 27.2361 34.8155C27.2586 34.8216 27.2814 34.8264 27.3045 34.8297L27.5812 34.8693C27.6078 34.873 27.6346 34.8749 27.6614 34.8748C27.8544 34.8741 28.0457 34.8386 28.226 34.77V30.3748C28.2255 29.9274 28.0469 29.4984 27.7294 29.1821C27.4119 28.8657 26.9814 28.6877 26.5324 28.6873Z" fill="#9EAFDB"/>
</svg>
