<svg width="41" height="40" viewBox="0 0 41 40" fill="none" xmlns="http://www.w3.org/2000/svg">
<path d="M0.5 8C0.5 3.58172 4.08172 0 8.5 0H32.5C36.9183 0 40.5 3.58172 40.5 8V32C40.5 36.4183 36.9183 40 32.5 40H8.5C4.08172 40 0.5 36.4183 0.5 32V8Z" fill="#4A90EB"/>
<path fill-rule="evenodd" clip-rule="evenodd" d="M21.0919 12.2167C20.9966 12.2167 20.9023 12.2355 20.8143 12.272C20.7263 12.3084 20.6463 12.3618 20.579 12.4292C20.5116 12.4966 20.4582 12.5765 20.4217 12.6645C20.3853 12.7525 20.3665 12.8469 20.3665 12.9421V20.5C20.3665 20.836 20.0942 21.1084 19.7582 21.1084C19.4222 21.1084 19.1498 20.836 19.1498 20.5V14.7204C19.1498 14.5281 19.0734 14.3436 18.9373 14.2075C18.8013 14.0715 18.6168 13.9951 18.4244 13.9951C18.232 13.9951 18.0475 14.0715 17.9115 14.2075C17.7755 14.3436 17.699 14.5281 17.699 14.7204L17.699 21.3892C17.699 21.6352 17.5508 21.8571 17.3235 21.9512C17.0961 22.0454 16.8345 21.9933 16.6605 21.8193L15.3537 20.5125C15.1878 20.347 14.9712 20.2413 14.7386 20.2128C14.5059 20.1842 14.2704 20.2342 14.0693 20.3548C13.9073 20.4519 13.7894 20.6086 13.741 20.7912C13.6926 20.9738 13.7173 21.1681 13.8099 21.3327C15.4873 24.3144 16.4477 25.9875 16.7113 26.3921C16.7686 26.4803 16.8265 26.5689 16.8842 26.6568C17.3147 27.3103 17.9007 27.8467 18.5897 28.2179C19.2784 28.5889 20.0483 28.7831 20.8306 28.7833C20.8311 28.7833 20.8316 28.7833 20.8322 28.7833H22.4256C23.6792 28.7833 24.8814 28.2853 25.7679 27.3989C26.6543 26.5125 27.1522 25.3102 27.1522 24.0567V16.4988C27.1522 16.3064 27.0758 16.1219 26.9398 15.9859C26.8038 15.8498 26.6193 15.7734 26.4269 15.7734C26.2345 15.7734 26.05 15.8498 25.914 15.9859C25.7785 16.1213 25.7022 16.3048 25.7015 16.4963C25.7015 16.4971 25.7015 16.4979 25.7015 16.4988V20.5C25.7015 20.836 25.4291 21.1084 25.0931 21.1084C24.7571 21.1084 24.4848 20.836 24.4848 20.5V16.4988C24.4848 16.4974 24.4848 16.496 24.4848 16.4947L24.4848 14.7204C24.4848 14.5281 24.4083 14.3436 24.2723 14.2075C24.1363 14.0715 23.9518 13.9951 23.7594 13.9951C23.567 13.9951 23.3825 14.0715 23.2465 14.2075C23.1216 14.3324 23.0469 14.4982 23.0355 14.6734C23.0366 14.6567 23.0366 14.6854 23.0364 14.7765C23.0363 14.8063 23.0362 14.8427 23.0362 14.8864L23.0343 17.7015L23.0342 17.728L23.0342 17.7309L23.034 17.7392C23.034 17.7393 23.034 17.7392 23.034 17.7392L23.034 20.5C23.034 20.836 22.7616 21.1084 22.4256 21.1084C22.0896 21.1084 21.8173 20.836 21.8173 20.5V12.9421C21.8173 12.8469 21.7985 12.7525 21.7621 12.6645C21.7256 12.5765 21.6722 12.4966 21.6048 12.4292C21.5375 12.3618 21.4575 12.3084 21.3695 12.272C21.2815 12.2355 21.1872 12.2167 21.0919 12.2167ZM23.0342 17.7193C23.0342 17.7208 23.0342 17.7206 23.0342 17.7193V17.7193ZM23.0339 12.9189C23.0309 12.6718 22.9808 12.4274 22.8862 12.1989C22.7886 11.9633 22.6455 11.7492 22.4652 11.5688C22.2848 11.3885 22.0707 11.2454 21.8351 11.1478C21.5995 11.0502 21.3469 11 21.0919 11C20.8369 11 20.5843 11.0502 20.3487 11.1478C20.1131 11.2454 19.899 11.3885 19.7186 11.5688C19.5383 11.7492 19.3952 11.9633 19.2976 12.1989C19.203 12.4274 19.1529 12.6718 19.1499 12.9189C18.9215 12.8269 18.6755 12.7783 18.4244 12.7783C17.9093 12.7783 17.4153 12.9829 17.0511 13.3472C16.6869 13.7114 16.4823 14.2054 16.4823 14.7204L16.4823 19.9204L16.2138 19.6519C15.856 19.2945 15.3888 19.0667 14.8869 19.0051C14.3851 18.9435 13.8771 19.0512 13.4435 19.3113M23.0339 12.9189C23.2623 12.8269 23.5083 12.7783 23.7594 12.7783C24.2745 12.7783 24.7685 12.9829 25.1327 13.3472C25.4914 13.7059 25.6953 14.1906 25.7014 14.6973C25.9298 14.6053 26.1758 14.5567 26.4269 14.5567C26.942 14.5567 27.4359 14.7613 27.8002 15.1255C28.1644 15.4897 28.369 15.9837 28.369 16.4988V24.0567C28.369 25.6329 27.7428 27.1446 26.6282 28.2592C25.5136 29.3738 24.0019 30 22.4256 30H20.8324C20.8323 30 20.8324 30 20.8324 30H20.6473C20.6177 30 20.5887 29.9979 20.5602 29.9938C19.6701 29.9532 18.7992 29.7128 18.0126 29.2891C17.1461 28.8223 16.409 28.1475 15.8677 27.3255C15.8088 27.2359 15.7498 27.1455 15.6913 27.0556C15.3995 26.6074 14.4128 24.8859 12.7495 21.9293C12.5015 21.4885 12.4352 20.9683 12.5648 20.4794C12.6944 19.9906 13.0098 19.5714 13.4435 19.3113" fill="#EFF0FA"/>
</svg>
