<svg width="64" height="64" viewBox="0 0 64 64" fill="none" xmlns="http://www.w3.org/2000/svg">
<g clip-path="url(#clip0_663_2920)">
<path d="M9.19403 16.574C9.20158 16.5684 9.20912 16.5665 9.21666 16.5608L9.21572 16.558L9.19403 16.574Z" fill="#F98D07"/>
<path d="M14.409 13.7268C12.8835 12.2014 11.2458 12.4588 9.98247 13.7221L8.17039 36.9718C8.17039 37.1924 8.19019 37.4102 8.20245 37.6299L21.2453 24.587C15.7873 26.0116 17.3911 21.455 15.4979 20.2765C15.4988 20.2756 17.59 16.9079 14.409 13.7268Z" fill="#F98D07"/>
<path d="M55.3132 28.2322C54.2714 27.1904 52.5837 27.1904 51.5419 28.2322L43.8335 35.9406L42.9765 34.912L55.7846 22.104C57.0866 20.8019 57.0866 18.6919 55.7846 17.3899C54.4825 16.0879 52.3725 16.0879 51.0705 17.3899L38.6886 29.7718L37.8316 28.7432L51.0705 15.5043C52.3725 14.2023 52.3725 12.0923 51.0705 10.7902C49.7685 9.48822 47.6585 9.48822 46.3565 10.7902L33.5428 23.604L32.6857 22.5754L42.4504 12.8107C43.6836 11.5775 43.9193 9.56742 42.8162 8.21732C41.5463 6.66451 39.2533 6.57966 37.8712 7.96182C37.6477 8.18526 8.20288 37.6301 8.20288 37.6301C8.35467 40.2332 9.44267 42.7015 11.2972 44.556L21.372 54.6309C24.4965 57.7553 29.5613 57.7553 32.6857 54.6309L55.3132 32.0034C56.355 30.9616 56.355 29.274 55.3132 28.2322Z" fill="#F98D07"/>
<path d="M38.8123 11.7329C39.5934 12.5139 40.8597 12.5139 41.6408 11.7329C42.4218 10.9518 42.4218 9.6855 41.6408 8.90445C40.8597 8.1234 39.5934 8.1234 38.8123 8.90445C38.0313 9.6855 38.0313 10.9518 38.8123 11.7329Z" fill="white"/>
<path d="M47.2987 14.5615C48.0797 15.3425 49.3461 15.3425 50.1271 14.5615C50.9082 13.7804 50.9082 12.5141 50.1271 11.7331C49.3461 10.952 48.0797 10.952 47.2987 11.7331C46.5176 12.5141 46.5176 13.7804 47.2987 14.5615Z" fill="white"/>
<path d="M52.0116 21.1611C52.7926 21.9421 54.0589 21.9421 54.84 21.1611C55.621 20.38 55.621 19.1137 54.84 18.3327C54.0589 17.5516 52.7926 17.5516 52.0116 18.3327C51.2305 19.1137 51.2305 20.38 52.0116 21.1611Z" fill="white"/>
<path d="M52.483 31.0604C53.0037 31.5811 53.8479 31.5811 54.3686 31.0604C54.8893 30.5397 54.8893 29.6954 54.3686 29.1747C53.8479 28.654 53.0037 28.654 52.483 29.1747C51.9623 29.6954 51.9623 30.5397 52.483 31.0604Z" fill="white"/>
</g>
<defs>
<clipPath id="clip0_663_2920">
<rect width="64" height="64" fill="white"/>
</clipPath>
</defs>
</svg>
