<svg width="16" height="16" viewBox="0 0 16 16" fill="none" xmlns="http://www.w3.org/2000/svg">
<g clip-path="url(#clip0_288_1643)">
<path d="M8.5 7.3335C8.5 7.20089 8.44732 7.07371 8.35355 6.97994C8.25978 6.88617 8.13261 6.8335 8 6.8335C7.86739 6.8335 7.74022 6.88617 7.64645 6.97994C7.55268 7.07371 7.5 7.20089 7.5 7.3335V11.3335C7.5 11.4661 7.55268 11.5933 7.64645 11.687C7.74022 11.7808 7.86739 11.8335 8 11.8335C8.13261 11.8335 8.25978 11.7808 8.35355 11.687C8.44732 11.5933 8.5 11.4661 8.5 11.3335V7.3335Z" fill="#6B7280"/>
<path fill-rule="evenodd" clip-rule="evenodd" d="M7.99967 0.833496C4.04167 0.833496 0.833008 4.04216 0.833008 8.00016C0.833008 11.9582 4.04167 15.1668 7.99967 15.1668C11.9577 15.1668 15.1663 11.9582 15.1663 8.00016C15.1663 4.04216 11.9577 0.833496 7.99967 0.833496ZM1.83301 8.00016C1.83301 6.36466 2.48271 4.79615 3.63918 3.63967C4.79566 2.4832 6.36417 1.8335 7.99967 1.8335C9.63518 1.8335 11.2037 2.4832 12.3602 3.63967C13.5166 4.79615 14.1663 6.36466 14.1663 8.00016C14.1663 9.63566 13.5166 11.2042 12.3602 12.3607C11.2037 13.5171 9.63518 14.1668 7.99967 14.1668C6.36417 14.1668 4.79566 13.5171 3.63918 12.3607C2.48271 11.2042 1.83301 9.63566 1.83301 8.00016Z" fill="#6B7280"/>
<path d="M8.66634 5.33366C8.66634 5.51047 8.5961 5.68004 8.47108 5.80506C8.34605 5.93009 8.17649 6.00033 7.99967 6.00033C7.82286 6.00033 7.65329 5.93009 7.52827 5.80506C7.40325 5.68004 7.33301 5.51047 7.33301 5.33366C7.33301 5.15685 7.40325 4.98728 7.52827 4.86225C7.65329 4.73723 7.82286 4.66699 7.99967 4.66699C8.17649 4.66699 8.34605 4.73723 8.47108 4.86225C8.5961 4.98728 8.66634 5.15685 8.66634 5.33366Z" fill="#6B7280"/>
</g>
<defs>
<clipPath id="clip0_288_1643">
<rect width="16" height="16" fill="white"/>
</clipPath>
</defs>
</svg>
