<svg width="20" height="20" viewBox="0 0 20 20" fill="none" xmlns="http://www.w3.org/2000/svg">
<g clip-path="url(#clip0_549_1546)">
<path d="M1.24976 1.36108C-0.321907 2.99358 -0.000240855 4.72774 -0.000240855 9.99608C-0.000240855 14.3711 -0.763574 18.7569 3.23143 19.7894C4.47893 20.1102 15.5323 20.1102 16.7781 19.7877C18.4414 19.3586 19.7948 18.0094 19.9798 15.6569C20.0056 15.3286 20.0056 4.66941 19.9789 4.33441C19.7823 1.82858 18.2398 0.384409 16.2073 0.0919088C15.7414 0.0244088 15.6481 0.00440878 13.2581 0.000242114C4.78059 0.00440878 2.92226 -0.373091 1.24976 1.36108Z" fill="url(#paint0_linear_549_1546)"/>
<path d="M9.99883 2.61601C6.973 2.61601 4.09966 2.34685 3.00216 5.16351C2.54883 6.32685 2.61466 7.83768 2.61466 10.001C2.61466 11.8993 2.55383 13.6835 3.00216 14.8377C4.09716 17.656 6.99383 17.386 9.99716 17.386C12.8947 17.386 15.8822 17.6877 16.993 14.8377C17.4472 13.6627 17.3805 12.1743 17.3805 10.001C17.3805 7.11601 17.5397 5.25351 16.1405 3.85518C14.7238 2.43851 12.808 2.61601 9.9955 2.61601H9.99883ZM9.33716 3.94685C15.6488 3.93685 16.4522 3.23518 16.0088 12.9827C15.8513 16.4302 13.2263 16.0518 9.99966 16.0518C4.11633 16.0518 3.94716 15.8835 3.94716 9.99768C3.94716 4.04351 4.41383 3.95018 9.33716 3.94518V3.94685ZM13.9405 5.17268C13.7056 5.17268 13.4802 5.26601 13.3141 5.43213C13.148 5.59826 13.0547 5.82358 13.0547 6.05851C13.0547 6.29345 13.148 6.51877 13.3141 6.68489C13.4802 6.85102 13.7056 6.94435 13.9405 6.94435C14.1754 6.94435 14.4007 6.85102 14.5669 6.68489C14.733 6.51877 14.8263 6.29345 14.8263 6.05851C14.8263 5.82358 14.733 5.59826 14.5669 5.43213C14.4007 5.26601 14.1754 5.17268 13.9405 5.17268ZM9.99883 6.20851C9.50085 6.20857 9.00775 6.30671 8.54769 6.49733C8.08764 6.68795 7.66963 6.96732 7.31754 7.31948C6.60647 8.03072 6.20705 8.99529 6.20716 10.001C6.20727 11.0067 6.6069 11.9712 7.31813 12.6823C8.02937 13.3934 8.99394 13.7928 9.99966 13.7927C11.0054 13.7926 11.9699 13.3929 12.6809 12.6817C13.392 11.9705 13.7914 11.0059 13.7913 10.0002C13.7912 8.99446 13.3916 8.02997 12.6804 7.3189C11.9691 6.60782 11.0046 6.2084 9.99883 6.20851ZM9.99883 7.53935C13.253 7.53935 13.2572 12.4627 9.99883 12.4627C6.7455 12.4627 6.7405 7.53935 9.99883 7.53935Z" fill="white"/>
</g>
<defs>
<linearGradient id="paint0_linear_549_1546" x1="1.28811" y1="18.7228" x2="19.876" y2="2.63522" gradientUnits="userSpaceOnUse">
<stop stop-color="#FFDD55"/>
<stop offset="0.5" stop-color="#FF543E"/>
<stop offset="1" stop-color="#C837AB"/>
</linearGradient>
<clipPath id="clip0_549_1546">
<rect width="20" height="20" fill="white"/>
</clipPath>
</defs>
</svg>
