<svg width="103" height="89" viewBox="0 0 103 89" fill="none" xmlns="http://www.w3.org/2000/svg">
<path d="M24.5639 17.8475C27.4379 18.4438 30.3639 18.6115 33.2479 18.22C37.6931 17.6168 43.5731 15.933 47.6626 11.4205C55.0676 3.25 68.4791 -4.98825 76.9384 5.425C85.3976 15.838 82.4414 27.6753 90.3204 30.324C98.1996 32.9728 106.019 42.6377 100.201 55.294C93.2324 70.4525 79.6601 60.5233 87.3039 79.2053C91.2124 88.7583 65.7746 90.1167 53.2046 83.3705C41.6846 77.1878 30.3286 93.4672 19.5304 83.0385C8.73214 72.6097 25.2234 59.7525 17.0189 52.7483C8.81414 45.744 2.67689 41.4477 6.58714 28.968C9.51989 19.6082 20.1354 16.9285 24.5639 17.8475Z" fill="#F5F8FF"/>
<path d="M96.3483 88.1395C95.6183 86.9048 93.8018 82.2807 101.71 75.1247C101.964 74.8942 102.373 75.0382 102.424 75.3777C102.783 77.7447 103.299 85.0048 96.9171 88.3018C96.7143 88.4065 96.4646 88.336 96.3483 88.1395Z" fill="#E1ECFA"/>
<path d="M101.775 76.3267C101.775 76.3267 100.875 79.7242 99.0776 82.4277C97.2803 85.1312 96.6738 88.2189 96.6738 88.2189" fill="#E1ECFA"/>
<path d="M96.8099 88.0055C97.2051 86.6595 97.8156 81.839 88.5981 76.9555C88.3014 76.7983 87.9486 77.0328 87.9816 77.367C88.2109 79.6973 89.4669 86.7043 96.3099 88.296C96.5271 88.3465 96.7469 88.2198 96.8099 88.0055Z" fill="#E1ECFA"/>
<path d="M88.8252 78.1108C88.8252 78.1108 90.4954 81.1156 92.8492 83.2466C95.2029 85.3778 96.5202 88.1591 96.5202 88.1591" fill="#E1ECFA"/>
<path d="M7.99593 88.2087C8.88268 86.709 11.0889 81.0927 1.48393 72.401C1.17468 72.1212 0.678434 72.2957 0.616184 72.7082C0.180934 75.5832 -0.446066 84.4012 7.30543 88.4057C7.55168 88.533 7.85468 88.4472 7.99593 88.2087Z" fill="#E1ECFA"/>
<path d="M1.40527 73.8608C1.40527 73.8608 2.49852 77.9873 4.68152 81.2713C6.86427 84.5551 7.60102 88.3053 7.60102 88.3053" fill="#E1ECFA"/>
<path d="M8.70374 88.163C8.30849 86.817 7.69799 81.9965 16.9155 77.113C17.2122 76.9558 17.565 77.1903 17.532 77.5245C17.3027 79.8548 16.0467 86.8618 9.20374 88.4535C8.98649 88.504 8.76674 88.3773 8.70374 88.163Z" fill="#E1ECFA"/>
<path d="M16.6882 78.2681C16.6882 78.2681 15.0179 81.2728 12.6642 83.4038C10.3104 85.5351 8.99316 88.3163 8.99316 88.3163" fill="#E1ECFA"/>
<path d="M76.9179 61.0112L80.6621 54.2685L84.4064 47.526C84.8531 46.7215 85.9699 46.7215 86.4166 47.526L90.1609 54.2685L93.9051 61.0112C94.3519 61.8157 93.7934 62.8212 92.9001 62.8212H89.8181L89.7051 86.7007L80.9616 86.4012V62.8212H77.9226C77.0296 62.8212 76.4714 61.8157 76.9179 61.0112Z" fill="#E1ECFA"/>
<path d="M20.1982 26.0049L23.9425 19.5194L27.687 13.0339C28.1337 12.2602 29.2505 12.2602 29.6972 13.0339L33.4417 19.5194L37.186 26.0049C37.6327 26.7787 37.0742 27.7457 36.181 27.7457H33.1202L33.0877 81.2107H24.2637V27.7457H21.2032C20.31 27.7459 19.7515 26.7787 20.1982 26.0049Z" fill="#E1ECFA"/>
<path d="M39.5322 52.9895L43.2765 46.2468L47.021 39.5043C47.4677 38.6998 48.5845 38.6998 49.0312 39.5043L52.7757 46.2468L56.52 52.9895C56.9667 53.794 56.4082 54.7995 55.515 54.7995H52.433L52.275 88.2315C52.275 88.991 50.611 87.3953 49.8805 87.3953L45.2475 87.1175C44.517 87.1175 43.5765 88.7665 43.5765 88.007V54.7993H40.5375C39.644 54.7993 39.0855 53.7938 39.5322 52.9895Z" fill="#E1ECFA"/>
<path d="M86.636 26.6646L86.8243 20.5164L86.4868 20.9854L86.2513 26.6741L86.2588 26.6799C85.5523 26.9039 85.4318 28.1304 85.4123 28.5959C85.408 28.6961 85.4813 28.7829 85.581 28.7941L86.158 28.8604C86.2558 28.8716 86.3463 28.8064 86.3663 28.7099L86.435 28.3816L86.5965 28.8069C86.6218 28.8734 86.6823 28.9204 86.753 28.9286L87.084 28.9666C87.1933 28.9791 87.2908 28.8979 87.296 28.7879C87.3228 28.2561 87.3245 26.8456 86.636 26.6646Z" fill="#F0C66C"/>
<path d="M70.1153 6.31971L86.2023 8.37871C86.4523 8.41071 86.668 8.56921 86.7735 8.79821L93.3065 22.992C93.5493 23.5195 93.1098 24.1057 92.5353 24.0205L77.017 21.72C76.783 21.6852 76.5803 21.5395 76.4728 21.3285L69.3708 7.37646C69.1048 6.85296 69.533 6.24521 70.1153 6.31971Z" fill="#264256"/>
<path d="M70.7511 45.4258H68.7686V53.029H70.7511V45.4258Z" fill="#F0C66C"/>
<path d="M74.8963 58.9655H64.6226C64.3176 58.9655 64.0703 58.7183 64.0703 58.4133V53.2483C64.0703 52.9433 64.3176 52.696 64.6226 52.696H74.8963C75.2013 52.696 75.4486 52.9433 75.4486 53.2483V58.4133C75.4488 58.7183 75.2013 58.9655 74.8963 58.9655Z" fill="#E69724"/>
<path d="M89.656 24.9448C87.8233 21.8223 84.3575 22.9363 82.7508 23.6811L83.2725 20.1336C83.4415 18.9853 82.5603 17.9513 81.3998 17.9358L59.2763 17.6411C58.0678 17.6251 57.1068 18.6513 57.2023 19.8561L57.501 23.6221C55.8443 22.8811 52.5116 21.9033 50.7266 24.9448C48.4491 28.8251 54.0538 39.7976 60.9121 37.0218C61.5971 37.7956 62.3815 38.4801 63.2495 39.0503C63.2688 39.0628 63.2853 39.0733 63.3053 39.0848C63.4836 39.1893 64.4918 39.7758 65.0801 40.0313C65.1138 40.0461 65.1426 40.0603 65.1741 40.0791C66.9461 41.1323 69.2493 42.8636 68.8506 44.5723L70.807 44.5613C70.807 44.5613 70.1693 42.0838 73.9868 40.5058C74.2375 40.4241 74.753 40.2228 74.8663 40.1783C74.882 40.1721 74.896 40.1663 74.9115 40.1598C76.5885 39.4428 78.0668 38.3238 79.2163 36.9116C86.1893 40.0683 91.9618 28.8728 89.656 24.9448ZM52.965 26.2963C54.1683 24.2466 56.3198 24.6603 57.6235 25.1651L58.0265 30.2466C58.1783 32.1608 58.795 33.9406 59.7598 35.4808C55.0308 36.5048 51.3615 29.0283 52.965 26.2963ZM80.2601 35.3853C80.9263 34.2141 81.3941 32.9056 81.6018 31.4943L82.5183 25.2631C83.7815 24.7236 86.1371 24.1146 87.4176 26.2963C89.0618 29.0978 85.1618 36.8878 80.2601 35.3853Z" fill="#F0C66C"/>
<path d="M57.3066 21.1721H83.0094L82.8711 22.8624H57.4406L57.3066 21.1721Z" fill="#E69724"/>
<path d="M71.7794 46.279H67.7404C67.6044 46.279 67.4941 46.1688 67.4941 46.0328V44.8185C67.4941 44.6825 67.6044 44.5723 67.7404 44.5723H71.7794C71.9154 44.5723 72.0256 44.6825 72.0256 44.8185V46.0328C72.0256 46.169 71.9154 46.279 71.7794 46.279Z" fill="#E69724"/>
<path d="M75.113 11.3118L71.5265 16.2978C71.2175 16.7275 71.197 17.3008 71.4782 17.7493C72.679 19.6625 76.2995 24.5788 82.3147 25.5693C82.798 25.6488 83.2837 25.4383 83.5697 25.0408L87.206 19.9858C87.4882 19.5935 87.5312 19.0785 87.3165 18.6458C86.3762 16.7525 83.2782 11.77 76.3452 10.78C75.8687 10.712 75.394 10.921 75.113 11.3118Z" fill="#315782"/>
<path d="M37.5816 74.7739L37.5383 76.1719L35.7354 76.1629L35.7424 74.7646L37.5816 74.7739Z" fill="#F3D6C1"/>
<path d="M35.7355 76.1628L37.499 76.1716C37.5258 76.1718 37.5513 76.1746 37.5773 76.1808C37.829 76.2411 39.2623 76.6026 40.5243 77.3006C40.838 77.4741 40.7095 77.9538 40.3508 77.9521L36.0748 77.9308C35.8825 77.9298 35.7275 77.7733 35.7285 77.5811L35.7355 76.1628Z" fill="#2F526E"/>
<path d="M24.4817 77.6738L24.4387 79.072L22.6357 79.063L22.6427 77.6648L24.4817 77.6738Z" fill="#F3D6C1"/>
<path d="M22.6352 79.063L24.3987 79.0717C24.4254 79.072 24.4509 79.0747 24.4769 79.081C24.7287 79.1412 26.1619 79.5027 27.4239 80.2007C27.7377 80.3742 27.6092 80.854 27.2504 80.8522L22.9742 80.831C22.7819 80.83 22.6269 80.6735 22.6279 80.4812L22.6352 79.063Z" fill="#2F526E"/>
<path d="M27.6325 59L25.8922 68.1068L22.4062 77.949C22.4062 77.949 22.2302 78.2727 22.7142 78.4245H24.6099C24.6099 78.4245 24.8797 78.365 25.0037 78.1315L28.9084 70.7753L31.169 63.3775L36.3632 67.3148L35.2062 75.0215C35.2062 75.0215 35.2195 75.2415 35.5257 75.2415C35.832 75.2415 37.633 75.2415 37.633 75.2415C37.633 75.2415 37.857 75.1763 37.9105 74.9515L39.9385 66.4557C39.9392 66.4525 39.9405 66.4492 39.9417 66.446C39.9522 66.417 39.9899 66.2538 39.6827 65.8785C39.3414 65.4613 34.767 59.8702 34.767 59.8702L27.6325 59Z" fill="#F0C66C"/>
<path d="M40.5203 49.7222L41.8628 50.4367L45.9258 47.3694C45.9258 47.3694 45.5353 46.6754 45.625 46.1152C45.7148 45.5549 45.8798 45.4524 45.9935 45.5449C46.1075 45.6374 46.094 46.3099 46.3368 46.4379C46.5795 46.5659 46.6855 46.4272 46.973 45.6672C47.2603 44.9074 47.3865 44.5577 47.6253 44.5492C47.864 44.5407 47.8368 45.0767 47.8368 45.0767C47.8368 45.0767 48.0465 44.9704 48.2115 45.0734C48.3765 45.1767 48.3095 45.3899 48.3095 45.3899C48.3095 45.3899 48.4468 45.3379 48.6208 45.4784C48.7948 45.6189 48.6875 45.8624 48.6875 45.8624C48.6875 45.8624 48.986 45.7402 48.987 46.1794C48.988 46.6187 48.777 48.0414 46.9833 48.3832C46.9833 48.3832 42.736 53.4799 42.0648 53.4742C41.3938 53.4684 39.458 52.8087 39.458 52.8087L40.5203 49.7222Z" fill="#F3D6C1"/>
<path d="M28.1804 60.5154H26.9997C26.9487 60.0801 26.7847 59.4009 26.2724 58.8611C25.7664 58.3281 25.0527 58.0576 24.1517 58.0576C22.6069 58.0576 21.8632 58.8901 21.5112 59.5884C21.3442 59.9201 21.2517 60.2504 21.1997 60.5154H19.9762C19.6112 60.5154 19.3154 60.8114 19.3154 61.1761V66.1986C19.3154 66.5636 19.6114 66.8594 19.9762 66.8594H28.1804C28.5454 66.8594 28.8412 66.5634 28.8412 66.1986V61.1761C28.8412 60.8114 28.5454 60.5154 28.1804 60.5154ZM24.1514 58.9474C24.7959 58.9474 25.2909 59.1226 25.6222 59.4689C25.9319 59.7924 26.0539 60.2131 26.1017 60.5154H22.1027C22.2597 59.8779 22.7322 58.9474 24.1514 58.9474Z" fill="#315780"/>
<path d="M27.3424 51.6765L25.8534 51.9858L24.6911 56.942C24.6911 56.942 25.4351 57.2258 25.7244 57.714C26.0136 58.2023 26.0129 58.6388 25.8714 58.5263C25.7849 58.4575 25.6606 58.3928 25.4869 58.3113C25.2516 58.201 25.1271 58.0498 24.9716 58.0825C24.7031 58.1393 24.4316 58.3028 24.7366 58.8305C25.0326 59.3425 25.8064 59.384 25.6384 59.5538C25.2109 59.986 24.7929 59.549 24.7929 59.549C24.7929 59.549 24.6851 59.7905 24.4924 59.8168C24.2996 59.843 24.1729 59.5163 24.1729 59.5163C24.1729 59.5163 24.0584 59.7283 23.8346 59.7315C23.6111 59.7348 23.5151 59.4318 23.5151 59.4318C23.5151 59.4318 23.2191 59.7923 22.9374 59.4553C22.6556 59.1183 22.0689 58.2488 23.2294 56.8388C23.2294 56.8388 23.2354 50.2043 23.7549 49.7795C24.2744 49.3548 26.1846 48.6243 26.1846 48.6243L27.3424 51.6765Z" fill="#F3D6C1"/>
<path d="M27.4224 59.3251C28.3964 59.7096 32.1146 61.0476 35.1446 60.3731C35.2764 60.3438 35.3694 60.2261 35.3716 60.0913C35.3874 59.1386 35.4884 55.4668 36.1219 54.2523C36.5921 53.3511 36.8679 52.7666 37.0049 52.4643C37.0684 52.3241 37.2284 52.2581 37.3729 52.3108L39.5531 53.1081C39.7061 53.1641 39.8754 53.0851 39.9306 52.9318L40.9701 50.0516C41.0229 49.9053 40.9531 49.7438 40.8106 49.6821C40.0121 49.3358 37.4761 48.2851 35.4521 47.9816C33.0424 47.6201 32.1834 45.0481 25.6646 48.6458C25.5469 48.7108 25.4959 48.8556 25.5474 48.9796L26.6696 51.6781C26.7306 51.8248 26.8974 51.8966 27.0459 51.8398L28.9076 51.1301C29.1324 51.0443 29.3594 51.2503 29.2959 51.4823L27.2484 58.9746C27.2089 59.1196 27.2829 59.2701 27.4224 59.3251Z" fill="#315782"/>
<path d="M37.2942 41.2849C37.2942 41.2849 37.3462 41.8562 37.9567 43.0697C38.58 44.3087 38.3802 46.1449 37.4192 46.5047C36.671 46.7847 36.1352 46.6209 36.1352 46.6209L35.7495 48.5792L33.3512 47.6394L33.6142 45.9767L33.1357 42.2232L37.2942 41.2849Z" fill="#F3D6C1"/>
<path d="M37.9596 40.1407C37.9794 39.956 37.8034 39.806 37.6259 39.8605C37.2576 39.9732 36.5419 40.0777 35.2511 39.9052C32.7856 39.5757 31.5159 41.7085 31.5344 43.254C31.5501 44.5787 32.9676 45.326 33.4146 45.8817C33.5111 46.0015 33.6931 46.004 33.8009 45.8942C34.0556 45.635 34.4114 45.2472 34.4231 45.094C34.4416 44.8547 33.7424 44.818 33.7056 44.1005C33.6689 43.383 34.6256 43.291 34.9016 43.843C35.1776 44.395 35.0489 42.4815 35.5641 42.2975C36.0381 42.1277 37.7906 41.7262 37.9596 40.1407Z" fill="#2F5482"/>
<path d="M33.4469 47.2595C33.4469 47.2595 32.8572 48.7035 34.3277 49.2495C35.7982 49.7955 35.8432 48.0485 35.8432 48.0485L33.4469 47.2595Z" fill="#F3D6C1"/>
<path d="M43.7725 77.5496C43.7725 77.7644 43.9332 77.9384 44.1315 77.9384H78.634C81.193 77.9384 83.2675 76.0806 83.2675 73.7891V72.4361C83.2675 70.1444 81.193 68.2869 78.634 68.2869H44.1315C43.9332 68.2869 43.7725 68.4609 43.7725 68.6756V68.7459C43.7725 68.9594 43.9315 69.1331 44.1287 69.1346L44.5795 69.1381L44.605 77.1609L44.1315 77.1606C43.9332 77.1606 43.7725 77.3349 43.7725 77.5496Z" fill="#315782"/>
<path d="M67.7109 69.105L44.5469 69.1382L44.5724 77.161H67.9506C69.1531 77.161 70.1276 76.1065 70.1276 74.8057V71.7195C70.1276 70.2755 69.0456 69.105 67.7109 69.105Z" fill="#F9ECDC"/>
<path d="M76.0056 73.518V72.7069C76.0056 72.4672 75.8114 72.2729 75.5716 72.2729H72.2416C72.0019 72.2729 71.8076 72.4672 71.8076 72.7069V73.518C71.8076 73.7577 72.0019 73.952 72.2416 73.952H75.5716C75.8114 73.952 76.0056 73.7577 76.0056 73.518Z" fill="#E69724"/>
<path d="M68.835 70.356H44.6045" stroke="#F0C66C" stroke-miterlimit="10" stroke-linecap="round"/>
<path d="M67.0875 71.5657H44.6045" stroke="#F0C66C" stroke-miterlimit="10" stroke-linecap="round"/>
<path d="M68.835 73.7554H44.6045" stroke="#F0C66C" stroke-miterlimit="10" stroke-linecap="round"/>
<path d="M69.2147 76.0291H44.6045" stroke="#F0C66C" stroke-miterlimit="10" stroke-linecap="round"/>
<path d="M92.881 87.8744C92.881 88.1054 92.6238 88.2926 92.3065 88.2926H37.073C32.9763 88.2926 29.6553 86.2944 29.6553 83.8296V82.3744C29.6553 79.9094 32.9763 77.9111 37.073 77.9111H92.3065C92.6238 77.9111 92.881 78.0984 92.881 78.3294V78.4051C92.881 78.6349 92.6263 78.8216 92.3105 78.8234L91.5888 78.8271L91.5483 87.4566L92.3063 87.4564C92.6238 87.4561 92.881 87.6434 92.881 87.8744Z" fill="#E69724"/>
<path d="M54.3042 78.791L91.5972 78.8268L91.5565 87.4563H54.4922C52.3919 87.4563 50.6895 86.2175 50.6895 84.6893V81.4213C50.6895 79.9685 52.308 78.791 54.3042 78.791Z" fill="#F9ECDC"/>
<path d="M45.2479 85.8793H44.0346C43.6844 85.8793 43.4004 85.5953 43.4004 85.2453V81.6223C43.4004 81.272 43.6844 80.988 44.0346 80.988H45.2479C45.5981 80.988 45.8821 81.272 45.8821 81.6223V85.2453C45.8821 85.5955 45.5981 85.8793 45.2479 85.8793Z" fill="#315780"/>
<path d="M41.4452 85.9013H40.2319C39.8817 85.9013 39.5977 85.6173 39.5977 85.267V81.644C39.5977 81.2938 39.8817 81.0098 40.2319 81.0098H41.4452C41.7954 81.0098 42.0794 81.2938 42.0794 81.644V85.267C42.0794 85.6173 41.7954 85.9013 41.4452 85.9013Z" fill="#315780"/>
<path d="M54.8496 80.1367H91.5489" stroke="#F0C66C" stroke-miterlimit="10" stroke-linecap="round"/>
<path d="M59.8604 83.0386H91.5704" stroke="#F0C66C" stroke-miterlimit="10" stroke-linecap="round"/>
<path d="M51.8945 84.1255H91.5488" stroke="#F0C66C" stroke-miterlimit="10" stroke-linecap="round"/>
<path d="M53.5264 86.5708H91.5484" stroke="#F0C66C" stroke-miterlimit="10" stroke-linecap="round"/>
<path d="M85.7627 67.9928C85.7627 68.2021 85.607 68.3718 85.415 68.3718H51.9812C49.5015 68.3718 47.4912 66.5613 47.4912 64.3281V63.0096C47.4912 60.7763 49.5015 58.9658 51.9812 58.9658H85.4147C85.6067 58.9658 85.7625 59.1353 85.7625 59.3448V59.4133C85.7625 59.6216 85.6082 59.7906 85.4172 59.7923L84.9805 59.7958L84.956 67.6146H85.4147C85.607 67.6138 85.7627 67.7836 85.7627 67.9928Z" fill="#F0C66C"/>
<path d="M62.4114 59.7627L84.9854 59.7952L84.9609 67.6139H62.5254C61.2541 67.6139 60.2236 66.4914 60.2236 65.1069V62.146C60.2234 60.8297 61.2031 59.7627 62.4114 59.7627Z" fill="#F9ECDC"/>
<path d="M56.6795 66.1854H56.4458C56.0955 66.1854 55.8115 65.9014 55.8115 65.5512V62.3879C55.8115 62.0377 56.0955 61.7537 56.4458 61.7537H56.6795C57.0298 61.7537 57.3138 62.0377 57.3138 62.3879V65.5512C57.3135 65.9014 57.0298 66.1854 56.6795 66.1854Z" fill="#E69724"/>
<path d="M54.3778 66.2052H54.144C53.7938 66.2052 53.5098 65.9212 53.5098 65.5709V62.4077C53.5098 62.0574 53.7938 61.7734 54.144 61.7734H54.3778C54.728 61.7734 55.012 62.0574 55.012 62.4077V65.5712C55.012 65.9212 54.728 66.2052 54.3778 66.2052Z" fill="#E69724"/>
<path d="M62.7412 60.9822H84.9557" stroke="#F0C66C" stroke-miterlimit="10" stroke-linecap="round"/>
<path d="M65.7754 63.6113H84.9699" stroke="#F0C66C" stroke-miterlimit="10" stroke-linecap="round"/>
<path d="M60.9531 64.5962H84.9564" stroke="#F0C66C" stroke-miterlimit="10" stroke-linecap="round"/>
<path d="M61.9404 66.8118H84.9557" stroke="#F0C66C" stroke-miterlimit="10" stroke-linecap="round"/>
<path d="M15.5918 88.1043C15.5918 88.2723 15.7463 88.4085 15.937 88.4085H49.1195C51.5808 88.4085 53.5758 86.954 53.5758 85.16V84.1008C53.5758 82.3065 51.5805 80.8523 49.1195 80.8523H15.937C15.7463 80.8523 15.5918 80.9885 15.5918 81.1565V81.2115C15.5918 81.3788 15.7448 81.5148 15.9345 81.5158L16.368 81.5185L16.3925 87.7995H15.9373C15.7465 87.7998 15.5918 87.936 15.5918 88.1043Z" fill="#F0C66C"/>
<path d="M38.6177 81.4927L16.3682 81.5187L16.3927 87.7997H38.8482C40.0029 87.7997 40.9392 86.9742 40.9392 85.9559V83.5397C40.9392 82.4092 39.8997 81.4927 38.6177 81.4927Z" fill="#F9ECDC"/>
<path d="M39.6958 82.4722H16.3926" stroke="#F0C66C" stroke-miterlimit="10" stroke-linecap="round"/>
<path d="M38.0153 83.4192H16.3926" stroke="#F0C66C" stroke-miterlimit="10" stroke-linecap="round"/>
<path d="M39.6958 85.1338H16.3926" stroke="#F0C66C" stroke-miterlimit="10" stroke-linecap="round"/>
<path d="M40.0613 86.9138H16.3926" stroke="#F0C66C" stroke-miterlimit="10" stroke-linecap="round"/>
<path d="M2.58984 88.4067H101.302" stroke="#315782" stroke-miterlimit="10" stroke-linecap="round"/>
</svg>
