<svg width="206" height="177" viewBox="0 0 206 177" fill="none" xmlns="http://www.w3.org/2000/svg">
<path d="M49.1278 34.695C54.8758 35.8875 60.7278 36.223 66.4958 35.44C75.3863 34.2335 87.1463 30.866 95.3253 21.841C110.135 5.5 136.958 -10.9765 153.877 9.85C170.795 30.676 164.883 54.3505 180.641 59.648C196.399 64.9455 212.039 84.2755 200.402 109.588C186.465 139.905 159.32 120.047 174.608 157.411C182.425 176.517 131.549 179.233 106.409 165.741C83.3693 153.376 60.6573 185.934 39.0608 165.077C17.4643 144.219 50.4468 118.505 34.0378 104.497C17.6283 90.488 5.35378 81.8955 13.1743 56.936C19.0398 38.2165 40.2708 32.857 49.1278 34.695Z" fill="#F5F8FF"/>
<path d="M192.697 175.279C191.237 172.81 187.604 163.561 203.42 149.249C203.929 148.788 204.746 149.076 204.849 149.755C205.566 154.489 206.598 169.01 193.834 175.604C193.429 175.813 192.929 175.672 192.697 175.279Z" fill="#E1ECFA"/>
<path d="M203.549 151.653C203.549 151.653 201.749 158.448 198.154 163.855C194.56 169.262 193.347 175.438 193.347 175.438" fill="#E1ECFA"/>
<path d="M193.62 175.011C194.41 172.319 195.631 162.678 177.196 152.911C176.603 152.597 175.897 153.066 175.963 153.734C176.422 158.395 178.934 172.409 192.62 175.592C193.054 175.693 193.494 175.44 193.62 175.011Z" fill="#E1ECFA"/>
<path d="M177.65 155.222C177.65 155.222 180.991 161.231 185.698 165.493C190.406 169.756 193.04 175.318 193.04 175.318" fill="#E1ECFA"/>
<path d="M15.9919 175.417C17.7654 172.418 22.1779 161.185 2.96787 143.802C2.34937 143.242 1.35687 143.591 1.23237 144.416C0.361867 150.166 -0.892133 167.802 14.6109 175.811C15.1034 176.066 15.7094 175.894 15.9919 175.417Z" fill="#E1ECFA"/>
<path d="M2.81055 146.722C2.81055 146.722 4.99705 154.975 9.36305 161.543C13.7285 168.11 15.202 175.611 15.202 175.611" fill="#E1ECFA"/>
<path d="M17.4075 175.326C16.617 172.634 15.396 162.993 33.831 153.226C34.4245 152.912 35.13 153.381 35.064 154.049C34.6055 158.71 32.0935 172.724 18.4075 175.907C17.973 176.008 17.5335 175.755 17.4075 175.326Z" fill="#E1ECFA"/>
<path d="M33.3763 155.536C33.3763 155.536 30.0358 161.546 25.3283 165.808C20.6208 170.07 17.9863 175.633 17.9863 175.633" fill="#E1ECFA"/>
<path d="M153.835 121.022L161.323 107.537L168.812 94.052C169.705 92.443 171.939 92.443 172.832 94.052L180.321 107.537L187.809 121.022C188.703 122.631 187.586 124.642 185.799 124.642H179.635L179.409 172.401L161.922 171.802V124.642H155.844C154.058 124.642 152.942 122.631 153.835 121.022Z" fill="#E1ECFA"/>
<path d="M40.3955 51.0099L47.884 38.0389L55.373 25.0679C56.2665 23.5204 58.5 23.5204 59.3935 25.0679L66.8825 38.0389L74.371 51.0099C75.2645 52.5574 74.1475 54.4914 72.361 54.4914H66.2395L66.1745 161.421H48.5265V54.4914H42.4055C40.619 54.4919 39.502 52.5574 40.3955 51.0099Z" fill="#E1ECFA"/>
<path d="M79.0635 104.979L86.552 91.4935L94.041 78.0085C94.9345 76.3995 97.168 76.3995 98.0615 78.0085L105.55 91.4935L113.039 104.979C113.932 106.588 112.815 108.599 111.029 108.599H104.865L104.549 175.463C104.549 176.982 101.221 173.791 99.76 173.791L90.494 173.235C89.033 173.235 87.152 176.533 87.152 175.014V108.599H81.074C79.287 108.599 78.17 106.588 79.0635 104.979Z" fill="#E1ECFA"/>
<path d="M173.27 52.3292L173.647 40.0327L172.972 40.9707L172.501 52.3482L172.516 52.3597C171.103 52.8077 170.862 55.2607 170.823 56.1917C170.814 56.3922 170.961 56.5657 171.16 56.5882L172.314 56.7207C172.51 56.7432 172.691 56.6127 172.731 56.4197L172.868 55.7632L173.191 56.6137C173.242 56.7467 173.363 56.8407 173.504 56.8572L174.166 56.9332C174.385 56.9582 174.58 56.7957 174.59 56.5757C174.644 55.5122 174.647 52.6912 173.27 52.3292Z" fill="#F0C66C"/>
<path d="M140.23 11.6394L172.404 15.7574C172.904 15.8214 173.335 16.1384 173.546 16.5964L186.612 44.9839C187.098 46.0389 186.219 47.2114 185.07 47.0409L154.033 42.4399C153.565 42.3704 153.16 42.0789 152.945 41.6569L138.741 13.7529C138.209 12.7059 139.065 11.4904 140.23 11.6394Z" fill="#264256"/>
<path d="M141.503 89.8516H137.538V105.058H141.503V89.8516Z" fill="#F0C66C"/>
<path d="M149.794 116.931H129.246C128.636 116.931 128.142 116.437 128.142 115.827V105.497C128.142 104.887 128.636 104.392 129.246 104.392H149.794C150.404 104.392 150.898 104.887 150.898 105.497V115.827C150.899 116.437 150.404 116.931 149.794 116.931Z" fill="#E69724"/>
<path d="M179.312 48.8896C175.647 42.6446 168.715 44.8726 165.502 46.3621L166.545 39.2671C166.883 36.9706 165.121 34.9026 162.8 34.8716L118.553 34.2821C116.136 34.2501 114.214 36.3026 114.405 38.7121L115.002 46.2441C111.689 44.7621 105.023 42.8066 101.453 48.8896C96.8981 56.6501 108.108 78.5951 121.824 73.0436C123.194 74.5911 124.763 75.9601 126.499 77.1006C126.538 77.1256 126.571 77.1466 126.611 77.1696C126.967 77.3786 128.984 78.5516 130.16 79.0626C130.228 79.0921 130.285 79.1206 130.348 79.1581C133.892 81.2646 138.499 84.7271 137.701 88.1446L141.614 88.1226C141.614 88.1226 140.339 83.1676 147.974 80.0116C148.475 79.8481 149.506 79.4456 149.733 79.3566C149.764 79.3441 149.792 79.3326 149.823 79.3196C153.177 77.8856 156.134 75.6476 158.433 72.8231C172.379 79.1366 183.924 56.7456 179.312 48.8896ZM105.93 51.5926C108.337 47.4931 112.64 48.3206 115.247 49.3301L116.053 59.4931C116.357 63.3216 117.59 66.8811 119.52 69.9616C110.062 72.0096 102.723 57.0566 105.93 51.5926ZM160.52 69.7706C161.853 67.4281 162.788 64.8111 163.204 61.9886L165.037 49.5261C167.563 48.4471 172.274 47.2291 174.835 51.5926C178.124 57.1956 170.324 72.7756 160.52 69.7706Z" fill="#F0C66C"/>
<path d="M114.613 41.3442H166.019L165.742 44.7247H114.881L114.613 41.3442Z" fill="#E69724"/>
<path d="M143.559 91.558H135.481C135.209 91.558 134.988 91.3375 134.988 91.0655V88.637C134.988 88.365 135.209 88.1445 135.481 88.1445H143.559C143.831 88.1445 144.051 88.365 144.051 88.637V91.0655C144.051 91.338 143.831 91.558 143.559 91.558Z" fill="#E69724"/>
<path d="M150.225 21.6236L143.052 31.5956C142.434 32.4551 142.393 33.6016 142.956 34.4986C145.357 38.3251 152.598 48.1576 164.629 50.1386C165.595 50.2976 166.567 49.8766 167.139 49.0816L174.411 38.9716C174.976 38.1871 175.062 37.1571 174.632 36.2916C172.752 32.5051 166.556 22.5401 152.69 20.5601C151.737 20.4241 150.787 20.8421 150.225 21.6236Z" fill="#315782"/>
<path d="M75.1622 148.548L75.0757 151.344L71.4697 151.326L71.4837 148.529L75.1622 148.548Z" fill="#F3D6C1"/>
<path d="M71.4691 151.326L74.9961 151.343C75.0496 151.344 75.1006 151.349 75.1526 151.362C75.6561 151.482 78.5226 152.205 81.0466 153.601C81.6741 153.948 81.4171 154.908 80.6996 154.904L72.1476 154.862C71.7631 154.86 71.4531 154.547 71.4551 154.162L71.4691 151.326Z" fill="#2F526E"/>
<path d="M48.9615 154.348L48.8755 157.144L45.2695 157.126L45.2835 154.33L48.9615 154.348Z" fill="#F3D6C1"/>
<path d="M45.2704 157.126L48.7974 157.143C48.8509 157.144 48.9019 157.149 48.9539 157.162C49.4574 157.282 52.3239 158.005 54.8479 159.401C55.4754 159.748 55.2184 160.708 54.5009 160.704L45.9484 160.662C45.5639 160.66 45.2539 160.347 45.2559 159.962L45.2704 157.126Z" fill="#2F526E"/>
<path d="M55.2649 117L51.7844 135.214L44.8124 154.898C44.8124 154.898 44.4604 155.545 45.4284 155.849H49.2199C49.2199 155.849 49.7594 155.73 50.0074 155.263L57.8169 140.551L62.3379 125.755L72.7264 133.63L70.4124 149.043C70.4124 149.043 70.4389 149.483 71.0514 149.483C71.6639 149.483 75.2659 149.483 75.2659 149.483C75.2659 149.483 75.7139 149.353 75.8209 148.903L79.8769 131.911C79.8784 131.905 79.8809 131.898 79.8834 131.892C79.9044 131.834 79.9799 131.508 79.3654 130.757C78.6829 129.923 69.5339 118.74 69.5339 118.74L55.2649 117Z" fill="#F0C66C"/>
<path d="M81.0395 98.4443L83.7245 99.8733L91.8505 93.7388C91.8505 93.7388 91.0695 92.3508 91.249 91.2303C91.4285 90.1098 91.7585 89.9048 91.986 90.0898C92.214 90.2748 92.187 91.6198 92.6725 91.8758C93.158 92.1318 93.37 91.8543 93.945 90.3343C94.5195 88.8148 94.772 88.1153 95.2495 88.0983C95.727 88.0813 95.6725 89.1533 95.6725 89.1533C95.6725 89.1533 96.092 88.9408 96.422 89.1468C96.752 89.3533 96.618 89.7798 96.618 89.7798C96.618 89.7798 96.8925 89.6758 97.2405 89.9568C97.5885 90.2378 97.374 90.7248 97.374 90.7248C97.374 90.7248 97.971 90.4803 97.973 91.3588C97.975 92.2373 97.553 95.0828 93.9655 95.7663C93.9655 95.7663 85.471 105.96 84.1285 105.948C82.7865 105.937 78.915 104.617 78.915 104.617L81.0395 98.4443Z" fill="#F3D6C1"/>
<path d="M56.3599 120.031H53.9984C53.8964 119.16 53.5684 117.802 52.5439 116.722C51.5319 115.656 50.1044 115.115 48.3024 115.115C45.2129 115.115 43.7254 116.78 43.0214 118.177C42.6874 118.84 42.5024 119.501 42.3984 120.031H39.9514C39.2214 120.031 38.6299 120.623 38.6299 121.352V131.397C38.6299 132.127 39.2219 132.719 39.9514 132.719H56.3599C57.0899 132.719 57.6814 132.127 57.6814 131.397V121.352C57.6814 120.623 57.0899 120.031 56.3599 120.031ZM48.3019 116.895C49.5909 116.895 50.5809 117.245 51.2434 117.938C51.8629 118.585 52.1069 119.426 52.2024 120.031H44.2044C44.5184 118.756 45.4634 116.895 48.3019 116.895Z" fill="#315780"/>
<path d="M54.6828 102.353L51.7048 102.972L49.3803 112.884C49.3803 112.884 50.8683 113.452 51.4468 114.428C52.0253 115.405 52.0238 116.278 51.7408 116.053C51.5678 115.915 51.3193 115.786 50.9718 115.623C50.5013 115.402 50.2523 115.1 49.9413 115.165C49.4043 115.279 48.8613 115.606 49.4713 116.661C50.0633 117.685 51.6108 117.768 51.2748 118.108C50.4198 118.972 49.5838 118.098 49.5838 118.098C49.5838 118.098 49.3683 118.581 48.9828 118.634C48.5973 118.686 48.3438 118.033 48.3438 118.033C48.3438 118.033 48.1148 118.457 47.6673 118.463C47.2203 118.47 47.0283 117.864 47.0283 117.864C47.0283 117.864 46.4363 118.585 45.8728 117.911C45.3093 117.237 44.1358 115.498 46.4568 112.678C46.4568 112.678 46.4688 99.4085 47.5078 98.559C48.5468 97.7095 52.3673 96.2485 52.3673 96.2485L54.6828 102.353Z" fill="#F3D6C1"/>
<path d="M54.8447 117.65C56.7927 118.419 64.2292 121.095 70.2892 119.746C70.5527 119.688 70.7387 119.452 70.7432 119.183C70.7747 117.277 70.9767 109.934 72.2437 107.505C73.1842 105.702 73.7357 104.533 74.0097 103.929C74.1367 103.648 74.4567 103.516 74.7457 103.622L79.1062 105.216C79.4122 105.328 79.7507 105.17 79.8612 104.864L81.9402 99.1031C82.0457 98.8106 81.9062 98.4876 81.6212 98.3641C80.0242 97.6716 74.9522 95.5701 70.9042 94.9631C66.0847 94.2401 64.3667 89.0961 51.3292 96.2916C51.0937 96.4216 50.9917 96.7111 51.0947 96.9591L53.3392 102.356C53.4612 102.65 53.7947 102.793 54.0917 102.68L57.8152 101.26C58.2647 101.089 58.7187 101.501 58.5917 101.965L54.4967 116.949C54.4177 117.239 54.5657 117.54 54.8447 117.65Z" fill="#315782"/>
<path d="M74.5865 81.5698C74.5865 81.5698 74.6905 82.7123 75.9115 85.1393C77.158 87.6173 76.7585 91.2898 74.8365 92.0093C73.34 92.5693 72.2685 92.2418 72.2685 92.2418L71.497 96.1583L66.7005 94.2788L67.2265 90.9533L66.2695 83.4463L74.5865 81.5698Z" fill="#F3D6C1"/>
<path d="M75.9193 79.2814C75.9588 78.9119 75.6068 78.6119 75.2518 78.7209C74.5153 78.9464 73.0838 79.1554 70.5023 78.8104C65.5713 78.1514 63.0318 82.4169 63.0688 85.5079C63.1003 88.1574 65.9353 89.6519 66.8293 90.7634C67.0223 91.0029 67.3863 91.0079 67.6018 90.7884C68.1113 90.2699 68.8228 89.4944 68.8463 89.1879C68.8833 88.7094 67.4848 88.6359 67.4113 87.2009C67.3378 85.7659 69.2513 85.5819 69.8033 86.6859C70.3553 87.7899 70.0978 83.9629 71.1283 83.5949C72.0763 83.2554 75.5813 82.4524 75.9193 79.2814Z" fill="#2F5482"/>
<path d="M66.8938 93.519C66.8938 93.519 65.7143 96.407 68.6553 97.499C71.5963 98.591 71.6863 95.097 71.6863 95.097L66.8938 93.519Z" fill="#F3D6C1"/>
<path d="M87.5449 154.099C87.5449 154.529 87.8664 154.877 88.2629 154.877H157.268C162.386 154.877 166.535 151.161 166.535 146.578V143.872C166.535 139.289 162.386 135.574 157.268 135.574H88.2629C87.8664 135.574 87.5449 135.922 87.5449 136.351V136.492C87.5449 136.919 87.8629 137.266 88.2574 137.269L89.1589 137.276L89.2099 153.322L88.2629 153.321C87.8664 153.321 87.5449 153.67 87.5449 154.099Z" fill="#315782"/>
<path d="M135.423 137.21L89.0947 137.276L89.1457 153.322H135.902C138.307 153.322 140.256 151.213 140.256 148.611V142.439C140.256 139.551 138.092 137.21 135.423 137.21Z" fill="#F9ECDC"/>
<path d="M152.01 146.036V144.414C152.01 143.934 151.622 143.546 151.142 143.546H144.482C144.003 143.546 143.614 143.934 143.614 144.414V146.036C143.614 146.515 144.003 146.904 144.482 146.904H151.142C151.622 146.904 152.01 146.515 152.01 146.036Z" fill="#E69724"/>
<path d="M137.671 139.712H89.21" stroke="#F0C66C" stroke-miterlimit="10" stroke-linecap="round"/>
<path d="M134.176 142.131H89.21" stroke="#F0C66C" stroke-miterlimit="10" stroke-linecap="round"/>
<path d="M137.671 146.511H89.21" stroke="#F0C66C" stroke-miterlimit="10" stroke-linecap="round"/>
<path d="M138.43 151.058H89.21" stroke="#F0C66C" stroke-miterlimit="10" stroke-linecap="round"/>
<path d="M185.761 174.749C185.761 175.211 185.247 175.585 184.612 175.585H74.1451C65.9516 175.585 59.3096 171.589 59.3096 166.659V163.749C59.3096 158.819 65.9516 154.822 74.1451 154.822H184.612C185.247 154.822 185.761 155.197 185.761 155.659V155.81C185.761 156.27 185.252 156.643 184.62 156.647L183.177 156.654L183.096 173.913L184.612 173.913C185.247 173.912 185.761 174.287 185.761 174.749Z" fill="#E69724"/>
<path d="M108.608 156.582L183.194 156.654L183.113 173.913H108.984C104.784 173.913 101.379 171.435 101.379 168.379V161.843C101.379 158.937 104.616 156.582 108.608 156.582Z" fill="#F9ECDC"/>
<path d="M90.4948 170.759H88.0683C87.3678 170.759 86.7998 170.191 86.7998 169.491V162.245C86.7998 161.544 87.3678 160.976 88.0683 160.976H90.4948C91.1953 160.976 91.7633 161.544 91.7633 162.245V169.491C91.7633 170.191 91.1953 170.759 90.4948 170.759Z" fill="#315780"/>
<path d="M82.8903 170.803H80.4638C79.7633 170.803 79.1953 170.235 79.1953 169.534V162.288C79.1953 161.588 79.7633 161.02 80.4638 161.02H82.8903C83.5908 161.02 84.1588 161.588 84.1588 162.288V169.534C84.1588 170.235 83.5908 170.803 82.8903 170.803Z" fill="#315780"/>
<path d="M109.697 159.273H183.096" stroke="#F0C66C" stroke-miterlimit="10" stroke-linecap="round"/>
<path d="M119.721 165.077H183.141" stroke="#F0C66C" stroke-miterlimit="10" stroke-linecap="round"/>
<path d="M103.787 167.251H183.096" stroke="#F0C66C" stroke-miterlimit="10" stroke-linecap="round"/>
<path d="M107.052 172.142H183.096" stroke="#F0C66C" stroke-miterlimit="10" stroke-linecap="round"/>
<path d="M171.525 134.986C171.525 135.404 171.214 135.744 170.83 135.744H103.962C99.0029 135.744 94.9824 132.123 94.9824 127.656V125.019C94.9824 120.553 99.0029 116.932 103.962 116.932H170.829C171.213 116.932 171.525 117.271 171.525 117.69V117.827C171.525 118.243 171.216 118.581 170.834 118.585L169.961 118.592L169.912 134.229H170.829C171.214 134.228 171.525 134.567 171.525 134.986Z" fill="#F0C66C"/>
<path d="M124.824 118.525L169.972 118.59L169.923 134.228H125.052C122.509 134.228 120.448 131.983 120.448 129.214V123.292C120.448 120.659 122.407 118.525 124.824 118.525Z" fill="#F9ECDC"/>
<path d="M113.359 131.371H112.892C112.191 131.371 111.623 130.803 111.623 130.102V123.776C111.623 123.075 112.191 122.507 112.892 122.507H113.359C114.06 122.507 114.628 123.075 114.628 123.776V130.102C114.627 130.803 114.06 131.371 113.359 131.371Z" fill="#E69724"/>
<path d="M108.756 131.41H108.288C107.588 131.41 107.02 130.842 107.02 130.142V123.815C107.02 123.115 107.588 122.547 108.288 122.547H108.756C109.456 122.547 110.024 123.115 110.024 123.815V130.142C110.024 130.842 109.456 131.41 108.756 131.41Z" fill="#E69724"/>
<path d="M125.483 120.964H169.912" stroke="#F0C66C" stroke-miterlimit="10" stroke-linecap="round"/>
<path d="M131.55 126.223H169.939" stroke="#F0C66C" stroke-miterlimit="10" stroke-linecap="round"/>
<path d="M121.905 128.192H169.912" stroke="#F0C66C" stroke-miterlimit="10" stroke-linecap="round"/>
<path d="M123.882 132.624H169.912" stroke="#F0C66C" stroke-miterlimit="10" stroke-linecap="round"/>
<path d="M31.1836 175.209C31.1836 175.545 31.4926 175.817 31.8741 175.817H98.2391C103.162 175.817 107.152 172.908 107.152 169.32V167.202C107.152 163.613 103.161 160.705 98.2391 160.705H31.8741C31.4926 160.705 31.1836 160.977 31.1836 161.313V161.423C31.1836 161.758 31.4896 162.03 31.8691 162.032L32.7361 162.037L32.7851 174.599H31.8746C31.4931 174.6 31.1836 174.872 31.1836 175.209Z" fill="#F0C66C"/>
<path d="M77.2353 161.985L32.7363 162.037L32.7853 174.599H77.6963C80.0058 174.599 81.8783 172.948 81.8783 170.912V166.079C81.8783 163.818 79.7993 161.985 77.2353 161.985Z" fill="#F9ECDC"/>
<path d="M79.3917 163.944H32.7852" stroke="#F0C66C" stroke-miterlimit="10" stroke-linecap="round"/>
<path d="M76.0307 165.838H32.7852" stroke="#F0C66C" stroke-miterlimit="10" stroke-linecap="round"/>
<path d="M79.3917 169.268H32.7852" stroke="#F0C66C" stroke-miterlimit="10" stroke-linecap="round"/>
<path d="M80.1227 172.828H32.7852" stroke="#F0C66C" stroke-miterlimit="10" stroke-linecap="round"/>
<path d="M5.18066 175.813H202.605" stroke="#315782" stroke-miterlimit="10" stroke-linecap="round"/>
</svg>
