<svg width="16" height="16" viewBox="0 0 16 16" fill="none" xmlns="http://www.w3.org/2000/svg">
<g clip-path="url(#clip0_288_1625)">
<path d="M13.4125 2.5875C11.9688 1.14063 10.0437 0.34375 8 0.34375C5.95625 0.34375 4.03125 1.14063 2.5875 2.5875C1.14375 4.03438 0.34375 5.95625 0.34375 8C0.34375 10.0437 1.14063 11.9688 2.5875 13.4125C4.03438 14.8563 5.95625 15.6562 8 15.6562C10.0437 15.6562 11.9688 14.8594 13.4125 13.4125C14.8563 11.9656 15.6562 10.0437 15.6562 8C15.6562 5.95625 14.8594 4.03125 13.4125 2.5875ZM14.9625 7.65625H11.9937C11.9656 6.475 11.8 5.3375 11.5094 4.32812C12.075 4.0375 12.6031 3.67188 13.0875 3.24062C14.1812 4.40938 14.8781 5.95312 14.9625 7.65625ZM8.34375 8.34375H11.3094C11.2844 9.43125 11.1344 10.4719 10.875 11.4031C10.075 11.0813 9.22188 10.8937 8.34375 10.8531V8.34375ZM12.5938 2.7625C12.1938 3.11563 11.7562 3.41563 11.2937 3.66563C11.175 3.33438 11.0406 3.02188 10.8906 2.72813C10.5938 2.14063 10.2562 1.65937 9.88437 1.29062C10.9 1.575 11.8219 2.08438 12.5938 2.7625ZM8.34375 1.1375C9.05937 1.29688 9.73438 1.95625 10.2781 3.03125C10.425 3.32188 10.5562 3.63125 10.6719 3.95937C9.9375 4.2625 9.15312 4.44062 8.34375 4.48125V1.1375ZM10.8781 4.61875C11.1344 5.54375 11.2812 6.57812 11.3062 7.65938H8.34375V5.17188C9.225 5.13125 10.0781 4.94063 10.8781 4.61875ZM7.65625 7.65625H4.69063C4.71563 6.575 4.8625 5.54063 5.11875 4.61562C5.91875 4.94062 6.775 5.12813 7.65312 5.16563V7.65625H7.65625ZM7.65938 1.1375V4.48125C6.85 4.44062 6.0625 4.2625 5.33125 3.95937C5.44688 3.63125 5.57812 3.32188 5.725 3.03125C6.26875 1.95625 6.94375 1.29688 7.65938 1.1375ZM6.11875 1.29062C5.74688 1.65937 5.40938 2.14375 5.1125 2.72813C4.96563 3.02188 4.83125 3.33438 4.70937 3.66563C4.24687 3.41563 3.8125 3.11563 3.40937 2.7625C4.18125 2.08438 5.10313 1.575 6.11875 1.29062ZM2.91563 3.24062C3.4 3.67188 3.92813 4.03437 4.49375 4.32812C4.20312 5.34062 4.03438 6.475 4.00938 7.65625H1.04062C1.125 5.95312 1.82188 4.40938 2.91563 3.24062ZM1.04062 8.34375H4.00938C4.0375 9.53438 4.20625 10.675 4.5 11.6906C3.9375 11.9812 3.40937 12.3406 2.92812 12.7719C1.825 11.6 1.125 10.0531 1.04062 8.34375ZM3.42188 13.25C3.82188 12.9 4.25625 12.6 4.71562 12.3531C4.83437 12.675 4.96563 12.9844 5.1125 13.2719C5.40938 13.8594 5.74688 14.3406 6.11875 14.7125C5.10938 14.4281 4.19062 13.9219 3.42188 13.25ZM7.65938 14.8625C6.94375 14.7031 6.26875 14.0437 5.725 12.9688C5.58125 12.6844 5.45312 12.3812 5.3375 12.0594C6.06875 11.7562 6.85313 11.5781 7.65938 11.5406V14.8625ZM5.12813 11.4031C4.86875 10.4719 4.71875 9.43125 4.69375 8.34375H7.65938V10.8531C6.78125 10.8906 5.92813 11.0781 5.12813 11.4031ZM8.34688 14.8625V11.5406C9.15312 11.5812 9.9375 11.7562 10.6687 12.0594C10.5531 12.3812 10.425 12.6844 10.2812 12.9688C9.7375 14.0437 9.0625 14.7031 8.34688 14.8625ZM9.8875 14.7094C10.2594 14.3406 10.5969 13.8562 10.8938 13.2688C11.0406 12.9812 11.1719 12.6719 11.2906 12.35C11.75 12.5969 12.1844 12.8969 12.5844 13.2469C11.8156 13.9219 10.8969 14.4281 9.8875 14.7094ZM13.0813 12.7719C12.6 12.3438 12.0719 11.9812 11.5094 11.6906C11.8031 10.675 11.9719 9.53125 12 8.34375H14.9688C14.8813 10.0531 14.1813 11.6 13.0813 12.7719Z" fill="#6B7280"/>
</g>
<defs>
<clipPath id="clip0_288_1625">
<rect width="16" height="16" fill="white"/>
</clipPath>
</defs>
</svg>
