<svg width="20" height="20" viewBox="0 0 20 20" fill="none" xmlns="http://www.w3.org/2000/svg">
<g clip-path="url(#clip0_624_2114)">
<path d="M10.3574 19.9882C11.8868 19.7709 13.2276 18.1747 14.0712 15.8174C12.8517 15.5442 11.6072 15.3976 10.3575 15.3801L10.3574 19.9882ZM12.8009 19.6133C12.8913 19.5872 12.9813 19.5608 13.0707 19.5318C13.1461 19.5076 13.2205 19.4814 13.2948 19.4554C13.3829 19.4252 13.4705 19.3936 13.5576 19.3606C13.632 19.3323 13.7056 19.3023 13.7794 19.2723C13.8646 19.2366 13.9496 19.2009 14.0338 19.1652C14.1907 19.0956 14.346 19.0223 14.4994 18.9452C14.5709 18.9088 14.6423 18.8716 14.7139 18.8334C14.794 18.7905 14.8736 18.7466 14.9526 18.7016C15.0232 18.6615 15.0933 18.6205 15.1628 18.5786C15.2403 18.5309 15.3174 18.4833 15.394 18.4356C15.4628 18.392 15.531 18.3475 15.5986 18.3019C15.6739 18.2508 15.7485 18.1986 15.8223 18.1454C15.8885 18.0982 15.9544 18.0505 16.0199 18.0024C16.0926 17.9465 16.1648 17.89 16.2365 17.8329C16.3002 17.7822 16.3637 17.7317 16.4264 17.6796C16.4977 17.6202 16.5662 17.5588 16.6355 17.4974C16.6962 17.4434 16.7573 17.39 16.8166 17.3347C16.8849 17.271 16.9513 17.205 17.0179 17.1396C17.0755 17.0827 17.1337 17.0267 17.1901 16.9684C17.2006 16.9575 17.2105 16.9458 17.2214 16.9347C16.4418 16.532 15.6205 16.216 14.7722 15.9922C14.3309 17.3994 13.5458 18.6743 12.4878 19.7017C12.5168 19.6942 12.5457 19.688 12.5747 19.6805C12.6511 19.6591 12.7262 19.6355 12.8009 19.6133ZM20 10.3657H15.7142C15.698 12.0391 15.4553 13.7026 14.9926 15.3109C15.9361 15.5629 16.8466 15.9252 17.7053 16.3903C19.1152 14.691 19.9222 12.5724 20 10.3657H20ZM10.3574 9.65087H14.9994C14.9812 8.03665 14.7445 6.43233 14.2957 4.88164C13.0032 5.17642 11.6831 5.33385 10.3574 5.35131V9.65087ZM10.3574 0.0283203V4.63644C11.6071 4.61885 12.8516 4.47234 14.0712 4.19925C13.2276 1.84186 11.8869 0.245642 10.3575 0.0283203H10.3574ZM10.3574 14.6653C11.6831 14.6829 13.0031 14.8404 14.2957 15.1351C14.7445 13.5844 14.9812 11.98 14.9994 10.3657H10.3574V14.6653ZM17.7053 3.62628C16.8466 4.0914 15.9361 4.45371 14.9926 4.70573C15.4553 6.31398 15.6981 7.97747 15.7143 9.65087H20C19.922 7.44425 19.115 5.32567 17.7053 3.62628ZM17.2224 3.084C17.2119 3.07337 17.202 3.06184 17.1917 3.05085C17.1351 2.99254 17.0765 2.93633 17.0189 2.87964C16.9526 2.81418 16.8864 2.74805 16.818 2.68452C16.7589 2.62934 16.6976 2.57716 16.6368 2.5222C16.5676 2.46076 16.4983 2.39879 16.4271 2.33946C16.3653 2.28727 16.302 2.23737 16.2391 2.18728C16.1673 2.129 16.0945 2.07202 16.0206 2.01638C15.9559 1.96794 15.8906 1.92029 15.8248 1.87345C15.7503 1.81942 15.6751 1.76659 15.5989 1.71497C15.532 1.67002 15.4644 1.62598 15.3963 1.58286C15.3194 1.5331 15.2416 1.48458 15.1631 1.43733C15.0942 1.39588 15.0247 1.35527 14.9547 1.31549C14.8751 1.26993 14.7948 1.22549 14.7139 1.18217C14.6423 1.14638 14.5709 1.10747 14.4994 1.07168C14.4172 1.03013 14.3343 0.990182 14.2493 0.950909C14.1772 0.916626 14.1046 0.883455 14.0315 0.851407C13.9468 0.813876 13.8613 0.780054 13.776 0.744266C13.7025 0.714069 13.6288 0.684742 13.5547 0.656292C13.4676 0.623334 13.3801 0.591801 13.292 0.561705C13.2176 0.535222 13.1429 0.509679 13.0679 0.485079C12.9785 0.456127 12.8892 0.429766 12.7974 0.403226C12.723 0.381423 12.6483 0.359262 12.5731 0.339335C12.5443 0.331516 12.515 0.325395 12.486 0.317889C13.544 1.34525 14.3292 2.62017 14.7704 4.02732C15.6198 3.8036 16.4421 3.48726 17.2224 3.084ZM0 9.65087H4.28575C4.30201 7.97749 4.54471 6.31401 5.00724 4.70573C4.06377 4.45384 3.15331 4.09151 2.29474 3.62628C0.884853 5.32557 0.0778731 7.44421 0 9.65087ZM9.64256 19.9882V15.3802C8.3929 15.3978 7.14839 15.5443 5.9288 15.8174C6.77226 18.1747 8.11318 19.771 9.64256 19.9883V19.9882ZM9.64256 10.3657H5.00063C5.01875 11.98 5.25547 13.5844 5.70433 15.1351C6.99685 14.8402 8.31693 14.6827 9.64256 14.6653V10.3657ZM9.64256 0.0283203C8.11318 0.245642 6.77226 1.84186 5.9288 4.19925C7.14836 4.47251 8.39289 4.61902 9.64256 4.63644V0.0283203ZM9.64256 5.35131C8.31694 5.33385 6.99688 5.17641 5.70433 4.88164C5.25547 6.43231 5.01875 8.03664 5.00063 9.65087H9.64256V5.35131ZM7.51122 0.317576C7.48226 0.325037 7.45327 0.331158 7.42431 0.338665C7.34858 0.358904 7.27388 0.381423 7.19846 0.403226C7.10874 0.429409 7.01974 0.45577 6.92971 0.484365C6.85376 0.508983 6.7791 0.535165 6.70439 0.561213C6.61695 0.592042 6.52934 0.622782 6.44275 0.655577C6.36804 0.684216 6.29441 0.713883 6.22042 0.744266C6.1354 0.780009 6.05024 0.815798 5.96629 0.851407C5.89265 0.883711 5.81987 0.917533 5.74691 0.951579C5.66427 0.990367 5.58218 1.03028 5.50063 1.07132C5.34764 1.14878 5.19662 1.23007 5.04772 1.31514C4.97671 1.3548 4.90643 1.39577 4.83692 1.43801C4.75927 1.48478 4.68246 1.53317 4.60602 1.58098C4.53721 1.62494 4.46898 1.66927 4.40147 1.71502C4.32617 1.76616 4.25158 1.81833 4.17772 1.87153C4.11148 1.91879 4.04556 1.96649 3.97997 2.01464C3.90683 2.0696 3.83699 2.12687 3.76336 2.18397C3.69987 2.23473 3.6358 2.28517 3.57365 2.33767C3.50212 2.39669 3.43425 2.45777 3.36526 2.51889C3.30419 2.57331 3.24257 2.62621 3.18288 2.6826C3.11497 2.74595 3.04884 2.81172 2.98254 2.877C2.9249 2.93392 2.86628 2.99008 2.80976 3.04857C2.79949 3.05938 2.78952 3.07127 2.77867 3.08226C3.55815 3.48507 4.37946 3.80117 5.22787 4.02491C5.66901 2.61854 6.45379 1.34437 7.51122 0.317576ZM2.98098 17.1369C3.04746 17.2024 3.11363 17.2686 3.18185 17.3322C3.24119 17.3872 3.30227 17.4394 3.36316 17.4944C3.43246 17.556 3.50176 17.6178 3.57298 17.6771C3.63477 17.729 3.69777 17.779 3.76095 17.8293C3.83248 17.8872 3.90388 17.9448 3.97961 18.0005C4.04404 18.0489 4.10949 18.0956 4.1749 18.1436C4.24961 18.1972 4.32503 18.2508 4.40112 18.3023C4.4681 18.3472 4.53564 18.3913 4.60374 18.4346C4.68103 18.4841 4.75819 18.5329 4.83692 18.5799C4.90586 18.6215 4.97547 18.6622 5.04531 18.7019C5.12492 18.7475 5.2052 18.7919 5.28613 18.8351C5.35753 18.8709 5.4291 18.9098 5.50063 18.9456C5.58285 18.9872 5.66577 19.0271 5.75075 19.0665C5.82228 19.1002 5.89489 19.1334 5.96856 19.1659C6.05319 19.2034 6.13857 19.2372 6.22409 19.273C6.29772 19.303 6.37104 19.3327 6.44538 19.361C6.53211 19.3943 6.62008 19.4254 6.70805 19.4557C6.7824 19.4818 6.85675 19.5079 6.93212 19.5322C7.02148 19.5612 7.11084 19.5877 7.20266 19.6141C7.277 19.6359 7.35171 19.658 7.42677 19.6781C7.45572 19.6859 7.48503 19.6921 7.51403 19.6995C6.45606 18.6721 5.6709 17.3971 5.22956 15.9899C4.38116 16.2138 3.55987 16.53 2.78041 16.9329C2.79091 16.9436 2.80087 16.9551 2.81133 16.9661C2.86494 17.024 2.92267 17.0802 2.98098 17.1369ZM2.29474 16.3903C3.15338 15.9252 4.06382 15.5629 5.00724 15.3108C4.54471 13.7026 4.30201 12.0391 4.28575 10.3657H0C0.0779835 12.5723 0.88495 14.6909 2.29474 16.3903Z" fill="#4A90EB"/>
</g>
<defs>
<clipPath id="clip0_624_2114">
<rect width="20" height="20" fill="white"/>
</clipPath>
</defs>
</svg>
