<svg width="200" height="200" viewBox="0 0 200 200" fill="none" xmlns="http://www.w3.org/2000/svg">
<g clip-path="url(#clip0_463_3686)">
<path d="M74.9803 11.9126C78.1717 12.145 80.0517 14.2843 80.414 18.6327C80.6021 14.6857 82.3317 12.361 85.8478 11.9128C82.6564 11.6802 80.7765 9.54094 80.414 5.1925C80.2261 9.13954 78.4963 11.4642 74.9803 11.9126ZM85.8478 6.3976C85.9161 5.2384 86.5444 4.55566 87.8215 4.42408C86.6623 4.35568 85.9794 3.72748 85.8478 2.4502C85.7794 3.6094 85.1512 4.29232 83.874 4.42408C85.0332 4.4923 85.7161 5.1205 85.8478 6.3976ZM72.1777 6.7108C73.3369 6.7792 74.0199 7.4074 74.1514 8.6845C74.2198 7.5253 74.848 6.84238 76.1253 6.7108C74.9661 6.6424 74.2832 6.0142 74.1514 4.7371C74.083 5.8963 73.4548 6.57922 72.1777 6.7108ZM74.1514 15.6028C74.0832 16.762 73.4548 17.4447 72.1777 17.5765C73.3369 17.6447 74.0199 18.2731 74.1516 19.5502C74.2198 18.391 74.8482 17.7081 76.1253 17.5765C74.9661 17.5081 74.2832 16.8799 74.1516 15.6026L74.1514 15.6028Z" fill="#F98D07"/>
<g clip-path="url(#clip1_463_3686)">
<path d="M189.096 81.7102C191.578 81.891 193.04 83.5549 193.322 86.937C193.468 83.8671 194.814 82.059 197.548 81.7104C195.066 81.5295 193.604 79.8656 193.322 76.4835C193.176 79.5534 191.83 81.3615 189.096 81.7102ZM197.548 77.4208C197.601 76.5192 198.09 75.9882 199.083 75.8858C198.182 75.8326 197.651 75.344 197.548 74.3506C197.495 75.2522 197.007 75.7833 196.013 75.8858C196.915 75.9389 197.446 76.4275 197.548 77.4208ZM186.916 77.6644C187.818 77.7176 188.349 78.2062 188.451 79.1995C188.504 78.2979 188.993 77.7667 189.986 77.6644C189.085 77.6112 188.554 77.1226 188.451 76.1293C188.398 77.0309 187.909 77.562 186.916 77.6644ZM188.451 84.5804C188.398 85.482 187.909 86.013 186.916 86.1155C187.818 86.1685 188.349 86.6573 188.451 87.6506C188.504 86.749 188.993 86.2178 189.986 86.1155C189.085 86.0623 188.554 85.5737 188.451 84.5802L188.451 84.5804Z" fill="#EF4444"/>
</g>
<path d="M145.98 46.9126C149.172 47.145 151.052 49.2843 151.414 53.6327C151.602 49.6857 153.332 47.361 156.848 46.9128C153.656 46.6802 151.777 44.5409 151.414 40.1925C151.226 44.1395 149.496 46.4642 145.98 46.9126ZM156.848 41.3976C156.916 40.2384 157.544 39.5557 158.822 39.4241C157.662 39.3557 156.979 38.7275 156.848 37.4502C156.779 38.6094 156.151 39.2923 154.874 39.4241C156.033 39.4923 156.716 40.1205 156.848 41.3976ZM143.178 41.7108C144.337 41.7792 145.02 42.4074 145.151 43.6845C145.22 42.5253 145.848 41.8424 147.125 41.7108C145.966 41.6424 145.283 41.0142 145.151 39.7371C145.083 40.8963 144.455 41.5792 143.178 41.7108ZM145.151 50.6028C145.083 51.762 144.455 52.4447 143.178 52.5765C144.337 52.6447 145.02 53.2731 145.152 54.5502C145.22 53.391 145.848 52.7081 147.125 52.5765C145.966 52.5081 145.283 51.8799 145.152 50.6026L145.151 50.6028Z" fill="#4A90EB"/>
<path d="M107.11 156.768C107.11 156.768 8.36295 154.387 13.3865 77.0272C19.0549 -10.272 102.197 6.35681 129.407 35.4564C156.618 64.556 167.577 35.0784 185.717 64.556C201.989 90.9972 197.055 165.46 107.11 156.768Z" fill="#EDF5FF"/>
<path d="M190.601 182.347C190.601 184.05 188.149 185.634 183.266 187.102C178.374 188.573 171.833 189.856 163.636 190.958C155.439 192.06 145.869 192.93 134.946 193.568C124.014 194.206 112.365 194.525 100.001 194.525C87.3424 194.525 75.5464 194.206 64.6236 193.568C53.6908 192.93 44.1308 192.06 35.9336 190.958C27.7364 189.857 21.2652 188.573 16.5192 187.102C11.7732 185.634 9.40039 184.05 9.40039 182.347C9.40039 180.686 11.7732 179.1 16.5192 177.592C21.2648 176.084 27.7364 174.779 35.9336 173.677C44.1308 172.576 53.6908 171.698 64.6236 171.039C75.5464 170.382 87.3424 170.053 100.001 170.053C112.365 170.053 124.014 170.382 134.946 171.039C145.869 171.698 155.439 172.576 163.636 173.677C171.833 174.779 178.374 176.084 183.266 177.592C188.149 179.1 190.601 180.686 190.601 182.347Z" fill="#DBEAFE"/>
<path d="M74.3613 112.235L79.1889 103.116H121.206L126.57 112.235H74.3613Z" fill="#4A90EB"/>
<path d="M23.2266 135.478L27.5174 125.585L74.9578 125.347L75.1962 138.458L23.2266 135.478Z" fill="#4A90EB"/>
<path d="M176.991 148.017L172.581 137.861L125.141 137.623L124.902 150.735L176.991 148.017Z" fill="#4A90EB"/>
<path d="M125.473 148.018L126.57 112.235H74.3618L74.9254 135.479H23.2266L24.7742 182.789L176.487 183.223L176.99 148.018H125.473Z" fill="#99CAF7"/>
<path d="M161.481 166.918C161.481 168.621 161.151 170.205 160.495 171.673C159.837 173.144 158.958 174.428 157.857 175.53C156.755 176.631 155.469 177.501 154 178.139C152.531 178.777 150.965 179.096 149.303 179.096C147.601 179.096 146.016 178.777 144.548 178.139C143.078 177.501 141.793 176.632 140.691 175.53C139.59 174.428 138.72 173.144 138.082 171.673C137.444 170.205 137.125 168.621 137.125 166.918C137.125 165.258 137.444 163.671 138.082 162.163C138.72 160.655 139.589 159.35 140.691 158.248C141.793 157.147 143.078 156.269 144.548 155.61C146.016 154.954 147.601 154.624 149.303 154.624C150.965 154.624 152.531 154.954 154 155.61C155.469 156.269 156.755 157.147 157.857 158.248C158.958 159.35 159.837 160.655 160.495 162.163C161.151 163.67 161.481 165.257 161.481 166.918Z" fill="#4A90EB"/>
<path d="M161.481 164.172C161.481 165.875 161.151 167.459 160.495 168.928C159.837 170.398 158.958 171.682 157.857 172.784C156.755 173.886 155.469 174.756 154 175.394C152.531 176.032 150.965 176.351 149.303 176.351C147.601 176.351 146.016 176.032 144.548 175.394C143.078 174.756 141.793 173.886 140.691 172.784C139.59 171.683 138.72 170.398 138.082 168.928C137.444 167.46 137.125 165.875 137.125 164.172C137.125 162.512 137.444 160.925 138.082 159.417C138.72 157.91 139.589 156.605 140.691 155.503C141.793 154.401 143.078 153.524 144.548 152.865C146.016 152.209 147.601 151.879 149.303 151.879C150.965 151.879 152.531 152.209 154 152.865C155.469 153.524 156.755 154.402 157.857 155.503C158.958 156.605 159.837 157.91 160.495 159.417C161.151 160.925 161.481 162.512 161.481 164.172Z" fill="white"/>
<path d="M157.057 167.895C157.057 168.934 156.889 169.836 156.553 170.602C156.225 171.359 155.764 171.992 155.17 172.5C154.576 173 153.865 173.375 153.037 173.625C152.217 173.867 151.314 173.988 150.33 173.988C149.885 173.988 149.428 173.945 148.959 173.859C148.49 173.773 148.025 173.656 147.564 173.508C147.104 173.359 146.654 173.184 146.217 172.98C145.787 172.777 145.385 172.559 145.01 172.324L145.455 167.613C145.752 167.816 146.084 168.012 146.451 168.199C146.818 168.379 147.197 168.543 147.588 168.691C147.986 168.832 148.385 168.945 148.783 169.031C149.189 169.117 149.58 169.16 149.955 169.16C150.174 169.16 150.396 169.145 150.623 169.113C150.857 169.074 151.068 169.008 151.256 168.914C151.443 168.82 151.596 168.688 151.713 168.516C151.838 168.344 151.9 168.121 151.9 167.848C151.9 167.676 151.822 167.516 151.666 167.367C151.51 167.219 151.322 167.094 151.104 166.992C150.885 166.883 150.658 166.801 150.424 166.746C150.189 166.684 149.994 166.652 149.838 166.652C149.729 166.652 149.596 166.66 149.439 166.676C149.291 166.684 149.139 166.699 148.982 166.723C148.826 166.746 148.674 166.781 148.525 166.828C148.385 166.867 148.275 166.918 148.197 166.98L148.268 163.629C148.4 163.645 148.525 163.656 148.643 163.664C148.76 163.672 148.885 163.676 149.018 163.676C149.291 163.676 149.588 163.652 149.908 163.605C150.229 163.551 150.525 163.461 150.799 163.336C151.072 163.203 151.299 163.023 151.479 162.797C151.666 162.57 151.76 162.277 151.76 161.918C151.76 161.66 151.689 161.453 151.549 161.297C151.408 161.133 151.232 161.008 151.021 160.922C150.818 160.836 150.596 160.777 150.354 160.746C150.111 160.715 149.893 160.699 149.697 160.699C149.064 160.699 148.439 160.809 147.822 161.027C147.213 161.246 146.674 161.566 146.205 161.988L145.221 157.723C145.939 157.137 146.756 156.691 147.67 156.387C148.592 156.074 149.518 155.918 150.447 155.918C151.299 155.918 152.111 156.043 152.885 156.293C153.666 156.535 154.354 156.898 154.947 157.383C155.541 157.859 156.014 158.449 156.365 159.152C156.717 159.855 156.893 160.668 156.893 161.59C156.893 161.855 156.854 162.125 156.775 162.398C156.697 162.672 156.592 162.938 156.459 163.195C156.326 163.453 156.17 163.695 155.99 163.922C155.811 164.141 155.619 164.332 155.416 164.496C155.744 164.645 156.014 164.844 156.225 165.094C156.436 165.344 156.604 165.621 156.729 165.926C156.854 166.23 156.939 166.555 156.986 166.898C157.033 167.234 157.057 167.566 157.057 167.895Z" fill="#4A90EB"/>
<path d="M61.8654 155.527C61.8654 157.23 61.5358 158.814 60.8798 160.283C60.2222 161.753 59.343 163.037 58.2414 164.139C57.1394 165.241 55.8534 166.111 54.385 166.749C52.9154 167.387 51.3498 167.705 49.6878 167.705C47.9866 167.705 46.401 167.387 44.9326 166.749C43.463 166.111 42.1782 165.241 41.0762 164.139C39.9742 163.037 39.1046 161.753 38.4666 160.283C37.8286 158.815 37.5098 157.23 37.5098 155.527C37.5098 153.867 37.8286 152.28 38.4666 150.772C39.1046 149.265 39.9742 147.96 41.0762 146.858C42.1782 145.756 43.463 144.878 44.9326 144.219C46.4006 143.563 47.9862 143.233 49.6878 143.233C51.3498 143.233 52.9154 143.563 54.385 144.219C55.853 144.878 57.1394 145.756 58.2414 146.858C59.343 147.959 60.2222 149.264 60.8798 150.772C61.5358 152.28 61.8654 153.867 61.8654 155.527Z" fill="#4A90EB"/>
<path d="M61.8654 152.782C61.8654 154.485 61.5358 156.069 60.8798 157.537C60.2222 159.008 59.343 160.291 58.2414 161.393C57.1394 162.495 55.8534 163.365 54.385 164.003C52.9154 164.641 51.3498 164.96 49.6878 164.96C47.9866 164.96 46.401 164.641 44.9326 164.003C43.463 163.365 42.1782 162.495 41.0762 161.393C39.9742 160.292 39.1046 159.008 38.4666 157.537C37.8286 156.069 37.5098 154.485 37.5098 152.782C37.5098 151.121 37.8286 149.535 38.4666 148.027C39.1046 146.519 39.9742 145.214 41.0762 144.113C42.1782 143.011 43.463 142.133 44.9326 141.474C46.4006 140.818 47.9862 140.488 49.6878 140.488C51.3498 140.488 52.9154 140.818 54.385 141.474C55.853 142.133 57.1394 143.011 58.2414 144.113C59.343 145.214 60.2222 146.519 60.8798 148.027C61.5358 149.534 61.8654 151.121 61.8654 152.782Z" fill="white"/>
<path d="M56.6113 151.562C56.6113 152.187 56.498 152.784 56.2715 153.354C56.0449 153.917 55.7441 154.448 55.3691 154.948C55.002 155.44 54.5801 155.897 54.1035 156.319C53.6348 156.733 53.1582 157.108 52.6738 157.444H56.377L56.0957 162.319L45.127 161.944V157.679C45.541 157.538 45.9746 157.37 46.4277 157.175C46.8887 156.972 47.3379 156.741 47.7754 156.483C48.2207 156.226 48.6387 155.937 49.0293 155.616C49.4277 155.296 49.7754 154.948 50.0723 154.573C50.377 154.19 50.6152 153.776 50.7871 153.331C50.9668 152.886 51.0566 152.405 51.0566 151.89C51.0566 151.593 51.002 151.331 50.8926 151.104C50.791 150.878 50.6465 150.69 50.459 150.542C50.2715 150.386 50.0527 150.272 49.8027 150.202C49.5605 150.124 49.2988 150.085 49.0176 150.085C48.7832 150.085 48.5449 150.112 48.3027 150.167C48.0605 150.214 47.8223 150.284 47.5879 150.378C47.3535 150.472 47.1309 150.589 46.9199 150.729C46.7168 150.862 46.5332 151.015 46.3691 151.187L45.3379 146.593C45.627 146.304 45.959 146.062 46.334 145.866C46.709 145.671 47.1035 145.515 47.5176 145.397C47.9316 145.272 48.3535 145.183 48.7832 145.128C49.2129 145.073 49.6348 145.046 50.0488 145.046C50.9707 145.046 51.8301 145.214 52.627 145.55C53.4238 145.878 54.1152 146.335 54.7012 146.921C55.2949 147.499 55.7598 148.187 56.0957 148.983C56.4395 149.78 56.6113 150.64 56.6113 151.562Z" fill="#4A90EB"/>
<path d="M113.41 131.739C113.41 133.442 113.081 135.026 112.425 136.495C111.767 137.965 110.888 139.249 109.786 140.351C108.685 141.453 107.398 142.323 105.93 142.961C104.46 143.599 102.895 143.917 101.233 143.917C99.5311 143.917 97.9459 143.599 96.4775 142.961C95.0079 142.323 93.7231 141.453 92.6211 140.351C91.5191 139.249 90.6495 137.965 90.0115 136.495C89.3735 135.027 89.0547 133.442 89.0547 131.739C89.0547 130.079 89.3735 128.492 90.0115 126.984C90.6495 125.477 91.5191 124.172 92.6211 123.07C93.7231 121.968 95.0079 121.09 96.4775 120.431C97.9455 119.775 99.5311 119.445 101.233 119.445C102.895 119.445 104.46 119.775 105.93 120.431C107.398 121.09 108.684 121.968 109.786 123.07C110.888 124.172 111.767 125.476 112.425 126.984C113.081 128.492 113.41 130.079 113.41 131.739Z" fill="#4A90EB"/>
<path d="M113.41 128.994C113.41 130.697 113.081 132.281 112.425 133.749C111.767 135.22 110.888 136.504 109.786 137.606C108.685 138.707 107.398 139.577 105.93 140.215C104.46 140.853 102.895 141.172 101.233 141.172C99.5311 141.172 97.9459 140.853 96.4775 140.215C95.0079 139.577 93.7231 138.708 92.6211 137.606C91.5191 136.504 90.6495 135.22 90.0115 133.749C89.3735 132.281 89.0547 130.697 89.0547 128.994C89.0547 127.333 89.3735 125.747 90.0115 124.239C90.6495 122.731 91.5191 121.427 92.6211 120.325C93.7231 119.223 95.0079 118.345 96.4775 117.686C97.9455 117.03 99.5311 116.7 101.233 116.7C102.895 116.7 104.46 117.03 105.93 117.686C107.398 118.345 108.684 119.223 109.786 120.325C110.888 121.426 111.767 122.731 112.425 124.239C113.081 125.747 113.41 127.334 113.41 128.994Z" fill="white"/>
<path d="M105.588 121.749L104.908 138.413L99.7988 138.179L100.08 127.093L98.2051 128.382L96.4473 124.374L100.268 121.515L105.588 121.749Z" fill="#4A90EB"/>
<path d="M141.798 111.68C141.798 111.68 135.985 128.599 134.684 139.792L143.447 143.61C143.447 143.61 149.26 129.728 151.342 118.621C153.425 107.515 141.798 111.68 141.798 111.68Z" fill="#FFB199"/>
<path opacity="0.5" d="M144.655 129.486C145.875 129.756 147.102 129.972 148.333 130.152C149.516 126.418 150.641 122.362 151.342 118.621C153.425 107.515 141.798 111.68 141.798 111.68C141.798 111.68 139.41 118.632 137.352 126.571C139.512 127.98 141.913 128.878 144.655 129.486Z" fill="#FF8255"/>
<path d="M134.25 140.313L135.812 131.637C135.812 131.637 140.931 132.765 146.744 135.454L143.274 144.565L134.25 140.313Z" fill="white"/>
<mask id="mask0_463_3686" style="mask-type:luminance" maskUnits="userSpaceOnUse" x="134" y="131" width="13" height="14">
<path d="M134.25 140.313L135.812 131.637C135.812 131.637 140.931 132.765 146.744 135.454L143.274 144.565L134.25 140.313Z" fill="white"/>
</mask>
<g mask="url(#mask0_463_3686)">
<path d="M133.986 133.003C133.986 133.003 141.588 134.285 147.008 137.646" stroke="#22689E" stroke-width="0.8677" stroke-miterlimit="10"/>
<path d="M133.9 134.131C133.9 134.131 141.502 135.414 146.922 138.774" stroke="#22689E" stroke-width="0.8677" stroke-miterlimit="10"/>
</g>
<path d="M137.808 141.354L138.676 139.879L134.164 137.797L133.646 139.969C132.224 140.74 129.154 142.695 129.825 144.912C130.693 147.775 142.059 146.3 144.228 143.957L144.489 141.788L137.808 141.354Z" fill="#003154"/>
<path d="M129.827 143.91C129.813 143.862 129.802 143.814 129.791 143.767C129.706 144.137 129.706 144.52 129.824 144.912C130.692 147.775 142.058 146.3 144.227 143.958L144.314 143.234C141.429 145.463 130.682 146.732 129.827 143.91Z" fill="white"/>
<path d="M133.41 139.995C133.41 139.995 135.464 140.429 136.707 141.933" stroke="white" stroke-width="1.7353" stroke-miterlimit="10" stroke-linecap="round"/>
<path d="M132.168 140.719C132.168 140.719 134.222 141.153 135.465 142.656" stroke="white" stroke-width="1.7353" stroke-miterlimit="10" stroke-linecap="round"/>
<path d="M160.696 111.68C160.696 111.68 166.51 128.599 167.811 139.792L159.048 143.61C159.048 143.61 153.234 129.728 151.152 118.621C149.07 107.515 160.696 111.68 160.696 111.68Z" fill="#FFB199"/>
<path opacity="0.5" d="M157.839 129.487C156.619 129.757 155.392 129.973 154.162 130.153C152.978 126.419 151.853 122.363 151.152 118.622C149.07 107.516 160.696 111.681 160.696 111.681C160.696 111.681 163.085 118.633 165.143 126.572C162.982 127.981 160.582 128.879 157.839 129.487Z" fill="#FF8255"/>
<path d="M168.244 140.313L166.682 131.637C166.682 131.637 161.563 132.765 155.75 135.454L159.22 144.565L168.244 140.313Z" fill="white"/>
<mask id="mask1_463_3686" style="mask-type:luminance" maskUnits="userSpaceOnUse" x="155" y="131" width="14" height="14">
<path d="M168.244 140.313L166.682 131.637C166.682 131.637 161.563 132.765 155.75 135.454L159.22 144.565L168.244 140.313Z" fill="white"/>
</mask>
<g mask="url(#mask1_463_3686)">
<path d="M168.508 133.003C168.508 133.003 160.906 134.285 155.486 137.646" stroke="#22689E" stroke-width="0.8677" stroke-miterlimit="10"/>
<path d="M168.595 134.131C168.595 134.131 160.994 135.414 155.574 138.774" stroke="#22689E" stroke-width="0.8677" stroke-miterlimit="10"/>
</g>
<path d="M164.687 141.354L163.819 139.879L168.331 137.797L168.848 139.969C170.27 140.74 173.341 142.695 172.669 144.912C171.802 147.775 160.435 146.3 158.266 143.957L158.006 141.788L164.687 141.354Z" fill="#003154"/>
<path d="M172.666 143.91C172.681 143.862 172.692 143.814 172.703 143.767C172.788 144.137 172.788 144.52 172.67 144.912C171.802 147.775 160.436 146.3 158.266 143.958L158.18 143.234C161.065 145.463 171.812 146.732 172.666 143.91Z" fill="white"/>
<path d="M169.082 139.995C169.082 139.995 167.029 140.429 165.785 141.933" stroke="white" stroke-width="1.7353" stroke-miterlimit="10" stroke-linecap="round"/>
<path d="M170.326 140.719C170.326 140.719 168.273 141.153 167.029 142.656" stroke="white" stroke-width="1.7353" stroke-miterlimit="10" stroke-linecap="round"/>
<path d="M161.623 112.808L152.641 112.742V112.722L151.214 112.732L149.787 112.722V112.742L140.805 112.808L137.027 124.782C137.027 124.782 141.98 127.992 149.619 128.86L150.542 125.042H151.885L152.808 128.86C160.447 127.992 165.399 124.782 165.399 124.782L161.623 112.808Z" fill="#FF5757"/>
<mask id="mask2_463_3686" style="mask-type:luminance" maskUnits="userSpaceOnUse" x="137" y="112" width="29" height="17">
<path d="M161.623 112.808L152.641 112.742V112.722L151.214 112.732L149.787 112.722V112.742L140.805 112.808L137.027 124.782C137.027 124.782 141.98 127.992 149.619 128.86L150.542 125.042H151.885L152.808 128.86C160.447 127.992 165.399 124.782 165.399 124.782L161.623 112.808Z" fill="white"/>
</mask>
<g mask="url(#mask2_463_3686)">
<path d="M141.628 113.329L137.896 126.084" stroke="white" stroke-width="0.8677" stroke-miterlimit="10"/>
<path d="M142.409 113.416L138.678 126.171" stroke="white" stroke-width="0.8677" stroke-miterlimit="10"/>
</g>
<mask id="mask3_463_3686" style="mask-type:luminance" maskUnits="userSpaceOnUse" x="137" y="112" width="29" height="17">
<path d="M161.623 112.808L152.641 112.742V112.722L151.214 112.732L149.787 112.722V112.742L140.805 112.808L137.027 124.782C137.027 124.782 141.98 127.992 149.619 128.86L150.542 125.042H151.885L152.808 128.86C160.447 127.992 165.399 124.782 165.399 124.782L161.623 112.808Z" fill="white"/>
</mask>
<g mask="url(#mask3_463_3686)">
<path d="M160.199 113.732L163.997 126.466" stroke="white" stroke-width="0.8677" stroke-miterlimit="10"/>
<path d="M160.902 113.38L164.7 126.115" stroke="white" stroke-width="0.8677" stroke-miterlimit="10"/>
</g>
<path opacity="0.2" d="M140.213 114.686C141.488 115.303 142.804 115.822 144.168 116.221C147.363 117.155 150.63 117.732 153.968 117.742C156.987 117.751 159.964 117.413 162.874 116.774L161.623 112.808L152.641 112.742V112.722L151.214 112.732L149.787 112.722V112.742L140.805 112.808L140.213 114.686Z" fill="#003154"/>
<path d="M171.538 100.574C170.497 95.715 155.342 95.715 155.342 95.715V92.707L151.621 93.6862L147.901 92.707V95.715C147.901 95.715 132.746 95.715 131.705 100.574C130.663 105.433 139.234 115.033 141.28 113.329C143.883 111.159 139.371 104.131 139.371 104.131L151.692 103.524L163.753 104.131C163.753 104.131 159.414 110.292 161.844 113.155C163.567 115.186 172.579 105.433 171.538 100.574Z" fill="#FFB199"/>
<path opacity="0.5" d="M147.412 102.355C146.172 100.273 145.223 97.9794 143.992 95.8906C142.994 95.9682 141.88 96.0802 140.738 96.2418C141.252 98.8338 141.744 101.429 142.388 103.983L148.241 103.694C147.959 103.251 147.68 102.806 147.412 102.355Z" fill="#FF8255"/>
<path opacity="0.5" d="M161.947 96.1662C160.871 96.0274 159.833 95.9314 158.91 95.865C158.921 98.5426 158.907 101.22 158.646 103.874L161.094 103.997C161.715 101.426 162.104 98.8178 161.947 96.1662Z" fill="#FF8255"/>
<path opacity="0.5" d="M155.341 95.3454V92.707L151.621 93.6862L147.9 92.707V95.4882C150.37 95.5674 152.931 95.7286 155.341 95.3454Z" fill="#FF8255"/>
<path d="M161.931 113.502L159.762 95.8016L157.68 95.7148C157.89 100.052 153.59 100.488 151.915 100.629C150.043 100.488 145.236 100.052 145.446 95.7148L143.363 95.8016L140.934 113.589C140.934 113.589 145.359 115.584 151.779 115.758C158.287 115.758 161.931 113.502 161.931 113.502Z" fill="#003154"/>
<path d="M162.709 109.337C162.709 109.337 162.275 106.214 160.54 106.3C158.805 106.387 155.768 110.292 160.54 107.862C160.54 107.862 153.946 112.114 160.714 109.771C160.714 109.771 155.768 113.588 161.061 111.419C161.061 111.419 161.668 114.803 163.23 112.981C164.792 111.159 162.709 109.337 162.709 109.337Z" fill="#FFB199"/>
<path d="M140.455 109.424C140.455 109.424 140.889 106.3 142.624 106.387C144.359 106.474 147.396 110.378 142.624 107.949C142.624 107.949 149.219 112.201 142.451 109.858C142.451 109.858 147.396 113.675 142.103 111.506C142.103 111.506 141.496 114.89 139.934 113.068C138.373 111.246 140.455 109.424 140.455 109.424Z" fill="#FFB199"/>
<path d="M144.758 95.5996L148.887 107.236L150.925 106.271L147.117 95.5996H144.758Z" fill="#FF5757"/>
<path d="M145.572 95.5996L149.537 106.928L150.122 106.651L146.254 95.5996H145.572Z" fill="white"/>
<path d="M158.163 95.5996L154.034 107.236L151.996 106.271L155.804 95.5996H158.163Z" fill="#FF5757"/>
<path d="M157.349 95.5996L153.384 106.928L152.799 106.651L156.667 95.5996H157.349Z" fill="white"/>
<path d="M152.115 113.181C154.349 112.804 155.856 110.688 155.479 108.454C155.103 106.22 152.987 104.714 150.752 105.09C148.518 105.466 147.012 107.583 147.388 109.817C147.765 112.051 149.881 113.557 152.115 113.181Z" fill="#FF8255"/>
<path d="M151.434 111.955C153.011 111.955 154.289 110.677 154.289 109.1C154.289 107.523 153.011 106.244 151.434 106.244C149.857 106.244 148.578 107.523 148.578 109.1C148.578 110.677 149.857 111.955 151.434 111.955Z" fill="#EF683F"/>
<path d="M163.571 71.4492C163.571 71.4492 160.75 64.3096 169.756 62.96L169.145 66.1348L171.255 64.8976C171.255 64.8976 171.664 74.2972 163.571 71.4492Z" fill="#22689E"/>
<path d="M160.526 71.9895C160.381 73.3307 161.349 74.5359 162.691 74.6819C164.032 74.8279 165.237 73.8587 165.383 72.5175C165.529 71.1763 164.56 69.9711 163.219 69.8251C161.877 69.6791 160.672 70.6483 160.526 71.9895Z" fill="#FF5757"/>
<path d="M163.294 73.6424C163.294 73.6424 160.714 63.472 147.911 64.8444C136.56 66.0612 137.855 78.8008 137.855 78.8008C137.855 78.8008 139.52 72.532 142.807 71.108C142.807 71.108 135.628 77.8216 140.484 84.0008C145.341 90.1804 163.294 73.6424 163.294 73.6424Z" fill="#22689E"/>
<path d="M151.587 71.0563C151.587 71.0563 165.607 73.2691 163.565 85.3599C161.524 97.4511 147.037 96.2583 141.578 90.2679C135.845 83.9767 139.917 70.3731 151.587 71.0563Z" fill="#FFB199"/>
<path d="M163.609 83.049C163.609 83.049 164.78 80.8314 167.651 82.915C170.521 84.9986 165.862 92.6354 162.907 89.3158C159.952 85.9962 163.609 83.049 163.609 83.049Z" fill="#FFB199"/>
<path d="M165.728 82.3225C165.728 82.3225 163.146 82.3489 162.375 87.1793C162.375 87.1793 160.456 85.6193 161.79 82.3857C161.79 82.3857 157.035 79.2273 160.935 74.4301C164.835 69.6329 170.451 76.5385 167.649 82.9149C167.649 82.9149 166.618 82.0509 165.728 82.3225Z" fill="#22689E"/>
<path d="M145.061 79.575C144.735 80.5326 144.133 81.1938 143.718 81.0522C143.303 80.9106 143.232 80.0194 143.559 79.0618C143.885 78.1042 144.487 77.4426 144.902 77.5846C145.317 77.7266 145.389 78.6174 145.061 79.575Z" fill="#003154"/>
<path d="M155.223 82.154C154.897 83.1116 154.295 83.7728 153.88 83.6312C153.465 83.4896 153.394 82.5984 153.721 81.6408C154.047 80.6832 154.649 80.022 155.064 80.1636C155.479 80.3052 155.55 81.1964 155.223 82.154Z" fill="#003154"/>
<path d="M143.203 83.375L154.212 85.9078C154.212 85.9078 147.219 91.5514 143.203 83.375Z" fill="white"/>
<path d="M40.4039 98.5238C40.4039 98.5238 34.5907 115.443 33.2891 126.636L42.0523 130.454C42.0523 130.454 47.8655 116.571 49.9479 105.465C52.0303 94.359 40.4039 98.5238 40.4039 98.5238Z" fill="#A53434"/>
<path d="M43.2602 116.329C44.4802 116.599 45.707 116.816 46.9382 116.996C48.1214 113.262 49.2466 109.206 49.9478 105.465C52.0302 94.359 40.4034 98.5238 40.4034 98.5238C40.4034 98.5238 38.015 105.476 35.957 113.415C38.1174 114.824 40.5182 115.722 43.2602 116.329Z" fill="#8E2424"/>
<path d="M32.8555 127.156L34.4171 118.479C34.4171 118.479 39.5363 119.607 45.3495 122.297L41.8787 131.407L32.8555 127.156Z" fill="white"/>
<mask id="mask4_463_3686" style="mask-type:luminance" maskUnits="userSpaceOnUse" x="32" y="118" width="14" height="14">
<path d="M32.8555 127.156L34.4171 118.479C34.4171 118.479 39.5363 119.607 45.3495 122.297L41.8787 131.407L32.8555 127.156Z" fill="white"/>
</mask>
<g mask="url(#mask4_463_3686)">
<path d="M32.5918 119.846C32.5918 119.846 40.193 121.129 45.613 124.489" stroke="#22689E" stroke-width="0.8677" stroke-miterlimit="10"/>
<path d="M32.5059 120.974C32.5059 120.974 40.1071 122.256 45.5271 125.617" stroke="#22689E" stroke-width="0.8677" stroke-miterlimit="10"/>
</g>
<path d="M36.4135 128.197L37.2811 126.722L32.7691 124.64L32.2519 126.812C30.8299 127.582 27.7591 129.538 28.4307 131.754C29.2983 134.618 40.6647 133.143 42.8339 130.8L43.0943 128.631L36.4135 128.197Z" fill="#FF5757"/>
<path d="M28.4322 130.753C28.4178 130.705 28.4074 130.657 28.3962 130.61C28.311 130.98 28.311 131.363 28.4294 131.755C29.297 134.618 40.6634 133.143 42.8326 130.8L42.9194 130.077C40.0342 132.306 29.2874 133.575 28.4322 130.753Z" fill="white"/>
<path d="M32.0156 126.838C32.0156 126.838 34.0692 127.272 35.3128 128.776" stroke="white" stroke-width="1.7353" stroke-miterlimit="10" stroke-linecap="round"/>
<path d="M30.7734 127.561C30.7734 127.561 32.827 127.995 34.0706 129.499" stroke="white" stroke-width="1.7353" stroke-miterlimit="10" stroke-linecap="round"/>
<path d="M59.3016 98.5238C59.3016 98.5238 65.1148 115.443 66.4164 126.636L57.6532 130.454C57.6532 130.454 51.84 116.571 49.7576 105.465C47.6748 94.359 59.3016 98.5238 59.3016 98.5238Z" fill="#A53434"/>
<path d="M56.4451 116.329C55.2251 116.599 53.9983 116.816 52.7671 116.996C51.5839 113.262 50.4587 109.206 49.7575 105.465C47.6751 94.359 59.3019 98.5238 59.3019 98.5238C59.3019 98.5238 61.6903 105.476 63.7483 113.415C61.5883 114.824 59.1875 115.722 56.4451 116.329Z" fill="#8E2424"/>
<path d="M66.8499 127.156L65.2879 118.479C65.2879 118.479 60.1687 119.607 54.3555 122.297L57.8263 131.407L66.8499 127.156Z" fill="white"/>
<mask id="mask5_463_3686" style="mask-type:luminance" maskUnits="userSpaceOnUse" x="54" y="118" width="13" height="14">
<path d="M66.8499 127.156L65.2879 118.479C65.2879 118.479 60.1687 119.607 54.3555 122.297L57.8263 131.407L66.8499 127.156Z" fill="white"/>
</mask>
<g mask="url(#mask5_463_3686)">
<path d="M67.113 119.846C67.113 119.846 59.5118 121.129 54.0918 124.489" stroke="#22689E" stroke-width="0.8677" stroke-miterlimit="10"/>
<path d="M67.1989 120.974C67.1989 120.974 59.5977 122.256 54.1777 125.616" stroke="#22689E" stroke-width="0.8677" stroke-miterlimit="10"/>
</g>
<path d="M63.2941 128.197L62.4265 126.722L66.9385 124.64L67.4557 126.812C68.8777 127.582 71.9485 129.538 71.2769 131.754C70.4093 134.618 59.0429 133.143 56.8737 130.8L56.6133 128.631L63.2941 128.197Z" fill="#FF5757"/>
<path d="M71.2724 130.753C71.2868 130.705 71.2976 130.657 71.3084 130.61C71.3936 130.98 71.3936 131.363 71.2752 131.755C70.4076 134.618 59.0412 133.143 56.872 130.8L56.7852 130.077C59.6704 132.306 70.4172 133.575 71.2724 130.753Z" fill="white"/>
<path d="M67.6898 126.838C67.6898 126.838 65.6362 127.272 64.3926 128.776" stroke="white" stroke-width="1.7353" stroke-miterlimit="10" stroke-linecap="round"/>
<path d="M68.9339 127.561C68.9339 127.561 66.8803 127.995 65.6367 129.499" stroke="white" stroke-width="1.7353" stroke-miterlimit="10" stroke-linecap="round"/>
<path d="M60.2284 99.6522L51.2464 99.5862V99.5654L49.8192 99.5758L48.392 99.5654V99.5862L39.41 99.6522L35.6328 111.626C35.6328 111.626 40.5852 114.836 48.224 115.704L49.1472 111.886H50.4904L51.4136 115.704C59.0524 114.836 64.0052 111.626 64.0052 111.626L60.2284 99.6522Z" fill="white"/>
<mask id="mask6_463_3686" style="mask-type:luminance" maskUnits="userSpaceOnUse" x="35" y="99" width="30" height="17">
<path d="M60.2284 99.6522L51.2464 99.5862V99.5654L49.8192 99.5758L48.392 99.5654V99.5862L39.41 99.6522L35.6328 111.626C35.6328 111.626 40.5852 114.836 48.224 115.704L49.1472 111.886H50.4904L51.4136 115.704C59.0524 114.836 64.0052 111.626 64.0052 111.626L60.2284 99.6522Z" fill="white"/>
</mask>
<g mask="url(#mask6_463_3686)">
<path d="M40.2312 100.173L36.5 112.927" stroke="#FF5757" stroke-width="0.8677" stroke-miterlimit="10"/>
<path d="M41.012 100.26L37.2812 113.014" stroke="#FF5757" stroke-width="0.8677" stroke-miterlimit="10"/>
</g>
<mask id="mask7_463_3686" style="mask-type:luminance" maskUnits="userSpaceOnUse" x="35" y="99" width="30" height="17">
<path d="M60.2284 99.6522L51.2464 99.5862V99.5654L49.8192 99.5758L48.392 99.5654V99.5862L39.41 99.6522L35.6328 111.626C35.6328 111.626 40.5852 114.836 48.224 115.704L49.1472 111.886H50.4904L51.4136 115.704C59.0524 114.836 64.0052 111.626 64.0052 111.626L60.2284 99.6522Z" fill="white"/>
</mask>
<g mask="url(#mask7_463_3686)">
<path d="M58.8047 100.575L62.6027 113.31" stroke="#FF5757" stroke-width="0.8677" stroke-miterlimit="10"/>
<path d="M59.5078 100.224L63.3058 112.958" stroke="#FF5757" stroke-width="0.8677" stroke-miterlimit="10"/>
</g>
<path opacity="0.3" d="M38.8184 101.53C40.094 102.147 41.4096 102.666 42.7732 103.065C45.9688 103.999 49.2356 104.576 52.5732 104.586C55.5928 104.595 58.5696 104.257 61.4796 103.618L60.2284 99.6522L51.2464 99.5862V99.5654L49.8192 99.5758L48.392 99.5654V99.5862L39.41 99.6522L38.8184 101.53Z" fill="#003154"/>
<path d="M56.3023 90.181C56.3023 90.181 65.0519 92.9006 68.2443 91.9546C71.4367 91.0086 71.9095 81.3134 71.9095 81.3134C71.9095 81.3134 74.4871 81.9994 74.0143 79.3982C74.0143 79.3982 76.0243 79.5166 74.3691 77.743C74.3691 77.743 76.0047 77.089 74.0143 75.9694C72.1227 74.9054 69.7811 73.2734 68.1259 76.2294C66.5759 78.9974 64.5787 83.7966 64.5787 83.7966C64.5787 83.7966 54.8835 80.8406 53.9375 84.8606C52.9919 88.8806 56.3023 90.181 56.3023 90.181Z" fill="#A53434"/>
<path d="M64.0273 84.9633C64.0273 84.9633 69.6637 71.6181 71.4373 71.7361C73.2109 71.8545 70.7281 77.1749 70.7281 77.1749L64.0273 84.9633Z" fill="#A53434"/>
<path d="M73.1961 75.7452C72.7253 75.5852 72.2413 75.4556 71.7533 75.4092C71.5109 75.3892 71.2629 75.3892 71.0405 75.4532C70.8169 75.512 70.6333 75.6488 70.5681 75.8544L70.5473 75.9328L70.5421 75.9524L70.5409 75.9572C70.5445 75.9364 70.5417 75.9548 70.5421 75.9516L70.5413 75.9632L70.5377 76.0096C70.5433 76.044 70.5485 76.0824 70.5737 76.1284C70.6169 76.2156 70.6941 76.2988 70.7809 76.3728C70.9565 76.5216 71.1677 76.6424 71.3833 76.7512C71.8177 76.964 72.2765 77.1528 72.7385 77.3016L72.6109 77.6164C72.1981 77.4264 71.7545 77.2632 71.3149 77.1736C71.0957 77.13 70.8721 77.1072 70.6733 77.134C70.4721 77.1608 70.3277 77.2412 70.2689 77.3992C70.2509 77.4332 70.2429 77.4912 70.2345 77.5216C70.2269 77.5828 70.2221 77.6404 70.2249 77.6768C70.2277 77.7668 70.2481 77.8628 70.2873 77.9484C70.3641 78.1228 70.5185 78.2708 70.6977 78.3888C71.0601 78.6236 71.5173 78.7604 71.9553 78.8344L71.8977 79.1512C71.4909 79.0656 71.0409 79.0168 70.6441 79.1144C70.4473 79.1636 70.2673 79.2584 70.1557 79.4112C70.0989 79.4864 70.0613 79.5772 70.0385 79.6732C70.0309 79.7032 70.0281 79.7124 70.0253 79.7428C70.0233 79.7684 70.0153 79.8031 70.0189 79.8211C70.0181 79.8623 70.0237 79.9072 70.0337 79.9544C70.0809 80.1364 70.2241 80.296 70.3957 80.4196C70.5677 80.5444 70.7665 80.6416 70.9709 80.7216C71.3821 80.8804 71.8173 80.9856 72.2569 81.0612C71.8109 81.0344 71.3653 80.9636 70.9325 80.8308C70.7165 80.764 70.5025 80.68 70.3029 80.5572C70.1057 80.438 69.9129 80.2604 69.8353 80.0084C69.8189 79.9464 69.8065 79.8815 69.8057 79.8107C69.8025 79.7727 69.8081 79.7524 69.8089 79.7224C69.8093 79.6972 69.8157 79.6511 69.8221 79.6271C69.8445 79.5059 69.8885 79.3828 69.9613 79.276C70.1057 79.0572 70.3417 78.9248 70.5717 78.8564C70.8045 78.7864 71.0417 78.7656 71.2749 78.7656C71.5097 78.768 71.7361 78.7868 71.9717 78.8372L71.9141 79.154C71.6633 79.1184 71.4305 79.0628 71.1941 78.9876C70.9601 78.9112 70.7281 78.8155 70.5113 78.6771C70.2973 78.5399 70.0869 78.356 69.9657 78.0972C69.9053 77.9684 69.8713 77.8304 69.8653 77.6844C69.8617 77.6024 69.8677 77.5424 69.8737 77.486C69.8881 77.4008 69.8973 77.3404 69.9281 77.2664C69.9793 77.1248 70.0837 76.9892 70.2149 76.9056C70.3453 76.8204 70.4881 76.7796 70.6233 76.76C70.8949 76.7296 71.1473 76.7648 71.3897 76.8164C71.8745 76.9252 72.3209 77.0996 72.7625 77.3116L72.6349 77.6264C72.1541 77.4564 71.6865 77.272 71.2413 77.0176C71.0201 76.8896 70.8021 76.75 70.6069 76.5656C70.5109 76.4724 70.4173 76.3667 70.3565 76.2271C70.3257 76.1615 70.3077 76.0748 70.3113 75.9856L70.3177 75.9392L70.3193 75.9276L70.3221 75.9104L70.3241 75.904L70.3317 75.8788L70.3641 75.778C70.4641 75.5016 70.7397 75.3212 70.9989 75.2756C71.2621 75.2224 71.5209 75.2448 71.7709 75.2836C72.2689 75.3684 72.7445 75.534 73.1961 75.7452Z" fill="#8E2424"/>
<path d="M53.9457 79.5518L50.2248 80.531L46.5044 79.5518V82.5598C46.5044 82.5598 31.3492 82.5598 30.308 87.4186C29.2668 92.2774 37.8376 101.878 39.8836 100.173C42.4864 98.0042 37.9748 90.9762 37.9748 90.9762L50.2956 90.369L62.356 90.9762C62.356 90.9762 63.498 87.5614 64.9968 83.8618C60.242 82.5606 53.9457 82.5598 53.9457 82.5598V79.5518Z" fill="#A53434"/>
<path d="M53.9451 82.1902V79.5518L50.2243 80.531L46.5039 79.5518V82.333C48.9743 82.4118 51.5347 82.573 53.9451 82.1902Z" fill="#8E2424"/>
<path d="M60.5328 100.346L58.3636 82.6454L56.2812 82.5586C56.4912 86.8954 52.1916 87.3318 50.5164 87.473C48.6444 87.3318 43.8376 86.8954 44.0472 82.5586L41.9648 82.6454L39.5352 100.433C39.5352 100.433 43.9604 102.428 50.3812 102.602C56.8888 102.602 60.5328 100.346 60.5328 100.346Z" fill="#22689E"/>
<path d="M39.0585 96.2681C39.0585 96.2681 39.4925 93.1445 41.2277 93.2313C42.9629 93.3181 45.9997 97.2225 41.2277 94.7929C41.2277 94.7929 47.8217 99.0445 41.0541 96.7017C41.0541 96.7017 45.9997 100.519 40.7069 98.3501C40.7069 98.3501 40.0997 101.734 38.5377 99.9117C36.9761 98.0901 39.0585 96.2681 39.0585 96.2681Z" fill="#A53434"/>
<path d="M43.3613 82.4434L47.4905 94.0798L49.5281 93.1146L45.7209 82.4434H43.3613Z" fill="#FF5757"/>
<path d="M44.1758 82.4434L48.1406 93.7718L48.7254 93.4946L44.8574 82.4434H44.1758Z" fill="white"/>
<path d="M56.7664 82.4434L52.6376 94.0798L50.5996 93.1146L54.4072 82.4434H56.7664Z" fill="#FF5757"/>
<path d="M55.9523 82.4434L51.9871 93.7718L51.4023 93.4946L55.2703 82.4434H55.9523Z" fill="white"/>
<path d="M50.0379 100.087C52.3036 100.087 54.1403 98.2499 54.1403 95.9842C54.1403 93.7185 52.3036 91.8818 50.0379 91.8818C47.7723 91.8818 45.9355 93.7185 45.9355 95.9842C45.9355 98.2499 47.7723 100.087 50.0379 100.087Z" fill="#B1D2E5"/>
<path d="M47.1836 95.9435C47.1836 97.5207 48.462 98.7991 50.0392 98.7991C51.6164 98.7991 52.8948 97.5207 52.8948 95.9435C52.8948 94.3663 51.6164 93.0879 50.0392 93.0879C48.462 93.0879 47.1836 94.3663 47.1836 95.9435Z" fill="#86A8BF"/>
<path d="M67.4286 62.7918C67.4286 62.7918 75.239 58.8866 71.9638 54.9814C69.3598 51.8766 66.9962 53.6282 66.1362 54.477C66.9778 53.521 68.9706 51.0282 67.5546 50.3202C65.791 49.4386 64.1534 53.4694 64.1534 53.4694C64.1534 53.4694 65.791 47.9266 63.9014 47.9266C62.0118 47.9266 60.3742 51.4538 60.3742 51.4538C60.3742 51.4538 63.1458 44.2734 57.8546 43.2654C52.5638 42.2578 51.8078 48.6822 51.8078 48.6822C51.8078 48.6822 50.7998 43.3914 48.9106 44.525C47.021 45.6586 47.777 49.8158 47.777 49.8158C47.777 49.8158 45.5094 41.3754 40.5966 43.769C35.6838 46.1626 38.959 51.5794 38.959 51.5794C38.959 51.5794 34.9278 46.6666 33.2902 48.9338C31.6526 51.2014 37.1954 54.8546 37.1954 54.8546C37.1954 54.8546 31.2746 51.9574 29.133 58.2558C28.159 61.1206 29.3754 62.967 30.9898 64.131C29.6246 65.0138 28.347 66.521 29.007 68.9638C30.2666 73.625 41.3522 71.2314 41.3522 71.2314L40.8442 70.6986C46.623 69.3706 58.6694 67.1642 62.2638 70.8534C67.0506 75.7662 72.2158 70.0974 71.4598 67.3262C70.7038 64.555 68.3106 65.1846 68.3106 65.1846C68.3106 65.1846 72.9714 63.169 71.8378 62.1614C70.7038 61.1542 67.4286 62.7918 67.4286 62.7918Z" fill="#003154"/>
<path d="M38.6574 66.7097C38.6574 66.7097 37.5006 64.3961 34.4926 66.4785C31.4846 68.5609 36.1122 76.5433 39.2358 73.1885C42.3594 69.8333 38.6574 66.7097 38.6574 66.7097Z" fill="#8E2424"/>
<path d="M36.0612 63.9258C36.0612 63.9258 34.5496 70.6022 38.4548 71.4842C42.36 72.3662 39.2108 64.0518 39.2108 64.0518L36.0612 63.9258Z" fill="#003154"/>
<path d="M62.4559 67.0433C62.4559 67.0433 63.3299 64.6085 66.5639 66.3193C69.7975 68.0301 66.1503 76.5053 62.6507 73.5449C59.1507 70.5841 62.4559 67.0433 62.4559 67.0433Z" fill="#8E2424"/>
<path d="M65.4433 63.9258C65.4433 63.9258 66.9549 70.6022 63.0497 71.4842C59.1445 72.3658 62.2937 64.0518 62.2937 64.0518L65.4433 63.9258Z" fill="#003154"/>
<path d="M49.1124 57.4541C49.1124 57.4541 64.6148 57.6761 64.2676 70.3193C63.9204 82.9625 48.0712 83.8501 41.2456 78.5265C34.0768 72.9353 36.3864 58.4525 49.1124 57.4541Z" fill="#A53434"/>
<path d="M37.1949 70.7278C37.1949 70.7278 37.5589 58.7722 51.0521 58.6346C63.3973 58.5086 64.2793 70.8538 64.2793 70.8538C64.2793 70.8538 65.6649 54.4774 51.3041 54.2254C34.8041 53.9358 37.1949 70.7278 37.1949 70.7278Z" fill="#FFA94D"/>
<path d="M42.4022 66.6449C42.4022 66.6449 42.447 66.7921 42.525 67.0489C42.5686 67.1733 42.6166 67.3177 42.6842 67.4825C42.747 67.6473 42.8346 67.8253 42.931 68.0105C43.0282 68.1961 43.1518 68.3845 43.2898 68.5673C43.4278 68.7505 43.587 68.9277 43.7686 69.0773C43.9466 69.2317 44.1458 69.3593 44.3558 69.4433C44.5658 69.5277 44.7834 69.5773 45.005 69.5781C44.9366 69.5805 44.9882 69.5785 44.9738 69.5789L44.9774 69.5785L44.9842 69.5781L44.9982 69.5773L45.0262 69.5757L45.0822 69.5725L45.1942 69.5661C45.273 69.5625 45.2922 69.5453 45.3446 69.5393C45.431 69.5201 45.5558 69.4893 45.6542 69.4429C45.8638 69.3581 46.0638 69.2313 46.241 69.0765C46.4222 68.9269 46.5814 68.7497 46.7194 68.5665C46.8578 68.3837 46.981 68.1953 47.0786 68.0101C47.175 67.8249 47.2626 67.6469 47.3254 67.4821C47.3934 67.3185 47.4418 67.1697 47.4854 67.0453C47.5638 66.7901 47.6086 66.6445 47.6086 66.6445C47.6086 66.6445 47.6174 66.6821 47.6346 66.7525C47.6466 66.8229 47.6794 66.9285 47.6918 67.0637C47.7038 67.1989 47.7282 67.3673 47.7162 67.5593C47.7162 67.7529 47.6954 67.9733 47.6418 68.2097C47.5946 68.4481 47.5174 68.7049 47.395 68.9641C47.2738 69.2233 47.1134 69.4893 46.893 69.7305C46.679 69.9749 46.4078 70.2021 46.0806 70.3585C46.0018 70.4029 45.917 70.4365 45.8294 70.4669C45.743 70.4993 45.6594 70.5317 45.553 70.5501C45.459 70.5685 45.3342 70.5969 45.2638 70.6005L45.0058 70.6185C44.6286 70.6129 44.2538 70.5205 43.9314 70.3573C43.6046 70.1997 43.333 69.9741 43.1194 69.7289C42.899 69.4877 42.7386 69.2217 42.6178 68.9625C42.495 68.7037 42.4182 68.4465 42.371 68.2085C42.317 67.9725 42.297 67.7517 42.2962 67.5585C42.2842 67.3677 42.3082 67.1949 42.3202 67.0597C42.3326 66.9249 42.3654 66.8233 42.3774 66.7521C42.393 66.6825 42.4022 66.6449 42.4022 66.6449Z" fill="#001433"/>
<path d="M54.4331 66.6444C54.4331 66.6444 54.4779 66.7916 54.5559 67.0484C54.5995 67.1728 54.6475 67.3172 54.7151 67.482C54.7779 67.6468 54.8655 67.8248 54.9619 68.01C55.0591 68.1956 55.1827 68.384 55.3207 68.5668C55.4587 68.75 55.6179 68.9272 55.7995 69.0768C55.9775 69.2312 56.1767 69.3588 56.3867 69.4428C56.4895 69.4908 56.5995 69.5176 56.7071 69.5412C56.7619 69.5484 56.8151 69.5676 56.8707 69.568L56.9535 69.572L56.9947 69.5744L57.0155 69.5756L57.0259 69.5764L57.0311 69.5768L57.0339 69.5772C57.0191 69.5776 57.0703 69.576 57.0015 69.5784L57.2251 69.5652C57.3039 69.5616 57.3231 69.5444 57.3755 69.5384C57.4619 69.5192 57.5867 69.4884 57.6851 69.442C57.8947 69.3572 58.0947 69.2304 58.2719 69.0756C58.4531 68.926 58.6123 68.7488 58.7503 68.5656C58.8887 68.3828 59.0119 68.1944 59.1095 68.0092C59.2059 67.824 59.2935 67.646 59.3563 67.4812C59.4243 67.3176 59.4727 67.1688 59.5163 67.0444C59.5947 66.7892 59.6395 66.6436 59.6395 66.6436C59.6395 66.6436 59.6483 66.6812 59.6655 66.7516C59.6775 66.822 59.7103 66.9276 59.7227 67.0628C59.7347 67.198 59.7591 67.3664 59.7471 67.5584C59.7471 67.752 59.7267 67.9724 59.6727 68.2088C59.6255 68.4472 59.5483 68.704 59.4259 68.9632C59.3047 69.2224 59.1443 69.4884 58.9239 69.7296C58.7099 69.974 58.4387 70.2012 58.1115 70.3576C58.0327 70.402 57.9479 70.4356 57.8603 70.466C57.7739 70.4984 57.6903 70.5308 57.5839 70.5492C57.4899 70.5676 57.3651 70.596 57.2947 70.5996L57.0715 70.6164L57.0323 70.6172L57.0279 70.6168L57.0191 70.6164L57.0015 70.6152L56.9663 70.6128L56.8959 70.608L56.7551 70.5968C56.6615 70.5904 56.5707 70.5632 56.4791 70.546C56.3863 70.5304 56.2999 70.4968 56.2135 70.4648C56.1263 70.4344 56.0411 70.4004 55.9627 70.3564C55.6359 70.1988 55.3643 69.9732 55.1507 69.728C54.9303 69.4868 54.7699 69.2208 54.6491 68.9616C54.5263 68.7028 54.4499 68.4456 54.4023 68.2076C54.3483 67.9716 54.3283 67.7508 54.3275 67.5576C54.3155 67.3668 54.3395 67.194 54.3515 67.0588C54.3639 66.924 54.3967 66.8224 54.4087 66.7512C54.4239 66.682 54.4331 66.6444 54.4331 66.6444Z" fill="#001433"/>
<path d="M45.7617 73.1212L55.8397 72.6172C55.8397 72.6172 52.9421 79.924 45.7617 73.1212Z" fill="white"/>
<path d="M91.2496 75.7093C91.2496 75.7093 85.4364 92.6289 84.1348 103.822L92.8984 107.639C92.8984 107.639 98.7116 93.7569 100.794 82.6505C102.876 71.5445 91.2496 75.7093 91.2496 75.7093Z" fill="#FF8255"/>
<path d="M94.1059 93.5149C95.3259 93.7853 96.5527 94.0017 97.7839 94.1817C98.9671 90.4473 100.092 86.3917 100.794 82.6505C102.876 71.5445 91.2491 75.7093 91.2491 75.7093C91.2491 75.7093 88.8603 82.6613 86.8027 90.6005C88.9631 92.0097 91.3639 92.9077 94.1059 93.5149Z" fill="#EF683F"/>
<path d="M83.6992 104.342L85.2608 95.665C85.2608 95.665 90.38 96.793 96.1932 99.4826L92.7224 108.593L83.6992 104.342Z" fill="white"/>
<mask id="mask8_463_3686" style="mask-type:luminance" maskUnits="userSpaceOnUse" x="83" y="95" width="14" height="14">
<path d="M83.6992 104.342L85.2608 95.665C85.2608 95.665 90.38 96.793 96.1932 99.4826L92.7224 108.593L83.6992 104.342Z" fill="white"/>
</mask>
<g mask="url(#mask8_463_3686)">
<path d="M83.4355 97.0315C83.4355 97.0315 91.0368 98.3143 96.4568 101.674" stroke="#C13333" stroke-width="0.8677" stroke-miterlimit="10"/>
<path d="M83.3496 98.1594C83.3496 98.1594 90.9508 99.4422 96.3708 102.802" stroke="#C13333" stroke-width="0.8677" stroke-miterlimit="10"/>
</g>
<path d="M87.2572 105.383L88.1248 103.908L83.6128 101.825L83.0956 103.997C81.6736 104.768 78.6028 106.724 79.2744 108.94C80.142 111.803 91.5084 110.329 93.6776 107.986L93.938 105.817L87.2572 105.383Z" fill="#003154"/>
<path d="M79.2779 107.939C79.2635 107.891 79.2527 107.843 79.2419 107.795C79.1567 108.166 79.1567 108.549 79.2751 108.941C80.1427 111.804 91.5091 110.329 93.6783 107.986L93.7651 107.263C90.8799 109.491 80.1331 110.761 79.2779 107.939Z" fill="#22689E"/>
<path d="M82.8594 104.024C82.8594 104.024 84.913 104.458 86.1566 105.962" stroke="white" stroke-width="1.7353" stroke-miterlimit="10" stroke-linecap="round"/>
<path d="M81.6172 104.747C81.6172 104.747 83.6708 105.181 84.9144 106.685" stroke="white" stroke-width="1.7353" stroke-miterlimit="10" stroke-linecap="round"/>
<path d="M110.146 75.7093C110.146 75.7093 115.959 92.6289 117.26 103.822L108.497 107.639C108.497 107.639 102.683 93.7569 100.601 82.6505C98.5189 71.5445 110.146 75.7093 110.146 75.7093Z" fill="#FF8255"/>
<path d="M107.288 93.5149C106.068 93.7853 104.842 94.0017 103.611 94.1817C102.428 90.4473 101.302 86.3917 100.601 82.6505C98.5189 71.5445 110.146 75.7093 110.146 75.7093C110.146 75.7093 112.534 82.6613 114.592 90.6005C112.432 92.0097 110.031 92.9077 107.288 93.5149Z" fill="#EF683F"/>
<path d="M117.693 104.342L116.132 95.665C116.132 95.665 111.012 96.793 105.199 99.4826L108.67 108.593L117.693 104.342Z" fill="white"/>
<mask id="mask9_463_3686" style="mask-type:luminance" maskUnits="userSpaceOnUse" x="105" y="95" width="13" height="14">
<path d="M117.693 104.342L116.132 95.665C116.132 95.665 111.012 96.793 105.199 99.4826L108.67 108.593L117.693 104.342Z" fill="white"/>
</mask>
<g mask="url(#mask9_463_3686)">
<path d="M117.957 97.0315C117.957 97.0315 110.356 98.3143 104.936 101.674" stroke="#C13333" stroke-width="0.8677" stroke-miterlimit="10"/>
<path d="M118.043 98.1594C118.043 98.1594 110.441 99.4422 105.021 102.802" stroke="#C13333" stroke-width="0.8677" stroke-miterlimit="10"/>
</g>
<path d="M114.136 105.383L113.268 103.908L117.78 101.825L118.297 103.997C119.719 104.768 122.79 106.724 122.119 108.94C121.251 111.803 109.885 110.329 107.715 107.986L107.455 105.817L114.136 105.383Z" fill="#003154"/>
<path d="M122.116 107.939C122.131 107.891 122.141 107.843 122.152 107.795C122.237 108.166 122.237 108.549 122.119 108.941C121.251 111.804 109.885 110.329 107.716 107.986L107.629 107.263C110.514 109.491 121.261 110.761 122.116 107.939Z" fill="#22689E"/>
<path d="M118.532 104.024C118.532 104.024 116.478 104.458 115.234 105.962" stroke="white" stroke-width="1.7353" stroke-miterlimit="10" stroke-linecap="round"/>
<path d="M119.774 104.747C119.774 104.747 117.72 105.181 116.477 106.685" stroke="white" stroke-width="1.7353" stroke-miterlimit="10" stroke-linecap="round"/>
<path d="M111.073 76.8378L102.091 76.7718V76.751L100.663 76.7614L99.2362 76.751V76.7718L90.2542 76.8378L86.4766 88.8114C86.4766 88.8114 91.4294 92.0218 99.0682 92.8894L99.9914 89.0718H101.335L102.258 92.8894C109.897 92.0218 114.849 88.8114 114.849 88.8114L111.073 76.8378Z" fill="#22689E"/>
<mask id="mask10_463_3686" style="mask-type:luminance" maskUnits="userSpaceOnUse" x="86" y="76" width="29" height="17">
<path d="M111.073 76.8378L102.091 76.7718V76.751L100.663 76.7614L99.2362 76.751V76.7718L90.2542 76.8378L86.4766 88.8114C86.4766 88.8114 91.4294 92.0218 99.0682 92.8894L99.9914 89.0718H101.335L102.258 92.8894C109.897 92.0218 114.849 88.8114 114.849 88.8114L111.073 76.8378Z" fill="white"/>
</mask>
<g mask="url(#mask10_463_3686)">
<path d="M91.0769 77.3582L87.3457 90.113" stroke="white" stroke-width="0.8677" stroke-miterlimit="10"/>
<path d="M91.8578 77.4451L88.127 90.1999" stroke="white" stroke-width="0.8677" stroke-miterlimit="10"/>
</g>
<mask id="mask11_463_3686" style="mask-type:luminance" maskUnits="userSpaceOnUse" x="86" y="76" width="29" height="17">
<path d="M111.073 76.8378L102.091 76.7718V76.751L100.663 76.7614L99.2362 76.751V76.7718L90.2542 76.8378L86.4766 88.8114C86.4766 88.8114 91.4294 92.0218 99.0682 92.8894L99.9914 89.0718H101.335L102.258 92.8894C109.897 92.0218 114.849 88.8114 114.849 88.8114L111.073 76.8378Z" fill="white"/>
</mask>
<g mask="url(#mask11_463_3686)">
<path d="M109.648 77.761L113.446 90.4962" stroke="white" stroke-width="0.8677" stroke-miterlimit="10"/>
<path d="M110.352 77.4094L114.15 90.1442" stroke="white" stroke-width="0.8677" stroke-miterlimit="10"/>
</g>
<path opacity="0.6" d="M89.6621 78.7154C90.9377 79.3322 92.2533 79.8518 93.6169 80.2502C96.8125 81.1842 100.079 81.7618 103.417 81.7718C106.437 81.7806 109.413 81.4426 112.324 80.8038L111.073 76.8378L102.091 76.7718V76.751L100.663 76.7614L99.2361 76.751V76.7718L90.2541 76.8378L89.6621 78.7154Z" fill="#003154"/>
<path d="M108.861 60.1871C108.868 60.1099 108.878 60.0243 108.89 59.9351C106.54 59.7447 104.79 59.7443 104.79 59.7443V56.7363L101.069 57.7155L97.349 56.7363V59.7443C97.349 59.7443 95.5862 59.7443 93.2222 59.9371C93.2186 59.9663 93.2166 59.9991 93.213 60.0275C92.8394 62.6555 92.9606 65.3015 93.1402 67.9475L101.141 67.5531L107.896 67.8935C108.372 65.3495 108.616 62.7567 108.861 60.1871Z" fill="#FF8255"/>
<path d="M104.788 59.3747V56.7363L101.068 57.7155L97.3477 56.7363V59.5175C99.8177 59.5963 102.378 59.7575 104.788 59.3747Z" fill="#EF683F"/>
<path d="M88.6203 43.8953C88.6203 43.8953 87.4635 41.5817 84.4555 43.6641C81.4475 45.7465 86.0751 53.7289 89.1987 50.3741C92.3223 47.0189 88.6203 43.8953 88.6203 43.8953Z" fill="#EF683F"/>
<path d="M113.3 44.2289C113.3 44.2289 114.174 41.7941 117.408 43.5049C120.642 45.2157 116.994 53.6909 113.494 50.7305C109.994 47.7697 113.3 44.2289 113.3 44.2289Z" fill="#EF683F"/>
<path d="M86.4224 42.8541C86.4224 42.8541 86.3068 26.7733 105.858 26.8893C105.858 26.8893 104.47 29.7813 102.272 30.8225C102.272 30.8225 106.784 29.3185 108.634 27.0049C108.634 27.0049 110.254 30.0129 108.519 32.9049C108.519 32.9049 110.138 30.9381 110.138 28.2773C110.138 28.2773 119.278 36.4913 115.113 48.0601C110.948 59.6289 85.9596 53.6133 86.4224 42.8541Z" fill="#003154"/>
<path d="M99.9582 34.6406C99.9582 34.6406 115.461 34.8626 115.113 47.5058C114.766 60.149 98.9169 61.0366 92.0913 55.713C84.9225 50.1218 87.2322 35.639 99.9582 34.6406Z" fill="#FF8255"/>
<path d="M87.6953 43.0858C87.6953 43.0858 92.6697 42.2758 93.9425 36.4914C93.9425 36.4914 101.462 45.7466 111.759 38.4582C119.905 32.6914 91.8601 33.2522 91.8601 33.2522L87.6953 43.0858Z" fill="#003154"/>
<path d="M98.2686 47.6961C98.2686 47.6961 101.933 50.0557 105.981 48.0313C109.558 46.2429 112.912 50.7141 110.117 54.2909C106.373 59.0833 94.8186 57.5185 93.2386 51.8317C92.1206 47.8077 94.5798 46.3545 98.2686 47.6961Z" fill="#FF5757"/>
<path d="M105.981 48.0311C101.933 50.0555 98.2686 47.6959 98.2686 47.6959C94.5798 46.3547 92.1206 47.8079 93.2386 51.8319C93.4602 52.6303 93.8842 53.3443 94.4502 53.9739C95.6502 51.8163 98.0206 50.8515 100.704 51.3899C103.755 52.0019 105.309 54.0491 105.607 56.8507C107.455 56.4495 109.084 55.6135 110.117 54.2911C112.912 50.7139 109.558 46.2427 105.981 48.0311Z" fill="#C13333"/>
<path d="M110.485 45.9199C110.485 45.9199 110.44 45.7727 110.362 45.5159C110.319 45.3915 110.271 45.2471 110.203 45.0823C110.14 44.9175 110.053 44.7395 109.956 44.5543C109.859 44.3687 109.736 44.1803 109.598 43.9975C109.46 43.8143 109.3 43.6371 109.119 43.4875C108.941 43.3331 108.742 43.2055 108.532 43.1215C108.428 43.0735 108.319 43.0467 108.211 43.0231C108.156 43.0159 108.103 42.9967 108.048 42.9963L107.965 42.9923L107.924 42.9899L107.903 42.9883L107.892 42.9875L107.887 42.9871H107.884C107.899 42.9863 107.848 42.9883 107.917 42.9859L107.693 42.9987C107.614 43.0023 107.595 43.0195 107.543 43.0255C107.456 43.0447 107.332 43.0755 107.233 43.1219C107.024 43.2067 106.824 43.3331 106.646 43.4883C106.465 43.6379 106.306 43.8151 106.168 43.9983C106.03 44.1811 105.906 44.3695 105.809 44.5547C105.712 44.7399 105.625 44.9179 105.562 45.0827C105.494 45.2463 105.446 45.3951 105.402 45.5195C105.324 45.7747 105.279 45.9203 105.279 45.9203C105.279 45.9203 105.27 45.8827 105.253 45.8123C105.241 45.7415 105.208 45.6363 105.196 45.5011C105.184 45.3659 105.159 45.1975 105.171 45.0055C105.171 44.8119 105.192 44.5915 105.246 44.3551C105.293 44.1167 105.37 43.8599 105.492 43.6007C105.614 43.3415 105.774 43.0755 105.994 42.8343C106.208 42.5899 106.48 42.3627 106.807 42.2063C106.886 42.1619 106.97 42.1283 107.058 42.0975C107.144 42.0651 107.228 42.0327 107.334 42.0143C107.428 41.9959 107.553 41.9675 107.624 41.9639L107.847 41.9471L107.886 41.9463L107.89 41.9467L107.899 41.9471L107.917 41.9483L107.952 41.9507L108.022 41.9555L108.163 41.9667C108.257 41.9731 108.348 41.9999 108.439 42.0175C108.532 42.0331 108.618 42.0667 108.705 42.0987C108.792 42.1291 108.877 42.1631 108.956 42.2071C109.282 42.3647 109.554 42.5907 109.768 42.8355C109.988 43.0767 110.148 43.3427 110.269 43.6019C110.392 43.8607 110.468 44.1179 110.516 44.3559C110.57 44.5919 110.59 44.8127 110.591 45.0059C110.603 45.1967 110.579 45.3695 110.567 45.5047C110.554 45.6395 110.522 45.7411 110.51 45.8123C110.494 45.8823 110.485 45.9199 110.485 45.9199Z" fill="#001433"/>
<path d="M98.4535 45.9197C98.4535 45.9197 98.4088 45.7725 98.3308 45.5157C98.2872 45.3913 98.2391 45.2469 98.1715 45.0821C98.1087 44.9173 98.0212 44.7393 97.9248 44.5541C97.8276 44.3685 97.704 44.1801 97.566 43.9973C97.428 43.8141 97.2687 43.6369 97.0871 43.4873C96.9091 43.3329 96.7099 43.2053 96.4999 43.1213C96.2899 43.0369 96.0723 42.9877 95.8507 42.9865C95.9191 42.9841 95.8675 42.9861 95.8819 42.9857L95.8783 42.9861L95.8715 42.9865L95.8576 42.9873L95.8296 42.9889L95.7736 42.9921L95.6619 42.9985C95.5831 43.0021 95.564 43.0193 95.5116 43.0253C95.4252 43.0445 95.3004 43.0753 95.202 43.1217C94.9924 43.2065 94.7924 43.3329 94.6152 43.4881C94.434 43.6377 94.2748 43.8149 94.1368 43.9981C93.9984 44.1809 93.8751 44.3693 93.7775 44.5545C93.6811 44.7397 93.5936 44.9177 93.5308 45.0821C93.4628 45.2457 93.4143 45.3945 93.3707 45.5189C93.2923 45.7741 93.2476 45.9197 93.2476 45.9197C93.2476 45.9197 93.2383 45.8821 93.2215 45.8117C93.2095 45.7409 93.1768 45.6357 93.1644 45.5005C93.1524 45.3653 93.128 45.1969 93.14 45.0049C93.14 44.8113 93.1604 44.5909 93.2144 44.3545C93.2616 44.1161 93.3387 43.8593 93.4611 43.6001C93.5823 43.3409 93.7428 43.0749 93.9632 42.8337C94.1772 42.5893 94.4484 42.3621 94.7756 42.2057C94.8544 42.1613 94.9391 42.1277 95.0267 42.0969C95.1131 42.0645 95.1968 42.0321 95.3032 42.0137C95.3972 41.9953 95.522 41.9669 95.5924 41.9633L95.8504 41.9453C96.2276 41.9513 96.6024 42.0433 96.9248 42.2065C97.2516 42.3641 97.5232 42.5901 97.7368 42.8349C97.9572 43.0761 98.1176 43.3421 98.2384 43.6013C98.3612 43.8601 98.4375 44.1173 98.4851 44.3553C98.5391 44.5913 98.5592 44.8121 98.56 45.0053C98.572 45.1961 98.548 45.3689 98.536 45.5041C98.5236 45.6389 98.4908 45.7405 98.4788 45.8117C98.4624 45.8821 98.4535 45.9197 98.4535 45.9197Z" fill="#001433"/>
<path d="M97.2393 59.9973C97.2393 59.9973 82.3553 63.1865 80.8617 48.6537C80.8617 48.6537 83.5725 47.8901 83.1949 45.3957C82.9421 43.7265 81.3609 42.6969 80.6049 42.8885C80.7461 41.7525 80.6137 40.4057 78.8481 41.4825C78.8481 41.4825 77.6953 39.7133 76.5061 41.3345C76.5061 41.3345 75.3081 39.6009 73.7933 42.1217C72.7601 43.8413 67.3489 72.2065 100.62 68.5917L97.2393 59.9973Z" fill="#FF8255"/>
<path d="M97.2386 59.9971C97.2386 59.9971 93.9818 60.6948 90.3622 59.95C89.4954 62.72 88.2978 65.3683 87.1426 68.0331C90.7158 68.9103 95.1402 69.1868 100.619 68.5912L97.2386 59.9971Z" fill="#EF683F"/>
<path d="M73.7995 42.7472C73.7363 43.2692 73.6986 43.7972 73.7466 44.3144C73.7746 44.5696 73.8231 44.8304 73.9427 45.038C74.0579 45.2532 74.2826 45.3284 74.5078 45.2508C74.7138 45.1824 74.8862 44.9884 75.0094 44.7764C75.1358 44.562 75.229 44.3228 75.3062 44.0788C75.4574 43.5904 75.5634 43.0756 75.6214 42.5672L75.9227 42.6228C75.7819 43.2128 75.6794 43.8292 75.675 44.4292C75.6762 44.7264 75.7034 45.0296 75.805 45.2756C75.857 45.3968 75.9314 45.4928 76.0266 45.546C76.069 45.572 76.1414 45.5888 76.1758 45.5952C76.2118 45.5956 76.2598 45.6012 76.2862 45.5972C76.311 45.59 76.3306 45.5936 76.3602 45.5832C76.5938 45.5216 76.8066 45.2988 76.9738 45.0604C77.145 44.8192 77.2847 44.5472 77.4107 44.27C77.6555 43.712 77.863 43.1256 78.0238 42.534L78.2458 42.6052C77.9802 43.2392 77.761 43.9028 77.617 44.576C77.5514 44.9128 77.5018 45.2596 77.5498 45.5972C77.5746 45.7644 77.6307 45.93 77.7435 46.0556C77.7995 46.1188 77.8723 46.164 77.951 46.1984C78.0322 46.228 78.1174 46.242 78.205 46.2484C78.1174 46.2492 78.0302 46.2424 77.9438 46.2188C77.8598 46.1904 77.7782 46.1492 77.7126 46.0864C77.5782 45.962 77.5103 45.7844 77.4727 45.6112C77.4003 45.2592 77.4299 44.9004 77.4755 44.5516C77.5759 43.8508 77.7862 43.1788 78.0294 42.5156L78.2514 42.5868C78.1094 43.2024 77.9366 43.8064 77.6826 44.3896C77.5554 44.6804 77.4142 44.968 77.2286 45.2376C77.1354 45.372 77.0342 45.504 76.907 45.6208C76.7814 45.7368 76.6299 45.8436 76.4435 45.8956C76.3995 45.9108 76.3394 45.9152 76.2878 45.922C76.2374 45.9264 76.207 45.9216 76.1654 45.9216C76.045 45.9092 75.9658 45.8844 75.8706 45.8368C75.6898 45.7404 75.5686 45.5736 75.4966 45.4116C75.3534 45.0812 75.3403 44.7476 75.3411 44.426C75.3563 43.78 75.4695 43.1608 75.6255 42.5432L75.9266 42.5988C75.8546 43.1344 75.7502 43.6564 75.569 44.1672C75.4766 44.4208 75.3671 44.6716 75.2159 44.9048C75.0651 45.1332 74.8651 45.364 74.5607 45.4528C74.4195 45.4908 74.2595 45.4944 74.1115 45.4336C73.9631 45.3728 73.8539 45.2496 73.7883 45.1224C73.6563 44.8632 73.6354 44.5872 73.6222 44.3212C73.611 43.7876 73.6823 43.2608 73.7995 42.7472Z" fill="#D34220"/>
<path d="M82.509 43.9081C82.509 43.9081 80.8806 41.6545 78.4402 43.7117C76.7638 45.1249 78.511 45.3857 79.6958 45.1245C79.6958 45.1245 77.0522 45.7569 78.5178 47.6701" fill="#FF8255"/>
<path d="M82.5086 43.9085C82.3978 43.7821 82.2682 43.6749 82.1398 43.5709C82.0098 43.4681 81.8738 43.3729 81.7286 43.2969C81.587 43.2145 81.435 43.1529 81.2826 43.1017C81.131 43.0449 80.9738 43.0145 80.8162 42.9897C80.6578 42.9825 80.4986 42.9585 80.3414 42.9877C80.263 42.9985 80.1842 43.0029 80.1066 43.0185L79.8778 43.0825C79.723 43.1141 79.5846 43.2045 79.4362 43.2573C79.293 43.3261 79.1598 43.4189 79.0214 43.4973C78.8882 43.5869 78.7658 43.6945 78.637 43.7905C78.521 43.8733 78.389 44.0093 78.2746 44.1165L78.1258 44.2865C78.0802 44.3449 78.0458 44.4081 78.0038 44.4673C77.9478 44.5901 77.919 44.7013 77.9582 44.7665C77.9902 44.8421 78.1234 44.9093 78.2558 44.9525C78.3934 44.9973 78.5502 45.0173 78.7066 45.0273C79.0206 45.0481 79.3466 45.0261 79.6598 44.9649L79.7334 45.2845C79.2086 45.4213 78.6378 45.6545 78.3254 46.0989L78.2298 46.2749C78.2126 46.3389 78.191 46.4021 78.1702 46.4669C78.1614 46.5333 78.1606 46.6017 78.1542 46.6705C78.1434 46.7397 78.171 46.8077 78.1774 46.8773C78.1862 46.9473 78.1994 47.0173 78.2302 47.0829L78.307 47.2849C78.3714 47.4141 78.4466 47.5401 78.5174 47.6701L78.381 47.4961C78.3374 47.4365 78.2846 47.3817 78.2482 47.3165L78.1438 47.1169C78.1038 47.0517 78.081 46.9797 78.0618 46.9049C78.0454 46.8305 78.0082 46.7585 78.0098 46.6797C78.0066 46.6017 77.999 46.5225 78.001 46.4433L78.0478 46.2077C78.0766 46.1337 78.113 46.0621 78.1466 45.9889C78.229 45.8529 78.3282 45.7277 78.4434 45.6209C78.4974 45.5629 78.5626 45.5213 78.6226 45.4709C78.6822 45.4193 78.7498 45.3837 78.8138 45.3397C79.0782 45.1781 79.3514 45.0497 79.657 44.9649L79.7306 45.2845C79.389 45.3633 79.0414 45.4033 78.6866 45.3889C78.509 45.3793 78.3302 45.3601 78.1474 45.3045C77.9722 45.2421 77.7634 45.1757 77.6294 44.9461C77.6014 44.8917 77.5858 44.8265 77.569 44.7657C77.5546 44.7045 77.5682 44.6469 77.571 44.5873C77.5818 44.4685 77.6354 44.3825 77.675 44.2877C77.7278 44.2093 77.7774 44.1261 77.8358 44.0537L78.0214 43.8485C78.1526 43.7289 78.2546 43.6221 78.4098 43.5081C78.5514 43.4069 78.6874 43.2993 78.835 43.2069C78.9902 43.1249 79.1378 43.0309 79.299 42.9605C79.4662 42.9033 79.623 42.8189 79.801 42.7941L80.061 42.7417C80.1486 42.7305 80.2382 42.7309 80.3262 42.7257C80.5022 42.7073 80.6798 42.7445 80.8526 42.7661C81.0246 42.8053 81.193 42.8517 81.3522 42.9245C81.5102 42.9969 81.6618 43.0825 81.7994 43.1849C81.941 43.2817 82.069 43.3961 82.189 43.5161C82.3098 43.6349 82.417 43.7677 82.5086 43.9085Z" fill="#D34220"/>
<path d="M105.068 59.9973C105.068 59.9973 119.952 63.1865 121.445 48.6537C121.445 48.6537 118.735 47.8901 119.113 45.3957C119.365 43.7265 120.947 42.6969 121.703 42.8885C121.561 41.7525 121.694 40.4057 123.459 41.4825C123.459 41.4825 124.612 39.7133 125.802 41.3345C125.802 41.3345 126.999 39.6009 128.514 42.1217C129.547 43.8413 134.959 72.2065 101.688 68.5917L105.068 59.9973Z" fill="#FF8255"/>
<path d="M105.068 59.9971C105.068 59.9971 108.325 60.6948 111.944 59.95C112.811 62.72 114.009 65.3683 115.164 68.0331C111.591 68.9103 107.166 69.1868 101.688 68.5912L105.068 59.9971Z" fill="#EF683F"/>
<path d="M128.507 42.748C128.624 43.2616 128.695 43.7884 128.684 44.3232C128.671 44.5892 128.65 44.8648 128.518 45.1244C128.452 45.2516 128.343 45.3748 128.195 45.4356C128.047 45.4968 127.887 45.4928 127.745 45.4548C127.441 45.366 127.241 45.1352 127.09 44.9068C126.939 44.6736 126.829 44.4228 126.737 44.1692C126.556 43.6588 126.451 43.1364 126.379 42.6008L126.681 42.5452C126.837 43.1628 126.95 43.782 126.965 44.428C126.966 44.7496 126.953 45.0832 126.809 45.4136C126.737 45.5756 126.616 45.7424 126.435 45.8388C126.34 45.8864 126.261 45.9112 126.141 45.9236C126.099 45.9236 126.069 45.928 126.018 45.924C125.967 45.9168 125.907 45.9128 125.863 45.8976C125.676 45.8456 125.525 45.7388 125.399 45.6228C125.272 45.506 125.171 45.374 125.077 45.2396C124.892 44.97 124.751 44.6824 124.623 44.3916C124.369 43.8088 124.196 43.2044 124.055 42.5888L124.277 42.5176C124.52 43.1808 124.73 43.8528 124.831 44.5536C124.876 44.9024 124.906 45.2612 124.833 45.6132C124.796 45.7864 124.728 45.9636 124.593 46.0884C124.527 46.1512 124.446 46.1924 124.362 46.2208C124.276 46.2444 124.189 46.2508 124.101 46.2504C124.189 46.244 124.274 46.23 124.355 46.2004C124.434 46.166 124.507 46.1208 124.563 46.0576C124.675 45.932 124.731 45.7664 124.756 45.5992C124.804 45.2616 124.755 44.9148 124.689 44.578C124.545 43.9044 124.326 43.2412 124.06 42.6072L124.282 42.536C124.443 43.1276 124.651 43.714 124.895 44.272C125.021 44.5492 125.161 44.8212 125.332 45.0624C125.499 45.3008 125.712 45.5236 125.946 45.5852C125.975 45.5956 125.995 45.592 126.02 45.5992C126.047 45.6032 126.094 45.5976 126.13 45.5972C126.164 45.5912 126.237 45.574 126.279 45.548C126.375 45.4948 126.449 45.3988 126.501 45.2776C126.602 45.0316 126.629 44.7284 126.631 44.4312C126.626 43.8312 126.524 43.2152 126.383 42.6248L126.684 42.5692C126.742 43.0776 126.848 43.5924 126.999 44.0808C127.076 44.3248 127.17 44.564 127.296 44.7784C127.419 44.9904 127.592 45.184 127.798 45.2528C128.023 45.3304 128.247 45.2552 128.363 45.04C128.483 44.8324 128.531 44.5716 128.559 44.3164C128.608 43.798 128.57 43.27 128.507 42.748Z" fill="#D34220"/>
<path d="M119.797 43.9091C119.797 43.9091 121.425 41.6555 123.866 43.7127C125.542 45.1259 123.795 45.3867 122.61 45.1255C122.61 45.1255 125.254 45.7579 123.788 47.6711" fill="#FF8255"/>
<path d="M119.797 43.9089C119.888 43.7681 119.996 43.6353 120.116 43.5161C120.236 43.3961 120.364 43.2817 120.506 43.1849C120.644 43.0825 120.796 42.9969 120.953 42.9245C121.112 42.8521 121.281 42.8053 121.453 42.7661C121.626 42.7445 121.803 42.7073 121.979 42.7257C122.067 42.7313 122.157 42.7305 122.244 42.7417L122.504 42.7941C122.682 42.8189 122.839 42.9033 123.006 42.9605C123.168 43.0305 123.315 43.1249 123.47 43.2069C123.618 43.2993 123.754 43.4069 123.896 43.5085C124.051 43.6225 124.153 43.7297 124.284 43.8489L124.47 44.0541C124.528 44.1265 124.577 44.2097 124.63 44.2881C124.67 44.3829 124.723 44.4689 124.734 44.5877C124.737 44.6473 124.751 44.7049 124.736 44.7661C124.72 44.8269 124.704 44.8921 124.676 44.9465C124.542 45.1761 124.333 45.2425 124.158 45.3049C123.976 45.3605 123.796 45.3797 123.619 45.3893C123.264 45.4037 122.917 45.3633 122.575 45.2849L122.649 44.9653C122.954 45.0501 123.228 45.1785 123.492 45.3401C123.556 45.3841 123.624 45.4197 123.683 45.4713C123.743 45.5217 123.808 45.5633 123.862 45.6213C123.978 45.7277 124.077 45.8529 124.159 45.9893C124.193 46.0625 124.229 46.1341 124.258 46.2081L124.305 46.4437C124.307 46.5229 124.299 46.6021 124.296 46.6801C124.298 46.7589 124.26 46.8309 124.244 46.9053C124.225 46.9801 124.202 47.0521 124.162 47.1173L124.058 47.3169C124.021 47.3817 123.968 47.4369 123.925 47.4965L123.788 47.6705C123.859 47.5405 123.934 47.4145 123.999 47.2853L124.076 47.0829C124.106 47.0177 124.119 46.9477 124.128 46.8773C124.135 46.8077 124.162 46.7397 124.152 46.6705C124.146 46.6017 124.144 46.5333 124.136 46.4669C124.115 46.4021 124.093 46.3389 124.076 46.2749L123.98 46.0989C123.668 45.6541 123.097 45.4213 122.572 45.2845L122.646 44.9649C122.96 45.0261 123.285 45.0481 123.599 45.0273C123.755 45.0173 123.912 44.9973 124.05 44.9525C124.182 44.9093 124.316 44.8421 124.348 44.7665C124.386 44.7009 124.358 44.5901 124.302 44.4673C124.26 44.4077 124.226 44.3449 124.18 44.2865L124.031 44.1165C123.917 44.0093 123.785 43.8733 123.669 43.7905C123.54 43.6945 123.417 43.5869 123.284 43.4973C123.146 43.4189 123.013 43.3257 122.87 43.2573C122.721 43.2045 122.583 43.1141 122.428 43.0825L122.199 43.0185C122.122 43.0029 122.043 42.9985 121.964 42.9877C121.807 42.9585 121.648 42.9825 121.49 42.9897C121.332 43.0145 121.175 43.0453 121.023 43.1017C120.871 43.1529 120.718 43.2149 120.577 43.2969C120.432 43.3729 120.296 43.4681 120.166 43.5709C120.037 43.6753 119.908 43.7825 119.797 43.9089Z" fill="#D34220"/>
<path d="M112.654 77.9085L109.21 59.8309L107.128 59.7441C107.338 64.0809 103.038 64.5173 101.363 64.6585C99.4908 64.5173 94.684 64.0809 94.8936 59.7441L92.8112 59.8309L89.3496 77.5305C89.3496 77.5305 94.8068 79.6137 101.228 79.7873C107.735 79.7873 112.654 77.9085 112.654 77.9085Z" fill="white"/>
<path d="M94.2051 59.6289L98.3343 71.2653L100.372 70.3001L96.5647 59.6289H94.2051Z" fill="#FF5757"/>
<path d="M95.0195 59.6289L98.9847 70.9573L99.5695 70.6801L95.7015 59.6289H95.0195Z" fill="white"/>
<path d="M107.61 59.6289L103.481 71.2653L101.443 70.3001L105.251 59.6289H107.61Z" fill="#FF5757"/>
<path d="M106.796 59.6289L102.831 70.9573L102.246 70.6801L106.114 59.6289H106.796Z" fill="white"/>
<path d="M101.541 77.2172C103.778 76.8531 105.295 74.7451 104.931 72.5089C104.567 70.2726 102.459 68.755 100.223 69.1191C97.9867 69.4832 96.469 71.5911 96.8331 73.8274C97.1972 76.0636 99.3052 77.5813 101.541 77.2172Z" fill="#FFA94D"/>
<path d="M98.0273 73.1293C98.0273 74.7065 99.3057 75.9849 100.883 75.9849C102.46 75.9849 103.739 74.7065 103.739 73.1293C103.739 71.5521 102.46 70.2737 100.883 70.2737C99.3057 70.2737 98.0273 71.5521 98.0273 73.1293Z" fill="#E2822B"/>
<path d="M176.98 15.9126C180.172 16.145 182.052 18.2843 182.414 22.6327C182.602 18.6857 184.332 16.361 187.848 15.9128C184.656 15.6802 182.777 13.5409 182.414 9.1925C182.226 13.1395 180.496 15.4642 176.98 15.9126ZM187.848 10.3976C187.916 9.2384 188.544 8.55566 189.822 8.42408C188.662 8.35568 187.979 7.72748 187.848 6.4502C187.779 7.6094 187.151 8.29232 185.874 8.42408C187.033 8.4923 187.716 9.1205 187.848 10.3976ZM174.178 10.7108C175.337 10.7792 176.02 11.4074 176.151 12.6845C176.22 11.5253 176.848 10.8424 178.125 10.7108C176.966 10.6424 176.283 10.0142 176.151 8.7371C176.083 9.8963 175.455 10.5792 174.178 10.7108ZM176.151 19.6028C176.083 20.762 175.455 21.4447 174.178 21.5765C175.337 21.6447 176.02 22.2731 176.152 23.5502C176.22 22.391 176.848 21.7081 178.125 21.5765C176.966 21.5081 176.283 20.8799 176.152 19.6026L176.151 19.6028Z" fill="#22C55E"/>
<path d="M1.98033 90.9126C5.17173 91.145 7.05165 93.2843 7.41399 97.6327C7.60209 93.6857 9.33171 91.361 12.8478 90.9128C9.65644 90.6802 7.77651 88.5409 7.41399 84.1925C7.22607 88.1395 5.49627 90.4642 1.98033 90.9126ZM12.8478 85.3976C12.9161 84.2384 13.5444 83.5557 14.8215 83.4241C13.6623 83.3557 12.9794 82.7275 12.8478 81.4502C12.7794 82.6094 12.1512 83.2923 10.874 83.4241C12.0332 83.4923 12.7161 84.1205 12.8478 85.3976ZM-0.822266 85.7108C0.336934 85.7792 1.01985 86.4074 1.15143 87.6845C1.21983 86.5253 1.84803 85.8424 3.12531 85.7108C1.96611 85.6424 1.28319 85.0142 1.15143 83.7371C1.08303 84.8963 0.454834 85.5792 -0.822266 85.7108ZM1.15143 94.6028C1.08321 95.762 0.454834 96.4447 -0.822266 96.5765C0.336934 96.6447 1.01985 97.2731 1.15161 98.5502C1.21983 97.391 1.84821 96.7081 3.12531 96.5765C1.96611 96.5081 1.28319 95.8799 1.15161 94.6026L1.15143 94.6028Z" fill="#22C55E"/>
<g clip-path="url(#clip2_463_3686)">
<path d="M12.0958 43.7102C14.578 43.891 16.0402 45.5549 16.322 48.937C16.4683 45.8671 17.8136 44.059 20.5483 43.7104C18.0661 43.5295 16.604 41.8656 16.322 38.4835C16.1758 41.5534 14.8304 43.3615 12.0958 43.7102ZM20.5483 39.4208C20.6014 38.5192 21.0901 37.9882 22.0834 37.8858C21.1818 37.8326 20.6507 37.344 20.5483 36.3506C20.4951 37.2522 20.0065 37.7833 19.0131 37.8858C19.9147 37.9389 20.4458 38.4275 20.5483 39.4208ZM9.91602 39.6644C10.8176 39.7176 11.3488 40.2062 11.4511 41.1995C11.5043 40.2979 11.9929 39.7667 12.9864 39.6644C12.0848 39.6112 11.5536 39.1226 11.4511 38.1293C11.3979 39.0309 10.9093 39.562 9.91602 39.6644ZM11.4511 46.5804C11.3981 47.482 10.9093 48.013 9.91602 48.1155C10.8176 48.1685 11.3488 48.6573 11.4513 49.6506C11.5043 48.749 11.9931 48.2178 12.9864 48.1155C12.0848 48.0623 11.5536 47.5737 11.4513 46.5802L11.4511 46.5804Z" fill="#EF4444"/>
</g>
</g>
<defs>
<clipPath id="clip0_463_3686">
<rect width="200" height="200" fill="white"/>
</clipPath>
<clipPath id="clip1_463_3686">
<rect width="14" height="14" fill="white" transform="translate(186 74)"/>
</clipPath>
<clipPath id="clip2_463_3686">
<rect width="14" height="14" fill="white" transform="translate(9 36)"/>
</clipPath>
</defs>
</svg>
