<svg width="20" height="20" viewBox="0 0 20 20" fill="none" xmlns="http://www.w3.org/2000/svg">
<g clip-path="url(#clip0_627_7969)">
<path d="M10 20C15.5228 20 20 15.5228 20 10C20 4.47715 15.5228 0 10 0C4.47715 0 0 4.47715 0 10C0 15.5228 4.47715 20 10 20Z" fill="#4A90EB"/>
<path d="M11.0219 5.55313C11.0219 4.98876 10.5645 4.53125 10.0002 4.53125C9.43594 4.53125 8.97852 4.98876 8.97852 5.55313V8.76172C8.97852 9.32609 9.43594 9.78359 10.0002 9.78359C10.5645 9.78359 11.0219 9.32609 11.0219 8.76172V5.55313Z" fill="white"/>
<path d="M11.8751 6.97519C11.8035 7.14881 11.7883 7.34055 11.8316 7.52329C11.875 7.70604 11.9746 7.87054 12.1166 7.99355C12.6158 8.42496 12.9713 8.99867 13.1353 9.63778C13.2993 10.2769 13.2641 10.9509 13.0343 11.5694C12.8045 12.1879 12.3911 12.7214 11.8496 13.0984C11.3081 13.4754 10.6642 13.6778 10.0044 13.6786C9.34459 13.6794 8.70029 13.4785 8.15786 13.1028C7.61544 12.7271 7.2008 12.1946 6.96952 11.5767C6.73825 10.9587 6.70139 10.2848 6.86388 9.6453C7.02637 9.00579 7.38045 8.43124 7.87866 7.99863C8.02176 7.87526 8.12252 7.71009 8.16675 7.5264C8.21097 7.34271 8.19642 7.14978 8.12514 6.9748C7.8935 6.41113 7.17593 6.23261 6.7146 6.63105C5.93782 7.30124 5.38459 8.19297 5.12912 9.18659C4.87365 10.1802 4.92817 11.2282 5.28537 12.1899C5.64256 13.1517 6.28533 13.9812 7.12746 14.5672C7.96959 15.1531 8.97078 15.4676 9.99671 15.4682C11.0226 15.4689 12.0243 15.1558 12.8671 14.5709C13.71 13.986 14.3539 13.1574 14.7123 12.1961C15.0708 11.2348 15.1267 10.1869 14.8725 9.19296C14.6183 8.199 14.0663 7.30656 13.2904 6.63535C13.1825 6.54293 13.0543 6.47739 12.9162 6.44413C12.7781 6.41086 12.6341 6.41081 12.496 6.44397C12.3579 6.47714 12.2296 6.54258 12.1217 6.63492C12.0138 6.72726 11.9293 6.84387 11.8751 6.97519Z" fill="white"/>
</g>
<defs>
<clipPath id="clip0_627_7969">
<rect width="20" height="20" fill="white"/>
</clipPath>
</defs>
</svg>
