<svg width="41" height="40" viewBox="0 0 41 40" fill="none" xmlns="http://www.w3.org/2000/svg">
<path d="M0.5 8C0.5 3.58172 4.08172 0 8.5 0H32.5C36.9183 0 40.5 3.58172 40.5 8V32C40.5 36.4183 36.9183 40 32.5 40H8.5C4.08172 40 0.5 36.4183 0.5 32V8Z" fill="#EF4444"/>
<path d="M26.95 27.3C27.1755 27.3 27.3917 27.2104 27.5511 27.051C27.7105 26.8916 27.8 26.6754 27.8 26.45L27.8 14.55C27.8 14.3246 27.7105 14.1084 27.5511 13.949C27.3917 13.7896 27.1755 13.7 26.95 13.7L23.55 13.7C23.0806 13.7 22.7 13.3194 22.7 12.85C22.7 12.3806 23.0806 12 23.55 12L26.95 12C27.6263 12 28.2749 12.2687 28.7531 12.7469C29.2314 13.2251 29.5 13.8737 29.5 14.55V26.45C29.5 27.1263 29.2314 27.7749 28.7531 28.2531C28.2749 28.7313 27.6263 29 26.95 29H23.55C23.0806 29 22.7 28.6194 22.7 28.15C22.7 27.6806 23.0806 27.3 23.55 27.3H26.95Z" fill="#FFEDEC"/>
<path d="M18.2011 25.351C17.8691 25.683 17.3309 25.683 16.999 25.351L12.7516 21.1037C12.7426 21.0948 12.7338 21.0856 12.7252 21.0763C12.6585 21.0041 12.6066 20.9231 12.5695 20.8373C12.5248 20.7339 12.5 20.6198 12.5 20.5C12.5 20.38 12.5249 20.2657 12.5698 20.1622C12.6065 20.0773 12.6577 19.9972 12.7234 19.9257C12.7326 19.9156 12.7421 19.9058 12.7518 19.8962L16.999 15.649C17.3309 15.317 17.8691 15.317 18.2011 15.649C18.533 15.9809 18.533 16.5191 18.2011 16.851L15.4021 19.65L23.55 19.65C24.0194 19.65 24.4 20.0306 24.4 20.5C24.4 20.9694 24.0194 21.35 23.55 21.35H15.4021L18.2011 24.149C18.533 24.4809 18.533 25.0191 18.2011 25.351Z" fill="#FFEDEC"/>
</svg>
