<svg width="41" height="40" viewBox="0 0 41 40" fill="none" xmlns="http://www.w3.org/2000/svg">
<path d="M0.5 8C0.5 3.58172 4.08172 0 8.5 0H32.5C36.9183 0 40.5 3.58172 40.5 8V32C40.5 36.4183 36.9183 40 32.5 40H8.5C4.08172 40 0.5 36.4183 0.5 32V8Z" fill="#4A90EB"/>
<path fill-rule="evenodd" clip-rule="evenodd" d="M14.9 13.6C14.6878 13.6 14.4843 13.6843 14.3343 13.8343C14.1843 13.9843 14.1 14.1878 14.1 14.4V25.2686L15.9343 23.4343C16.0843 23.2843 16.2878 23.2 16.5 23.2H26.1C26.3122 23.2 26.5156 23.1157 26.6657 22.9657C26.8157 22.8156 26.9 22.6122 26.9 22.4V14.4C26.9 14.1878 26.8157 13.9843 26.6657 13.8343C26.5156 13.6843 26.3122 13.6 26.1 13.6H14.9ZM13.2029 12.7029C13.653 12.2529 14.2635 12 14.9 12H26.1C26.7365 12 27.3469 12.2529 27.797 12.7029C28.2471 13.153 28.5 13.7635 28.5 14.4V22.4C28.5 23.0365 28.2471 23.647 27.797 24.097C27.3469 24.5471 26.7365 24.8 26.1 24.8H16.8314L13.8657 27.7657C13.6369 27.9945 13.2928 28.0629 12.9939 27.9391C12.6949 27.8153 12.5 27.5235 12.5 27.2V14.4C12.5 13.7635 12.7529 13.153 13.2029 12.7029Z" fill="white"/>
</svg>
