<svg width="44" height="44" viewBox="0 0 44 44" fill="none" xmlns="http://www.w3.org/2000/svg">
<path d="M0 8C0 3.58172 3.58172 0 8 0H36C40.4183 0 44 3.58172 44 8V36C44 40.4183 40.4183 44 36 44H8C3.58172 44 0 40.4183 0 36V8Z" fill="#4A90EB"/>
<g clip-path="url(#clip0_663_2999)">
<path d="M29.5758 20.9216L15.0648 13.8424C14.9253 13.7744 14.7709 13.7431 14.6159 13.7513C14.461 13.7595 14.3108 13.807 14.1793 13.8892C14.0478 13.9715 13.9394 14.0859 13.8643 14.2217C13.7892 14.3574 13.7498 14.51 13.75 14.6651V14.6914C13.7501 14.814 13.7652 14.9362 13.795 15.0551L15.187 20.6231C15.2057 20.6973 15.2466 20.764 15.3042 20.8143C15.3618 20.8646 15.4335 20.896 15.5095 20.9044L21.6273 21.5846C21.729 21.5969 21.8228 21.646 21.8908 21.7227C21.9589 21.7994 21.9964 21.8984 21.9964 22.0009C21.9964 22.1034 21.9589 22.2024 21.8908 22.2791C21.8228 22.3558 21.729 22.4049 21.6273 22.4171L15.5095 23.0974C15.4335 23.1058 15.3618 23.1372 15.3042 23.1875C15.2466 23.2378 15.2057 23.3045 15.187 23.3786L13.795 28.9459C13.7652 29.0648 13.7501 29.187 13.75 29.3096V29.3359C13.75 29.491 13.7894 29.6435 13.8645 29.7791C13.9397 29.9147 14.0481 30.029 14.1796 30.1112C14.3111 30.1934 14.4613 30.2409 14.6161 30.249C14.771 30.2572 14.9254 30.2258 15.0648 30.1579L29.575 23.0786C29.7771 22.9801 29.9474 22.8267 30.0665 22.636C30.1857 22.4453 30.2488 22.225 30.2488 22.0001C30.2488 21.7753 30.1857 21.555 30.0665 21.3643C29.9474 21.1736 29.7778 21.0202 29.5758 20.9216Z" fill="white"/>
</g>
<defs>
<clipPath id="clip0_663_2999">
<rect width="18" height="18" fill="white" transform="translate(13 13)"/>
</clipPath>
</defs>
</svg>
