<svg width="20" height="20" viewBox="0 0 20 20" fill="none" xmlns="http://www.w3.org/2000/svg">
<g clip-path="url(#clip0_624_1923)">
<path d="M19.6634 13.4137C19.4393 13.1894 19.1667 13.0771 18.8463 13.0771H13.2692L11.6346 14.7117C11.1698 15.1603 10.625 15.3848 10 15.3848C9.37513 15.3848 8.83013 15.1606 8.36541 14.7117L6.74281 13.0771H1.15383C0.833379 13.0771 0.560961 13.1895 0.336534 13.4137C0.11215 13.638 0 13.9104 0 14.2311V18.0771C0 18.3977 0.11215 18.6701 0.336534 18.8944C0.560918 19.1187 0.833337 19.2308 1.15383 19.2308H18.8463C19.1667 19.2308 19.4393 19.1187 19.6635 18.8944C19.8879 18.6701 20 18.3977 20 18.0771V14.2311C20 13.9104 19.8879 13.638 19.6634 13.4137ZM15.1565 17.4641C15.004 17.6164 14.8237 17.6925 14.6153 17.6925C14.407 17.6925 14.2269 17.6164 14.0745 17.4641C13.9223 17.3119 13.8463 17.1316 13.8463 16.9234C13.8463 16.7151 13.9223 16.5346 14.0745 16.3826C14.2269 16.2302 14.407 16.1539 14.6153 16.1539C14.8237 16.1539 15.004 16.2302 15.1565 16.3826C15.3086 16.5346 15.3847 16.7151 15.3847 16.9234C15.3847 17.1316 15.3086 17.3119 15.1565 17.4641ZM18.2332 17.4641C18.081 17.6164 17.9007 17.6925 17.6923 17.6925C17.484 17.6925 17.3038 17.6164 17.1515 17.4641C16.9994 17.3119 16.9233 17.1316 16.9233 16.9234C16.9233 16.7151 16.9994 16.5346 17.1515 16.3826C17.3037 16.2302 17.4839 16.1539 17.6923 16.1539C17.9006 16.1539 18.081 16.2302 18.2332 16.3826C18.3854 16.5346 18.4616 16.7151 18.4616 16.9234C18.4616 17.1316 18.3856 17.3119 18.2332 17.4641Z" fill="#4A90EB"/>
<path d="M9.45938 13.6183C9.60369 13.7704 9.78396 13.8465 10.0002 13.8465C10.2166 13.8465 10.3967 13.7704 10.5411 13.6183L15.9257 8.23361C16.1741 8.00127 16.2303 7.72077 16.094 7.39223C15.958 7.07982 15.7216 6.92359 15.3849 6.92343H12.3079V1.53879C12.3079 1.33049 12.2316 1.15018 12.0797 0.997957C11.9273 0.845687 11.747 0.769531 11.5388 0.769531H8.46161C8.25339 0.769531 8.07308 0.845687 7.92077 0.997957C7.76858 1.15018 7.69243 1.33045 7.69243 1.53879V6.92347H4.6155C4.2788 6.92347 4.04254 7.07986 3.90631 7.39228C3.77017 7.72068 3.8262 8.00131 4.07466 8.23365L9.45938 13.6183Z" fill="#4A90EB"/>
</g>
<defs>
<clipPath id="clip0_624_1923">
<rect width="20" height="20" fill="white"/>
</clipPath>
</defs>
</svg>
