<svg width="20" height="20" viewBox="0 0 20 20" fill="none" xmlns="http://www.w3.org/2000/svg">
<g clip-path="url(#clip0_624_2146)">
<path d="M6.45156 17.7606C6.45156 18.2675 6.03681 18.6823 5.5299 18.6823H1.72035C1.21343 18.6823 0.798684 18.2675 0.798684 17.7606V13.5824C0.798684 13.0755 1.21343 12.6607 1.72035 12.6607H5.5299C6.03681 12.6607 6.45156 13.0755 6.45156 13.5824V17.7606ZM13.2258 17.7606C13.2258 18.2675 12.811 18.6823 12.3041 18.6823H8.49458C7.98767 18.6823 7.57292 18.2675 7.57292 17.7606V11.3704C7.57292 10.8635 7.98767 10.4487 8.49458 10.4487H12.3041C12.811 10.4487 13.2258 10.8635 13.2258 11.3704V17.7606ZM20 17.7606C20 18.2675 19.5853 18.6823 19.0784 18.6823H15.2688C14.7619 18.6823 14.3472 18.2675 14.3472 17.7606V8.91262C14.3472 8.4057 14.7619 7.99095 15.2688 7.99095H19.0784C19.5853 7.99095 20 8.4057 20 8.91262V17.7606ZM19.2027 1.33555L15.0629 2.34275C14.7344 2.42226 14.6613 2.68284 14.9002 2.9218L15.7836 3.78454C15.8578 3.86909 15.7698 3.98153 15.7 4.02915C15.1437 4.40887 14.2609 4.96605 13.0407 5.60268C6.39767 9.06856 0.921572 8.85597 0.839237 8.85222C0.399664 8.82991 0.0238095 9.16853 0.0010751 9.60884C-0.0215978 10.0494 0.317083 10.425 0.757639 10.4477C0.79002 10.4493 0.921695 10.4553 1.14308 10.4553C2.56287 10.4553 7.663 10.2103 13.7797 7.01909C15.227 6.264 16.2302 5.61275 16.8159 5.20046C16.8988 5.14215 17.0431 5.04163 17.1763 5.17723L18.1425 6.14338C18.3815 6.38234 18.6408 6.30879 18.7189 5.98L19.6581 1.78883C19.7361 1.45998 19.5311 1.25604 19.2027 1.33555Z" fill="#4A90EB"/>
</g>
<defs>
<clipPath id="clip0_624_2146">
<rect width="20" height="20" fill="white"/>
</clipPath>
</defs>
</svg>
