<svg width="150" height="142" viewBox="0 0 150 142" fill="none" xmlns="http://www.w3.org/2000/svg">
<path d="M76.84 120C108.213 120 133.646 94.5507 133.646 63.1576C133.646 31.7646 108.213 6.31543 76.84 6.31543C45.467 6.31543 20.0342 31.7646 20.0342 63.1576C20.0342 94.5507 45.467 120 76.84 120Z" fill="url(#paint0_linear_265_8991)"/>
<path fill-rule="evenodd" clip-rule="evenodd" d="M1.35662 35.5393C11.3118 29.5575 22.5895 28.4187 33.3871 28.7767C34.93 28.8279 36.1393 30.1209 36.0882 31.6647C36.0371 33.2086 34.7449 34.4187 33.202 34.3675C22.8392 34.0239 12.8383 35.1652 4.23451 40.335C2.91107 41.1302 1.19397 40.7013 0.399264 39.377C-0.395445 38.0527 0.0331776 36.3345 1.35662 35.5393Z" fill="url(#paint1_linear_265_8991)"/>
<g filter="url(#filter0_f_265_8991)">
<ellipse cx="63.7336" cy="54.8802" rx="34.2511" ry="5.8568" fill="#8AC0F3"/>
</g>
<g filter="url(#filter1_f_265_8991)">
<ellipse cx="84.5441" cy="113.448" rx="34.2511" ry="5.8568" fill="#8AC0F3"/>
</g>
<path fill-rule="evenodd" clip-rule="evenodd" d="M149.601 80.9864C150.395 82.3107 149.967 84.0289 148.643 84.8241C138.689 90.8052 127.406 91.9444 116.609 91.5867C115.066 91.5356 113.857 90.2426 113.908 88.6987C113.959 87.1549 115.251 85.9448 116.794 85.9959C127.156 86.3392 137.163 85.1974 145.765 80.0284C147.089 79.2332 148.806 79.6621 149.601 80.9864Z" fill="#69ADF1"/>
<path d="M72.8457 113.085H101.236C110.756 113.085 118.474 102.768 118.474 90.038C118.474 77.308 110.756 66.9873 101.236 66.9873H72.8457C78.7355 66.9873 83.9344 70.935 87.041 76.9764C89.0401 81.0443 90.0796 85.5169 90.0796 90.05C90.0796 94.5831 89.0401 99.0558 87.041 103.124C83.9344 109.149 78.7355 113.085 72.8457 113.085Z" fill="#99CAF7"/>
<path d="M93.2578 75.4501C89.7919 68.7254 83.9899 64.3223 77.4214 64.3223H71.0764C60.4548 64.3223 51.8418 75.8376 51.8418 90.0381C51.8418 104.239 60.4548 115.75 71.0764 115.754H77.4413C84.0099 115.754 89.8198 111.359 93.2778 104.626C95.5068 100.088 96.6659 95.0987 96.6659 90.0421C96.6659 84.9855 95.5068 79.9962 93.2778 75.4581L93.2578 75.4501Z" fill="#4A90EB"/>
<path d="M86.8414 75.4496C83.3834 68.7369 77.5935 64.3378 71.0369 64.3218C60.4233 64.3218 51.8223 75.8452 51.8223 90.0376C51.8223 104.23 60.4233 115.737 71.0369 115.753C77.5935 115.753 83.3834 111.358 86.8414 104.626C89.073 100.088 90.2336 95.0987 90.2336 90.0416C90.2336 84.9845 89.073 79.9949 86.8414 75.4576V75.4496Z" fill="#99CAF7"/>
<path d="M73.5698 85.2967C72.6124 86.9814 71.0098 88.0845 69.1955 88.0845H67.4428C64.509 88.0845 62.1299 85.1996 62.1299 81.6421C62.1299 78.0846 64.509 75.2007 67.4428 75.1997H69.201C71.0153 75.1997 72.6201 76.3008 73.5753 77.9875C74.191 79.1244 74.5112 80.3743 74.5112 81.6411C74.5112 82.9079 74.191 84.1578 73.5753 85.2947L73.5698 85.2967Z" fill="#3172DF"/>
<path d="M73.5698 102.641C72.6124 104.326 71.0098 105.429 69.1955 105.429H67.4428C64.509 105.429 62.1299 102.544 62.1299 98.9868C62.1299 95.4293 64.509 92.5454 67.4428 92.5444H69.201C71.0153 92.5444 72.6201 93.6455 73.5753 95.3322C74.191 96.4691 74.5112 97.719 74.5112 98.9858C74.5112 100.253 74.191 101.503 73.5753 102.639L73.5698 102.641Z" fill="#3172DF"/>
<path d="M71.6117 85.2967C70.6754 86.9784 69.1077 88.0805 67.3324 88.0845C64.4587 88.0845 62.1299 85.1976 62.1299 81.6421C62.1299 78.0866 64.4587 75.2037 67.3324 75.1997C69.1077 75.1997 70.6754 76.3008 71.6117 77.9875C72.2159 79.1242 72.5302 80.3742 72.5302 81.6411C72.5302 82.908 72.2159 84.158 71.6117 85.2947V85.2967Z" fill="#4A90EB"/>
<path d="M71.6117 102.641C70.6754 104.323 69.1077 105.425 67.3324 105.429C64.4587 105.429 62.1299 102.542 62.1299 98.9868C62.1299 95.4313 64.4587 92.5484 67.3324 92.5444C69.1077 92.5444 70.6754 93.6455 71.6117 95.3322C72.2159 96.4689 72.5302 97.7189 72.5302 98.9858C72.5302 100.253 72.2159 101.503 71.6117 102.639V102.641Z" fill="#4A90EB"/>
<path d="M77.1542 56.5491H48.7635C39.2441 56.5491 31.5215 46.2325 31.5215 33.5024C31.5215 20.7724 39.2441 10.4517 48.7635 10.4517H77.1542C71.2644 10.4517 66.0655 14.3993 62.9589 20.4407C60.9214 24.4964 59.8784 28.9793 59.9161 33.5184C59.8783 38.0562 60.9213 42.5378 62.9589 46.5921C66.0655 52.6015 71.2644 56.5491 77.1542 56.5491Z" fill="#99CAF7"/>
<path d="M56.7378 18.9301C60.2078 12.2054 66.0097 7.80225 72.5783 7.80225H78.9432C89.5648 7.80225 98.1778 19.3176 98.1778 33.5181C98.1778 47.7185 89.5648 59.2299 78.9432 59.2339H72.5783C66.0097 59.2339 60.1998 54.8387 56.7378 48.1061C54.4692 43.5807 53.3072 38.5808 53.3477 33.5181C53.3072 28.4554 54.4692 23.4555 56.7378 18.9301Z" fill="#4A90EB"/>
<path d="M63.1548 18.9301C66.6168 12.2174 72.4027 7.81823 78.9633 7.80225C89.5769 7.80225 98.1779 19.3256 98.1779 33.5181C98.1779 47.7105 89.5769 59.2179 78.9633 59.2299C72.4027 59.2299 66.6168 54.8347 63.1548 48.1061C60.8862 43.5807 59.7242 38.5808 59.7647 33.5181C59.7242 28.4554 60.8862 23.4555 63.1548 18.9301Z" fill="#99CAF7"/>
<path d="M80.6159 29.1148C82.6911 29.1148 84.3733 26.7785 84.3733 23.8965C84.3733 21.0145 82.6911 18.6782 80.6159 18.6782C78.5407 18.6782 76.8584 21.0145 76.8584 23.8965C76.8584 26.7785 78.5407 29.1148 80.6159 29.1148Z" fill="url(#paint2_linear_265_8991)"/>
<path d="M80.702 30.1026C83.3004 30.1026 85.4068 27.3292 85.4068 23.908C85.4068 20.4868 83.3004 17.7134 80.702 17.7134C78.1035 17.7134 75.9971 20.4868 75.9971 23.908C75.9971 27.3292 78.1035 30.1026 80.702 30.1026Z" fill="#3172DF"/>
<path d="M80.702 49.9253C83.3004 49.9253 85.4068 47.1519 85.4068 43.7307C85.4068 40.3096 83.3004 37.5361 80.702 37.5361C78.1035 37.5361 75.9971 40.3096 75.9971 43.7307C75.9971 47.1519 78.1035 49.9253 80.702 49.9253Z" fill="#3172DF"/>
<path d="M23.8168 71.5173C24.2634 69.6659 26.897 69.6659 27.3436 71.5173C27.5032 72.1789 28.0197 72.6954 28.6812 72.8552C30.533 73.3025 30.533 75.9367 28.6812 76.384C28.0197 76.5438 27.5032 77.0604 27.3436 77.7219C26.897 79.5733 24.2634 79.5733 23.8168 77.7219C23.6572 77.0604 23.1407 76.5438 22.4792 76.384C20.6274 75.9367 20.6274 73.3025 22.4792 72.8552C23.1407 72.6954 23.6572 72.1789 23.8168 71.5173Z" fill="#69ADF1"/>
<path d="M105.642 43.3098C106.089 41.4583 108.722 41.4583 109.169 43.3098C109.328 43.9713 109.845 44.4879 110.506 44.6477C112.358 45.095 112.358 47.7292 110.506 48.1765C109.845 48.3362 109.328 48.8528 109.169 49.5144C108.722 51.3658 106.089 51.3658 105.642 49.5144C105.482 48.8528 104.966 48.3362 104.304 48.1765C102.453 47.7292 102.453 45.095 104.304 44.6477C104.966 44.4879 105.482 43.9713 105.642 43.3098Z" fill="#69ADF1"/>
<path d="M80.6159 29.1148C82.6911 29.1148 84.3733 26.7785 84.3733 23.8965C84.3733 21.0145 82.6911 18.6782 80.6159 18.6782C78.5407 18.6782 76.8584 21.0145 76.8584 23.8965C76.8584 26.7785 78.5407 29.1148 80.6159 29.1148Z" fill="#69ADF1"/>
<path d="M80.6159 48.9375C82.6911 48.9375 84.3733 46.6012 84.3733 43.7193C84.3733 40.8373 82.6911 38.501 80.6159 38.501C78.5407 38.501 76.8584 40.8373 76.8584 43.7193C76.8584 46.6012 78.5407 48.9375 80.6159 48.9375Z" fill="#69ADF1"/>
<path d="M110.095 7.3098C110.542 5.45834 113.175 5.45834 113.622 7.3098C113.782 7.97133 114.298 8.48792 114.96 8.6477C116.811 9.095 116.811 11.7292 114.96 12.1765C114.298 12.3362 113.782 12.8528 113.622 13.5144C113.175 15.3658 110.542 15.3658 110.095 13.5144C109.936 12.8528 109.419 12.3362 108.758 12.1765C106.906 11.7292 106.906 9.095 108.758 8.6477C109.419 8.48792 109.936 7.97133 110.095 7.3098Z" fill="#69ADF1"/>
<path d="M25.5811 47.2998C26.5311 47.2999 27.3027 48.0707 27.3027 49.0234C27.3026 49.976 26.531 50.7469 25.5811 50.7471C24.631 50.7471 23.8595 49.9761 23.8594 49.0234C23.8594 48.0707 24.6309 47.2998 25.5811 47.2998Z" fill="#69ADF1" stroke="#4A90EB" stroke-width="2.6263"/>
<path d="M124.101 102.778C125.051 102.778 125.822 103.549 125.822 104.502C125.822 105.455 125.051 106.225 124.101 106.226C123.151 106.226 122.379 105.455 122.379 104.502C122.379 103.549 123.15 102.778 124.101 102.778Z" fill="#69ADF1" stroke="#4A90EB" stroke-width="2.6263"/>
<path d="M122.638 66.5984C122.389 65.6188 123.293 64.7359 124.265 65.0092L125.657 65.4013C126.63 65.6748 126.942 66.8992 126.219 67.6055L125.184 68.6167C124.461 69.3227 123.245 68.9806 122.995 68.0009L122.638 66.5984Z" fill="#69ADF1" stroke="#4A90EB" stroke-width="0.875432"/>
<path d="M42.2849 107.541C43.5909 107.21 44.7657 108.418 44.3995 109.715L44.0065 111.108C43.6403 112.405 42.0077 112.819 41.0679 111.853L40.0591 110.816C39.1192 109.85 39.577 108.228 40.883 107.897L42.2849 107.541Z" fill="#69ADF1"/>
<path d="M60.708 1.68213C61.658 1.68226 62.4297 2.45307 62.4297 3.40576C62.4296 4.35834 61.6579 5.12926 60.708 5.12939C59.758 5.12939 58.9865 4.35842 58.9863 3.40576C58.9863 2.45299 59.7579 1.68213 60.708 1.68213Z" fill="#69ADF1" stroke="#4A90EB" stroke-width="2.6263"/>
<rect x="46.2822" y="77.1816" width="24.7625" height="8.92023" rx="4.46012" fill="#69ADF1"/>
<rect x="46.2822" y="94.5269" width="24.7625" height="8.92023" rx="4.46012" fill="#69ADF1"/>
<defs>
<filter id="filter0_f_265_8991" x="7.59661" y="27.1376" width="112.274" height="55.485" filterUnits="userSpaceOnUse" color-interpolation-filters="sRGB">
<feFlood flood-opacity="0" result="BackgroundImageFix"/>
<feBlend mode="normal" in="SourceGraphic" in2="BackgroundImageFix" result="shape"/>
<feGaussianBlur stdDeviation="10.9429" result="effect1_foregroundBlur_265_8991"/>
</filter>
<filter id="filter1_f_265_8991" x="28.4072" y="85.7055" width="112.274" height="55.485" filterUnits="userSpaceOnUse" color-interpolation-filters="sRGB">
<feFlood flood-opacity="0" result="BackgroundImageFix"/>
<feBlend mode="normal" in="SourceGraphic" in2="BackgroundImageFix" result="shape"/>
<feGaussianBlur stdDeviation="10.9429" result="effect1_foregroundBlur_265_8991"/>
</filter>
<linearGradient id="paint0_linear_265_8991" x1="76.4021" y1="-12.1938" x2="77.5672" y2="187.427" gradientUnits="userSpaceOnUse">
<stop stop-color="#DDECFC" stop-opacity="0.25"/>
<stop offset="1" stop-color="#69ADF1" stop-opacity="0.5"/>
</linearGradient>
<linearGradient id="paint1_linear_265_8991" x1="31.9201" y1="40.8148" x2="8.19641" y2="17.5141" gradientUnits="userSpaceOnUse">
<stop stop-color="#4A90EB"/>
<stop offset="1" stop-color="#F7F7FF"/>
</linearGradient>
<linearGradient id="paint2_linear_265_8991" x1="73.2714" y1="29.3087" x2="102.594" y2="27.0948" gradientUnits="userSpaceOnUse">
<stop stop-color="#5149F2"/>
<stop offset="1" stop-color="#F7F7FF"/>
</linearGradient>
</defs>
</svg>
