<svg width="24" height="24" viewBox="0 0 24 24" fill="none" xmlns="http://www.w3.org/2000/svg">
<path d="M8.35206 20.242C9.19206 21.31 10.5141 22 12.0001 22C13.4861 22 14.8071 21.311 15.6481 20.242C13.2271 20.5702 10.773 20.5702 8.35206 20.242ZM18.7501 9V9.704C18.7501 10.549 18.9901 11.375 19.4421 12.078L20.5501 13.801C21.5611 15.375 20.7891 17.514 19.0301 18.011C14.4338 19.313 9.56631 19.313 4.97006 18.011C3.21106 17.514 2.43906 15.375 3.45006 13.801L4.55806 12.078C5.01006 11.375 5.25106 10.549 5.25106 9.704V9C5.25106 5.134 8.27306 2 12.0001 2C15.7271 2 18.7501 5.134 18.7501 9Z" fill="#4A90EB"/>
</svg>
