<svg width="72" height="72" viewBox="0 0 72 72" fill="none" xmlns="http://www.w3.org/2000/svg">
<rect width="72" height="72" rx="36" fill="#DDECFC"/>
<path fill-rule="evenodd" clip-rule="evenodd" d="M42.75 29.25V25.5C42.75 21.7721 39.7279 18.75 36 18.75C32.2721 18.75 29.25 21.7721 29.25 25.5V29.25H42.75ZM36 15C30.201 15 25.5 19.701 25.5 25.5V33H46.5V25.5C46.5 19.701 41.799 15 36 15Z" fill="#9DB1CD"/>
<path d="M19.5 40.5C19.5 34.8431 19.5 32.0147 21.2574 30.2574C23.0147 28.5 25.8431 28.5 31.5 28.5H40.5C46.1569 28.5 48.9853 28.5 50.7426 30.2574C52.5 32.0147 52.5 34.8431 52.5 40.5V42C52.5 49.071 52.5 52.6067 50.3032 54.8032C48.1067 57 44.571 57 37.5 57H34.5C27.4289 57 23.8934 57 21.6967 54.8032C19.5 52.6067 19.5 49.071 19.5 42V40.5Z" fill="#4A90EB"/>
<path d="M23.0625 42C23.0625 40.5859 23.0625 39.8786 23.5018 39.4393C23.9412 39 24.6483 39 26.0625 39H45.9375C47.3516 39 48.0589 39 48.4982 39.4393C48.9375 39.8786 48.9375 40.5859 48.9375 42V45C48.9375 46.4141 48.9375 47.1214 48.4982 47.5607C48.0589 48 47.3516 48 45.9375 48H26.0625C24.6483 48 23.9412 48 23.5018 47.5607C23.0625 47.1214 23.0625 46.4141 23.0625 45V42Z" fill="#8CBAF5"/>
<path d="M28.4273 41.4553C28.6575 41.1816 29.0925 41.1816 29.3227 41.4553L29.8756 42.1134C29.9395 42.1896 30.0234 42.2479 30.1186 42.2827L30.9422 42.5837C31.2847 42.7089 31.4192 43.1057 31.2187 43.4003L30.737 44.1081C30.6813 44.1898 30.6493 44.2843 30.6442 44.3818L30.6002 45.2259C30.5819 45.5771 30.2299 45.8224 29.8759 45.7307L29.0251 45.5098C28.9268 45.4843 28.8232 45.4843 28.7249 45.5098L27.8741 45.7307C27.5201 45.8224 27.1681 45.5771 27.1498 45.2259L27.1058 44.3818C27.1007 44.2843 27.0687 44.1898 27.013 44.1081L26.5312 43.4003C26.3307 43.1057 26.4652 42.7089 26.8079 42.5837L27.6314 42.2827C27.7266 42.2479 27.8104 42.1896 27.8744 42.1134L28.4273 41.4553ZM35.4587 41.4553C35.6887 41.1816 36.1237 41.1816 36.3538 41.4553L36.9069 42.1134C36.9709 42.1896 37.0547 42.2479 37.1497 42.2827L37.9734 42.5837C38.316 42.7089 38.4504 43.1057 38.25 43.4003L37.7683 44.1081C37.7126 44.1898 37.6806 44.2843 37.6755 44.3818L37.6314 45.2259C37.6131 45.5771 37.2611 45.8224 36.9071 45.7307L36.0564 45.5098C35.958 45.4843 35.8545 45.4843 35.7561 45.5098L34.9054 45.7307C34.5514 45.8224 34.1994 45.5771 34.1811 45.2259L34.137 44.3818C34.1319 44.2843 34.0999 44.1898 34.0442 44.1081L33.5625 43.4003C33.3621 43.1057 33.4965 42.7089 33.8391 42.5837L34.6627 42.2827C34.7578 42.2479 34.8416 42.1896 34.9056 42.1134L35.4587 41.4553ZM42.4899 41.4553C42.72 41.1816 43.155 41.1816 43.3851 41.4553L43.9382 42.1134C44.0021 42.1896 44.0859 42.2479 44.181 42.2827L45.0047 42.5837C45.3472 42.7089 45.4817 43.1057 45.2812 43.4003L44.7996 44.1081C44.7439 44.1898 44.7118 44.2843 44.7067 44.3818L44.6627 45.2259C44.6443 45.5771 44.2924 45.8224 43.9384 45.7307L43.0877 45.5098C42.9892 45.4843 42.8857 45.4843 42.7873 45.5098L41.9366 45.7307C41.5826 45.8224 41.2307 45.5771 41.2123 45.2259L41.1682 44.3818C41.1632 44.2843 41.1311 44.1898 41.0754 44.1081L40.5937 43.4003C40.3933 43.1057 40.5278 42.7089 40.8703 42.5837L41.694 42.2827C41.7891 42.2479 41.8729 42.1896 41.9368 42.1134L42.4899 41.4553Z" fill="white"/>
</svg>
