<svg width="72" height="72" viewBox="0 0 72 72" fill="none" xmlns="http://www.w3.org/2000/svg">
<path d="M38.5965 37.6477C40.9808 35.5811 43.8821 33.4662 43.8821 27.0386H28.0371C28.0371 33.4662 30.9376 35.5811 33.3227 37.6477C34.641 38.7897 34.641 40.6675 33.3227 41.8095C30.9383 43.8762 28.0371 45.9911 28.0371 52.4187H43.8821C43.8821 45.9911 40.9816 43.8762 38.5965 41.8095C37.2782 40.6675 37.2782 38.7897 38.5965 37.6477Z" fill="#99CAF7"/>
<path d="M45.3241 55.9473H26.5953C26.3337 55.9473 26.1211 55.7347 26.1211 55.4731V52.1016C26.1211 51.84 26.3337 51.6274 26.5953 51.6274H45.3241C45.5857 51.6274 45.7983 51.84 45.7983 52.1016V55.4731C45.7983 55.7355 45.5865 55.9473 45.3241 55.9473Z" fill="#5A7380"/>
<path d="M45.3241 27.8296H26.5953C26.3337 27.8296 26.1211 27.617 26.1211 27.3554V23.984C26.1211 23.7224 26.3337 23.5098 26.5953 23.5098H45.3241C45.5857 23.5098 45.7983 23.7224 45.7983 23.984V27.3554C45.7983 27.617 45.5865 27.8296 45.3241 27.8296Z" fill="#5A7380"/>
<path d="M58.4827 14.9785L56.0525 17.0207C55.6692 17.3431 55.6542 17.9185 56.0083 18.2733C61.4535 23.7201 64.693 31.3727 64.2718 39.7761C63.5597 53.9773 52.1555 65.617 37.9702 66.5954C21.4036 67.7374 7.60953 54.6372 7.60953 38.3148C7.60953 23.2025 19.4358 10.8554 34.3387 10.0153V13.7646C34.3387 14.2933 34.9251 14.611 35.3677 14.3225L45.1122 7.97158C45.5153 7.7092 45.5153 7.11884 45.1122 6.85645L35.3677 0.5055C34.9251 0.217036 34.3387 0.534742 34.3387 1.06346V5.14859C16.2887 6.01477 2.01728 21.2899 2.77914 39.724C3.49359 56.9986 17.705 71.0164 34.9867 71.5103C53.7709 72.047 69.1678 56.9789 69.1678 38.3156C69.1678 29.2436 65.53 21.0204 59.6326 15.0267C59.3236 14.7122 58.8202 14.6948 58.4827 14.9785Z" fill="#F59E08"/>
</svg>
