<svg width="72" height="72" viewBox="0 0 72 72" fill="none" xmlns="http://www.w3.org/2000/svg">
<g clip-path="url(#clip0_385_2172)">
<path d="M36 72C55.8823 72 72 55.8823 72 36C72 16.1177 55.8823 0 36 0C16.1177 0 0 16.1177 0 36C0 55.8823 16.1177 72 36 72Z" fill="#F44336"/>
<path d="M49.0211 54.9846C48.2374 54.987 47.4609 54.8339 46.7367 54.5341C46.0126 54.2343 45.3551 53.7938 44.8024 53.238L35.9993 44.4377L27.1961 53.2423C26.0773 54.3611 24.5597 54.9897 22.9774 54.9897C21.395 54.9897 19.8775 54.3611 18.7586 53.2423C17.6398 52.1234 17.0112 50.6059 17.0112 49.0235C17.0112 47.4412 17.6398 45.9236 18.7586 44.8048L27.5618 36.0002L18.7572 27.1971C17.6383 26.0782 17.0098 24.5607 17.0098 22.9784C17.0098 21.396 17.6383 19.8785 18.7572 18.7596C19.8761 17.6407 21.3936 17.0121 22.976 17.0121C24.5583 17.0121 26.0758 17.6407 27.1947 18.7596L35.9993 27.5627L44.8024 18.7582C45.3564 18.2042 46.0141 17.7647 46.738 17.4649C47.4618 17.1651 48.2376 17.0107 49.0211 17.0107C49.8046 17.0107 50.5805 17.1651 51.3043 17.4649C52.0282 17.7647 52.6859 18.2042 53.2399 18.7582C53.7939 19.3122 54.2334 19.9699 54.5332 20.6938C54.833 21.4176 54.9873 22.1935 54.9873 22.977C54.9873 23.7604 54.833 24.5363 54.5332 25.2601C54.2334 25.984 53.7939 26.6417 53.2399 27.1957L44.4368 36.0002L53.2413 44.8034C54.0755 45.6375 54.6436 46.7003 54.8738 47.8574C55.1039 49.0145 54.9856 50.2138 54.534 51.3037C54.0824 52.3936 53.3177 53.325 52.3367 53.9802C51.3556 54.6355 50.2023 54.985 49.0225 54.9846H49.0211Z" fill="white"/>
</g>
<defs>
<clipPath id="clip0_385_2172">
<rect width="72" height="72" fill="white"/>
</clipPath>
</defs>
</svg>
