<svg width="72" height="72" viewBox="0 0 72 72" fill="none" xmlns="http://www.w3.org/2000/svg">
<g clip-path="url(#clip0_385_2062)">
<path d="M68.1725 41.9636L68.1515 41.974C65.6835 43.8667 64.6379 47.0874 65.5163 50.0678L65.5267 50.0888C66.9279 54.8259 63.4563 59.6046 58.5204 59.7302H58.4996C55.3833 59.8139 52.6435 61.8006 51.6082 64.7391V64.7495C49.9559 69.4133 44.3302 71.2433 40.2623 68.4302C37.7364 66.7055 34.3973 66.6155 31.7398 68.4302H31.7294C27.6616 71.2327 22.0357 69.4132 20.3939 64.739C19.8871 63.3047 18.957 62.058 17.7266 61.1637C16.4962 60.2693 15.0233 59.7694 13.5027 59.73H13.4817C8.54605 59.6045 5.07416 54.8257 6.47549 50.0887L6.4859 50.0677C7.3641 47.0873 6.31841 43.8666 3.85073 41.9739L3.82977 41.9635C-0.0916954 38.9517 -0.0916954 33.054 3.82977 30.0424L3.85073 30.032C6.31841 28.1393 7.3641 24.9185 6.47549 21.9382V21.9172C5.06362 17.1803 8.54591 12.4013 13.4817 12.2759H13.5027C16.6084 12.1922 19.3586 10.2053 20.3939 7.26693V7.25652C22.0355 2.5927 27.6616 0.762744 31.7294 3.57581H31.7398C34.3017 5.34304 37.6897 5.34304 40.2623 3.57581C44.3711 0.738415 49.9656 2.62068 51.6082 7.25652V7.26693C52.6435 10.1949 55.3832 12.1923 58.4996 12.2759H58.5204C63.4562 12.4013 66.9279 17.1803 65.5267 21.9172L65.5163 21.9382C64.6379 24.9185 65.6835 28.1393 68.1515 30.032L68.1725 30.0424C72.0939 33.054 72.0939 38.9519 68.1725 41.9636Z" fill="#3EB655"/>
<path d="M36.0024 55.4794C46.7603 55.4794 55.4813 46.7584 55.4813 36.0004C55.4813 25.2425 46.7603 16.5215 36.0024 16.5215C25.2445 16.5215 16.5234 25.2425 16.5234 36.0004C16.5234 46.7584 25.2445 55.4794 36.0024 55.4794Z" fill="#8BD399"/>
<path d="M50.9578 23.5311C47.5886 20.7593 43.278 19.0934 38.5789 19.0934C27.8211 19.0934 19.0953 27.8191 19.0953 38.577C19.0953 43.2761 20.7613 47.5867 23.5329 50.9559C19.2521 47.385 16.5254 42.0135 16.5254 35.9996C16.5254 25.2416 25.2437 16.5234 36.0015 16.5234C42.0155 16.5234 47.387 19.2502 50.9578 23.5311Z" fill="black" fill-opacity="0.0627451"/>
<path d="M31.3669 43.6262L27.0594 39.0435C25.9313 37.8432 25.9895 35.9558 27.1895 34.8278C28.3894 33.6983 30.2776 33.7589 31.4047 34.9584L33.4609 37.1451L42.2012 27.1554C43.2846 25.9156 45.169 25.7899 46.4097 26.8748C47.6494 27.9598 47.7746 29.8436 46.6902 31.0833L35.7841 43.5476C34.6222 44.8741 32.5718 44.9089 31.3669 43.6262Z" fill="white"/>
</g>
<defs>
<clipPath id="clip0_385_2062">
<rect width="72" height="72" fill="white"/>
</clipPath>
</defs>
</svg>
