<svg width="24" height="24" viewBox="0 0 24 24" fill="none" xmlns="http://www.w3.org/2000/svg">
<path fill-rule="evenodd" clip-rule="evenodd" d="M7.68195 23.1866L8.09087 20.5447L7.17994 20.5231H2.83008L5.85308 1.02765C5.8625 0.968611 5.89294 0.913809 5.9374 0.874824C5.98208 0.835839 6.03903 0.814453 6.09861 0.814453H13.4331C15.8683 0.814453 17.5486 1.32972 18.4258 2.3469C18.8372 2.82408 19.0991 3.32287 19.2259 3.87155C19.3589 4.44742 19.3611 5.13534 19.2314 5.97452L19.222 6.03556V6.57333L19.6333 6.81036C19.9796 6.99727 20.2549 7.21113 20.4661 7.45596C20.8178 7.86407 21.0454 8.38269 21.1415 8.99732C21.241 9.62954 21.2081 10.3821 21.0454 11.2339C20.8577 12.2137 20.5543 13.0671 20.1445 13.7653C19.7678 14.4087 19.2877 14.9424 18.7176 15.3559C18.1733 15.7489 17.5267 16.0472 16.7956 16.2381C16.0871 16.4256 15.2793 16.5203 14.3933 16.5203H13.8226C13.4145 16.5203 13.0181 16.6698 12.7068 16.9378C12.3947 17.2114 12.1884 17.5852 12.1251 17.994L12.082 18.2319L11.3594 22.8885L11.3268 23.0594C11.318 23.1135 11.3031 23.1404 11.2812 23.1587C11.2617 23.1754 11.2337 23.1866 11.2063 23.1866H7.68195Z" fill="#28356A"/>
<path fill-rule="evenodd" clip-rule="evenodd" d="M20.023 6.09717C20.0013 6.23952 19.9761 6.38499 19.9481 6.53447C18.9809 11.5856 15.6716 13.3306 11.4453 13.3306H9.29335C8.77645 13.3306 8.34081 13.7122 8.26043 14.2308L6.84661 23.3522C6.79426 23.6928 7.05228 23.9996 7.39002 23.9996H11.2068C11.6586 23.9996 12.0426 23.6656 12.1138 23.2123L12.1512 23.0151L12.8698 18.3768L12.9161 18.1224C12.9864 17.6675 13.3712 17.3333 13.823 17.3333H14.3938C18.0916 17.3333 20.9865 15.8065 21.8326 11.3876C22.1859 9.54167 22.003 8.00031 21.0678 6.9163C20.7848 6.58949 20.4337 6.31816 20.023 6.09717Z" fill="#298FC2"/>
<path fill-rule="evenodd" clip-rule="evenodd" d="M19.0107 5.68708C18.8628 5.64319 18.7104 5.60354 18.554 5.56767C18.3967 5.5327 18.2358 5.50173 18.07 5.47455C17.4897 5.37921 16.8539 5.33398 16.173 5.33398H10.4242C10.2825 5.33398 10.148 5.36651 10.0277 5.42532C9.7625 5.55497 9.5656 5.81027 9.51785 6.12282L8.29481 14.0014L8.25977 14.231C8.34015 13.7124 8.77579 13.3308 9.29269 13.3308H11.4446C15.671 13.3308 18.9802 11.585 19.9474 6.53472C19.9764 6.38524 20.0007 6.23977 20.0224 6.09742C19.7777 5.96532 19.5127 5.85237 19.2273 5.75614C19.1568 5.7323 19.084 5.70935 19.0107 5.68708Z" fill="#22284F"/>
<path fill-rule="evenodd" clip-rule="evenodd" d="M9.51757 6.12311C9.56532 5.81056 9.76222 5.55526 10.0275 5.4265C10.1486 5.36747 10.2822 5.33494 10.4239 5.33494H16.1727C16.8536 5.33494 17.4895 5.38039 18.0697 5.47573C18.2355 5.50269 18.3965 5.53388 18.5537 5.56885C18.7101 5.6045 18.8625 5.64437 19.0104 5.68804C19.0838 5.71031 19.1565 5.73348 19.2277 5.75643C19.5131 5.85266 19.7783 5.9665 20.0229 6.09771C20.3107 4.23111 20.0205 2.96019 19.0283 1.80935C17.9343 0.542227 15.96 0 13.4335 0H6.09879C5.58276 0 5.14252 0.381608 5.0628 0.901113L2.00782 20.597C1.94759 20.9867 2.24305 21.3382 2.62941 21.3382H7.15756L9.51757 6.12311Z" fill="#28356A"/>
</svg>
