<svg width="50" height="50" viewBox="0 0 50 50" fill="none" xmlns="http://www.w3.org/2000/svg">
<rect width="50" height="50" rx="11" fill="#F5F4FF"/>
<path d="M30.4816 14.2588C30.6559 14.0916 30.9202 14.0752 31.1115 14.207L31.1887 14.2734L35.591 18.8613L35.6506 18.9365C35.7022 19.0166 35.7306 19.1104 35.7307 19.207V36.4375C35.7307 36.7136 35.5067 36.9374 35.2307 36.9375H18.9367C18.6606 36.9375 18.4367 36.7136 18.4367 36.4375V36.3818L18.4465 36.2812C18.4929 36.0532 18.6949 35.8818 18.9367 35.8818H34.675V19.3506L30.467 14.9648C30.2763 14.7657 30.2829 14.4499 30.4816 14.2588Z" fill="#909090" stroke="#1A1167" stroke-linejoin="round"/>
<mask id="path-3-outside-1_304_7947" maskUnits="userSpaceOnUse" x="17.8812" y="13.5625" width="19" height="24" fill="black">
<rect fill="white" x="17.8812" y="13.5625" width="19" height="24"/>
<path d="M30.7742 14.5625H18.8812V36.3813H35.175V19.1508L30.7734 14.5625"/>
</mask>
<path d="M30.7742 14.5625H18.8812V36.3813H35.175V19.1508L30.7734 14.5625" fill="#F4F4F4"/>
<path d="M18.8812 14.5625V13.5625C18.3289 13.5625 17.8812 14.0102 17.8812 14.5625H18.8812ZM18.8812 36.3813H17.8812C17.8812 36.9335 18.3289 37.3813 18.8812 37.3813V36.3813ZM35.175 36.3813V37.3813C35.7273 37.3813 36.175 36.9335 36.175 36.3813H35.175ZM35.175 19.1508H36.175C36.175 18.8928 36.0752 18.6447 35.8966 18.4585L35.175 19.1508ZM30.7742 13.5625H18.8812V15.5625H30.7742V13.5625ZM17.8812 14.5625V36.3813H19.8812V14.5625H17.8812ZM18.8812 37.3813H35.175V35.3813H18.8812V37.3813ZM36.175 36.3813V19.1508H34.175V36.3813H36.175ZM35.8966 18.4585L31.4951 13.8702L30.0518 15.2548L34.4533 19.8431L35.8966 18.4585Z" fill="#1A1167" mask="url(#path-3-outside-1_304_7947)"/>
<path d="M29.4727 15.2344L29.5732 15.2441C29.8012 15.2907 29.9727 15.4927 29.9727 15.7344V21.0684C29.9724 21.3443 29.7487 21.5684 29.4727 21.5684H13.7695C13.4935 21.5684 13.2697 21.3443 13.2695 21.0684V15.7344L13.2793 15.6338C13.3258 15.4058 13.5278 15.2344 13.7695 15.2344H29.4727Z" fill="#7A7B7C" stroke="#1A1167" stroke-linejoin="round"/>
<path d="M29.5566 15.1396L29.6572 15.1494C29.885 15.1961 30.0566 15.3981 30.0566 15.6396V20.9775C30.0564 21.2534 29.8325 21.4773 29.5566 21.4775H13.8711C13.5951 21.4775 13.3713 21.2535 13.3711 20.9775V15.6396L13.3809 15.5391C13.4274 15.3111 13.6294 15.1396 13.8711 15.1396H29.5566Z" fill="#DD2025" stroke="#1A1167" stroke-linejoin="round"/>
<mask id="path-7-outside-2_304_7947" maskUnits="userSpaceOnUse" x="17.0508" y="15.542" width="5" height="6" fill="black">
<rect fill="white" x="17.0508" y="15.542" width="5" height="6"/>
<path d="M19.0719 16.542H18.0508V20.292H18.8539V19.0271L19.0313 19.0373C19.2036 19.0343 19.3743 19.0035 19.5367 18.9459C19.6791 18.8969 19.8102 18.8196 19.9219 18.7186C20.0355 18.6223 20.1252 18.5009 20.1836 18.3639C20.2619 18.1361 20.2899 17.8941 20.2656 17.6545C20.2607 17.4833 20.2307 17.3138 20.1766 17.1514C20.1272 17.0341 20.0541 16.9284 19.9617 16.841C19.8692 16.7535 19.7597 16.6863 19.6398 16.6436C19.5363 16.6061 19.4292 16.5788 19.3203 16.5623C19.2378 16.5496 19.1545 16.5428 19.0711 16.542H19.0719ZM18.9234 18.3342H18.8539V17.1779H19.0047C19.0712 17.1731 19.138 17.1833 19.2001 17.2078C19.2621 17.2323 19.3179 17.2704 19.3633 17.3193C19.4573 17.4451 19.5075 17.5982 19.5063 17.7553C19.5063 17.9475 19.5063 18.1217 19.3328 18.2443C19.2079 18.3131 19.0656 18.344 18.9234 18.3334"/>
</mask>
<path d="M19.0719 16.542H18.0508V20.292H18.8539V19.0271L19.0313 19.0373C19.2036 19.0343 19.3743 19.0035 19.5367 18.9459C19.6791 18.8969 19.8102 18.8196 19.9219 18.7186C20.0355 18.6223 20.1252 18.5009 20.1836 18.3639C20.2619 18.1361 20.2899 17.8941 20.2656 17.6545C20.2607 17.4833 20.2307 17.3138 20.1766 17.1514C20.1272 17.0341 20.0541 16.9284 19.9617 16.841C19.8692 16.7535 19.7597 16.6863 19.6398 16.6436C19.5363 16.6061 19.4292 16.5788 19.3203 16.5623C19.2378 16.5496 19.1545 16.5428 19.0711 16.542H19.0719ZM18.9234 18.3342H18.8539V17.1779H19.0047C19.0712 17.1731 19.138 17.1833 19.2001 17.2078C19.2621 17.2323 19.3179 17.2704 19.3633 17.3193C19.4573 17.4451 19.5075 17.5982 19.5063 17.7553C19.5063 17.9475 19.5063 18.1217 19.3328 18.2443C19.2079 18.3131 19.0656 18.344 18.9234 18.3334" fill="#464648"/>
<path d="M19.0719 17.542C19.6242 17.542 20.0719 17.0943 20.0719 16.542C20.0719 15.9897 19.6242 15.542 19.0719 15.542V17.542ZM18.0508 16.542V15.542C17.4985 15.542 17.0508 15.9897 17.0508 16.542H18.0508ZM18.0508 20.292H17.0508C17.0508 20.8443 17.4985 21.292 18.0508 21.292V20.292ZM18.8539 20.292V21.292C19.4062 21.292 19.8539 20.8443 19.8539 20.292H18.8539ZM18.8539 19.0271L18.9111 18.0288C18.6364 18.0131 18.3674 18.1112 18.1673 18.3001C17.9673 18.489 17.8539 18.752 17.8539 19.0271H18.8539ZM19.0313 19.0373L18.9741 20.0357C18.9988 20.0371 19.0237 20.0376 19.0485 20.0372L19.0313 19.0373ZM19.5367 18.9459L19.2115 18.0002L19.2027 18.0033L19.5367 18.9459ZM19.9219 18.7186L19.2757 17.9553C19.2674 17.9624 19.2592 17.9695 19.2511 17.9768L19.9219 18.7186ZM20.1836 18.3639L21.1034 18.7562C21.1128 18.7342 21.1214 18.7118 21.1292 18.6892L20.1836 18.3639ZM20.2656 17.6545L19.266 17.683C19.2667 17.7072 19.2683 17.7314 19.2707 17.7554L20.2656 17.6545ZM20.1766 17.1514L21.1252 16.835C21.1172 16.8109 21.1082 16.7871 21.0984 16.7637L20.1766 17.1514ZM19.6398 16.6436L19.2994 17.5838L19.3037 17.5854L19.6398 16.6436ZM19.3203 16.5623L19.1678 17.5506L19.1702 17.551L19.3203 16.5623ZM19.0711 16.542V15.542C18.5207 15.542 18.0737 15.9868 18.0711 16.5372C18.0685 17.0876 18.5111 17.5367 19.0615 17.5419L19.0711 16.542ZM18.8539 18.3342H17.8539C17.8539 18.8865 18.3016 19.3342 18.8539 19.3342V18.3342ZM18.8539 17.1779V16.1779C18.3016 16.1779 17.8539 16.6256 17.8539 17.1779H18.8539ZM19.0047 17.1779V18.1779C19.0287 18.1779 19.0527 18.1771 19.0766 18.1753L19.0047 17.1779ZM19.3633 17.3193L20.1643 16.7207C20.1432 16.6925 20.1206 16.6653 20.0966 16.6395L19.3633 17.3193ZM19.5063 17.7553L18.5063 17.7473V17.7553H19.5063ZM19.3328 18.2443L19.8147 19.1205C19.8477 19.1024 19.8795 19.0825 19.9102 19.0608L19.3328 18.2443ZM19.0719 15.542H18.0508V17.542H19.0719V15.542ZM17.0508 16.542V20.292H19.0508V16.542H17.0508ZM18.0508 21.292H18.8539V19.292H18.0508V21.292ZM19.8539 20.292V19.0271H17.8539V20.292H19.8539ZM18.7967 20.0255L18.9741 20.0357L19.0884 18.0389L18.9111 18.0288L18.7967 20.0255ZM19.0485 20.0372C19.3288 20.0323 19.6065 19.9821 19.8708 19.8885L19.2027 18.0033C19.142 18.0248 19.0783 18.0363 19.014 18.0375L19.0485 20.0372ZM19.862 19.8915C20.1321 19.7986 20.3807 19.6519 20.5926 19.4603L19.2511 17.9768C19.2396 17.9873 19.2261 17.9952 19.2115 18.0003L19.862 19.8915ZM20.568 19.4818C20.8006 19.2849 20.9839 19.0364 21.1034 18.7562L19.2638 17.9716C19.2664 17.9653 19.2705 17.9597 19.2757 17.9553L20.568 19.4818ZM21.1292 18.6892C21.2546 18.3246 21.2994 17.9371 21.2605 17.5535L19.2707 17.7554C19.2804 17.8511 19.2693 17.9476 19.238 18.0385L21.1292 18.6892ZM21.2652 17.626C21.2575 17.3569 21.2104 17.0904 21.1252 16.835L19.2279 17.4677C19.2511 17.5372 19.2639 17.6098 19.266 17.683L21.2652 17.626ZM21.0984 16.7637C20.9952 16.5185 20.8422 16.2974 20.6489 16.1146L19.2744 17.5674C19.2659 17.5594 19.2593 17.5497 19.2548 17.5391L21.0984 16.7637ZM20.6489 16.1146C20.4557 15.9317 20.2265 15.7911 19.976 15.7017L19.3037 17.5854C19.2928 17.5815 19.2828 17.5753 19.2744 17.5674L20.6489 16.1146ZM19.9803 15.7033C19.815 15.6434 19.6442 15.6 19.4704 15.5736L19.1702 17.551C19.2143 17.5577 19.2576 17.5687 19.2994 17.5838L19.9803 15.7033ZM19.4728 15.574C19.343 15.554 19.212 15.5433 19.0807 15.542L19.0615 17.5419C19.0971 17.5423 19.1326 17.5452 19.1678 17.5506L19.4728 15.574ZM19.0711 17.542H19.0719V15.542H19.0711V17.542ZM18.9234 17.3342H18.8539V19.3342H18.9234V17.3342ZM19.8539 18.3342V17.1779H17.8539V18.3342H19.8539ZM18.8539 18.1779H19.0047V16.1779H18.8539V18.1779ZM19.0766 18.1753C18.9937 18.1813 18.9105 18.1686 18.8332 18.1381L19.5669 16.2775C19.3655 16.1981 19.1487 16.1649 18.9328 16.1805L19.0766 18.1753ZM18.8332 18.1381C18.7559 18.1076 18.6864 18.0601 18.6299 17.9992L20.0966 16.6395C19.9494 16.4807 19.7684 16.357 19.5669 16.2775L18.8332 18.1381ZM18.5622 17.9179C18.5254 17.8687 18.5058 17.8088 18.5063 17.7473L20.5062 17.7632C20.5092 17.3877 20.3891 17.0216 20.1643 16.7207L18.5622 17.9179ZM18.5063 17.7553C18.5063 17.8093 18.5059 17.8256 18.5053 17.8358C18.5049 17.8429 18.5057 17.8164 18.5171 17.7729C18.5295 17.7254 18.5541 17.6589 18.601 17.5885C18.6488 17.5169 18.7046 17.4638 18.7554 17.4279L19.9102 19.0608C20.5604 18.601 20.5063 17.8706 20.5063 17.7553H18.5063ZM18.8509 17.3681C18.8957 17.3435 18.9468 17.3324 18.9978 17.3362L18.8491 19.3306C19.1845 19.3556 19.52 19.2827 19.8147 19.1205L18.8509 17.3681Z" fill="#1A1167" mask="url(#path-7-outside-2_304_7947)"/>
<mask id="path-9-outside-3_304_7947" maskUnits="userSpaceOnUse" x="19.7656" y="15.5303" width="5" height="6" fill="black">
<rect fill="white" x="19.7656" y="15.5303" width="5" height="6"/>
<path d="M21.7914 16.5319C21.7047 16.5319 21.6203 16.5382 21.5609 16.5405L21.375 16.5452H20.7656V20.2952H21.4828C21.7569 20.3027 22.0298 20.2563 22.2859 20.1585C22.4921 20.0767 22.6747 19.9449 22.8172 19.7749C22.9558 19.6034 23.0552 19.4037 23.1086 19.1898C23.17 18.9475 23.1999 18.6983 23.1977 18.4484C23.2128 18.1532 23.19 17.8573 23.1297 17.5679C23.0725 17.3549 22.9654 17.1586 22.8172 16.9952C22.7009 16.8633 22.5586 16.7569 22.3992 16.6827C22.2623 16.6194 22.1183 16.5727 21.9703 16.5437C21.9115 16.5339 21.8518 16.5295 21.7922 16.5304L21.7914 16.5319ZM21.65 19.6062H21.5719V17.2124H21.582C21.7431 17.1939 21.9061 17.2229 22.0508 17.296C22.1568 17.3806 22.2431 17.4873 22.3039 17.6085C22.3695 17.7361 22.4073 17.8762 22.4148 18.0194C22.4219 18.1913 22.4148 18.3319 22.4148 18.4484C22.418 18.5824 22.4094 18.7166 22.3891 18.8491C22.365 18.9852 22.3205 19.1169 22.257 19.2398C22.1852 19.3539 22.0882 19.4502 21.9734 19.521C21.877 19.5834 21.7629 19.6124 21.6484 19.6038"/>
</mask>
<path d="M21.7914 16.5319C21.7047 16.5319 21.6203 16.5382 21.5609 16.5405L21.375 16.5452H20.7656V20.2952H21.4828C21.7569 20.3027 22.0298 20.2563 22.2859 20.1585C22.4921 20.0767 22.6747 19.9449 22.8172 19.7749C22.9558 19.6034 23.0552 19.4037 23.1086 19.1898C23.17 18.9475 23.1999 18.6983 23.1977 18.4484C23.2128 18.1532 23.19 17.8573 23.1297 17.5679C23.0725 17.3549 22.9654 17.1586 22.8172 16.9952C22.7009 16.8633 22.5586 16.7569 22.3992 16.6827C22.2623 16.6194 22.1183 16.5727 21.9703 16.5437C21.9115 16.5339 21.8518 16.5295 21.7922 16.5304L21.7914 16.5319ZM21.65 19.6062H21.5719V17.2124H21.582C21.7431 17.1939 21.9061 17.2229 22.0508 17.296C22.1568 17.3806 22.2431 17.4873 22.3039 17.6085C22.3695 17.7361 22.4073 17.8762 22.4148 18.0194C22.4219 18.1913 22.4148 18.3319 22.4148 18.4484C22.418 18.5824 22.4094 18.7166 22.3891 18.8491C22.365 18.9852 22.3205 19.1169 22.257 19.2398C22.1852 19.3539 22.0882 19.4502 21.9734 19.521C21.877 19.5834 21.7629 19.6124 21.6484 19.6038" fill="#464648"/>
<path d="M21.7914 16.5319V17.5319C22.1701 17.5319 22.5163 17.318 22.6857 16.9793L21.7914 16.5319ZM21.5609 16.5405L21.5861 17.5402C21.5909 17.5401 21.5956 17.5399 21.6004 17.5398L21.5609 16.5405ZM21.375 16.5452V17.5452C21.3834 17.5452 21.3918 17.5451 21.4002 17.5449L21.375 16.5452ZM20.7656 16.5452V15.5452C20.2133 15.5452 19.7656 15.9929 19.7656 16.5452H20.7656ZM20.7656 20.2952H19.7656C19.7656 20.8475 20.2133 21.2952 20.7656 21.2952V20.2952ZM21.4828 20.2952L21.5102 19.2956C21.5011 19.2954 21.4919 19.2952 21.4828 19.2952V20.2952ZM22.2859 20.1585L22.6426 21.0928L22.6546 21.0881L22.2859 20.1585ZM22.8172 19.7749L23.5835 20.4173C23.5874 20.4127 23.5913 20.408 23.5951 20.4033L22.8172 19.7749ZM23.1086 19.1898L22.1392 18.9442L22.1384 18.9476L23.1086 19.1898ZM23.1977 18.4484L22.199 18.3971C22.1979 18.4172 22.1975 18.4373 22.1977 18.4573L23.1977 18.4484ZM23.1297 17.5679L24.1087 17.3639C24.1048 17.3453 24.1004 17.3269 24.0955 17.3085L23.1297 17.5679ZM22.8172 16.9952L22.067 17.6564C22.0701 17.66 22.0733 17.6636 22.0765 17.6671L22.8172 16.9952ZM22.3992 16.6827L22.8212 15.7761L22.8192 15.7752L22.3992 16.6827ZM21.9703 16.5437L22.1628 15.5624C22.153 15.5604 22.1431 15.5587 22.1333 15.557L21.9703 16.5437ZM21.7922 16.5304L21.7773 15.5305C21.404 15.536 21.0649 15.7491 20.8978 16.083L21.7922 16.5304ZM21.5719 19.6062H20.5719C20.5719 20.1584 21.0196 20.6062 21.5719 20.6062V19.6062ZM21.5719 17.2124V16.2124C21.0196 16.2124 20.5719 16.6601 20.5719 17.2124H21.5719ZM21.582 17.2124V18.2124C21.6202 18.2124 21.6584 18.2102 21.6963 18.2059L21.582 17.2124ZM22.0508 17.296L22.6748 16.5146C22.621 16.4716 22.5629 16.4343 22.5014 16.4033L22.0508 17.296ZM22.3039 17.6085L21.4099 18.0566L21.4145 18.0657L22.3039 17.6085ZM22.4148 18.0194L23.4141 17.9786L23.4135 17.9669L22.4148 18.0194ZM22.4148 18.4484H21.4148C21.4148 18.4563 21.4149 18.4642 21.4151 18.4721L22.4148 18.4484ZM22.3891 18.8491L23.3738 19.0233C23.3751 19.0158 23.3763 19.0083 23.3775 19.0007L22.3891 18.8491ZM22.257 19.2398L23.1036 19.7721C23.1186 19.7482 23.1326 19.7237 23.1455 19.6987L22.257 19.2398ZM21.9734 19.521L21.4481 18.6701C21.4422 18.6738 21.4362 18.6775 21.4303 18.6813L21.9734 19.521ZM21.7914 15.5319C21.6804 15.5319 21.5322 15.5409 21.5215 15.5413L21.6004 17.5398C21.6222 17.5389 21.6443 17.5378 21.6617 17.5369C21.6809 17.5359 21.6964 17.535 21.713 17.5343C21.7458 17.5327 21.7708 17.5319 21.7914 17.5319V15.5319ZM21.5357 15.5409L21.3498 15.5455L21.4002 17.5449L21.5861 17.5402L21.5357 15.5409ZM21.375 15.5452H20.7656V17.5452H21.375V15.5452ZM19.7656 16.5452V20.2952H21.7656V16.5452H19.7656ZM20.7656 21.2952H21.4828V19.2952H20.7656V21.2952ZM21.4554 21.2949C21.8605 21.306 22.2639 21.2373 22.6425 21.0928L21.9293 19.2243C21.7956 19.2753 21.6532 19.2995 21.5102 19.2956L21.4554 21.2949ZM22.6546 21.0881C23.0152 20.9451 23.3344 20.7146 23.5835 20.4173L22.0508 19.1325C22.015 19.1752 21.9691 19.2084 21.9172 19.229L22.6546 21.0881ZM23.5951 20.4033C23.8251 20.1186 23.9902 19.7871 24.0788 19.4319L22.1384 18.9476C22.1202 19.0203 22.0864 19.0882 22.0393 19.1465L23.5951 20.4033ZM24.078 19.4353C24.1604 19.1098 24.2006 18.7751 24.1976 18.4394L22.1977 18.4573C22.1992 18.6215 22.1795 18.7851 22.1392 18.9442L24.078 19.4353ZM24.1963 18.4996C24.2159 18.1189 24.1864 17.7372 24.1087 17.3639L22.1507 17.7718C22.1935 17.9773 22.2097 18.1875 22.199 18.3971L24.1963 18.4996ZM24.0955 17.3085C23.9971 16.9421 23.8128 16.6044 23.5579 16.3234L22.0765 17.6671C22.1179 17.7128 22.1479 17.7677 22.1639 17.8272L24.0955 17.3085ZM23.5674 16.334C23.3598 16.0985 23.1058 15.9086 22.8212 15.7761L21.9772 17.5893C22.0115 17.6053 22.042 17.6281 22.067 17.6564L23.5674 16.334ZM22.8192 15.7752C22.6097 15.6782 22.3893 15.6068 22.1628 15.5624L21.7779 17.525C21.8474 17.5386 21.915 17.5605 21.9793 17.5903L22.8192 15.7752ZM22.1333 15.557C22.0157 15.5376 21.8965 15.5287 21.7773 15.5305L21.8071 17.5303L21.8073 17.5303L22.1333 15.557ZM20.8978 16.083L20.8971 16.0846L22.6857 16.9793L22.6865 16.9778L20.8978 16.083ZM21.65 18.6062H21.5719V20.6062H21.65V18.6062ZM22.5719 19.6062V17.2124H20.5719V19.6062H22.5719ZM21.5719 18.2124H21.582V16.2124H21.5719V18.2124ZM21.6963 18.2059C21.6633 18.2097 21.6298 18.2037 21.6001 18.1887L22.5014 16.4033C22.1823 16.2422 21.8229 16.1781 21.4677 16.219L21.6963 18.2059ZM21.4268 18.0774C21.4197 18.0718 21.414 18.0647 21.4099 18.0566L23.1979 17.1604C23.0723 16.9098 22.8938 16.6895 22.6748 16.5146L21.4268 18.0774ZM21.4145 18.0657C21.4155 18.0676 21.4161 18.0698 21.4162 18.072L23.4135 17.9669C23.3985 17.6826 23.3235 17.4046 23.1933 17.1514L21.4145 18.0657ZM21.4157 18.0603C21.4218 18.2099 21.4148 18.2668 21.4148 18.4484H23.4148C23.4148 18.3971 23.4219 18.1727 23.414 17.9786L21.4157 18.0603ZM21.4151 18.4721C21.4169 18.5475 21.4121 18.6229 21.4006 18.6975L23.3775 19.0007C23.4067 18.8102 23.4191 18.6174 23.4146 18.4246L21.4151 18.4721ZM21.4044 18.6749C21.3978 18.7118 21.3858 18.7475 21.3686 18.7808L23.1455 19.6987C23.2552 19.4864 23.3321 19.2587 23.3738 19.0233L21.4044 18.6749ZM21.4105 18.7074C21.42 18.6923 21.4329 18.6795 21.4481 18.6701L22.4987 20.3719C22.7435 20.2208 22.9504 20.0156 23.1036 19.7721L21.4105 18.7074ZM21.4303 18.6813C21.5173 18.6251 21.6202 18.5989 21.7235 18.6066L21.5734 20.601C21.9056 20.626 22.2368 20.5416 22.5165 20.3607L21.4303 18.6813Z" fill="#1A1167" mask="url(#path-9-outside-3_304_7947)"/>
<mask id="path-11-outside-4_304_7947" maskUnits="userSpaceOnUse" x="22.7188" y="15.5449" width="4" height="6" fill="black">
<rect fill="white" x="22.7188" y="15.5449" width="4" height="6"/>
<path d="M25.6172 16.5449H23.7188V20.2949H24.5219V18.8074H25.5375V18.1105H24.5219V17.2418H25.6156V16.5449"/>
</mask>
<path d="M25.6172 16.5449H23.7188V20.2949H24.5219V18.8074H25.5375V18.1105H24.5219V17.2418H25.6156V16.5449" fill="#464648"/>
<path d="M23.7188 16.5449V15.5449C23.1665 15.5449 22.7188 15.9926 22.7188 16.5449H23.7188ZM23.7188 20.2949H22.7188C22.7188 20.8472 23.1665 21.2949 23.7188 21.2949V20.2949ZM24.5219 20.2949V21.2949C25.0742 21.2949 25.5219 20.8472 25.5219 20.2949H24.5219ZM24.5219 18.8074V17.8074C23.9696 17.8074 23.5219 18.2551 23.5219 18.8074H24.5219ZM25.5375 18.8074V19.8074C26.0898 19.8074 26.5375 19.3597 26.5375 18.8074H25.5375ZM25.5375 18.1105H26.5375C26.5375 17.5583 26.0898 17.1105 25.5375 17.1105V18.1105ZM24.5219 18.1105H23.5219C23.5219 18.6628 23.9696 19.1105 24.5219 19.1105V18.1105ZM24.5219 17.2418V16.2418C23.9696 16.2418 23.5219 16.6895 23.5219 17.2418H24.5219ZM25.6156 17.2418V18.2418C26.1679 18.2418 26.6156 17.7941 26.6156 17.2418H25.6156ZM25.6172 15.5449H23.7188V17.5449H25.6172V15.5449ZM22.7188 16.5449V20.2949H24.7188V16.5449H22.7188ZM23.7188 21.2949H24.5219V19.2949H23.7188V21.2949ZM25.5219 20.2949V18.8074H23.5219V20.2949H25.5219ZM24.5219 19.8074H25.5375V17.8074H24.5219V19.8074ZM26.5375 18.8074V18.1105H24.5375V18.8074H26.5375ZM25.5375 17.1105H24.5219V19.1105H25.5375V17.1105ZM25.5219 18.1105V17.2418H23.5219V18.1105H25.5219ZM24.5219 18.2418H25.6156V16.2418H24.5219V18.2418ZM26.6156 17.2418V16.5449H24.6156V17.2418H26.6156Z" fill="#1A1167" mask="url(#path-11-outside-4_304_7947)"/>
<mask id="path-13-outside-5_304_7947" maskUnits="userSpaceOnUse" x="21.0863" y="21.5898" width="13" height="12" fill="black">
<rect fill="white" x="21.0863" y="21.5898" width="13" height="12"/>
<path d="M29.0164 28.8243C29.0164 28.8243 31.507 28.3727 31.507 29.2235C31.507 30.0743 29.9641 29.7282 29.0164 28.8243ZM27.175 28.8891C26.7793 28.9766 26.3937 29.1046 26.0242 29.2712L26.3367 28.5681C26.6492 27.8649 26.9734 26.9063 26.9734 26.9063C27.3463 27.5339 27.7802 28.1232 28.2688 28.6657C27.9003 28.7206 27.5352 28.7958 27.175 28.8907V28.8891ZM26.1891 23.811C26.1891 23.0696 26.4289 22.8673 26.6156 22.8673C26.8023 22.8673 27.0125 22.9571 27.0195 23.6009C26.9587 24.2482 26.8232 24.8863 26.6156 25.5024C26.3313 24.9851 26.1842 24.4036 26.1883 23.8134L26.1891 23.811ZM22.557 32.0266C21.793 31.5696 24.1594 30.1626 24.5883 30.1173C24.5859 30.1181 23.357 32.5048 22.557 32.0266ZM32.2344 29.3243C32.2266 29.2462 32.1563 28.3813 30.6172 28.4181C29.9757 28.4077 29.3345 28.4529 28.7008 28.5532C28.0869 27.9348 27.5583 27.2372 27.1289 26.479C27.3994 25.6973 27.5632 24.8826 27.6156 24.0571C27.593 23.1196 27.3688 22.5821 26.65 22.5899C25.9313 22.5977 25.8266 23.2266 25.9211 24.1626C26.0137 24.7915 26.1884 25.4056 26.4406 25.9891C26.4406 25.9891 26.1086 27.0227 25.6695 28.0509C25.2305 29.079 24.9305 29.6181 24.9305 29.6181C24.167 29.8666 23.4482 30.2359 22.8016 30.7118C22.1578 31.311 21.8961 31.7712 22.2352 32.2313C22.5273 32.6282 23.55 32.7181 24.4641 31.5204C24.9497 30.9018 25.3934 30.2514 25.7922 29.5735C25.7922 29.5735 27.1859 29.1915 27.6195 29.0868C28.0531 28.9821 28.5773 28.8993 28.5773 28.8993C28.5773 28.8993 29.85 30.1798 31.0773 30.1345C32.3047 30.0891 32.2453 29.4009 32.2375 29.3259"/>
</mask>
<path d="M29.0164 28.8243C29.0164 28.8243 31.507 28.3727 31.507 29.2235C31.507 30.0743 29.9641 29.7282 29.0164 28.8243ZM27.175 28.8891C26.7793 28.9766 26.3937 29.1046 26.0242 29.2712L26.3367 28.5681C26.6492 27.8649 26.9734 26.9063 26.9734 26.9063C27.3463 27.5339 27.7802 28.1232 28.2688 28.6657C27.9003 28.7206 27.5352 28.7958 27.175 28.8907V28.8891ZM26.1891 23.811C26.1891 23.0696 26.4289 22.8673 26.6156 22.8673C26.8023 22.8673 27.0125 22.9571 27.0195 23.6009C26.9587 24.2482 26.8232 24.8863 26.6156 25.5024C26.3313 24.9851 26.1842 24.4036 26.1883 23.8134L26.1891 23.811ZM22.557 32.0266C21.793 31.5696 24.1594 30.1626 24.5883 30.1173C24.5859 30.1181 23.357 32.5048 22.557 32.0266ZM32.2344 29.3243C32.2266 29.2462 32.1563 28.3813 30.6172 28.4181C29.9757 28.4077 29.3345 28.4529 28.7008 28.5532C28.0869 27.9348 27.5583 27.2372 27.1289 26.479C27.3994 25.6973 27.5632 24.8826 27.6156 24.0571C27.593 23.1196 27.3688 22.5821 26.65 22.5899C25.9313 22.5977 25.8266 23.2266 25.9211 24.1626C26.0137 24.7915 26.1884 25.4056 26.4406 25.9891C26.4406 25.9891 26.1086 27.0227 25.6695 28.0509C25.2305 29.079 24.9305 29.6181 24.9305 29.6181C24.167 29.8666 23.4482 30.2359 22.8016 30.7118C22.1578 31.311 21.8961 31.7712 22.2352 32.2313C22.5273 32.6282 23.55 32.7181 24.4641 31.5204C24.9497 30.9018 25.3934 30.2514 25.7922 29.5735C25.7922 29.5735 27.1859 29.1915 27.6195 29.0868C28.0531 28.9821 28.5773 28.8993 28.5773 28.8993C28.5773 28.8993 29.85 30.1798 31.0773 30.1345C32.3047 30.0891 32.2453 29.4009 32.2375 29.3259" fill="#DD2025"/>
<path d="M29.0164 28.8243L28.838 27.8403C28.4678 27.9075 28.1665 28.1768 28.0585 28.5372C27.9505 28.8976 28.0539 29.2882 28.3262 29.5479L29.0164 28.8243ZM27.175 28.8891H28.175C28.175 28.586 28.0375 28.2993 27.8012 28.1095C27.5649 27.9197 27.2552 27.8473 26.9592 27.9127L27.175 28.8891ZM26.0242 29.2712L25.1104 28.865C24.942 29.244 25.025 29.6877 25.319 29.9802C25.6131 30.2727 26.0572 30.3533 26.4353 30.1828L26.0242 29.2712ZM26.3367 28.5681L25.4229 28.1619V28.1619L26.3367 28.5681ZM26.9734 26.9063L27.8331 26.3955C27.6337 26.0598 27.257 25.8709 26.8686 25.9118C26.4803 25.9528 26.1513 26.216 26.0262 26.5859L26.9734 26.9063ZM28.2688 28.6657L28.4162 29.6548C28.7805 29.6005 29.0854 29.3503 29.2099 29.0037C29.3344 28.6571 29.2583 28.2702 29.0118 27.9965L28.2688 28.6657ZM27.175 28.8907H26.175C26.175 29.2009 26.3189 29.4935 26.5646 29.6828C26.8103 29.8721 27.13 29.9367 27.4299 29.8577L27.175 28.8907ZM26.1891 23.811L27.1376 24.1277C27.1717 24.0256 27.1891 23.9187 27.1891 23.811H26.1891ZM27.0195 23.6009L28.0151 23.6944C28.0184 23.6597 28.0199 23.6248 28.0195 23.5899L27.0195 23.6009ZM26.6156 25.5024L25.7392 25.984C25.9304 26.3318 26.309 26.5337 26.7043 26.4985C27.0996 26.4633 27.4366 26.1977 27.5633 25.8216L26.6156 25.5024ZM26.1883 23.8134L25.2398 23.4967C25.2064 23.5966 25.189 23.7012 25.1883 23.8065L26.1883 23.8134ZM24.5883 30.1173L24.9045 31.066C25.3888 30.9045 25.6737 30.4043 25.5656 29.9054C25.4574 29.4065 24.9909 29.0692 24.4832 29.1228L24.5883 30.1173ZM30.6172 28.4181L30.6011 29.4179C30.6144 29.4181 30.6277 29.4181 30.641 29.4178L30.6172 28.4181ZM28.7008 28.5532L27.9911 29.2577C28.2174 29.4858 28.5397 29.5911 28.8571 29.5409L28.7008 28.5532ZM27.1289 26.479L26.1839 26.1519C26.09 26.4233 26.1173 26.7219 26.2588 26.9718L27.1289 26.479ZM27.6156 24.0571L28.6136 24.1206C28.6155 24.0914 28.616 24.0622 28.6153 24.033L27.6156 24.0571ZM25.9211 24.1626L24.9262 24.2631C24.9277 24.2782 24.9296 24.2932 24.9318 24.3082L25.9211 24.1626ZM26.4406 25.9891L25.5227 26.386C25.7109 26.8212 26.1789 27.0645 26.6432 26.9684C27.1076 26.8723 27.4406 26.4633 27.4406 25.9891H26.4406ZM24.9305 29.6181L25.24 30.5689C25.48 30.4908 25.6816 30.3249 25.8043 30.1043L24.9305 29.6181ZM22.8016 30.7118L22.2088 29.9064C22.1779 29.9292 22.1483 29.9537 22.1202 29.9798L22.8016 30.7118ZM22.2352 32.2313L23.0405 31.6385L23.0402 31.6381L22.2352 32.2313ZM24.4641 31.5204L23.6775 30.9028L23.6691 30.9137L24.4641 31.5204ZM25.7922 29.5735L26.6541 30.0805C26.836 29.7714 26.8383 29.3884 26.6602 29.077C26.4821 28.7657 26.1509 28.5735 25.7922 28.5735V29.5735ZM28.5773 28.8993L29.2866 28.1944C29.0603 27.9667 28.7384 27.8615 28.4213 27.9116L28.5773 28.8993ZM29.0164 28.8243C29.1948 29.8083 29.1947 29.8083 29.1945 29.8083C29.1945 29.8083 29.1944 29.8083 29.1943 29.8084C29.1941 29.8084 29.194 29.8084 29.194 29.8084C29.1938 29.8084 29.1939 29.8084 29.194 29.8084C29.1943 29.8083 29.1952 29.8082 29.1967 29.8079C29.1996 29.8074 29.2047 29.8065 29.2119 29.8053C29.2263 29.8029 29.2489 29.7991 29.2784 29.7945C29.3378 29.7852 29.4244 29.7724 29.529 29.7594C29.7419 29.7329 30.0125 29.7075 30.2722 29.7048C30.5538 29.7019 30.7308 29.7274 30.8036 29.7515C30.8364 29.7624 30.7714 29.7489 30.6879 29.6642C30.5802 29.555 30.507 29.3921 30.507 29.2235H32.507C32.507 28.8423 32.356 28.5074 32.1121 28.26C31.8924 28.0372 31.6328 27.9193 31.4322 27.8529C31.038 27.7224 30.5923 27.7013 30.2512 27.7049C29.8883 27.7087 29.5363 27.7431 29.2821 27.7747C29.1532 27.7907 29.0453 27.8066 28.9684 27.8186C28.9299 27.8247 28.899 27.8298 28.8769 27.8336C28.8658 27.8354 28.8569 27.837 28.8504 27.8381C28.8472 27.8387 28.8445 27.8392 28.8424 27.8396C28.8414 27.8397 28.8405 27.8399 28.8397 27.84C28.8394 27.8401 28.8391 27.8402 28.8388 27.8402C28.8386 27.8402 28.8384 27.8403 28.8384 27.8403C28.8382 27.8403 28.838 27.8403 29.0164 28.8243ZM30.507 29.2235C30.507 29.1761 30.5192 29.072 30.5918 28.9562C30.6654 28.8389 30.7627 28.771 30.8346 28.7381C30.9445 28.6877 30.961 28.7285 30.7988 28.6986C30.5021 28.6437 30.0523 28.4304 29.7066 28.1007L28.3262 29.5479C28.9281 30.1221 29.7237 30.5338 30.4354 30.6653C30.7774 30.7285 31.2389 30.7528 31.6677 30.5563C31.899 30.4503 32.1243 30.2769 32.286 30.0192C32.4467 29.763 32.507 29.4836 32.507 29.2235H30.507ZM26.9592 27.9127C26.4964 28.015 26.0453 28.1647 25.6132 28.3596L26.4353 30.1828C26.742 30.0445 27.0622 29.9382 27.3908 29.8656L26.9592 27.9127ZM26.938 29.6773L27.2505 28.9742L25.4229 28.1619L25.1104 28.865L26.938 29.6773ZM27.2505 28.9742C27.4203 28.5922 27.5884 28.1524 27.7111 27.8178C27.7732 27.6485 27.8252 27.5019 27.8618 27.3973C27.8801 27.3449 27.8946 27.303 27.9047 27.2738C27.9097 27.2592 27.9136 27.2478 27.9163 27.2398C27.9176 27.2358 27.9187 27.2327 27.9194 27.2306C27.9198 27.2295 27.9201 27.2286 27.9203 27.2279C27.9204 27.2276 27.9205 27.2274 27.9206 27.2272C27.9206 27.2271 27.9206 27.227 27.9207 27.2269C27.9207 27.2269 27.9207 27.2268 27.9207 27.2268C27.9207 27.2268 27.9207 27.2267 26.9734 26.9063C26.0262 26.5859 26.0262 26.5859 26.0262 26.5859C26.0262 26.5859 26.0262 26.5859 26.0262 26.5859C26.0262 26.5858 26.0262 26.5858 26.0262 26.5859C26.0262 26.5859 26.0261 26.586 26.0261 26.5861C26.026 26.5864 26.0258 26.5869 26.0256 26.5877C26.0251 26.5891 26.0243 26.5915 26.0232 26.5947C26.021 26.6012 26.0176 26.611 26.0131 26.624C26.0042 26.65 25.9909 26.6884 25.974 26.7369C25.94 26.8341 25.8914 26.971 25.8334 27.1292C25.7159 27.4497 25.5657 27.8407 25.4229 28.1619L27.2505 28.9742ZM26.1137 27.4171C26.5202 28.1012 26.9931 28.7436 27.5257 29.3349L29.0118 27.9965C28.5673 27.5029 28.1725 26.9666 27.8331 26.3955L26.1137 27.4171ZM28.1213 27.6766C27.7167 27.737 27.3157 27.8195 26.9201 27.9237L27.4299 29.8577C27.7547 29.7721 28.084 29.7043 28.4162 29.6548L28.1213 27.6766ZM28.175 28.8907V28.8891H26.175V28.8907H28.175ZM27.1891 23.811C27.1891 23.5248 27.2393 23.4907 27.1968 23.5638C27.1706 23.6088 27.1114 23.6888 27.0013 23.7578C26.889 23.8282 26.7546 23.8673 26.6156 23.8673V21.8673C26.1098 21.8673 25.6999 22.1593 25.4678 22.5585C25.2588 22.918 25.1891 23.3558 25.1891 23.811H27.1891ZM26.6156 23.8673C26.5863 23.8673 26.4965 23.8645 26.3842 23.8195C26.2596 23.7695 26.155 23.6866 26.0833 23.5905C26.0194 23.5047 26.0056 23.4409 26.007 23.4467C26.0084 23.4526 26.0184 23.5007 26.0196 23.6118L28.0195 23.5899C28.0152 23.2027 27.9558 22.7559 27.6866 22.3949C27.3529 21.9474 26.8899 21.8673 26.6156 21.8673V23.8673ZM26.0239 23.5073C25.9703 24.0778 25.8509 24.6402 25.6679 25.1832L27.5633 25.8216C27.7955 25.1324 27.9471 24.4186 28.0151 23.6944L26.0239 23.5073ZM27.492 25.0208C27.2899 24.6531 27.1854 24.2398 27.1883 23.8202L25.1883 23.8065C25.1831 24.5675 25.3727 25.3171 25.7392 25.984L27.492 25.0208ZM27.1368 24.13L27.1376 24.1277L25.2405 23.4943L25.2398 23.4967L27.1368 24.13ZM23.0704 31.1685C23.1899 31.24 23.3757 31.4254 23.4031 31.7235C23.4141 31.8428 23.3938 31.9347 23.3774 31.9864C23.3613 32.0372 23.3444 32.0643 23.3435 32.0658C23.3419 32.0684 23.3479 32.0585 23.3668 32.0361C23.3853 32.0142 23.4115 31.9859 23.4469 31.9516C23.5186 31.8821 23.6133 31.802 23.7274 31.716C23.9567 31.543 24.2251 31.3755 24.4564 31.251C24.5717 31.189 24.6664 31.1438 24.7331 31.1158C24.8303 31.0751 24.7972 31.1008 24.6933 31.1117L24.4832 29.1228C24.2721 29.1451 24.0713 29.2246 23.9599 29.2713C23.8181 29.3308 23.6635 29.4065 23.5086 29.4899C23.1994 29.6563 22.8436 29.8775 22.5232 30.1192C22.2281 30.3417 21.8637 30.6543 21.64 31.0179C21.5291 31.1983 21.3754 31.5143 21.4116 31.9069C21.4542 32.3697 21.7331 32.6991 22.0437 32.8848L23.0704 31.1685ZM24.2721 29.1686C24.0336 29.2852 23.802 29.4994 23.7718 29.5399C23.7599 29.557 23.7424 29.5838 23.7365 29.5933C23.7269 29.609 23.7198 29.6216 23.7182 29.6243C23.7134 29.6328 23.7096 29.6398 23.7088 29.6413C23.7062 29.6461 23.7037 29.6508 23.7026 29.6528C23.6992 29.6591 23.6969 29.6635 23.6924 29.6719C23.6843 29.687 23.6723 29.7092 23.6567 29.7376C23.6255 29.7945 23.5794 29.8765 23.5218 29.9739C23.4046 30.1719 23.2474 30.4201 23.0752 30.647C22.8917 30.8888 22.7401 31.0408 22.6452 31.106C22.532 31.1838 22.7618 30.984 23.07 31.1683L22.044 32.885C22.7523 33.3083 23.4357 32.9895 23.778 32.7542C24.1386 32.5064 24.4443 32.1513 24.6684 31.8561C24.9036 31.546 25.1041 31.2272 25.243 30.9924C25.3134 30.8734 25.37 30.7726 25.4095 30.7007C25.4293 30.6647 25.4448 30.636 25.4554 30.6163C25.4602 30.6073 25.465 30.5983 25.4664 30.5956C25.4678 30.593 25.4671 30.5943 25.4658 30.5967C25.4656 30.5971 25.4623 30.6032 25.4578 30.6111C25.4564 30.6136 25.4494 30.626 25.4399 30.6414C25.434 30.6509 25.4166 30.6776 25.4047 30.6947C25.3746 30.7352 25.143 30.9493 24.9045 31.066L24.2721 29.1686ZM33.2294 29.2248C33.2295 29.2258 33.2274 29.203 33.2242 29.1775C33.2209 29.1508 33.2162 29.1185 33.2095 29.0816C33.196 29.0081 33.1746 28.9177 33.1396 28.8168C33.0691 28.6137 32.9439 28.3691 32.724 28.1383C32.2623 27.6538 31.5513 27.3955 30.5933 27.4183L30.641 29.4178C31.2222 29.4039 31.3158 29.5597 31.276 29.5179C31.2671 29.5085 31.2571 29.4925 31.2501 29.4723C31.2468 29.4629 31.2442 29.4527 31.2421 29.4412C31.2397 29.4284 31.2384 29.4145 31.2393 29.4238L33.2294 29.2248ZM30.6333 27.4182C29.9341 27.4069 29.2352 27.4562 28.5445 27.5655L28.8571 29.5409C29.4338 29.4497 30.0173 29.4085 30.6011 29.4179L30.6333 27.4182ZM29.4105 27.8487C28.8593 27.2934 28.3846 26.667 27.9991 25.9862L26.2588 26.9718C26.732 27.8074 27.3146 28.5761 27.9911 29.2577L29.4105 27.8487ZM28.0739 26.806C28.3739 25.9393 28.5554 25.0359 28.6136 24.1206L26.6176 23.9937C26.5709 24.7293 26.425 25.4553 26.1839 26.1519L28.0739 26.806ZM28.6153 24.033C28.6033 23.5338 28.5413 22.943 28.2538 22.4586C28.0965 22.1937 27.8705 21.9578 27.5638 21.7976C27.2633 21.6407 26.9435 21.5867 26.6391 21.59L26.6609 23.5899C26.7159 23.5893 26.6936 23.5995 26.638 23.5705C26.5762 23.5382 26.5425 23.4938 26.5339 23.4794C26.5316 23.4755 26.5532 23.5117 26.5747 23.6223C26.5958 23.7309 26.6111 23.8803 26.6159 24.0813L28.6153 24.033ZM26.6391 21.59C26.3135 21.5935 25.9662 21.6695 25.6558 21.8814C25.3424 22.0953 25.1535 22.3885 25.0454 22.6741C24.851 23.1873 24.8781 23.7869 24.9262 24.2631L26.916 24.0621C26.895 23.8534 26.8881 23.6897 26.8932 23.5637C26.8957 23.5021 26.9008 23.4566 26.9063 23.4244C26.9119 23.3921 26.9167 23.38 26.9158 23.3823C26.9118 23.3928 26.878 23.4687 26.7834 23.5333C26.6918 23.5958 26.6271 23.5902 26.6609 23.5899L26.6391 21.59ZM24.9318 24.3082C25.0371 25.0237 25.2358 25.7222 25.5227 26.386L27.3585 25.5923C27.1409 25.089 26.9903 24.5594 26.9104 24.0169L24.9318 24.3082ZM26.4406 25.9891C25.4885 25.6833 25.4886 25.6833 25.4886 25.6832C25.4886 25.6832 25.4886 25.6832 25.4886 25.6832C25.4886 25.6831 25.4886 25.6831 25.4886 25.6831C25.4886 25.6831 25.4886 25.6832 25.4885 25.6833C25.4885 25.6836 25.4883 25.6841 25.488 25.6849C25.4876 25.6864 25.4868 25.6888 25.4857 25.6922C25.4834 25.699 25.48 25.7096 25.4754 25.7237C25.4661 25.7518 25.4522 25.7939 25.434 25.848C25.3977 25.9561 25.3444 26.1117 25.2778 26.2988C25.1439 26.6745 24.9586 27.1693 24.7499 27.6581L26.5892 28.4436C26.8195 27.9043 27.0198 27.3683 27.1617 26.9702C27.2329 26.7703 27.2901 26.6032 27.3297 26.4855C27.3495 26.4265 27.365 26.3799 27.3756 26.3475C27.3809 26.3312 27.3851 26.3186 27.3879 26.3098C27.3894 26.3054 27.3905 26.3019 27.3913 26.2994C27.3917 26.2982 27.392 26.2972 27.3922 26.2965C27.3924 26.2961 27.3925 26.2958 27.3925 26.2955C27.3926 26.2954 27.3926 26.2953 27.3926 26.2952C27.3927 26.2952 27.3927 26.2951 27.3927 26.2951C27.3927 26.295 27.3927 26.295 26.4406 25.9891ZM24.7499 27.6581C24.5379 28.1546 24.3608 28.5298 24.2385 28.7776C24.1774 28.9015 24.1301 28.9934 24.0989 29.0527C24.0833 29.0824 24.0718 29.1038 24.0647 29.1171C24.0611 29.1237 24.0586 29.1282 24.0573 29.1307C24.0566 29.1319 24.0562 29.1326 24.0561 29.1328C24.0561 29.1329 24.0561 29.1328 24.0562 29.1327C24.0562 29.1326 24.0563 29.1325 24.0564 29.1323C24.0564 29.1322 24.0565 29.1322 24.0565 29.1321C24.0565 29.132 24.0566 29.1319 24.0566 29.1319C24.0566 29.1318 24.0567 29.1318 24.9305 29.6181C25.8043 30.1043 25.8043 30.1043 25.8044 30.1042C25.8044 30.1041 25.8044 30.1041 25.8045 30.104C25.8045 30.1039 25.8046 30.1037 25.8047 30.1036C25.8048 30.1033 25.805 30.103 25.8052 30.1027C25.8056 30.102 25.806 30.1011 25.8066 30.1002C25.8076 30.0983 25.809 30.0958 25.8106 30.0928C25.8139 30.0869 25.8183 30.0789 25.8238 30.0687C25.8347 30.0484 25.8501 30.0198 25.8695 29.9828C25.9083 29.9089 25.9634 29.8018 26.0322 29.6624C26.1697 29.3836 26.3621 28.9752 26.5892 28.4436L24.7499 27.6581ZM24.6209 28.6672C23.7559 28.9488 22.9415 29.3672 22.2088 29.9064L23.3943 31.5172C23.955 31.1046 24.5781 30.7844 25.24 30.5689L24.6209 28.6672ZM22.1202 29.9798C21.7827 30.294 21.4184 30.6809 21.2273 31.1378C21.1234 31.3861 21.0608 31.6771 21.0963 31.995C21.1319 32.3145 21.2591 32.5924 21.4301 32.8245L23.0402 31.6381C23.0397 31.6374 23.0487 31.6495 23.0591 31.6745C23.0698 31.7004 23.0796 31.7341 23.0839 31.7731C23.0883 31.812 23.0862 31.8462 23.0818 31.8723C23.0775 31.8975 23.072 31.9105 23.0723 31.9096C23.075 31.9033 23.0964 31.8581 23.1688 31.7693C23.2396 31.6824 23.3414 31.5755 23.4829 31.4438L22.1202 29.9798ZM21.4299 32.8242C21.8754 33.4293 22.6532 33.5804 23.304 33.4561C24.0024 33.3227 24.6868 32.8768 25.259 32.1271L23.6691 30.9137C23.3272 31.3617 23.0433 31.4697 22.9288 31.4916C22.7667 31.5225 22.8871 31.4302 23.0405 31.6385L21.4299 32.8242ZM25.2506 32.1379C25.7638 31.4842 26.2327 30.7969 26.6541 30.0805L24.9303 29.0665C24.5541 29.7059 24.1356 30.3194 23.6775 30.9029L25.2506 32.1379ZM25.7922 29.5735C26.0565 30.5379 26.0565 30.5379 26.0566 30.5379C26.0566 30.5379 26.0566 30.5379 26.0566 30.5379C26.0566 30.5379 26.0567 30.5379 26.0568 30.5379C26.0569 30.5378 26.0572 30.5378 26.0575 30.5377C26.0581 30.5375 26.0591 30.5372 26.0604 30.5369C26.063 30.5362 26.0669 30.5351 26.072 30.5337C26.0822 30.5309 26.0973 30.5268 26.1166 30.5215C26.1554 30.5109 26.2112 30.4957 26.2796 30.477C26.4165 30.4397 26.6034 30.3889 26.8037 30.3349C27.2105 30.2252 27.6531 30.1074 27.8542 30.0589L27.3848 28.1147C27.1524 28.1709 26.6813 28.2965 26.2829 28.4039C26.0805 28.4585 25.8918 28.5098 25.7538 28.5474C25.6848 28.5662 25.6284 28.5816 25.5892 28.5923C25.5696 28.5977 25.5543 28.6018 25.5439 28.6047C25.5387 28.6061 25.5347 28.6072 25.532 28.608C25.5306 28.6083 25.5296 28.6086 25.5289 28.6088C25.5286 28.6089 25.5283 28.609 25.5281 28.609C25.528 28.609 25.528 28.6091 25.5279 28.6091C25.5279 28.6091 25.5279 28.6091 25.5279 28.6091C25.5278 28.6091 25.5278 28.6091 25.7922 29.5735ZM27.8542 30.0589C28.0445 30.0129 28.263 29.9699 28.4405 29.9376C28.5277 29.9216 28.6022 29.9088 28.6544 29.9C28.6805 29.8957 28.7009 29.8923 28.7145 29.8901C28.7213 29.889 28.7263 29.8882 28.7295 29.8877C28.7311 29.8874 28.7323 29.8872 28.7329 29.8871C28.7333 29.8871 28.7335 29.887 28.7335 29.887C28.7336 29.887 28.7336 29.887 28.7336 29.887C28.7335 29.887 28.7335 29.887 28.7335 29.887C28.7335 29.887 28.7335 29.887 28.7334 29.887C28.7334 29.887 28.7334 29.8871 28.5773 28.8993C28.4213 27.9116 28.4213 27.9116 28.4212 27.9116C28.4212 27.9116 28.4212 27.9116 28.4212 27.9116C28.4211 27.9116 28.421 27.9116 28.421 27.9116C28.4208 27.9116 28.4206 27.9117 28.4204 27.9117C28.42 27.9118 28.4194 27.9119 28.4187 27.912C28.4174 27.9122 28.4155 27.9125 28.4132 27.9129C28.4085 27.9136 28.4019 27.9147 28.3935 27.916C28.3767 27.9188 28.3527 27.9227 28.3229 27.9277C28.2633 27.9377 28.1796 27.9522 28.0816 27.97C27.8885 28.0052 27.6281 28.056 27.3848 28.1147L27.8542 30.0589ZM28.5773 28.8993C27.8681 29.6042 27.8683 29.6044 27.8684 29.6046C27.8685 29.6047 27.8687 29.6049 27.8688 29.605C27.8691 29.6053 27.8694 29.6056 27.8697 29.6059C27.8703 29.6065 27.871 29.6072 27.8718 29.608C27.8734 29.6095 27.8752 29.6114 27.8774 29.6136C27.8818 29.6179 27.8875 29.6235 27.8943 29.6302C27.9081 29.6435 27.9267 29.6614 27.9499 29.6833C27.9963 29.7268 28.0614 29.7863 28.1426 29.8562C28.3038 29.9951 28.5342 30.1804 28.8123 30.3659C29.3307 30.7115 30.1767 31.1684 31.1142 31.1338L31.0405 29.1351C30.7507 29.1458 30.3467 28.9851 29.9219 28.7019C29.7284 28.5729 29.5639 28.4409 29.4482 28.3411C29.3908 28.2917 29.3469 28.2515 29.3189 28.2252C29.305 28.2121 29.2951 28.2026 29.2895 28.1972C29.2868 28.1945 29.2851 28.1929 29.2846 28.1924C29.2844 28.1921 29.2844 28.1922 29.2847 28.1925C29.2849 28.1927 29.2852 28.1929 29.2855 28.1932C29.2856 28.1934 29.2858 28.1935 29.286 28.1937C29.2861 28.1938 29.2862 28.194 29.2863 28.194C29.2864 28.1942 29.2866 28.1944 28.5773 28.8993ZM31.1142 31.1338C31.9061 31.1045 32.5442 30.8533 32.9262 30.3337C33.2858 29.8448 33.2448 29.3442 33.2321 29.2223L31.2429 29.4295C31.238 29.3825 31.2307 29.2635 31.315 29.1489C31.3597 29.0881 31.3986 29.0739 31.3811 29.0815C31.3556 29.0925 31.2576 29.1271 31.0405 29.1351L31.1142 31.1338Z" fill="#1A1167" mask="url(#path-13-outside-5_304_7947)"/>
<path d="M30.5275 14.1592C30.7169 14.083 30.9341 14.13 31.0754 14.2773L35.4758 18.8652C35.6144 19.0098 35.6529 19.223 35.5744 19.4072C35.4958 19.5915 35.3148 19.7109 35.1144 19.7109H30.7141C30.4379 19.7109 30.2141 19.4871 30.2141 19.2109V14.623L30.2199 14.5479C30.2462 14.3748 30.3618 14.2258 30.5275 14.1592Z" fill="#909090" stroke="#1A1167" stroke-linejoin="round"/>
<path d="M30.5877 14.0986C30.7771 14.0225 30.9943 14.0695 31.1356 14.2168L35.5359 18.8047C35.6746 18.9492 35.7131 19.1624 35.6346 19.3467C35.556 19.531 35.375 19.6504 35.1746 19.6504H30.7742C30.4981 19.6504 30.2742 19.4265 30.2742 19.1504V14.5625L30.2801 14.4873C30.3064 14.3143 30.4219 14.1653 30.5877 14.0986Z" fill="#F4F4F4" stroke="#1A1167" stroke-linejoin="round"/>
<mask id="path-17-outside-6_304_7947" maskUnits="userSpaceOnUse" x="16.9906" y="15.4824" width="5" height="6" fill="black">
<rect fill="white" x="16.9906" y="15.4824" width="5" height="6"/>
<path d="M19.0117 16.4824H17.9906V20.2324H18.7969V18.9684L18.975 18.9785C19.1473 18.9756 19.318 18.9447 19.4804 18.8871C19.6229 18.8381 19.7539 18.7608 19.8656 18.6598C19.9784 18.5633 20.0672 18.4418 20.125 18.3051C20.2033 18.0773 20.2313 17.8353 20.207 17.5957C20.2021 17.4245 20.1721 17.255 20.1179 17.0926C20.0686 16.9753 19.9954 16.8696 19.903 16.7822C19.8106 16.6948 19.701 16.6275 19.5812 16.5848C19.4772 16.5469 19.3696 16.5194 19.2601 16.5027C19.1777 16.49 19.0944 16.4832 19.0109 16.4824H19.0117ZM18.8633 18.2746H18.7937V17.1184H18.9453C19.0118 17.1136 19.0786 17.1238 19.1407 17.1483C19.2027 17.1727 19.2585 17.2108 19.3039 17.2598C19.3979 17.3856 19.4481 17.5387 19.4468 17.6957C19.4468 17.8879 19.4469 18.0621 19.2734 18.1848C19.1485 18.2535 19.0062 18.2844 18.864 18.2738"/>
</mask>
<path d="M19.0117 16.4824H17.9906V20.2324H18.7969V18.9684L18.975 18.9785C19.1473 18.9756 19.318 18.9447 19.4804 18.8871C19.6229 18.8381 19.7539 18.7608 19.8656 18.6598C19.9784 18.5633 20.0672 18.4418 20.125 18.3051C20.2033 18.0773 20.2313 17.8353 20.207 17.5957C20.2021 17.4245 20.1721 17.255 20.1179 17.0926C20.0686 16.9753 19.9954 16.8696 19.903 16.7822C19.8106 16.6948 19.701 16.6275 19.5812 16.5848C19.4772 16.5469 19.3696 16.5194 19.2601 16.5027C19.1777 16.49 19.0944 16.4832 19.0109 16.4824H19.0117ZM18.8633 18.2746H18.7937V17.1184H18.9453C19.0118 17.1136 19.0786 17.1238 19.1407 17.1483C19.2027 17.1727 19.2585 17.2108 19.3039 17.2598C19.3979 17.3856 19.4481 17.5387 19.4468 17.6957C19.4468 17.8879 19.4469 18.0621 19.2734 18.1848C19.1485 18.2535 19.0062 18.2844 18.864 18.2738" fill="white"/>
<path d="M19.0117 17.4824C19.564 17.4824 20.0117 17.0347 20.0117 16.4824C20.0117 15.9301 19.564 15.4824 19.0117 15.4824V17.4824ZM17.9906 16.4824V15.4824C17.4383 15.4824 16.9906 15.9301 16.9906 16.4824H17.9906ZM17.9906 20.2324H16.9906C16.9906 20.7847 17.4383 21.2324 17.9906 21.2324V20.2324ZM18.7969 20.2324V21.2324C19.3491 21.2324 19.7969 20.7847 19.7969 20.2324H18.7969ZM18.7969 18.9684L18.8538 17.97C18.5791 17.9543 18.3101 18.0525 18.1102 18.2414C17.9102 18.4303 17.7969 18.6933 17.7969 18.9684H18.7969ZM18.975 18.9785L18.9181 19.9769C18.9427 19.9783 18.9675 19.9788 18.9922 19.9784L18.975 18.9785ZM19.4804 18.8871L19.155 17.9415L19.1464 17.9446L19.4804 18.8871ZM19.8656 18.6598L19.2156 17.8998C19.2087 17.9058 19.2018 17.9118 19.195 17.918L19.8656 18.6598ZM20.125 18.3051L21.0462 18.6941C21.055 18.6732 21.0632 18.6519 21.0706 18.6304L20.125 18.3051ZM20.207 17.5957L19.2074 17.6242C19.2081 17.6484 19.2097 17.6726 19.2121 17.6967L20.207 17.5957ZM20.1179 17.0926L21.0666 16.7762C21.0585 16.7521 21.0496 16.7283 21.0397 16.7049L20.1179 17.0926ZM19.5812 16.5848L19.2393 17.5245L19.2451 17.5266L19.5812 16.5848ZM19.2601 16.5027L19.1076 17.491L19.1094 17.4913L19.2601 16.5027ZM19.0109 16.4824V15.4824C18.4605 15.4824 18.0136 15.9272 18.0109 16.4776C18.0083 17.0281 18.451 17.4771 19.0013 17.4824L19.0109 16.4824ZM18.7937 18.2746H17.7937C17.7937 18.8269 18.2414 19.2746 18.7937 19.2746V18.2746ZM18.7937 17.1184V16.1184C18.2414 16.1184 17.7937 16.5661 17.7937 17.1184H18.7937ZM18.9453 17.1184V18.1184C18.9693 18.1184 18.9933 18.1175 19.0172 18.1158L18.9453 17.1184ZM19.3039 17.2598L20.1049 16.6612C20.0838 16.6329 20.0612 16.6058 20.0372 16.5799L19.3039 17.2598ZM19.4468 17.6957L18.4468 17.6878V17.6957H19.4468ZM19.2734 18.1848L19.7553 19.061C19.7883 19.0429 19.8201 19.0229 19.8508 19.0012L19.2734 18.1848ZM19.0117 15.4824H17.9906V17.4824H19.0117V15.4824ZM16.9906 16.4824V20.2324H18.9906V16.4824H16.9906ZM17.9906 21.2324H18.7969V19.2324H17.9906V21.2324ZM19.7969 20.2324V18.9684H17.7969V20.2324H19.7969ZM18.7399 19.9667L18.9181 19.9769L19.0319 17.9801L18.8538 17.97L18.7399 19.9667ZM18.9922 19.9784C19.2725 19.9735 19.5502 19.9233 19.8145 19.8297L19.1464 17.9446C19.0858 17.966 19.0221 17.9776 18.9578 17.9787L18.9922 19.9784ZM19.8058 19.8327C20.0759 19.7398 20.3244 19.5931 20.5362 19.4016L19.195 17.918C19.1834 17.9284 19.1698 17.9364 19.1551 17.9415L19.8058 19.8327ZM20.5156 19.4197C20.7464 19.2223 20.928 18.9739 21.0462 18.6941L19.2038 17.916C19.2064 17.9098 19.2105 17.9042 19.2156 17.8998L20.5156 19.4197ZM21.0706 18.6304C21.196 18.2658 21.2408 17.8784 21.2019 17.4948L19.2121 17.6967C19.2218 17.7923 19.2106 17.8889 19.1794 17.9797L21.0706 18.6304ZM21.2066 17.5672C21.1989 17.2981 21.1518 17.0316 21.0666 16.7762L19.1693 17.409C19.1925 17.4785 19.2053 17.551 19.2074 17.6242L21.2066 17.5672ZM21.0397 16.7049C20.9366 16.4597 20.7835 16.2386 20.5903 16.0558L19.2158 17.5086C19.2073 17.5006 19.2007 17.491 19.1962 17.4803L21.0397 16.7049ZM20.5903 16.0558C20.3971 15.873 20.1679 15.7324 19.9173 15.6429L19.2451 17.5266C19.2342 17.5227 19.2242 17.5166 19.2158 17.5086L20.5903 16.0558ZM19.9232 15.645C19.7571 15.5846 19.5855 15.5408 19.4108 15.5142L19.1094 17.4913C19.1537 17.4981 19.1972 17.5092 19.2393 17.5245L19.9232 15.645ZM19.4126 15.5144C19.2828 15.4944 19.1518 15.4837 19.0205 15.4825L19.0013 17.4824C19.0369 17.4827 19.0725 17.4856 19.1076 17.491L19.4126 15.5144ZM19.0109 17.4824H19.0117V15.4824H19.0109V17.4824ZM18.8633 17.2746H18.7937V19.2746H18.8633V17.2746ZM19.7937 18.2746V17.1184H17.7937V18.2746H19.7937ZM18.7937 18.1184H18.9453V16.1184H18.7937V18.1184ZM19.0172 18.1158C18.9343 18.1217 18.8511 18.109 18.7738 18.0785L19.5075 16.218C19.3061 16.1385 19.0893 16.1054 18.8734 16.1209L19.0172 18.1158ZM18.7738 18.0785C18.6965 18.048 18.627 18.0006 18.5705 17.9396L20.0372 16.5799C19.89 16.4211 19.709 16.2974 19.5075 16.218L18.7738 18.0785ZM18.5028 17.8584C18.466 17.8091 18.4464 17.7492 18.4469 17.6878L20.4468 17.7036C20.4498 17.3281 20.3297 16.962 20.1049 16.6612L18.5028 17.8584ZM18.4468 17.6957C18.4468 17.7497 18.4465 17.7661 18.4459 17.7762C18.4455 17.7833 18.4463 17.7568 18.4577 17.7133C18.4701 17.6659 18.4947 17.5994 18.5416 17.5289C18.5894 17.4573 18.6452 17.4042 18.696 17.3683L19.8508 19.0012C20.501 18.5414 20.4468 17.811 20.4468 17.6957H18.4468ZM18.7915 17.3086C18.8363 17.2839 18.8874 17.2728 18.9384 17.2766L18.7897 19.2711C19.1251 19.2961 19.4606 19.2231 19.7553 19.061L18.7915 17.3086Z" fill="#1A1167" mask="url(#path-17-outside-6_304_7947)"/>
<mask id="path-19-outside-7_304_7947" maskUnits="userSpaceOnUse" x="19.7078" y="15.4697" width="5" height="6" fill="black">
<rect fill="white" x="19.7078" y="15.4697" width="5" height="6"/>
<path d="M21.7313 16.4714C21.6445 16.4714 21.5602 16.4776 21.5008 16.48L21.3172 16.4847H20.7078V20.2347H21.425C21.6991 20.2422 21.972 20.1957 22.2281 20.098C22.4343 20.0162 22.6169 19.8844 22.7594 19.7144C22.898 19.5428 22.9974 19.3431 23.0508 19.1292C23.1122 18.8869 23.1421 18.6377 23.1399 18.3878C23.155 18.0926 23.1322 17.7967 23.0719 17.5073C23.0147 17.2943 22.9076 17.098 22.7594 16.9347C22.6431 16.8028 22.5008 16.6964 22.3414 16.6222C22.2045 16.5588 22.0605 16.5121 21.9125 16.4831C21.8537 16.4734 21.794 16.469 21.7344 16.4698L21.7313 16.4714ZM21.5922 19.5456H21.5141V17.1519H21.5242C21.6853 17.1333 21.8483 17.1624 21.993 17.2355C22.099 17.3201 22.1853 17.4267 22.2461 17.548C22.3117 17.6756 22.3495 17.8156 22.357 17.9589C22.3641 18.1308 22.357 18.2714 22.357 18.3878C22.3602 18.5219 22.3516 18.656 22.3313 18.7886C22.3072 18.9247 22.2627 19.0564 22.1992 19.1792C22.1274 19.2934 22.0304 19.3896 21.9156 19.4605C21.8192 19.5228 21.7051 19.5519 21.5906 19.5433"/>
</mask>
<path d="M21.7313 16.4714C21.6445 16.4714 21.5602 16.4776 21.5008 16.48L21.3172 16.4847H20.7078V20.2347H21.425C21.6991 20.2422 21.972 20.1957 22.2281 20.098C22.4343 20.0162 22.6169 19.8844 22.7594 19.7144C22.898 19.5428 22.9974 19.3431 23.0508 19.1292C23.1122 18.8869 23.1421 18.6377 23.1399 18.3878C23.155 18.0926 23.1322 17.7967 23.0719 17.5073C23.0147 17.2943 22.9076 17.098 22.7594 16.9347C22.6431 16.8028 22.5008 16.6964 22.3414 16.6222C22.2045 16.5588 22.0605 16.5121 21.9125 16.4831C21.8537 16.4734 21.794 16.469 21.7344 16.4698L21.7313 16.4714ZM21.5922 19.5456H21.5141V17.1519H21.5242C21.6853 17.1333 21.8483 17.1624 21.993 17.2355C22.099 17.3201 22.1853 17.4267 22.2461 17.548C22.3117 17.6756 22.3495 17.8156 22.357 17.9589C22.3641 18.1308 22.357 18.2714 22.357 18.3878C22.3602 18.5219 22.3516 18.656 22.3313 18.7886C22.3072 18.9247 22.2627 19.0564 22.1992 19.1792C22.1274 19.2934 22.0304 19.3896 21.9156 19.4605C21.8192 19.5228 21.7051 19.5519 21.5906 19.5433" fill="white"/>
<path d="M21.7313 16.4714V17.4714C21.8865 17.4714 22.0396 17.4353 22.1785 17.3658L21.7313 16.4714ZM21.5008 16.48L21.5263 17.4798L21.5402 17.4792L21.5008 16.48ZM21.3172 16.4847V17.4847C21.3257 17.4847 21.3342 17.4846 21.3427 17.4844L21.3172 16.4847ZM20.7078 16.4847V15.4847C20.1555 15.4847 19.7078 15.9324 19.7078 16.4847H20.7078ZM20.7078 20.2347H19.7078C19.7078 20.787 20.1555 21.2347 20.7078 21.2347V20.2347ZM21.425 20.2347L21.4524 19.2351C21.4433 19.2348 21.4341 19.2347 21.425 19.2347V20.2347ZM22.2281 20.098L22.5848 21.0323L22.5968 21.0275L22.2281 20.098ZM22.7594 19.7144L23.5257 20.3568C23.5296 20.3522 23.5335 20.3475 23.5373 20.3428L22.7594 19.7144ZM23.0508 19.1292L22.0814 18.8836L22.0806 18.8871L23.0508 19.1292ZM23.1399 18.3878L22.1412 18.3365C22.1401 18.3566 22.1397 18.3767 22.1399 18.3968L23.1399 18.3878ZM23.0719 17.5073L24.0509 17.3034C24.047 17.2848 24.0426 17.2663 24.0377 17.248L23.0719 17.5073ZM22.7594 16.9347L22.0092 17.5959C22.0123 17.5995 22.0155 17.603 22.0187 17.6065L22.7594 16.9347ZM22.3414 16.6222L22.7634 15.7156L22.7614 15.7146L22.3414 16.6222ZM21.9125 16.4831L22.105 15.5018C22.0952 15.4999 22.0853 15.4981 22.0755 15.4965L21.9125 16.4831ZM21.7344 16.4698L21.7195 15.4699C21.5693 15.4722 21.4215 15.5082 21.2872 15.5754L21.7344 16.4698ZM21.5141 19.5456H20.5141C20.5141 20.0979 20.9618 20.5456 21.5141 20.5456V19.5456ZM21.5141 17.1519V16.1519C20.9618 16.1519 20.5141 16.5996 20.5141 17.1519H21.5141ZM21.5242 17.1519V18.1519C21.5624 18.1519 21.6006 18.1497 21.6385 18.1453L21.5242 17.1519ZM21.993 17.2355L22.617 16.454C22.5632 16.4111 22.5051 16.3738 22.4436 16.3428L21.993 17.2355ZM22.2461 17.548L21.3521 17.9961L21.3567 18.0051L22.2461 17.548ZM22.357 17.9589L23.3563 17.918L23.3557 17.9064L22.357 17.9589ZM22.357 18.3878H21.357C21.357 18.3957 21.3571 18.4036 21.3573 18.4115L22.357 18.3878ZM22.3313 18.7886L23.316 18.9628C23.3173 18.9553 23.3185 18.9477 23.3197 18.9402L22.3313 18.7886ZM22.1992 19.1792L23.0458 19.7115C23.0608 19.6877 23.0748 19.6632 23.0877 19.6381L22.1992 19.1792ZM21.9156 19.4605L21.3903 18.6095C21.3844 18.6132 21.3784 18.617 21.3726 18.6208L21.9156 19.4605ZM21.7313 15.4714C21.6202 15.4714 21.4721 15.4803 21.4614 15.4808L21.5402 17.4792C21.5621 17.4784 21.5842 17.4772 21.6016 17.4763C21.6207 17.4753 21.6363 17.4745 21.6529 17.4737C21.6856 17.4722 21.7106 17.4714 21.7313 17.4714V15.4714ZM21.4753 15.4803L21.2917 15.485L21.3427 17.4844L21.5263 17.4797L21.4753 15.4803ZM21.3172 15.4847H20.7078V17.4847H21.3172V15.4847ZM19.7078 16.4847V20.2347H21.7078V16.4847H19.7078ZM20.7078 21.2347H21.425V19.2347H20.7078V21.2347ZM21.3976 21.2343C21.8027 21.2454 22.2061 21.1767 22.5847 21.0322L21.8715 19.1637C21.7379 19.2147 21.5954 19.239 21.4524 19.2351L21.3976 21.2343ZM22.5968 21.0275C22.9573 20.8845 23.2766 20.654 23.5257 20.3568L21.993 19.072C21.9572 19.1147 21.9113 19.1478 21.8594 19.1684L22.5968 21.0275ZM23.5373 20.3428C23.7673 20.058 23.9324 19.7265 24.021 19.3714L22.0806 18.8871C22.0624 18.9598 22.0286 19.0277 21.9815 19.0859L23.5373 20.3428ZM24.0202 19.3748C24.1026 19.0493 24.1428 18.7146 24.1398 18.3788L22.1399 18.3968C22.1414 18.5609 22.1217 18.7245 22.0814 18.8836L24.0202 19.3748ZM24.1385 18.4391C24.1581 18.0583 24.1286 17.6766 24.0509 17.3034L22.0929 17.7113C22.1357 17.9168 22.1519 18.1269 22.1412 18.3365L24.1385 18.4391ZM24.0377 17.248C23.9393 16.8816 23.755 16.5438 23.5001 16.2628L22.0187 17.6065C22.0601 17.6522 22.0901 17.7071 22.1061 17.7667L24.0377 17.248ZM23.5096 16.2735C23.302 16.038 23.048 15.848 22.7634 15.7156L21.9194 17.5288C21.9537 17.5447 21.9842 17.5676 22.0092 17.5959L23.5096 16.2735ZM22.7614 15.7146C22.5519 15.6177 22.3315 15.5462 22.105 15.5018L21.7201 17.4644C21.7896 17.4781 21.8572 17.5 21.9215 17.5297L22.7614 15.7146ZM22.0755 15.4965C21.9579 15.4771 21.8387 15.4682 21.7195 15.4699L21.7493 17.4697L21.7495 17.4697L22.0755 15.4965ZM21.2872 15.5754L21.284 15.577L22.1785 17.3658L22.1816 17.3643L21.2872 15.5754ZM21.5922 18.5456H21.5141V20.5456H21.5922V18.5456ZM22.5141 19.5456V17.1519H20.5141V19.5456H22.5141ZM21.5141 18.1519H21.5242V16.1519H21.5141V18.1519ZM21.6385 18.1453C21.6055 18.1491 21.572 18.1432 21.5423 18.1282L22.4436 16.3428C22.1245 16.1816 21.7651 16.1176 21.4099 16.1584L21.6385 18.1453ZM21.369 18.0169C21.3619 18.0113 21.3562 18.0042 21.3521 17.9961L23.1401 17.0999C23.0145 16.8493 22.836 16.6289 22.617 16.454L21.369 18.0169ZM21.3567 18.0051C21.3577 18.0071 21.3583 18.0092 21.3584 18.0114L23.3557 17.9064C23.3407 17.622 23.2657 17.3441 23.1355 17.0908L21.3567 18.0051ZM21.3579 17.9998C21.364 18.1494 21.357 18.2063 21.357 18.3878H23.357C23.357 18.3365 23.3641 18.1122 23.3562 17.918L21.3579 17.9998ZM21.3573 18.4115C21.3591 18.487 21.3543 18.5624 21.3428 18.637L23.3197 18.9402C23.3489 18.7496 23.3613 18.5568 23.3568 18.3641L21.3573 18.4115ZM21.3466 18.6144C21.34 18.6513 21.328 18.687 21.3108 18.7203L23.0877 19.6381C23.1974 19.4258 23.2743 19.1981 23.316 18.9628L21.3466 18.6144ZM21.3527 18.6469C21.3622 18.6317 21.3751 18.6189 21.3903 18.6095L22.4409 20.3114C22.6857 20.1603 22.8926 19.9551 23.0458 19.7115L21.3527 18.6469ZM21.3726 18.6208C21.4595 18.5646 21.5624 18.5383 21.6657 18.5461L21.5156 20.5405C21.8478 20.5655 22.179 20.4811 22.4587 20.3001L21.3726 18.6208Z" fill="#1A1167" mask="url(#path-19-outside-7_304_7947)"/>
<mask id="path-21-outside-8_304_7947" maskUnits="userSpaceOnUse" x="22.6586" y="15.4854" width="4" height="6" fill="black">
<rect fill="white" x="22.6586" y="15.4854" width="4" height="6"/>
<path d="M25.5571 16.4854H23.6586V20.2354H24.4618V18.7479H25.4774V18.051H24.4618V17.1822H25.5555V16.4854"/>
</mask>
<path d="M25.5571 16.4854H23.6586V20.2354H24.4618V18.7479H25.4774V18.051H24.4618V17.1822H25.5555V16.4854" fill="white"/>
<path d="M23.6586 16.4854V15.4854C23.1063 15.4854 22.6586 15.9331 22.6586 16.4854H23.6586ZM23.6586 20.2354H22.6586C22.6586 20.7876 23.1063 21.2354 23.6586 21.2354V20.2354ZM24.4618 20.2354V21.2354C25.014 21.2354 25.4618 20.7876 25.4618 20.2354H24.4618ZM24.4618 18.7479V17.7479C23.9095 17.7479 23.4618 18.1956 23.4618 18.7479H24.4618ZM25.4774 18.7479V19.7479C26.0297 19.7479 26.4774 19.3001 26.4774 18.7479H25.4774ZM25.4774 18.051H26.4774C26.4774 17.4987 26.0297 17.051 25.4774 17.051V18.051ZM24.4618 18.051H23.4618C23.4618 18.6033 23.9095 19.051 24.4618 19.051V18.051ZM24.4618 17.1822V16.1822C23.9095 16.1822 23.4618 16.6299 23.4618 17.1822H24.4618ZM25.5555 17.1822V18.1822C26.1078 18.1822 26.5555 17.7345 26.5555 17.1822H25.5555ZM25.5571 15.4854H23.6586V17.4854H25.5571V15.4854ZM22.6586 16.4854V20.2354H24.6586V16.4854H22.6586ZM23.6586 21.2354H24.4618V19.2354H23.6586V21.2354ZM25.4618 20.2354V18.7479H23.4618V20.2354H25.4618ZM24.4618 19.7479H25.4774V17.7479H24.4618V19.7479ZM26.4774 18.7479V18.051H24.4774V18.7479H26.4774ZM25.4774 17.051H24.4618V19.051H25.4774V17.051ZM25.4618 18.051V17.1822H23.4618V18.051H25.4618ZM24.4618 18.1822H25.5555V16.1822H24.4618V18.1822ZM26.5555 17.1822V16.4854H24.5555V17.1822H26.5555Z" fill="#1A1167" mask="url(#path-21-outside-8_304_7947)"/>
<path d="M30.8281 14.6191L35.175 19.1504V36.3816H18.9367V36.4379H35.2305V19.2074L30.8281 14.6191Z" fill="#909090"/>
<path d="M30.7742 14.5625H18.8812V36.3813H35.175V19.1508L30.7734 14.5625" fill="#F4F4F4"/>
<path d="M18.7617 15.7344H13.7695V21.068H29.4727V15.7344H18.7617Z" fill="#7A7B7C"/>
<path d="M29.5563 20.9771H13.8711V15.6396H29.5563V20.9771Z" fill="#DD2025"/>
<path d="M19.0719 16.542H18.0508V20.292H18.8539V19.0271L19.0313 19.0373C19.2036 19.0343 19.3743 19.0035 19.5367 18.9459C19.6791 18.8969 19.8102 18.8196 19.9219 18.7186C20.0355 18.6223 20.1252 18.5009 20.1836 18.3639C20.2619 18.1361 20.2899 17.8941 20.2656 17.6545C20.2607 17.4833 20.2307 17.3138 20.1766 17.1514C20.1272 17.0341 20.0541 16.9284 19.9617 16.841C19.8692 16.7535 19.7597 16.6863 19.6398 16.6436C19.5363 16.6061 19.4292 16.5788 19.3203 16.5623C19.2378 16.5496 19.1545 16.5428 19.0711 16.542H19.0719ZM18.9234 18.3342H18.8539V17.1779H19.0047C19.0712 17.1731 19.138 17.1833 19.2001 17.2078C19.2621 17.2323 19.3179 17.2704 19.3633 17.3193C19.4573 17.4451 19.5075 17.5982 19.5063 17.7553C19.5063 17.9475 19.5063 18.1217 19.3328 18.2443C19.2079 18.3131 19.0656 18.344 18.9234 18.3334" fill="#464648"/>
<path d="M21.7914 16.5319C21.7047 16.5319 21.6203 16.5382 21.5609 16.5405L21.375 16.5452H20.7656V20.2952H21.4828C21.7569 20.3027 22.0298 20.2563 22.2859 20.1585C22.4921 20.0767 22.6747 19.9449 22.8172 19.7749C22.9558 19.6034 23.0552 19.4037 23.1086 19.1898C23.17 18.9475 23.1999 18.6983 23.1977 18.4484C23.2128 18.1532 23.19 17.8573 23.1297 17.5679C23.0725 17.3549 22.9654 17.1586 22.8172 16.9952C22.7009 16.8633 22.5586 16.7569 22.3992 16.6827C22.2623 16.6194 22.1183 16.5727 21.9703 16.5437C21.9115 16.5339 21.8518 16.5295 21.7922 16.5304L21.7914 16.5319ZM21.65 19.6062H21.5719V17.2124H21.582C21.7431 17.1939 21.9061 17.2229 22.0508 17.296C22.1568 17.3806 22.2431 17.4873 22.3039 17.6085C22.3695 17.7361 22.4073 17.8762 22.4148 18.0194C22.4219 18.1913 22.4148 18.3319 22.4148 18.4484C22.418 18.5824 22.4094 18.7166 22.3891 18.8491C22.365 18.9852 22.3205 19.1169 22.257 19.2398C22.1852 19.3539 22.0882 19.4502 21.9734 19.521C21.877 19.5834 21.7629 19.6124 21.6484 19.6038" fill="#464648"/>
<path d="M25.6172 16.5449H23.7188V20.2949H24.5219V18.8074H25.5375V18.1105H24.5219V17.2418H25.6156V16.5449" fill="#464648"/>
<path d="M29.0164 28.8243C29.0164 28.8243 31.507 28.3727 31.507 29.2235C31.507 30.0743 29.9641 29.7282 29.0164 28.8243ZM27.175 28.8891C26.7793 28.9766 26.3937 29.1046 26.0242 29.2712L26.3367 28.5681C26.6492 27.8649 26.9734 26.9063 26.9734 26.9063C27.3463 27.5339 27.7802 28.1232 28.2688 28.6657C27.9003 28.7206 27.5352 28.7958 27.175 28.8907V28.8891ZM26.1891 23.811C26.1891 23.0696 26.4289 22.8673 26.6156 22.8673C26.8023 22.8673 27.0125 22.9571 27.0195 23.6009C26.9587 24.2482 26.8232 24.8863 26.6156 25.5024C26.3313 24.9851 26.1842 24.4036 26.1883 23.8134L26.1891 23.811ZM22.557 32.0266C21.793 31.5696 24.1594 30.1626 24.5883 30.1173C24.5859 30.1181 23.357 32.5048 22.557 32.0266ZM32.2344 29.3243C32.2266 29.2462 32.1563 28.3813 30.6172 28.4181C29.9757 28.4077 29.3345 28.4529 28.7008 28.5532C28.0869 27.9348 27.5583 27.2372 27.1289 26.479C27.3994 25.6973 27.5632 24.8826 27.6156 24.0571C27.593 23.1196 27.3688 22.5821 26.65 22.5899C25.9313 22.5977 25.8266 23.2266 25.9211 24.1626C26.0137 24.7915 26.1884 25.4056 26.4406 25.9891C26.4406 25.9891 26.1086 27.0227 25.6695 28.0509C25.2305 29.079 24.9305 29.6181 24.9305 29.6181C24.167 29.8666 23.4482 30.2359 22.8016 30.7118C22.1578 31.311 21.8961 31.7712 22.2352 32.2313C22.5273 32.6282 23.55 32.7181 24.4641 31.5204C24.9497 30.9018 25.3934 30.2514 25.7922 29.5735C25.7922 29.5735 27.1859 29.1915 27.6195 29.0868C28.0531 28.9821 28.5773 28.8993 28.5773 28.8993C28.5773 28.8993 29.85 30.1798 31.0773 30.1345C32.3047 30.0891 32.2453 29.4009 32.2375 29.3259" fill="#DD2025"/>
<path d="M30.7141 14.623V19.2113H35.1148L30.7141 14.623Z" fill="#909090"/>
<path d="M30.7742 14.5625V19.1508H35.175L30.7742 14.5625Z" fill="#F4F4F4"/>
<path d="M19.0117 16.4824H17.9906V20.2324H18.7969V18.9684L18.975 18.9785C19.1473 18.9756 19.318 18.9447 19.4804 18.8871C19.6229 18.8381 19.7539 18.7608 19.8656 18.6598C19.9784 18.5633 20.0672 18.4418 20.125 18.3051C20.2033 18.0773 20.2313 17.8353 20.207 17.5957C20.2021 17.4245 20.1721 17.255 20.1179 17.0926C20.0686 16.9753 19.9954 16.8696 19.903 16.7822C19.8106 16.6948 19.701 16.6275 19.5812 16.5848C19.4772 16.5469 19.3696 16.5194 19.2601 16.5027C19.1777 16.49 19.0944 16.4832 19.0109 16.4824H19.0117ZM18.8633 18.2746H18.7937V17.1184H18.9453C19.0118 17.1136 19.0786 17.1238 19.1407 17.1483C19.2027 17.1727 19.2585 17.2108 19.3039 17.2598C19.3979 17.3856 19.4481 17.5387 19.4468 17.6957C19.4468 17.8879 19.4469 18.0621 19.2734 18.1848C19.1485 18.2535 19.0062 18.2844 18.864 18.2738" fill="white"/>
<path d="M21.7313 16.4714C21.6445 16.4714 21.5602 16.4776 21.5008 16.48L21.3172 16.4847H20.7078V20.2347H21.425C21.6991 20.2422 21.972 20.1957 22.2281 20.098C22.4343 20.0162 22.6169 19.8844 22.7594 19.7144C22.898 19.5428 22.9974 19.3431 23.0508 19.1292C23.1122 18.8869 23.1421 18.6377 23.1399 18.3878C23.155 18.0926 23.1322 17.7967 23.0719 17.5073C23.0147 17.2943 22.9076 17.098 22.7594 16.9347C22.6431 16.8028 22.5008 16.6964 22.3414 16.6222C22.2045 16.5588 22.0605 16.5121 21.9125 16.4831C21.8537 16.4734 21.794 16.469 21.7344 16.4698L21.7313 16.4714ZM21.5922 19.5456H21.5141V17.1519H21.5242C21.6853 17.1333 21.8483 17.1624 21.993 17.2355C22.099 17.3201 22.1853 17.4267 22.2461 17.548C22.3117 17.6756 22.3495 17.8156 22.357 17.9589C22.3641 18.1308 22.357 18.2714 22.357 18.3878C22.3602 18.5219 22.3516 18.656 22.3313 18.7886C22.3072 18.9247 22.2627 19.0564 22.1992 19.1792C22.1274 19.2934 22.0304 19.3896 21.9156 19.4605C21.8192 19.5228 21.7051 19.5519 21.5906 19.5433" fill="white"/>
<path d="M25.5571 16.4854H23.6586V20.2354H24.4618V18.7479H25.4774V18.051H24.4618V17.1822H25.5555V16.4854" fill="white"/>
</svg>
