<svg width="80" height="80" viewBox="0 0 80 80" fill="none" xmlns="http://www.w3.org/2000/svg">
<rect width="80" height="80" rx="40" fill="#4A90EB"/>
<path d="M39.2695 19.0584C42.0935 18.7722 44.9173 19.5542 47.207 21.2332C49.4969 22.9124 51.0623 25.3935 51.6348 28.1795C51.8444 29.2096 51.1765 30.2204 50.1465 30.4305C49.1161 30.6404 48.1044 29.9726 47.8945 28.9422C47.5128 27.0914 46.463 25.4503 44.9365 24.3055C43.4101 23.1798 41.5212 22.6646 39.6514 22.8553C37.7624 23.0461 36.0255 23.9238 34.7471 25.3358C33.4686 26.7478 32.7812 28.5804 32.7812 30.4695V36.1942H53.7715C56.9198 36.1942 59.4958 38.7695 59.4961 41.9178V55.2752C59.4961 58.4428 56.92 60.9998 53.7715 60.9998H27.0566C23.9083 60.9997 21.332 58.4236 21.332 55.2752V41.9178C21.3323 38.7696 23.9084 36.1943 27.0566 36.1942H28.9648V30.4695C28.9648 27.6263 30.0147 24.8972 31.9229 22.7791C33.831 20.661 36.4454 19.3446 39.2695 19.0584ZM27.0566 40.0106C26.0074 40.0107 25.1487 40.8686 25.1484 41.9178V55.2752C25.1484 56.3246 26.0073 57.1833 27.0566 57.1834H53.7715C54.821 57.1834 55.6797 56.3247 55.6797 55.2752V41.9178C55.6794 40.8685 54.8208 40.0106 53.7715 40.0106H27.0566Z" fill="#EFF0FA"/>
</svg>
