<svg width="36" height="36" viewBox="0 0 36 36" fill="none" xmlns="http://www.w3.org/2000/svg">
<path d="M0.347038 2.29292C0.44981 2.25027 0.562935 2.23909 0.67207 2.2608C0.781208 2.28252 0.881439 2.33614 0.960056 2.41489L33.5852 35.0399C33.6639 35.1185 33.7175 35.2188 33.7392 35.3279C33.7609 35.437 33.7498 35.5501 33.7072 35.6529C33.6646 35.7556 33.5925 35.8435 33.5 35.9053C33.4075 35.9671 33.2988 36.0001 33.1875 36.0001H0.562366C0.488487 36.0001 0.415325 35.9856 0.347057 35.9573C0.278793 35.9291 0.216766 35.8877 0.164524 35.8354C0.112282 35.7832 0.0708504 35.7212 0.0425987 35.6529C0.0143433 35.5846 -0.000175476 35.5115 -0.000133514 35.4376V2.81258C-0.000213623 2.70132 0.0327377 2.59255 0.0945396 2.50003C0.156345 2.40752 0.244225 2.33544 0.347038 2.29292Z" fill="#4A90EB"/>
<path d="M5.40961 17.4802C5.51235 17.4374 5.62553 17.4261 5.73472 17.4478C5.8439 17.4695 5.94415 17.5233 6.02265 17.6022L18.3977 29.9772C18.4764 30.0558 18.53 30.1561 18.5517 30.2652C18.5734 30.3743 18.5623 30.4874 18.5197 30.5902C18.4771 30.6929 18.405 30.7808 18.3125 30.8426C18.22 30.9044 18.1113 30.9374 18 30.9374H5.62494C5.55106 30.9374 5.4779 30.9229 5.40964 30.8947C5.34137 30.8664 5.27934 30.825 5.2271 30.7727C5.17486 30.7205 5.13343 30.6585 5.10518 30.5902C5.07692 30.5219 5.0624 30.4488 5.06244 30.3749V17.9999C5.06236 17.8886 5.09531 17.7799 5.15712 17.6873C5.21892 17.5948 5.3068 17.5228 5.40961 17.4802Z" fill="#99CAF7"/>
<path d="M1.85069 8.2743C1.95733 8.37886 2.10072 8.43743 2.25007 8.43743C2.39942 8.43743 2.54281 8.37886 2.64944 8.2743L4.73633 6.18742L3.93758 5.38867L1.85069 7.47555C1.7453 7.58175 1.68617 7.7253 1.68617 7.87492C1.68617 8.02454 1.7453 8.16809 1.85069 8.2743Z" fill="#99CAF7"/>
<path d="M10.8507 15.3505C10.7453 15.4568 10.6862 15.6003 10.6862 15.7499C10.6862 15.8995 10.7453 16.0431 10.8507 16.1493C10.9573 16.2539 11.1007 16.3124 11.2501 16.3124C11.3994 16.3124 11.5428 16.2539 11.6494 16.1493L13.1738 14.6249L12.3751 13.8262L10.8507 15.3505Z" fill="#99CAF7"/>
<path d="M27.7257 32.2255C27.6203 32.3318 27.5612 32.4753 27.5612 32.6249C27.5612 32.7745 27.6203 32.9181 27.7257 33.0243C27.8323 33.1289 27.9757 33.1874 28.1251 33.1874C28.2744 33.1874 28.4178 33.1289 28.5244 33.0243L30.0488 31.4999L29.2501 30.7012L27.7257 32.2255Z" fill="#99CAF7"/>
<path d="M5.22569 9.72555C5.12031 9.83175 5.06117 9.9753 5.06117 10.1249C5.06117 10.2745 5.12031 10.4181 5.22569 10.5243C5.33233 10.6289 5.47572 10.6874 5.62507 10.6874C5.77442 10.6874 5.91781 10.6289 6.02445 10.5243L7.54883 8.99992L6.75007 8.20117L5.22569 9.72555Z" fill="#99CAF7"/>
<path d="M18.7257 24.3505C18.6203 24.4568 18.5612 24.6003 18.5612 24.7499C18.5612 24.8995 18.6203 25.0431 18.7257 25.1493C18.8323 25.2539 18.9757 25.3124 19.1251 25.3124C19.2744 25.3124 19.4178 25.2539 19.5244 25.1493L21.6113 23.0624L20.8126 22.2637L18.7257 24.3505Z" fill="#99CAF7"/>
<path d="M13.1007 18.7255C12.9953 18.8318 12.9362 18.9753 12.9362 19.1249C12.9362 19.2745 12.9953 19.4181 13.1007 19.5243C13.2073 19.6289 13.3507 19.6874 13.5001 19.6874C13.6494 19.6874 13.7928 19.6289 13.8994 19.5243L15.9863 17.4374L15.1876 16.6387L13.1007 18.7255Z" fill="#99CAF7"/>
<path d="M24.3507 29.9755C24.2453 30.0818 24.1862 30.2253 24.1862 30.3749C24.1862 30.5245 24.2453 30.6681 24.3507 30.7743C24.4573 30.8789 24.6007 30.9374 24.7501 30.9374C24.8994 30.9374 25.0428 30.8789 25.1494 30.7743L27.2363 28.6874L26.4376 27.8887L24.3507 29.9755Z" fill="#99CAF7"/>
<path d="M22.1007 26.6005C21.9953 26.7068 21.9362 26.8503 21.9362 26.9999C21.9362 27.1495 21.9953 27.2931 22.1007 27.3993C22.2073 27.5039 22.3507 27.5624 22.5001 27.5624C22.6494 27.5624 22.7928 27.5039 22.8994 27.3993L24.4238 25.8749L23.6251 25.0762L22.1007 26.6005Z" fill="#99CAF7"/>
<path d="M7.47569 13.1005C7.3703 13.2068 7.31117 13.3503 7.31117 13.4999C7.31117 13.6495 7.3703 13.7931 7.47569 13.8993C7.58233 14.0039 7.72572 14.0624 7.87507 14.0624C8.02442 14.0624 8.16781 14.0039 8.27444 13.8993L10.3613 11.8124L9.56258 11.0137L7.47569 13.1005Z" fill="#99CAF7"/>
<path d="M16.4757 20.9755C16.3703 21.0818 16.3112 21.2253 16.3112 21.3749C16.3112 21.5245 16.3703 21.6681 16.4757 21.7743C16.5823 21.8789 16.7257 21.9374 16.8751 21.9374C17.0244 21.9374 17.1678 21.8789 17.2744 21.7743L18.7988 20.2499L18.0001 19.4512L16.4757 20.9755Z" fill="#99CAF7"/>
<path d="M10.4277 0.85968C10.9814 0.30862 11.731 -0.000513875 12.5121 6.41234e-07C13.2933 0.000515157 14.0425 0.310636 14.5954 0.862425L34.1479 20.4148C34.2098 20.4766 34.2565 20.552 34.2841 20.6351L35.971 25.697C35.9993 25.7816 36.007 25.8716 35.9936 25.9597C35.9802 26.0478 35.946 26.1315 35.894 26.2038C35.8419 26.2761 35.7733 26.335 35.694 26.3757C35.6147 26.4163 35.5268 26.4375 35.4377 26.4375C35.3772 26.4376 35.317 26.4278 35.2597 26.4084L30.1977 24.7214C30.1147 24.6938 30.0393 24.6472 29.9775 24.5852L10.425 5.03284C9.87224 4.47893 9.56204 3.72821 9.56256 2.94569C9.56307 2.16317 9.87426 1.41286 10.4277 0.85968Z" fill="#FFC542"/>
<path d="M12.3747 7.875C12.4486 7.87508 12.5218 7.86056 12.59 7.83228C12.6583 7.804 12.7203 7.7625 12.7724 7.71019L17.2724 3.21019C17.3763 3.10439 17.4343 2.96184 17.4336 2.81355C17.4329 2.66527 17.3737 2.52325 17.2689 2.4184C17.164 2.31354 17.022 2.25434 16.8737 2.25367C16.7254 2.253 16.5829 2.31091 16.4771 2.41481L11.977 6.91481C11.8984 6.99348 11.8448 7.09369 11.8232 7.20279C11.8015 7.31189 11.8126 7.42497 11.8552 7.52774C11.8977 7.63051 11.9698 7.71835 12.0623 7.78016C12.1548 7.84197 12.2635 7.87497 12.3747 7.875Z" fill="#EFAA5E"/>
<path d="M14.6247 10.125C14.6986 10.1251 14.7718 10.1106 14.84 10.0823C14.9083 10.054 14.9703 10.0125 15.0224 9.96019L19.5224 5.46019C19.6263 5.35439 19.6843 5.21184 19.6836 5.06355C19.6829 4.91527 19.6237 4.77325 19.5189 4.6684C19.414 4.56354 19.272 4.50434 19.1237 4.50367C18.9754 4.503 18.8329 4.56091 18.7271 4.66481L14.227 9.16481C14.1484 9.24348 14.0948 9.34369 14.0732 9.45279C14.0515 9.56189 14.0626 9.67497 14.1052 9.77774C14.1477 9.88051 14.2198 9.96835 14.3123 10.0302C14.4048 10.092 14.5135 10.125 14.6247 10.125Z" fill="#EFAA5E"/>
<path d="M29.824 24.435L29.9759 24.5868C30.0383 24.6473 30.1132 24.6934 30.1953 24.7218L32.6478 25.5375L35.2578 26.4093C35.3162 26.4269 35.3768 26.4364 35.4378 26.4375C35.5872 26.4379 35.7308 26.3793 35.8372 26.2743C35.9101 26.1991 35.9611 26.1054 35.9849 26.0033C36.0087 25.9013 36.0043 25.7947 35.9722 25.695L35.1059 23.0906L34.2847 20.6325C34.2562 20.5504 34.2102 20.4755 34.1497 20.4131L33.9978 20.2612C33.4399 20.226 32.8809 20.3102 32.3581 20.5081C31.8353 20.7059 31.3607 21.013 30.9659 21.4087C30.5654 21.7986 30.2555 22.2718 30.0582 22.7948C29.8609 23.3177 29.7809 23.8777 29.824 24.435Z" fill="#E28C52"/>
<path d="M30.9657 21.4064C31.3604 21.0125 31.834 20.7065 32.3553 20.5085C32.8766 20.3105 33.4338 20.2249 33.9905 20.2575L34.1479 20.4149C34.2099 20.4767 34.2565 20.5521 34.2841 20.6352L35.1025 23.0908C34.4368 23.1638 33.8205 23.477 33.369 23.9717C32.9672 24.4034 32.7164 24.9537 32.6542 25.5401L30.1978 24.7215C30.1147 24.6939 30.0393 24.6473 29.9775 24.5853L29.8208 24.4286C29.7817 23.872 29.8638 23.3136 30.0614 22.7918C30.2591 22.27 30.5676 21.7973 30.9657 21.4064Z" fill="#EFAA5E"/>
</svg>
