<svg width="20" height="20" viewBox="0 0 20 20" fill="none" xmlns="http://www.w3.org/2000/svg">
<path d="M8.75 13.4438V11.875H5.625C5.45924 11.875 5.30027 11.8092 5.18306 11.6919C5.06585 11.5747 5 11.4158 5 11.25C5 11.0842 5.06585 10.9253 5.18306 10.8081C5.30027 10.6908 5.45924 10.625 5.625 10.625H8.8625C8.95582 10.3629 9.10632 10.1248 9.30306 9.92806C9.49981 9.73132 9.73788 9.58082 10 9.4875L13.4375 8.2375C13.8513 8.08705 14.3049 8.08705 14.7188 8.2375L15.6438 8.575V3.125C15.6438 2.62772 15.4462 2.15081 15.0946 1.79917C14.7429 1.44754 14.266 1.25 13.7688 1.25H3.75C3.25272 1.25 2.77581 1.44754 2.42417 1.79917C2.07254 2.15081 1.875 2.62772 1.875 3.125V16.875C1.875 17.3723 2.07254 17.8492 2.42417 18.2008C2.77581 18.5525 3.25272 18.75 3.75 18.75H11.325C10.5239 18.1165 9.87628 17.3103 9.4304 16.3915C8.98452 15.4727 8.75194 14.465 8.75 13.4438ZM5.625 4.375H11.875C12.0408 4.375 12.1997 4.44085 12.3169 4.55806C12.4342 4.67527 12.5 4.83424 12.5 5C12.5 5.16576 12.4342 5.32473 12.3169 5.44194C12.1997 5.55915 12.0408 5.625 11.875 5.625H5.625C5.45924 5.625 5.30027 5.55915 5.18306 5.44194C5.06585 5.32473 5 5.16576 5 5C5 4.83424 5.06585 4.67527 5.18306 4.55806C5.30027 4.44085 5.45924 4.375 5.625 4.375ZM5.625 7.5H11.875C12.0408 7.5 12.1997 7.56585 12.3169 7.68306C12.4342 7.80027 12.5 7.95924 12.5 8.125C12.5 8.29076 12.4342 8.44973 12.3169 8.56694C12.1997 8.68415 12.0408 8.75 11.875 8.75H5.625C5.45924 8.75 5.30027 8.68415 5.18306 8.56694C5.06585 8.44973 5 8.29076 5 8.125C5 7.95924 5.06585 7.80027 5.18306 7.68306C5.30027 7.56585 5.45924 7.5 5.625 7.5ZM7.5 15.625H5.625C5.45924 15.625 5.30027 15.5592 5.18306 15.4419C5.06585 15.3247 5 15.1658 5 15C5 14.8342 5.06585 14.6753 5.18306 14.5581C5.30027 14.4408 5.45924 14.375 5.625 14.375H7.5C7.66576 14.375 7.82473 14.4408 7.94194 14.5581C8.05915 14.6753 8.125 14.8342 8.125 15C8.125 15.1658 8.05915 15.3247 7.94194 15.4419C7.82473 15.5592 7.66576 15.625 7.5 15.625ZM17.7125 10.6625L14.275 9.4125C14.1377 9.36285 13.9873 9.36285 13.85 9.4125L10.4125 10.6625C10.2917 10.7062 10.1873 10.786 10.1135 10.8911C10.0397 10.9962 10.0001 11.1216 10 11.25V13.4438C10.0028 14.5767 10.3531 15.6815 11.0036 16.6091C11.654 17.5367 12.5733 18.2425 13.6375 18.6313C13.7725 18.6857 13.9169 18.7133 14.0625 18.7125C14.2074 18.7123 14.3513 18.687 14.4875 18.6375C15.5517 18.2469 16.4707 17.5398 17.121 16.6112C17.7713 15.6827 18.1217 14.5773 18.125 13.4438V11.25C18.1249 11.1216 18.0853 10.9962 18.0115 10.8911C17.9377 10.786 17.8333 10.7062 17.7125 10.6625ZM16.0687 13.5687L14.1937 15.4437C14.1356 15.5023 14.0665 15.5488 13.9904 15.5806C13.9142 15.6123 13.8325 15.6286 13.75 15.6286C13.6675 15.6286 13.5858 15.6123 13.5096 15.5806C13.4335 15.5488 13.3644 15.5023 13.3063 15.4437L12.0563 14.1937C11.9386 14.0761 11.8724 13.9164 11.8724 13.75C11.8724 13.5836 11.9386 13.4239 12.0563 13.3063C12.1739 13.1886 12.3336 13.1224 12.5 13.1224C12.6664 13.1224 12.8261 13.1886 12.9437 13.3063L13.75 14.1187L15.1813 12.6813C15.2989 12.5636 15.4586 12.4974 15.625 12.4974C15.7914 12.4974 15.9511 12.5636 16.0687 12.6813C16.1864 12.7989 16.2526 12.9586 16.2526 13.125C16.2526 13.2914 16.1864 13.4511 16.0687 13.5687Z" fill="#4A90EB"/>
</svg>
