<svg width="200" height="200" viewBox="0 0 200 200" fill="none" xmlns="http://www.w3.org/2000/svg">
<g clip-path="url(#clip0_463_2191)">
<path d="M100.76 182.93C137.49 182.93 167.265 181.018 167.265 178.659C167.265 176.301 137.49 174.389 100.76 174.389C64.0309 174.389 34.2559 176.301 34.2559 178.659C34.2559 181.018 64.0309 182.93 100.76 182.93Z" fill="#EFE9DA"/>
<path d="M15.2356 169.572L16.6528 171.077L18.6952 170.762L17.7028 172.575L18.6332 174.42L16.6024 174.036L15.1348 175.491L14.8724 173.441L13.0352 172.495L14.9036 171.612L15.2356 169.572Z" fill="#EFE9DA"/>
<path d="M182.937 159.349L184.354 160.853L186.396 160.538L185.404 162.351L186.334 164.196L184.304 163.812L182.836 165.267L182.574 163.217L180.736 162.271L182.605 161.388L182.937 159.349Z" fill="#EFE9DA"/>
<path d="M15.2356 69.165L16.6528 70.6694L18.6952 70.3546L17.7028 72.1674L18.6332 74.013L16.6024 73.629L15.1348 75.0842L14.8724 73.0342L13.0352 72.0882L14.9036 71.205L15.2356 69.165Z" fill="#EFE9DA"/>
<path d="M146.119 21.7725L147.536 23.2765L149.578 22.9617L148.586 24.7745L149.516 26.6201L147.486 26.2361L146.018 27.6913L145.756 25.6413L143.918 24.6953L145.787 23.8121L146.119 21.7725Z" fill="#EFE9DA"/>
<path d="M35.4543 122.498L35.6483 124.555L37.4531 125.562L35.5563 126.382L35.1563 128.41L33.7903 126.859L31.7383 127.106L32.7907 125.327L31.9223 123.452L33.9391 123.903L35.4543 122.498Z" fill="#EFE9DA"/>
<path d="M158.869 109.743L160.313 111.222L162.35 110.872L161.389 112.701L162.352 114.53L160.315 114.182L158.873 115.663L158.575 113.618L156.721 112.704L158.573 111.788L158.869 109.743Z" fill="#EFE9DA"/>
<path d="M46.3976 23.2031L46.5916 25.2607L48.3968 26.2671L46.4996 27.0875L46.1 29.1151L44.7336 27.5647L42.6816 27.8111L43.7344 26.0323L42.8656 24.1571L44.8824 24.6083L46.3976 23.2031Z" fill="#EFE9DA"/>
<path d="M181.568 59.6797L181.762 61.7369L183.566 62.7437L181.67 63.5641L181.27 65.5917L179.904 64.0409L177.852 64.2877L178.904 62.5089L178.036 60.6337L180.052 61.0849L181.568 59.6797Z" fill="#EFE9DA"/>
<path d="M20.1792 19.6385H18.9744V18.4341C18.9744 18.2801 18.8492 18.1553 18.6956 18.1553C18.5416 18.1553 18.4168 18.2801 18.4168 18.4341V19.6385H17.2124C17.0584 19.6385 16.9336 19.7633 16.9336 19.9173C16.9336 20.0713 17.0588 20.1961 17.2124 20.1961H18.4168V21.4005C18.4168 21.5545 18.542 21.6793 18.6956 21.6793C18.8496 21.6793 18.9744 21.5545 18.9744 21.4005V20.1961H20.1792C20.3332 20.1961 20.458 20.0713 20.458 19.9173C20.458 19.7633 20.3332 19.6385 20.1792 19.6385Z" fill="#4579FB"/>
<path d="M182.193 21.1219H180.988V19.9175C180.988 19.7635 180.863 19.6387 180.709 19.6387C180.555 19.6387 180.43 19.7635 180.43 19.9175V21.1219H179.226C179.072 21.1219 178.947 21.2467 178.947 21.4007C178.947 21.5547 179.072 21.6795 179.226 21.6795H180.43V22.8839C180.43 23.0379 180.556 23.1627 180.709 23.1627C180.863 23.1627 180.988 23.0379 180.988 22.8839V21.6795H182.193C182.347 21.6795 182.472 21.5547 182.472 21.4007C182.472 21.2467 182.347 21.1219 182.193 21.1219Z" fill="#4579FB"/>
<path d="M155.857 75.2315C155.857 75.3855 155.982 75.5103 156.135 75.5103C156.289 75.5103 156.414 75.3855 156.414 75.2315V74.0271H157.619C157.773 74.0271 157.897 73.9023 157.897 73.7483C157.897 73.5943 157.772 73.4695 157.619 73.4695H156.414V72.2651C156.414 72.1111 156.289 71.9863 156.135 71.9863C155.981 71.9863 155.857 72.1111 155.857 72.2651V73.4695H154.652C154.498 73.4695 154.373 73.5943 154.373 73.7483C154.373 73.9023 154.498 74.0271 154.652 74.0271H155.857V75.2315Z" fill="#4579FB"/>
<path d="M190.138 122.218H188.934V121.014C188.934 120.86 188.809 120.735 188.655 120.735C188.501 120.735 188.376 120.86 188.376 121.014V122.218H187.171C187.017 122.218 186.893 122.344 186.893 122.497C186.893 122.651 187.018 122.776 187.171 122.776H188.376V123.98C188.376 124.134 188.501 124.259 188.655 124.259C188.809 124.259 188.934 124.134 188.934 123.98V122.776H190.138C190.292 122.776 190.417 122.651 190.417 122.497C190.417 122.343 190.292 122.218 190.138 122.218Z" fill="#4579FB"/>
<path d="M158.205 191.743H157V190.539C157 190.385 156.875 190.26 156.721 190.26C156.567 190.26 156.443 190.385 156.443 190.539V191.743H155.238C155.084 191.743 154.959 191.868 154.959 192.022C154.959 192.176 155.084 192.301 155.238 192.301H156.443V193.505C156.443 193.659 156.568 193.784 156.721 193.784C156.875 193.784 157 193.659 157 193.505V192.301H158.205C158.359 192.301 158.483 192.175 158.483 192.022C158.484 191.868 158.359 191.743 158.205 191.743Z" fill="#4579FB"/>
<path d="M55.228 53.7547H54.0236V52.5503C54.0236 52.3963 53.8984 52.2715 53.7448 52.2715C53.5908 52.2715 53.466 52.3963 53.466 52.5503V53.7547H52.2612C52.1072 53.7547 51.9824 53.8795 51.9824 54.0335C51.9824 54.1875 52.1076 54.3123 52.2612 54.3123H53.466V55.5167C53.466 55.6707 53.5912 55.7955 53.7448 55.7955C53.8988 55.7955 54.0236 55.6707 54.0236 55.5167V54.3123H55.228C55.382 54.3123 55.5068 54.1875 55.5068 54.0335C55.5068 53.8795 55.382 53.7547 55.228 53.7547Z" fill="#4579FB"/>
<path d="M15.4624 102.105H14.2576V100.901C14.2576 100.747 14.1324 100.622 13.9788 100.622C13.8252 100.622 13.7 100.747 13.7 100.901V102.105H12.4956C12.3416 102.105 12.2168 102.23 12.2168 102.384C12.2168 102.538 12.342 102.663 12.4956 102.663H13.7V103.868C13.7 104.022 13.8252 104.146 13.9788 104.146C14.1324 104.146 14.2576 104.021 14.2576 103.868V102.663H15.4624C15.6164 102.663 15.7412 102.538 15.7412 102.384C15.7412 102.23 15.6164 102.105 15.4624 102.105Z" fill="#4579FB"/>
<path d="M29.7104 150.492H28.5056V149.287C28.5056 149.133 28.3804 149.008 28.2268 149.008C28.0728 149.008 27.948 149.133 27.948 149.287V150.492H26.7436C26.5896 150.492 26.4648 150.617 26.4648 150.771C26.4648 150.925 26.59 151.049 26.7436 151.049H27.948V152.254C27.948 152.408 28.0732 152.533 28.2268 152.533C28.3808 152.533 28.5056 152.408 28.5056 152.254V151.049H29.7104C29.8644 151.049 29.9892 150.924 29.9892 150.771C29.9892 150.617 29.8644 150.492 29.7104 150.492Z" fill="#4579FB"/>
<path d="M12.7591 132.76C11.7295 132.76 11.7279 134.36 12.7591 134.36C13.7887 134.36 13.7903 132.76 12.7591 132.76Z" fill="#F0C62E"/>
<path d="M37.2591 81.0898C36.2295 81.0898 36.2279 82.6898 37.2591 82.6898C38.2883 82.6898 38.2903 81.0898 37.2591 81.0898Z" fill="#6FC4B4"/>
<path d="M18.9955 48.5732C17.9659 48.5732 17.9643 50.1732 18.9955 50.1732C20.0251 50.1732 20.0271 48.5732 18.9955 48.5732Z" fill="#F0C62E"/>
<path d="M64.4291 6.70264C63.3995 6.70264 63.3979 8.30264 64.4291 8.30264C65.4586 8.30264 65.4603 6.70264 64.4291 6.70264Z" fill="#6FC4B4"/>
<path d="M148.617 8.9292C147.587 8.9292 147.585 10.5292 148.617 10.5292C149.646 10.5292 149.648 8.9292 148.617 8.9292Z" fill="#6FC4B4"/>
<path d="M175.788 38.7739C174.759 38.7739 174.757 40.3739 175.788 40.3739C176.818 40.3739 176.82 38.7739 175.788 38.7739Z" fill="#F0C62E"/>
<path d="M169.107 88.6621C168.077 88.6621 168.076 90.2621 169.107 90.2621C170.136 90.2621 170.138 88.6621 169.107 88.6621Z" fill="#6FC4B4"/>
<path d="M168.216 136.769C167.187 136.769 167.185 138.369 168.216 138.369C169.246 138.369 169.247 136.769 168.216 136.769Z" fill="#F0C62E"/>
<path d="M183.361 187.549C182.331 187.549 182.329 189.149 183.361 189.149C184.39 189.149 184.392 187.549 183.361 187.549Z" fill="#6FC4B4"/>
<path d="M71.556 191.558C70.5264 191.558 70.5248 193.158 71.556 193.158C72.5856 193.158 72.5872 191.558 71.556 191.558Z" fill="#6FC4B4"/>
<path d="M74.5399 50.0405C71.7459 50.0405 69.4727 52.3137 69.4727 55.1077V171.75C69.4727 174.544 71.7459 176.817 74.5399 176.817H126.983C129.777 176.817 132.05 174.544 132.05 171.75V55.1077C132.05 52.3137 129.777 50.0405 126.983 50.0405H74.5399Z" fill="#D9D8FD"/>
<path d="M126.983 50.0405H100.762V176.817H126.983C129.777 176.817 132.05 174.544 132.05 171.75V55.1077C132.05 52.3133 129.777 50.0405 126.983 50.0405Z" fill="#C9C9F4"/>
<path d="M126.982 48.1978H74.5389C70.7285 48.1978 67.6289 51.2974 67.6289 55.1078V171.75C67.6289 175.561 70.7285 178.66 74.5389 178.66H126.982C130.792 178.66 133.892 175.561 133.892 171.75V55.1078C133.892 51.2974 130.792 48.1978 126.982 48.1978ZM132.049 171.75C132.049 174.544 129.776 176.817 126.982 176.817H74.5389C71.7449 176.817 69.4717 174.544 69.4717 171.75V55.1078C69.4717 52.3138 71.7449 50.0406 74.5389 50.0406H84.6873C84.6873 52.9214 87.0229 55.257 89.9037 55.257H111.617C114.498 55.257 116.833 52.9214 116.833 50.0406H126.982C129.776 50.0406 132.049 52.3138 132.049 55.1078V171.75Z" fill="#4579FB"/>
<path d="M126.981 48.1978H100.76V55.2566H111.617C114.497 55.2566 116.833 52.921 116.833 50.0402H126.981C129.775 50.0402 132.049 52.3134 132.049 55.1074V171.75C132.049 174.544 129.775 176.817 126.981 176.817H100.76V178.659H126.981C130.792 178.659 133.891 175.56 133.891 171.749V55.1078C133.891 51.2974 130.791 48.1978 126.981 48.1978Z" fill="#306DE5"/>
<path d="M121.935 66.9556H79.584V73.7484H121.935V66.9556Z" fill="#F0F0FF"/>
<path d="M121.935 84.6699H79.584V91.4627H121.935V84.6699Z" fill="#F0F0FF"/>
<path d="M121.935 102.384H79.584V109.177H121.935V102.384Z" fill="#F0F0FF"/>
<path d="M121.935 120.099H79.584V126.891H121.935V120.099Z" fill="#F0F0FF"/>
<path d="M121.935 137.813H79.584V144.606H121.935V137.813Z" fill="#F0F0FF"/>
<path d="M121.935 155.527H79.584V162.32H121.935V155.527Z" fill="#F0F0FF"/>
<path d="M121.935 66.9556H100.76V73.7484H121.935V66.9556Z" fill="#D9D8FD"/>
<path d="M121.935 84.6699H100.76V91.4627H121.935V84.6699Z" fill="#D9D8FD"/>
<path d="M121.935 102.384H100.76V109.177H121.935V102.384Z" fill="#D9D8FD"/>
<path d="M121.935 120.099H100.76V126.891H121.935V120.099Z" fill="#D9D8FD"/>
<path d="M121.935 137.813H100.76V144.606H121.935V137.813Z" fill="#D9D8FD"/>
<path d="M121.935 155.527H100.76V162.32H121.935V155.527Z" fill="#D9D8FD"/>
<path d="M128.991 87.4261C137.293 87.4261 144.024 80.6953 144.024 72.3925C144.024 64.0897 137.293 57.3589 128.991 57.3589C120.688 57.3589 113.957 64.0897 113.957 72.3925C113.957 80.6953 120.688 87.4261 128.991 87.4261Z" fill="#474799"/>
<path d="M128.992 87.4266C137.295 87.4266 144.026 80.6958 144.026 72.393C144.026 64.0902 137.295 57.3594 128.992 57.3594V87.4266Z" fill="#3D3D84"/>
<path d="M142.069 75.4355C143.748 68.2131 139.255 60.9967 132.033 59.3171C124.81 57.6376 117.594 62.1309 115.914 69.3533C114.235 76.5757 118.728 83.7922 125.95 85.4717C133.173 87.1513 140.389 82.6579 142.069 75.4355Z" fill="#DC6A57"/>
<path d="M142.419 72.3922C142.419 64.977 136.407 58.9658 128.992 58.9658V85.8182C136.407 85.8186 142.419 79.8074 142.419 72.3922Z" fill="#CE5F51"/>
<path d="M128.992 75.3086C130.603 75.3086 131.908 74.003 131.908 72.3926C131.908 70.7821 130.603 69.4766 128.992 69.4766C127.382 69.4766 126.076 70.7821 126.076 72.3926C126.076 74.003 127.382 75.3086 128.992 75.3086Z" fill="#F0C62E"/>
<path d="M128.992 75.3086C130.603 75.3086 131.908 74.003 131.908 72.3926C131.908 70.7822 130.603 69.4766 128.992 69.4766V75.3086Z" fill="#E0B428"/>
<path d="M129.932 61.55C129.932 62.07 129.51 62.4916 128.99 62.4916C128.47 62.4916 128.049 62.07 128.049 61.55C128.049 61.03 128.47 60.6084 128.99 60.6084C129.51 60.6084 129.932 61.0304 129.932 61.55Z" fill="#F0C62E"/>
<path d="M128.99 62.4916C129.51 62.4916 129.932 62.07 129.932 61.55C129.932 61.03 129.51 60.6084 128.99 60.6084V62.4916Z" fill="#E0B428"/>
<path d="M137.324 65.3915C136.957 65.7591 136.36 65.7591 135.992 65.3915C135.625 65.0239 135.625 64.4279 135.992 64.0599C136.36 63.6923 136.956 63.6923 137.324 64.0599C137.692 64.4275 137.692 65.0239 137.324 65.3915Z" fill="#F0C62E"/>
<path d="M139.834 73.3339C139.314 73.3339 138.893 72.9123 138.893 72.3923C138.893 71.8723 139.314 71.4507 139.834 71.4507C140.354 71.4507 140.776 71.8723 140.776 72.3923C140.776 72.9123 140.354 73.3339 139.834 73.3339Z" fill="#F0C62E"/>
<path d="M135.992 80.725C135.625 80.3574 135.625 79.7614 135.992 79.3934C136.36 79.0258 136.956 79.0258 137.324 79.3934C137.692 79.761 137.692 80.357 137.324 80.725C136.957 81.0926 136.36 81.0926 135.992 80.725Z" fill="#F0C62E"/>
<path d="M128.049 83.2351C128.049 82.7151 128.47 82.2935 128.99 82.2935C129.51 82.2935 129.932 82.7151 129.932 83.2351C129.932 83.7551 129.51 84.1767 128.99 84.1767C128.47 84.1767 128.049 83.7547 128.049 83.2351Z" fill="#F0C62E"/>
<path d="M128.99 84.1762C129.51 84.1762 129.932 83.7546 129.932 83.2346C129.932 82.7146 129.51 82.293 128.99 82.293V84.1762Z" fill="#E0B428"/>
<path d="M121.324 81.0009C121.844 81.0009 122.266 80.5793 122.266 80.0593C122.266 79.5392 121.844 79.1177 121.324 79.1177C120.804 79.1177 120.383 79.5392 120.383 80.0593C120.383 80.5793 120.804 81.0009 121.324 81.0009Z" fill="#F0C62E"/>
<path d="M118.149 71.4512C118.669 71.4512 119.09 71.8728 119.09 72.3928C119.09 72.9128 118.669 73.3344 118.149 73.3344C117.629 73.3344 117.207 72.9128 117.207 72.3928C117.207 71.8728 117.629 71.4512 118.149 71.4512Z" fill="#F0C62E"/>
<path d="M121.99 64.0599C122.357 64.4275 122.357 65.0235 121.99 65.3915C121.622 65.7591 121.026 65.7591 120.659 65.3915C120.291 65.0239 120.291 64.4279 120.659 64.0599C121.026 63.6923 121.622 63.6923 121.99 64.0599Z" fill="#F0C62E"/>
<path d="M128.992 72.7059C128.959 72.7059 128.925 72.7007 128.892 72.6895L122.167 70.4303C122.003 70.3751 121.914 70.1975 121.97 70.0335C122.025 69.8695 122.203 69.7811 122.366 69.8363L128.818 72.0035L132.775 62.7635C132.843 62.6043 133.028 62.5315 133.186 62.5987C133.346 62.6671 133.419 62.8511 133.351 63.0099L129.28 72.5155C129.229 72.6339 129.114 72.7059 128.992 72.7059Z" fill="white"/>
<path d="M133.187 62.5989C133.029 62.5313 132.843 62.6045 132.775 62.7637L128.992 71.5973V72.7061C129.114 72.7061 129.23 72.6341 129.28 72.5161L133.351 63.0105C133.419 62.8513 133.346 62.6673 133.187 62.5989Z" fill="#EFEFED"/>
<path d="M129.934 72.3923C129.934 72.9123 129.512 73.3339 128.992 73.3339C128.472 73.3339 128.051 72.9123 128.051 72.3923C128.051 71.8723 128.472 71.4507 128.992 71.4507C129.512 71.4507 129.934 71.8727 129.934 72.3923Z" fill="white"/>
<path d="M128.992 73.3339C129.512 73.3339 129.934 72.9123 129.934 72.3923C129.934 71.8723 129.512 71.4507 128.992 71.4507V73.3339Z" fill="#EFEFED"/>
<path d="M157.031 162.671H146.75V154.412H157.031L154.478 158.542L157.031 162.671Z" fill="#519B8D"/>
<path d="M152.49 156.966L146.75 154.412V156.966H152.49Z" fill="#59AA9B"/>
<path d="M97.0625 162.671H107.343V154.412H97.0625L99.6157 158.542L97.0625 162.671Z" fill="#59AA9B"/>
<path d="M101.604 156.966L107.344 154.412V156.966H101.604Z" fill="#64B5A5"/>
<path d="M148.851 112.142H105.242V170.119H148.851V112.142Z" fill="#F0C62E"/>
<path d="M148.851 112.142H127.047V170.119H148.851V112.142Z" fill="#E0B428"/>
<path d="M142.701 167.194H111.39V166.894C111.39 165.282 110.078 163.97 108.466 163.97H108.166V118.291H108.466C110.078 118.291 111.39 116.979 111.39 115.366V115.066H142.701V115.366C142.701 116.979 144.013 118.291 145.625 118.291H145.925V163.97H145.625C144.013 163.97 142.701 165.282 142.701 166.895V167.194ZM111.978 166.594H142.113C142.258 164.89 143.621 163.527 145.325 163.382V118.878C143.62 118.734 142.258 117.371 142.113 115.666H111.978C111.833 117.371 110.47 118.734 108.766 118.878V163.382C110.47 163.527 111.833 164.89 111.978 166.594Z" fill="white"/>
<path d="M142.702 115.366V115.066H127.047V115.666H142.115C142.259 117.371 143.622 118.734 145.327 118.878V163.382C143.622 163.527 142.259 164.89 142.115 166.594H127.047V167.194H142.702V166.894C142.702 165.282 144.014 163.97 145.626 163.97H145.926V118.291H145.626C144.014 118.291 142.702 116.979 142.702 115.366Z" fill="#EFEFED"/>
<path d="M152.49 156.965H101.604V165.225H152.49V156.965Z" fill="#6FC4B4"/>
<path d="M152.49 156.965H127.047V165.225H152.49V156.965Z" fill="#62B2A3"/>
<path d="M141.566 130.809L136.92 129.79L135.121 134.195L128.186 120.992L134.631 117.606L141.566 130.809Z" fill="#3D3D84"/>
<path d="M112.525 130.809L117.172 129.79L118.971 134.195L125.906 120.992L119.461 117.606L112.525 130.809Z" fill="#474799"/>
<path d="M140.812 112.746C140.812 114.118 138.549 115.116 138.147 116.354C137.731 117.637 138.96 119.771 138.183 120.839C137.397 121.918 134.983 121.404 133.904 122.189C132.836 122.966 132.583 125.426 131.3 125.842C130.062 126.244 128.417 124.417 127.045 124.417C125.673 124.417 124.027 126.244 122.789 125.842C121.506 125.425 121.253 122.966 120.185 122.189C119.106 121.404 116.691 121.917 115.906 120.839C115.129 119.771 116.358 117.637 115.942 116.353C115.54 115.115 113.277 114.118 113.277 112.745C113.277 111.373 115.54 110.375 115.942 109.137C116.359 107.854 115.129 105.72 115.907 104.652C116.692 103.573 119.106 104.087 120.185 103.302C121.253 102.525 121.506 100.065 122.789 99.6491C124.027 99.2471 125.673 101.075 127.045 101.075C128.417 101.075 130.062 99.2471 131.3 99.6491C132.583 100.066 132.837 102.525 133.905 103.302C134.983 104.087 137.398 103.574 138.183 104.652C138.96 105.72 137.731 107.854 138.147 109.137C138.55 110.376 140.812 111.374 140.812 112.746Z" fill="#DC6A57"/>
<path d="M131.3 125.843C132.583 125.426 132.837 122.967 133.905 122.19C134.983 121.404 137.398 121.918 138.183 120.84C138.96 119.772 137.731 117.637 138.148 116.354C138.55 115.116 140.812 114.118 140.812 112.746C140.812 111.374 138.55 110.377 138.148 109.138C137.731 107.855 138.961 105.721 138.183 104.653C137.398 103.574 134.984 104.088 133.905 103.303C132.837 102.526 132.584 100.066 131.301 99.6496C130.063 99.2476 128.417 101.075 127.045 101.075V124.417C128.417 124.417 130.062 126.245 131.3 125.843Z" fill="#CE5F51"/>
<path d="M127.046 122.436C132.398 122.436 136.736 118.098 136.736 112.746C136.736 107.394 132.398 103.056 127.046 103.056C121.694 103.056 117.355 107.394 117.355 112.746C117.355 118.098 121.694 122.436 127.046 122.436Z" fill="white"/>
<path d="M127.045 122.436C132.397 122.436 136.735 118.098 136.735 112.746C136.735 107.394 132.397 103.056 127.045 103.056V122.436Z" fill="#EFEFED"/>
<path d="M127.045 120.776C122.618 120.776 119.016 117.174 119.016 112.746C119.016 108.319 122.618 104.717 127.045 104.717C131.473 104.717 135.075 108.319 135.075 112.746C135.075 117.174 131.473 120.776 127.045 120.776ZM127.045 105.116C122.838 105.116 119.416 108.539 119.416 112.746C119.416 116.954 122.838 120.376 127.045 120.376C131.253 120.376 134.675 116.953 134.675 112.746C134.675 108.539 131.253 105.116 127.045 105.116Z" fill="#DC6A57"/>
<path d="M135.075 112.746C135.075 108.318 131.473 104.716 127.045 104.716V105.116C131.253 105.116 134.675 108.539 134.675 112.746C134.675 116.954 131.253 120.376 127.045 120.376V120.776C131.473 120.776 135.075 117.174 135.075 112.746Z" fill="#CE5F51"/>
<path d="M127.046 108.171L128.073 111.332H131.397L128.708 113.286L129.735 116.447L127.046 114.493L124.357 116.447L125.385 113.286L122.695 111.332H126.019L127.046 108.171Z" fill="#474799"/>
<path d="M129.734 116.447L128.707 113.286L131.396 111.332H128.072L127.045 108.171V114.493L129.734 116.447Z" fill="#3D3D84"/>
<path d="M136.147 140.254H117.943V141.054H136.147V140.254Z" fill="white"/>
<path d="M136.148 140.254H127.047V141.054H136.148V140.254Z" fill="#EFEFED"/>
<path d="M139.767 145.513H114.324V146.313H139.767V145.513Z" fill="white"/>
<path d="M139.767 150.771H114.324V151.571H139.767V150.771Z" fill="white"/>
<path d="M139.768 145.513H127.047V146.313H139.768V145.513Z" fill="#EFEFED"/>
<path d="M139.768 150.771H127.047V151.571H139.768V150.771Z" fill="#EFEFED"/>
<path d="M106.085 166.683C106.085 166.495 106.121 166.319 106.193 166.155C106.265 165.987 106.361 165.841 106.481 165.717C106.605 165.593 106.747 165.495 106.907 165.423C107.071 165.351 107.245 165.315 107.429 165.315C107.617 165.315 107.793 165.351 107.957 165.423C108.125 165.495 108.271 165.593 108.395 165.717C108.519 165.841 108.617 165.987 108.689 166.155C108.761 166.319 108.797 166.495 108.797 166.683C108.797 166.867 108.761 167.041 108.689 167.205C108.617 167.365 108.519 167.507 108.395 167.631C108.271 167.751 108.125 167.847 107.957 167.919C107.793 167.991 107.617 168.027 107.429 168.027C107.245 168.027 107.071 167.991 106.907 167.919C106.747 167.847 106.605 167.751 106.481 167.631C106.361 167.507 106.265 167.365 106.193 167.205C106.121 167.041 106.085 166.867 106.085 166.683ZM111.557 183.137C111.573 183.137 111.587 183.143 111.599 183.155L111.653 183.203C111.477 183.375 111.287 183.533 111.083 183.677C110.883 183.817 110.663 183.939 110.423 184.043C110.183 184.143 109.919 184.221 109.631 184.277C109.343 184.337 109.025 184.367 108.677 184.367C108.113 184.367 107.593 184.269 107.117 184.073C106.641 183.873 106.229 183.587 105.881 183.215C105.533 182.843 105.261 182.393 105.065 181.865C104.873 181.333 104.777 180.735 104.777 180.071C104.777 179.431 104.873 178.847 105.065 178.319C105.261 177.791 105.535 177.339 105.887 176.963C106.243 176.583 106.667 176.291 107.159 176.087C107.655 175.879 108.201 175.775 108.797 175.775C109.073 175.775 109.333 175.797 109.577 175.841C109.821 175.881 110.051 175.943 110.267 176.027C110.487 176.111 110.697 176.215 110.897 176.339C111.097 176.459 111.293 176.599 111.485 176.759L111.461 176.795C111.453 176.811 111.433 176.819 111.401 176.819C111.373 176.819 111.301 176.771 111.185 176.675C111.073 176.579 110.911 176.473 110.699 176.357C110.487 176.241 110.223 176.135 109.907 176.039C109.595 175.943 109.225 175.895 108.797 175.895C108.229 175.895 107.707 175.993 107.231 176.189C106.759 176.381 106.351 176.659 106.007 177.023C105.667 177.383 105.401 177.821 105.209 178.337C105.017 178.853 104.921 179.431 104.921 180.071C104.921 180.723 105.015 181.307 105.203 181.823C105.395 182.339 105.659 182.777 105.995 183.137C106.331 183.497 106.727 183.773 107.183 183.965C107.643 184.153 108.141 184.247 108.677 184.247C109.017 184.247 109.321 184.223 109.589 184.175C109.857 184.127 110.101 184.057 110.321 183.965C110.545 183.873 110.751 183.761 110.939 183.629C111.131 183.493 111.321 183.339 111.509 183.167C111.529 183.147 111.545 183.137 111.557 183.137ZM118.464 184.139L118.452 184.271H113.544V175.871H118.452V176.003H113.688V179.939H117.732V180.071H113.688V184.139H118.464ZM120.673 180.095H122.365C122.777 180.095 123.147 180.047 123.475 179.951C123.807 179.851 124.089 179.711 124.321 179.531C124.557 179.347 124.737 179.125 124.861 178.865C124.989 178.601 125.053 178.303 125.053 177.971C125.053 177.287 124.831 176.787 124.387 176.471C123.943 176.151 123.305 175.991 122.473 175.991H120.673V180.095ZM125.953 184.271H125.857C125.825 184.271 125.799 184.269 125.779 184.265C125.759 184.257 125.733 184.235 125.701 184.199L122.557 180.431C122.525 180.391 122.491 180.357 122.455 180.329C122.423 180.301 122.385 180.279 122.341 180.263C122.301 180.243 122.251 180.231 122.191 180.227C122.135 180.219 122.065 180.215 121.981 180.215H120.673V184.271H120.529V175.871H122.473C123.349 175.871 124.021 176.041 124.489 176.381C124.961 176.721 125.197 177.251 125.197 177.971C125.197 178.311 125.131 178.619 124.999 178.895C124.867 179.167 124.681 179.399 124.441 179.591C124.201 179.783 123.913 179.933 123.577 180.041C123.245 180.149 122.877 180.207 122.473 180.215C122.513 180.231 122.549 180.253 122.581 180.281C122.613 180.305 122.645 180.335 122.677 180.371L125.953 184.271ZM132.47 176.003H129.314V184.271H129.17V176.003H125.99V175.871H132.47V176.003ZM134.184 184.271H134.04V175.871H134.184V184.271ZM105.497 190.003V194.059H109.661V194.191H105.497V198.271H105.353V189.871H110.261V190.003H105.497ZM112.27 198.271H112.126V189.871H112.27V198.271ZM121.26 197.137C121.276 197.137 121.29 197.143 121.302 197.155L121.356 197.203C121.18 197.375 120.99 197.533 120.786 197.677C120.586 197.817 120.366 197.939 120.126 198.043C119.886 198.143 119.622 198.221 119.334 198.277C119.046 198.337 118.728 198.367 118.38 198.367C117.816 198.367 117.296 198.269 116.82 198.073C116.344 197.873 115.932 197.587 115.584 197.215C115.236 196.843 114.964 196.393 114.768 195.865C114.576 195.333 114.48 194.735 114.48 194.071C114.48 193.431 114.576 192.847 114.768 192.319C114.964 191.791 115.238 191.339 115.59 190.963C115.946 190.583 116.37 190.291 116.862 190.087C117.358 189.879 117.904 189.775 118.5 189.775C118.776 189.775 119.036 189.797 119.28 189.841C119.524 189.881 119.754 189.943 119.97 190.027C120.19 190.111 120.4 190.215 120.6 190.339C120.8 190.459 120.996 190.599 121.188 190.759L121.164 190.795C121.156 190.811 121.136 190.819 121.104 190.819C121.076 190.819 121.004 190.771 120.888 190.675C120.776 190.579 120.614 190.473 120.402 190.357C120.19 190.241 119.926 190.135 119.61 190.039C119.298 189.943 118.928 189.895 118.5 189.895C117.932 189.895 117.41 189.993 116.934 190.189C116.462 190.381 116.054 190.659 115.71 191.023C115.37 191.383 115.104 191.821 114.912 192.337C114.72 192.853 114.624 193.431 114.624 194.071C114.624 194.723 114.718 195.307 114.906 195.823C115.098 196.339 115.362 196.777 115.698 197.137C116.034 197.497 116.43 197.773 116.886 197.965C117.346 198.153 117.844 198.247 118.38 198.247C118.72 198.247 119.024 198.223 119.292 198.175C119.56 198.127 119.804 198.057 120.024 197.965C120.248 197.873 120.454 197.761 120.642 197.629C120.834 197.493 121.024 197.339 121.212 197.167C121.232 197.147 121.248 197.137 121.26 197.137ZM127.843 195.283L125.773 190.315C125.753 190.271 125.735 190.229 125.719 190.189C125.707 190.149 125.693 190.107 125.677 190.063C125.661 190.107 125.645 190.149 125.629 190.189C125.617 190.229 125.601 190.271 125.581 190.315L123.511 195.283H127.843ZM129.241 198.271H129.133C129.097 198.271 129.073 198.251 129.061 198.211L127.891 195.403H123.463L122.293 198.211C122.281 198.251 122.253 198.271 122.209 198.271H122.113L125.617 189.871H125.737L129.241 198.271ZM110.615 204.003H107.459V212.271H107.315V204.003H104.135V203.871H110.615V204.003ZM117.105 212.139L117.093 212.271H112.185V203.871H117.093V204.003H112.329V207.939H116.373V208.071H112.329V212.139H117.105ZM119.901 208.683C119.901 208.495 119.937 208.319 120.009 208.155C120.081 207.987 120.177 207.841 120.297 207.717C120.421 207.593 120.563 207.495 120.723 207.423C120.887 207.351 121.061 207.315 121.245 207.315C121.433 207.315 121.609 207.351 121.773 207.423C121.941 207.495 122.087 207.593 122.211 207.717C122.335 207.841 122.433 207.987 122.505 208.155C122.577 208.319 122.613 208.495 122.613 208.683C122.613 208.867 122.577 209.041 122.505 209.205C122.433 209.365 122.335 209.507 122.211 209.631C122.087 209.751 121.941 209.847 121.773 209.919C121.609 209.991 121.433 210.027 121.245 210.027C121.061 210.027 120.887 209.991 120.723 209.919C120.563 209.847 120.421 209.751 120.297 209.631C120.177 209.507 120.081 209.365 120.009 209.205C119.937 209.041 119.901 208.867 119.901 208.683Z" fill="white"/>
<path d="M99.9999 34.8471L72.9551 24.7319L99.9999 14.6167L127.045 24.7319L99.9999 34.8471Z" fill="#383877"/>
<path d="M127.045 23.6713V24.7321L100.591 14.8377C100.21 14.6953 99.7899 14.6953 99.4091 14.8377L72.9551 24.7321V23.6713C72.9551 23.3897 73.1299 23.1381 73.3935 23.0393L99.4095 13.3089C99.7903 13.1665 100.21 13.1665 100.591 13.3089L126.607 23.0393C126.87 23.1377 127.045 23.3897 127.045 23.6713Z" fill="#474799"/>
<path d="M127.045 24.7319L100 14.6167V34.8471L127.045 24.7319Z" fill="#313168"/>
<path d="M100.591 14.8377L127.045 24.7321V23.6713C127.045 23.3897 126.87 23.1381 126.607 23.0393L100.591 13.3089C100.4 13.2377 100.2 13.2021 100 13.2021V14.7309C100.2 14.7309 100.401 14.7665 100.591 14.8377Z" fill="#40408E"/>
<path d="M83.9316 25.1355C83.9316 24.0683 91.1256 23.2031 99.9996 23.2031C108.874 23.2031 116.068 24.0683 116.068 25.1355V38.8095H83.9316V25.1355Z" fill="#474799"/>
<path d="M116.068 38.8095V25.1355C116.068 24.0683 108.874 23.2031 100 23.2031V38.8099L116.068 38.8095Z" fill="#40408E"/>
<path d="M116.068 38.8098C116.068 39.877 108.874 40.7422 99.9996 40.7422C91.1256 40.7422 83.9316 39.877 83.9316 38.8098C83.9316 37.7426 91.1256 36.8774 99.9996 36.8774C108.874 36.8774 116.068 37.7426 116.068 38.8098Z" fill="#383877"/>
<path d="M116.068 38.8098C116.068 37.7426 108.874 36.8774 100 36.8774V40.7426C108.874 40.7422 116.068 39.877 116.068 38.8098Z" fill="#313168"/>
<path d="M119.644 37.0945C119.915 36.9541 120.102 36.6745 120.102 36.3481C120.102 35.9401 119.813 35.6001 119.428 35.5221V20.3545L119.091 20.2285V35.5221C118.706 35.6001 118.416 35.9405 118.416 36.3485C118.416 36.6737 118.602 36.9525 118.872 37.0933C118.261 37.2757 117.832 37.8781 117.832 38.5425V40.1853C117.832 40.4061 118.011 40.5853 118.232 40.5853H120.286C120.507 40.5853 120.686 40.4061 120.686 40.1853V38.4617C120.686 37.8077 120.244 37.2637 119.644 37.0945Z" fill="#F0C62E"/>
<path d="M119.645 37.0947C119.916 36.9543 120.103 36.6747 120.103 36.3483C120.103 35.9403 119.813 35.6003 119.429 35.5223V20.3547L119.26 20.2915V40.5851H120.287C120.508 40.5851 120.687 40.4059 120.687 40.1851V38.4615C120.687 37.8079 120.245 37.2639 119.645 37.0947Z" fill="#E0B428"/>
<path d="M80.2149 178.66H74.7133C73.8837 178.66 73.2109 177.987 73.2109 177.157V137.057C73.2109 136.227 73.8837 135.555 74.7133 135.555H80.2149C81.0445 135.555 81.7173 136.227 81.7173 137.057V177.158C81.7173 177.987 81.0449 178.66 80.2149 178.66Z" fill="#F0C62E"/>
<path d="M80.2156 135.555H77.4648V178.66H80.2156C81.0452 178.66 81.718 177.987 81.718 177.157V137.057C81.718 136.227 81.0456 135.555 80.2156 135.555Z" fill="#E0B428"/>
<path d="M81.7403 171.749H73.1875V174.073H81.7403V171.749Z" fill="white"/>
<path d="M81.7403 140.142H73.1875V142.466H81.7403V140.142Z" fill="white"/>
<path d="M81.7412 171.749H77.4648V174.073H81.7412V171.749Z" fill="#EFEFED"/>
<path d="M81.7412 140.142H77.4648V142.466H81.7412V140.142Z" fill="#EFEFED"/>
<path d="M78.8296 147.62H76.0996V166.595H78.8296V147.62Z" fill="white"/>
<path d="M78.83 147.62H77.4648V166.595H78.83V147.62Z" fill="#EFEFED"/>
<path d="M52.3325 178.66H46.8305C46.0009 178.66 45.3281 177.987 45.3281 177.157V137.057C45.3281 136.227 46.0005 135.555 46.8305 135.555H52.3325C53.1621 135.555 53.8349 136.227 53.8349 137.057V177.158C53.8349 177.987 53.1625 178.66 52.3325 178.66Z" fill="#4579FB"/>
<path d="M52.3328 135.555H49.582V178.66H52.3328C53.1624 178.66 53.8352 177.987 53.8352 177.157V137.057C53.8352 136.227 53.1628 135.555 52.3328 135.555Z" fill="#306DE5"/>
<path d="M53.8575 171.749H45.3047V174.073H53.8575V171.749Z" fill="white"/>
<path d="M53.8575 140.142H45.3047V142.466H53.8575V140.142Z" fill="white"/>
<path d="M53.8584 171.749H49.582V174.073H53.8584V171.749Z" fill="#EFEFED"/>
<path d="M53.8584 140.142H49.582V142.466H53.8584V140.142Z" fill="#EFEFED"/>
<path d="M50.9468 147.62H48.2168V166.595H50.9468V147.62Z" fill="white"/>
<path d="M50.9472 147.62H49.582V166.595H50.9472V147.62Z" fill="#EFEFED"/>
<path d="M71.6709 178.66H63.9029C63.0525 178.66 62.3633 177.97 62.3633 177.12V144.695C62.3633 143.844 63.0525 143.155 63.9029 143.155H71.6709C72.5213 143.155 73.2105 143.844 73.2105 144.695V177.12C73.2105 177.97 72.5213 178.66 71.6709 178.66Z" fill="#6FC4B4"/>
<path d="M71.6711 143.155H67.7871V178.66H71.6711C72.5215 178.66 73.2107 177.97 73.2107 177.12V144.695C73.2107 143.845 72.5215 143.155 71.6711 143.155Z" fill="#62B2A3"/>
<path d="M73.1875 172.532H62.3867V174.938H73.1875V172.532Z" fill="white"/>
<path d="M73.1875 146.877H62.3867V149.283H73.1875V146.877Z" fill="white"/>
<path d="M73.1875 172.532H67.7871V174.938H73.1875V172.532Z" fill="#EFEFED"/>
<path d="M73.1875 146.877H67.7871V149.283H73.1875V146.877Z" fill="#EFEFED"/>
<path d="M69.2752 152.548H66.2988V169.267H69.2752V152.548Z" fill="white"/>
<path d="M69.2755 152.548H67.7871V169.267H69.2755V152.548Z" fill="#EFEFED"/>
<path d="M60.797 178.66H55.4242C54.559 178.66 53.8574 177.958 53.8574 177.093V133.342C53.8574 132.476 54.559 131.775 55.4242 131.775H60.797C61.6622 131.775 62.3638 132.476 62.3638 133.342V177.093C62.3638 177.958 61.6622 178.66 60.797 178.66Z" fill="#DC6A57"/>
<path d="M60.7977 131.775H58.1113V178.66H60.7977C61.6629 178.66 62.3645 177.958 62.3645 177.093V133.342C62.3645 132.476 61.6629 131.775 60.7977 131.775Z" fill="#CE5F51"/>
<path d="M62.3868 171.708H53.834V174.114H62.3868V171.708Z" fill="white"/>
<path d="M62.3868 136.321H53.834V138.727H62.3868V136.321Z" fill="white"/>
<path d="M62.3877 171.708H58.1113V174.114H62.3877V171.708Z" fill="#EFEFED"/>
<path d="M62.3877 136.321H58.1113V138.727H62.3877V136.321Z" fill="#EFEFED"/>
<path d="M59.5597 142.374H56.6621V168.06H59.5597V142.374Z" fill="white"/>
<path d="M59.5601 142.374H58.1113V168.06H59.5601V142.374Z" fill="#EFEFED"/>
<path d="M89.7332 68.6245H53.5156V116.775H89.7332V68.6245Z" fill="#DC6A57"/>
<path d="M89.7338 68.6245H71.625V116.775H89.7338V68.6245Z" fill="#CE5F51"/>
<path d="M55.916 113.575V71.8244C55.916 71.3824 56.274 71.0244 56.716 71.0244H86.5336C86.9756 71.0244 87.3336 71.3824 87.3336 71.8244V113.575C87.3336 114.017 86.9756 114.375 86.5336 114.375H56.716C56.2744 114.375 55.916 114.017 55.916 113.575Z" fill="#4579FB"/>
<path d="M87.3336 77.8608H55.916V71.8244C55.916 71.3824 56.274 71.0244 56.716 71.0244H86.5336C86.9756 71.0244 87.3336 71.3824 87.3336 71.8244V77.8608Z" fill="#F0C62E"/>
<path d="M87.3338 77.8608H71.625V71.0244H86.5338C86.9758 71.0244 87.3338 71.3824 87.3338 71.8244V77.8608Z" fill="#E0B428"/>
<path d="M60.9213 73.7417V74.5537H61.9784V75.0316H60.9213V76.2041H60.3098V73.2658H62.1809V73.7417H60.9213ZM63.2152 76.2041H62.6037V73.2658H63.2152V76.2041ZM66.3468 73.2658V76.2041H66.033C65.9857 76.2041 65.9459 76.1967 65.9135 76.1818C65.8811 76.1656 65.8494 76.1386 65.8183 76.1008L64.3542 74.2378C64.3583 74.2851 64.361 74.3317 64.3623 74.3776C64.365 74.4235 64.3664 74.466 64.3664 74.5051V76.2041H63.8298V73.2658H64.1497C64.1754 73.2658 64.197 73.2672 64.2145 73.2699C64.2334 73.2712 64.2503 73.276 64.2651 73.2841C64.28 73.2908 64.2942 73.3003 64.3077 73.3124C64.3212 73.3246 64.336 73.3408 64.3522 73.361L65.8264 75.2321C65.821 75.1808 65.817 75.1315 65.8143 75.0843C65.8116 75.0357 65.8102 74.9898 65.8102 74.9466V73.2658H66.3468ZM68.5133 75.0883L68.1954 74.1892C68.1765 74.142 68.1563 74.0866 68.1347 74.0232C68.1144 73.9597 68.0948 73.8909 68.0759 73.8166C68.057 73.8922 68.0368 73.9624 68.0152 74.0272C67.9949 74.0907 67.9754 74.146 67.9565 74.1933L67.6406 75.0883H68.5133ZM69.5339 76.2041H69.0621C69.0095 76.2041 68.9663 76.192 68.9325 76.1677C68.9001 76.142 68.8758 76.1096 68.8596 76.0705L68.6612 75.5095H67.4907L67.2923 76.0705C67.2788 76.1042 67.2551 76.1353 67.2214 76.1636C67.1876 76.1906 67.1451 76.2041 67.0938 76.2041H66.6179L67.7661 73.2658H68.3878L69.5339 76.2041ZM71.5494 75.71V76.2041H69.8059V73.2658H70.4134V75.71H71.5494ZM73.2119 74.734C73.2119 74.8892 73.2322 75.0283 73.2727 75.1511C73.3132 75.2726 73.3712 75.3759 73.4468 75.4609C73.5238 75.546 73.6169 75.6115 73.7263 75.6574C73.8356 75.7019 73.9591 75.7242 74.0968 75.7242C74.2345 75.7242 74.3574 75.7019 74.4654 75.6574C74.5747 75.6115 74.6672 75.546 74.7428 75.4609C74.8198 75.3759 74.8785 75.2726 74.919 75.1511C74.9595 75.0283 74.9797 74.8892 74.9797 74.734C74.9797 74.5801 74.9595 74.4424 74.919 74.3209C74.8785 74.198 74.8198 74.0941 74.7428 74.009C74.6672 73.9226 74.5747 73.8571 74.4654 73.8126C74.3574 73.7667 74.2345 73.7437 74.0968 73.7437C73.9591 73.7437 73.8356 73.7667 73.7263 73.8126C73.6169 73.8571 73.5238 73.9226 73.4468 74.009C73.3712 74.0941 73.3132 74.198 73.2727 74.3209C73.2322 74.4424 73.2119 74.5801 73.2119 74.734ZM75.7594 76.7671H75.2592C75.1863 76.7671 75.1208 76.7576 75.0628 76.7387C75.0061 76.7198 74.9534 76.6847 74.9048 76.6334L74.5059 76.1899C74.3749 76.221 74.2386 76.2365 74.0968 76.2365C73.8714 76.2365 73.6662 76.1987 73.4812 76.1231C73.2963 76.0462 73.1377 75.9409 73.0054 75.8072C72.8731 75.6736 72.7705 75.5149 72.6976 75.3313C72.626 75.1477 72.5902 74.9486 72.5902 74.734C72.5902 74.5193 72.626 74.3209 72.6976 74.1386C72.7705 73.955 72.8731 73.7964 73.0054 73.6627C73.1377 73.5291 73.2963 73.4245 73.4812 73.3489C73.6662 73.2719 73.8714 73.2334 74.0968 73.2334C74.3223 73.2334 74.5275 73.2719 74.7124 73.3489C74.8974 73.4245 75.0553 73.5298 75.1863 73.6648C75.3186 73.7984 75.4205 73.957 75.4921 74.1406C75.565 74.3229 75.6014 74.5207 75.6014 74.734C75.6014 74.8636 75.5879 74.9878 75.5609 75.1066C75.5353 75.224 75.4975 75.3347 75.4475 75.4387C75.3976 75.5413 75.3361 75.6364 75.2632 75.7242C75.1903 75.8119 75.108 75.8889 75.0162 75.955L75.7594 76.7671ZM77.2499 75.7181C77.3484 75.7181 77.4368 75.7019 77.5151 75.6695C77.5934 75.6358 77.6596 75.5885 77.7136 75.5278C77.7676 75.467 77.8088 75.3934 77.8371 75.307C77.8655 75.2206 77.8796 75.1234 77.8796 75.0154V73.2658H78.4871V75.0154C78.4871 75.1936 78.4581 75.3577 78.4001 75.5075C78.3434 75.656 78.2617 75.7843 78.155 75.8923C78.0484 76.0003 77.9188 76.0846 77.7662 76.1454C77.6137 76.2061 77.4416 76.2365 77.2499 76.2365C77.0582 76.2365 76.8854 76.2061 76.7315 76.1454C76.5789 76.0846 76.4493 76.0003 76.3427 75.8923C76.236 75.7843 76.1537 75.656 76.0956 75.5075C76.0389 75.3577 76.0106 75.1936 76.0106 75.0154V73.2658H76.6181V75.0154C76.6181 75.1234 76.6322 75.2206 76.6606 75.307C76.6889 75.3934 76.7301 75.467 76.7841 75.5278C76.8381 75.5885 76.9043 75.6358 76.9826 75.6695C77.0609 75.7019 77.15 75.7181 77.2499 75.7181ZM79.6763 76.2041H79.0647V73.2658H79.6763V76.2041ZM82.3421 73.4886C82.3421 73.5196 82.3367 73.5514 82.3259 73.5838C82.3165 73.6148 82.3023 73.6438 82.2834 73.6708L80.8335 75.7282H82.3016V76.2041H80.0539V75.9672C80.0539 75.9388 80.0586 75.9112 80.0681 75.8842C80.0775 75.8558 80.091 75.8302 80.1086 75.8072L81.5625 73.7417H80.1572V73.2658H82.3421V73.4886Z" fill="black"/>
<path d="M71.625 114.375H86.5338C86.9758 114.375 87.3338 114.017 87.3338 113.575V77.8608H71.625V114.375Z" fill="#306DE5"/>
<path d="M60.1843 83.7901C61.0121 83.7901 61.6831 83.119 61.6831 82.2913C61.6831 81.4635 61.0121 80.7925 60.1843 80.7925C59.3566 80.7925 58.6855 81.4635 58.6855 82.2913C58.6855 83.119 59.3566 83.7901 60.1843 83.7901Z" fill="white"/>
<path d="M60.1843 89.4707C61.0121 89.4707 61.6831 88.7997 61.6831 87.9719C61.6831 87.1442 61.0121 86.4731 60.1843 86.4731C59.3566 86.4731 58.6855 87.1442 58.6855 87.9719C58.6855 88.7997 59.3566 89.4707 60.1843 89.4707Z" fill="white"/>
<path d="M60.1843 95.1519C61.0121 95.1519 61.6831 94.4809 61.6831 93.6531C61.6831 92.8253 61.0121 92.1543 60.1843 92.1543C59.3566 92.1543 58.6855 92.8253 58.6855 93.6531C58.6855 94.4809 59.3566 95.1519 60.1843 95.1519Z" fill="white"/>
<path d="M60.1843 100.833C61.0121 100.833 61.6831 100.162 61.6831 99.3343C61.6831 98.5065 61.0121 97.8354 60.1843 97.8354C59.3566 97.8354 58.6855 98.5065 58.6855 99.3343C58.6855 100.162 59.3566 100.833 60.1843 100.833Z" fill="white"/>
<path d="M60.1843 106.514C61.0121 106.514 61.6831 105.843 61.6831 105.015C61.6831 104.188 61.0121 103.517 60.1843 103.517C59.3566 103.517 58.6855 104.188 58.6855 105.015C58.6855 105.843 59.3566 106.514 60.1843 106.514Z" fill="white"/>
<path d="M60.1843 112.195C61.0121 112.195 61.6831 111.524 61.6831 110.696C61.6831 109.868 61.0121 109.197 60.1843 109.197C59.3566 109.197 58.6855 109.868 58.6855 110.696C58.6855 111.524 59.3566 112.195 60.1843 112.195Z" fill="white"/>
<path d="M58.5371 81.5796L60.1895 82.8816L61.9307 79.8076" stroke="#F7D054" stroke-width="1.5" stroke-miterlimit="10" stroke-linecap="round" stroke-linejoin="round"/>
<path d="M58.5371 87.2608L60.1895 88.5624L61.9307 85.4888" stroke="#F7D054" stroke-width="1.5" stroke-miterlimit="10" stroke-linecap="round" stroke-linejoin="round"/>
<path d="M58.5371 92.9414L60.1895 94.243L61.9307 91.1694" stroke="#F7D054" stroke-width="1.5" stroke-miterlimit="10" stroke-linecap="round" stroke-linejoin="round"/>
<path d="M58.5371 98.6222L60.1895 99.9242L61.9307 96.8506" stroke="#F7D054" stroke-width="1.5" stroke-miterlimit="10" stroke-linecap="round" stroke-linejoin="round"/>
<path d="M58.5371 104.304L60.1895 105.605L61.9307 102.532" stroke="#F7D054" stroke-width="1.5" stroke-miterlimit="10" stroke-linecap="round" stroke-linejoin="round"/>
<path d="M58.5371 109.984L60.1895 111.286L61.9307 108.212" stroke="#F7D054" stroke-width="1.5" stroke-miterlimit="10" stroke-linecap="round" stroke-linejoin="round"/>
<path d="M84.5617 81.1504H63.5469V81.7504H84.5617V81.1504Z" fill="#F0C62E"/>
<path d="M82.2725 82.832H63.5469V83.432H82.2725V82.832Z" fill="#F0C62E"/>
<path d="M78.5121 86.8315H63.5469V87.4315H78.5121V86.8315Z" fill="#F0C62E"/>
<path d="M81.5761 92.5068H63.5469V93.1068H81.5761V92.5068Z" fill="#F0C62E"/>
<path d="M78.5121 94.1924H63.5469V94.7924H78.5121V94.1924Z" fill="#F0C62E"/>
<path d="M84.0321 98.1914H63.5469V98.7914H84.0321V98.1914Z" fill="#F0C62E"/>
<path d="M73.2041 99.877H63.5469V100.477H73.2041V99.877Z" fill="#F0C62E"/>
<path d="M80.0205 103.873H63.5469V104.473H80.0205V103.873Z" fill="#F0C62E"/>
<path d="M81.5761 105.558H63.5469V106.158H81.5761V105.558Z" fill="#F0C62E"/>
<path d="M83.2901 109.553H63.5469V110.153H83.2901V109.553Z" fill="#F0C62E"/>
<path d="M80.0205 111.239H63.5469V111.839H80.0205V111.239Z" fill="#F0C62E"/>
<path d="M83.6805 88.5127H63.5469V89.1127H83.6805V88.5127Z" fill="#F0C62E"/>
<path d="M84.561 81.1504H71.623V81.7504H84.561V81.1504Z" fill="#E0B428"/>
<path d="M82.2718 82.832H71.623V83.432H82.2718V82.832Z" fill="#E0B428"/>
<path d="M78.5114 86.8315H71.623V87.4315H78.5114V86.8315Z" fill="#E0B428"/>
<path d="M83.6798 88.5127H71.623V89.1127H83.6798V88.5127Z" fill="#E0B428"/>
<path d="M81.5754 92.5068H71.623V93.1068H81.5754V92.5068Z" fill="#E0B428"/>
<path d="M78.5114 94.1924H71.623V94.7924H78.5114V94.1924Z" fill="#E0B428"/>
<path d="M83.9675 98.1914H71.623V98.7914H83.9675V98.1914Z" fill="#E0B428"/>
<path d="M73.2034 99.877H71.623V100.477H73.2034V99.877Z" fill="#E0B428"/>
<path d="M80.0198 103.873H71.623V104.473H80.0198V103.873Z" fill="#E0B428"/>
<path d="M81.5754 105.558H71.623V106.158H81.5754V105.558Z" fill="#E0B428"/>
<path d="M83.2899 109.553H71.623V110.153H83.2899V109.553Z" fill="#E0B428"/>
<path d="M80.0198 111.239H71.623V111.839H80.0198V111.239Z" fill="#E0B428"/>
</g>
<defs>
<clipPath id="clip0_463_2191">
<rect width="200" height="200" fill="white"/>
</clipPath>
</defs>
</svg>
