<svg width="36" height="11" viewBox="0 0 36 11" fill="none" xmlns="http://www.w3.org/2000/svg">
<path d="M2.31476 3.40317L2.01562 4.53161L3.72786 3.39675L2.60802 7.67885L3.74533 7.67983L5.39965 1.35498" fill="#3395FF"/>
<path d="M0.471032 5.87967L0 7.67989H2.33103L3.28488 4.01776L0.471032 5.87967ZM8.56822 4.29478C8.51125 4.51182 8.40146 4.67123 8.23774 4.77305C8.0744 4.87466 7.84516 4.92565 7.54925 4.92565H6.60906L6.93917 3.66427H7.87935C8.17486 3.66427 8.37792 3.71487 8.48806 3.81804C8.59823 3.92121 8.62482 4.0789 8.56822 4.29691V4.29478ZM9.54163 4.26966C9.66128 3.81417 9.61189 3.46377 9.39309 3.2185C9.17468 2.97519 8.7914 2.85254 8.24438 2.85254H6.14621L4.88317 7.68202H5.90252L6.41153 5.73543H7.08011C7.23014 5.73543 7.34829 5.76073 7.43451 5.80941C7.52094 5.86001 7.57165 5.94762 7.58721 6.07414L7.76918 7.68202H8.86128L8.68427 6.18316C8.64819 5.84834 8.49871 5.65174 8.23604 5.59333C8.57089 5.49405 8.85142 5.32859 9.07743 5.0989C9.30186 4.87088 9.46223 4.58511 9.54163 4.27161V4.26966ZM12.0195 5.95346C11.934 6.28048 11.803 6.52768 11.6257 6.70093C11.4484 6.87418 11.2364 6.95985 10.9891 6.95985C10.7373 6.95985 10.5665 6.87613 10.4763 6.70678C10.3859 6.53742 10.3828 6.29217 10.4668 5.97097C10.5507 5.64979 10.6846 5.39867 10.8689 5.21765C11.0531 5.03661 11.2685 4.94609 11.5158 4.94609C11.7627 4.94609 11.9317 5.0337 12.0172 5.20752C12.1046 5.38213 12.1065 5.63187 12.021 5.95697L12.0195 5.95346ZM12.4662 4.24436L12.3386 4.73294C12.2835 4.55775 12.1766 4.41759 12.0185 4.31249C11.8601 4.20932 11.6641 4.15675 11.4303 4.15675C11.1435 4.15675 10.8681 4.23267 10.6041 4.3845C10.3401 4.53634 10.1084 4.75047 9.91085 5.02687C9.71332 5.30329 9.56898 5.6167 9.47592 5.96902C9.38473 6.32331 9.36575 6.6328 9.42082 6.90143C9.47782 7.17201 9.59747 7.37835 9.78169 7.52241C9.96784 7.66839 10.2052 7.74041 10.4958 7.74041C10.7267 7.74163 10.9551 7.69043 11.1644 7.59054C11.3714 7.49486 11.5555 7.35401 11.7038 7.17785L11.5709 7.68709H12.5566L13.4567 4.2461H12.4691L12.4662 4.24436ZM16.9989 4.24436H14.1323L13.9319 5.01131H15.5999L13.3948 6.96372L13.2064 7.68397H16.1655L16.3659 6.91702H14.5786L16.8175 4.93539L16.9989 4.24436ZM19.5222 5.94762C19.4335 6.28633 19.3019 6.54093 19.1281 6.70678C18.9543 6.87419 18.7438 6.9579 18.4967 6.9579C17.9801 6.9579 17.8103 6.62114 17.9866 5.94762C18.0739 5.61281 18.2061 5.36111 18.3828 5.19155C18.5594 5.02142 18.7735 4.93656 19.0251 4.93656C19.2721 4.93656 19.4388 5.02085 19.5247 5.19059C19.6105 5.35994 19.6097 5.61242 19.5222 5.94723V5.94762ZM20.0992 4.37379C19.8722 4.22898 19.5826 4.15657 19.2293 4.15657C18.8717 4.15657 18.5406 4.22859 18.236 4.37262C17.9326 4.51578 17.6659 4.72946 17.4573 4.99671C17.2426 5.26729 17.0882 5.58457 16.9934 5.94663C16.9004 6.30734 16.889 6.62405 16.9611 6.89522C17.0333 7.16578 17.1853 7.37407 17.4132 7.51812C17.643 7.66334 17.9355 7.73555 18.2945 7.73555C18.6477 7.73555 18.9763 7.66275 19.2783 7.51791C19.5803 7.37232 19.8386 7.16559 20.0532 6.89307C20.2678 6.62171 20.4217 6.30521 20.5167 5.94313C20.6116 5.58107 20.623 5.26495 20.5509 4.99321C20.4787 4.72263 20.3286 4.51434 20.1026 4.36932L20.0992 4.37379ZM23.6182 5.16352L23.8709 4.22722C23.7855 4.18246 23.6732 4.15909 23.5328 4.15909C23.3068 4.15909 23.0903 4.21631 22.8812 4.33234C22.7017 4.43083 22.549 4.56982 22.4197 4.74385L22.5508 4.23969L22.2646 4.24085H21.5619L20.6559 7.68046H21.6555L22.1256 5.8824C22.194 5.62099 22.317 5.41522 22.4946 5.26924C22.6713 5.12264 22.8915 5.04926 23.1574 5.04926C23.3208 5.04926 23.4727 5.08762 23.6171 5.16412L23.6182 5.16352ZM26.3996 5.96416C26.3142 6.28534 26.185 6.53062 26.0083 6.69997C25.8317 6.87011 25.619 6.95497 25.3722 6.95497C25.1251 6.95497 24.9561 6.86933 24.8668 6.69802C24.7756 6.52576 24.7738 6.27755 24.8592 5.95131C24.9447 5.62525 25.0759 5.37511 25.2561 5.20189C25.4366 5.02726 25.6494 4.94006 25.8963 4.94006C26.1394 4.94006 26.3028 5.0296 26.3902 5.21064C26.4774 5.39166 26.4795 5.64278 26.3954 5.96396L26.3996 5.96416ZM27.0944 4.37945C26.9092 4.22761 26.6726 4.15168 26.386 4.15168C26.1347 4.15168 25.8952 4.2101 25.668 4.32805C25.441 4.44582 25.2568 4.60642 25.1153 4.80965L25.1188 4.78627L25.2865 4.2393H24.3103L24.0614 5.19116L24.0538 5.22425L23.0282 9.14546H24.029L24.5457 7.17162C24.5969 7.34721 24.7014 7.48503 24.861 7.58469C25.0205 7.68397 25.2174 7.73322 25.4518 7.73322C25.7422 7.73322 26.0195 7.66119 26.2827 7.51714C26.5465 7.37271 26.7746 7.16481 26.9683 6.89618C27.1621 6.62756 27.3059 6.3161 27.3976 5.96377C27.4906 5.61086 27.5096 5.2961 27.4564 5.02064C27.4023 4.74481 27.2824 4.53128 27.0975 4.38023L27.0944 4.37945ZM30.4146 5.95014C30.3292 6.27524 30.1982 6.52438 30.0215 6.69569C29.8449 6.86816 29.632 6.954 29.3852 6.954C29.1325 6.954 28.9617 6.87029 28.8724 6.70093C28.7812 6.53158 28.7792 6.28633 28.8628 5.96513C28.9465 5.64395 29.0797 5.39283 29.264 5.21181C29.4482 5.03077 29.6638 4.94045 29.9111 4.94045C30.1579 4.94045 30.3252 5.02804 30.4126 5.20129C30.4998 5.37511 30.5005 5.62486 30.4153 5.95074L30.4146 5.95014ZM30.8609 4.24007L30.733 4.72866C30.678 4.5525 30.5716 4.41234 30.414 4.30821C30.2545 4.20426 30.0589 4.15246 29.8252 4.15246C29.5383 4.15246 29.2615 4.22839 28.9972 4.38023C28.7331 4.53206 28.5015 4.74502 28.3038 5.02064C28.1064 5.29628 27.9619 5.61047 27.8689 5.96279C27.7768 6.31648 27.7587 6.62659 27.8139 6.89637C27.8696 7.165 27.9894 7.37251 28.1748 7.51734C28.3597 7.6614 28.5983 7.7342 28.8888 7.7342C29.1224 7.7342 29.3456 7.68436 29.5573 7.5843C29.764 7.48819 29.9475 7.34716 30.0956 7.17105L29.9625 7.68067H30.9484L31.8482 4.24104H30.8625L30.8609 4.24007ZM35.9866 4.24124L35.9873 4.24026H35.3813C35.3621 4.24026 35.3448 4.24124 35.3272 4.24163H35.0128L34.8514 4.47133L34.8116 4.52582L34.7943 4.55307L33.5171 6.37664L33.253 4.24124H32.207L32.737 7.4862L31.5669 9.14663H32.6097L32.8926 8.73532C32.9007 8.72324 32.9078 8.71313 32.9174 8.70028L33.2479 8.21949L33.2573 8.20585L34.7375 6.05487L35.9852 4.24454L35.9873 4.24337H35.9866V4.24124Z" fill="black"/>
</svg>
