<svg width="72" height="72" viewBox="0 0 72 72" fill="none" xmlns="http://www.w3.org/2000/svg">
<g clip-path="url(#clip0_100_68220)">
<path d="M68.1725 41.9634L68.1515 41.9738C65.6835 43.8665 64.6379 47.0872 65.5163 50.0676L65.5267 50.0886C66.9279 54.8256 63.4563 59.6044 58.5204 59.7299H58.4996C55.3833 59.8136 52.6435 61.8004 51.6082 64.7389V64.7493C49.9559 69.4131 44.3302 71.243 40.2623 68.43C37.7364 66.7052 34.3973 66.6152 31.7398 68.43H31.7294C27.6616 71.2325 22.0357 69.413 20.3939 64.7387C19.8871 63.3045 18.957 62.0578 17.7266 61.1634C16.4962 60.2691 15.0233 59.7692 13.5027 59.7298H13.4817C8.54605 59.6042 5.07416 54.8255 6.47549 50.0884L6.4859 50.0675C7.3641 47.087 6.31841 43.8663 3.85073 41.9736L3.82977 41.9632C-0.0916954 38.9515 -0.0916954 33.0538 3.82977 30.0422L3.85073 30.0318C6.31841 28.1391 7.3641 24.9182 6.47549 21.938V21.917C5.06362 17.18 8.54591 12.401 13.4817 12.2756H13.5027C16.6084 12.1919 19.3586 10.205 20.3939 7.26669V7.25628C22.0355 2.59245 27.6616 0.7625 31.7294 3.57556H31.7398C34.3017 5.3428 37.6897 5.3428 40.2623 3.57556C44.3711 0.738171 49.9656 2.62044 51.6082 7.25628V7.26669C52.6435 10.1946 55.3832 12.1921 58.4996 12.2756H58.5204C63.4562 12.401 66.9279 17.18 65.5267 21.917L65.5163 21.938C64.6379 24.9182 65.6835 28.1391 68.1515 30.0318L68.1725 30.0422C72.0939 33.0538 72.0939 38.9516 68.1725 41.9634Z" fill="#3EB655"/>
<path d="M36.0014 55.4789C46.7593 55.4789 55.4804 46.7579 55.4804 35.9999C55.4804 25.242 46.7593 16.521 36.0014 16.521C25.2435 16.521 16.5225 25.242 16.5225 35.9999C16.5225 46.7579 25.2435 55.4789 36.0014 55.4789Z" fill="#8BD399"/>
<path d="M50.9578 23.5311C47.5886 20.7593 43.278 19.0934 38.5789 19.0934C27.8211 19.0934 19.0953 27.8191 19.0953 38.577C19.0953 43.2761 20.7613 47.5867 23.5329 50.9559C19.2521 47.385 16.5254 42.0135 16.5254 35.9996C16.5254 25.2416 25.2437 16.5234 36.0015 16.5234C42.0155 16.5234 47.387 19.2502 50.9578 23.5311Z" fill="black" fill-opacity="0.0627451"/>
<path d="M31.3669 43.6258L27.0594 39.0431C25.9313 37.8427 25.9895 35.9554 27.1895 34.8273C28.3894 33.6978 30.2776 33.7584 31.4047 34.9579L33.4609 37.1446L42.2012 27.1549C43.2846 25.9152 45.169 25.7894 46.4097 26.8744C47.6494 27.9593 47.7746 29.8431 46.6902 31.0828L35.7841 43.5471C34.6222 44.8737 32.5718 44.9084 31.3669 43.6258Z" fill="white"/>
</g>
<defs>
<clipPath id="clip0_100_68220">
<rect width="72" height="72" fill="white"/>
</clipPath>
</defs>
</svg>
