<svg width="20" height="20" viewBox="0 0 20 20" fill="none" xmlns="http://www.w3.org/2000/svg">
<path d="M19.8288 9.55462L13.8292 2.88831C13.7012 2.74699 13.5225 2.66699 13.3332 2.66699H9.3334C9.20462 2.66713 9.07863 2.70445 8.97054 2.77445C8.86246 2.84446 8.77688 2.94418 8.7241 3.06164C8.61743 3.30296 8.66143 3.58428 8.83742 3.77893L14.4358 9.99993L8.83742 16.2196C8.66143 16.4156 8.6161 16.6969 8.7241 16.9369C8.83209 17.1782 9.07074 17.3329 9.3334 17.3329H13.3332C13.5225 17.3329 13.7012 17.2515 13.8292 17.1129L19.8288 10.4466C20.0568 10.1933 20.0568 9.80661 19.8288 9.55462Z" fill="#4A90EB"/>
<path d="M11.1628 9.55462L5.16314 2.88831C5.03514 2.74699 4.85649 2.66699 4.66716 2.66699H0.66738C0.538605 2.66713 0.412609 2.70445 0.304525 2.77445C0.196442 2.84446 0.110867 2.94418 0.0580799 3.06164C-0.048581 3.30296 -0.00458339 3.58428 0.171407 3.77893L5.76977 9.99993L0.171407 16.2196C-0.00458339 16.4156 -0.0499143 16.6969 0.0580799 16.9369C0.166074 17.1782 0.404728 17.3329 0.66738 17.3329H4.66716C4.85649 17.3329 5.03514 17.2515 5.16314 17.1129L11.1628 10.4466C11.3908 10.1933 11.3908 9.80661 11.1628 9.55462Z" fill="#4A90EB"/>
</svg>
