<svg width="52" height="60" viewBox="0 0 52 60" fill="none" xmlns="http://www.w3.org/2000/svg">
<path d="M3.98033 9.91237C7.17173 10.1448 9.05165 12.2841 9.41399 16.6325C9.60209 12.6855 11.3317 10.3608 14.8478 9.91255C11.6564 9.67999 9.77651 7.54069 9.41399 3.19225C9.22607 7.13929 7.49627 9.46399 3.98033 9.91237ZM14.8478 4.39735C14.9161 3.23815 15.5444 2.55541 16.8215 2.42383C15.6623 2.35543 14.9794 1.72723 14.8478 0.449951C14.7794 1.60915 14.1512 2.29207 12.874 2.42383C14.0332 2.49205 14.7161 3.12025 14.8478 4.39735ZM1.17773 4.71055C2.33693 4.77895 3.01985 5.40715 3.15143 6.68425C3.21983 5.52505 3.84803 4.84213 5.12531 4.71055C3.96611 4.64215 3.28319 4.01395 3.15143 2.73685C3.08303 3.89605 2.45483 4.57897 1.17773 4.71055ZM3.15143 13.6026C3.08321 14.7618 2.45483 15.4445 1.17773 15.5763C2.33693 15.6445 3.01985 16.2729 3.15161 17.55C3.21983 16.3908 3.84821 15.7078 5.12531 15.5763C3.96611 15.5079 3.28319 14.8797 3.15161 13.6024L3.15143 13.6026Z" fill="#FFB120"/>
<g clip-path="url(#clip0_167_3091)">
<path d="M42.6536 16.6083C44.7812 16.7632 46.0344 18.1894 46.276 21.0884C46.4014 18.457 47.5545 16.9072 49.8986 16.6084C47.771 16.4534 46.5177 15.0272 46.276 12.1282C46.1507 14.7596 44.9975 16.3094 42.6536 16.6083ZM49.8986 12.9316C49.944 12.1588 50.363 11.7037 51.2144 11.616C50.4416 11.5704 49.9863 11.1516 49.8986 10.3C49.853 11.0728 49.4342 11.5281 48.5826 11.616C49.3554 11.6614 49.8107 12.0802 49.8986 12.9316ZM40.7852 13.1404C41.558 13.186 42.0132 13.6048 42.101 14.4562C42.1466 13.6834 42.5654 13.2282 43.4169 13.1404C42.6441 13.0948 42.1888 12.676 42.101 11.8246C42.0554 12.5974 41.6366 13.0527 40.7852 13.1404ZM42.101 19.0684C42.0555 19.8412 41.6366 20.2964 40.7852 20.3842C41.558 20.4297 42.0132 20.8486 42.1011 21.7C42.1466 20.9272 42.5655 20.472 43.4169 20.3842C42.6441 20.3386 42.1888 19.9198 42.1011 19.0683L42.101 19.0684Z" fill="#FFB120"/>
</g>
<path d="M17.5381 52.8109C20.3749 53.0175 22.0459 54.9191 22.368 58.7844C22.5352 55.2759 24.0726 53.2095 27.1981 52.8111C24.3613 52.6044 22.6902 50.7028 22.368 46.8375C22.201 50.346 20.6634 52.4124 17.5381 52.8109ZM27.1981 47.9087C27.2587 46.8783 27.8173 46.2714 28.9525 46.1545C27.9221 46.0937 27.315 45.5353 27.1981 44.3999C27.1373 45.4303 26.5789 46.0373 25.4435 46.1545C26.4739 46.2151 27.081 46.7735 27.1981 47.9087ZM15.0469 48.1871C16.0773 48.2479 16.6843 48.8063 16.8013 49.9415C16.8621 48.9111 17.4205 48.3041 18.5558 48.1871C17.5254 48.1263 16.9184 47.5679 16.8013 46.4327C16.7405 47.4631 16.1821 48.0701 15.0469 48.1871ZM16.8013 56.0911C16.7406 57.1215 16.1821 57.7284 15.0469 57.8455C16.0773 57.9061 16.6843 58.4647 16.8014 59.5999C16.8621 58.5695 17.4206 57.9625 18.5558 57.8455C17.5254 57.7847 16.9184 57.2263 16.8014 56.0909L16.8013 56.0911Z" fill="#FFB120"/>
<defs>
<clipPath id="clip0_167_3091">
<rect width="12" height="12" fill="white" transform="translate(40 10)"/>
</clipPath>
</defs>
</svg>
