<svg width="18" height="18" viewBox="0 0 18 18" fill="none" xmlns="http://www.w3.org/2000/svg">
<path d="M14.5425 8.34204C14.4232 8.34204 14.3087 8.38945 14.2243 8.47384C14.1399 8.55823 14.0925 8.67269 14.0925 8.79204V13.4585C14.0917 14.0463 13.8579 14.6097 13.4423 15.0253C13.0267 15.4409 12.4633 15.6747 11.8755 15.6755H4.54278C3.95504 15.6747 3.3916 15.4409 2.976 15.0253C2.56041 14.6097 2.32657 14.0463 2.32578 13.4585V6.12579C2.32657 5.53805 2.56041 4.97461 2.976 4.55901C3.3916 4.14341 3.95504 3.90958 4.54278 3.90879H9.20928C9.32863 3.90879 9.44309 3.86138 9.52748 3.77699C9.61187 3.6926 9.65928 3.57814 9.65928 3.45879C9.65928 3.33944 9.61187 3.22498 9.52748 3.14059C9.44309 3.0562 9.32863 3.00879 9.20928 3.00879H4.54278C3.71648 3.00958 2.92423 3.33813 2.33987 3.92235C1.75551 4.50657 1.42677 5.29873 1.42578 6.12504V13.4578C1.42677 14.2841 1.75551 15.0763 2.33987 15.6605C2.92423 16.2447 3.71648 16.5732 4.54278 16.574H11.8755C12.7017 16.573 13.4938 16.2444 14.078 15.6602C14.6622 15.076 14.9908 14.284 14.9918 13.4578V8.79129C14.9918 8.67194 14.9444 8.55748 14.86 8.47309C14.7756 8.3887 14.6611 8.34129 14.5418 8.34129L14.5425 8.34204Z" fill="black"/>
<path d="M16.1248 1.4248H12.5233C12.404 1.4248 12.2895 1.47222 12.2051 1.55661C12.1207 1.641 12.0733 1.75546 12.0733 1.8748C12.0733 1.99415 12.1207 2.10861 12.2051 2.193C12.2895 2.27739 12.404 2.3248 12.5233 2.3248H15.0388L9.28484 8.07805C9.20535 8.16336 9.16208 8.27619 9.16413 8.39277C9.16619 8.50935 9.21342 8.62058 9.29586 8.70303C9.37831 8.78548 9.48954 8.8327 9.60612 8.83476C9.7227 8.83682 9.83553 8.79354 9.92084 8.71406L15.6741 2.9608V5.4988C15.6741 5.61815 15.7215 5.73261 15.8059 5.817C15.8903 5.90139 16.0047 5.9488 16.1241 5.9488C16.2434 5.9488 16.3579 5.90139 16.4423 5.817C16.5267 5.73261 16.5741 5.61815 16.5741 5.4988V1.8748C16.5741 1.75546 16.5267 1.641 16.4423 1.55661C16.3579 1.47222 16.2442 1.4248 16.1248 1.4248Z" fill="black"/>
</svg>
