<svg width="20" height="20" viewBox="0 0 20 20" fill="none" xmlns="http://www.w3.org/2000/svg">
<g clip-path="url(#clip0_624_2154)">
<path fill-rule="evenodd" clip-rule="evenodd" d="M13.6719 14.6318H18.7891C19.1118 14.6318 19.375 14.895 19.375 15.2178V19.1797C19.375 19.2873 19.2873 19.375 19.1797 19.375H13.6719V14.6318ZM12.4921 4.09312C12.4921 4.19113 12.4862 4.28773 12.4752 4.38281C12.5478 4.3448 12.6142 4.296 12.6721 4.23809C12.7471 4.16323 12.8066 4.07427 12.8472 3.97634C12.8877 3.8784 12.9085 3.77342 12.9084 3.66742V2.17613H12.4921V4.09312ZM8.04734 8.3391H9.26699V7.0425C9.50678 7.10206 9.75293 7.13214 10 7.13207C10.239 7.1321 10.4772 7.10393 10.7096 7.04816V8.33914H11.9292C12.1734 8.33914 12.3731 8.53887 12.3731 8.78301C12.3731 9.02715 12.1734 9.22687 11.9292 9.22687H8.04734C7.8032 9.22687 7.60348 9.02715 7.60348 8.78301C7.60348 8.53887 7.80316 8.3391 8.04734 8.3391ZM12.3205 5.00363C11.9568 5.92961 11.055 6.5852 10 6.5852C8.945 6.5852 8.04316 5.92961 7.67957 5.00363C7.39981 4.95794 7.14152 4.82538 6.94129 4.62473C6.69625 4.37973 6.54473 4.04125 6.54473 3.66742V2.08277C6.54473 1.95852 6.59566 1.84543 6.67773 1.76332L6.67883 1.76227C6.7609 1.6802 6.87398 1.62926 6.99824 1.62926H7.50797V1.04035C7.50797 0.811914 7.69488 0.625 7.92332 0.625H12.0768C12.3052 0.625 12.4921 0.811914 12.4921 1.04035V1.62926H13.0018C13.1268 1.62926 13.2403 1.68023 13.3223 1.76227C13.3645 1.8043 13.3979 1.85426 13.4208 1.90926C13.4436 1.96426 13.4553 2.02322 13.4553 2.08277V3.66742C13.4553 4.04125 13.3038 4.37973 13.0587 4.62473C12.8585 4.82537 12.6002 4.95793 12.3205 5.00363ZM7.5248 4.38281C7.51362 4.28665 7.508 4.18993 7.50797 4.09312V2.17613H7.0916V3.66738C7.09146 3.77338 7.11227 3.87836 7.15282 3.9763C7.19338 4.07423 7.25289 4.16318 7.32793 4.23805C7.38584 4.29599 7.45223 4.34481 7.5248 4.38281ZM10.1115 2.1668C10.0956 2.11758 10.0517 2.08562 10 2.08562C9.94828 2.08562 9.90438 2.11762 9.88848 2.1668L9.68203 2.80637C9.67462 2.83013 9.65975 2.85086 9.63961 2.86548C9.61948 2.88011 9.59516 2.88784 9.57027 2.88754L8.89816 2.88625C8.84645 2.88613 8.80246 2.91805 8.78648 2.96723C8.77051 3.01641 8.78734 3.06805 8.82922 3.09836L9.37371 3.49234C9.39401 3.50673 9.40913 3.52729 9.41682 3.55096C9.4245 3.57462 9.42435 3.60014 9.41637 3.62371L9.20746 4.26254C9.19137 4.31168 9.20813 4.36336 9.24996 4.39375C9.2918 4.42414 9.34613 4.4241 9.38789 4.39363L9.9309 3.99754C9.95085 3.98266 9.97507 3.97463 9.99996 3.97463C10.0248 3.97463 10.0491 3.98266 10.069 3.99754L10.612 4.39363C10.6538 4.4241 10.7081 4.42418 10.75 4.39375C10.7702 4.37935 10.7853 4.35882 10.7929 4.33518C10.8006 4.31155 10.8004 4.28607 10.7925 4.26254L10.5836 3.62371C10.5756 3.60014 10.5754 3.57463 10.5831 3.55096C10.5908 3.52729 10.6059 3.50674 10.6262 3.49234L11.1707 3.09836C11.191 3.084 11.2061 3.06349 11.2138 3.03987C11.2215 3.01625 11.2214 2.99078 11.2135 2.96723C11.206 2.94352 11.1912 2.92284 11.171 2.90826C11.1509 2.89367 11.1266 2.88596 11.1018 2.88625L10.4297 2.88754C10.4048 2.88784 10.3805 2.8801 10.3604 2.86547C10.3402 2.85085 10.3253 2.83012 10.3179 2.80637L10.1115 2.1668ZM15.5321 18.5952H16.492C16.9047 18.5952 17.2413 18.2586 17.2413 17.8459V17.4793C17.2413 17.2989 17.177 17.1329 17.0701 17.0034C17.1809 16.8696 17.2414 16.7013 17.2413 16.5275V16.1609C17.2413 15.7482 16.9047 15.4116 16.492 15.4116H15.5321C15.4596 15.4116 15.39 15.4404 15.3388 15.4917C15.2875 15.543 15.2587 15.6125 15.2587 15.685C15.2587 15.7576 15.2875 15.8271 15.3388 15.8784C15.39 15.9297 15.4596 15.9585 15.5321 15.9585H16.492C16.6028 15.9585 16.6945 16.0501 16.6945 16.1609V16.5275C16.6944 16.5541 16.6891 16.5804 16.6789 16.6049C16.6686 16.6294 16.6536 16.6516 16.6348 16.6703C16.6161 16.6891 16.5938 16.7041 16.5694 16.7144C16.5449 16.7246 16.5186 16.7299 16.492 16.73H15.5321C15.4596 16.73 15.39 16.7588 15.3388 16.81C15.2875 16.8613 15.2587 16.9309 15.2587 17.0034C15.2587 17.0759 15.2875 17.1455 15.3388 17.1967C15.39 17.248 15.4596 17.2768 15.5321 17.2768H16.492C16.5186 17.2769 16.5449 17.2822 16.5694 17.2924C16.5938 17.3027 16.6161 17.3177 16.6348 17.3365C16.6536 17.3552 16.6686 17.3774 16.6788 17.4019C16.6891 17.4264 16.6944 17.4527 16.6945 17.4793V17.8459C16.6945 17.9567 16.6028 18.0483 16.492 18.0483H15.5321C15.4596 18.0483 15.39 18.0771 15.3388 18.1284C15.2875 18.1797 15.2587 18.2492 15.2587 18.3218C15.2587 18.3943 15.2875 18.4638 15.3388 18.5151C15.39 18.5664 15.4596 18.5952 15.5321 18.5952ZM1.21094 13.0679H6.32812V19.375H0.820312C0.768544 19.3749 0.718926 19.3543 0.68232 19.3177C0.645714 19.2811 0.625103 19.2315 0.625 19.1797V13.6539C0.625 13.3311 0.888203 13.0679 1.21094 13.0679ZM3.3357 15.5434C3.3357 15.3688 3.43012 15.2653 3.55297 15.2218C3.67379 15.179 3.8184 15.1813 3.94652 15.2224C4.05992 15.2587 4.15434 15.3234 4.19336 15.4097C4.24234 15.518 4.2073 15.6839 4.02094 15.91C3.94242 16.0052 3.83195 16.095 3.7116 16.193C3.40012 16.4464 3.0323 16.7456 2.7509 17.42C2.73368 17.4615 2.72695 17.5066 2.73132 17.5513C2.73569 17.596 2.75102 17.6389 2.77595 17.6763C2.80089 17.7136 2.83465 17.7442 2.87425 17.7654C2.91385 17.7866 2.95806 17.7977 3.00297 17.7977L4.49711 17.7982C4.56963 17.7982 4.63918 17.7694 4.69046 17.7181C4.74174 17.6668 4.77055 17.5972 4.77055 17.5247C4.77055 17.4522 4.74174 17.3827 4.69046 17.3314C4.63918 17.2801 4.56963 17.2513 4.49711 17.2513H3.45141C3.64445 16.9504 3.86277 16.7727 4.05551 16.6159C4.19723 16.5007 4.3273 16.3948 4.44176 16.256C4.78473 15.84 4.82039 15.4713 4.69109 15.1854C4.58402 14.9484 4.36492 14.7839 4.11312 14.7032C3.87605 14.6273 3.60367 14.6246 3.37137 14.7069C3.04195 14.8236 2.78875 15.0936 2.78875 15.5434C2.78875 15.6159 2.81756 15.6854 2.86884 15.7367C2.92012 15.788 2.98967 15.8168 3.06219 15.8168C3.0981 15.8168 3.13366 15.8098 3.16685 15.796C3.20003 15.7823 3.23019 15.7622 3.25559 15.7368C3.28098 15.7114 3.30113 15.6812 3.31488 15.6481C3.32863 15.6149 3.3357 15.5793 3.3357 15.5434ZM12.5391 10.4019H7.46094C7.1382 10.4019 6.875 10.6651 6.875 10.9879V19.375H13.125V10.9879C13.125 10.6651 12.8618 10.4019 12.5391 10.4019ZM9.72656 15.9334V14.2302L9.70996 14.2468C9.65851 14.2973 9.58923 14.3254 9.51719 14.325C9.44514 14.3246 9.37615 14.2959 9.3252 14.2449C9.27426 14.194 9.24548 14.125 9.24512 14.0529C9.24476 13.9809 9.27285 13.9116 9.32328 13.8602L9.80508 13.3784C9.84314 13.3397 9.89184 13.3132 9.945 13.3023C9.99816 13.2914 10.0534 13.2965 10.1036 13.3171C10.1538 13.3376 10.1968 13.3727 10.227 13.4177C10.2573 13.4628 10.2734 13.5158 10.2734 13.5701V15.9334H10.5639C10.6365 15.9334 10.706 15.9622 10.7573 16.0134C10.8086 16.0647 10.8374 16.1343 10.8374 16.2068C10.8374 16.2793 10.8086 16.3489 10.7573 16.4001C10.706 16.4514 10.6365 16.4802 10.5639 16.4802H9.43602C9.3635 16.4802 9.29395 16.4514 9.24267 16.4001C9.19139 16.3489 9.16258 16.2793 9.16258 16.2068C9.16258 16.1343 9.19139 16.0647 9.24267 16.0134C9.29395 15.9622 9.3635 15.9334 9.43602 15.9334H9.72656Z" fill="#4A90EB"/>
</g>
<defs>
<clipPath id="clip0_624_2154">
<rect width="20" height="20" fill="white"/>
</clipPath>
</defs>
</svg>
