<svg width="32" height="32" viewBox="0 0 32 32" fill="none" xmlns="http://www.w3.org/2000/svg">
<rect width="32" height="32" rx="4" fill="black" fill-opacity="0.15"/>
<rect x="0.375" y="0.375" width="31.25" height="31.25" rx="3.625" stroke="url(#paint0_linear_600_2242)" stroke-opacity="0.7" stroke-width="0.75"/>
<path d="M13.1583 17.2584L18.85 20.5751M18.8417 11.4251L13.1583 14.7417M23.5 10.1667C23.5 11.5475 22.3807 12.6667 21 12.6667C19.6193 12.6667 18.5 11.5475 18.5 10.1667C18.5 8.78604 19.6193 7.66675 21 7.66675C22.3807 7.66675 23.5 8.78604 23.5 10.1667ZM13.5 16.0001C13.5 17.3808 12.3807 18.5001 11 18.5001C9.61929 18.5001 8.5 17.3808 8.5 16.0001C8.5 14.6194 9.61929 13.5001 11 13.5001C12.3807 13.5001 13.5 14.6194 13.5 16.0001ZM23.5 21.8334C23.5 23.2141 22.3807 24.3334 21 24.3334C19.6193 24.3334 18.5 23.2141 18.5 21.8334C18.5 20.4527 19.6193 19.3334 21 19.3334C22.3807 19.3334 23.5 20.4527 23.5 21.8334Z" stroke="white" stroke-width="1.5" stroke-linecap="round" stroke-linejoin="round"/>
<defs>
<linearGradient id="paint0_linear_600_2242" x1="1.92305e-07" y1="0.860293" x2="37.6459" y2="11.9176" gradientUnits="userSpaceOnUse">
<stop stop-color="white"/>
<stop offset="1" stop-color="white" stop-opacity="0.5"/>
</linearGradient>
</defs>
</svg>
