<svg width="41" height="19" viewBox="0 0 41 19" fill="none" xmlns="http://www.w3.org/2000/svg">
<path d="M4.29008 13.6599H4.53342L4.30553 14.6063C4.27076 14.7454 4.27849 14.8535 4.32484 14.923C4.37119 14.9926 4.45617 15.0273 4.58364 15.0273C4.70724 15.0273 4.81153 14.9926 4.89265 14.923C4.97377 14.8535 5.02784 14.7454 5.06261 14.6063L5.29051 13.6599H5.53772L5.30596 14.6295C5.25574 14.8381 5.1669 14.9964 5.03557 15.1007C4.9081 15.205 4.73814 15.2591 4.52956 15.2591C4.32098 15.2591 4.17806 15.2089 4.10081 15.1046C4.02355 15.0003 4.0081 14.8419 4.05832 14.6333L4.29008 13.6599ZM5.50295 15.2166L5.88922 13.5981L6.62312 14.5484C6.64244 14.5754 6.66175 14.6024 6.68106 14.6333C6.70038 14.6642 6.71969 14.699 6.74287 14.7376L7.00166 13.6599H7.22956L6.84329 15.2745L6.09394 14.305L6.036 14.2239C6.01669 14.193 6.00123 14.166 5.98965 14.1312L5.73085 15.2127H5.50295V15.2166ZM7.21025 15.2166L7.58106 13.6599H7.82827L7.45746 15.2166H7.21025ZM7.80896 15.2166L8.17978 13.6599H9.0257L8.97548 13.8763H8.37677L8.28407 14.2625H8.88278L8.8287 14.4827H8.22999L8.05617 15.2127H7.80896V15.2166ZM8.92913 15.2166L9.29995 13.6599H9.54716L9.17634 15.2166H8.92913ZM9.52784 15.2166L9.89866 13.6599H10.7446L10.6944 13.8763H10.0957L10.003 14.2664H10.6017L10.5476 14.4866H9.94887L9.82913 14.9887H10.4278L10.3738 15.2166H9.52784ZM10.6596 15.2166L11.0304 13.6599H11.3626C11.5789 13.6599 11.7296 13.6715 11.8107 13.6947C11.8918 13.7179 11.9613 13.7527 12.0154 13.8067C12.0849 13.8763 12.1313 13.9651 12.1506 14.0694C12.1699 14.1775 12.1622 14.3011 12.1313 14.4363C12.0965 14.5754 12.0463 14.6951 11.9768 14.8033C11.9072 14.9114 11.8184 14.9964 11.7141 15.066C11.6369 15.12 11.5519 15.1548 11.4592 15.178C11.3703 15.2011 11.2351 15.2127 11.0575 15.2127H10.6596V15.2166ZM10.9609 14.9848H11.1695C11.2815 14.9848 11.3703 14.9771 11.4321 14.9617C11.4939 14.9462 11.548 14.9192 11.5982 14.8844C11.6678 14.8342 11.7257 14.7724 11.772 14.6951C11.8184 14.6217 11.8532 14.5329 11.8763 14.4325C11.8995 14.3321 11.9072 14.2471 11.8957 14.1737C11.8841 14.1003 11.857 14.0346 11.8107 13.9844C11.7759 13.9458 11.7334 13.9226 11.6755 13.9072C11.6175 13.8917 11.5287 13.884 11.4012 13.884H11.2236L10.9609 14.9848ZM13.2669 14.5175L13.1008 15.2166H12.869L13.2399 13.6599H13.6145C13.7266 13.6599 13.8038 13.6677 13.854 13.6793C13.9042 13.6908 13.9429 13.7102 13.9738 13.7411C14.0124 13.7758 14.0394 13.826 14.051 13.8878C14.0626 13.9496 14.0587 14.0153 14.0433 14.0887C14.024 14.1621 13.9969 14.2316 13.9545 14.2934C13.912 14.3552 13.8617 14.4054 13.8077 14.4402C13.7613 14.4672 13.7111 14.4904 13.657 14.502C13.603 14.5136 13.518 14.5213 13.4098 14.5213H13.2669V14.5175ZM13.3326 14.3089H13.3944C13.5296 14.3089 13.6261 14.2934 13.6802 14.2625C13.7343 14.2316 13.769 14.1775 13.7884 14.1003C13.8077 14.0192 13.7961 13.9574 13.7575 13.9265C13.715 13.8917 13.63 13.8763 13.5025 13.8763H13.4407L13.3326 14.3089ZM14.8815 15.2166L14.8042 14.8149H14.2017L13.9313 15.2166H13.6725L14.7927 13.5981L15.1403 15.2166H14.8815ZM14.3484 14.6024H14.7695L14.6999 14.2471C14.6961 14.2239 14.6922 14.1969 14.6922 14.1698C14.6884 14.1389 14.6884 14.108 14.6884 14.0733C14.6729 14.108 14.6575 14.1389 14.6381 14.1698C14.6227 14.2007 14.6072 14.2278 14.5918 14.2509L14.3484 14.6024ZM15.4957 15.2166L15.6656 14.5059L15.3566 13.6638H15.6154L15.8085 14.193C15.8124 14.2084 15.8163 14.2239 15.824 14.2471C15.8317 14.2702 15.8356 14.2934 15.8433 14.3166L15.8896 14.2471C15.9051 14.2239 15.9205 14.2046 15.936 14.1853L16.3879 13.6638H16.6351L15.9128 14.502L15.7429 15.2127H15.4957V15.2166ZM17.848 14.4479C17.848 14.4363 17.8519 14.4016 17.8596 14.3475C17.8635 14.3011 17.8673 14.2664 17.8712 14.2355C17.8557 14.2702 17.8403 14.305 17.821 14.3436C17.8017 14.3784 17.7785 14.417 17.7514 14.4518L17.1566 15.2823L16.9635 14.4363C16.9557 14.4016 16.948 14.3668 16.9442 14.3359C16.9403 14.305 16.9364 14.2702 16.9364 14.2393C16.9287 14.2702 16.9171 14.305 16.9055 14.3436C16.8939 14.3784 16.8785 14.417 16.8592 14.4557L16.5115 15.2205H16.2836L17.0291 13.5981L17.2416 14.5793C17.2454 14.5947 17.2493 14.6217 17.2532 14.6565C17.257 14.6913 17.2648 14.7376 17.2725 14.7917C17.2995 14.7454 17.3343 14.6913 17.3806 14.6217C17.3922 14.6024 17.4038 14.5908 17.4077 14.5793L18.0798 13.5981L18.0566 15.2205H17.8287L17.848 14.4479ZM18.2575 15.2166L18.6283 13.6599H19.4742L19.424 13.8763H18.8253L18.7326 14.2664H19.3313L19.2772 14.4866H18.6785L18.5587 14.9887H19.1575L19.1034 15.2166H18.2575ZM19.3854 15.2166L19.7716 13.5981L20.5055 14.5484C20.5248 14.5754 20.5442 14.6024 20.5635 14.6333C20.5828 14.6642 20.6021 14.699 20.6253 14.7376L20.8841 13.6599H21.112L20.7257 15.2745L19.9763 14.305L19.9184 14.2239C19.8991 14.193 19.8836 14.166 19.8721 14.1312L19.6133 15.2127H19.3854V15.2166ZM21.8999 13.8724L21.5793 15.2127H21.3321L21.6527 13.8724H21.251L21.3012 13.6561H22.3519L22.3017 13.8724H21.8999ZM22.1587 14.9037L22.3789 14.811C22.3828 14.8805 22.4021 14.9346 22.4446 14.9694C22.4871 15.0042 22.545 15.0235 22.6223 15.0235C22.6957 15.0235 22.7575 15.0042 22.8115 14.9617C22.8656 14.9192 22.9004 14.8651 22.9158 14.7956C22.939 14.7029 22.8849 14.6217 22.7536 14.5522C22.7343 14.5406 22.7227 14.5329 22.7111 14.529C22.5643 14.4441 22.4716 14.3707 22.433 14.3011C22.3944 14.2316 22.3866 14.1505 22.4098 14.0539C22.4407 13.9265 22.5064 13.826 22.6107 13.7449C22.715 13.6677 22.8308 13.6252 22.9699 13.6252C23.0819 13.6252 23.1708 13.6484 23.2364 13.6908C23.3021 13.7333 23.3369 13.799 23.3484 13.8801L23.1321 13.9805C23.1128 13.9303 23.0896 13.8956 23.0587 13.8724C23.0278 13.8492 22.9892 13.8376 22.9429 13.8376C22.8772 13.8376 22.8193 13.8569 22.7729 13.8917C22.7266 13.9265 22.6957 13.9728 22.6802 14.0346C22.657 14.1273 22.7227 14.2162 22.8733 14.2973C22.8849 14.305 22.8927 14.3089 22.9004 14.3127C23.0317 14.3823 23.1205 14.4518 23.1592 14.5213C23.1978 14.5908 23.2055 14.672 23.1824 14.7763C23.1476 14.923 23.0742 15.0389 22.9622 15.1278C22.8502 15.2127 22.7188 15.2591 22.5643 15.2591C22.4369 15.2591 22.3364 15.2282 22.2669 15.1664C22.1896 15.1046 22.1549 15.0157 22.1587 14.9037ZM23.9781 15.2166L24.3489 13.6599H24.5961L24.2253 15.2166H23.9781ZM24.5806 15.2166L24.9669 13.5981L25.7008 14.5484C25.7201 14.5754 25.7394 14.6024 25.7587 14.6333C25.7781 14.6642 25.7974 14.699 25.8206 14.7376L26.0793 13.6599H26.3072L25.921 15.2745L25.1716 14.305L25.1137 14.2239C25.0944 14.193 25.0789 14.166 25.0673 14.1312L24.8085 15.2127H24.5806V15.2166ZM27.0952 13.8724L26.7746 15.2127H26.5274L26.848 13.8724H26.4463L26.4965 13.6561H27.5472L27.4969 13.8724H27.0952ZM27.3618 15.2166L27.7326 13.6599H28.5824L28.5321 13.8763H27.9334L27.8407 14.2664H28.4394L28.3854 14.4866H27.7866L27.6669 14.9887H28.2656L28.2115 15.2166H27.3618ZM28.8875 14.5175L28.7214 15.2127H28.4896L28.8605 13.6561H29.2042C29.3047 13.6561 29.3819 13.6638 29.4321 13.6754C29.4862 13.687 29.5287 13.7102 29.5596 13.7411C29.5982 13.7797 29.6214 13.826 29.633 13.8878C29.6446 13.9458 29.6407 14.0114 29.6253 14.0848C29.5944 14.2084 29.5442 14.3089 29.4669 14.3784C29.3897 14.4479 29.2931 14.4904 29.1772 14.5059L29.5287 15.2127H29.2506L28.9145 14.5175H28.8875ZM28.9493 14.3205H28.9957C29.127 14.3205 29.2158 14.305 29.266 14.2741C29.3163 14.2432 29.351 14.1891 29.3703 14.108C29.3897 14.023 29.3819 13.9612 29.3433 13.9265C29.3047 13.8917 29.2236 13.8724 29.1 13.8724H29.0536L28.9493 14.3205ZM29.6793 15.2166L30.0502 13.6599H30.8961L30.8459 13.8763H30.2472L30.1545 14.2625H30.7532L30.6991 14.4827H30.1004L29.9266 15.2127H29.6793V15.2166ZM31.7188 15.2166L31.6416 14.8149H31.039L30.7686 15.2166H30.5098L31.63 13.5981L31.9776 15.2166H31.7188ZM31.1819 14.6024H31.603L31.5334 14.2471C31.5296 14.2239 31.5257 14.1969 31.5257 14.1698C31.5218 14.1389 31.5218 14.108 31.5218 14.0733C31.5064 14.108 31.4909 14.1389 31.4716 14.1698C31.4562 14.2007 31.4407 14.2278 31.4253 14.2509L31.1819 14.6024ZM33.5845 14.0385C33.5304 13.9767 33.4648 13.9303 33.3952 13.9033C33.3257 13.8724 33.2484 13.8569 33.1596 13.8569C32.9935 13.8569 32.8467 13.911 32.7154 14.0192C32.5841 14.1273 32.4991 14.2702 32.4566 14.4441C32.418 14.6102 32.4334 14.7492 32.5107 14.8612C32.5841 14.9694 32.6999 15.0235 32.8545 15.0235C32.9433 15.0235 33.0321 15.008 33.121 14.9733C33.2098 14.9424 33.2987 14.8921 33.3914 14.8265L33.3218 15.1123C33.2446 15.1625 33.1635 15.1973 33.0785 15.2205C32.9935 15.2436 32.9085 15.2552 32.8158 15.2552C32.6999 15.2552 32.5957 15.2359 32.5068 15.1973C32.418 15.1587 32.3446 15.1007 32.2866 15.0235C32.2287 14.9501 32.1939 14.8612 32.1785 14.7608C32.163 14.6604 32.1669 14.5522 32.1978 14.4363C32.2248 14.3205 32.2712 14.2162 32.333 14.1157C32.3948 14.0153 32.4759 13.9265 32.5686 13.8531C32.6613 13.7758 32.7618 13.7179 32.8699 13.6793C32.9781 13.6406 33.0862 13.6213 33.1982 13.6213C33.2871 13.6213 33.3682 13.6329 33.4454 13.6599C33.5188 13.687 33.5884 13.7256 33.6502 13.7797L33.5845 14.0385ZM33.6077 15.2166L33.9785 13.6599H34.8244L34.7742 13.8763H34.1755L34.0828 14.2664H34.6815L34.6274 14.4866H34.0287L33.909 14.9887H34.5077L34.4536 15.2166H33.6077Z" fill="#3D3D3C"/>
<path d="M29.1107 12.3044H27.415L29.7712 3.79492H31.4669L29.1107 12.3044ZM28.23 4.06145C28.1141 3.89921 27.9326 3.8181 27.6853 3.8181H18.3686L17.9089 5.48677H26.3836L25.8892 7.26745H19.1102V7.26359H17.4145L16.0085 12.343H17.7042L18.6467 8.93612H26.2677C26.5072 8.93612 26.7313 8.85501 26.9398 8.69278C27.1484 8.53054 27.2875 8.32969 27.3532 8.0902L28.2956 4.68333C28.369 4.4284 28.3459 4.22368 28.23 4.06145ZM15.0197 11.7713C14.927 12.1074 14.618 12.343 14.2703 12.343H5.52912C5.28963 12.343 5.11195 12.2619 4.99607 12.0996C4.88019 11.9374 4.85315 11.7366 4.92268 11.4971L7.05487 3.8181H8.75058L6.84628 10.6782H13.6291L15.5334 3.8181H17.2291L15.0197 11.7713Z" fill="#70706E"/>
<path d="M34.3952 3.81006L36.539 8.07444L32.0312 12.3388L34.3952 3.81006Z" fill="#098041"/>
<path d="M32.8893 3.81006L35.0331 8.07444L30.5215 12.3388L32.8893 3.81006Z" fill="#E97626"/>
</svg>
