<svg width="36" height="36" viewBox="0 0 36 36" fill="none" xmlns="http://www.w3.org/2000/svg">
<g clip-path="url(#clip0_1197_192)">
<path d="M31.1644 29.883C33.6981 26.8836 35.2263 23.0074 35.2263 18.7736C35.2263 9.2597 27.5138 1.54712 17.9999 1.54712C8.48594 1.54712 0.773438 9.2597 0.773438 18.7736C0.773438 23.0269 2.31574 26.9193 4.87041 29.9243L31.1644 29.883Z" fill="#FFB120"/>
<path d="M23.9888 26.7131C21.7464 30.5078 18.1308 30.5411 18.1308 30.5411C18.1308 30.5411 14.5184 30.5078 12.2759 26.7176C12.2252 26.7799 12.1715 26.8397 12.1151 26.8969C11.8166 26.966 11.5197 27.042 11.2246 27.1247C11.3902 27.1964 11.5287 27.3189 11.62 27.4745C12.9989 29.8296 15.403 32.6426 18.1386 32.6426C20.8742 32.6426 23.2783 29.8296 24.6572 27.4745C24.7479 27.3201 24.885 27.1982 25.0491 27.1262C24.7523 27.0429 24.4536 26.9664 24.1532 26.8969C24.0955 26.8383 24.0406 26.777 23.9888 26.7131Z" fill="#FCAD6D"/>
<path d="M16.0919 30.0698C14.9003 29.594 13.4123 28.6384 12.2759 26.7178C12.2252 26.7801 12.1716 26.8399 12.1151 26.8971C11.8166 26.9663 11.5197 27.0423 11.2246 27.125C11.3902 27.1967 11.5287 27.3192 11.62 27.4748C12.4189 28.8395 13.5622 30.3577 14.9147 31.3935C14.9849 31.3666 15.0449 31.3407 15.0922 31.3153C15.6165 31.0342 15.9308 30.458 16.0919 30.0698Z" fill="#FD995B"/>
<path d="M27.3379 7.19738C27.3379 5.27567 26.2308 4.47938 25.4984 4.16291C25.1294 4.00337 24.8412 3.71242 24.6946 3.34918C24.3742 2.55514 23.4681 1.17927 20.9346 0.338471C17.2098 -0.897763 13.8989 1.6145 12.1192 2.09305C10.9488 2.4077 10.0291 1.71357 9.53646 1.20135C9.32826 0.984854 8.95814 1.05039 8.83994 1.32264C8.45526 2.20871 7.8948 3.95134 8.40759 5.76357C8.43902 5.8746 8.32652 5.9736 8.21395 5.93499C8.08361 5.89033 7.95366 5.84451 7.82414 5.79753C7.71417 5.75774 7.60448 5.85709 7.63943 5.96509C8.07283 7.30468 8.49295 8.06884 8.86996 8.48101C9.03682 8.6634 9.14833 8.88721 9.17716 9.12873C9.2332 9.59919 9.32728 10.1007 9.48232 10.5652C9.71118 11.2511 9.85469 11.9618 9.89604 12.6837C9.89653 12.6922 9.89688 12.6971 9.89716 12.6981H26.5559C26.5567 12.6946 26.5576 12.6826 26.5586 12.6634C26.5991 11.9555 26.7371 11.2563 26.9642 10.5846C27.4701 9.08809 27.3379 7.19738 27.3379 7.19738Z" fill="#41416B"/>
<path d="M14.4268 8.06016C14.4268 8.06016 15.9744 6.20637 14.8962 4.11429C13.8179 2.02221 16.425 0.370361 16.425 0.370361C14.6327 0.895033 13.1292 1.82161 12.1192 2.09316C10.9489 2.40788 10.0291 1.71368 9.53646 1.20146C9.32826 0.984963 8.95814 1.05049 8.83994 1.32274C8.45526 2.20882 7.8948 3.95145 8.40759 5.76368C8.43902 5.87471 8.32652 5.9737 8.21395 5.9351C8.08361 5.89044 7.95366 5.84462 7.82414 5.79764C7.71417 5.75785 7.60448 5.8572 7.63943 5.9652C8.07283 7.30479 8.49295 8.06902 8.86996 8.48112C9.03682 8.66351 9.14833 8.88731 9.17716 9.12884C9.2332 9.5993 9.32728 10.1007 9.48232 10.5653C9.71118 11.2512 9.85469 11.9619 9.89604 12.6838C9.89653 12.6923 9.89688 12.6972 9.89716 12.6982H13.4102L14.4268 8.06016Z" fill="#35355E"/>
<path d="M27.0882 12.6239C26.7146 12.2816 25.9705 12.4551 25.6487 12.6648C25.7189 13.1055 25.7235 13.5542 25.6624 13.9962L25.2827 16.7615C25.2827 16.9844 25.2756 17.2032 25.2627 17.418C26.1886 17.6973 26.6484 16.8661 26.7259 16.2957C26.7592 16.0502 26.8139 15.808 26.8894 15.572C27.1358 14.8028 28.0242 13.4817 27.0882 12.6239Z" fill="#FCAD6D"/>
<path d="M26.3851 15.2403C26.0415 15.2403 25.7379 15.0719 25.5501 14.814L25.2827 16.7615C25.2827 16.9844 25.2756 17.2031 25.2627 17.418C26.1886 17.6973 26.6484 16.8661 26.7259 16.2957C26.7592 16.0501 26.8139 15.8079 26.8894 15.5719C26.9531 15.3729 27.0599 15.1368 27.1669 14.8815C26.9774 15.1009 26.6978 15.2403 26.3851 15.2403Z" fill="#FD995B"/>
<path d="M9.17411 12.6239C9.54768 12.2816 10.2919 12.4551 10.6136 12.6648C10.5434 13.1055 10.5388 13.5542 10.6 13.9962L10.9797 16.7615C10.9797 16.9844 10.9868 17.2032 10.9997 17.418C10.0739 17.6973 9.61398 16.8661 9.5365 16.2957C9.50322 16.0502 9.44852 15.808 9.37302 15.572C9.12658 14.8028 8.23811 13.4817 9.17411 12.6239Z" fill="#FCAD6D"/>
<path d="M25.1712 11.2285C24.9412 10.8678 24.8401 10.4412 24.8709 10.0157C24.8928 9.71553 24.9009 9.41451 24.8952 9.1136C24.8924 9.06572 24.8911 9.01777 24.8912 8.96981C24.8877 8.87228 24.8822 8.773 24.8749 8.6726C24.7848 7.77646 24.3031 7.13107 23.9196 6.75166C23.6634 6.49825 23.2685 6.44847 22.953 6.62242C18.2113 9.23707 14.2816 8.27111 12.1658 7.3188C11.9094 7.20342 11.6137 7.35297 11.5463 7.62593C11.3353 8.48135 11.346 9.40638 11.3916 10.0262C11.4226 10.4483 11.3187 10.8706 11.0905 11.2286C10.959 11.4349 10.8538 11.6533 10.7697 11.8694C10.4967 12.5705 10.4172 13.3309 10.5194 14.0755L10.8992 16.8414C10.8992 16.8464 10.8994 16.8512 10.8994 16.8562C11.2898 17.995 12.0799 19.6275 13.4915 20.0909L13.5093 20.096C14.3588 20.3401 15.0156 21.0102 15.2941 21.8648C15.6875 23.0718 16.8038 23.3927 18.1306 23.3927C19.4581 23.3927 20.5736 23.0716 20.967 21.8652C21.2456 21.0105 21.9023 20.3402 22.7519 20.096L22.7698 20.0909C24.1815 19.6274 24.9717 17.9946 25.3623 16.8558C25.3623 16.8509 25.3625 16.8462 25.3625 16.8414L25.7422 14.0761C25.8434 13.3389 25.7666 12.5859 25.5 11.8903C25.4146 11.6672 25.3069 11.4414 25.1712 11.2285Z" fill="#F9BA8F"/>
<path d="M9.8766 15.2403C10.2202 15.2403 10.5238 15.0719 10.7116 14.814L10.979 16.7615C10.979 16.9844 10.9861 17.2031 10.9989 17.418C10.0731 17.6973 9.61321 16.8661 9.53573 16.2957C9.50246 16.0501 9.44773 15.8079 9.37218 15.5719C9.30848 15.3729 9.20174 15.1368 9.09473 14.8815C9.28429 15.1009 9.56392 15.2403 9.8766 15.2403Z" fill="#FD995B"/>
<path d="M13.6832 14.0755C13.5626 12.9678 13.7786 11.9358 14.1359 11.2286C14.3168 10.8707 14.3992 10.4484 14.3746 10.0262C14.3446 9.51035 14.3338 8.7829 14.4273 8.06015C13.651 7.89361 12.8944 7.6457 12.17 7.32054C11.9119 7.20452 11.6147 7.35119 11.5469 7.62583C11.3357 8.48133 11.3466 9.40643 11.3921 10.0262C11.4231 10.4484 11.3191 10.8706 11.091 11.2286C10.6342 11.9453 10.3694 12.9791 10.5199 14.0755L10.8997 16.8414C10.8997 16.8464 10.8999 16.8513 10.9 16.8562C11.2905 17.995 12.0805 19.6274 13.4921 20.0908L13.5099 20.096C13.9143 20.2122 14.2742 20.4257 14.5712 20.7089C14.2124 19.5925 13.9844 18.3034 13.9844 16.8414L13.6832 14.0755Z" fill="#FCAD6D"/>
<path d="M20.7223 13.9892C20.7223 13.8591 20.7466 13.7353 20.7901 13.6227C20.6209 13.7057 20.4843 13.7997 20.3871 13.8791C20.1601 14.0642 19.7656 14.299 19.5495 14.4231C19.5087 14.4465 19.5253 14.5089 19.5724 14.5089H19.5938C19.7942 14.5089 19.9936 14.5402 20.184 14.6029C20.4878 14.7033 20.8032 14.764 21.1225 14.7836C20.8824 14.6189 20.7223 14.3249 20.7223 13.9892ZM23.4095 14.1929C23.0149 13.8227 22.6356 13.6091 22.2848 13.501C22.3637 13.6431 22.4093 13.8102 22.4093 13.9892C22.4093 14.2818 22.2876 14.5427 22.0974 14.7139C22.3846 14.6546 22.6088 14.572 22.7475 14.5088C23.0322 14.3792 23.2476 14.3264 23.3756 14.305C23.4289 14.2961 23.4488 14.2298 23.4095 14.1929Z" fill="#FFF5EE"/>
<path d="M20.7371 13.6498C20.6875 13.7629 20.662 13.8851 20.6621 14.0086C20.6621 14.339 20.841 14.6273 21.107 14.7828C21.4447 14.8048 21.7839 14.7804 22.115 14.7105C22.2209 14.6267 22.3064 14.52 22.3652 14.3985C22.4239 14.2769 22.4544 14.1436 22.4543 14.0086C22.4543 13.8223 22.3974 13.6493 22.3 13.506C21.6575 13.3026 21.1094 13.4543 20.7371 13.6498Z" fill="#41416B"/>
<path d="M21.892 14.0649C21.892 14.156 21.8558 14.2434 21.7914 14.3078C21.727 14.3722 21.6396 14.4084 21.5486 14.4084C21.4575 14.4084 21.3701 14.3722 21.3057 14.3078C21.2413 14.2434 21.2051 14.156 21.2051 14.0649C21.2051 13.9738 21.2413 13.8865 21.3057 13.822C21.3701 13.7576 21.4575 13.7214 21.5486 13.7214C21.6396 13.7214 21.727 13.7576 21.7914 13.822C21.8558 13.8865 21.892 13.9738 21.892 14.0649Z" fill="#35355E"/>
<path d="M24.1686 12.9209C24.1172 12.5835 23.9128 11.7992 23.1149 11.6179C22.3093 11.4348 20.6105 11.7799 19.9227 11.9354C19.8328 11.9558 19.7501 12.0002 19.6836 12.064C19.6171 12.1278 19.5692 12.2086 19.5451 12.2975L19.4034 12.8201C19.4007 12.8302 19.4007 12.8408 19.4034 12.8509C19.4061 12.861 19.4114 12.8702 19.4189 12.8776C19.4263 12.8849 19.4355 12.8902 19.4457 12.8929C19.4558 12.8955 19.4664 12.8954 19.4765 12.8926C19.9979 12.7463 22.399 12.097 23.1304 12.3316C23.6882 12.5105 23.9746 12.7894 24.1013 12.9502C24.1253 12.9808 24.1745 12.9594 24.1686 12.9209Z" fill="#41416B"/>
<path d="M15.7235 13.9892C15.7237 13.8639 15.7007 13.7396 15.6557 13.6227C15.7992 13.6928 15.9344 13.7788 16.0588 13.8791C16.2857 14.0642 16.6803 14.299 16.8963 14.4231C16.9371 14.4465 16.9204 14.5089 16.8733 14.5089H16.852C16.6516 14.5089 16.4522 14.5402 16.2618 14.6029C15.958 14.7033 15.6426 14.764 15.3233 14.7836C15.5634 14.6189 15.7235 14.3249 15.7235 13.9892ZM13.0363 14.1929C13.4309 13.8227 13.8102 13.6091 14.161 13.501C14.0821 13.6431 14.0364 13.8102 14.0364 13.9892C14.0364 14.2818 14.1581 14.5427 14.3483 14.7139C14.0612 14.6546 13.837 14.572 13.6982 14.5088C13.4135 14.3792 13.1982 14.3264 13.0701 14.305C13.0168 14.2961 12.9969 14.2298 13.0363 14.1929Z" fill="#FFF5EE"/>
<path d="M15.7085 13.6498C15.758 13.7629 15.7835 13.8851 15.7834 14.0086C15.7834 14.339 15.6045 14.6273 15.3385 14.7828C15.0008 14.8048 14.6616 14.7804 14.3305 14.7105C14.2246 14.6267 14.1391 14.52 14.0803 14.3985C14.0216 14.2769 13.9911 14.1436 13.9912 14.0086C13.9912 13.8223 14.0481 13.6493 14.1455 13.506C14.7881 13.3026 15.3361 13.4543 15.7085 13.6498Z" fill="#41416B"/>
<path d="M14.5527 14.0649C14.5527 14.156 14.5889 14.2434 14.6533 14.3078C14.7178 14.3722 14.8051 14.4084 14.8962 14.4084C14.9873 14.4084 15.0747 14.3722 15.1391 14.3078C15.2035 14.2434 15.2397 14.156 15.2397 14.0649C15.2397 13.9738 15.2035 13.8865 15.1391 13.822C15.0747 13.7576 14.9873 13.7214 14.8962 13.7214C14.8051 13.7214 14.7178 13.7576 14.6533 13.822C14.5889 13.8865 14.5527 13.9738 14.5527 14.0649Z" fill="#35355E"/>
<path d="M12.2768 12.9209C12.3282 12.5835 12.5326 11.7992 13.3305 11.6179C14.1361 11.4348 15.8349 11.7799 16.5227 11.9354C16.6126 11.9558 16.6953 12.0002 16.7618 12.064C16.8284 12.1278 16.8762 12.2086 16.9003 12.2975L17.042 12.8201C17.0447 12.8302 17.0447 12.8408 17.042 12.8509C17.0393 12.8611 17.034 12.8703 17.0265 12.8776C17.0191 12.885 17.0098 12.8903 16.9997 12.8929C16.9896 12.8955 16.9789 12.8954 16.9689 12.8926C16.4474 12.7463 14.0464 12.097 13.3149 12.3316C12.7571 12.5105 12.4707 12.7894 12.3441 12.9502C12.3202 12.9808 12.271 12.9594 12.2768 12.9209Z" fill="#41416B"/>
<path d="M20.2355 20.9376L19.4685 21.24C19.3822 21.274 19.287 21.2779 19.1982 21.2512L18.3143 20.9846L17.4305 21.2512C17.3417 21.2779 17.2464 21.274 17.1601 21.24L16.3932 20.9376C16.293 20.8964 16.2131 20.8174 16.1706 20.7177C16.1282 20.618 16.1267 20.5057 16.1664 20.4049C16.2062 20.3041 16.284 20.223 16.383 20.1791C16.482 20.1352 16.5944 20.132 16.6957 20.1703L17.3294 20.4202L18.1914 20.1602C18.2714 20.135 18.3573 20.1351 18.4373 20.1603L19.2991 20.4202L19.9328 20.1703C20.0343 20.1317 20.1468 20.1347 20.246 20.1786C20.3452 20.2224 20.4232 20.3036 20.463 20.4045C20.5028 20.5054 20.5012 20.618 20.4587 20.7178C20.4161 20.8175 20.3359 20.8965 20.2355 20.9376Z" fill="#FCAD6D"/>
<path d="M21.2616 11.6801C20.7272 11.7609 20.2259 11.8666 19.922 11.9353C19.8321 11.9556 19.7494 12.0001 19.6829 12.0639C19.6164 12.1277 19.5685 12.2084 19.5444 12.2974L19.4027 12.82C19.4 12.8301 19.4 12.8407 19.4027 12.8508C19.4054 12.8609 19.4108 12.8701 19.4182 12.8775C19.4256 12.8849 19.4349 12.8901 19.445 12.8928C19.4551 12.8954 19.4658 12.8953 19.4759 12.8924C19.765 12.8113 20.6319 12.5758 21.4717 12.4218C21.1262 12.3551 20.9997 11.9213 21.2616 11.6801ZM14.6948 11.6156C14.1762 11.5577 13.6727 11.5401 13.3305 11.6178C12.5326 11.7992 12.3282 12.5834 12.2768 12.9209C12.271 12.9592 12.3201 12.9807 12.3441 12.9502C12.4708 12.7893 12.7572 12.5104 13.315 12.3316C13.5934 12.2423 14.1137 12.2812 14.6801 12.3714C14.3854 12.2004 14.3949 11.774 14.6948 11.6156Z" fill="#35355E"/>
<path d="M25.5201 15.6975C25.5201 15.6975 24.8562 19.2792 22.6708 19.9966L22.6534 20.0015C21.8219 20.2405 21.1794 20.8964 20.9067 21.7328C20.5219 22.9134 19.4303 23.2276 18.1312 23.2276C16.8328 23.2276 15.7405 22.9135 15.3556 21.7324C15.083 20.8961 14.4403 20.2404 13.6091 20.0015L13.5916 19.9966C11.4063 19.2792 10.7427 15.6975 10.7427 15.6975C9.06288 30.675 18.1312 30.7577 18.1312 30.7577C18.1312 30.7577 27.2 30.675 25.5201 15.6975Z" fill="#41416B"/>
<path d="M18.5785 21.9285H18.0491C17.9397 21.9285 17.8348 21.9719 17.7575 22.0492C17.6802 22.1266 17.6367 22.2315 17.6367 22.3408C17.6367 22.4502 17.6802 22.5551 17.7575 22.6324C17.8348 22.7098 17.9397 22.7532 18.0491 22.7532H18.5785C18.6879 22.7532 18.7927 22.7098 18.8701 22.6324C18.9474 22.5551 18.9909 22.4502 18.9909 22.3408C18.9909 22.2315 18.9474 22.1266 18.8701 22.0492C18.7927 21.9719 18.6879 21.9285 18.5785 21.9285Z" fill="#FCAD6D"/>
<path d="M13.5915 20.1399L13.6089 20.1449C14.1736 20.3072 14.6508 20.6621 14.9845 21.135L15.37 20.8789C15.5914 20.7318 15.8524 20.6519 16.1181 20.6604C17.0417 20.69 17.8509 20.4208 18.1698 20.2976C18.2627 20.2615 18.3658 20.2615 18.4587 20.2976C18.7776 20.4208 19.5868 20.69 20.5104 20.6604C20.7761 20.6519 21.0371 20.7318 21.2585 20.8789L21.4016 20.974C21.7253 20.582 22.1549 20.2882 22.6533 20.145L22.6707 20.14C22.8764 20.0725 23.0686 19.9795 23.2481 19.8666C22.6203 18.7927 21.1818 17.2837 18.3143 18.3238C15.3064 17.2328 13.8706 18.9465 13.2939 20.0208C13.3905 20.0667 13.4899 20.1065 13.5915 20.1399Z" fill="#41416B"/>
<path d="M16.9309 18.0986L17.2453 18.0324C17.8294 18.6094 18.8003 18.6085 19.3835 18.0324L19.6979 18.0986C19.7518 18.1099 19.8073 18.1106 19.8613 18.1004C19.9154 18.0903 19.9669 18.0696 20.013 18.0396C20.0591 18.0095 20.0987 17.9707 20.1298 17.9253C20.1609 17.88 20.1827 17.8289 20.194 17.7751C20.2054 17.7213 20.206 17.6657 20.1958 17.6117C20.1857 17.5576 20.165 17.5061 20.135 17.46C20.105 17.414 20.0661 17.3743 20.0207 17.3432C19.9754 17.3121 19.9243 17.2903 19.8705 17.279L19.3064 17.1602C19.1226 17.1216 18.9434 17.1953 18.8567 17.3615C18.6286 17.7144 18.0007 17.7149 17.7721 17.3615C17.6854 17.1953 17.5062 17.1217 17.3225 17.1602L16.7583 17.279C16.6496 17.3019 16.5545 17.367 16.4938 17.46C16.4331 17.5531 16.4119 17.6664 16.4348 17.7751C16.4576 17.8838 16.5228 17.9789 16.6158 18.0396C16.7088 18.1003 16.8222 18.1215 16.9309 18.0986Z" fill="#FCAD6D"/>
<path d="M18.0003 36.0001C23.3136 36.0001 28.0644 33.5939 31.2243 29.8125C30.7968 29.7121 30.468 29.4919 29.8812 29.161C28.4347 28.3454 26.9687 27.5867 25.4065 27.0914C25.0401 26.9752 24.6402 27.1296 24.446 27.4613C23.111 29.7414 20.7833 32.465 18.1348 32.465C15.4862 32.465 13.1585 29.7415 11.8235 27.4613C11.6292 27.1296 11.2294 26.9752 10.863 27.0914C9.30084 27.5866 7.83482 28.3454 6.38842 29.161C5.69957 29.5494 5.36643 29.7855 4.81152 29.8541C7.97144 33.6115 12.7066 36.0001 18.0003 36.0001Z" fill="#FFF5EE"/>
<path d="M11.8235 27.4613C11.6292 27.1295 11.2294 26.9752 10.863 27.0914C9.30084 27.5866 7.83482 28.3454 6.38842 29.161C5.69957 29.5494 5.36643 29.7855 4.81152 29.8541C6.20772 31.5146 7.90368 32.8977 9.81102 33.9314C11.3928 32.1289 14.4303 31.6704 15.0928 31.3152L15.0929 31.3152C13.7488 30.3115 12.6126 28.8091 11.8235 27.4613Z" fill="#FCE6D6"/>
<path d="M15.9511 18.0151C14.4997 18.2331 13.6921 19.2792 13.2939 20.0209C13.3905 20.0668 13.4899 20.1066 13.5915 20.1401L13.6089 20.145C14.1736 20.3073 14.6508 20.6623 14.9846 21.1351L15.3701 20.879C15.5915 20.7319 15.8525 20.652 16.1182 20.6605C16.3029 20.666 16.4878 20.6605 16.6719 20.6441C15.0491 19.6683 15.9508 18.0157 15.9511 18.0151Z" fill="#35355E"/>
<path d="M17.8026 26.6176C16.3661 24.8234 18.3144 23.2276 18.3144 23.2276L18.3133 23.2252C18.2531 23.2267 18.1925 23.2276 18.1312 23.2276C16.8328 23.2276 15.7405 22.9136 15.3556 21.7324C15.083 20.8962 14.4404 20.2405 13.6091 20.0015L13.5916 19.9966C11.4063 19.2792 10.7427 15.6975 10.7427 15.6975C9.06288 30.675 18.1312 30.7577 18.1312 30.7577C18.1312 30.7577 19.7504 29.0504 17.8026 26.6176Z" fill="#35355E"/>
</g>
<defs>
<clipPath id="clip0_1197_192">
<rect width="36" height="36" fill="white"/>
</clipPath>
</defs>
</svg>
